G04 #@! TF.GenerationSoftware,KiCad,Pcbnew,7.0.5*
G04 #@! TF.CreationDate,2024-01-08T16:35:04+08:00*
G04 #@! TF.ProjectId,Kretstr_d_v2,4b726574-7374-472e-9464-5f76322e6b69,rev?*
G04 #@! TF.SameCoordinates,Original*
G04 #@! TF.FileFunction,Legend,Top*
G04 #@! TF.FilePolarity,Positive*
%FSLAX46Y46*%
G04 Gerber Fmt 4.6, Leading zero omitted, Abs format (unit mm)*
G04 Created by KiCad (PCBNEW 7.0.5) date 2024-01-08 16:35:04*
%MOMM*%
%LPD*%
G01*
G04 APERTURE LIST*
G04 Aperture macros list*
%AMRoundRect*
0 Rectangle with rounded corners*
0 $1 Rounding radius*
0 $2 $3 $4 $5 $6 $7 $8 $9 X,Y pos of 4 corners*
0 Add a 4 corners polygon primitive as box body*
4,1,4,$2,$3,$4,$5,$6,$7,$8,$9,$2,$3,0*
0 Add four circle primitives for the rounded corners*
1,1,$1+$1,$2,$3*
1,1,$1+$1,$4,$5*
1,1,$1+$1,$6,$7*
1,1,$1+$1,$8,$9*
0 Add four rect primitives between the rounded corners*
20,1,$1+$1,$2,$3,$4,$5,0*
20,1,$1+$1,$4,$5,$6,$7,0*
20,1,$1+$1,$6,$7,$8,$9,0*
20,1,$1+$1,$8,$9,$2,$3,0*%
%AMFreePoly0*
4,1,22,0.686777,0.580194,0.756366,0.524698,0.794986,0.444504,0.800000,0.400000,0.800000,0.200000,0.780194,0.113223,0.741421,0.058579,0.141421,-0.541421,0.066056,-0.588777,-0.022393,-0.598742,-0.106406,-0.569345,-0.141421,-0.541421,-0.741421,0.058579,-0.788777,0.133944,-0.800000,0.200000,-0.800000,0.400000,-0.780194,0.486777,-0.724698,0.556366,-0.644504,0.594986,-0.600000,0.600000,
0.600000,0.600000,0.686777,0.580194,0.686777,0.580194,$1*%
%AMFreePoly1*
4,1,26,0.706406,1.169345,0.769345,1.106406,0.798742,1.022393,0.800000,1.000000,0.800000,-0.250000,0.780194,-0.336777,0.724698,-0.406366,0.644504,-0.444986,0.600000,-0.450000,-0.600000,-0.450000,-0.686777,-0.430194,-0.756366,-0.374698,-0.794986,-0.294504,-0.800000,-0.250000,-0.800000,1.000000,-0.780194,1.086777,-0.724698,1.156366,-0.644504,1.194986,-0.555496,1.194986,-0.475302,1.156366,
-0.458579,1.141421,0.000000,0.682842,0.458579,1.141421,0.533944,1.188777,0.622393,1.198742,0.706406,1.169345,0.706406,1.169345,$1*%
G04 Aperture macros list end*
%ADD10C,0.150000*%
%ADD11C,0.200000*%
%ADD12C,0.120000*%
%ADD13C,0.100000*%
%ADD14RoundRect,0.200000X0.700000X-0.600000X0.700000X0.600000X-0.700000X0.600000X-0.700000X-0.600000X0*%
%ADD15C,2.200000*%
%ADD16C,3.400000*%
%ADD17C,3.800000*%
%ADD18RoundRect,0.200000X-0.800000X-1.100000X0.800000X-1.100000X0.800000X1.100000X-0.800000X1.100000X0*%
%ADD19C,3.600000*%
%ADD20C,4.800000*%
%ADD21RoundRect,0.200000X0.204867X-0.606654X0.546887X0.333038X-0.204867X0.606654X-0.546887X-0.333038X0*%
%ADD22C,1.300000*%
%ADD23RoundRect,0.200000X0.585062X-0.585408X0.824477X0.072377X-0.585062X0.585408X-0.824477X-0.072377X0*%
%ADD24RoundRect,0.200000X1.127976X0.760046X-0.375532X1.307278X-1.127976X-0.760046X0.375532X-1.307278X0*%
%ADD25RoundRect,0.200000X-0.700000X0.600000X-0.700000X-0.600000X0.700000X-0.600000X0.700000X0.600000X0*%
%ADD26C,0.700000*%
%ADD27RoundRect,0.400000X-0.750000X0.200000X-0.750000X-0.200000X0.750000X-0.200000X0.750000X0.200000X0*%
%ADD28RoundRect,0.450000X-1.425000X0.400000X-1.425000X-0.400000X1.425000X-0.400000X1.425000X0.400000X0*%
%ADD29C,2.000000*%
%ADD30FreePoly0,90.000000*%
%ADD31FreePoly0,270.000000*%
%ADD32FreePoly1,270.000000*%
%ADD33FreePoly1,90.000000*%
%ADD34RoundRect,0.200000X0.978859X0.944370X-0.596833X1.222207X-0.978859X-0.944370X0.596833X-1.222207X0*%
G04 APERTURE END LIST*
D10*
X141046248Y-105996533D02*
X141808153Y-105996533D01*
X141427200Y-105615580D02*
X141427200Y-106377485D01*
X175825944Y-116594299D02*
X175108392Y-116226713D01*
X175982296Y-116164725D02*
X175455002Y-116276857D01*
X175264744Y-115797140D02*
X175518421Y-116436762D01*
X176099560Y-115842545D02*
X175621192Y-115597488D01*
X175757868Y-115667504D02*
X175702559Y-115596698D01*
X175702559Y-115596698D02*
X175681419Y-115543396D01*
X175681419Y-115543396D02*
X175673309Y-115454297D01*
X175673309Y-115454297D02*
X175699368Y-115382701D01*
X176339007Y-115073287D02*
X176347117Y-115162386D01*
X176347117Y-115162386D02*
X176295000Y-115305578D01*
X176295000Y-115305578D02*
X176234772Y-115359669D01*
X176234772Y-115359669D02*
X176153404Y-115360459D01*
X176153404Y-115360459D02*
X175880051Y-115220426D01*
X175880051Y-115220426D02*
X175824742Y-115149620D01*
X175824742Y-115149620D02*
X175816632Y-115060521D01*
X175816632Y-115060521D02*
X175868749Y-114917329D01*
X175868749Y-114917329D02*
X175928977Y-114863238D01*
X175928977Y-114863238D02*
X176010345Y-114862448D01*
X176010345Y-114862448D02*
X176078683Y-114897456D01*
X176078683Y-114897456D02*
X176016728Y-115290443D01*
X175986013Y-114595149D02*
X176090248Y-114308767D01*
X175785917Y-114365227D02*
X176400962Y-114680301D01*
X176400962Y-114680301D02*
X176482329Y-114679511D01*
X176482329Y-114679511D02*
X176542557Y-114625419D01*
X176542557Y-114625419D02*
X176568616Y-114553824D01*
X176612623Y-114321533D02*
X176672851Y-114267441D01*
X176672851Y-114267441D02*
X176724968Y-114124250D01*
X176724968Y-114124250D02*
X176716857Y-114035150D01*
X176716857Y-114035150D02*
X176661548Y-113964344D01*
X176661548Y-113964344D02*
X176627379Y-113946840D01*
X176627379Y-113946840D02*
X176546012Y-113947630D01*
X176546012Y-113947630D02*
X176485784Y-114001721D01*
X176485784Y-114001721D02*
X176446696Y-114109115D01*
X176446696Y-114109115D02*
X176386468Y-114163206D01*
X176386468Y-114163206D02*
X176305100Y-114163996D01*
X176305100Y-114163996D02*
X176270931Y-114146492D01*
X176270931Y-114146492D02*
X176215622Y-114075686D01*
X176215622Y-114075686D02*
X176207512Y-113986586D01*
X176207512Y-113986586D02*
X176246600Y-113879193D01*
X176246600Y-113879193D02*
X176306828Y-113825101D01*
X176363864Y-113557013D02*
X176468099Y-113270630D01*
X176163768Y-113327091D02*
X176778813Y-113642164D01*
X176778813Y-113642164D02*
X176860180Y-113641374D01*
X176860180Y-113641374D02*
X176920408Y-113587283D01*
X176920408Y-113587283D02*
X176946467Y-113515687D01*
X177037672Y-113265102D02*
X176559304Y-113020045D01*
X176695981Y-113090062D02*
X176640672Y-113019256D01*
X176640672Y-113019256D02*
X176619532Y-112965954D01*
X176619532Y-112965954D02*
X176611421Y-112876854D01*
X176611421Y-112876854D02*
X176637480Y-112805258D01*
X177324317Y-112477550D02*
X176948457Y-112285006D01*
X176948457Y-112285006D02*
X176867089Y-112285795D01*
X176867089Y-112285795D02*
X176806861Y-112339887D01*
X176806861Y-112339887D02*
X176754744Y-112483078D01*
X176754744Y-112483078D02*
X176762855Y-112572178D01*
X177290148Y-112460046D02*
X177298259Y-112549146D01*
X177298259Y-112549146D02*
X177233112Y-112728135D01*
X177233112Y-112728135D02*
X177172884Y-112782227D01*
X177172884Y-112782227D02*
X177091517Y-112783016D01*
X177091517Y-112783016D02*
X177023178Y-112748008D01*
X177023178Y-112748008D02*
X176967869Y-112677202D01*
X176967869Y-112677202D02*
X176959759Y-112588103D01*
X176959759Y-112588103D02*
X177024906Y-112409114D01*
X177024906Y-112409114D02*
X177016795Y-112320014D01*
X176489501Y-112432145D02*
X176536700Y-112413852D01*
X176536700Y-112413852D02*
X176557840Y-112467153D01*
X176557840Y-112467153D02*
X176510641Y-112485447D01*
X176510641Y-112485447D02*
X176489501Y-112432145D01*
X176489501Y-112432145D02*
X176557840Y-112467153D01*
X176593736Y-112145763D02*
X176640935Y-112127469D01*
X176640935Y-112127469D02*
X176662074Y-112180771D01*
X176662074Y-112180771D02*
X176614876Y-112199065D01*
X176614876Y-112199065D02*
X176593736Y-112145763D01*
X176593736Y-112145763D02*
X176662074Y-112180771D01*
X177571875Y-111797391D02*
X176854323Y-111429806D01*
X177537706Y-111779887D02*
X177545816Y-111868987D01*
X177545816Y-111868987D02*
X177493699Y-112012178D01*
X177493699Y-112012178D02*
X177433471Y-112066270D01*
X177433471Y-112066270D02*
X177386273Y-112084564D01*
X177386273Y-112084564D02*
X177304905Y-112085353D01*
X177304905Y-112085353D02*
X177099890Y-111980329D01*
X177099890Y-111980329D02*
X177044581Y-111909523D01*
X177044581Y-111909523D02*
X177023441Y-111856221D01*
X177023441Y-111856221D02*
X177015331Y-111767121D01*
X177015331Y-111767121D02*
X177067448Y-111623930D01*
X177067448Y-111623930D02*
X177127676Y-111569839D01*
X177681029Y-111386111D02*
X177715198Y-111403615D01*
X177715198Y-111403615D02*
X177770507Y-111474421D01*
X177770507Y-111474421D02*
X177791647Y-111527723D01*
X178128945Y-110044088D02*
X178150085Y-110097390D01*
X178150085Y-110097390D02*
X178145166Y-110222287D01*
X178145166Y-110222287D02*
X178119107Y-110293883D01*
X178119107Y-110293883D02*
X178045850Y-110383772D01*
X178045850Y-110383772D02*
X177951453Y-110420360D01*
X177951453Y-110420360D02*
X177870086Y-110421150D01*
X177870086Y-110421150D02*
X177720380Y-110386931D01*
X177720380Y-110386931D02*
X177617872Y-110334419D01*
X177617872Y-110334419D02*
X177494225Y-110228605D01*
X177494225Y-110228605D02*
X177438916Y-110157799D01*
X177438916Y-110157799D02*
X177396636Y-110051195D01*
X177396636Y-110051195D02*
X177401555Y-109926298D01*
X177401555Y-109926298D02*
X177427614Y-109854702D01*
X177427614Y-109854702D02*
X177500871Y-109764813D01*
X177500871Y-109764813D02*
X177548070Y-109746519D01*
X178314547Y-109756916D02*
X177836179Y-109511859D01*
X177596995Y-109389330D02*
X177618135Y-109442632D01*
X177618135Y-109442632D02*
X177665334Y-109424339D01*
X177665334Y-109424339D02*
X177644194Y-109371037D01*
X177644194Y-109371037D02*
X177596995Y-109389330D01*
X177596995Y-109389330D02*
X177665334Y-109424339D01*
X178444841Y-109398938D02*
X177966473Y-109153881D01*
X178103149Y-109223897D02*
X178047840Y-109153091D01*
X178047840Y-109153091D02*
X178026701Y-109099790D01*
X178026701Y-109099790D02*
X178018590Y-109010690D01*
X178018590Y-109010690D02*
X178044649Y-108939094D01*
X178697317Y-108593882D02*
X178705427Y-108682982D01*
X178705427Y-108682982D02*
X178653310Y-108826173D01*
X178653310Y-108826173D02*
X178593082Y-108880265D01*
X178593082Y-108880265D02*
X178545884Y-108898558D01*
X178545884Y-108898558D02*
X178464516Y-108899348D01*
X178464516Y-108899348D02*
X178259501Y-108794324D01*
X178259501Y-108794324D02*
X178204192Y-108723518D01*
X178204192Y-108723518D02*
X178183053Y-108670216D01*
X178183053Y-108670216D02*
X178174942Y-108581116D01*
X178174942Y-108581116D02*
X178227059Y-108437925D01*
X178227059Y-108437925D02*
X178287287Y-108383833D01*
X178487646Y-107721969D02*
X178966014Y-107967026D01*
X178370382Y-108044149D02*
X178746243Y-108236694D01*
X178746243Y-108236694D02*
X178827610Y-108235904D01*
X178827610Y-108235904D02*
X178887838Y-108181813D01*
X178887838Y-108181813D02*
X178926926Y-108074419D01*
X178926926Y-108074419D02*
X178918816Y-107985320D01*
X178918816Y-107985320D02*
X178897676Y-107932018D01*
X179096308Y-107609047D02*
X178617940Y-107363990D01*
X178378756Y-107241462D02*
X178399895Y-107294764D01*
X178399895Y-107294764D02*
X178447094Y-107276470D01*
X178447094Y-107276470D02*
X178425954Y-107223168D01*
X178425954Y-107223168D02*
X178378756Y-107241462D01*
X178378756Y-107241462D02*
X178447094Y-107276470D01*
X178709145Y-107113406D02*
X178813380Y-106827023D01*
X178509049Y-106883484D02*
X179124094Y-107198557D01*
X179124094Y-107198557D02*
X179205461Y-107197768D01*
X179205461Y-107197768D02*
X179265689Y-107143676D01*
X179265689Y-107143676D02*
X179291748Y-107072080D01*
X178834782Y-105988538D02*
X178991135Y-105558965D01*
X179630511Y-106141337D02*
X178912959Y-105773752D01*
X179799892Y-105675965D02*
X179321524Y-105430908D01*
X179458201Y-105500924D02*
X179402892Y-105430119D01*
X179402892Y-105430119D02*
X179381752Y-105376817D01*
X179381752Y-105376817D02*
X179373641Y-105287717D01*
X179373641Y-105287717D02*
X179399700Y-105216121D01*
X180039339Y-104906707D02*
X180047449Y-104995807D01*
X180047449Y-104995807D02*
X179995332Y-105138998D01*
X179995332Y-105138998D02*
X179935104Y-105193090D01*
X179935104Y-105193090D02*
X179853737Y-105193879D01*
X179853737Y-105193879D02*
X179580383Y-105053847D01*
X179580383Y-105053847D02*
X179525075Y-104983041D01*
X179525075Y-104983041D02*
X179516964Y-104893941D01*
X179516964Y-104893941D02*
X179569081Y-104750750D01*
X179569081Y-104750750D02*
X179629309Y-104696658D01*
X179629309Y-104696658D02*
X179710677Y-104695869D01*
X179710677Y-104695869D02*
X179779015Y-104730877D01*
X179779015Y-104730877D02*
X179717060Y-105123863D01*
X180273867Y-104262347D02*
X180281977Y-104351446D01*
X180281977Y-104351446D02*
X180229860Y-104494638D01*
X180229860Y-104494638D02*
X180169632Y-104548729D01*
X180169632Y-104548729D02*
X180088265Y-104549519D01*
X180088265Y-104549519D02*
X179814911Y-104409486D01*
X179814911Y-104409486D02*
X179759603Y-104338680D01*
X179759603Y-104338680D02*
X179751492Y-104249581D01*
X179751492Y-104249581D02*
X179803609Y-104106389D01*
X179803609Y-104106389D02*
X179863837Y-104052298D01*
X179863837Y-104052298D02*
X179945205Y-104051508D01*
X179945205Y-104051508D02*
X180013543Y-104086516D01*
X180013543Y-104086516D02*
X179951588Y-104479503D01*
X180417190Y-103868571D02*
X180451359Y-103886075D01*
X180451359Y-103886075D02*
X180506668Y-103956881D01*
X180506668Y-103956881D02*
X180527808Y-104010183D01*
X180865106Y-102526548D02*
X180886246Y-102579850D01*
X180886246Y-102579850D02*
X180881327Y-102704747D01*
X180881327Y-102704747D02*
X180855268Y-102776343D01*
X180855268Y-102776343D02*
X180782011Y-102866232D01*
X180782011Y-102866232D02*
X180687614Y-102902820D01*
X180687614Y-102902820D02*
X180606246Y-102903610D01*
X180606246Y-102903610D02*
X180456541Y-102869391D01*
X180456541Y-102869391D02*
X180354033Y-102816879D01*
X180354033Y-102816879D02*
X180230386Y-102711065D01*
X180230386Y-102711065D02*
X180175077Y-102640259D01*
X180175077Y-102640259D02*
X180132797Y-102533655D01*
X180132797Y-102533655D02*
X180137716Y-102408758D01*
X180137716Y-102408758D02*
X180163775Y-102337162D01*
X180163775Y-102337162D02*
X180237032Y-102247273D01*
X180237032Y-102247273D02*
X180284230Y-102228979D01*
X181050708Y-102239376D02*
X180572340Y-101994319D01*
X180333156Y-101871790D02*
X180354296Y-101925092D01*
X180354296Y-101925092D02*
X180401495Y-101906799D01*
X180401495Y-101906799D02*
X180380355Y-101853497D01*
X180380355Y-101853497D02*
X180333156Y-101871790D01*
X180333156Y-101871790D02*
X180401495Y-101906799D01*
X181181002Y-101881398D02*
X180702634Y-101636341D01*
X180839310Y-101706357D02*
X180784001Y-101635551D01*
X180784001Y-101635551D02*
X180762861Y-101582250D01*
X180762861Y-101582250D02*
X180754751Y-101493150D01*
X180754751Y-101493150D02*
X180780810Y-101421554D01*
X181433478Y-101076342D02*
X181441588Y-101165442D01*
X181441588Y-101165442D02*
X181389471Y-101308633D01*
X181389471Y-101308633D02*
X181329243Y-101362725D01*
X181329243Y-101362725D02*
X181282045Y-101381018D01*
X181282045Y-101381018D02*
X181200677Y-101381808D01*
X181200677Y-101381808D02*
X180995662Y-101276784D01*
X180995662Y-101276784D02*
X180940353Y-101205978D01*
X180940353Y-101205978D02*
X180919213Y-101152676D01*
X180919213Y-101152676D02*
X180911103Y-101063576D01*
X180911103Y-101063576D02*
X180963220Y-100920385D01*
X180963220Y-100920385D02*
X181023448Y-100866293D01*
X181223807Y-100204429D02*
X181702175Y-100449486D01*
X181106543Y-100526609D02*
X181482403Y-100719154D01*
X181482403Y-100719154D02*
X181563771Y-100718364D01*
X181563771Y-100718364D02*
X181623999Y-100664273D01*
X181623999Y-100664273D02*
X181663087Y-100556879D01*
X181663087Y-100556879D02*
X181654976Y-100467780D01*
X181654976Y-100467780D02*
X181633837Y-100414478D01*
X181832469Y-100091507D02*
X181354100Y-99846450D01*
X181114916Y-99723922D02*
X181136056Y-99777224D01*
X181136056Y-99777224D02*
X181183255Y-99758930D01*
X181183255Y-99758930D02*
X181162115Y-99705628D01*
X181162115Y-99705628D02*
X181114916Y-99723922D01*
X181114916Y-99723922D02*
X181183255Y-99758930D01*
X181445306Y-99595866D02*
X181549540Y-99309483D01*
X181245210Y-99365944D02*
X181860254Y-99681017D01*
X181860254Y-99681017D02*
X181941622Y-99680228D01*
X181941622Y-99680228D02*
X182001850Y-99626136D01*
X182001850Y-99626136D02*
X182027908Y-99554540D01*
X182119114Y-99303956D02*
X181640746Y-99058899D01*
X181777422Y-99128915D02*
X181722113Y-99058109D01*
X181722113Y-99058109D02*
X181700974Y-99004807D01*
X181700974Y-99004807D02*
X181692863Y-98915707D01*
X181692863Y-98915707D02*
X181718922Y-98844112D01*
X181784069Y-98665123D02*
X182327583Y-98731191D01*
X181914362Y-98307145D02*
X182327583Y-98731191D01*
X182327583Y-98731191D02*
X182472370Y-98890307D01*
X182472370Y-98890307D02*
X182493510Y-98943608D01*
X182493510Y-98943608D02*
X182501621Y-99032708D01*
X178246592Y-117475343D02*
X177529040Y-117107757D01*
X177529040Y-117107757D02*
X178402944Y-117045769D01*
X178402944Y-117045769D02*
X177685392Y-116678184D01*
X177867802Y-116177014D02*
X177919920Y-116033823D01*
X177919920Y-116033823D02*
X177980147Y-115979732D01*
X177980147Y-115979732D02*
X178074544Y-115943144D01*
X178074544Y-115943144D02*
X178224250Y-115977363D01*
X178224250Y-115977363D02*
X178463434Y-116099891D01*
X178463434Y-116099891D02*
X178587082Y-116205705D01*
X178587082Y-116205705D02*
X178629361Y-116312309D01*
X178629361Y-116312309D02*
X178637472Y-116401409D01*
X178637472Y-116401409D02*
X178585354Y-116544600D01*
X178585354Y-116544600D02*
X178525127Y-116598691D01*
X178525127Y-116598691D02*
X178430730Y-116635279D01*
X178430730Y-116635279D02*
X178281024Y-116601060D01*
X178281024Y-116601060D02*
X178041840Y-116478532D01*
X178041840Y-116478532D02*
X177918192Y-116372718D01*
X177918192Y-116372718D02*
X177875913Y-116266114D01*
X177875913Y-116266114D02*
X177867802Y-116177014D01*
X178102330Y-115532654D02*
X178683206Y-115830223D01*
X178683206Y-115830223D02*
X178764573Y-115829433D01*
X178764573Y-115829433D02*
X178811772Y-115811140D01*
X178811772Y-115811140D02*
X178872000Y-115757048D01*
X178872000Y-115757048D02*
X178924117Y-115613857D01*
X178924117Y-115613857D02*
X178916007Y-115524757D01*
X178916007Y-115524757D02*
X178894867Y-115471455D01*
X178894867Y-115471455D02*
X178839558Y-115400649D01*
X178839558Y-115400649D02*
X178258682Y-115103080D01*
X179106528Y-115112688D02*
X178388976Y-114745102D01*
X178388976Y-114745102D02*
X179262880Y-114683114D01*
X179262880Y-114683114D02*
X178545328Y-114315529D01*
X179600238Y-117522089D02*
X179443886Y-117951663D01*
X179522062Y-117736876D02*
X178804510Y-117369290D01*
X178804510Y-117369290D02*
X178880959Y-117493398D01*
X178880959Y-117493398D02*
X178923239Y-117600002D01*
X178923239Y-117600002D02*
X178931349Y-117689102D01*
X179649164Y-117164900D02*
X179696363Y-117146606D01*
X179696363Y-117146606D02*
X179717502Y-117199908D01*
X179717502Y-117199908D02*
X179670304Y-117218202D01*
X179670304Y-117218202D02*
X179649164Y-117164900D01*
X179649164Y-117164900D02*
X179717502Y-117199908D01*
X179538809Y-116131502D02*
X179643044Y-115845119D01*
X179338713Y-115901580D02*
X179953758Y-116216653D01*
X179953758Y-116216653D02*
X180035125Y-116215863D01*
X180035125Y-116215863D02*
X180095353Y-116161772D01*
X180095353Y-116161772D02*
X180121412Y-116090176D01*
X180212617Y-115839591D02*
X179495065Y-115472006D01*
X180329881Y-115517411D02*
X179954021Y-115324866D01*
X179954021Y-115324866D02*
X179872653Y-115325656D01*
X179872653Y-115325656D02*
X179812425Y-115379748D01*
X179812425Y-115379748D02*
X179773337Y-115487141D01*
X179773337Y-115487141D02*
X179781448Y-115576241D01*
X179781448Y-115576241D02*
X179802588Y-115629543D01*
X180530240Y-114855546D02*
X180538351Y-114944646D01*
X180538351Y-114944646D02*
X180486234Y-115087837D01*
X180486234Y-115087837D02*
X180426006Y-115141928D01*
X180426006Y-115141928D02*
X180344638Y-115142718D01*
X180344638Y-115142718D02*
X180071285Y-115002686D01*
X180071285Y-115002686D02*
X180015976Y-114931880D01*
X180015976Y-114931880D02*
X180007866Y-114842780D01*
X180007866Y-114842780D02*
X180059983Y-114699589D01*
X180059983Y-114699589D02*
X180120211Y-114645497D01*
X180120211Y-114645497D02*
X180201578Y-114644707D01*
X180201578Y-114644707D02*
X180269917Y-114679716D01*
X180269917Y-114679716D02*
X180207962Y-115072702D01*
X180855974Y-113960601D02*
X180916202Y-113906509D01*
X180916202Y-113906509D02*
X180968319Y-113763318D01*
X180968319Y-113763318D02*
X180960209Y-113674218D01*
X180960209Y-113674218D02*
X180904900Y-113603412D01*
X180904900Y-113603412D02*
X180870731Y-113585908D01*
X180870731Y-113585908D02*
X180789363Y-113586698D01*
X180789363Y-113586698D02*
X180729135Y-113640789D01*
X180729135Y-113640789D02*
X180690047Y-113748183D01*
X180690047Y-113748183D02*
X180629819Y-113802274D01*
X180629819Y-113802274D02*
X180548452Y-113803064D01*
X180548452Y-113803064D02*
X180514282Y-113785560D01*
X180514282Y-113785560D02*
X180458973Y-113714754D01*
X180458973Y-113714754D02*
X180450863Y-113625654D01*
X180450863Y-113625654D02*
X180489951Y-113518261D01*
X180489951Y-113518261D02*
X180550179Y-113464169D01*
X181207766Y-112994060D02*
X181215877Y-113083159D01*
X181215877Y-113083159D02*
X181163759Y-113226351D01*
X181163759Y-113226351D02*
X181103531Y-113280442D01*
X181103531Y-113280442D02*
X181056333Y-113298736D01*
X181056333Y-113298736D02*
X180974965Y-113299526D01*
X180974965Y-113299526D02*
X180769950Y-113194501D01*
X180769950Y-113194501D02*
X180714641Y-113123695D01*
X180714641Y-113123695D02*
X180693502Y-113070393D01*
X180693502Y-113070393D02*
X180685391Y-112981294D01*
X180685391Y-112981294D02*
X180737508Y-112838102D01*
X180737508Y-112838102D02*
X180797736Y-112784011D01*
X181359199Y-112689384D02*
X180880831Y-112444327D01*
X180641647Y-112321798D02*
X180662787Y-112375100D01*
X180662787Y-112375100D02*
X180709985Y-112356806D01*
X180709985Y-112356806D02*
X180688846Y-112303505D01*
X180688846Y-112303505D02*
X180641647Y-112321798D01*
X180641647Y-112321798D02*
X180709985Y-112356806D01*
X181559558Y-112027519D02*
X181567668Y-112116619D01*
X181567668Y-112116619D02*
X181515551Y-112259810D01*
X181515551Y-112259810D02*
X181455323Y-112313902D01*
X181455323Y-112313902D02*
X181373956Y-112314692D01*
X181373956Y-112314692D02*
X181100602Y-112174659D01*
X181100602Y-112174659D02*
X181045293Y-112103853D01*
X181045293Y-112103853D02*
X181037183Y-112014753D01*
X181037183Y-112014753D02*
X181089300Y-111871562D01*
X181089300Y-111871562D02*
X181149528Y-111817471D01*
X181149528Y-111817471D02*
X181230896Y-111816681D01*
X181230896Y-111816681D02*
X181299234Y-111851689D01*
X181299234Y-111851689D02*
X181237279Y-112244675D01*
X181245652Y-111441989D02*
X181724020Y-111687046D01*
X181313991Y-111476997D02*
X181292851Y-111423695D01*
X181292851Y-111423695D02*
X181284740Y-111334595D01*
X181284740Y-111334595D02*
X181323828Y-111227202D01*
X181323828Y-111227202D02*
X181384056Y-111173110D01*
X181384056Y-111173110D02*
X181465424Y-111172320D01*
X181465424Y-111172320D02*
X181841284Y-111364865D01*
X182054673Y-110667202D02*
X182062783Y-110756302D01*
X182062783Y-110756302D02*
X182010666Y-110899493D01*
X182010666Y-110899493D02*
X181950438Y-110953585D01*
X181950438Y-110953585D02*
X181903240Y-110971878D01*
X181903240Y-110971878D02*
X181821872Y-110972668D01*
X181821872Y-110972668D02*
X181616857Y-110867644D01*
X181616857Y-110867644D02*
X181561548Y-110796838D01*
X181561548Y-110796838D02*
X181540408Y-110743536D01*
X181540408Y-110743536D02*
X181532298Y-110654436D01*
X181532298Y-110654436D02*
X181584415Y-110511245D01*
X181584415Y-110511245D02*
X181644643Y-110457153D01*
X182276172Y-110058640D02*
X182284282Y-110147739D01*
X182284282Y-110147739D02*
X182232165Y-110290931D01*
X182232165Y-110290931D02*
X182171937Y-110345022D01*
X182171937Y-110345022D02*
X182090569Y-110345812D01*
X182090569Y-110345812D02*
X181817216Y-110205779D01*
X181817216Y-110205779D02*
X181761907Y-110134973D01*
X181761907Y-110134973D02*
X181753797Y-110045874D01*
X181753797Y-110045874D02*
X181805914Y-109902682D01*
X181805914Y-109902682D02*
X181866142Y-109848591D01*
X181866142Y-109848591D02*
X181947509Y-109847801D01*
X181947509Y-109847801D02*
X182015848Y-109882809D01*
X182015848Y-109882809D02*
X181953893Y-110275796D01*
X182688192Y-109038007D02*
X182627964Y-109092099D01*
X182627964Y-109092099D02*
X182580765Y-109110393D01*
X182580765Y-109110393D02*
X182499398Y-109111182D01*
X182499398Y-109111182D02*
X182294383Y-109006158D01*
X182294383Y-109006158D02*
X182239074Y-108935352D01*
X182239074Y-108935352D02*
X182217934Y-108882050D01*
X182217934Y-108882050D02*
X182209823Y-108792950D01*
X182209823Y-108792950D02*
X182248911Y-108685557D01*
X182248911Y-108685557D02*
X182309139Y-108631465D01*
X182309139Y-108631465D02*
X182356338Y-108613172D01*
X182356338Y-108613172D02*
X182437705Y-108612382D01*
X182437705Y-108612382D02*
X182642720Y-108717406D01*
X182642720Y-108717406D02*
X182698029Y-108788212D01*
X182698029Y-108788212D02*
X182719169Y-108841514D01*
X182719169Y-108841514D02*
X182727280Y-108930614D01*
X182727280Y-108930614D02*
X182688192Y-109038007D01*
X182379205Y-108327578D02*
X182483440Y-108041196D01*
X182896661Y-108465242D02*
X182281616Y-108150169D01*
X182281616Y-108150169D02*
X182226307Y-108079363D01*
X182226307Y-108079363D02*
X182218197Y-107990263D01*
X182218197Y-107990263D02*
X182244256Y-107918667D01*
X183378747Y-107140722D02*
X182661195Y-106773137D01*
X183344578Y-107123218D02*
X183352688Y-107212318D01*
X183352688Y-107212318D02*
X183300571Y-107355509D01*
X183300571Y-107355509D02*
X183240343Y-107409601D01*
X183240343Y-107409601D02*
X183193144Y-107427894D01*
X183193144Y-107427894D02*
X183111777Y-107428684D01*
X183111777Y-107428684D02*
X182906762Y-107323660D01*
X182906762Y-107323660D02*
X182851453Y-107252854D01*
X182851453Y-107252854D02*
X182830313Y-107199552D01*
X182830313Y-107199552D02*
X182822203Y-107110452D01*
X182822203Y-107110452D02*
X182874320Y-106967261D01*
X182874320Y-106967261D02*
X182934548Y-106913169D01*
X183579106Y-106478857D02*
X183587216Y-106567957D01*
X183587216Y-106567957D02*
X183535099Y-106711148D01*
X183535099Y-106711148D02*
X183474871Y-106765240D01*
X183474871Y-106765240D02*
X183393504Y-106766029D01*
X183393504Y-106766029D02*
X183120150Y-106625997D01*
X183120150Y-106625997D02*
X183064841Y-106555191D01*
X183064841Y-106555191D02*
X183056731Y-106466091D01*
X183056731Y-106466091D02*
X183108848Y-106322900D01*
X183108848Y-106322900D02*
X183169076Y-106268808D01*
X183169076Y-106268808D02*
X183250444Y-106268019D01*
X183250444Y-106268019D02*
X183318782Y-106303027D01*
X183318782Y-106303027D02*
X183256827Y-106696013D01*
X183696370Y-106156677D02*
X183756598Y-106102586D01*
X183756598Y-106102586D02*
X183808715Y-105959394D01*
X183808715Y-105959394D02*
X183800605Y-105870295D01*
X183800605Y-105870295D02*
X183745296Y-105799489D01*
X183745296Y-105799489D02*
X183711126Y-105781985D01*
X183711126Y-105781985D02*
X183629759Y-105782774D01*
X183629759Y-105782774D02*
X183569531Y-105836866D01*
X183569531Y-105836866D02*
X183530443Y-105944259D01*
X183530443Y-105944259D02*
X183470215Y-105998351D01*
X183470215Y-105998351D02*
X183388847Y-105999140D01*
X183388847Y-105999140D02*
X183354678Y-105981636D01*
X183354678Y-105981636D02*
X183299369Y-105910830D01*
X183299369Y-105910830D02*
X183291259Y-105821731D01*
X183291259Y-105821731D02*
X183330347Y-105714337D01*
X183330347Y-105714337D02*
X183390575Y-105660246D01*
X183965067Y-105529821D02*
X183486699Y-105284764D01*
X183247515Y-105162235D02*
X183268655Y-105215537D01*
X183268655Y-105215537D02*
X183315853Y-105197243D01*
X183315853Y-105197243D02*
X183294713Y-105143941D01*
X183294713Y-105143941D02*
X183247515Y-105162235D01*
X183247515Y-105162235D02*
X183315853Y-105197243D01*
X183734256Y-104604606D02*
X184315132Y-104902175D01*
X184315132Y-104902175D02*
X184370441Y-104972981D01*
X184370441Y-104972981D02*
X184391581Y-105026282D01*
X184391581Y-105026282D02*
X184399691Y-105115382D01*
X184399691Y-105115382D02*
X184360603Y-105222776D01*
X184360603Y-105222776D02*
X184300375Y-105276867D01*
X184178455Y-104832158D02*
X184186566Y-104921258D01*
X184186566Y-104921258D02*
X184134448Y-105064449D01*
X184134448Y-105064449D02*
X184074220Y-105118541D01*
X184074220Y-105118541D02*
X184027022Y-105136835D01*
X184027022Y-105136835D02*
X183945654Y-105137624D01*
X183945654Y-105137624D02*
X183740639Y-105032600D01*
X183740639Y-105032600D02*
X183685331Y-104961794D01*
X183685331Y-104961794D02*
X183664191Y-104908492D01*
X183664191Y-104908492D02*
X183656080Y-104819392D01*
X183656080Y-104819392D02*
X183708198Y-104676201D01*
X183708198Y-104676201D02*
X183768425Y-104622110D01*
X183864550Y-104246627D02*
X184342918Y-104491684D01*
X183932888Y-104281635D02*
X183911748Y-104228333D01*
X183911748Y-104228333D02*
X183903638Y-104139233D01*
X183903638Y-104139233D02*
X183942726Y-104031840D01*
X183942726Y-104031840D02*
X184002954Y-103977748D01*
X184002954Y-103977748D02*
X184084321Y-103976959D01*
X184084321Y-103976959D02*
X184460182Y-104169504D01*
X184590475Y-103811525D02*
X184112107Y-103566468D01*
X183872923Y-103443940D02*
X183894063Y-103497241D01*
X183894063Y-103497241D02*
X183941262Y-103478948D01*
X183941262Y-103478948D02*
X183920122Y-103425646D01*
X183920122Y-103425646D02*
X183872923Y-103443940D01*
X183872923Y-103443940D02*
X183941262Y-103478948D01*
X184242401Y-103208490D02*
X184720769Y-103453547D01*
X184310739Y-103243498D02*
X184289599Y-103190196D01*
X184289599Y-103190196D02*
X184281489Y-103101097D01*
X184281489Y-103101097D02*
X184320577Y-102993703D01*
X184320577Y-102993703D02*
X184380805Y-102939612D01*
X184380805Y-102939612D02*
X184462172Y-102938822D01*
X184462172Y-102938822D02*
X184838033Y-103131367D01*
X184607222Y-102206151D02*
X185188098Y-102503720D01*
X185188098Y-102503720D02*
X185243407Y-102574526D01*
X185243407Y-102574526D02*
X185264547Y-102627828D01*
X185264547Y-102627828D02*
X185272657Y-102716928D01*
X185272657Y-102716928D02*
X185233569Y-102824321D01*
X185233569Y-102824321D02*
X185173341Y-102878413D01*
X185051421Y-102433704D02*
X185059532Y-102522804D01*
X185059532Y-102522804D02*
X185007414Y-102665995D01*
X185007414Y-102665995D02*
X184947187Y-102720086D01*
X184947187Y-102720086D02*
X184899988Y-102738380D01*
X184899988Y-102738380D02*
X184818620Y-102739170D01*
X184818620Y-102739170D02*
X184613606Y-102634145D01*
X184613606Y-102634145D02*
X184558297Y-102563339D01*
X184558297Y-102563339D02*
X184537157Y-102510038D01*
X184537157Y-102510038D02*
X184529046Y-102420938D01*
X184529046Y-102420938D02*
X184581164Y-102277747D01*
X184581164Y-102277747D02*
X184641391Y-102223655D01*
X185494419Y-101216578D02*
X185502529Y-101305677D01*
X185502529Y-101305677D02*
X185450412Y-101448868D01*
X185450412Y-101448868D02*
X185390184Y-101502960D01*
X185390184Y-101502960D02*
X185308817Y-101503750D01*
X185308817Y-101503750D02*
X185035463Y-101363717D01*
X185035463Y-101363717D02*
X184980155Y-101292911D01*
X184980155Y-101292911D02*
X184972044Y-101203812D01*
X184972044Y-101203812D02*
X185024161Y-101060620D01*
X185024161Y-101060620D02*
X185084389Y-101006529D01*
X185084389Y-101006529D02*
X185165757Y-101005739D01*
X185165757Y-101005739D02*
X185234095Y-101040747D01*
X185234095Y-101040747D02*
X185172140Y-101433733D01*
X185697969Y-100768710D02*
X185637742Y-100822802D01*
X185637742Y-100822802D02*
X185556374Y-100823592D01*
X185556374Y-100823592D02*
X184941329Y-100508518D01*
X185872270Y-100178441D02*
X185880380Y-100267541D01*
X185880380Y-100267541D02*
X185828263Y-100410732D01*
X185828263Y-100410732D02*
X185768035Y-100464823D01*
X185768035Y-100464823D02*
X185686668Y-100465613D01*
X185686668Y-100465613D02*
X185413314Y-100325580D01*
X185413314Y-100325580D02*
X185358005Y-100254775D01*
X185358005Y-100254775D02*
X185349895Y-100165675D01*
X185349895Y-100165675D02*
X185402012Y-100022484D01*
X185402012Y-100022484D02*
X185462240Y-99968392D01*
X185462240Y-99968392D02*
X185543608Y-99967602D01*
X185543608Y-99967602D02*
X185611946Y-100002610D01*
X185611946Y-100002610D02*
X185549991Y-100395597D01*
X186119827Y-99498283D02*
X186127938Y-99587382D01*
X186127938Y-99587382D02*
X186075820Y-99730574D01*
X186075820Y-99730574D02*
X186015592Y-99784665D01*
X186015592Y-99784665D02*
X185968394Y-99802959D01*
X185968394Y-99802959D02*
X185887026Y-99803749D01*
X185887026Y-99803749D02*
X185682011Y-99698724D01*
X185682011Y-99698724D02*
X185626703Y-99627918D01*
X185626703Y-99627918D02*
X185605563Y-99574616D01*
X185605563Y-99574616D02*
X185597452Y-99485517D01*
X185597452Y-99485517D02*
X185649570Y-99342325D01*
X185649570Y-99342325D02*
X185709797Y-99288234D01*
X185753804Y-99055943D02*
X185858039Y-98769561D01*
X185553708Y-98826021D02*
X186168753Y-99141094D01*
X186168753Y-99141094D02*
X186250120Y-99140305D01*
X186250120Y-99140305D02*
X186310348Y-99086213D01*
X186310348Y-99086213D02*
X186336407Y-99014618D01*
X186427612Y-98764033D02*
X185949244Y-98518976D01*
X186085921Y-98588992D02*
X186030612Y-98518186D01*
X186030612Y-98518186D02*
X186009472Y-98464884D01*
X186009472Y-98464884D02*
X186001362Y-98375785D01*
X186001362Y-98375785D02*
X186027420Y-98304189D01*
X186596994Y-98298661D02*
X186118626Y-98053604D01*
X185879442Y-97931076D02*
X185900582Y-97984378D01*
X185900582Y-97984378D02*
X185947780Y-97966084D01*
X185947780Y-97966084D02*
X185926640Y-97912782D01*
X185926640Y-97912782D02*
X185879442Y-97931076D01*
X185879442Y-97931076D02*
X185947780Y-97966084D01*
X186810382Y-97600999D02*
X186818492Y-97690099D01*
X186818492Y-97690099D02*
X186766375Y-97833290D01*
X186766375Y-97833290D02*
X186706147Y-97887382D01*
X186706147Y-97887382D02*
X186658949Y-97905675D01*
X186658949Y-97905675D02*
X186577581Y-97906465D01*
X186577581Y-97906465D02*
X186372566Y-97801441D01*
X186372566Y-97801441D02*
X186317257Y-97730635D01*
X186317257Y-97730635D02*
X186296117Y-97677333D01*
X186296117Y-97677333D02*
X186288007Y-97588233D01*
X186288007Y-97588233D02*
X186340124Y-97445042D01*
X186340124Y-97445042D02*
X186400352Y-97390950D01*
X181331736Y-116530698D02*
X181271508Y-116584789D01*
X181271508Y-116584789D02*
X181224310Y-116603083D01*
X181224310Y-116603083D02*
X181142942Y-116603873D01*
X181142942Y-116603873D02*
X180937927Y-116498848D01*
X180937927Y-116498848D02*
X180882618Y-116428042D01*
X180882618Y-116428042D02*
X180861478Y-116374741D01*
X180861478Y-116374741D02*
X180853368Y-116285641D01*
X180853368Y-116285641D02*
X180892456Y-116178247D01*
X180892456Y-116178247D02*
X180952684Y-116124156D01*
X180952684Y-116124156D02*
X180999882Y-116105862D01*
X180999882Y-116105862D02*
X181081250Y-116105072D01*
X181081250Y-116105072D02*
X181286265Y-116210097D01*
X181286265Y-116210097D02*
X181341574Y-116280903D01*
X181341574Y-116280903D02*
X181362714Y-116334205D01*
X181362714Y-116334205D02*
X181370824Y-116423304D01*
X181370824Y-116423304D02*
X181331736Y-116530698D01*
X181540206Y-115957932D02*
X181061838Y-115712875D01*
X181198514Y-115782892D02*
X181143205Y-115712086D01*
X181143205Y-115712086D02*
X181122065Y-115658784D01*
X181122065Y-115658784D02*
X181113955Y-115569684D01*
X181113955Y-115569684D02*
X181140014Y-115498088D01*
X181988122Y-114615909D02*
X181996233Y-114705009D01*
X181996233Y-114705009D02*
X181944115Y-114848200D01*
X181944115Y-114848200D02*
X181883887Y-114902292D01*
X181883887Y-114902292D02*
X181802520Y-114903081D01*
X181802520Y-114903081D02*
X181529167Y-114763049D01*
X181529167Y-114763049D02*
X181473858Y-114692243D01*
X181473858Y-114692243D02*
X181465747Y-114603143D01*
X181465747Y-114603143D02*
X181517864Y-114459952D01*
X181517864Y-114459952D02*
X181578092Y-114405860D01*
X181578092Y-114405860D02*
X181659460Y-114405071D01*
X181659460Y-114405071D02*
X181727798Y-114440079D01*
X181727798Y-114440079D02*
X181665843Y-114833065D01*
X182191673Y-114168042D02*
X182131445Y-114222133D01*
X182131445Y-114222133D02*
X182050077Y-114222923D01*
X182050077Y-114222923D02*
X181435032Y-113907850D01*
X182365973Y-113577772D02*
X182374083Y-113666872D01*
X182374083Y-113666872D02*
X182321966Y-113810063D01*
X182321966Y-113810063D02*
X182261738Y-113864155D01*
X182261738Y-113864155D02*
X182180371Y-113864944D01*
X182180371Y-113864944D02*
X181907017Y-113724912D01*
X181907017Y-113724912D02*
X181851708Y-113654106D01*
X181851708Y-113654106D02*
X181843598Y-113565006D01*
X181843598Y-113565006D02*
X181895715Y-113421815D01*
X181895715Y-113421815D02*
X181955943Y-113367724D01*
X181955943Y-113367724D02*
X182037311Y-113366934D01*
X182037311Y-113366934D02*
X182105649Y-113401942D01*
X182105649Y-113401942D02*
X182043694Y-113794928D01*
X182613530Y-112897614D02*
X182621641Y-112986714D01*
X182621641Y-112986714D02*
X182569523Y-113129905D01*
X182569523Y-113129905D02*
X182509296Y-113183997D01*
X182509296Y-113183997D02*
X182462097Y-113202290D01*
X182462097Y-113202290D02*
X182380729Y-113203080D01*
X182380729Y-113203080D02*
X182175715Y-113098056D01*
X182175715Y-113098056D02*
X182120406Y-113027250D01*
X182120406Y-113027250D02*
X182099266Y-112973948D01*
X182099266Y-112973948D02*
X182091155Y-112884848D01*
X182091155Y-112884848D02*
X182143273Y-112741657D01*
X182143273Y-112741657D02*
X182203501Y-112687565D01*
X182247507Y-112455275D02*
X182351742Y-112168892D01*
X182047411Y-112225353D02*
X182662456Y-112540426D01*
X182662456Y-112540426D02*
X182743824Y-112539636D01*
X182743824Y-112539636D02*
X182804051Y-112485545D01*
X182804051Y-112485545D02*
X182830110Y-112413949D01*
X182921315Y-112163364D02*
X182442947Y-111918307D01*
X182579624Y-111988324D02*
X182524315Y-111917518D01*
X182524315Y-111917518D02*
X182503175Y-111864216D01*
X182503175Y-111864216D02*
X182495065Y-111775116D01*
X182495065Y-111775116D02*
X182521123Y-111703520D01*
X183129785Y-111590599D02*
X183069557Y-111644691D01*
X183069557Y-111644691D02*
X183022359Y-111662985D01*
X183022359Y-111662985D02*
X182940991Y-111663774D01*
X182940991Y-111663774D02*
X182735976Y-111558750D01*
X182735976Y-111558750D02*
X182680667Y-111487944D01*
X182680667Y-111487944D02*
X182659527Y-111434642D01*
X182659527Y-111434642D02*
X182651417Y-111345542D01*
X182651417Y-111345542D02*
X182690505Y-111238149D01*
X182690505Y-111238149D02*
X182750733Y-111184057D01*
X182750733Y-111184057D02*
X182797931Y-111165764D01*
X182797931Y-111165764D02*
X182879299Y-111164974D01*
X182879299Y-111164974D02*
X183084314Y-111269998D01*
X183084314Y-111269998D02*
X183139623Y-111340804D01*
X183139623Y-111340804D02*
X183160762Y-111394106D01*
X183160762Y-111394106D02*
X183168873Y-111483206D01*
X183168873Y-111483206D02*
X183129785Y-111590599D01*
X182859886Y-110772777D02*
X183338254Y-111017834D01*
X182928225Y-110807785D02*
X182907085Y-110754483D01*
X182907085Y-110754483D02*
X182898974Y-110665383D01*
X182898974Y-110665383D02*
X182938062Y-110557990D01*
X182938062Y-110557990D02*
X182998290Y-110503898D01*
X182998290Y-110503898D02*
X183079658Y-110503109D01*
X183079658Y-110503109D02*
X183455519Y-110695653D01*
X183585812Y-110337675D02*
X183107444Y-110092618D01*
X182868260Y-109970089D02*
X182889400Y-110023391D01*
X182889400Y-110023391D02*
X182936598Y-110005098D01*
X182936598Y-110005098D02*
X182915458Y-109951796D01*
X182915458Y-109951796D02*
X182868260Y-109970089D01*
X182868260Y-109970089D02*
X182936598Y-110005098D01*
X183799200Y-109640013D02*
X183807311Y-109729112D01*
X183807311Y-109729112D02*
X183755193Y-109872304D01*
X183755193Y-109872304D02*
X183694966Y-109926395D01*
X183694966Y-109926395D02*
X183647767Y-109944689D01*
X183647767Y-109944689D02*
X183566399Y-109945479D01*
X183566399Y-109945479D02*
X183361385Y-109840454D01*
X183361385Y-109840454D02*
X183306076Y-109769648D01*
X183306076Y-109769648D02*
X183284936Y-109716346D01*
X183284936Y-109716346D02*
X183276825Y-109627247D01*
X183276825Y-109627247D02*
X183328943Y-109484055D01*
X183328943Y-109484055D02*
X183389170Y-109429964D01*
X184242198Y-108422887D02*
X184250308Y-108511987D01*
X184250308Y-108511987D02*
X184198191Y-108655178D01*
X184198191Y-108655178D02*
X184137963Y-108709270D01*
X184137963Y-108709270D02*
X184090765Y-108727563D01*
X184090765Y-108727563D02*
X184009397Y-108728353D01*
X184009397Y-108728353D02*
X183804382Y-108623329D01*
X183804382Y-108623329D02*
X183749073Y-108552523D01*
X183749073Y-108552523D02*
X183727933Y-108499221D01*
X183727933Y-108499221D02*
X183719823Y-108410121D01*
X183719823Y-108410121D02*
X183771940Y-108266930D01*
X183771940Y-108266930D02*
X183832168Y-108212838D01*
X184393631Y-108118211D02*
X183915263Y-107873154D01*
X183676079Y-107750626D02*
X183697219Y-107803928D01*
X183697219Y-107803928D02*
X183744417Y-107785634D01*
X183744417Y-107785634D02*
X183723277Y-107732332D01*
X183723277Y-107732332D02*
X183676079Y-107750626D01*
X183676079Y-107750626D02*
X183744417Y-107785634D01*
X184523924Y-107760233D02*
X184045556Y-107515176D01*
X184182233Y-107585193D02*
X184126924Y-107514387D01*
X184126924Y-107514387D02*
X184105784Y-107461085D01*
X184105784Y-107461085D02*
X184097673Y-107371985D01*
X184097673Y-107371985D02*
X184123732Y-107300390D01*
X184776400Y-106955177D02*
X184784511Y-107044277D01*
X184784511Y-107044277D02*
X184732393Y-107187468D01*
X184732393Y-107187468D02*
X184672166Y-107241560D01*
X184672166Y-107241560D02*
X184624967Y-107259854D01*
X184624967Y-107259854D02*
X184543600Y-107260643D01*
X184543600Y-107260643D02*
X184338585Y-107155619D01*
X184338585Y-107155619D02*
X184283276Y-107084813D01*
X184283276Y-107084813D02*
X184262136Y-107031511D01*
X184262136Y-107031511D02*
X184254025Y-106942411D01*
X184254025Y-106942411D02*
X184306143Y-106799220D01*
X184306143Y-106799220D02*
X184366371Y-106745129D01*
X184566729Y-106083264D02*
X185045097Y-106328321D01*
X184449465Y-106405445D02*
X184825326Y-106597989D01*
X184825326Y-106597989D02*
X184906694Y-106597200D01*
X184906694Y-106597200D02*
X184966921Y-106543108D01*
X184966921Y-106543108D02*
X185006009Y-106435715D01*
X185006009Y-106435715D02*
X184997899Y-106346615D01*
X184997899Y-106346615D02*
X184976759Y-106293313D01*
X185175391Y-105970343D02*
X184697023Y-105725286D01*
X184457839Y-105602757D02*
X184478979Y-105656059D01*
X184478979Y-105656059D02*
X184526177Y-105637765D01*
X184526177Y-105637765D02*
X184505037Y-105584463D01*
X184505037Y-105584463D02*
X184457839Y-105602757D01*
X184457839Y-105602757D02*
X184526177Y-105637765D01*
X184788228Y-105474701D02*
X184892463Y-105188319D01*
X184588132Y-105244779D02*
X185203177Y-105559853D01*
X185203177Y-105559853D02*
X185284544Y-105559063D01*
X185284544Y-105559063D02*
X185344772Y-105504971D01*
X185344772Y-105504971D02*
X185370831Y-105433376D01*
X185414838Y-105201085D02*
X185475066Y-105146993D01*
X185475066Y-105146993D02*
X185527183Y-105003802D01*
X185527183Y-105003802D02*
X185519073Y-104914702D01*
X185519073Y-104914702D02*
X185463764Y-104843896D01*
X185463764Y-104843896D02*
X185429595Y-104826392D01*
X185429595Y-104826392D02*
X185348227Y-104827182D01*
X185348227Y-104827182D02*
X185287999Y-104881273D01*
X185287999Y-104881273D02*
X185248911Y-104988667D01*
X185248911Y-104988667D02*
X185188683Y-105042758D01*
X185188683Y-105042758D02*
X185107316Y-105043548D01*
X185107316Y-105043548D02*
X185073146Y-105026044D01*
X185073146Y-105026044D02*
X185017838Y-104955238D01*
X185017838Y-104955238D02*
X185009727Y-104866138D01*
X185009727Y-104866138D02*
X185048815Y-104758745D01*
X185048815Y-104758745D02*
X185109043Y-104704653D01*
X185615197Y-104539220D02*
X185662395Y-104520926D01*
X185662395Y-104520926D02*
X185683535Y-104574228D01*
X185683535Y-104574228D02*
X185636337Y-104592522D01*
X185636337Y-104592522D02*
X185615197Y-104539220D01*
X185615197Y-104539220D02*
X185683535Y-104574228D01*
X181215320Y-118500129D02*
X181194181Y-118446827D01*
X181194181Y-118446827D02*
X181186070Y-118357728D01*
X181186070Y-118357728D02*
X181251217Y-118178739D01*
X181251217Y-118178739D02*
X181311445Y-118124647D01*
X181311445Y-118124647D02*
X181358643Y-118106353D01*
X181358643Y-118106353D02*
X181440011Y-118105564D01*
X181440011Y-118105564D02*
X181508349Y-118140572D01*
X181508349Y-118140572D02*
X181597827Y-118228882D01*
X181597827Y-118228882D02*
X181851505Y-118868504D01*
X181851505Y-118868504D02*
X182020886Y-118403133D01*
X182069812Y-118045944D02*
X182117011Y-118027650D01*
X182117011Y-118027650D02*
X182138150Y-118080952D01*
X182138150Y-118080952D02*
X182090952Y-118099246D01*
X182090952Y-118099246D02*
X182069812Y-118045944D01*
X182069812Y-118045944D02*
X182138150Y-118080952D01*
X181959457Y-117012546D02*
X182063692Y-116726163D01*
X181759361Y-116782624D02*
X182374406Y-117097697D01*
X182374406Y-117097697D02*
X182455773Y-117096907D01*
X182455773Y-117096907D02*
X182516001Y-117042816D01*
X182516001Y-117042816D02*
X182542060Y-116971220D01*
X182633265Y-116720635D02*
X181915713Y-116353050D01*
X182750529Y-116398455D02*
X182374669Y-116205910D01*
X182374669Y-116205910D02*
X182293301Y-116206700D01*
X182293301Y-116206700D02*
X182233073Y-116260792D01*
X182233073Y-116260792D02*
X182193985Y-116368185D01*
X182193985Y-116368185D02*
X182202096Y-116457285D01*
X182202096Y-116457285D02*
X182223236Y-116510587D01*
X182950888Y-115736590D02*
X182958999Y-115825690D01*
X182958999Y-115825690D02*
X182906882Y-115968881D01*
X182906882Y-115968881D02*
X182846654Y-116022972D01*
X182846654Y-116022972D02*
X182765286Y-116023762D01*
X182765286Y-116023762D02*
X182491933Y-115883730D01*
X182491933Y-115883730D02*
X182436624Y-115812924D01*
X182436624Y-115812924D02*
X182428514Y-115723824D01*
X182428514Y-115723824D02*
X182480631Y-115580633D01*
X182480631Y-115580633D02*
X182540859Y-115526541D01*
X182540859Y-115526541D02*
X182622226Y-115525751D01*
X182622226Y-115525751D02*
X182690565Y-115560760D01*
X182690565Y-115560760D02*
X182628610Y-115953746D01*
X183406915Y-114483667D02*
X183415026Y-114572766D01*
X183415026Y-114572766D02*
X183362908Y-114715957D01*
X183362908Y-114715957D02*
X183302681Y-114770049D01*
X183302681Y-114770049D02*
X183255482Y-114788343D01*
X183255482Y-114788343D02*
X183174114Y-114789132D01*
X183174114Y-114789132D02*
X182969100Y-114684108D01*
X182969100Y-114684108D02*
X182913791Y-114613302D01*
X182913791Y-114613302D02*
X182892651Y-114560000D01*
X182892651Y-114560000D02*
X182884540Y-114470901D01*
X182884540Y-114470901D02*
X182936658Y-114327709D01*
X182936658Y-114327709D02*
X182996886Y-114273618D01*
X183558348Y-114178991D02*
X183079980Y-113933934D01*
X182840796Y-113811405D02*
X182861936Y-113864707D01*
X182861936Y-113864707D02*
X182909135Y-113846413D01*
X182909135Y-113846413D02*
X182887995Y-113793111D01*
X182887995Y-113793111D02*
X182840796Y-113811405D01*
X182840796Y-113811405D02*
X182909135Y-113846413D01*
X183688642Y-113821013D02*
X183210274Y-113575956D01*
X183346950Y-113645972D02*
X183291641Y-113575166D01*
X183291641Y-113575166D02*
X183270501Y-113521864D01*
X183270501Y-113521864D02*
X183262391Y-113432765D01*
X183262391Y-113432765D02*
X183288450Y-113361169D01*
X183941118Y-113015957D02*
X183949228Y-113105057D01*
X183949228Y-113105057D02*
X183897111Y-113248248D01*
X183897111Y-113248248D02*
X183836883Y-113302339D01*
X183836883Y-113302339D02*
X183789685Y-113320633D01*
X183789685Y-113320633D02*
X183708317Y-113321423D01*
X183708317Y-113321423D02*
X183503302Y-113216398D01*
X183503302Y-113216398D02*
X183447993Y-113145592D01*
X183447993Y-113145592D02*
X183426853Y-113092291D01*
X183426853Y-113092291D02*
X183418743Y-113003191D01*
X183418743Y-113003191D02*
X183470860Y-112860000D01*
X183470860Y-112860000D02*
X183531088Y-112805908D01*
X183731447Y-112144044D02*
X184209815Y-112389101D01*
X183614183Y-112466224D02*
X183990044Y-112658769D01*
X183990044Y-112658769D02*
X184071411Y-112657979D01*
X184071411Y-112657979D02*
X184131639Y-112603887D01*
X184131639Y-112603887D02*
X184170727Y-112496494D01*
X184170727Y-112496494D02*
X184162617Y-112407394D01*
X184162617Y-112407394D02*
X184141477Y-112354092D01*
X184340109Y-112031122D02*
X183861741Y-111786065D01*
X183622557Y-111663537D02*
X183643696Y-111716838D01*
X183643696Y-111716838D02*
X183690895Y-111698545D01*
X183690895Y-111698545D02*
X183669755Y-111645243D01*
X183669755Y-111645243D02*
X183622557Y-111663537D01*
X183622557Y-111663537D02*
X183690895Y-111698545D01*
X183952946Y-111535481D02*
X184057181Y-111249098D01*
X183752850Y-111305559D02*
X184367894Y-111620632D01*
X184367894Y-111620632D02*
X184449262Y-111619842D01*
X184449262Y-111619842D02*
X184509490Y-111565751D01*
X184509490Y-111565751D02*
X184535549Y-111494155D01*
X184579556Y-111261864D02*
X184639783Y-111207772D01*
X184639783Y-111207772D02*
X184691901Y-111064581D01*
X184691901Y-111064581D02*
X184683790Y-110975481D01*
X184683790Y-110975481D02*
X184628481Y-110904676D01*
X184628481Y-110904676D02*
X184594312Y-110887171D01*
X184594312Y-110887171D02*
X184512944Y-110887961D01*
X184512944Y-110887961D02*
X184452717Y-110942053D01*
X184452717Y-110942053D02*
X184413629Y-111049446D01*
X184413629Y-111049446D02*
X184353401Y-111103538D01*
X184353401Y-111103538D02*
X184272033Y-111104327D01*
X184272033Y-111104327D02*
X184237864Y-111086823D01*
X184237864Y-111086823D02*
X184182555Y-111016017D01*
X184182555Y-111016017D02*
X184174445Y-110926918D01*
X184174445Y-110926918D02*
X184213533Y-110819524D01*
X184213533Y-110819524D02*
X184273760Y-110765433D01*
X184539266Y-109924579D02*
X184643501Y-109638196D01*
X184339170Y-109694657D02*
X184954215Y-110009730D01*
X184954215Y-110009730D02*
X185035582Y-110008940D01*
X185035582Y-110008940D02*
X185095810Y-109954849D01*
X185095810Y-109954849D02*
X185121869Y-109883253D01*
X185213074Y-109632668D02*
X184495522Y-109265083D01*
X185330338Y-109310488D02*
X184954478Y-109117943D01*
X184954478Y-109117943D02*
X184873110Y-109118733D01*
X184873110Y-109118733D02*
X184812882Y-109172825D01*
X184812882Y-109172825D02*
X184773794Y-109280218D01*
X184773794Y-109280218D02*
X184781905Y-109369318D01*
X184781905Y-109369318D02*
X184803045Y-109422620D01*
X185530698Y-108648623D02*
X185538808Y-108737723D01*
X185538808Y-108737723D02*
X185486691Y-108880914D01*
X185486691Y-108880914D02*
X185426463Y-108935005D01*
X185426463Y-108935005D02*
X185345095Y-108935795D01*
X185345095Y-108935795D02*
X185071742Y-108795763D01*
X185071742Y-108795763D02*
X185016433Y-108724957D01*
X185016433Y-108724957D02*
X185008323Y-108635857D01*
X185008323Y-108635857D02*
X185060440Y-108492666D01*
X185060440Y-108492666D02*
X185120668Y-108438574D01*
X185120668Y-108438574D02*
X185202035Y-108437784D01*
X185202035Y-108437784D02*
X185270374Y-108472793D01*
X185270374Y-108472793D02*
X185208419Y-108865779D01*
X185695160Y-108308149D02*
X185216792Y-108063092D01*
X185285130Y-108098100D02*
X185263990Y-108044798D01*
X185263990Y-108044798D02*
X185255880Y-107955699D01*
X185255880Y-107955699D02*
X185294968Y-107848305D01*
X185294968Y-107848305D02*
X185355196Y-107794214D01*
X185355196Y-107794214D02*
X185436563Y-107793424D01*
X185436563Y-107793424D02*
X185812424Y-107985969D01*
X185436563Y-107793424D02*
X185381254Y-107722618D01*
X185381254Y-107722618D02*
X185373144Y-107633518D01*
X185373144Y-107633518D02*
X185412232Y-107526125D01*
X185412232Y-107526125D02*
X185472460Y-107472033D01*
X185472460Y-107472033D02*
X185553827Y-107471244D01*
X185553827Y-107471244D02*
X185929688Y-107663788D01*
X186012783Y-107324104D02*
X186073011Y-107270012D01*
X186073011Y-107270012D02*
X186125128Y-107126821D01*
X186125128Y-107126821D02*
X186117018Y-107037721D01*
X186117018Y-107037721D02*
X186061709Y-106966915D01*
X186061709Y-106966915D02*
X186027540Y-106949411D01*
X186027540Y-106949411D02*
X185946172Y-106950201D01*
X185946172Y-106950201D02*
X185885944Y-107004292D01*
X185885944Y-107004292D02*
X185846856Y-107111686D01*
X185846856Y-107111686D02*
X185786628Y-107165777D01*
X185786628Y-107165777D02*
X185705261Y-107166567D01*
X185705261Y-107166567D02*
X185671092Y-107149063D01*
X185671092Y-107149063D02*
X185615783Y-107078257D01*
X185615783Y-107078257D02*
X185607672Y-106989157D01*
X185607672Y-106989157D02*
X185646760Y-106881764D01*
X185646760Y-106881764D02*
X185706988Y-106827672D01*
X186351546Y-106393361D02*
X186359656Y-106482460D01*
X186359656Y-106482460D02*
X186307539Y-106625652D01*
X186307539Y-106625652D02*
X186247311Y-106679743D01*
X186247311Y-106679743D02*
X186165944Y-106680533D01*
X186165944Y-106680533D02*
X185892590Y-106540500D01*
X185892590Y-106540500D02*
X185837281Y-106469694D01*
X185837281Y-106469694D02*
X185829171Y-106380595D01*
X185829171Y-106380595D02*
X185881288Y-106237403D01*
X185881288Y-106237403D02*
X185941516Y-106183312D01*
X185941516Y-106183312D02*
X186022884Y-106182522D01*
X186022884Y-106182522D02*
X186091222Y-106217530D01*
X186091222Y-106217530D02*
X186029267Y-106610516D01*
X186555096Y-105945493D02*
X186494868Y-105999585D01*
X186494868Y-105999585D02*
X186413501Y-106000375D01*
X186413501Y-106000375D02*
X185798456Y-105685301D01*
X186154904Y-105485649D02*
X186698419Y-105551717D01*
X186698419Y-105551717D02*
X186285198Y-105127671D01*
X186937866Y-104782459D02*
X186945977Y-104871558D01*
X186945977Y-104871558D02*
X186893859Y-105014750D01*
X186893859Y-105014750D02*
X186833631Y-105068841D01*
X186833631Y-105068841D02*
X186752264Y-105069631D01*
X186752264Y-105069631D02*
X186478911Y-104929598D01*
X186478911Y-104929598D02*
X186423602Y-104858792D01*
X186423602Y-104858792D02*
X186415491Y-104769693D01*
X186415491Y-104769693D02*
X186467609Y-104626501D01*
X186467609Y-104626501D02*
X186527836Y-104572410D01*
X186527836Y-104572410D02*
X186609204Y-104571620D01*
X186609204Y-104571620D02*
X186677542Y-104606628D01*
X186677542Y-104606628D02*
X186615587Y-104999615D01*
X187055130Y-104460279D02*
X187115358Y-104406187D01*
X187115358Y-104406187D02*
X187167475Y-104262996D01*
X187167475Y-104262996D02*
X187159365Y-104173896D01*
X187159365Y-104173896D02*
X187104056Y-104103090D01*
X187104056Y-104103090D02*
X187069887Y-104085586D01*
X187069887Y-104085586D02*
X186988519Y-104086376D01*
X186988519Y-104086376D02*
X186928291Y-104140467D01*
X186928291Y-104140467D02*
X186889203Y-104247861D01*
X186889203Y-104247861D02*
X186828975Y-104301952D01*
X186828975Y-104301952D02*
X186747608Y-104302742D01*
X186747608Y-104302742D02*
X186713439Y-104285238D01*
X186713439Y-104285238D02*
X186658130Y-104214432D01*
X186658130Y-104214432D02*
X186650019Y-104125332D01*
X186650019Y-104125332D02*
X186689107Y-104017939D01*
X186689107Y-104017939D02*
X186749335Y-103963847D01*
X187255489Y-103798414D02*
X187302688Y-103780120D01*
X187302688Y-103780120D02*
X187323827Y-103833422D01*
X187323827Y-103833422D02*
X187276629Y-103851716D01*
X187276629Y-103851716D02*
X187255489Y-103798414D01*
X187255489Y-103798414D02*
X187323827Y-103833422D01*
X182344277Y-118941441D02*
X182513658Y-118476069D01*
X182513658Y-118476069D02*
X182695806Y-118866687D01*
X182695806Y-118866687D02*
X182734894Y-118759293D01*
X182734894Y-118759293D02*
X182795122Y-118705202D01*
X182795122Y-118705202D02*
X182842320Y-118686908D01*
X182842320Y-118686908D02*
X182923688Y-118686118D01*
X182923688Y-118686118D02*
X183094534Y-118773639D01*
X183094534Y-118773639D02*
X183149843Y-118844445D01*
X183149843Y-118844445D02*
X183170983Y-118897746D01*
X183170983Y-118897746D02*
X183179093Y-118986846D01*
X183179093Y-118986846D02*
X183100917Y-119201633D01*
X183100917Y-119201633D02*
X183040689Y-119255725D01*
X183040689Y-119255725D02*
X182993491Y-119274018D01*
X183280136Y-118486466D02*
X183327335Y-118468172D01*
X183327335Y-118468172D02*
X183348474Y-118521474D01*
X183348474Y-118521474D02*
X183301276Y-118539768D01*
X183301276Y-118539768D02*
X183280136Y-118486466D01*
X183280136Y-118486466D02*
X183348474Y-118521474D01*
X183169781Y-117453068D02*
X183274016Y-117166685D01*
X182969685Y-117223146D02*
X183584730Y-117538219D01*
X183584730Y-117538219D02*
X183666097Y-117537429D01*
X183666097Y-117537429D02*
X183726325Y-117483338D01*
X183726325Y-117483338D02*
X183752384Y-117411742D01*
X183843589Y-117161157D02*
X183126037Y-116793572D01*
X183960853Y-116838977D02*
X183584993Y-116646432D01*
X183584993Y-116646432D02*
X183503625Y-116647222D01*
X183503625Y-116647222D02*
X183443397Y-116701314D01*
X183443397Y-116701314D02*
X183404309Y-116808707D01*
X183404309Y-116808707D02*
X183412420Y-116897807D01*
X183412420Y-116897807D02*
X183433560Y-116951109D01*
X184161212Y-116177112D02*
X184169323Y-116266212D01*
X184169323Y-116266212D02*
X184117206Y-116409403D01*
X184117206Y-116409403D02*
X184056978Y-116463494D01*
X184056978Y-116463494D02*
X183975610Y-116464284D01*
X183975610Y-116464284D02*
X183702257Y-116324252D01*
X183702257Y-116324252D02*
X183646948Y-116253446D01*
X183646948Y-116253446D02*
X183638838Y-116164346D01*
X183638838Y-116164346D02*
X183690955Y-116021155D01*
X183690955Y-116021155D02*
X183751183Y-115967063D01*
X183751183Y-115967063D02*
X183832550Y-115966273D01*
X183832550Y-115966273D02*
X183900889Y-116001282D01*
X183900889Y-116001282D02*
X183838934Y-116394268D01*
X184617239Y-114924189D02*
X184625350Y-115013288D01*
X184625350Y-115013288D02*
X184573232Y-115156479D01*
X184573232Y-115156479D02*
X184513005Y-115210571D01*
X184513005Y-115210571D02*
X184465806Y-115228865D01*
X184465806Y-115228865D02*
X184384438Y-115229654D01*
X184384438Y-115229654D02*
X184179424Y-115124630D01*
X184179424Y-115124630D02*
X184124115Y-115053824D01*
X184124115Y-115053824D02*
X184102975Y-115000522D01*
X184102975Y-115000522D02*
X184094864Y-114911423D01*
X184094864Y-114911423D02*
X184146982Y-114768231D01*
X184146982Y-114768231D02*
X184207210Y-114714140D01*
X184807760Y-114512119D02*
X184747533Y-114566211D01*
X184747533Y-114566211D02*
X184700334Y-114584504D01*
X184700334Y-114584504D02*
X184618966Y-114585294D01*
X184618966Y-114585294D02*
X184413952Y-114480270D01*
X184413952Y-114480270D02*
X184358643Y-114409464D01*
X184358643Y-114409464D02*
X184337503Y-114356162D01*
X184337503Y-114356162D02*
X184329392Y-114267062D01*
X184329392Y-114267062D02*
X184368480Y-114159669D01*
X184368480Y-114159669D02*
X184428708Y-114105577D01*
X184428708Y-114105577D02*
X184475907Y-114087283D01*
X184475907Y-114087283D02*
X184557274Y-114086494D01*
X184557274Y-114086494D02*
X184762289Y-114191518D01*
X184762289Y-114191518D02*
X184817598Y-114262324D01*
X184817598Y-114262324D02*
X184838738Y-114315626D01*
X184838738Y-114315626D02*
X184846848Y-114404726D01*
X184846848Y-114404726D02*
X184807760Y-114512119D01*
X185016230Y-113939354D02*
X184537862Y-113694297D01*
X184606200Y-113729305D02*
X184585060Y-113676003D01*
X184585060Y-113676003D02*
X184576950Y-113586903D01*
X184576950Y-113586903D02*
X184616038Y-113479510D01*
X184616038Y-113479510D02*
X184676266Y-113425418D01*
X184676266Y-113425418D02*
X184757633Y-113424629D01*
X184757633Y-113424629D02*
X185133494Y-113617173D01*
X184757633Y-113424629D02*
X184702324Y-113353823D01*
X184702324Y-113353823D02*
X184694214Y-113264723D01*
X184694214Y-113264723D02*
X184733302Y-113157329D01*
X184733302Y-113157329D02*
X184793530Y-113103238D01*
X184793530Y-113103238D02*
X184874897Y-113102448D01*
X184874897Y-113102448D02*
X185250758Y-113294993D01*
X184902684Y-112691958D02*
X185620236Y-113059543D01*
X184936853Y-112709462D02*
X184928742Y-112620362D01*
X184928742Y-112620362D02*
X184980860Y-112477171D01*
X184980860Y-112477171D02*
X185041087Y-112423079D01*
X185041087Y-112423079D02*
X185088286Y-112404785D01*
X185088286Y-112404785D02*
X185169654Y-112403996D01*
X185169654Y-112403996D02*
X185374668Y-112509020D01*
X185374668Y-112509020D02*
X185429977Y-112579826D01*
X185429977Y-112579826D02*
X185451117Y-112633128D01*
X185451117Y-112633128D02*
X185459228Y-112722228D01*
X185459228Y-112722228D02*
X185407110Y-112865419D01*
X185407110Y-112865419D02*
X185346882Y-112919510D01*
X185667697Y-112149462D02*
X185607469Y-112203554D01*
X185607469Y-112203554D02*
X185560271Y-112221847D01*
X185560271Y-112221847D02*
X185478903Y-112222637D01*
X185478903Y-112222637D02*
X185273888Y-112117613D01*
X185273888Y-112117613D02*
X185218579Y-112046807D01*
X185218579Y-112046807D02*
X185197440Y-111993505D01*
X185197440Y-111993505D02*
X185189329Y-111904405D01*
X185189329Y-111904405D02*
X185228417Y-111797012D01*
X185228417Y-111797012D02*
X185288645Y-111742920D01*
X185288645Y-111742920D02*
X185335843Y-111724626D01*
X185335843Y-111724626D02*
X185417211Y-111723837D01*
X185417211Y-111723837D02*
X185622226Y-111828861D01*
X185622226Y-111828861D02*
X185677535Y-111899667D01*
X185677535Y-111899667D02*
X185698675Y-111952969D01*
X185698675Y-111952969D02*
X185706785Y-112042069D01*
X185706785Y-112042069D02*
X185667697Y-112149462D01*
X185397799Y-111331640D02*
X185876167Y-111576697D01*
X185466137Y-111366648D02*
X185444997Y-111313346D01*
X185444997Y-111313346D02*
X185436887Y-111224246D01*
X185436887Y-111224246D02*
X185475975Y-111116853D01*
X185475975Y-111116853D02*
X185536203Y-111062761D01*
X185536203Y-111062761D02*
X185617570Y-111061972D01*
X185617570Y-111061972D02*
X185993431Y-111254516D01*
X186193790Y-110592651D02*
X186201900Y-110681751D01*
X186201900Y-110681751D02*
X186149783Y-110824942D01*
X186149783Y-110824942D02*
X186089555Y-110879034D01*
X186089555Y-110879034D02*
X186008188Y-110879823D01*
X186008188Y-110879823D02*
X185734834Y-110739791D01*
X185734834Y-110739791D02*
X185679525Y-110668985D01*
X185679525Y-110668985D02*
X185671415Y-110579885D01*
X185671415Y-110579885D02*
X185723532Y-110436694D01*
X185723532Y-110436694D02*
X185783760Y-110382602D01*
X185783760Y-110382602D02*
X185865128Y-110381813D01*
X185865128Y-110381813D02*
X185933466Y-110416821D01*
X185933466Y-110416821D02*
X185871511Y-110809807D01*
X185879884Y-110007120D02*
X186358252Y-110252177D01*
X185948223Y-110042129D02*
X185927083Y-109988827D01*
X185927083Y-109988827D02*
X185918972Y-109899727D01*
X185918972Y-109899727D02*
X185958060Y-109792334D01*
X185958060Y-109792334D02*
X186018288Y-109738242D01*
X186018288Y-109738242D02*
X186099656Y-109737452D01*
X186099656Y-109737452D02*
X186475516Y-109929997D01*
X186088354Y-109434355D02*
X186192589Y-109147972D01*
X185888258Y-109204433D02*
X186503303Y-109519506D01*
X186503303Y-109519506D02*
X186584670Y-109518717D01*
X186584670Y-109518717D02*
X186644898Y-109464625D01*
X186644898Y-109464625D02*
X186670957Y-109393029D01*
X186714964Y-109160738D02*
X186775191Y-109106647D01*
X186775191Y-109106647D02*
X186827309Y-108963455D01*
X186827309Y-108963455D02*
X186819198Y-108874356D01*
X186819198Y-108874356D02*
X186763889Y-108803550D01*
X186763889Y-108803550D02*
X186729720Y-108786046D01*
X186729720Y-108786046D02*
X186648353Y-108786835D01*
X186648353Y-108786835D02*
X186588125Y-108840927D01*
X186588125Y-108840927D02*
X186549037Y-108948320D01*
X186549037Y-108948320D02*
X186488809Y-109002412D01*
X186488809Y-109002412D02*
X186407441Y-109003202D01*
X186407441Y-109003202D02*
X186373272Y-108985698D01*
X186373272Y-108985698D02*
X186317963Y-108914892D01*
X186317963Y-108914892D02*
X186309853Y-108825792D01*
X186309853Y-108825792D02*
X186348941Y-108718399D01*
X186348941Y-108718399D02*
X186409169Y-108664307D01*
X187231218Y-107853723D02*
X187170991Y-107907815D01*
X187170991Y-107907815D02*
X187123792Y-107926108D01*
X187123792Y-107926108D02*
X187042424Y-107926898D01*
X187042424Y-107926898D02*
X186837410Y-107821874D01*
X186837410Y-107821874D02*
X186782101Y-107751068D01*
X186782101Y-107751068D02*
X186760961Y-107697766D01*
X186760961Y-107697766D02*
X186752850Y-107608666D01*
X186752850Y-107608666D02*
X186791938Y-107501273D01*
X186791938Y-107501273D02*
X186852166Y-107447181D01*
X186852166Y-107447181D02*
X186899365Y-107428887D01*
X186899365Y-107428887D02*
X186980732Y-107428098D01*
X186980732Y-107428098D02*
X187185747Y-107533122D01*
X187185747Y-107533122D02*
X187241056Y-107603928D01*
X187241056Y-107603928D02*
X187262196Y-107657230D01*
X187262196Y-107657230D02*
X187270306Y-107746330D01*
X187270306Y-107746330D02*
X187231218Y-107853723D01*
X186922232Y-107143294D02*
X187026467Y-106856912D01*
X187439688Y-107280958D02*
X186824643Y-106965884D01*
X186824643Y-106965884D02*
X186769334Y-106895078D01*
X186769334Y-106895078D02*
X186761224Y-106805979D01*
X186761224Y-106805979D02*
X186787283Y-106734383D01*
X187757311Y-106296912D02*
X187817539Y-106242821D01*
X187817539Y-106242821D02*
X187869656Y-106099629D01*
X187869656Y-106099629D02*
X187861546Y-106010530D01*
X187861546Y-106010530D02*
X187806237Y-105939724D01*
X187806237Y-105939724D02*
X187772068Y-105922220D01*
X187772068Y-105922220D02*
X187690700Y-105923009D01*
X187690700Y-105923009D02*
X187630472Y-105977101D01*
X187630472Y-105977101D02*
X187591384Y-106084494D01*
X187591384Y-106084494D02*
X187531156Y-106138586D01*
X187531156Y-106138586D02*
X187449789Y-106139376D01*
X187449789Y-106139376D02*
X187415620Y-106121872D01*
X187415620Y-106121872D02*
X187360311Y-106051066D01*
X187360311Y-106051066D02*
X187352200Y-105961966D01*
X187352200Y-105961966D02*
X187391288Y-105854573D01*
X187391288Y-105854573D02*
X187451516Y-105800481D01*
X187664904Y-105102818D02*
X188143272Y-105347875D01*
X187547640Y-105424999D02*
X187923501Y-105617544D01*
X187923501Y-105617544D02*
X188004868Y-105616754D01*
X188004868Y-105616754D02*
X188065096Y-105562662D01*
X188065096Y-105562662D02*
X188104184Y-105455269D01*
X188104184Y-105455269D02*
X188096074Y-105366169D01*
X188096074Y-105366169D02*
X188074934Y-105312867D01*
X188356661Y-104650212D02*
X188364771Y-104739312D01*
X188364771Y-104739312D02*
X188312654Y-104882503D01*
X188312654Y-104882503D02*
X188252426Y-104936595D01*
X188252426Y-104936595D02*
X188205228Y-104954889D01*
X188205228Y-104954889D02*
X188123860Y-104955678D01*
X188123860Y-104955678D02*
X187918845Y-104850654D01*
X187918845Y-104850654D02*
X187863536Y-104779848D01*
X187863536Y-104779848D02*
X187842396Y-104726546D01*
X187842396Y-104726546D02*
X187834286Y-104637446D01*
X187834286Y-104637446D02*
X187886403Y-104494255D01*
X187886403Y-104494255D02*
X187946631Y-104440164D01*
X188508094Y-104345536D02*
X187790542Y-103977951D01*
X188625358Y-104023356D02*
X188249497Y-103830811D01*
X188249497Y-103830811D02*
X188168130Y-103831601D01*
X188168130Y-103831601D02*
X188107902Y-103885693D01*
X188107902Y-103885693D02*
X188068814Y-103993086D01*
X188068814Y-103993086D02*
X188076924Y-104082186D01*
X188076924Y-104082186D02*
X188098064Y-104135488D01*
X189047216Y-102752928D02*
X189055326Y-102842028D01*
X189055326Y-102842028D02*
X189003209Y-102985219D01*
X189003209Y-102985219D02*
X188942981Y-103039310D01*
X188942981Y-103039310D02*
X188895783Y-103057604D01*
X188895783Y-103057604D02*
X188814415Y-103058394D01*
X188814415Y-103058394D02*
X188609400Y-102953369D01*
X188609400Y-102953369D02*
X188554091Y-102882564D01*
X188554091Y-102882564D02*
X188532951Y-102829262D01*
X188532951Y-102829262D02*
X188524841Y-102740162D01*
X188524841Y-102740162D02*
X188576958Y-102596971D01*
X188576958Y-102596971D02*
X188637186Y-102542879D01*
X189198649Y-102448252D02*
X188720281Y-102203195D01*
X188481097Y-102080667D02*
X188502237Y-102133968D01*
X188502237Y-102133968D02*
X188549435Y-102115675D01*
X188549435Y-102115675D02*
X188528295Y-102062373D01*
X188528295Y-102062373D02*
X188481097Y-102080667D01*
X188481097Y-102080667D02*
X188549435Y-102115675D01*
X189328942Y-102090274D02*
X188850574Y-101845217D01*
X188987251Y-101915233D02*
X188931942Y-101844428D01*
X188931942Y-101844428D02*
X188910802Y-101791126D01*
X188910802Y-101791126D02*
X188902692Y-101702026D01*
X188902692Y-101702026D02*
X188928750Y-101630430D01*
X189581419Y-101285218D02*
X189589529Y-101374318D01*
X189589529Y-101374318D02*
X189537412Y-101517509D01*
X189537412Y-101517509D02*
X189477184Y-101571601D01*
X189477184Y-101571601D02*
X189429985Y-101589894D01*
X189429985Y-101589894D02*
X189348618Y-101590684D01*
X189348618Y-101590684D02*
X189143603Y-101485660D01*
X189143603Y-101485660D02*
X189088294Y-101414854D01*
X189088294Y-101414854D02*
X189067154Y-101361552D01*
X189067154Y-101361552D02*
X189059044Y-101272452D01*
X189059044Y-101272452D02*
X189111161Y-101129261D01*
X189111161Y-101129261D02*
X189171389Y-101075169D01*
X189371748Y-100413305D02*
X189850116Y-100658362D01*
X189254484Y-100735485D02*
X189630344Y-100928030D01*
X189630344Y-100928030D02*
X189711712Y-100927240D01*
X189711712Y-100927240D02*
X189771940Y-100873149D01*
X189771940Y-100873149D02*
X189811028Y-100765755D01*
X189811028Y-100765755D02*
X189802917Y-100676656D01*
X189802917Y-100676656D02*
X189781777Y-100623354D01*
X189980409Y-100300383D02*
X189502041Y-100055326D01*
X189262857Y-99932798D02*
X189283997Y-99986100D01*
X189283997Y-99986100D02*
X189331195Y-99967806D01*
X189331195Y-99967806D02*
X189310056Y-99914504D01*
X189310056Y-99914504D02*
X189262857Y-99932798D01*
X189262857Y-99932798D02*
X189331195Y-99967806D01*
X189593246Y-99804742D02*
X189697481Y-99518360D01*
X189393150Y-99574820D02*
X190008195Y-99889893D01*
X190008195Y-99889893D02*
X190089563Y-99889104D01*
X190089563Y-99889104D02*
X190149790Y-99835012D01*
X190149790Y-99835012D02*
X190175849Y-99763416D01*
X190219856Y-99531125D02*
X190280084Y-99477034D01*
X190280084Y-99477034D02*
X190332201Y-99333843D01*
X190332201Y-99333843D02*
X190324091Y-99244743D01*
X190324091Y-99244743D02*
X190268782Y-99173937D01*
X190268782Y-99173937D02*
X190234613Y-99156433D01*
X190234613Y-99156433D02*
X190153245Y-99157223D01*
X190153245Y-99157223D02*
X190093017Y-99211314D01*
X190093017Y-99211314D02*
X190053929Y-99318708D01*
X190053929Y-99318708D02*
X189993701Y-99372799D01*
X189993701Y-99372799D02*
X189912334Y-99373589D01*
X189912334Y-99373589D02*
X189878165Y-99356085D01*
X189878165Y-99356085D02*
X189822856Y-99285279D01*
X189822856Y-99285279D02*
X189814745Y-99196179D01*
X189814745Y-99196179D02*
X189853833Y-99088786D01*
X189853833Y-99088786D02*
X189914061Y-99034694D01*
X190420215Y-98869261D02*
X190467414Y-98850967D01*
X190467414Y-98850967D02*
X190488553Y-98904269D01*
X190488553Y-98904269D02*
X190441355Y-98922563D01*
X190441355Y-98922563D02*
X190420215Y-98869261D01*
X190420215Y-98869261D02*
X190488553Y-98904269D01*
X167123361Y-90997978D02*
X167123361Y-90197978D01*
X167123361Y-90197978D02*
X167313837Y-90197978D01*
X167313837Y-90197978D02*
X167428123Y-90236073D01*
X167428123Y-90236073D02*
X167504313Y-90312263D01*
X167504313Y-90312263D02*
X167542408Y-90388454D01*
X167542408Y-90388454D02*
X167580504Y-90540835D01*
X167580504Y-90540835D02*
X167580504Y-90655121D01*
X167580504Y-90655121D02*
X167542408Y-90807502D01*
X167542408Y-90807502D02*
X167504313Y-90883692D01*
X167504313Y-90883692D02*
X167428123Y-90959883D01*
X167428123Y-90959883D02*
X167313837Y-90997978D01*
X167313837Y-90997978D02*
X167123361Y-90997978D01*
X168342408Y-90997978D02*
X167885265Y-90997978D01*
X168113837Y-90997978D02*
X168113837Y-90197978D01*
X168113837Y-90197978D02*
X168037646Y-90312263D01*
X168037646Y-90312263D02*
X167961456Y-90388454D01*
X167961456Y-90388454D02*
X167885265Y-90426549D01*
X168837647Y-90197978D02*
X168913837Y-90197978D01*
X168913837Y-90197978D02*
X168990028Y-90236073D01*
X168990028Y-90236073D02*
X169028123Y-90274168D01*
X169028123Y-90274168D02*
X169066218Y-90350359D01*
X169066218Y-90350359D02*
X169104313Y-90502740D01*
X169104313Y-90502740D02*
X169104313Y-90693216D01*
X169104313Y-90693216D02*
X169066218Y-90845597D01*
X169066218Y-90845597D02*
X169028123Y-90921787D01*
X169028123Y-90921787D02*
X168990028Y-90959883D01*
X168990028Y-90959883D02*
X168913837Y-90997978D01*
X168913837Y-90997978D02*
X168837647Y-90997978D01*
X168837647Y-90997978D02*
X168761456Y-90959883D01*
X168761456Y-90959883D02*
X168723361Y-90921787D01*
X168723361Y-90921787D02*
X168685266Y-90845597D01*
X168685266Y-90845597D02*
X168647170Y-90693216D01*
X168647170Y-90693216D02*
X168647170Y-90502740D01*
X168647170Y-90502740D02*
X168685266Y-90350359D01*
X168685266Y-90350359D02*
X168723361Y-90274168D01*
X168723361Y-90274168D02*
X168761456Y-90236073D01*
X168761456Y-90236073D02*
X168837647Y-90197978D01*
X131139314Y-85008807D02*
X131139314Y-84208807D01*
X131139314Y-84208807D02*
X131329790Y-84208807D01*
X131329790Y-84208807D02*
X131444076Y-84246902D01*
X131444076Y-84246902D02*
X131520266Y-84323092D01*
X131520266Y-84323092D02*
X131558361Y-84399283D01*
X131558361Y-84399283D02*
X131596457Y-84551664D01*
X131596457Y-84551664D02*
X131596457Y-84665950D01*
X131596457Y-84665950D02*
X131558361Y-84818331D01*
X131558361Y-84818331D02*
X131520266Y-84894521D01*
X131520266Y-84894521D02*
X131444076Y-84970712D01*
X131444076Y-84970712D02*
X131329790Y-85008807D01*
X131329790Y-85008807D02*
X131139314Y-85008807D01*
X132053599Y-84551664D02*
X131977409Y-84513569D01*
X131977409Y-84513569D02*
X131939314Y-84475473D01*
X131939314Y-84475473D02*
X131901218Y-84399283D01*
X131901218Y-84399283D02*
X131901218Y-84361188D01*
X131901218Y-84361188D02*
X131939314Y-84284997D01*
X131939314Y-84284997D02*
X131977409Y-84246902D01*
X131977409Y-84246902D02*
X132053599Y-84208807D01*
X132053599Y-84208807D02*
X132205980Y-84208807D01*
X132205980Y-84208807D02*
X132282171Y-84246902D01*
X132282171Y-84246902D02*
X132320266Y-84284997D01*
X132320266Y-84284997D02*
X132358361Y-84361188D01*
X132358361Y-84361188D02*
X132358361Y-84399283D01*
X132358361Y-84399283D02*
X132320266Y-84475473D01*
X132320266Y-84475473D02*
X132282171Y-84513569D01*
X132282171Y-84513569D02*
X132205980Y-84551664D01*
X132205980Y-84551664D02*
X132053599Y-84551664D01*
X132053599Y-84551664D02*
X131977409Y-84589759D01*
X131977409Y-84589759D02*
X131939314Y-84627854D01*
X131939314Y-84627854D02*
X131901218Y-84704045D01*
X131901218Y-84704045D02*
X131901218Y-84856426D01*
X131901218Y-84856426D02*
X131939314Y-84932616D01*
X131939314Y-84932616D02*
X131977409Y-84970712D01*
X131977409Y-84970712D02*
X132053599Y-85008807D01*
X132053599Y-85008807D02*
X132205980Y-85008807D01*
X132205980Y-85008807D02*
X132282171Y-84970712D01*
X132282171Y-84970712D02*
X132320266Y-84932616D01*
X132320266Y-84932616D02*
X132358361Y-84856426D01*
X132358361Y-84856426D02*
X132358361Y-84704045D01*
X132358361Y-84704045D02*
X132320266Y-84627854D01*
X132320266Y-84627854D02*
X132282171Y-84589759D01*
X132282171Y-84589759D02*
X132205980Y-84551664D01*
X94539714Y-91708807D02*
X94539714Y-90908807D01*
X94539714Y-90908807D02*
X94730190Y-90908807D01*
X94730190Y-90908807D02*
X94844476Y-90946902D01*
X94844476Y-90946902D02*
X94920666Y-91023092D01*
X94920666Y-91023092D02*
X94958761Y-91099283D01*
X94958761Y-91099283D02*
X94996857Y-91251664D01*
X94996857Y-91251664D02*
X94996857Y-91365950D01*
X94996857Y-91365950D02*
X94958761Y-91518331D01*
X94958761Y-91518331D02*
X94920666Y-91594521D01*
X94920666Y-91594521D02*
X94844476Y-91670712D01*
X94844476Y-91670712D02*
X94730190Y-91708807D01*
X94730190Y-91708807D02*
X94539714Y-91708807D01*
X95682571Y-90908807D02*
X95530190Y-90908807D01*
X95530190Y-90908807D02*
X95453999Y-90946902D01*
X95453999Y-90946902D02*
X95415904Y-90984997D01*
X95415904Y-90984997D02*
X95339714Y-91099283D01*
X95339714Y-91099283D02*
X95301618Y-91251664D01*
X95301618Y-91251664D02*
X95301618Y-91556426D01*
X95301618Y-91556426D02*
X95339714Y-91632616D01*
X95339714Y-91632616D02*
X95377809Y-91670712D01*
X95377809Y-91670712D02*
X95453999Y-91708807D01*
X95453999Y-91708807D02*
X95606380Y-91708807D01*
X95606380Y-91708807D02*
X95682571Y-91670712D01*
X95682571Y-91670712D02*
X95720666Y-91632616D01*
X95720666Y-91632616D02*
X95758761Y-91556426D01*
X95758761Y-91556426D02*
X95758761Y-91365950D01*
X95758761Y-91365950D02*
X95720666Y-91289759D01*
X95720666Y-91289759D02*
X95682571Y-91251664D01*
X95682571Y-91251664D02*
X95606380Y-91213569D01*
X95606380Y-91213569D02*
X95453999Y-91213569D01*
X95453999Y-91213569D02*
X95377809Y-91251664D01*
X95377809Y-91251664D02*
X95339714Y-91289759D01*
X95339714Y-91289759D02*
X95301618Y-91365950D01*
X245102571Y-79073100D02*
X245673999Y-79073100D01*
X245388285Y-80073100D02*
X245388285Y-79073100D01*
X246007333Y-80073100D02*
X246007333Y-79073100D01*
X246007333Y-79549290D02*
X246578761Y-79549290D01*
X246578761Y-80073100D02*
X246578761Y-79073100D01*
X246816857Y-80168338D02*
X247578761Y-80168338D01*
X247816857Y-80073100D02*
X247816857Y-79073100D01*
X247816857Y-79073100D02*
X248197809Y-79073100D01*
X248197809Y-79073100D02*
X248293047Y-79120719D01*
X248293047Y-79120719D02*
X248340666Y-79168338D01*
X248340666Y-79168338D02*
X248388285Y-79263576D01*
X248388285Y-79263576D02*
X248388285Y-79406433D01*
X248388285Y-79406433D02*
X248340666Y-79501671D01*
X248340666Y-79501671D02*
X248293047Y-79549290D01*
X248293047Y-79549290D02*
X248197809Y-79596909D01*
X248197809Y-79596909D02*
X247816857Y-79596909D01*
X249388285Y-79977861D02*
X249340666Y-80025481D01*
X249340666Y-80025481D02*
X249197809Y-80073100D01*
X249197809Y-80073100D02*
X249102571Y-80073100D01*
X249102571Y-80073100D02*
X248959714Y-80025481D01*
X248959714Y-80025481D02*
X248864476Y-79930242D01*
X248864476Y-79930242D02*
X248816857Y-79835004D01*
X248816857Y-79835004D02*
X248769238Y-79644528D01*
X248769238Y-79644528D02*
X248769238Y-79501671D01*
X248769238Y-79501671D02*
X248816857Y-79311195D01*
X248816857Y-79311195D02*
X248864476Y-79215957D01*
X248864476Y-79215957D02*
X248959714Y-79120719D01*
X248959714Y-79120719D02*
X249102571Y-79073100D01*
X249102571Y-79073100D02*
X249197809Y-79073100D01*
X249197809Y-79073100D02*
X249340666Y-79120719D01*
X249340666Y-79120719D02*
X249388285Y-79168338D01*
X250150190Y-79549290D02*
X250293047Y-79596909D01*
X250293047Y-79596909D02*
X250340666Y-79644528D01*
X250340666Y-79644528D02*
X250388285Y-79739766D01*
X250388285Y-79739766D02*
X250388285Y-79882623D01*
X250388285Y-79882623D02*
X250340666Y-79977861D01*
X250340666Y-79977861D02*
X250293047Y-80025481D01*
X250293047Y-80025481D02*
X250197809Y-80073100D01*
X250197809Y-80073100D02*
X249816857Y-80073100D01*
X249816857Y-80073100D02*
X249816857Y-79073100D01*
X249816857Y-79073100D02*
X250150190Y-79073100D01*
X250150190Y-79073100D02*
X250245428Y-79120719D01*
X250245428Y-79120719D02*
X250293047Y-79168338D01*
X250293047Y-79168338D02*
X250340666Y-79263576D01*
X250340666Y-79263576D02*
X250340666Y-79358814D01*
X250340666Y-79358814D02*
X250293047Y-79454052D01*
X250293047Y-79454052D02*
X250245428Y-79501671D01*
X250245428Y-79501671D02*
X250150190Y-79549290D01*
X250150190Y-79549290D02*
X249816857Y-79549290D01*
X250578762Y-80168338D02*
X251340666Y-80168338D01*
X252102571Y-80073100D02*
X251531143Y-80073100D01*
X251816857Y-80073100D02*
X251816857Y-79073100D01*
X251816857Y-79073100D02*
X251721619Y-79215957D01*
X251721619Y-79215957D02*
X251626381Y-79311195D01*
X251626381Y-79311195D02*
X251531143Y-79358814D01*
X112458561Y-103556607D02*
X112458561Y-102756607D01*
X112458561Y-102756607D02*
X112649037Y-102756607D01*
X112649037Y-102756607D02*
X112763323Y-102794702D01*
X112763323Y-102794702D02*
X112839513Y-102870892D01*
X112839513Y-102870892D02*
X112877608Y-102947083D01*
X112877608Y-102947083D02*
X112915704Y-103099464D01*
X112915704Y-103099464D02*
X112915704Y-103213750D01*
X112915704Y-103213750D02*
X112877608Y-103366131D01*
X112877608Y-103366131D02*
X112839513Y-103442321D01*
X112839513Y-103442321D02*
X112763323Y-103518512D01*
X112763323Y-103518512D02*
X112649037Y-103556607D01*
X112649037Y-103556607D02*
X112458561Y-103556607D01*
X113677608Y-103556607D02*
X113220465Y-103556607D01*
X113449037Y-103556607D02*
X113449037Y-102756607D01*
X113449037Y-102756607D02*
X113372846Y-102870892D01*
X113372846Y-102870892D02*
X113296656Y-102947083D01*
X113296656Y-102947083D02*
X113220465Y-102985178D01*
X113982370Y-102832797D02*
X114020466Y-102794702D01*
X114020466Y-102794702D02*
X114096656Y-102756607D01*
X114096656Y-102756607D02*
X114287132Y-102756607D01*
X114287132Y-102756607D02*
X114363323Y-102794702D01*
X114363323Y-102794702D02*
X114401418Y-102832797D01*
X114401418Y-102832797D02*
X114439513Y-102908988D01*
X114439513Y-102908988D02*
X114439513Y-102985178D01*
X114439513Y-102985178D02*
X114401418Y-103099464D01*
X114401418Y-103099464D02*
X113944275Y-103556607D01*
X113944275Y-103556607D02*
X114439513Y-103556607D01*
X245102571Y-85023100D02*
X245673999Y-85023100D01*
X245388285Y-86023100D02*
X245388285Y-85023100D01*
X246007333Y-86023100D02*
X246007333Y-85023100D01*
X246007333Y-85499290D02*
X246578761Y-85499290D01*
X246578761Y-86023100D02*
X246578761Y-85023100D01*
X246816857Y-86118338D02*
X247578761Y-86118338D01*
X247816857Y-86023100D02*
X247816857Y-85023100D01*
X247816857Y-85023100D02*
X248197809Y-85023100D01*
X248197809Y-85023100D02*
X248293047Y-85070719D01*
X248293047Y-85070719D02*
X248340666Y-85118338D01*
X248340666Y-85118338D02*
X248388285Y-85213576D01*
X248388285Y-85213576D02*
X248388285Y-85356433D01*
X248388285Y-85356433D02*
X248340666Y-85451671D01*
X248340666Y-85451671D02*
X248293047Y-85499290D01*
X248293047Y-85499290D02*
X248197809Y-85546909D01*
X248197809Y-85546909D02*
X247816857Y-85546909D01*
X249388285Y-85927861D02*
X249340666Y-85975481D01*
X249340666Y-85975481D02*
X249197809Y-86023100D01*
X249197809Y-86023100D02*
X249102571Y-86023100D01*
X249102571Y-86023100D02*
X248959714Y-85975481D01*
X248959714Y-85975481D02*
X248864476Y-85880242D01*
X248864476Y-85880242D02*
X248816857Y-85785004D01*
X248816857Y-85785004D02*
X248769238Y-85594528D01*
X248769238Y-85594528D02*
X248769238Y-85451671D01*
X248769238Y-85451671D02*
X248816857Y-85261195D01*
X248816857Y-85261195D02*
X248864476Y-85165957D01*
X248864476Y-85165957D02*
X248959714Y-85070719D01*
X248959714Y-85070719D02*
X249102571Y-85023100D01*
X249102571Y-85023100D02*
X249197809Y-85023100D01*
X249197809Y-85023100D02*
X249340666Y-85070719D01*
X249340666Y-85070719D02*
X249388285Y-85118338D01*
X250150190Y-85499290D02*
X250293047Y-85546909D01*
X250293047Y-85546909D02*
X250340666Y-85594528D01*
X250340666Y-85594528D02*
X250388285Y-85689766D01*
X250388285Y-85689766D02*
X250388285Y-85832623D01*
X250388285Y-85832623D02*
X250340666Y-85927861D01*
X250340666Y-85927861D02*
X250293047Y-85975481D01*
X250293047Y-85975481D02*
X250197809Y-86023100D01*
X250197809Y-86023100D02*
X249816857Y-86023100D01*
X249816857Y-86023100D02*
X249816857Y-85023100D01*
X249816857Y-85023100D02*
X250150190Y-85023100D01*
X250150190Y-85023100D02*
X250245428Y-85070719D01*
X250245428Y-85070719D02*
X250293047Y-85118338D01*
X250293047Y-85118338D02*
X250340666Y-85213576D01*
X250340666Y-85213576D02*
X250340666Y-85308814D01*
X250340666Y-85308814D02*
X250293047Y-85404052D01*
X250293047Y-85404052D02*
X250245428Y-85451671D01*
X250245428Y-85451671D02*
X250150190Y-85499290D01*
X250150190Y-85499290D02*
X249816857Y-85499290D01*
X250578762Y-86118338D02*
X251340666Y-86118338D01*
X251531143Y-85118338D02*
X251578762Y-85070719D01*
X251578762Y-85070719D02*
X251674000Y-85023100D01*
X251674000Y-85023100D02*
X251912095Y-85023100D01*
X251912095Y-85023100D02*
X252007333Y-85070719D01*
X252007333Y-85070719D02*
X252054952Y-85118338D01*
X252054952Y-85118338D02*
X252102571Y-85213576D01*
X252102571Y-85213576D02*
X252102571Y-85308814D01*
X252102571Y-85308814D02*
X252054952Y-85451671D01*
X252054952Y-85451671D02*
X251483524Y-86023100D01*
X251483524Y-86023100D02*
X252102571Y-86023100D01*
X112639314Y-86508807D02*
X112639314Y-85708807D01*
X112639314Y-85708807D02*
X112829790Y-85708807D01*
X112829790Y-85708807D02*
X112944076Y-85746902D01*
X112944076Y-85746902D02*
X113020266Y-85823092D01*
X113020266Y-85823092D02*
X113058361Y-85899283D01*
X113058361Y-85899283D02*
X113096457Y-86051664D01*
X113096457Y-86051664D02*
X113096457Y-86165950D01*
X113096457Y-86165950D02*
X113058361Y-86318331D01*
X113058361Y-86318331D02*
X113020266Y-86394521D01*
X113020266Y-86394521D02*
X112944076Y-86470712D01*
X112944076Y-86470712D02*
X112829790Y-86508807D01*
X112829790Y-86508807D02*
X112639314Y-86508807D01*
X113363123Y-85708807D02*
X113896457Y-85708807D01*
X113896457Y-85708807D02*
X113553599Y-86508807D01*
X177217976Y-129844566D02*
X176278284Y-129502546D01*
X176278284Y-129502546D02*
X176408577Y-129144568D01*
X176408577Y-129144568D02*
X176485898Y-129071360D01*
X176485898Y-129071360D02*
X176546932Y-129042900D01*
X176546932Y-129042900D02*
X176652713Y-129030726D01*
X176652713Y-129030726D02*
X176786955Y-129079586D01*
X176786955Y-129079586D02*
X176860163Y-129156906D01*
X176860163Y-129156906D02*
X176888623Y-129217940D01*
X176888623Y-129217940D02*
X176900797Y-129323721D01*
X176900797Y-129323721D02*
X176770504Y-129681700D01*
X176587731Y-128652348D02*
X177608857Y-128770632D01*
X177608857Y-128770632D02*
X177002794Y-128347343D01*
X177002794Y-128347343D02*
X177739150Y-128412654D01*
X177739150Y-128412654D02*
X176880891Y-127846897D01*
X178146317Y-127293972D02*
X177584837Y-127444336D01*
X177950877Y-127830939D02*
X177011184Y-127488919D01*
X177011184Y-127488919D02*
X177141477Y-127130941D01*
X177141477Y-127130941D02*
X177218798Y-127057733D01*
X177218798Y-127057733D02*
X177279832Y-127029273D01*
X177279832Y-127029273D02*
X177385613Y-127017099D01*
X177385613Y-127017099D02*
X177519855Y-127065959D01*
X177519855Y-127065959D02*
X177593063Y-127143279D01*
X177593063Y-127143279D02*
X177621523Y-127204313D01*
X177621523Y-127204313D02*
X177633697Y-127310094D01*
X177633697Y-127310094D02*
X177503404Y-127668073D01*
X178300958Y-127147556D02*
X178561545Y-126431600D01*
X178492450Y-126203751D02*
X178586057Y-126085796D01*
X178586057Y-126085796D02*
X178667490Y-125862059D01*
X178667490Y-125862059D02*
X178655316Y-125756278D01*
X178655316Y-125756278D02*
X178626856Y-125695244D01*
X178626856Y-125695244D02*
X178553648Y-125617924D01*
X178553648Y-125617924D02*
X178464153Y-125585350D01*
X178464153Y-125585350D02*
X178358372Y-125597524D01*
X178358372Y-125597524D02*
X178297338Y-125625985D01*
X178297338Y-125625985D02*
X178220018Y-125699193D01*
X178220018Y-125699193D02*
X178110124Y-125861895D01*
X178110124Y-125861895D02*
X178032803Y-125935103D01*
X178032803Y-125935103D02*
X177971769Y-125963563D01*
X177971769Y-125963563D02*
X177865988Y-125975737D01*
X177865988Y-125975737D02*
X177776493Y-125943164D01*
X177776493Y-125943164D02*
X177703286Y-125865843D01*
X177703286Y-125865843D02*
X177674825Y-125804809D01*
X177674825Y-125804809D02*
X177662651Y-125699028D01*
X177662651Y-125699028D02*
X177744084Y-125475292D01*
X177744084Y-125475292D02*
X177837692Y-125357337D01*
X177906951Y-125027819D02*
X178928077Y-125146103D01*
X178928077Y-125146103D02*
X178322015Y-124722814D01*
X178322015Y-124722814D02*
X179058371Y-124788125D01*
X179058371Y-124788125D02*
X178200111Y-124222368D01*
X179278158Y-124462720D02*
X179538745Y-123746764D01*
X179709837Y-122998234D02*
X179514397Y-123535201D01*
X179612117Y-123266718D02*
X178672425Y-122924698D01*
X178672425Y-122924698D02*
X178774093Y-123063052D01*
X178774093Y-123063052D02*
X178831014Y-123185120D01*
X178831014Y-123185120D02*
X178843188Y-123290901D01*
X149238914Y-87308807D02*
X149238914Y-86508807D01*
X149238914Y-86508807D02*
X149429390Y-86508807D01*
X149429390Y-86508807D02*
X149543676Y-86546902D01*
X149543676Y-86546902D02*
X149619866Y-86623092D01*
X149619866Y-86623092D02*
X149657961Y-86699283D01*
X149657961Y-86699283D02*
X149696057Y-86851664D01*
X149696057Y-86851664D02*
X149696057Y-86965950D01*
X149696057Y-86965950D02*
X149657961Y-87118331D01*
X149657961Y-87118331D02*
X149619866Y-87194521D01*
X149619866Y-87194521D02*
X149543676Y-87270712D01*
X149543676Y-87270712D02*
X149429390Y-87308807D01*
X149429390Y-87308807D02*
X149238914Y-87308807D01*
X150077009Y-87308807D02*
X150229390Y-87308807D01*
X150229390Y-87308807D02*
X150305580Y-87270712D01*
X150305580Y-87270712D02*
X150343676Y-87232616D01*
X150343676Y-87232616D02*
X150419866Y-87118331D01*
X150419866Y-87118331D02*
X150457961Y-86965950D01*
X150457961Y-86965950D02*
X150457961Y-86661188D01*
X150457961Y-86661188D02*
X150419866Y-86584997D01*
X150419866Y-86584997D02*
X150381771Y-86546902D01*
X150381771Y-86546902D02*
X150305580Y-86508807D01*
X150305580Y-86508807D02*
X150153199Y-86508807D01*
X150153199Y-86508807D02*
X150077009Y-86546902D01*
X150077009Y-86546902D02*
X150038914Y-86584997D01*
X150038914Y-86584997D02*
X150000818Y-86661188D01*
X150000818Y-86661188D02*
X150000818Y-86851664D01*
X150000818Y-86851664D02*
X150038914Y-86927854D01*
X150038914Y-86927854D02*
X150077009Y-86965950D01*
X150077009Y-86965950D02*
X150153199Y-87004045D01*
X150153199Y-87004045D02*
X150305580Y-87004045D01*
X150305580Y-87004045D02*
X150381771Y-86965950D01*
X150381771Y-86965950D02*
X150419866Y-86927854D01*
X150419866Y-86927854D02*
X150457961Y-86851664D01*
X166553044Y-114119958D02*
X165753044Y-114119958D01*
X165753044Y-114119958D02*
X165753044Y-113929482D01*
X165753044Y-113929482D02*
X165791139Y-113815196D01*
X165791139Y-113815196D02*
X165867329Y-113739006D01*
X165867329Y-113739006D02*
X165943520Y-113700911D01*
X165943520Y-113700911D02*
X166095901Y-113662815D01*
X166095901Y-113662815D02*
X166210187Y-113662815D01*
X166210187Y-113662815D02*
X166362568Y-113700911D01*
X166362568Y-113700911D02*
X166438758Y-113739006D01*
X166438758Y-113739006D02*
X166514949Y-113815196D01*
X166514949Y-113815196D02*
X166553044Y-113929482D01*
X166553044Y-113929482D02*
X166553044Y-114119958D01*
X166553044Y-112900911D02*
X166553044Y-113358054D01*
X166553044Y-113129482D02*
X165753044Y-113129482D01*
X165753044Y-113129482D02*
X165867329Y-113205673D01*
X165867329Y-113205673D02*
X165943520Y-113281863D01*
X165943520Y-113281863D02*
X165981615Y-113358054D01*
X165753044Y-112215196D02*
X165753044Y-112367577D01*
X165753044Y-112367577D02*
X165791139Y-112443768D01*
X165791139Y-112443768D02*
X165829234Y-112481863D01*
X165829234Y-112481863D02*
X165943520Y-112558053D01*
X165943520Y-112558053D02*
X166095901Y-112596149D01*
X166095901Y-112596149D02*
X166400663Y-112596149D01*
X166400663Y-112596149D02*
X166476853Y-112558053D01*
X166476853Y-112558053D02*
X166514949Y-112519958D01*
X166514949Y-112519958D02*
X166553044Y-112443768D01*
X166553044Y-112443768D02*
X166553044Y-112291387D01*
X166553044Y-112291387D02*
X166514949Y-112215196D01*
X166514949Y-112215196D02*
X166476853Y-112177101D01*
X166476853Y-112177101D02*
X166400663Y-112139006D01*
X166400663Y-112139006D02*
X166210187Y-112139006D01*
X166210187Y-112139006D02*
X166133996Y-112177101D01*
X166133996Y-112177101D02*
X166095901Y-112215196D01*
X166095901Y-112215196D02*
X166057806Y-112291387D01*
X166057806Y-112291387D02*
X166057806Y-112443768D01*
X166057806Y-112443768D02*
X166095901Y-112519958D01*
X166095901Y-112519958D02*
X166133996Y-112558053D01*
X166133996Y-112558053D02*
X166210187Y-112596149D01*
X174055844Y-114119958D02*
X173255844Y-114119958D01*
X173255844Y-114119958D02*
X173255844Y-113929482D01*
X173255844Y-113929482D02*
X173293939Y-113815196D01*
X173293939Y-113815196D02*
X173370129Y-113739006D01*
X173370129Y-113739006D02*
X173446320Y-113700911D01*
X173446320Y-113700911D02*
X173598701Y-113662815D01*
X173598701Y-113662815D02*
X173712987Y-113662815D01*
X173712987Y-113662815D02*
X173865368Y-113700911D01*
X173865368Y-113700911D02*
X173941558Y-113739006D01*
X173941558Y-113739006D02*
X174017749Y-113815196D01*
X174017749Y-113815196D02*
X174055844Y-113929482D01*
X174055844Y-113929482D02*
X174055844Y-114119958D01*
X174055844Y-112900911D02*
X174055844Y-113358054D01*
X174055844Y-113129482D02*
X173255844Y-113129482D01*
X173255844Y-113129482D02*
X173370129Y-113205673D01*
X173370129Y-113205673D02*
X173446320Y-113281863D01*
X173446320Y-113281863D02*
X173484415Y-113358054D01*
X173255844Y-112634244D02*
X173255844Y-112100910D01*
X173255844Y-112100910D02*
X174055844Y-112443768D01*
X93958561Y-108756607D02*
X93958561Y-107956607D01*
X93958561Y-107956607D02*
X94149037Y-107956607D01*
X94149037Y-107956607D02*
X94263323Y-107994702D01*
X94263323Y-107994702D02*
X94339513Y-108070892D01*
X94339513Y-108070892D02*
X94377608Y-108147083D01*
X94377608Y-108147083D02*
X94415704Y-108299464D01*
X94415704Y-108299464D02*
X94415704Y-108413750D01*
X94415704Y-108413750D02*
X94377608Y-108566131D01*
X94377608Y-108566131D02*
X94339513Y-108642321D01*
X94339513Y-108642321D02*
X94263323Y-108718512D01*
X94263323Y-108718512D02*
X94149037Y-108756607D01*
X94149037Y-108756607D02*
X93958561Y-108756607D01*
X95177608Y-108756607D02*
X94720465Y-108756607D01*
X94949037Y-108756607D02*
X94949037Y-107956607D01*
X94949037Y-107956607D02*
X94872846Y-108070892D01*
X94872846Y-108070892D02*
X94796656Y-108147083D01*
X94796656Y-108147083D02*
X94720465Y-108185178D01*
X95939513Y-108756607D02*
X95482370Y-108756607D01*
X95710942Y-108756607D02*
X95710942Y-107956607D01*
X95710942Y-107956607D02*
X95634751Y-108070892D01*
X95634751Y-108070892D02*
X95558561Y-108147083D01*
X95558561Y-108147083D02*
X95482370Y-108185178D01*
X245102571Y-90973100D02*
X245673999Y-90973100D01*
X245388285Y-91973100D02*
X245388285Y-90973100D01*
X246007333Y-91973100D02*
X246007333Y-90973100D01*
X246007333Y-91449290D02*
X246578761Y-91449290D01*
X246578761Y-91973100D02*
X246578761Y-90973100D01*
X246816857Y-92068338D02*
X247578761Y-92068338D01*
X247816857Y-91973100D02*
X247816857Y-90973100D01*
X247816857Y-90973100D02*
X248197809Y-90973100D01*
X248197809Y-90973100D02*
X248293047Y-91020719D01*
X248293047Y-91020719D02*
X248340666Y-91068338D01*
X248340666Y-91068338D02*
X248388285Y-91163576D01*
X248388285Y-91163576D02*
X248388285Y-91306433D01*
X248388285Y-91306433D02*
X248340666Y-91401671D01*
X248340666Y-91401671D02*
X248293047Y-91449290D01*
X248293047Y-91449290D02*
X248197809Y-91496909D01*
X248197809Y-91496909D02*
X247816857Y-91496909D01*
X249388285Y-91877861D02*
X249340666Y-91925481D01*
X249340666Y-91925481D02*
X249197809Y-91973100D01*
X249197809Y-91973100D02*
X249102571Y-91973100D01*
X249102571Y-91973100D02*
X248959714Y-91925481D01*
X248959714Y-91925481D02*
X248864476Y-91830242D01*
X248864476Y-91830242D02*
X248816857Y-91735004D01*
X248816857Y-91735004D02*
X248769238Y-91544528D01*
X248769238Y-91544528D02*
X248769238Y-91401671D01*
X248769238Y-91401671D02*
X248816857Y-91211195D01*
X248816857Y-91211195D02*
X248864476Y-91115957D01*
X248864476Y-91115957D02*
X248959714Y-91020719D01*
X248959714Y-91020719D02*
X249102571Y-90973100D01*
X249102571Y-90973100D02*
X249197809Y-90973100D01*
X249197809Y-90973100D02*
X249340666Y-91020719D01*
X249340666Y-91020719D02*
X249388285Y-91068338D01*
X250150190Y-91449290D02*
X250293047Y-91496909D01*
X250293047Y-91496909D02*
X250340666Y-91544528D01*
X250340666Y-91544528D02*
X250388285Y-91639766D01*
X250388285Y-91639766D02*
X250388285Y-91782623D01*
X250388285Y-91782623D02*
X250340666Y-91877861D01*
X250340666Y-91877861D02*
X250293047Y-91925481D01*
X250293047Y-91925481D02*
X250197809Y-91973100D01*
X250197809Y-91973100D02*
X249816857Y-91973100D01*
X249816857Y-91973100D02*
X249816857Y-90973100D01*
X249816857Y-90973100D02*
X250150190Y-90973100D01*
X250150190Y-90973100D02*
X250245428Y-91020719D01*
X250245428Y-91020719D02*
X250293047Y-91068338D01*
X250293047Y-91068338D02*
X250340666Y-91163576D01*
X250340666Y-91163576D02*
X250340666Y-91258814D01*
X250340666Y-91258814D02*
X250293047Y-91354052D01*
X250293047Y-91354052D02*
X250245428Y-91401671D01*
X250245428Y-91401671D02*
X250150190Y-91449290D01*
X250150190Y-91449290D02*
X249816857Y-91449290D01*
X250578762Y-92068338D02*
X251340666Y-92068338D01*
X251483524Y-90973100D02*
X252102571Y-90973100D01*
X252102571Y-90973100D02*
X251769238Y-91354052D01*
X251769238Y-91354052D02*
X251912095Y-91354052D01*
X251912095Y-91354052D02*
X252007333Y-91401671D01*
X252007333Y-91401671D02*
X252054952Y-91449290D01*
X252054952Y-91449290D02*
X252102571Y-91544528D01*
X252102571Y-91544528D02*
X252102571Y-91782623D01*
X252102571Y-91782623D02*
X252054952Y-91877861D01*
X252054952Y-91877861D02*
X252007333Y-91925481D01*
X252007333Y-91925481D02*
X251912095Y-91973100D01*
X251912095Y-91973100D02*
X251626381Y-91973100D01*
X251626381Y-91973100D02*
X251531143Y-91925481D01*
X251531143Y-91925481D02*
X251483524Y-91877861D01*
X130558161Y-102056607D02*
X130558161Y-101256607D01*
X130558161Y-101256607D02*
X130748637Y-101256607D01*
X130748637Y-101256607D02*
X130862923Y-101294702D01*
X130862923Y-101294702D02*
X130939113Y-101370892D01*
X130939113Y-101370892D02*
X130977208Y-101447083D01*
X130977208Y-101447083D02*
X131015304Y-101599464D01*
X131015304Y-101599464D02*
X131015304Y-101713750D01*
X131015304Y-101713750D02*
X130977208Y-101866131D01*
X130977208Y-101866131D02*
X130939113Y-101942321D01*
X130939113Y-101942321D02*
X130862923Y-102018512D01*
X130862923Y-102018512D02*
X130748637Y-102056607D01*
X130748637Y-102056607D02*
X130558161Y-102056607D01*
X131777208Y-102056607D02*
X131320065Y-102056607D01*
X131548637Y-102056607D02*
X131548637Y-101256607D01*
X131548637Y-101256607D02*
X131472446Y-101370892D01*
X131472446Y-101370892D02*
X131396256Y-101447083D01*
X131396256Y-101447083D02*
X131320065Y-101485178D01*
X132043875Y-101256607D02*
X132539113Y-101256607D01*
X132539113Y-101256607D02*
X132272447Y-101561369D01*
X132272447Y-101561369D02*
X132386732Y-101561369D01*
X132386732Y-101561369D02*
X132462923Y-101599464D01*
X132462923Y-101599464D02*
X132501018Y-101637559D01*
X132501018Y-101637559D02*
X132539113Y-101713750D01*
X132539113Y-101713750D02*
X132539113Y-101904226D01*
X132539113Y-101904226D02*
X132501018Y-101980416D01*
X132501018Y-101980416D02*
X132462923Y-102018512D01*
X132462923Y-102018512D02*
X132386732Y-102056607D01*
X132386732Y-102056607D02*
X132158161Y-102056607D01*
X132158161Y-102056607D02*
X132081970Y-102018512D01*
X132081970Y-102018512D02*
X132043875Y-101980416D01*
X130939114Y-67994906D02*
X130939114Y-67194906D01*
X130939114Y-67194906D02*
X131129590Y-67194906D01*
X131129590Y-67194906D02*
X131243876Y-67233001D01*
X131243876Y-67233001D02*
X131320066Y-67309191D01*
X131320066Y-67309191D02*
X131358161Y-67385382D01*
X131358161Y-67385382D02*
X131396257Y-67537763D01*
X131396257Y-67537763D02*
X131396257Y-67652049D01*
X131396257Y-67652049D02*
X131358161Y-67804430D01*
X131358161Y-67804430D02*
X131320066Y-67880620D01*
X131320066Y-67880620D02*
X131243876Y-67956811D01*
X131243876Y-67956811D02*
X131129590Y-67994906D01*
X131129590Y-67994906D02*
X130939114Y-67994906D01*
X131662923Y-67194906D02*
X132158161Y-67194906D01*
X132158161Y-67194906D02*
X131891495Y-67499668D01*
X131891495Y-67499668D02*
X132005780Y-67499668D01*
X132005780Y-67499668D02*
X132081971Y-67537763D01*
X132081971Y-67537763D02*
X132120066Y-67575858D01*
X132120066Y-67575858D02*
X132158161Y-67652049D01*
X132158161Y-67652049D02*
X132158161Y-67842525D01*
X132158161Y-67842525D02*
X132120066Y-67918715D01*
X132120066Y-67918715D02*
X132081971Y-67956811D01*
X132081971Y-67956811D02*
X132005780Y-67994906D01*
X132005780Y-67994906D02*
X131777209Y-67994906D01*
X131777209Y-67994906D02*
X131701018Y-67956811D01*
X131701018Y-67956811D02*
X131662923Y-67918715D01*
X181678146Y-76007981D02*
X181678146Y-76817504D01*
X181678146Y-76817504D02*
X181725765Y-76912742D01*
X181725765Y-76912742D02*
X181773384Y-76960362D01*
X181773384Y-76960362D02*
X181868622Y-77007981D01*
X181868622Y-77007981D02*
X182059098Y-77007981D01*
X182059098Y-77007981D02*
X182154336Y-76960362D01*
X182154336Y-76960362D02*
X182201955Y-76912742D01*
X182201955Y-76912742D02*
X182249574Y-76817504D01*
X182249574Y-76817504D02*
X182249574Y-76007981D01*
X183249574Y-77007981D02*
X182678146Y-77007981D01*
X182963860Y-77007981D02*
X182963860Y-76007981D01*
X182963860Y-76007981D02*
X182868622Y-76150838D01*
X182868622Y-76150838D02*
X182773384Y-76246076D01*
X182773384Y-76246076D02*
X182678146Y-76293695D01*
X149188114Y-70356407D02*
X149188114Y-69556407D01*
X149188114Y-69556407D02*
X149378590Y-69556407D01*
X149378590Y-69556407D02*
X149492876Y-69594502D01*
X149492876Y-69594502D02*
X149569066Y-69670692D01*
X149569066Y-69670692D02*
X149607161Y-69746883D01*
X149607161Y-69746883D02*
X149645257Y-69899264D01*
X149645257Y-69899264D02*
X149645257Y-70013550D01*
X149645257Y-70013550D02*
X149607161Y-70165931D01*
X149607161Y-70165931D02*
X149569066Y-70242121D01*
X149569066Y-70242121D02*
X149492876Y-70318312D01*
X149492876Y-70318312D02*
X149378590Y-70356407D01*
X149378590Y-70356407D02*
X149188114Y-70356407D01*
X150330971Y-69823073D02*
X150330971Y-70356407D01*
X150140495Y-69518312D02*
X149950018Y-70089740D01*
X149950018Y-70089740D02*
X150445257Y-70089740D01*
X149058161Y-104356607D02*
X149058161Y-103556607D01*
X149058161Y-103556607D02*
X149248637Y-103556607D01*
X149248637Y-103556607D02*
X149362923Y-103594702D01*
X149362923Y-103594702D02*
X149439113Y-103670892D01*
X149439113Y-103670892D02*
X149477208Y-103747083D01*
X149477208Y-103747083D02*
X149515304Y-103899464D01*
X149515304Y-103899464D02*
X149515304Y-104013750D01*
X149515304Y-104013750D02*
X149477208Y-104166131D01*
X149477208Y-104166131D02*
X149439113Y-104242321D01*
X149439113Y-104242321D02*
X149362923Y-104318512D01*
X149362923Y-104318512D02*
X149248637Y-104356607D01*
X149248637Y-104356607D02*
X149058161Y-104356607D01*
X150277208Y-104356607D02*
X149820065Y-104356607D01*
X150048637Y-104356607D02*
X150048637Y-103556607D01*
X150048637Y-103556607D02*
X149972446Y-103670892D01*
X149972446Y-103670892D02*
X149896256Y-103747083D01*
X149896256Y-103747083D02*
X149820065Y-103785178D01*
X150962923Y-103823273D02*
X150962923Y-104356607D01*
X150772447Y-103518512D02*
X150581970Y-104089940D01*
X150581970Y-104089940D02*
X151077209Y-104089940D01*
X167056161Y-107831506D02*
X167056161Y-107031506D01*
X167056161Y-107031506D02*
X167246637Y-107031506D01*
X167246637Y-107031506D02*
X167360923Y-107069601D01*
X167360923Y-107069601D02*
X167437113Y-107145791D01*
X167437113Y-107145791D02*
X167475208Y-107221982D01*
X167475208Y-107221982D02*
X167513304Y-107374363D01*
X167513304Y-107374363D02*
X167513304Y-107488649D01*
X167513304Y-107488649D02*
X167475208Y-107641030D01*
X167475208Y-107641030D02*
X167437113Y-107717220D01*
X167437113Y-107717220D02*
X167360923Y-107793411D01*
X167360923Y-107793411D02*
X167246637Y-107831506D01*
X167246637Y-107831506D02*
X167056161Y-107831506D01*
X168275208Y-107831506D02*
X167818065Y-107831506D01*
X168046637Y-107831506D02*
X168046637Y-107031506D01*
X168046637Y-107031506D02*
X167970446Y-107145791D01*
X167970446Y-107145791D02*
X167894256Y-107221982D01*
X167894256Y-107221982D02*
X167818065Y-107260077D01*
X168999018Y-107031506D02*
X168618066Y-107031506D01*
X168618066Y-107031506D02*
X168579970Y-107412458D01*
X168579970Y-107412458D02*
X168618066Y-107374363D01*
X168618066Y-107374363D02*
X168694256Y-107336268D01*
X168694256Y-107336268D02*
X168884732Y-107336268D01*
X168884732Y-107336268D02*
X168960923Y-107374363D01*
X168960923Y-107374363D02*
X168999018Y-107412458D01*
X168999018Y-107412458D02*
X169037113Y-107488649D01*
X169037113Y-107488649D02*
X169037113Y-107679125D01*
X169037113Y-107679125D02*
X168999018Y-107755315D01*
X168999018Y-107755315D02*
X168960923Y-107793411D01*
X168960923Y-107793411D02*
X168884732Y-107831506D01*
X168884732Y-107831506D02*
X168694256Y-107831506D01*
X168694256Y-107831506D02*
X168618066Y-107793411D01*
X168618066Y-107793411D02*
X168579970Y-107755315D01*
D11*
X166945590Y-83648281D02*
X169345590Y-83648281D01*
X169345590Y-83648281D02*
X169345590Y-89648281D01*
X169345590Y-89648281D02*
X166945590Y-89648281D01*
X166945590Y-89648281D02*
X166945590Y-83648281D01*
X169345590Y-89648281D02*
X166945590Y-89648281D01*
X166945590Y-89089881D01*
X169345590Y-89089881D01*
X169345590Y-89648281D01*
G36*
X169345590Y-89648281D02*
G01*
X166945590Y-89648281D01*
X166945590Y-89089881D01*
X169345590Y-89089881D01*
X169345590Y-89648281D01*
G37*
D10*
X100446390Y-89383681D02*
X100446390Y-92033681D01*
X101446390Y-93033681D02*
X104046390Y-93033681D01*
X106471390Y-86183681D02*
X109021390Y-86183681D01*
X110046390Y-87208681D02*
X109021390Y-86183681D01*
X110046390Y-87208681D02*
X110046390Y-89808681D01*
X100446390Y-92033681D02*
G75*
G03*
X101446390Y-93033681I999999J-1D01*
G01*
D11*
X130546190Y-77808681D02*
X132946190Y-77808681D01*
X132946190Y-77808681D02*
X132946190Y-83808681D01*
X132946190Y-83808681D02*
X130546190Y-83808681D01*
X130546190Y-83808681D02*
X130546190Y-77808681D01*
X132946190Y-83808681D02*
X130546190Y-83808681D01*
X130546190Y-83250281D01*
X132946190Y-83250281D01*
X132946190Y-83808681D01*
G36*
X132946190Y-83808681D02*
G01*
X130546190Y-83808681D01*
X130546190Y-83250281D01*
X132946190Y-83250281D01*
X132946190Y-83808681D01*
G37*
X93946590Y-84508681D02*
X96346590Y-84508681D01*
X96346590Y-84508681D02*
X96346590Y-90508681D01*
X96346590Y-90508681D02*
X93946590Y-90508681D01*
X93946590Y-90508681D02*
X93946590Y-84508681D01*
X96346590Y-90508681D02*
X93946590Y-90508681D01*
X93946590Y-89950281D01*
X96346590Y-89950281D01*
X96346590Y-90508681D01*
G36*
X96346590Y-90508681D02*
G01*
X93946590Y-90508681D01*
X93946590Y-89950281D01*
X96346590Y-89950281D01*
X96346590Y-90508681D01*
G37*
D10*
X118746190Y-70883681D02*
X118746190Y-73533681D01*
X119746190Y-74533681D02*
X122346190Y-74533681D01*
X124771190Y-67683681D02*
X127321190Y-67683681D01*
X128346190Y-68708681D02*
X127321190Y-67683681D01*
X128346190Y-68708681D02*
X128346190Y-71308681D01*
X118746190Y-73533681D02*
G75*
G03*
X119746190Y-74533681I999999J-1D01*
G01*
X100446390Y-72383681D02*
X100446390Y-75033681D01*
X101446390Y-76033681D02*
X104046390Y-76033681D01*
X106471390Y-69183681D02*
X109021390Y-69183681D01*
X110046390Y-70208681D02*
X109021390Y-69183681D01*
X110046390Y-70208681D02*
X110046390Y-72808681D01*
X100446390Y-75033681D02*
G75*
G03*
X101446390Y-76033681I999999J-1D01*
G01*
X118746190Y-87883681D02*
X118746190Y-90533681D01*
X119746190Y-91533681D02*
X122346190Y-91533681D01*
X124771190Y-84683681D02*
X127321190Y-84683681D01*
X128346190Y-85708681D02*
X127321190Y-84683681D01*
X128346190Y-85708681D02*
X128346190Y-88308681D01*
X118746190Y-90533681D02*
G75*
G03*
X119746190Y-91533681I999999J-1D01*
G01*
D11*
X112246390Y-96308681D02*
X114646390Y-96308681D01*
X114646390Y-96308681D02*
X114646390Y-102308681D01*
X114646390Y-102308681D02*
X112246390Y-102308681D01*
X112246390Y-102308681D02*
X112246390Y-96308681D01*
X114646390Y-102308681D02*
X112246390Y-102308681D01*
X112246390Y-101750281D01*
X114646390Y-101750281D01*
X114646390Y-102308681D01*
G36*
X114646390Y-102308681D02*
G01*
X112246390Y-102308681D01*
X112246390Y-101750281D01*
X114646390Y-101750281D01*
X114646390Y-102308681D01*
G37*
X112046190Y-79308681D02*
X114446190Y-79308681D01*
X114446190Y-79308681D02*
X114446190Y-85308681D01*
X114446190Y-85308681D02*
X112046190Y-85308681D01*
X112046190Y-85308681D02*
X112046190Y-79308681D01*
X114446190Y-85308681D02*
X112046190Y-85308681D01*
X112046190Y-84750281D01*
X114446190Y-84750281D01*
X114446190Y-85308681D01*
G36*
X114446190Y-85308681D02*
G01*
X112046190Y-85308681D01*
X112046190Y-84750281D01*
X114446190Y-84750281D01*
X114446190Y-85308681D01*
G37*
D12*
X179789642Y-130600679D02*
X180531999Y-130870875D01*
X181686301Y-130652500D02*
X183635816Y-125296252D01*
X179435702Y-128503127D02*
X180017136Y-126905649D01*
X182182230Y-129289946D02*
X183394434Y-129731152D01*
X183394434Y-129731152D02*
X183660173Y-129615037D01*
X183660173Y-129615037D02*
X183967991Y-128769314D01*
X183839060Y-128509551D02*
X183967991Y-128769314D01*
X183839060Y-128509551D02*
X182626856Y-128068345D01*
X180461762Y-125684049D02*
X180530166Y-125496110D01*
X182891938Y-124386996D02*
X182149581Y-124116800D01*
D10*
X100446390Y-55383681D02*
X100446390Y-58033681D01*
X101446390Y-59033681D02*
X104046390Y-59033681D01*
X106471390Y-52183681D02*
X109021390Y-52183681D01*
X110046390Y-53208681D02*
X109021390Y-52183681D01*
X110046390Y-53208681D02*
X110046390Y-55808681D01*
X100446390Y-58033681D02*
G75*
G03*
X101446390Y-59033681I999999J-1D01*
G01*
D11*
X148645790Y-80108681D02*
X151045790Y-80108681D01*
X151045790Y-80108681D02*
X151045790Y-86108681D01*
X151045790Y-86108681D02*
X148645790Y-86108681D01*
X148645790Y-86108681D02*
X148645790Y-80108681D01*
X151045790Y-86108681D02*
X148645790Y-86108681D01*
X148645790Y-85550281D01*
X151045790Y-85550281D01*
X151045790Y-86108681D01*
G36*
X151045790Y-86108681D02*
G01*
X148645790Y-86108681D01*
X148645790Y-85550281D01*
X151045790Y-85550281D01*
X151045790Y-86108681D01*
G37*
D10*
X82146590Y-94583681D02*
X82146590Y-97233681D01*
X83146590Y-98233681D02*
X85746590Y-98233681D01*
X88171590Y-91383681D02*
X90721590Y-91383681D01*
X91746590Y-92408681D02*
X90721590Y-91383681D01*
X91746590Y-92408681D02*
X91746590Y-95008681D01*
X82146590Y-97233681D02*
G75*
G03*
X83146590Y-98233681I999999J-1D01*
G01*
X137045990Y-56183481D02*
X137045990Y-58833481D01*
X138045990Y-59833481D02*
X140645990Y-59833481D01*
X143070990Y-52983481D02*
X145620990Y-52983481D01*
X146645990Y-54008481D02*
X145620990Y-52983481D01*
X146645990Y-54008481D02*
X146645990Y-56608481D01*
X137045990Y-58833481D02*
G75*
G03*
X138045990Y-59833481I999999J-1D01*
G01*
D11*
X166945590Y-66648281D02*
X169345590Y-66648281D01*
X169345590Y-66648281D02*
X169345590Y-72648281D01*
X169345590Y-72648281D02*
X166945590Y-72648281D01*
X166945590Y-72648281D02*
X166945590Y-66648281D01*
X169345590Y-72648281D02*
X166945590Y-72648281D01*
X166945590Y-72089881D01*
X169345590Y-72089881D01*
X169345590Y-72648281D01*
G36*
X169345590Y-72648281D02*
G01*
X166945590Y-72648281D01*
X166945590Y-72089881D01*
X169345590Y-72089881D01*
X169345590Y-72648281D01*
G37*
D10*
X174005903Y-131123878D02*
X174912256Y-128633693D01*
X174314584Y-127351980D02*
X171871383Y-126462728D01*
X167249790Y-132070223D02*
X164853574Y-131198072D01*
X164240960Y-129884317D02*
X164853574Y-131198072D01*
X164240960Y-129884317D02*
X165130212Y-127441116D01*
X174912256Y-128633693D02*
G75*
G03*
X174314584Y-127351980I-939691J342021D01*
G01*
D11*
X169335400Y-115908000D02*
X166935400Y-115908000D01*
X166935400Y-115908000D02*
X166935400Y-109908000D01*
X166935400Y-109908000D02*
X169335400Y-109908000D01*
X169335400Y-109908000D02*
X169335400Y-115908000D01*
X169335400Y-110466400D02*
X166935400Y-110466400D01*
X166935400Y-109908000D01*
X169335400Y-109908000D01*
X169335400Y-110466400D01*
G36*
X169335400Y-110466400D02*
G01*
X166935400Y-110466400D01*
X166935400Y-109908000D01*
X169335400Y-109908000D01*
X169335400Y-110466400D01*
G37*
D10*
X118746190Y-53883681D02*
X118746190Y-56533681D01*
X119746190Y-57533681D02*
X122346190Y-57533681D01*
X124771190Y-50683681D02*
X127321190Y-50683681D01*
X128346190Y-51708681D02*
X127321190Y-50683681D01*
X128346190Y-51708681D02*
X128346190Y-54308681D01*
X118746190Y-56533681D02*
G75*
G03*
X119746190Y-57533681I999999J-1D01*
G01*
D11*
X172853200Y-115908000D02*
X170453200Y-115908000D01*
X170453200Y-115908000D02*
X170453200Y-109908000D01*
X170453200Y-109908000D02*
X172853200Y-109908000D01*
X172853200Y-109908000D02*
X172853200Y-115908000D01*
X172853200Y-110466400D02*
X170453200Y-110466400D01*
X170453200Y-109908000D01*
X172853200Y-109908000D01*
X172853200Y-110466400D01*
G36*
X172853200Y-110466400D02*
G01*
X170453200Y-110466400D01*
X170453200Y-109908000D01*
X172853200Y-109908000D01*
X172853200Y-110466400D01*
G37*
X93746390Y-101508681D02*
X96146390Y-101508681D01*
X96146390Y-101508681D02*
X96146390Y-107508681D01*
X96146390Y-107508681D02*
X93746390Y-107508681D01*
X93746390Y-107508681D02*
X93746390Y-101508681D01*
X96146390Y-107508681D02*
X93746390Y-107508681D01*
X93746390Y-106950281D01*
X96146390Y-106950281D01*
X96146390Y-107508681D01*
G36*
X96146390Y-107508681D02*
G01*
X93746390Y-107508681D01*
X93746390Y-106950281D01*
X96146390Y-106950281D01*
X96146390Y-107508681D01*
G37*
D12*
X140736747Y-104002419D02*
X140736747Y-106652419D01*
X138236747Y-104002419D02*
X140736747Y-104002419D01*
X134616747Y-105372419D02*
X134616747Y-106122419D01*
X134616747Y-106122419D02*
X135616747Y-106522419D01*
X135616747Y-106522419D02*
X135616747Y-109352419D01*
X140736747Y-106652419D02*
X142126747Y-106652419D01*
X135616747Y-109352419D02*
X134616747Y-109752419D01*
X134616747Y-109752419D02*
X134616747Y-110502419D01*
X140736747Y-111872419D02*
X140736747Y-109222419D01*
X138236747Y-111872419D02*
X140736747Y-111872419D01*
D10*
X137045990Y-90183681D02*
X137045990Y-92833681D01*
X138045990Y-93833681D02*
X140645990Y-93833681D01*
X143070990Y-86983681D02*
X145620990Y-86983681D01*
X146645990Y-88008681D02*
X145620990Y-86983681D01*
X146645990Y-88008681D02*
X146645990Y-90608681D01*
X137045990Y-92833681D02*
G75*
G03*
X138045990Y-93833681I999999J-1D01*
G01*
X137045990Y-73183681D02*
X137045990Y-75833681D01*
X138045990Y-76833681D02*
X140645990Y-76833681D01*
X143070990Y-69983681D02*
X145620990Y-69983681D01*
X146645990Y-71008681D02*
X145620990Y-69983681D01*
X146645990Y-71008681D02*
X146645990Y-73608681D01*
X137045990Y-75833681D02*
G75*
G03*
X138045990Y-76833681I999999J-1D01*
G01*
D11*
X112046190Y-62308681D02*
X114446190Y-62308681D01*
X114446190Y-62308681D02*
X114446190Y-68308681D01*
X114446190Y-68308681D02*
X112046190Y-68308681D01*
X112046190Y-68308681D02*
X112046190Y-62308681D01*
X114446190Y-68308681D02*
X112046190Y-68308681D01*
X112046190Y-67750281D01*
X114446190Y-67750281D01*
X114446190Y-68308681D01*
G36*
X114446190Y-68308681D02*
G01*
X112046190Y-68308681D01*
X112046190Y-67750281D01*
X114446190Y-67750281D01*
X114446190Y-68308681D01*
G37*
D10*
X82146590Y-77583681D02*
X82146590Y-80233681D01*
X83146590Y-81233681D02*
X85746590Y-81233681D01*
X88171590Y-74383681D02*
X90721590Y-74383681D01*
X91746590Y-75408681D02*
X90721590Y-74383681D01*
X91746590Y-75408681D02*
X91746590Y-78008681D01*
X82146590Y-80233681D02*
G75*
G03*
X83146590Y-81233681I999999J-1D01*
G01*
D11*
X130345990Y-94808681D02*
X132745990Y-94808681D01*
X132745990Y-94808681D02*
X132745990Y-100808681D01*
X132745990Y-100808681D02*
X130345990Y-100808681D01*
X130345990Y-100808681D02*
X130345990Y-94808681D01*
X132745990Y-100808681D02*
X130345990Y-100808681D01*
X130345990Y-100250281D01*
X132745990Y-100250281D01*
X132745990Y-100808681D01*
G36*
X132745990Y-100808681D02*
G01*
X130345990Y-100808681D01*
X130345990Y-100250281D01*
X132745990Y-100250281D01*
X132745990Y-100808681D01*
G37*
D10*
X82146590Y-58683681D02*
X82146590Y-61333681D01*
X83146590Y-62333681D02*
X85746590Y-62333681D01*
X88171590Y-55483681D02*
X90721590Y-55483681D01*
X91746590Y-56508681D02*
X90721590Y-55483681D01*
X91746590Y-56508681D02*
X91746590Y-59108681D01*
X82146590Y-61333681D02*
G75*
G03*
X83146590Y-62333681I999999J-1D01*
G01*
D11*
X130345990Y-60808681D02*
X132745990Y-60808681D01*
X132745990Y-60808681D02*
X132745990Y-66808681D01*
X132745990Y-66808681D02*
X130345990Y-66808681D01*
X130345990Y-66808681D02*
X130345990Y-60808681D01*
X132745990Y-66808681D02*
X130345990Y-66808681D01*
X130345990Y-66250281D01*
X132745990Y-66250281D01*
X132745990Y-66808681D01*
G36*
X132745990Y-66808681D02*
G01*
X130345990Y-66808681D01*
X130345990Y-66250281D01*
X132745990Y-66250281D01*
X132745990Y-66808681D01*
G37*
D10*
X155345790Y-93723281D02*
X155345790Y-96373281D01*
X156345790Y-97373281D02*
X158945790Y-97373281D01*
X161370790Y-90523281D02*
X163920790Y-90523281D01*
X164945790Y-91548281D02*
X163920790Y-90523281D01*
X164945790Y-91548281D02*
X164945790Y-94148281D01*
X155345790Y-96373281D02*
G75*
G03*
X156345790Y-97373281I999999J-1D01*
G01*
X173540051Y-76307162D02*
X173540051Y-77307162D01*
X173540051Y-76307162D02*
X174540051Y-76307162D01*
X173540051Y-96145362D02*
X173540051Y-97195362D01*
X173540051Y-97195362D02*
X174540051Y-97195362D01*
X191340051Y-76307162D02*
X190390051Y-76307162D01*
X191340051Y-76307162D02*
X191340051Y-77307162D01*
X191340051Y-96195362D02*
X191340051Y-97195362D01*
X191340051Y-97195362D02*
X190330051Y-97195362D01*
X155011462Y-124747907D02*
X155471629Y-122138166D01*
X154660470Y-120979710D02*
X152099969Y-120528225D01*
X148522321Y-126853061D02*
X146011061Y-126410258D01*
X145179622Y-125222841D02*
X146011061Y-126410258D01*
X145179622Y-125222841D02*
X145631108Y-122662341D01*
X155471630Y-122138166D02*
G75*
G03*
X154660470Y-120979710I-984807J173649D01*
G01*
D11*
X148645790Y-63108481D02*
X151045790Y-63108481D01*
X151045790Y-63108481D02*
X151045790Y-69108481D01*
X151045790Y-69108481D02*
X148645790Y-69108481D01*
X148645790Y-69108481D02*
X148645790Y-63108481D01*
X151045790Y-69108481D02*
X148645790Y-69108481D01*
X148645790Y-68550081D01*
X151045790Y-68550081D01*
X151045790Y-69108481D01*
G36*
X151045790Y-69108481D02*
G01*
X148645790Y-69108481D01*
X148645790Y-68550081D01*
X151045790Y-68550081D01*
X151045790Y-69108481D01*
G37*
X148845990Y-97108681D02*
X151245990Y-97108681D01*
X151245990Y-97108681D02*
X151245990Y-103108681D01*
X151245990Y-103108681D02*
X148845990Y-103108681D01*
X148845990Y-103108681D02*
X148845990Y-97108681D01*
X151245990Y-103108681D02*
X148845990Y-103108681D01*
X148845990Y-102550281D01*
X151245990Y-102550281D01*
X151245990Y-103108681D01*
G36*
X151245990Y-103108681D02*
G01*
X148845990Y-103108681D01*
X148845990Y-102550281D01*
X151245990Y-102550281D01*
X151245990Y-103108681D01*
G37*
X166945590Y-100648281D02*
X169345590Y-100648281D01*
X169345590Y-100648281D02*
X169345590Y-106648281D01*
X169345590Y-106648281D02*
X166945590Y-106648281D01*
X166945590Y-106648281D02*
X166945590Y-100648281D01*
X169345590Y-106648281D02*
X166945590Y-106648281D01*
X166945590Y-106089881D01*
X169345590Y-106089881D01*
X169345590Y-106648281D01*
G36*
X169345590Y-106648281D02*
G01*
X166945590Y-106648281D01*
X166945590Y-106089881D01*
X169345590Y-106089881D01*
X169345590Y-106648281D01*
G37*
X93746390Y-65608681D02*
X96146390Y-65608681D01*
X96146390Y-65608681D02*
X96146390Y-71608681D01*
X96146390Y-71608681D02*
X93746390Y-71608681D01*
X93746390Y-71608681D02*
X93746390Y-65608681D01*
X96146390Y-71608681D02*
X93746390Y-71608681D01*
X93746390Y-71050281D01*
X96146390Y-71050281D01*
X96146390Y-71608681D01*
G36*
X96146390Y-71608681D02*
G01*
X93746390Y-71608681D01*
X93746390Y-71050281D01*
X96146390Y-71050281D01*
X96146390Y-71608681D01*
G37*
D10*
X155345790Y-59723281D02*
X155345790Y-62373281D01*
X156345790Y-63373281D02*
X158945790Y-63373281D01*
X161370790Y-56523281D02*
X163920790Y-56523281D01*
X164945790Y-57548281D02*
X163920790Y-56523281D01*
X164945790Y-57548281D02*
X164945790Y-60148281D01*
X155345790Y-62373281D02*
G75*
G03*
X156345790Y-63373281I999999J-1D01*
G01*
X155345790Y-76723281D02*
X155345790Y-79373281D01*
X156345790Y-80373281D02*
X158945790Y-80373281D01*
X161370790Y-73523281D02*
X163920790Y-73523281D01*
X164945790Y-74548281D02*
X163920790Y-73523281D01*
X164945790Y-74548281D02*
X164945790Y-77148281D01*
X155345790Y-79373281D02*
G75*
G03*
X156345790Y-80373281I999999J-1D01*
G01*
%LPC*%
D13*
X177258451Y-79575362D02*
X176242451Y-79575362D01*
X176242451Y-78559362D01*
X177258451Y-78559362D01*
X177258451Y-79575362D01*
G36*
X177258451Y-79575362D02*
G01*
X176242451Y-79575362D01*
X176242451Y-78559362D01*
X177258451Y-78559362D01*
X177258451Y-79575362D01*
G37*
X177258451Y-82115362D02*
X176242451Y-82115362D01*
X176242451Y-81099362D01*
X177258451Y-81099362D01*
X177258451Y-82115362D01*
G36*
X177258451Y-82115362D02*
G01*
X176242451Y-82115362D01*
X176242451Y-81099362D01*
X177258451Y-81099362D01*
X177258451Y-82115362D01*
G37*
X177258451Y-84655362D02*
X176242451Y-84655362D01*
X176242451Y-83639362D01*
X177258451Y-83639362D01*
X177258451Y-84655362D01*
G36*
X177258451Y-84655362D02*
G01*
X176242451Y-84655362D01*
X176242451Y-83639362D01*
X177258451Y-83639362D01*
X177258451Y-84655362D01*
G37*
X177258451Y-87195362D02*
X176242451Y-87195362D01*
X176242451Y-86179362D01*
X177258451Y-86179362D01*
X177258451Y-87195362D01*
G36*
X177258451Y-87195362D02*
G01*
X176242451Y-87195362D01*
X176242451Y-86179362D01*
X177258451Y-86179362D01*
X177258451Y-87195362D01*
G37*
X177258451Y-89735362D02*
X176242451Y-89735362D01*
X176242451Y-88719362D01*
X177258451Y-88719362D01*
X177258451Y-89735362D01*
G36*
X177258451Y-89735362D02*
G01*
X176242451Y-89735362D01*
X176242451Y-88719362D01*
X177258451Y-88719362D01*
X177258451Y-89735362D01*
G37*
X177258451Y-92275362D02*
X176242451Y-92275362D01*
X176242451Y-91259362D01*
X177258451Y-91259362D01*
X177258451Y-92275362D01*
G36*
X177258451Y-92275362D02*
G01*
X176242451Y-92275362D01*
X176242451Y-91259362D01*
X177258451Y-91259362D01*
X177258451Y-92275362D01*
G37*
X177258451Y-94815362D02*
X176242451Y-94815362D01*
X176242451Y-93799362D01*
X177258451Y-93799362D01*
X177258451Y-94815362D01*
G36*
X177258451Y-94815362D02*
G01*
X176242451Y-94815362D01*
X176242451Y-93799362D01*
X177258451Y-93799362D01*
X177258451Y-94815362D01*
G37*
X188637651Y-79575362D02*
X187621651Y-79575362D01*
X187621651Y-78559362D01*
X188637651Y-78559362D01*
X188637651Y-79575362D01*
G36*
X188637651Y-79575362D02*
G01*
X187621651Y-79575362D01*
X187621651Y-78559362D01*
X188637651Y-78559362D01*
X188637651Y-79575362D01*
G37*
X188637651Y-82115362D02*
X187621651Y-82115362D01*
X187621651Y-81099362D01*
X188637651Y-81099362D01*
X188637651Y-82115362D01*
G36*
X188637651Y-82115362D02*
G01*
X187621651Y-82115362D01*
X187621651Y-81099362D01*
X188637651Y-81099362D01*
X188637651Y-82115362D01*
G37*
X188637651Y-84655362D02*
X187621651Y-84655362D01*
X187621651Y-83639362D01*
X188637651Y-83639362D01*
X188637651Y-84655362D01*
G36*
X188637651Y-84655362D02*
G01*
X187621651Y-84655362D01*
X187621651Y-83639362D01*
X188637651Y-83639362D01*
X188637651Y-84655362D01*
G37*
X188637651Y-87195362D02*
X187621651Y-87195362D01*
X187621651Y-86179362D01*
X188637651Y-86179362D01*
X188637651Y-87195362D01*
G36*
X188637651Y-87195362D02*
G01*
X187621651Y-87195362D01*
X187621651Y-86179362D01*
X188637651Y-86179362D01*
X188637651Y-87195362D01*
G37*
X188637651Y-89735362D02*
X187621651Y-89735362D01*
X187621651Y-88719362D01*
X188637651Y-88719362D01*
X188637651Y-89735362D01*
G36*
X188637651Y-89735362D02*
G01*
X187621651Y-89735362D01*
X187621651Y-88719362D01*
X188637651Y-88719362D01*
X188637651Y-89735362D01*
G37*
X188637651Y-92275362D02*
X187621651Y-92275362D01*
X187621651Y-91259362D01*
X188637651Y-91259362D01*
X188637651Y-92275362D01*
G36*
X188637651Y-92275362D02*
G01*
X187621651Y-92275362D01*
X187621651Y-91259362D01*
X188637651Y-91259362D01*
X188637651Y-92275362D01*
G37*
X188637651Y-94815362D02*
X187621651Y-94815362D01*
X187621651Y-93799362D01*
X188637651Y-93799362D01*
X188637651Y-94815362D01*
G36*
X188637651Y-94815362D02*
G01*
X187621651Y-94815362D01*
X187621651Y-93799362D01*
X188637651Y-93799362D01*
X188637651Y-94815362D01*
G37*
D14*
X168145590Y-88148281D03*
X168145590Y-84748281D03*
D15*
X102246390Y-94408681D03*
D16*
X102746390Y-90708681D03*
X107746390Y-88508681D03*
D17*
X107746390Y-94408681D03*
D16*
X112746390Y-90708681D03*
D15*
X113246390Y-94408681D03*
D18*
X99846390Y-90708681D03*
X110546390Y-88508681D03*
D14*
X131746190Y-82308681D03*
X131746190Y-78908681D03*
D19*
X100431600Y-105460800D03*
D14*
X95146590Y-89008681D03*
X95146590Y-85608681D03*
D15*
X120546190Y-75908681D03*
D16*
X121046190Y-72208681D03*
X126046190Y-70008681D03*
D17*
X126046190Y-75908681D03*
D16*
X131046190Y-72208681D03*
D15*
X131546190Y-75908681D03*
D18*
X118146190Y-72208681D03*
X128846190Y-70008681D03*
D15*
X102246390Y-77408681D03*
D16*
X102746390Y-73708681D03*
X107746390Y-71508681D03*
D17*
X107746390Y-77408681D03*
D16*
X112746390Y-73708681D03*
D15*
X113246390Y-77408681D03*
D18*
X99846390Y-73708681D03*
X110546390Y-71508681D03*
D20*
X248650190Y-82818281D03*
D15*
X120546190Y-92908681D03*
D16*
X121046190Y-89208681D03*
X126046190Y-87008681D03*
D17*
X126046190Y-92908681D03*
D16*
X131046190Y-89208681D03*
D15*
X131546190Y-92908681D03*
D18*
X118146190Y-89208681D03*
X128846190Y-87008681D03*
D14*
X113446390Y-100808681D03*
X113446390Y-97408681D03*
D20*
X248650190Y-88768281D03*
D14*
X113246190Y-83808681D03*
X113246190Y-80408681D03*
D21*
X179054056Y-130545783D03*
X181130777Y-131301648D03*
D22*
X180832458Y-128905087D03*
X181858519Y-126086009D03*
D21*
X181550803Y-123686027D03*
X183627524Y-124441892D03*
D23*
X178922084Y-129007901D03*
X179948145Y-126188823D03*
X180461175Y-124779284D03*
D15*
X102246390Y-60408681D03*
D16*
X102746390Y-56708681D03*
X107746390Y-54508681D03*
D17*
X107746390Y-60408681D03*
D16*
X112746390Y-56708681D03*
D15*
X113246390Y-60408681D03*
D18*
X99846390Y-56708681D03*
X110546390Y-54508681D03*
D14*
X149845790Y-84608681D03*
X149845790Y-81208681D03*
D15*
X83946590Y-99608681D03*
D16*
X84446590Y-95908681D03*
X89446590Y-93708681D03*
D17*
X89446590Y-99608681D03*
D16*
X94446590Y-95908681D03*
D15*
X94946590Y-99608681D03*
D18*
X81546590Y-95908681D03*
X92246590Y-93708681D03*
D15*
X138845990Y-61208481D03*
D16*
X139345990Y-57508481D03*
X144345990Y-55308481D03*
D17*
X144345990Y-61208481D03*
D16*
X149345990Y-57508481D03*
D15*
X149845990Y-61208481D03*
D18*
X136445990Y-57508481D03*
X147145990Y-55308481D03*
D14*
X168145590Y-71148281D03*
X168145590Y-67748281D03*
D19*
X160782000Y-113792000D03*
D15*
X174033107Y-125786287D03*
D16*
X172297787Y-129092139D03*
X166846879Y-129449362D03*
D17*
X168864798Y-123905176D03*
D16*
X162900860Y-125671938D03*
D15*
X163696489Y-122024065D03*
D24*
X175022895Y-130083998D03*
X164215740Y-128491706D03*
D25*
X168135400Y-111408000D03*
X168135400Y-114808000D03*
D15*
X120546190Y-58908681D03*
D16*
X121046190Y-55208681D03*
X126046190Y-53008681D03*
D17*
X126046190Y-58908681D03*
D16*
X131046190Y-55208681D03*
D15*
X131546190Y-58908681D03*
D18*
X118146190Y-55208681D03*
X128846190Y-53008681D03*
D25*
X171653200Y-111408000D03*
X171653200Y-114808000D03*
D26*
X103987600Y-108191400D03*
X103987600Y-107597650D03*
X103987600Y-107003900D03*
X103987600Y-106410150D03*
X103987600Y-105816400D03*
D14*
X94946390Y-106008681D03*
X94946390Y-102608681D03*
D20*
X248650190Y-94718281D03*
D27*
X141176747Y-107312419D03*
X141176747Y-108562419D03*
D28*
X136301747Y-104462419D03*
X136301747Y-111412419D03*
D15*
X138845990Y-95208681D03*
D16*
X139345990Y-91508681D03*
X144345990Y-89308681D03*
D17*
X144345990Y-95208681D03*
D16*
X149345990Y-91508681D03*
D15*
X149845990Y-95208681D03*
D18*
X136445990Y-91508681D03*
X147145990Y-89308681D03*
D15*
X138845990Y-78208681D03*
D16*
X139345990Y-74508681D03*
X144345990Y-72308681D03*
D17*
X144345990Y-78208681D03*
D16*
X149345990Y-74508681D03*
D15*
X149845990Y-78208681D03*
D18*
X136445990Y-74508681D03*
X147145990Y-72308681D03*
D19*
X96824800Y-52730400D03*
D14*
X113246190Y-66808681D03*
X113246190Y-63408681D03*
D15*
X83946590Y-82608681D03*
D16*
X84446590Y-78908681D03*
X89446590Y-76708681D03*
D17*
X89446590Y-82608681D03*
D16*
X94446590Y-78908681D03*
D15*
X94946590Y-82608681D03*
D18*
X81546590Y-78908681D03*
X92246590Y-76708681D03*
D14*
X131545990Y-99308681D03*
X131545990Y-95908681D03*
D15*
X83946590Y-63708681D03*
D16*
X84446590Y-60008681D03*
X89446590Y-57808681D03*
D17*
X89446590Y-63708681D03*
D16*
X94446590Y-60008681D03*
D15*
X94946590Y-63708681D03*
D18*
X81546590Y-60008681D03*
X92246590Y-57808681D03*
D14*
X131545990Y-65308681D03*
X131545990Y-61908681D03*
D15*
X157145790Y-98748281D03*
D16*
X157645790Y-95048281D03*
X162645790Y-92848281D03*
D17*
X162645790Y-98748281D03*
D16*
X167645790Y-95048281D03*
D15*
X168145790Y-98748281D03*
D18*
X154745790Y-95048281D03*
X165445790Y-92848281D03*
D19*
X155194000Y-53848000D03*
D29*
X174881251Y-79067362D03*
X174881251Y-81607362D03*
X174881251Y-84147362D03*
X174881251Y-86687362D03*
X174881251Y-89227362D03*
X174881251Y-91767362D03*
X174881251Y-94307362D03*
D30*
X176496451Y-79067362D03*
X176496451Y-81607362D03*
X176496451Y-84147362D03*
X176496451Y-86687362D03*
X176496451Y-89227362D03*
X176496451Y-91767362D03*
X176496451Y-94307362D03*
D31*
X188383651Y-79067362D03*
X188383651Y-81607362D03*
X188383651Y-84147362D03*
X188383651Y-86687362D03*
X188383651Y-89227362D03*
X188383651Y-91767362D03*
X188383651Y-94307362D03*
D29*
X189983851Y-79067362D03*
X189983851Y-81607362D03*
X189983851Y-84147362D03*
X189983851Y-86687362D03*
X189983851Y-89227362D03*
X189983851Y-91767362D03*
X189983851Y-94307362D03*
D32*
X187367651Y-79067362D03*
X187367651Y-81607362D03*
X187367651Y-84147362D03*
X187367651Y-86687362D03*
X187367651Y-89227362D03*
X187367651Y-91767362D03*
X187367651Y-94307362D03*
D33*
X177512451Y-94307362D03*
X177512451Y-91767362D03*
X177512451Y-89227362D03*
X177512451Y-86687362D03*
X177512451Y-84147362D03*
X177512451Y-81607362D03*
X177512451Y-79067362D03*
D15*
X154111390Y-119486681D03*
D16*
X152976488Y-123043646D03*
X147670423Y-124341982D03*
D17*
X148694947Y-118531616D03*
D16*
X143128410Y-121307164D03*
D15*
X143278504Y-117576551D03*
D34*
X155832430Y-123547225D03*
X144912961Y-123855767D03*
D14*
X149845790Y-67608481D03*
X149845790Y-64208481D03*
X150045990Y-101608681D03*
X150045990Y-98208681D03*
X168145590Y-105148281D03*
X168145590Y-101748281D03*
X94946390Y-70108681D03*
X94946390Y-66708681D03*
D15*
X157145790Y-64748281D03*
D16*
X157645790Y-61048281D03*
X162645790Y-58848281D03*
D17*
X162645790Y-64748281D03*
D16*
X167645790Y-61048281D03*
D15*
X168145790Y-64748281D03*
D18*
X154745790Y-61048281D03*
X165445790Y-58848281D03*
D26*
X115836600Y-104241600D03*
X116430350Y-104241600D03*
X117024100Y-104241600D03*
X117617850Y-104241600D03*
X118211600Y-104241600D03*
D15*
X157145790Y-81748281D03*
D16*
X157645790Y-78048281D03*
X162645790Y-75848281D03*
D17*
X162645790Y-81748281D03*
D16*
X167645790Y-78048281D03*
D15*
X168145790Y-81748281D03*
D18*
X154745790Y-78048281D03*
X165445790Y-75848281D03*
D22*
X181858519Y-126086009D03*
X180832458Y-128905087D03*
%LPD*%
M02*
