G04 #@! TF.GenerationSoftware,KiCad,Pcbnew,7.0.5*
G04 #@! TF.CreationDate,2024-01-08T16:35:04+08:00*
G04 #@! TF.ProjectId,Kretstr_d_v2,4b726574-7374-472e-9464-5f76322e6b69,rev?*
G04 #@! TF.SameCoordinates,Original*
G04 #@! TF.FileFunction,Soldermask,Top*
G04 #@! TF.FilePolarity,Negative*
%FSLAX46Y46*%
G04 Gerber Fmt 4.6, Leading zero omitted, Abs format (unit mm)*
G04 Created by KiCad (PCBNEW 7.0.5) date 2024-01-08 16:35:04*
%MOMM*%
%LPD*%
G01*
G04 APERTURE LIST*
G04 Aperture macros list*
%AMRoundRect*
0 Rectangle with rounded corners*
0 $1 Rounding radius*
0 $2 $3 $4 $5 $6 $7 $8 $9 X,Y pos of 4 corners*
0 Add a 4 corners polygon primitive as box body*
4,1,4,$2,$3,$4,$5,$6,$7,$8,$9,$2,$3,0*
0 Add four circle primitives for the rounded corners*
1,1,$1+$1,$2,$3*
1,1,$1+$1,$4,$5*
1,1,$1+$1,$6,$7*
1,1,$1+$1,$8,$9*
0 Add four rect primitives between the rounded corners*
20,1,$1+$1,$2,$3,$4,$5,0*
20,1,$1+$1,$4,$5,$6,$7,0*
20,1,$1+$1,$6,$7,$8,$9,0*
20,1,$1+$1,$8,$9,$2,$3,0*%
%AMFreePoly0*
4,1,22,0.686777,0.580194,0.756366,0.524698,0.794986,0.444504,0.800000,0.400000,0.800000,0.200000,0.780194,0.113223,0.741421,0.058579,0.141421,-0.541421,0.066056,-0.588777,-0.022393,-0.598742,-0.106406,-0.569345,-0.141421,-0.541421,-0.741421,0.058579,-0.788777,0.133944,-0.800000,0.200000,-0.800000,0.400000,-0.780194,0.486777,-0.724698,0.556366,-0.644504,0.594986,-0.600000,0.600000,
0.600000,0.600000,0.686777,0.580194,0.686777,0.580194,$1*%
%AMFreePoly1*
4,1,26,0.706406,1.169345,0.769345,1.106406,0.798742,1.022393,0.800000,1.000000,0.800000,-0.250000,0.780194,-0.336777,0.724698,-0.406366,0.644504,-0.444986,0.600000,-0.450000,-0.600000,-0.450000,-0.686777,-0.430194,-0.756366,-0.374698,-0.794986,-0.294504,-0.800000,-0.250000,-0.800000,1.000000,-0.780194,1.086777,-0.724698,1.156366,-0.644504,1.194986,-0.555496,1.194986,-0.475302,1.156366,
-0.458579,1.141421,0.000000,0.682842,0.458579,1.141421,0.533944,1.188777,0.622393,1.198742,0.706406,1.169345,0.706406,1.169345,$1*%
G04 Aperture macros list end*
%ADD10C,0.100000*%
%ADD11RoundRect,0.200000X0.700000X-0.600000X0.700000X0.600000X-0.700000X0.600000X-0.700000X-0.600000X0*%
%ADD12C,2.200000*%
%ADD13C,3.400000*%
%ADD14C,3.800000*%
%ADD15RoundRect,0.200000X-0.800000X-1.100000X0.800000X-1.100000X0.800000X1.100000X-0.800000X1.100000X0*%
%ADD16C,3.600000*%
%ADD17C,4.800000*%
%ADD18RoundRect,0.200000X0.204867X-0.606654X0.546887X0.333038X-0.204867X0.606654X-0.546887X-0.333038X0*%
%ADD19C,1.300000*%
%ADD20RoundRect,0.200000X0.585062X-0.585408X0.824477X0.072377X-0.585062X0.585408X-0.824477X-0.072377X0*%
%ADD21RoundRect,0.200000X1.127976X0.760046X-0.375532X1.307278X-1.127976X-0.760046X0.375532X-1.307278X0*%
%ADD22RoundRect,0.200000X-0.700000X0.600000X-0.700000X-0.600000X0.700000X-0.600000X0.700000X0.600000X0*%
%ADD23C,0.700000*%
%ADD24RoundRect,0.400000X-0.750000X0.200000X-0.750000X-0.200000X0.750000X-0.200000X0.750000X0.200000X0*%
%ADD25RoundRect,0.450000X-1.425000X0.400000X-1.425000X-0.400000X1.425000X-0.400000X1.425000X0.400000X0*%
%ADD26C,2.000000*%
%ADD27FreePoly0,90.000000*%
%ADD28FreePoly0,270.000000*%
%ADD29FreePoly1,270.000000*%
%ADD30FreePoly1,90.000000*%
%ADD31RoundRect,0.200000X0.978859X0.944370X-0.596833X1.222207X-0.978859X-0.944370X0.596833X-1.222207X0*%
G04 APERTURE END LIST*
D10*
X177258451Y-79575362D02*
X176242451Y-79575362D01*
X176242451Y-78559362D01*
X177258451Y-78559362D01*
X177258451Y-79575362D01*
G36*
X177258451Y-79575362D02*
G01*
X176242451Y-79575362D01*
X176242451Y-78559362D01*
X177258451Y-78559362D01*
X177258451Y-79575362D01*
G37*
X177258451Y-82115362D02*
X176242451Y-82115362D01*
X176242451Y-81099362D01*
X177258451Y-81099362D01*
X177258451Y-82115362D01*
G36*
X177258451Y-82115362D02*
G01*
X176242451Y-82115362D01*
X176242451Y-81099362D01*
X177258451Y-81099362D01*
X177258451Y-82115362D01*
G37*
X177258451Y-84655362D02*
X176242451Y-84655362D01*
X176242451Y-83639362D01*
X177258451Y-83639362D01*
X177258451Y-84655362D01*
G36*
X177258451Y-84655362D02*
G01*
X176242451Y-84655362D01*
X176242451Y-83639362D01*
X177258451Y-83639362D01*
X177258451Y-84655362D01*
G37*
X177258451Y-87195362D02*
X176242451Y-87195362D01*
X176242451Y-86179362D01*
X177258451Y-86179362D01*
X177258451Y-87195362D01*
G36*
X177258451Y-87195362D02*
G01*
X176242451Y-87195362D01*
X176242451Y-86179362D01*
X177258451Y-86179362D01*
X177258451Y-87195362D01*
G37*
X177258451Y-89735362D02*
X176242451Y-89735362D01*
X176242451Y-88719362D01*
X177258451Y-88719362D01*
X177258451Y-89735362D01*
G36*
X177258451Y-89735362D02*
G01*
X176242451Y-89735362D01*
X176242451Y-88719362D01*
X177258451Y-88719362D01*
X177258451Y-89735362D01*
G37*
X177258451Y-92275362D02*
X176242451Y-92275362D01*
X176242451Y-91259362D01*
X177258451Y-91259362D01*
X177258451Y-92275362D01*
G36*
X177258451Y-92275362D02*
G01*
X176242451Y-92275362D01*
X176242451Y-91259362D01*
X177258451Y-91259362D01*
X177258451Y-92275362D01*
G37*
X177258451Y-94815362D02*
X176242451Y-94815362D01*
X176242451Y-93799362D01*
X177258451Y-93799362D01*
X177258451Y-94815362D01*
G36*
X177258451Y-94815362D02*
G01*
X176242451Y-94815362D01*
X176242451Y-93799362D01*
X177258451Y-93799362D01*
X177258451Y-94815362D01*
G37*
X188637651Y-79575362D02*
X187621651Y-79575362D01*
X187621651Y-78559362D01*
X188637651Y-78559362D01*
X188637651Y-79575362D01*
G36*
X188637651Y-79575362D02*
G01*
X187621651Y-79575362D01*
X187621651Y-78559362D01*
X188637651Y-78559362D01*
X188637651Y-79575362D01*
G37*
X188637651Y-82115362D02*
X187621651Y-82115362D01*
X187621651Y-81099362D01*
X188637651Y-81099362D01*
X188637651Y-82115362D01*
G36*
X188637651Y-82115362D02*
G01*
X187621651Y-82115362D01*
X187621651Y-81099362D01*
X188637651Y-81099362D01*
X188637651Y-82115362D01*
G37*
X188637651Y-84655362D02*
X187621651Y-84655362D01*
X187621651Y-83639362D01*
X188637651Y-83639362D01*
X188637651Y-84655362D01*
G36*
X188637651Y-84655362D02*
G01*
X187621651Y-84655362D01*
X187621651Y-83639362D01*
X188637651Y-83639362D01*
X188637651Y-84655362D01*
G37*
X188637651Y-87195362D02*
X187621651Y-87195362D01*
X187621651Y-86179362D01*
X188637651Y-86179362D01*
X188637651Y-87195362D01*
G36*
X188637651Y-87195362D02*
G01*
X187621651Y-87195362D01*
X187621651Y-86179362D01*
X188637651Y-86179362D01*
X188637651Y-87195362D01*
G37*
X188637651Y-89735362D02*
X187621651Y-89735362D01*
X187621651Y-88719362D01*
X188637651Y-88719362D01*
X188637651Y-89735362D01*
G36*
X188637651Y-89735362D02*
G01*
X187621651Y-89735362D01*
X187621651Y-88719362D01*
X188637651Y-88719362D01*
X188637651Y-89735362D01*
G37*
X188637651Y-92275362D02*
X187621651Y-92275362D01*
X187621651Y-91259362D01*
X188637651Y-91259362D01*
X188637651Y-92275362D01*
G36*
X188637651Y-92275362D02*
G01*
X187621651Y-92275362D01*
X187621651Y-91259362D01*
X188637651Y-91259362D01*
X188637651Y-92275362D01*
G37*
X188637651Y-94815362D02*
X187621651Y-94815362D01*
X187621651Y-93799362D01*
X188637651Y-93799362D01*
X188637651Y-94815362D01*
G36*
X188637651Y-94815362D02*
G01*
X187621651Y-94815362D01*
X187621651Y-93799362D01*
X188637651Y-93799362D01*
X188637651Y-94815362D01*
G37*
D11*
X168145590Y-88148281D03*
X168145590Y-84748281D03*
D12*
X102246390Y-94408681D03*
D13*
X102746390Y-90708681D03*
X107746390Y-88508681D03*
D14*
X107746390Y-94408681D03*
D13*
X112746390Y-90708681D03*
D12*
X113246390Y-94408681D03*
D15*
X99846390Y-90708681D03*
X110546390Y-88508681D03*
D11*
X131746190Y-82308681D03*
X131746190Y-78908681D03*
D16*
X100431600Y-105460800D03*
D11*
X95146590Y-89008681D03*
X95146590Y-85608681D03*
D12*
X120546190Y-75908681D03*
D13*
X121046190Y-72208681D03*
X126046190Y-70008681D03*
D14*
X126046190Y-75908681D03*
D13*
X131046190Y-72208681D03*
D12*
X131546190Y-75908681D03*
D15*
X118146190Y-72208681D03*
X128846190Y-70008681D03*
D12*
X102246390Y-77408681D03*
D13*
X102746390Y-73708681D03*
X107746390Y-71508681D03*
D14*
X107746390Y-77408681D03*
D13*
X112746390Y-73708681D03*
D12*
X113246390Y-77408681D03*
D15*
X99846390Y-73708681D03*
X110546390Y-71508681D03*
D17*
X248650190Y-82818281D03*
D12*
X120546190Y-92908681D03*
D13*
X121046190Y-89208681D03*
X126046190Y-87008681D03*
D14*
X126046190Y-92908681D03*
D13*
X131046190Y-89208681D03*
D12*
X131546190Y-92908681D03*
D15*
X118146190Y-89208681D03*
X128846190Y-87008681D03*
D11*
X113446390Y-100808681D03*
X113446390Y-97408681D03*
D17*
X248650190Y-88768281D03*
D11*
X113246190Y-83808681D03*
X113246190Y-80408681D03*
D18*
X179054056Y-130545783D03*
X181130777Y-131301648D03*
D19*
X180832458Y-128905087D03*
X181858519Y-126086009D03*
D18*
X181550803Y-123686027D03*
X183627524Y-124441892D03*
D20*
X178922084Y-129007901D03*
X179948145Y-126188823D03*
X180461175Y-124779284D03*
D12*
X102246390Y-60408681D03*
D13*
X102746390Y-56708681D03*
X107746390Y-54508681D03*
D14*
X107746390Y-60408681D03*
D13*
X112746390Y-56708681D03*
D12*
X113246390Y-60408681D03*
D15*
X99846390Y-56708681D03*
X110546390Y-54508681D03*
D11*
X149845790Y-84608681D03*
X149845790Y-81208681D03*
D12*
X83946590Y-99608681D03*
D13*
X84446590Y-95908681D03*
X89446590Y-93708681D03*
D14*
X89446590Y-99608681D03*
D13*
X94446590Y-95908681D03*
D12*
X94946590Y-99608681D03*
D15*
X81546590Y-95908681D03*
X92246590Y-93708681D03*
D12*
X138845990Y-61208481D03*
D13*
X139345990Y-57508481D03*
X144345990Y-55308481D03*
D14*
X144345990Y-61208481D03*
D13*
X149345990Y-57508481D03*
D12*
X149845990Y-61208481D03*
D15*
X136445990Y-57508481D03*
X147145990Y-55308481D03*
D11*
X168145590Y-71148281D03*
X168145590Y-67748281D03*
D16*
X160782000Y-113792000D03*
D12*
X174033107Y-125786287D03*
D13*
X172297787Y-129092139D03*
X166846879Y-129449362D03*
D14*
X168864798Y-123905176D03*
D13*
X162900860Y-125671938D03*
D12*
X163696489Y-122024065D03*
D21*
X175022895Y-130083998D03*
X164215740Y-128491706D03*
D22*
X168135400Y-111408000D03*
X168135400Y-114808000D03*
D12*
X120546190Y-58908681D03*
D13*
X121046190Y-55208681D03*
X126046190Y-53008681D03*
D14*
X126046190Y-58908681D03*
D13*
X131046190Y-55208681D03*
D12*
X131546190Y-58908681D03*
D15*
X118146190Y-55208681D03*
X128846190Y-53008681D03*
D22*
X171653200Y-111408000D03*
X171653200Y-114808000D03*
D23*
X103987600Y-108191400D03*
X103987600Y-107597650D03*
X103987600Y-107003900D03*
X103987600Y-106410150D03*
X103987600Y-105816400D03*
D11*
X94946390Y-106008681D03*
X94946390Y-102608681D03*
D17*
X248650190Y-94718281D03*
D24*
X141176747Y-107312419D03*
X141176747Y-108562419D03*
D25*
X136301747Y-104462419D03*
X136301747Y-111412419D03*
D12*
X138845990Y-95208681D03*
D13*
X139345990Y-91508681D03*
X144345990Y-89308681D03*
D14*
X144345990Y-95208681D03*
D13*
X149345990Y-91508681D03*
D12*
X149845990Y-95208681D03*
D15*
X136445990Y-91508681D03*
X147145990Y-89308681D03*
D12*
X138845990Y-78208681D03*
D13*
X139345990Y-74508681D03*
X144345990Y-72308681D03*
D14*
X144345990Y-78208681D03*
D13*
X149345990Y-74508681D03*
D12*
X149845990Y-78208681D03*
D15*
X136445990Y-74508681D03*
X147145990Y-72308681D03*
D16*
X96824800Y-52730400D03*
D11*
X113246190Y-66808681D03*
X113246190Y-63408681D03*
D12*
X83946590Y-82608681D03*
D13*
X84446590Y-78908681D03*
X89446590Y-76708681D03*
D14*
X89446590Y-82608681D03*
D13*
X94446590Y-78908681D03*
D12*
X94946590Y-82608681D03*
D15*
X81546590Y-78908681D03*
X92246590Y-76708681D03*
D11*
X131545990Y-99308681D03*
X131545990Y-95908681D03*
D12*
X83946590Y-63708681D03*
D13*
X84446590Y-60008681D03*
X89446590Y-57808681D03*
D14*
X89446590Y-63708681D03*
D13*
X94446590Y-60008681D03*
D12*
X94946590Y-63708681D03*
D15*
X81546590Y-60008681D03*
X92246590Y-57808681D03*
D11*
X131545990Y-65308681D03*
X131545990Y-61908681D03*
D12*
X157145790Y-98748281D03*
D13*
X157645790Y-95048281D03*
X162645790Y-92848281D03*
D14*
X162645790Y-98748281D03*
D13*
X167645790Y-95048281D03*
D12*
X168145790Y-98748281D03*
D15*
X154745790Y-95048281D03*
X165445790Y-92848281D03*
D16*
X155194000Y-53848000D03*
D26*
X174881251Y-79067362D03*
X174881251Y-81607362D03*
X174881251Y-84147362D03*
X174881251Y-86687362D03*
X174881251Y-89227362D03*
X174881251Y-91767362D03*
X174881251Y-94307362D03*
D27*
X176496451Y-79067362D03*
X176496451Y-81607362D03*
X176496451Y-84147362D03*
X176496451Y-86687362D03*
X176496451Y-89227362D03*
X176496451Y-91767362D03*
X176496451Y-94307362D03*
D28*
X188383651Y-79067362D03*
X188383651Y-81607362D03*
X188383651Y-84147362D03*
X188383651Y-86687362D03*
X188383651Y-89227362D03*
X188383651Y-91767362D03*
X188383651Y-94307362D03*
D26*
X189983851Y-79067362D03*
X189983851Y-81607362D03*
X189983851Y-84147362D03*
X189983851Y-86687362D03*
X189983851Y-89227362D03*
X189983851Y-91767362D03*
X189983851Y-94307362D03*
D29*
X187367651Y-79067362D03*
X187367651Y-81607362D03*
X187367651Y-84147362D03*
X187367651Y-86687362D03*
X187367651Y-89227362D03*
X187367651Y-91767362D03*
X187367651Y-94307362D03*
D30*
X177512451Y-94307362D03*
X177512451Y-91767362D03*
X177512451Y-89227362D03*
X177512451Y-86687362D03*
X177512451Y-84147362D03*
X177512451Y-81607362D03*
X177512451Y-79067362D03*
D12*
X154111390Y-119486681D03*
D13*
X152976488Y-123043646D03*
X147670423Y-124341982D03*
D14*
X148694947Y-118531616D03*
D13*
X143128410Y-121307164D03*
D12*
X143278504Y-117576551D03*
D31*
X155832430Y-123547225D03*
X144912961Y-123855767D03*
D11*
X149845790Y-67608481D03*
X149845790Y-64208481D03*
X150045990Y-101608681D03*
X150045990Y-98208681D03*
X168145590Y-105148281D03*
X168145590Y-101748281D03*
X94946390Y-70108681D03*
X94946390Y-66708681D03*
D12*
X157145790Y-64748281D03*
D13*
X157645790Y-61048281D03*
X162645790Y-58848281D03*
D14*
X162645790Y-64748281D03*
D13*
X167645790Y-61048281D03*
D12*
X168145790Y-64748281D03*
D15*
X154745790Y-61048281D03*
X165445790Y-58848281D03*
D23*
X115836600Y-104241600D03*
X116430350Y-104241600D03*
X117024100Y-104241600D03*
X117617850Y-104241600D03*
X118211600Y-104241600D03*
D12*
X157145790Y-81748281D03*
D13*
X157645790Y-78048281D03*
X162645790Y-75848281D03*
D14*
X162645790Y-81748281D03*
D13*
X167645790Y-78048281D03*
D12*
X168145790Y-81748281D03*
D15*
X154745790Y-78048281D03*
X165445790Y-75848281D03*
D19*
X181858519Y-126086009D03*
X180832458Y-128905087D03*
M02*
