M48
; DRILL file {KiCad 7.0.5} date Mon Jan  8 16:35:02 2024
; FORMAT={-:-/ absolute / inch / decimal}
; #@! TF.CreationDate,2024-01-08T16:35:02+08:00
; #@! TF.GenerationSoftware,Kicad,Pcbnew,7.0.5
; #@! TF.FileFunction,NonPlated,1,2,NPTH
FMAT,2
INCH
; #@! TA.AperFunction,NonPlated,NPTH,ComponentDrill
T1C0.0118
; #@! TA.AperFunction,NonPlated,NPTH,ComponentDrill
T2C0.0354
; #@! TA.AperFunction,NonPlated,NPTH,ComponentDrill
T3C0.0709
; #@! TA.AperFunction,NonPlated,NPTH,ComponentDrill
T4C0.1181
; #@! TA.AperFunction,NonPlated,NPTH,ComponentDrill
T5C0.1260
; #@! TA.AperFunction,NonPlated,NPTH,ComponentDrill
T6C0.1339
%
G90
G05
T1
X4.094Y-4.166
X4.094Y-4.1894
X4.094Y-4.2128
X4.094Y-4.2361
X4.094Y-4.2595
X4.5605Y-4.104
X4.5839Y-4.104
X4.6072Y-4.104
X4.6306Y-4.104
X4.654Y-4.104
T2
X7.1194Y-5.075
X7.1194Y-5.075
X7.1598Y-4.964
X7.1598Y-4.964
T3
X3.305Y-2.5082
X3.305Y-3.2523
X3.305Y-3.9216
X3.7381Y-2.5082
X3.7381Y-3.2523
X3.7381Y-3.9216
X4.0254Y-2.3783
X4.0254Y-3.0476
X4.0254Y-3.7169
X4.4585Y-2.3783
X4.4585Y-3.0476
X4.4585Y-3.7169
X4.7459Y-2.3192
X4.7459Y-2.9885
X4.7459Y-3.6578
X5.179Y-2.3192
X5.179Y-2.9885
X5.179Y-3.6578
X5.4664Y-2.4098
X5.4664Y-3.0791
X5.4664Y-3.7484
X5.6409Y-4.629
X5.8994Y-2.4098
X5.8994Y-3.0791
X5.8994Y-3.7484
X6.0674Y-4.7042
X6.1868Y-2.5491
X6.1868Y-3.2184
X6.1868Y-3.8877
X6.4447Y-4.8041
X6.6199Y-2.5491
X6.6199Y-3.2184
X6.6199Y-3.8877
X6.8517Y-4.9522
T4
X3.3247Y-2.3625
X3.3247Y-3.1066
X3.3247Y-3.7759
X3.5215Y-2.2759
X3.5215Y-3.02
X3.5215Y-3.6893
X3.7184Y-2.3625
X3.7184Y-3.1066
X3.7184Y-3.7759
X4.0451Y-2.2326
X4.0451Y-2.9019
X4.0451Y-3.5712
X4.242Y-2.146
X4.242Y-2.8153
X4.242Y-3.4846
X4.4388Y-2.2326
X4.4388Y-2.9019
X4.4388Y-3.5712
X4.7656Y-2.1736
X4.7656Y-2.8429
X4.7656Y-3.5122
X4.9624Y-2.087
X4.9624Y-2.7562
X4.9624Y-3.4255
X5.1593Y-2.1736
X5.1593Y-2.8429
X5.1593Y-3.5122
X5.4861Y-2.2641
X5.4861Y-2.9334
X5.4861Y-3.6027
X5.635Y-4.7759
X5.6829Y-2.1775
X5.6829Y-2.8468
X5.6829Y-3.5161
X5.8138Y-4.8954
X5.8798Y-2.2641
X5.8798Y-2.9334
X5.8798Y-3.6027
X6.0227Y-4.8442
X6.2065Y-2.4035
X6.2065Y-3.0728
X6.2065Y-3.7421
X6.4034Y-2.3169
X6.4034Y-2.9862
X6.4034Y-3.6554
X6.4134Y-4.9477
X6.5688Y-5.0964
X6.6002Y-2.4035
X6.6002Y-3.0728
X6.6002Y-3.7421
X6.7834Y-5.0824
T5
X3.812Y-2.076
X3.954Y-4.152
X6.11Y-2.12
X6.33Y-4.48
T6
X3.5215Y-2.5082
X3.5215Y-3.2523
X3.5215Y-3.9216
X4.242Y-2.3783
X4.242Y-3.0476
X4.242Y-3.7169
X4.9624Y-2.3192
X4.9624Y-2.9885
X4.9624Y-3.6578
X5.6829Y-2.4098
X5.6829Y-3.0791
X5.6829Y-3.7484
X5.8541Y-4.6666
X6.4034Y-2.5491
X6.4034Y-3.2184
X6.4034Y-3.8877
X6.6482Y-4.8782
T0
M30
