M48
; DRILL file {KiCad 7.0.5} date Mon Jan  8 16:35:02 2024
; FORMAT={-:-/ absolute / inch / decimal}
; #@! TF.CreationDate,2024-01-08T16:35:02+08:00
; #@! TF.GenerationSoftware,Kicad,Pcbnew,7.0.5
; #@! TF.FileFunction,Plated,1,2,PTH
FMAT,2
INCH
; #@! TA.AperFunction,Plated,PTH,ViaDrill
T1C0.0118
; #@! TA.AperFunction,Plated,PTH,ViaDrill
T2C0.0157
; #@! TA.AperFunction,Plated,PTH,ComponentDrill
T3C0.0157
; #@! TA.AperFunction,Plated,PTH,ComponentDrill
T4C0.0433
; #@! TA.AperFunction,Plated,PTH,ComponentDrill
T5C0.0866
%
G90
G05
T1
X3.4113Y-2.2759
X3.4113Y-3.02
X3.4113Y-3.6893
X3.8286Y-2.3625
X3.8286Y-3.1066
X3.8286Y-3.7759
X4.1317Y-2.146
X4.1317Y-2.8153
X4.1317Y-3.2446
X4.1317Y-3.4846
X4.5491Y-2.2326
X4.5491Y-2.9019
X4.5491Y-3.5712
X4.8522Y-2.087
X4.8522Y-2.7562
X4.8522Y-3.4255
X5.2695Y-2.1736
X5.2695Y-2.8429
X5.2695Y-3.5122
X5.5264Y-4.7567
X5.5727Y-2.1775
X5.5727Y-2.8468
X5.5727Y-3.5161
X5.9224Y-4.9145
X5.99Y-2.2641
X5.99Y-2.9334
X5.99Y-3.6027
X6.2931Y-2.3169
X6.2931Y-2.9862
X6.2931Y-3.6554
X6.3098Y-4.91
X6.6724Y-5.1341
X6.7105Y-2.4035
X6.7105Y-3.0728
X6.7105Y-3.7421
X6.7939Y-3.7311
X7.034Y-3.4129
X7.034Y-3.5129
X7.036Y-3.6129
X7.036Y-3.7129
X7.326Y-3.0775
X7.326Y-3.1776
X7.326Y-3.2775
X7.33Y-3.4863
X7.33Y-3.5863
X7.33Y-3.6863
X7.332Y-3.3863
T2
X5.64Y-4.2741
X6.4148Y-4.6788
X6.4732Y-4.7372
X6.798Y-3.116
X6.992Y-5.016
X7.034Y-3.1129
X7.034Y-3.2129
X7.034Y-3.3129
X7.154Y-5.026
T3
X3.738Y-2.6263
X3.738Y-2.7602
X3.738Y-4.0397
X3.738Y-4.1736
X3.7459Y-3.3704
X3.7459Y-3.5043
X4.4585Y-2.4964
X4.4585Y-2.6303
X4.4585Y-3.1657
X4.4585Y-3.2996
X4.4664Y-3.835
X4.4664Y-3.9688
X5.179Y-2.4373
X5.179Y-2.5712
X5.179Y-3.7759
X5.179Y-3.9098
X5.1869Y-3.1066
X5.1869Y-3.2405
X5.8994Y-2.5279
X5.8994Y-2.6618
X5.8994Y-3.1972
X5.8994Y-3.3311
X5.9073Y-3.8665
X5.9073Y-4.0003
X6.6195Y-4.3861
X6.6195Y-4.52
X6.6199Y-2.6673
X6.6199Y-2.8011
X6.6199Y-3.3365
X6.6199Y-3.4704
X6.6199Y-4.0058
X6.6199Y-4.1397
X6.758Y-4.3861
X6.758Y-4.52
T4
X6.8851Y-3.1129
X6.8851Y-3.2129
X6.8851Y-3.3129
X6.8851Y-3.4129
X6.8851Y-3.5129
X6.8851Y-3.6129
X6.8851Y-3.7129
X7.4797Y-3.1129
X7.4797Y-3.2129
X7.4797Y-3.3129
X7.4797Y-3.4129
X7.4797Y-3.5129
X7.4797Y-3.6129
X7.4797Y-3.7129
T5
X9.7894Y-3.2606
X9.7894Y-3.4948
X9.7894Y-3.7291
T0
M30
