M48
; DRILL file {KiCad 8.0.0} date 2024-03-03T16:28:32+0800
; FORMAT={-:-/ absolute / metric / decimal}
; #@! TF.CreationDate,2024-03-03T16:28:32+08:00
; #@! TF.GenerationSoftware,Kicad,Pcbnew,8.0.0
; #@! TF.FileFunction,Plated,1,2,PTH
FMAT,2
METRIC
; #@! TA.AperFunction,Plated,PTH,ViaDrill
T1C0.300
; #@! TA.AperFunction,Plated,PTH,ViaDrill
T2C0.400
; #@! TA.AperFunction,Plated,PTH,ComponentDrill
T3C0.400
; #@! TA.AperFunction,Plated,PTH,ComponentDrill
T4C1.550
; #@! TA.AperFunction,Plated,PTH,ComponentDrill
T5C2.200
%
G90
G05
T1
X81.647Y-67.909
X85.628Y-110.139
X86.39Y-109.377
X86.647Y-74.809
X86.647Y-91.809
X87.071Y-116.84
X87.542Y-123.605
X89.79Y-116.966
X90.06Y-123.273
X92.05Y-116.23
X92.247Y-70.109
X92.579Y-122.936
X94.869Y-115.697
X95.25Y-122.682
X95.756Y-115.549
X97.247Y-77.009
X97.247Y-94.009
X97.409Y-115.316
X97.79Y-122.301
X98.336Y-115.289
X99.877Y-115.657
X100.281Y-122.096
X100.999Y-115.784
X102.786Y-121.75
X103.175Y-114.515
X103.2Y-100.584
X103.2Y-101.981
X103.632Y-113.538
X104.009Y-115.59
X104.039Y-116.514
X104.643Y-100.134
X104.946Y-55.309
X104.946Y-72.309
X104.946Y-89.309
X105.788Y-100.134
X106.934Y-100.134
X115.546Y-57.509
X115.546Y-74.509
X115.546Y-91.509
X116.221Y-93.726
X123.246Y-52.509
X123.246Y-69.509
X123.246Y-86.509
X133.299Y-96.368
X133.846Y-54.709
X133.846Y-71.709
X133.846Y-88.709
X139.578Y-122.716
X141.546Y-55.308
X141.546Y-72.309
X141.546Y-89.309
X144.248Y-125.549
X149.8Y-126.28
X151.638Y-100.584
X151.669Y-98.278
X152.146Y-57.508
X152.146Y-74.509
X152.146Y-91.509
X154.746Y-95.048
X154.846Y-68.448
X159.846Y-75.848
X159.846Y-92.848
X165.446Y-70.648
X166.019Y-117.482
X170.446Y-78.048
X170.446Y-95.048
X170.546Y-68.448
X171.429Y-118.931
X175.689Y-122.35
T2
X87.376Y-95.377
X88.441Y-118.983
X88.591Y-116.434
X89.51Y-78.13
X90.932Y-122.047
X90.96Y-116.549
X93.218Y-115.951
X95.25Y-72.695
X109.601Y-92.075
X128.524Y-72.644
X142.494Y-92.964
X147.871Y-107.325
X152.824Y-107.95
X164.719Y-78.867
X173.531Y-110.692
X174.233Y-114.438
X175.183Y-113.613
X176.122Y-117.091
T3
X94.946Y-58.159
X94.946Y-61.559
X94.946Y-83.859
X94.946Y-87.259
X94.946Y-100.859
X94.946Y-104.259
X113.246Y-63.859
X113.246Y-67.259
X113.246Y-80.859
X113.246Y-84.259
X113.246Y-97.859
X113.246Y-101.259
X131.546Y-61.059
X131.546Y-64.459
X131.546Y-78.059
X131.546Y-81.459
X131.546Y-95.059
X131.546Y-98.459
X149.846Y-63.858
X149.846Y-67.258
X149.846Y-80.859
X149.846Y-84.259
X149.846Y-97.859
X149.846Y-101.259
X153.289Y-114.681
X153.289Y-118.081
X156.845Y-117.602
X156.845Y-121.002
X157.146Y-58.698
X157.146Y-62.098
X168.146Y-84.398
X168.146Y-87.798
X168.146Y-101.398
X168.146Y-104.798
T4
X86.879Y-112.636
X88.85Y-127.609
X89.397Y-112.304
X91.368Y-127.277
X91.915Y-111.972
X93.887Y-126.946
X94.434Y-111.641
X96.405Y-126.614
X96.952Y-111.309
X98.923Y-126.283
X99.47Y-110.978
X101.442Y-125.951
X101.989Y-110.646
X103.96Y-125.62
T5
X111.364Y-122.816
X133.604Y-119.888
M30
