G04 #@! TF.GenerationSoftware,KiCad,Pcbnew,7.0.5*
G04 #@! TF.CreationDate,2024-01-08T16:35:04+08:00*
G04 #@! TF.ProjectId,Kretstr_d_v2,4b726574-7374-472e-9464-5f76322e6b69,rev?*
G04 #@! TF.SameCoordinates,Original*
G04 #@! TF.FileFunction,Legend,Bot*
G04 #@! TF.FilePolarity,Positive*
%FSLAX46Y46*%
G04 Gerber Fmt 4.6, Leading zero omitted, Abs format (unit mm)*
G04 Created by KiCad (PCBNEW 7.0.5) date 2024-01-08 16:35:04*
%MOMM*%
%LPD*%
G01*
G04 APERTURE LIST*
G04 Aperture macros list*
%AMRoundRect*
0 Rectangle with rounded corners*
0 $1 Rounding radius*
0 $2 $3 $4 $5 $6 $7 $8 $9 X,Y pos of 4 corners*
0 Add a 4 corners polygon primitive as box body*
4,1,4,$2,$3,$4,$5,$6,$7,$8,$9,$2,$3,0*
0 Add four circle primitives for the rounded corners*
1,1,$1+$1,$2,$3*
1,1,$1+$1,$4,$5*
1,1,$1+$1,$6,$7*
1,1,$1+$1,$8,$9*
0 Add four rect primitives between the rounded corners*
20,1,$1+$1,$2,$3,$4,$5,0*
20,1,$1+$1,$4,$5,$6,$7,0*
20,1,$1+$1,$6,$7,$8,$9,0*
20,1,$1+$1,$8,$9,$2,$3,0*%
%AMFreePoly0*
4,1,22,0.686777,0.580194,0.756366,0.524698,0.794986,0.444504,0.800000,0.400000,0.800000,0.200000,0.780194,0.113223,0.741421,0.058579,0.141421,-0.541421,0.066056,-0.588777,-0.022393,-0.598742,-0.106406,-0.569345,-0.141421,-0.541421,-0.741421,0.058579,-0.788777,0.133944,-0.800000,0.200000,-0.800000,0.400000,-0.780194,0.486777,-0.724698,0.556366,-0.644504,0.594986,-0.600000,0.600000,
0.600000,0.600000,0.686777,0.580194,0.686777,0.580194,$1*%
%AMFreePoly1*
4,1,26,0.706406,1.169345,0.769345,1.106406,0.798742,1.022393,0.800000,1.000000,0.800000,-0.250000,0.780194,-0.336777,0.724698,-0.406366,0.644504,-0.444986,0.600000,-0.450000,-0.600000,-0.450000,-0.686777,-0.430194,-0.756366,-0.374698,-0.794986,-0.294504,-0.800000,-0.250000,-0.800000,1.000000,-0.780194,1.086777,-0.724698,1.156366,-0.644504,1.194986,-0.555496,1.194986,-0.475302,1.156366,
-0.458579,1.141421,0.000000,0.682842,0.458579,1.141421,0.533944,1.188777,0.622393,1.198742,0.706406,1.169345,0.706406,1.169345,$1*%
%AMFreePoly2*
4,1,286,0.206777,1.229994,0.276366,1.174498,0.314986,1.094304,0.320000,1.049800,0.320000,0.008200,0.319495,0.005987,0.319495,-1.866697,0.319486,-1.942347,0.318927,-2.391049,0.317381,-2.767477,0.314669,-3.078132,0.310602,-3.329695,0.305001,-3.528077,0.304924,-3.530090,0.297572,-3.681967,0.297341,-3.685465,0.287855,-3.798915,0.287103,-3.805370,0.274560,-3.889263,0.271778,-3.902067,
0.256680,-3.954695,0.246330,-3.982691,0.237680,-4.001614,0.232134,-4.012065,0.165257,-4.121869,0.160320,-4.129221,0.060214,-4.264919,0.056441,-4.269719,-0.058331,-4.406914,-0.060113,-4.408986,-0.070961,-4.421256,-0.171727,-4.547475,-0.239381,-4.651468,-0.261422,-4.702806,-0.268448,-4.790209,-0.275185,-4.947662,-0.279770,-5.144579,-0.281450,-5.361536,-0.281447,-5.385011,-0.280528,-5.604860,
-0.277007,-5.754079,-0.270393,-5.838887,-0.268290,-5.848462,-0.224488,-5.894056,-0.171049,-5.977321,-0.142171,-6.051967,-0.122143,-6.170287,-0.120852,-6.228231,-0.135594,-6.347346,-0.162124,-6.424914,-0.212996,-6.510565,-0.274338,-6.575059,-0.308050,-6.593056,-0.393200,-6.628524,-0.459529,-6.643620,-0.582275,-6.650118,-0.631318,-6.646663,-0.750780,-6.623247,-0.819367,-6.595916,-0.898997,-6.545453,
-0.952252,-6.496101,-0.953444,-6.494503,-0.980620,-6.444550,-1.025271,-6.324319,-1.037078,-6.237909,-1.034553,-6.207928,-1.095319,-6.245365,-1.119612,-6.251953,-1.263243,-6.281341,-1.334401,-6.282972,-1.441733,-6.266095,-1.524379,-6.233050,-1.535526,-6.224760,-1.625648,-6.152737,-1.674999,-6.094737,-1.708800,-6.034795,-1.731134,-5.973572,-1.756230,-5.840310,-1.752826,-5.751366,-1.751357,-5.746183,
-1.721747,-5.646814,-1.786435,-5.670245,-1.797570,-5.671308,-1.925994,-5.679949,-2.013905,-5.666013,-2.017213,-5.664651,-2.152853,-5.607383,-2.223422,-5.557256,-2.286363,-5.487634,-2.329864,-5.409980,-2.331418,-5.403739,-1.483158,-5.403739,-1.355185,-5.371470,-1.321520,-5.365981,-1.296753,-5.364088,-1.271925,-5.355039,-1.217781,-5.314195,-1.113600,-5.210504,-0.992406,-5.073003,-0.922095,-4.967193,
-0.891918,-4.883182,-0.881171,-4.765871,-0.875626,-4.680694,-0.868608,-4.639640,-0.821297,-4.471082,-0.802138,-4.425469,-0.700510,-4.248647,-0.682044,-4.221835,-0.562810,-4.075770,-0.603069,-4.078811,-0.691091,-4.065597,-0.695126,-4.063965,-0.829973,-4.007718,-0.882942,-3.970058,-0.884577,-4.108669,-0.884806,-4.114343,-0.899364,-4.326316,-0.901278,-4.340089,-0.935986,-4.504891,-0.949035,-4.545136,
-1.009063,-4.679733,-1.028893,-4.714405,-1.126378,-4.851087,-1.133577,-4.860044,-1.273915,-5.015468,-1.275639,-5.017329,-1.287869,-5.030202,-1.395729,-5.154077,-1.436036,-5.218316,-1.445698,-5.259360,-1.451178,-5.311568,-1.471682,-5.381092,-1.483158,-5.403739,-2.331418,-5.403739,-2.333940,-5.393612,-2.360039,-5.266091,-2.360039,-5.185886,-2.330712,-5.042597,-2.293908,-4.961554,-2.277054,-4.942143,
-2.201588,-4.865752,-2.261402,-4.879975,-2.348652,-4.881156,-2.489497,-4.851669,-2.570374,-4.814501,-2.590504,-4.796763,-2.603049,-4.784116,-2.016632,-4.784116,-1.941282,-4.768314,-1.928314,-4.766470,-1.897996,-4.764167,-1.873068,-4.755114,-1.818842,-4.714263,-1.712135,-4.608103,-1.710532,-4.606403,-1.610735,-4.492471,-1.536348,-4.394539,-1.509620,-4.348678,-1.496774,-4.253933,-1.486629,-4.104764,
-1.484943,-4.030087,-1.521728,-4.066661,-1.663872,-4.210425,-1.771561,-4.327147,-1.827485,-4.398952,-1.841739,-4.426218,-1.847338,-4.458422,-1.848426,-4.463802,-1.880833,-4.604089,-1.919662,-4.684181,-1.933210,-4.699418,-2.016632,-4.784116,-2.603049,-4.784116,-2.677271,-4.709294,-2.724322,-4.633739,-2.731172,-4.608776,-2.760623,-4.465732,-2.760769,-4.385781,-2.732270,-4.244767,-2.695666,-4.163633,
-2.680108,-4.145462,-2.594432,-4.056733,-2.519907,-4.008065,-2.492843,-4.000178,-2.352971,-3.969921,-2.326052,-3.966765,-2.302641,-3.962426,-2.276550,-3.949146,-2.210815,-3.898611,-2.101881,-3.798678,-1.944546,-3.643569,-1.907849,-3.606777,-1.998584,-3.608265,-2.086360,-3.615506,-2.113472,-3.640814,-2.190420,-3.685551,-2.195993,-3.687200,-2.285285,-3.712217,-2.328694,-3.719355,-2.443408,-3.725413,
-2.478949,-3.724123,-2.588384,-3.710339,-2.648428,-3.692928,-2.721883,-3.658421,-2.792004,-3.603597,-2.794591,-3.600348,-2.808469,-3.582542,-2.842246,-3.517205,-2.871896,-3.418636,-2.880342,-3.357508,-2.878149,-3.232815,-2.869435,-3.177839,-2.834704,-3.064278,-2.812088,-3.015249,-2.804020,-3.002595,-2.744226,-2.942329,-2.663376,-2.889881,-2.579901,-2.859285,-2.464107,-2.844477,-2.401736,-2.846314,
-2.281469,-2.868955,-2.211215,-2.896693,-2.116941,-2.956591,-2.095419,-2.974395,-2.075454,-2.989291,-2.056638,-2.994994,-2.046805,-2.995889,-2.070491,-2.960773,-2.070904,-2.959695,-2.108494,-2.860796,-2.121279,-2.800020,-2.127521,-2.678750,-2.122913,-2.624593,-2.097809,-2.512950,-2.059448,-2.432632,-2.058380,-2.431296,-2.001929,-2.361278,-1.932045,-2.306154,-1.911531,-2.297769,-1.812031,-2.263398,
-1.738834,-2.252593,-1.594647,-2.258290,-1.508720,-2.281507,-1.504448,-2.283843,-1.384933,-2.351109,-1.358738,-2.368710,-1.337152,-2.385832,-1.317487,-2.393167,-1.240752,-2.402224,-1.085472,-2.405350,-1.078233,-2.405170,-1.107077,-2.378573,-1.139850,-2.295818,-1.141775,-2.278081,-1.154380,-2.079681,-1.154565,-2.075134,-1.156502,-1.967207,-1.150610,-1.915302,-1.126324,-1.817749,-1.086141,-1.738328,
-1.046755,-1.702089,-0.979056,-1.654814,-0.896569,-1.621370,-0.885058,-1.619844,-0.759455,-1.606896,-0.746556,-1.605783,-0.717431,-1.594755,-0.653273,-1.547006,-0.535915,-1.433820,-0.518656,-1.415993,-0.412858,-1.301079,-0.333107,-1.206106,-0.309939,-1.172922,-0.306469,-1.159605,-0.293711,-1.047354,-0.284312,-0.875422,-0.280824,-0.666619,-0.282712,0.034061,-0.280000,0.046092,-0.280000,1.049800,
-0.260194,1.136577,-0.204698,1.206166,-0.124504,1.244786,-0.080000,1.249800,0.120000,1.249800,0.206777,1.229994,0.206777,1.229994,$1*%
%AMFreePoly3*
4,1,331,0.216903,1.226394,0.286492,1.170898,0.325112,1.090704,0.330126,1.046200,0.330126,0.053880,0.332333,0.034041,0.330446,-0.641485,0.333256,-0.817119,0.341852,-0.991008,0.354077,-1.119624,0.362643,-1.162576,0.397195,-1.217294,0.480043,-1.321262,0.585725,-1.436349,0.661974,-1.511306,0.745305,-1.581782,0.780351,-1.600628,0.816226,-1.606236,0.855709,-1.608367,0.916305,-1.621245,
1.018029,-1.660105,1.092024,-1.709574,1.121528,-1.749879,1.172534,-1.841779,1.197328,-1.927265,1.197479,-1.930252,1.204324,-2.089600,1.204158,-2.101089,1.191281,-2.279776,1.165288,-2.364904,1.129225,-2.403994,1.173666,-2.405391,1.223573,-2.405255,1.373671,-2.401394,1.448171,-2.392642,1.465323,-2.386622,1.492503,-2.365582,1.496902,-2.362364,1.558427,-2.319886,1.616268,-2.292409,
1.736039,-2.257617,1.795103,-2.249705,1.918049,-2.251717,1.998400,-2.270011,2.089018,-2.311721,2.159564,-2.365996,2.168233,-2.377282,2.179017,-2.392405,2.207229,-2.449366,2.233861,-2.535376,2.241991,-2.576456,2.253195,-2.699904,2.253560,-2.711922,2.251655,-2.776071,2.247065,-2.813135,2.225093,-2.912935,2.195461,-2.975695,2.212494,-2.958198,2.289490,-2.904783,2.362073,-2.873447,
2.477989,-2.848910,2.531369,-2.844932,2.650838,-2.852090,2.724742,-2.871102,2.812396,-2.912770,2.882265,-2.967914,2.907895,-3.009099,2.941835,-3.082118,2.959271,-3.144555,2.971968,-3.260006,2.972232,-3.301190,2.960919,-3.417757,2.944419,-3.480107,2.909095,-3.559070,2.855580,-3.630194,2.824642,-3.651681,2.776780,-3.678625,2.716103,-3.700809,2.613675,-3.720326,2.575255,-3.723859,
2.458923,-3.723286,2.420925,-3.719452,2.321391,-3.699672,2.242209,-3.664868,2.226678,-3.653495,2.249568,-3.708190,2.262483,-3.753325,2.275714,-3.834758,2.276340,-3.894786,2.255370,-4.043353,2.251016,-4.059843,2.261336,-4.057503,2.409643,-4.053423,2.418873,-4.053595,2.607272,-4.065820,2.692585,-4.091203,2.758435,-4.151089,2.791780,-4.233615,2.793805,-4.251024,2.806447,-4.426459,
2.806681,-4.431421,2.808688,-4.521554,2.803411,-4.571859,2.775606,-4.689911,2.736433,-4.769835,2.707599,-4.798835,2.630832,-4.861660,2.551134,-4.901291,2.531391,-4.905022,2.396634,-4.923538,2.367519,-4.925391,2.352493,-4.925249,2.321484,-4.922534,2.294546,-4.918041,2.345556,-4.977430,2.387072,-5.056163,2.391784,-5.079151,2.411668,-5.216808,2.413676,-5.249681,2.412978,-5.282286,
2.408266,-5.321372,2.380906,-5.444549,2.342754,-5.524966,2.315925,-5.552945,2.240017,-5.618098,2.161269,-5.659587,2.137440,-5.664410,2.001028,-5.683476,1.971455,-5.685392,1.956951,-5.685255,1.923948,-5.682197,1.791737,-5.658772,1.709746,-5.624130,1.687090,-5.605118,1.615161,-5.535067,1.566814,-5.460335,1.557616,-5.425814,1.535881,-5.299923,1.533998,-5.280958,1.533090,-5.277310,
1.533100,-5.278989,1.537975,-5.407923,1.546049,-5.464506,1.546949,-5.466700,1.564871,-5.486460,1.572790,-5.496390,1.634693,-5.585018,1.668145,-5.667501,1.668563,-5.670193,1.688071,-5.801698,1.682547,-5.885969,1.643425,-6.022953,1.600550,-6.100955,1.596826,-6.105026,1.561415,-6.142690,1.487545,-6.192345,1.486564,-6.192720,1.387509,-6.230250,1.326898,-6.242961,1.205437,-6.249194,
1.151442,-6.244614,1.082920,-6.229254,1.081676,-6.301771,1.060958,-6.387044,1.004589,-6.500955,0.948350,-6.569945,0.933901,-6.580220,0.857650,-6.629504,0.787543,-6.657803,0.665751,-6.681668,0.584915,-6.680859,0.473708,-6.656748,0.415993,-6.629724,0.400586,-6.658754,0.394933,-6.665026,0.359522,-6.702690,0.285652,-6.752345,0.284671,-6.752720,0.185616,-6.790250,0.125005,-6.802961,
0.003544,-6.809194,-0.050452,-6.804614,-0.162271,-6.779549,-0.242614,-6.741242,-0.243814,-6.740285,-0.268198,-6.720687,-0.315294,-6.752345,-0.316275,-6.752720,-0.415330,-6.790250,-0.475941,-6.802961,-0.597402,-6.809194,-0.651397,-6.804614,-0.763217,-6.779549,-0.843561,-6.741242,-0.844763,-6.740284,-0.914891,-6.683922,-0.970122,-6.614122,-0.978575,-6.593515,-1.013000,-6.494172,-1.023868,-6.420766,
-1.018162,-6.276806,-0.994935,-6.190882,-0.992477,-6.186396,-0.925104,-6.067069,-0.903724,-6.036331,-0.891370,-6.021707,-0.890072,-6.018941,-0.882527,-5.981614,-0.875398,-5.887738,-0.871719,-5.731182,-0.870818,-5.503215,-0.869921,-5.325636,-0.869870,-5.322933,-0.862423,-5.090950,-0.861900,-5.083460,-0.853872,-5.008841,-0.260880,-5.008841,-0.250757,-5.118082,-0.182664,-5.265028,-0.032770,-5.461497,
0.010534,-5.511739,0.013201,-5.514967,0.121165,-5.651375,0.125255,-5.656926,0.205250,-5.773710,0.219630,-5.798292,0.257683,-5.875473,0.259047,-5.878355,0.280044,-5.924602,0.283266,-5.919104,0.302558,-5.891727,0.305210,-5.888563,0.317208,-5.858522,0.310754,-5.815815,0.250423,-5.704381,0.110971,-5.530276,0.034230,-5.442048,0.029980,-5.436816,-0.099383,-5.266107,-0.111658,-5.246753,
0.652053,-5.246753,0.732842,-5.349046,0.752387,-5.378939,0.849802,-5.561723,0.882643,-5.509562,0.905761,-5.479570,0.917107,-5.467427,0.924826,-5.420679,0.930495,-5.304719,0.931637,-5.162069,0.886595,-5.192346,0.885617,-5.192720,0.786563,-5.230250,0.725952,-5.242961,0.652053,-5.246753,-0.111658,-5.246753,-0.117198,-5.238019,-0.195936,-5.087503,-0.212368,-5.044802,-0.239091,-4.941314,
-0.260880,-5.008841,-0.853872,-5.008841,-0.841950,-4.898018,-0.839486,-4.884247,-0.810044,-4.767492,1.929028,-4.767492,1.940400,-4.777363,1.980579,-4.800138,2.016790,-4.806377,2.048565,-4.809884,2.049055,-4.809987,2.034161,-4.797214,2.013963,-4.774565,2.013402,-4.774389,1.934562,-4.767567,1.929028,-4.767492,-0.810044,-4.767492,-0.802541,-4.737737,-0.789993,-4.702371,-0.733407,-4.580574,
-0.717030,-4.551821,-0.631549,-4.427025,-0.625953,-4.419617,-0.508252,-4.277987,-0.506858,-4.276345,-0.504539,-4.273674,-0.406101,-4.155775,-0.327937,-4.054618,-0.302887,-4.017163,-0.302099,-4.013563,-0.294032,-3.925579,-0.286464,-3.770786,-0.280305,-3.552503,-0.275623,-3.268476,-0.272373,-2.915349,-0.271993,-2.829728,0.332029,-2.829728,0.339270,-2.984437,0.352076,-3.112266,0.360925,-3.154360,
0.378419,-3.181798,0.458433,-3.279847,0.578494,-3.414759,0.722334,-3.568542,0.876663,-3.727341,1.028514,-3.877808,1.164669,-4.006494,1.268831,-4.097556,1.310593,-4.127530,1.364956,-4.143570,1.451145,-4.154832,1.444522,-4.147382,1.401669,-4.069368,1.396370,-4.045227,1.377901,-3.926443,1.353356,-3.888438,1.272875,-3.790852,1.139773,-3.645237,0.953129,-3.451557,0.710038,-3.206705,
0.332029,-2.829728,-0.271993,-2.829728,-0.270485,-2.489954,-0.269874,-1.987786,-0.269874,1.046200,-0.250068,1.132977,-0.194572,1.202566,-0.114378,1.241186,-0.069874,1.246200,0.130126,1.246200,0.216903,1.226394,0.216903,1.226394,$1*%
G04 Aperture macros list end*
%ADD10C,0.150000*%
%ADD11C,0.200000*%
%ADD12C,0.120000*%
%ADD13C,0.178000*%
%ADD14C,0.100000*%
%ADD15RoundRect,0.200000X0.700000X-0.600000X0.700000X0.600000X-0.700000X0.600000X-0.700000X-0.600000X0*%
%ADD16C,2.200000*%
%ADD17C,3.400000*%
%ADD18C,3.800000*%
%ADD19RoundRect,0.200000X-0.800000X-1.100000X0.800000X-1.100000X0.800000X1.100000X-0.800000X1.100000X0*%
%ADD20C,3.600000*%
%ADD21C,4.800000*%
%ADD22C,1.300000*%
%ADD23RoundRect,0.200000X1.127976X0.760046X-0.375532X1.307278X-1.127976X-0.760046X0.375532X-1.307278X0*%
%ADD24RoundRect,0.200000X-0.700000X0.600000X-0.700000X-0.600000X0.700000X-0.600000X0.700000X0.600000X0*%
%ADD25C,0.700000*%
%ADD26C,2.000000*%
%ADD27FreePoly0,90.000000*%
%ADD28FreePoly0,270.000000*%
%ADD29FreePoly1,90.000000*%
%ADD30FreePoly1,270.000000*%
%ADD31RoundRect,0.200000X0.978859X0.944370X-0.596833X1.222207X-0.978859X-0.944370X0.596833X-1.222207X0*%
%ADD32RoundRect,0.400000X0.750000X-0.200000X0.750000X0.200000X-0.750000X0.200000X-0.750000X-0.200000X0*%
%ADD33RoundRect,0.450000X1.425000X-0.400000X1.425000X0.400000X-1.425000X0.400000X-1.425000X-0.400000X0*%
%ADD34FreePoly2,180.000000*%
%ADD35RoundRect,0.269000X-0.566000X-0.017250X0.566000X-0.017250X0.566000X0.017250X-0.566000X0.017250X0*%
%ADD36RoundRect,0.269000X-1.131000X-0.017250X1.131000X-0.017250X1.131000X0.017250X-1.131000X0.017250X0*%
%ADD37RoundRect,0.269000X-0.168500X-0.017250X0.168500X-0.017250X0.168500X0.017250X-0.168500X0.017250X0*%
%ADD38FreePoly3,180.000000*%
%ADD39RoundRect,0.200000X-0.204867X0.606654X-0.546887X-0.333038X0.204867X-0.606654X0.546887X0.333038X0*%
%ADD40RoundRect,0.200000X-0.585062X0.585408X-0.824477X-0.072377X0.585062X-0.585408X0.824477X0.072377X0*%
G04 APERTURE END LIST*
D10*
X188126708Y-105525610D02*
X187144263Y-105301052D01*
X187931268Y-106062578D02*
X187516451Y-105531533D01*
X186948823Y-105838019D02*
X187705660Y-105429371D01*
X187784688Y-106465303D02*
X187129725Y-106315597D01*
X187316857Y-106358370D02*
X187207004Y-106381731D01*
X187207004Y-106381731D02*
X187143934Y-106415785D01*
X187143934Y-106415785D02*
X187064578Y-106494586D01*
X187064578Y-106494586D02*
X187032005Y-106584081D01*
X187395885Y-107394303D02*
X187475241Y-107315501D01*
X187475241Y-107315501D02*
X187540388Y-107136512D01*
X187540388Y-107136512D02*
X187526178Y-107036325D01*
X187526178Y-107036325D02*
X187448898Y-106970191D01*
X187448898Y-106970191D02*
X187074634Y-106884645D01*
X187074634Y-106884645D02*
X186964781Y-106908005D01*
X186964781Y-106908005D02*
X186885424Y-106986807D01*
X186885424Y-106986807D02*
X186820278Y-107165796D01*
X186820278Y-107165796D02*
X186834487Y-107265983D01*
X186834487Y-107265983D02*
X186911767Y-107332117D01*
X186911767Y-107332117D02*
X187005333Y-107353504D01*
X187005333Y-107353504D02*
X187261766Y-106927418D01*
X186673698Y-107568521D02*
X186543404Y-107926499D01*
X186297356Y-107627910D02*
X187139452Y-107820389D01*
X187139452Y-107820389D02*
X187216731Y-107886523D01*
X187216731Y-107886523D02*
X187230941Y-107986711D01*
X187230941Y-107986711D02*
X187198368Y-108076205D01*
X187053864Y-108333996D02*
X187068074Y-108434184D01*
X187068074Y-108434184D02*
X187002927Y-108613173D01*
X187002927Y-108613173D02*
X186923571Y-108691974D01*
X186923571Y-108691974D02*
X186813718Y-108715335D01*
X186813718Y-108715335D02*
X186766935Y-108704641D01*
X186766935Y-108704641D02*
X186689655Y-108638508D01*
X186689655Y-108638508D02*
X186675446Y-108538320D01*
X186675446Y-108538320D02*
X186724306Y-108404078D01*
X186724306Y-108404078D02*
X186710096Y-108303890D01*
X186710096Y-108303890D02*
X186632816Y-108237756D01*
X186632816Y-108237756D02*
X186586033Y-108227063D01*
X186586033Y-108227063D02*
X186476180Y-108250424D01*
X186476180Y-108250424D02*
X186396824Y-108329225D01*
X186396824Y-108329225D02*
X186347964Y-108463467D01*
X186347964Y-108463467D02*
X186362174Y-108563655D01*
X186201384Y-108866193D02*
X186071090Y-109224171D01*
X185825042Y-108925582D02*
X186667138Y-109118060D01*
X186667138Y-109118060D02*
X186744417Y-109184194D01*
X186744417Y-109184194D02*
X186758627Y-109284382D01*
X186758627Y-109284382D02*
X186726054Y-109373876D01*
X186612047Y-109687108D02*
X185957084Y-109537402D01*
X186144216Y-109580175D02*
X186034363Y-109603536D01*
X186034363Y-109603536D02*
X185971293Y-109637590D01*
X185971293Y-109637590D02*
X185891937Y-109716391D01*
X185891937Y-109716391D02*
X185859364Y-109805886D01*
X186253740Y-110671548D02*
X185739126Y-110553922D01*
X185739126Y-110553922D02*
X185661846Y-110487788D01*
X185661846Y-110487788D02*
X185647637Y-110387600D01*
X185647637Y-110387600D02*
X185712783Y-110208611D01*
X185712783Y-110208611D02*
X185792140Y-110129810D01*
X186206957Y-110660855D02*
X186286313Y-110582053D01*
X186286313Y-110582053D02*
X186367747Y-110358317D01*
X186367747Y-110358317D02*
X186353537Y-110258129D01*
X186353537Y-110258129D02*
X186276257Y-110191995D01*
X186276257Y-110191995D02*
X186182691Y-110170609D01*
X186182691Y-110170609D02*
X186072838Y-110193970D01*
X186072838Y-110193970D02*
X185993482Y-110272771D01*
X185993482Y-110272771D02*
X185912049Y-110496507D01*
X185912049Y-110496507D02*
X185832692Y-110575309D01*
X185417875Y-110044264D02*
X185448371Y-110099705D01*
X185448371Y-110099705D02*
X185511441Y-110065651D01*
X185511441Y-110065651D02*
X185480945Y-110010210D01*
X185480945Y-110010210D02*
X185417875Y-110044264D01*
X185417875Y-110044264D02*
X185511441Y-110065651D01*
X185287582Y-110402242D02*
X185318078Y-110457683D01*
X185318078Y-110457683D02*
X185381148Y-110423629D01*
X185381148Y-110423629D02*
X185350651Y-110368188D01*
X185350651Y-110368188D02*
X185287582Y-110402242D01*
X185287582Y-110402242D02*
X185381148Y-110423629D01*
X185944293Y-111521746D02*
X184961848Y-111297188D01*
X185897510Y-111511053D02*
X185976867Y-111432252D01*
X185976867Y-111432252D02*
X186042013Y-111253263D01*
X186042013Y-111253263D02*
X186027803Y-111153075D01*
X186027803Y-111153075D02*
X185997307Y-111097634D01*
X185997307Y-111097634D02*
X185920028Y-111031500D01*
X185920028Y-111031500D02*
X185639329Y-110967341D01*
X185639329Y-110967341D02*
X185529476Y-110990702D01*
X185529476Y-110990702D02*
X185466406Y-111024756D01*
X185466406Y-111024756D02*
X185387050Y-111103557D01*
X185387050Y-111103557D02*
X185321903Y-111282546D01*
X185321903Y-111282546D02*
X185336113Y-111382734D01*
X189639613Y-106076262D02*
X188657168Y-105851704D01*
X188657168Y-105851704D02*
X188526875Y-106209682D01*
X188526875Y-106209682D02*
X188541084Y-106309870D01*
X188541084Y-106309870D02*
X188571581Y-106365310D01*
X188571581Y-106365310D02*
X188648860Y-106431444D01*
X188648860Y-106431444D02*
X188789210Y-106463524D01*
X188789210Y-106463524D02*
X188899063Y-106440163D01*
X188899063Y-106440163D02*
X188962132Y-106406109D01*
X188962132Y-106406109D02*
X189041489Y-106327308D01*
X189041489Y-106327308D02*
X189171782Y-105969330D01*
X189008587Y-107531536D02*
X189071657Y-107497482D01*
X189071657Y-107497482D02*
X189167300Y-107373933D01*
X189167300Y-107373933D02*
X189199873Y-107284439D01*
X189199873Y-107284439D02*
X189201950Y-107139503D01*
X189201950Y-107139503D02*
X189140957Y-107028622D01*
X189140957Y-107028622D02*
X189063678Y-106962489D01*
X189063678Y-106962489D02*
X188892832Y-106874968D01*
X188892832Y-106874968D02*
X188752482Y-106842889D01*
X188752482Y-106842889D02*
X188549063Y-106844863D01*
X188549063Y-106844863D02*
X188439211Y-106868223D01*
X188439211Y-106868223D02*
X188313071Y-106936331D01*
X188313071Y-106936331D02*
X188217428Y-107059880D01*
X188217428Y-107059880D02*
X188184854Y-107149375D01*
X188184854Y-107149375D02*
X188182778Y-107294310D01*
X188182778Y-107294310D02*
X188213274Y-107349750D01*
X188326952Y-108151253D02*
X188324875Y-108296188D01*
X188324875Y-108296188D02*
X188355372Y-108351628D01*
X188355372Y-108351628D02*
X188432651Y-108417762D01*
X188432651Y-108417762D02*
X188573000Y-108449842D01*
X188573000Y-108449842D02*
X188682853Y-108426481D01*
X188682853Y-108426481D02*
X188745923Y-108392427D01*
X188745923Y-108392427D02*
X188825279Y-108313626D01*
X188825279Y-108313626D02*
X188955573Y-107955648D01*
X188955573Y-107955648D02*
X187973128Y-107731089D01*
X187973128Y-107731089D02*
X187859121Y-108044320D01*
X187859121Y-108044320D02*
X187873331Y-108144508D01*
X187873331Y-108144508D02*
X187903827Y-108199948D01*
X187903827Y-108199948D02*
X187981107Y-108266082D01*
X187981107Y-108266082D02*
X188074673Y-108287469D01*
X188074673Y-108287469D02*
X188184526Y-108264108D01*
X188184526Y-108264108D02*
X188247596Y-108230054D01*
X188247596Y-108230054D02*
X188326952Y-108151253D01*
X188326952Y-108151253D02*
X188440959Y-107838022D01*
X188206386Y-110014022D02*
X187223941Y-109789464D01*
X188159603Y-110003329D02*
X188238959Y-109924528D01*
X188238959Y-109924528D02*
X188304106Y-109745539D01*
X188304106Y-109745539D02*
X188289896Y-109645351D01*
X188289896Y-109645351D02*
X188259400Y-109589910D01*
X188259400Y-109589910D02*
X188182120Y-109523776D01*
X188182120Y-109523776D02*
X187901422Y-109459617D01*
X187901422Y-109459617D02*
X187791569Y-109482978D01*
X187791569Y-109482978D02*
X187728499Y-109517032D01*
X187728499Y-109517032D02*
X187649142Y-109595833D01*
X187649142Y-109595833D02*
X187583996Y-109774822D01*
X187583996Y-109774822D02*
X187598205Y-109875010D01*
X187866443Y-110808780D02*
X187945799Y-110729978D01*
X187945799Y-110729978D02*
X188010946Y-110550989D01*
X188010946Y-110550989D02*
X187996736Y-110450802D01*
X187996736Y-110450802D02*
X187919456Y-110384668D01*
X187919456Y-110384668D02*
X187545192Y-110299122D01*
X187545192Y-110299122D02*
X187435339Y-110322482D01*
X187435339Y-110322482D02*
X187355982Y-110401284D01*
X187355982Y-110401284D02*
X187290836Y-110580273D01*
X187290836Y-110580273D02*
X187305045Y-110680461D01*
X187305045Y-110680461D02*
X187382325Y-110746594D01*
X187382325Y-110746594D02*
X187475891Y-110767981D01*
X187475891Y-110767981D02*
X187732324Y-110341895D01*
X187719862Y-111211505D02*
X187734072Y-111311693D01*
X187734072Y-111311693D02*
X187668925Y-111490682D01*
X187668925Y-111490682D02*
X187589569Y-111569483D01*
X187589569Y-111569483D02*
X187479716Y-111592844D01*
X187479716Y-111592844D02*
X187432933Y-111582151D01*
X187432933Y-111582151D02*
X187355654Y-111516017D01*
X187355654Y-111516017D02*
X187341444Y-111415829D01*
X187341444Y-111415829D02*
X187390304Y-111281588D01*
X187390304Y-111281588D02*
X187376094Y-111181400D01*
X187376094Y-111181400D02*
X187298815Y-111115266D01*
X187298815Y-111115266D02*
X187252031Y-111104573D01*
X187252031Y-111104573D02*
X187142179Y-111127933D01*
X187142179Y-111127933D02*
X187062822Y-111206735D01*
X187062822Y-111206735D02*
X187013962Y-111340976D01*
X187013962Y-111340976D02*
X187028172Y-111441164D01*
X187473485Y-112027650D02*
X186818522Y-111877944D01*
X186491040Y-111803091D02*
X186554110Y-111769037D01*
X186554110Y-111769037D02*
X186584606Y-111824478D01*
X186584606Y-111824478D02*
X186521537Y-111858532D01*
X186521537Y-111858532D02*
X186491040Y-111803091D01*
X186491040Y-111803091D02*
X186584606Y-111824478D01*
X186509075Y-112728141D02*
X187304388Y-112909927D01*
X187304388Y-112909927D02*
X187414241Y-112886566D01*
X187414241Y-112886566D02*
X187477311Y-112852512D01*
X187477311Y-112852512D02*
X187556667Y-112773711D01*
X187556667Y-112773711D02*
X187605527Y-112639469D01*
X187605527Y-112639469D02*
X187591317Y-112539281D01*
X187117256Y-112867154D02*
X187196612Y-112788353D01*
X187196612Y-112788353D02*
X187261759Y-112609364D01*
X187261759Y-112609364D02*
X187247549Y-112509176D01*
X187247549Y-112509176D02*
X187217053Y-112453735D01*
X187217053Y-112453735D02*
X187139773Y-112387601D01*
X187139773Y-112387601D02*
X186859074Y-112323442D01*
X186859074Y-112323442D02*
X186749222Y-112346803D01*
X186749222Y-112346803D02*
X186686152Y-112380857D01*
X186686152Y-112380857D02*
X186606795Y-112459658D01*
X186606795Y-112459658D02*
X186541649Y-112638647D01*
X186541649Y-112638647D02*
X186555858Y-112738835D01*
X186346209Y-113175614D02*
X187001172Y-113325320D01*
X186439775Y-113197001D02*
X186376705Y-113231055D01*
X186376705Y-113231055D02*
X186297349Y-113309856D01*
X186297349Y-113309856D02*
X186248488Y-113444098D01*
X186248488Y-113444098D02*
X186262698Y-113544286D01*
X186262698Y-113544286D02*
X186339978Y-113610419D01*
X186339978Y-113610419D02*
X186854592Y-113728045D01*
X186514649Y-114522803D02*
X186594005Y-114444002D01*
X186594005Y-114444002D02*
X186659152Y-114265013D01*
X186659152Y-114265013D02*
X186644942Y-114164825D01*
X186644942Y-114164825D02*
X186567662Y-114098691D01*
X186567662Y-114098691D02*
X186193398Y-114013145D01*
X186193398Y-114013145D02*
X186083545Y-114036506D01*
X186083545Y-114036506D02*
X186004188Y-114115307D01*
X186004188Y-114115307D02*
X185939042Y-114294296D01*
X185939042Y-114294296D02*
X185953251Y-114394484D01*
X185953251Y-114394484D02*
X186030531Y-114460618D01*
X186030531Y-114460618D02*
X186124097Y-114482004D01*
X186124097Y-114482004D02*
X186380530Y-114055918D01*
X186251985Y-115383694D02*
X185269540Y-115159136D01*
X186205202Y-115373001D02*
X186284558Y-115294200D01*
X186284558Y-115294200D02*
X186349705Y-115115211D01*
X186349705Y-115115211D02*
X186335495Y-115015023D01*
X186335495Y-115015023D02*
X186304999Y-114959583D01*
X186304999Y-114959583D02*
X186227719Y-114893449D01*
X186227719Y-114893449D02*
X185947021Y-114829289D01*
X185947021Y-114829289D02*
X185837168Y-114852650D01*
X185837168Y-114852650D02*
X185774098Y-114886704D01*
X185774098Y-114886704D02*
X185694742Y-114965505D01*
X185694742Y-114965505D02*
X185629595Y-115144494D01*
X185629595Y-115144494D02*
X185643805Y-115244682D01*
X185828531Y-116547124D02*
X184846086Y-116322565D01*
X185220351Y-116408111D02*
X185140994Y-116486913D01*
X185140994Y-116486913D02*
X185075848Y-116665902D01*
X185075848Y-116665902D02*
X185090058Y-116766089D01*
X185090058Y-116766089D02*
X185120554Y-116821530D01*
X185120554Y-116821530D02*
X185197834Y-116887664D01*
X185197834Y-116887664D02*
X185478532Y-116951823D01*
X185478532Y-116951823D02*
X185588385Y-116928463D01*
X185588385Y-116928463D02*
X185651455Y-116894409D01*
X185651455Y-116894409D02*
X185730811Y-116815607D01*
X185730811Y-116815607D02*
X185795958Y-116636618D01*
X185795958Y-116636618D02*
X185781748Y-116536431D01*
X184896694Y-117158122D02*
X185470224Y-117531564D01*
X184733828Y-117605594D02*
X185470224Y-117531564D01*
X185470224Y-117531564D02*
X185736713Y-117495536D01*
X185736713Y-117495536D02*
X185799783Y-117461482D01*
X185799783Y-117461482D02*
X185879139Y-117382680D01*
X184342947Y-118679529D02*
X185185043Y-118872008D01*
X185185043Y-118872008D02*
X185294896Y-118848647D01*
X185294896Y-118848647D02*
X185374252Y-118769846D01*
X185374252Y-118769846D02*
X185390539Y-118725099D01*
X184015466Y-118604676D02*
X184078535Y-118570622D01*
X184078535Y-118570622D02*
X184109032Y-118626063D01*
X184109032Y-118626063D02*
X184045962Y-118660117D01*
X184045962Y-118660117D02*
X184015466Y-118604676D01*
X184015466Y-118604676D02*
X184109032Y-118626063D01*
X184212654Y-119037507D02*
X184802471Y-119366202D01*
X184802471Y-119366202D02*
X184269493Y-119438258D01*
X184269493Y-119438258D02*
X184672177Y-119724180D01*
X184672177Y-119724180D02*
X183952067Y-119753463D01*
X141808151Y-109857333D02*
X141046247Y-109857333D01*
X141427199Y-109476380D02*
X141427199Y-110238285D01*
X115255913Y-99515881D02*
X115113056Y-99563500D01*
X115113056Y-99563500D02*
X114874961Y-99563500D01*
X114874961Y-99563500D02*
X114779723Y-99515881D01*
X114779723Y-99515881D02*
X114732104Y-99468261D01*
X114732104Y-99468261D02*
X114684485Y-99373023D01*
X114684485Y-99373023D02*
X114684485Y-99277785D01*
X114684485Y-99277785D02*
X114732104Y-99182547D01*
X114732104Y-99182547D02*
X114779723Y-99134928D01*
X114779723Y-99134928D02*
X114874961Y-99087309D01*
X114874961Y-99087309D02*
X115065437Y-99039690D01*
X115065437Y-99039690D02*
X115160675Y-98992071D01*
X115160675Y-98992071D02*
X115208294Y-98944452D01*
X115208294Y-98944452D02*
X115255913Y-98849214D01*
X115255913Y-98849214D02*
X115255913Y-98753976D01*
X115255913Y-98753976D02*
X115208294Y-98658738D01*
X115208294Y-98658738D02*
X115160675Y-98611119D01*
X115160675Y-98611119D02*
X115065437Y-98563500D01*
X115065437Y-98563500D02*
X114827342Y-98563500D01*
X114827342Y-98563500D02*
X114684485Y-98611119D01*
X114351151Y-98563500D02*
X114113056Y-99563500D01*
X114113056Y-99563500D02*
X113922580Y-98849214D01*
X113922580Y-98849214D02*
X113732104Y-99563500D01*
X113732104Y-99563500D02*
X113494009Y-98563500D01*
X112589247Y-99563500D02*
X113160675Y-99563500D01*
X112874961Y-99563500D02*
X112874961Y-98563500D01*
X112874961Y-98563500D02*
X112970199Y-98706357D01*
X112970199Y-98706357D02*
X113065437Y-98801595D01*
X113065437Y-98801595D02*
X113160675Y-98849214D01*
X112208294Y-98658738D02*
X112160675Y-98611119D01*
X112160675Y-98611119D02*
X112065437Y-98563500D01*
X112065437Y-98563500D02*
X111827342Y-98563500D01*
X111827342Y-98563500D02*
X111732104Y-98611119D01*
X111732104Y-98611119D02*
X111684485Y-98658738D01*
X111684485Y-98658738D02*
X111636866Y-98753976D01*
X111636866Y-98753976D02*
X111636866Y-98849214D01*
X111636866Y-98849214D02*
X111684485Y-98992071D01*
X111684485Y-98992071D02*
X112255913Y-99563500D01*
X112255913Y-99563500D02*
X111636866Y-99563500D01*
X133079522Y-81015881D02*
X132936665Y-81063500D01*
X132936665Y-81063500D02*
X132698570Y-81063500D01*
X132698570Y-81063500D02*
X132603332Y-81015881D01*
X132603332Y-81015881D02*
X132555713Y-80968261D01*
X132555713Y-80968261D02*
X132508094Y-80873023D01*
X132508094Y-80873023D02*
X132508094Y-80777785D01*
X132508094Y-80777785D02*
X132555713Y-80682547D01*
X132555713Y-80682547D02*
X132603332Y-80634928D01*
X132603332Y-80634928D02*
X132698570Y-80587309D01*
X132698570Y-80587309D02*
X132889046Y-80539690D01*
X132889046Y-80539690D02*
X132984284Y-80492071D01*
X132984284Y-80492071D02*
X133031903Y-80444452D01*
X133031903Y-80444452D02*
X133079522Y-80349214D01*
X133079522Y-80349214D02*
X133079522Y-80253976D01*
X133079522Y-80253976D02*
X133031903Y-80158738D01*
X133031903Y-80158738D02*
X132984284Y-80111119D01*
X132984284Y-80111119D02*
X132889046Y-80063500D01*
X132889046Y-80063500D02*
X132650951Y-80063500D01*
X132650951Y-80063500D02*
X132508094Y-80111119D01*
X132174760Y-80063500D02*
X131936665Y-81063500D01*
X131936665Y-81063500D02*
X131746189Y-80349214D01*
X131746189Y-80349214D02*
X131555713Y-81063500D01*
X131555713Y-81063500D02*
X131317618Y-80063500D01*
X130793808Y-80492071D02*
X130889046Y-80444452D01*
X130889046Y-80444452D02*
X130936665Y-80396833D01*
X130936665Y-80396833D02*
X130984284Y-80301595D01*
X130984284Y-80301595D02*
X130984284Y-80253976D01*
X130984284Y-80253976D02*
X130936665Y-80158738D01*
X130936665Y-80158738D02*
X130889046Y-80111119D01*
X130889046Y-80111119D02*
X130793808Y-80063500D01*
X130793808Y-80063500D02*
X130603332Y-80063500D01*
X130603332Y-80063500D02*
X130508094Y-80111119D01*
X130508094Y-80111119D02*
X130460475Y-80158738D01*
X130460475Y-80158738D02*
X130412856Y-80253976D01*
X130412856Y-80253976D02*
X130412856Y-80301595D01*
X130412856Y-80301595D02*
X130460475Y-80396833D01*
X130460475Y-80396833D02*
X130508094Y-80444452D01*
X130508094Y-80444452D02*
X130603332Y-80492071D01*
X130603332Y-80492071D02*
X130793808Y-80492071D01*
X130793808Y-80492071D02*
X130889046Y-80539690D01*
X130889046Y-80539690D02*
X130936665Y-80587309D01*
X130936665Y-80587309D02*
X130984284Y-80682547D01*
X130984284Y-80682547D02*
X130984284Y-80873023D01*
X130984284Y-80873023D02*
X130936665Y-80968261D01*
X130936665Y-80968261D02*
X130889046Y-81015881D01*
X130889046Y-81015881D02*
X130793808Y-81063500D01*
X130793808Y-81063500D02*
X130603332Y-81063500D01*
X130603332Y-81063500D02*
X130508094Y-81015881D01*
X130508094Y-81015881D02*
X130460475Y-80968261D01*
X130460475Y-80968261D02*
X130412856Y-80873023D01*
X130412856Y-80873023D02*
X130412856Y-80682547D01*
X130412856Y-80682547D02*
X130460475Y-80587309D01*
X130460475Y-80587309D02*
X130508094Y-80539690D01*
X130508094Y-80539690D02*
X130603332Y-80492071D01*
X114779722Y-82515881D02*
X114636865Y-82563500D01*
X114636865Y-82563500D02*
X114398770Y-82563500D01*
X114398770Y-82563500D02*
X114303532Y-82515881D01*
X114303532Y-82515881D02*
X114255913Y-82468261D01*
X114255913Y-82468261D02*
X114208294Y-82373023D01*
X114208294Y-82373023D02*
X114208294Y-82277785D01*
X114208294Y-82277785D02*
X114255913Y-82182547D01*
X114255913Y-82182547D02*
X114303532Y-82134928D01*
X114303532Y-82134928D02*
X114398770Y-82087309D01*
X114398770Y-82087309D02*
X114589246Y-82039690D01*
X114589246Y-82039690D02*
X114684484Y-81992071D01*
X114684484Y-81992071D02*
X114732103Y-81944452D01*
X114732103Y-81944452D02*
X114779722Y-81849214D01*
X114779722Y-81849214D02*
X114779722Y-81753976D01*
X114779722Y-81753976D02*
X114732103Y-81658738D01*
X114732103Y-81658738D02*
X114684484Y-81611119D01*
X114684484Y-81611119D02*
X114589246Y-81563500D01*
X114589246Y-81563500D02*
X114351151Y-81563500D01*
X114351151Y-81563500D02*
X114208294Y-81611119D01*
X113874960Y-81563500D02*
X113636865Y-82563500D01*
X113636865Y-82563500D02*
X113446389Y-81849214D01*
X113446389Y-81849214D02*
X113255913Y-82563500D01*
X113255913Y-82563500D02*
X113017818Y-81563500D01*
X112732103Y-81563500D02*
X112065437Y-81563500D01*
X112065437Y-81563500D02*
X112494008Y-82563500D01*
X133555713Y-98015881D02*
X133412856Y-98063500D01*
X133412856Y-98063500D02*
X133174761Y-98063500D01*
X133174761Y-98063500D02*
X133079523Y-98015881D01*
X133079523Y-98015881D02*
X133031904Y-97968261D01*
X133031904Y-97968261D02*
X132984285Y-97873023D01*
X132984285Y-97873023D02*
X132984285Y-97777785D01*
X132984285Y-97777785D02*
X133031904Y-97682547D01*
X133031904Y-97682547D02*
X133079523Y-97634928D01*
X133079523Y-97634928D02*
X133174761Y-97587309D01*
X133174761Y-97587309D02*
X133365237Y-97539690D01*
X133365237Y-97539690D02*
X133460475Y-97492071D01*
X133460475Y-97492071D02*
X133508094Y-97444452D01*
X133508094Y-97444452D02*
X133555713Y-97349214D01*
X133555713Y-97349214D02*
X133555713Y-97253976D01*
X133555713Y-97253976D02*
X133508094Y-97158738D01*
X133508094Y-97158738D02*
X133460475Y-97111119D01*
X133460475Y-97111119D02*
X133365237Y-97063500D01*
X133365237Y-97063500D02*
X133127142Y-97063500D01*
X133127142Y-97063500D02*
X132984285Y-97111119D01*
X132650951Y-97063500D02*
X132412856Y-98063500D01*
X132412856Y-98063500D02*
X132222380Y-97349214D01*
X132222380Y-97349214D02*
X132031904Y-98063500D01*
X132031904Y-98063500D02*
X131793809Y-97063500D01*
X130889047Y-98063500D02*
X131460475Y-98063500D01*
X131174761Y-98063500D02*
X131174761Y-97063500D01*
X131174761Y-97063500D02*
X131269999Y-97206357D01*
X131269999Y-97206357D02*
X131365237Y-97301595D01*
X131365237Y-97301595D02*
X131460475Y-97349214D01*
X130555713Y-97063500D02*
X129936666Y-97063500D01*
X129936666Y-97063500D02*
X130269999Y-97444452D01*
X130269999Y-97444452D02*
X130127142Y-97444452D01*
X130127142Y-97444452D02*
X130031904Y-97492071D01*
X130031904Y-97492071D02*
X129984285Y-97539690D01*
X129984285Y-97539690D02*
X129936666Y-97634928D01*
X129936666Y-97634928D02*
X129936666Y-97873023D01*
X129936666Y-97873023D02*
X129984285Y-97968261D01*
X129984285Y-97968261D02*
X130031904Y-98015881D01*
X130031904Y-98015881D02*
X130127142Y-98063500D01*
X130127142Y-98063500D02*
X130412856Y-98063500D01*
X130412856Y-98063500D02*
X130508094Y-98015881D01*
X130508094Y-98015881D02*
X130555713Y-97968261D01*
X114779722Y-65515881D02*
X114636865Y-65563500D01*
X114636865Y-65563500D02*
X114398770Y-65563500D01*
X114398770Y-65563500D02*
X114303532Y-65515881D01*
X114303532Y-65515881D02*
X114255913Y-65468261D01*
X114255913Y-65468261D02*
X114208294Y-65373023D01*
X114208294Y-65373023D02*
X114208294Y-65277785D01*
X114208294Y-65277785D02*
X114255913Y-65182547D01*
X114255913Y-65182547D02*
X114303532Y-65134928D01*
X114303532Y-65134928D02*
X114398770Y-65087309D01*
X114398770Y-65087309D02*
X114589246Y-65039690D01*
X114589246Y-65039690D02*
X114684484Y-64992071D01*
X114684484Y-64992071D02*
X114732103Y-64944452D01*
X114732103Y-64944452D02*
X114779722Y-64849214D01*
X114779722Y-64849214D02*
X114779722Y-64753976D01*
X114779722Y-64753976D02*
X114732103Y-64658738D01*
X114732103Y-64658738D02*
X114684484Y-64611119D01*
X114684484Y-64611119D02*
X114589246Y-64563500D01*
X114589246Y-64563500D02*
X114351151Y-64563500D01*
X114351151Y-64563500D02*
X114208294Y-64611119D01*
X113874960Y-64563500D02*
X113636865Y-65563500D01*
X113636865Y-65563500D02*
X113446389Y-64849214D01*
X113446389Y-64849214D02*
X113255913Y-65563500D01*
X113255913Y-65563500D02*
X113017818Y-64563500D01*
X112684484Y-64658738D02*
X112636865Y-64611119D01*
X112636865Y-64611119D02*
X112541627Y-64563500D01*
X112541627Y-64563500D02*
X112303532Y-64563500D01*
X112303532Y-64563500D02*
X112208294Y-64611119D01*
X112208294Y-64611119D02*
X112160675Y-64658738D01*
X112160675Y-64658738D02*
X112113056Y-64753976D01*
X112113056Y-64753976D02*
X112113056Y-64849214D01*
X112113056Y-64849214D02*
X112160675Y-64992071D01*
X112160675Y-64992071D02*
X112732103Y-65563500D01*
X112732103Y-65563500D02*
X112113056Y-65563500D01*
X151379322Y-66315681D02*
X151236465Y-66363300D01*
X151236465Y-66363300D02*
X150998370Y-66363300D01*
X150998370Y-66363300D02*
X150903132Y-66315681D01*
X150903132Y-66315681D02*
X150855513Y-66268061D01*
X150855513Y-66268061D02*
X150807894Y-66172823D01*
X150807894Y-66172823D02*
X150807894Y-66077585D01*
X150807894Y-66077585D02*
X150855513Y-65982347D01*
X150855513Y-65982347D02*
X150903132Y-65934728D01*
X150903132Y-65934728D02*
X150998370Y-65887109D01*
X150998370Y-65887109D02*
X151188846Y-65839490D01*
X151188846Y-65839490D02*
X151284084Y-65791871D01*
X151284084Y-65791871D02*
X151331703Y-65744252D01*
X151331703Y-65744252D02*
X151379322Y-65649014D01*
X151379322Y-65649014D02*
X151379322Y-65553776D01*
X151379322Y-65553776D02*
X151331703Y-65458538D01*
X151331703Y-65458538D02*
X151284084Y-65410919D01*
X151284084Y-65410919D02*
X151188846Y-65363300D01*
X151188846Y-65363300D02*
X150950751Y-65363300D01*
X150950751Y-65363300D02*
X150807894Y-65410919D01*
X150474560Y-65363300D02*
X150236465Y-66363300D01*
X150236465Y-66363300D02*
X150045989Y-65649014D01*
X150045989Y-65649014D02*
X149855513Y-66363300D01*
X149855513Y-66363300D02*
X149617418Y-65363300D01*
X148807894Y-65696633D02*
X148807894Y-66363300D01*
X149045989Y-65315681D02*
X149284084Y-66029966D01*
X149284084Y-66029966D02*
X148665037Y-66029966D01*
X170425923Y-124906712D02*
X170275395Y-124902599D01*
X170275395Y-124902599D02*
X170051658Y-124821166D01*
X170051658Y-124821166D02*
X169978450Y-124743845D01*
X169978450Y-124743845D02*
X169949990Y-124682811D01*
X169949990Y-124682811D02*
X169937816Y-124577030D01*
X169937816Y-124577030D02*
X169970389Y-124487536D01*
X169970389Y-124487536D02*
X170047710Y-124414328D01*
X170047710Y-124414328D02*
X170108744Y-124385867D01*
X170108744Y-124385867D02*
X170214525Y-124373693D01*
X170214525Y-124373693D02*
X170409801Y-124394093D01*
X170409801Y-124394093D02*
X170515582Y-124381919D01*
X170515582Y-124381919D02*
X170576616Y-124353458D01*
X170576616Y-124353458D02*
X170653936Y-124280250D01*
X170653936Y-124280250D02*
X170686510Y-124190756D01*
X170686510Y-124190756D02*
X170674336Y-124084974D01*
X170674336Y-124084974D02*
X170645875Y-124023940D01*
X170645875Y-124023940D02*
X170572667Y-123946620D01*
X170572667Y-123946620D02*
X170348931Y-123865187D01*
X170348931Y-123865187D02*
X170198403Y-123861074D01*
X169901458Y-123702320D02*
X169335702Y-124560579D01*
X169335702Y-124560579D02*
X169401013Y-123824223D01*
X169401013Y-123824223D02*
X168977724Y-124430286D01*
X168977724Y-124430286D02*
X169096008Y-123409160D01*
X167903789Y-124039406D02*
X168440757Y-124234846D01*
X168172273Y-124137126D02*
X168514293Y-123197433D01*
X168514293Y-123197433D02*
X168554928Y-123364248D01*
X168554928Y-123364248D02*
X168611849Y-123486316D01*
X168611849Y-123486316D02*
X168685057Y-123563637D01*
X167932579Y-122985706D02*
X167306117Y-122757693D01*
X167306117Y-122757693D02*
X167366822Y-123843965D01*
X133079522Y-64015881D02*
X132936665Y-64063500D01*
X132936665Y-64063500D02*
X132698570Y-64063500D01*
X132698570Y-64063500D02*
X132603332Y-64015881D01*
X132603332Y-64015881D02*
X132555713Y-63968261D01*
X132555713Y-63968261D02*
X132508094Y-63873023D01*
X132508094Y-63873023D02*
X132508094Y-63777785D01*
X132508094Y-63777785D02*
X132555713Y-63682547D01*
X132555713Y-63682547D02*
X132603332Y-63634928D01*
X132603332Y-63634928D02*
X132698570Y-63587309D01*
X132698570Y-63587309D02*
X132889046Y-63539690D01*
X132889046Y-63539690D02*
X132984284Y-63492071D01*
X132984284Y-63492071D02*
X133031903Y-63444452D01*
X133031903Y-63444452D02*
X133079522Y-63349214D01*
X133079522Y-63349214D02*
X133079522Y-63253976D01*
X133079522Y-63253976D02*
X133031903Y-63158738D01*
X133031903Y-63158738D02*
X132984284Y-63111119D01*
X132984284Y-63111119D02*
X132889046Y-63063500D01*
X132889046Y-63063500D02*
X132650951Y-63063500D01*
X132650951Y-63063500D02*
X132508094Y-63111119D01*
X132174760Y-63063500D02*
X131936665Y-64063500D01*
X131936665Y-64063500D02*
X131746189Y-63349214D01*
X131746189Y-63349214D02*
X131555713Y-64063500D01*
X131555713Y-64063500D02*
X131317618Y-63063500D01*
X131031903Y-63063500D02*
X130412856Y-63063500D01*
X130412856Y-63063500D02*
X130746189Y-63444452D01*
X130746189Y-63444452D02*
X130603332Y-63444452D01*
X130603332Y-63444452D02*
X130508094Y-63492071D01*
X130508094Y-63492071D02*
X130460475Y-63539690D01*
X130460475Y-63539690D02*
X130412856Y-63634928D01*
X130412856Y-63634928D02*
X130412856Y-63873023D01*
X130412856Y-63873023D02*
X130460475Y-63968261D01*
X130460475Y-63968261D02*
X130508094Y-64015881D01*
X130508094Y-64015881D02*
X130603332Y-64063500D01*
X130603332Y-64063500D02*
X130889046Y-64063500D01*
X130889046Y-64063500D02*
X130984284Y-64015881D01*
X130984284Y-64015881D02*
X131031903Y-63968261D01*
X151855513Y-100315881D02*
X151712656Y-100363500D01*
X151712656Y-100363500D02*
X151474561Y-100363500D01*
X151474561Y-100363500D02*
X151379323Y-100315881D01*
X151379323Y-100315881D02*
X151331704Y-100268261D01*
X151331704Y-100268261D02*
X151284085Y-100173023D01*
X151284085Y-100173023D02*
X151284085Y-100077785D01*
X151284085Y-100077785D02*
X151331704Y-99982547D01*
X151331704Y-99982547D02*
X151379323Y-99934928D01*
X151379323Y-99934928D02*
X151474561Y-99887309D01*
X151474561Y-99887309D02*
X151665037Y-99839690D01*
X151665037Y-99839690D02*
X151760275Y-99792071D01*
X151760275Y-99792071D02*
X151807894Y-99744452D01*
X151807894Y-99744452D02*
X151855513Y-99649214D01*
X151855513Y-99649214D02*
X151855513Y-99553976D01*
X151855513Y-99553976D02*
X151807894Y-99458738D01*
X151807894Y-99458738D02*
X151760275Y-99411119D01*
X151760275Y-99411119D02*
X151665037Y-99363500D01*
X151665037Y-99363500D02*
X151426942Y-99363500D01*
X151426942Y-99363500D02*
X151284085Y-99411119D01*
X150950751Y-99363500D02*
X150712656Y-100363500D01*
X150712656Y-100363500D02*
X150522180Y-99649214D01*
X150522180Y-99649214D02*
X150331704Y-100363500D01*
X150331704Y-100363500D02*
X150093609Y-99363500D01*
X149188847Y-100363500D02*
X149760275Y-100363500D01*
X149474561Y-100363500D02*
X149474561Y-99363500D01*
X149474561Y-99363500D02*
X149569799Y-99506357D01*
X149569799Y-99506357D02*
X149665037Y-99601595D01*
X149665037Y-99601595D02*
X149760275Y-99649214D01*
X148331704Y-99696833D02*
X148331704Y-100363500D01*
X148569799Y-99315881D02*
X148807894Y-100030166D01*
X148807894Y-100030166D02*
X148188847Y-100030166D01*
X151379322Y-83315881D02*
X151236465Y-83363500D01*
X151236465Y-83363500D02*
X150998370Y-83363500D01*
X150998370Y-83363500D02*
X150903132Y-83315881D01*
X150903132Y-83315881D02*
X150855513Y-83268261D01*
X150855513Y-83268261D02*
X150807894Y-83173023D01*
X150807894Y-83173023D02*
X150807894Y-83077785D01*
X150807894Y-83077785D02*
X150855513Y-82982547D01*
X150855513Y-82982547D02*
X150903132Y-82934928D01*
X150903132Y-82934928D02*
X150998370Y-82887309D01*
X150998370Y-82887309D02*
X151188846Y-82839690D01*
X151188846Y-82839690D02*
X151284084Y-82792071D01*
X151284084Y-82792071D02*
X151331703Y-82744452D01*
X151331703Y-82744452D02*
X151379322Y-82649214D01*
X151379322Y-82649214D02*
X151379322Y-82553976D01*
X151379322Y-82553976D02*
X151331703Y-82458738D01*
X151331703Y-82458738D02*
X151284084Y-82411119D01*
X151284084Y-82411119D02*
X151188846Y-82363500D01*
X151188846Y-82363500D02*
X150950751Y-82363500D01*
X150950751Y-82363500D02*
X150807894Y-82411119D01*
X150474560Y-82363500D02*
X150236465Y-83363500D01*
X150236465Y-83363500D02*
X150045989Y-82649214D01*
X150045989Y-82649214D02*
X149855513Y-83363500D01*
X149855513Y-83363500D02*
X149617418Y-82363500D01*
X149188846Y-83363500D02*
X148998370Y-83363500D01*
X148998370Y-83363500D02*
X148903132Y-83315881D01*
X148903132Y-83315881D02*
X148855513Y-83268261D01*
X148855513Y-83268261D02*
X148760275Y-83125404D01*
X148760275Y-83125404D02*
X148712656Y-82934928D01*
X148712656Y-82934928D02*
X148712656Y-82553976D01*
X148712656Y-82553976D02*
X148760275Y-82458738D01*
X148760275Y-82458738D02*
X148807894Y-82411119D01*
X148807894Y-82411119D02*
X148903132Y-82363500D01*
X148903132Y-82363500D02*
X149093608Y-82363500D01*
X149093608Y-82363500D02*
X149188846Y-82411119D01*
X149188846Y-82411119D02*
X149236465Y-82458738D01*
X149236465Y-82458738D02*
X149284084Y-82553976D01*
X149284084Y-82553976D02*
X149284084Y-82792071D01*
X149284084Y-82792071D02*
X149236465Y-82887309D01*
X149236465Y-82887309D02*
X149188846Y-82934928D01*
X149188846Y-82934928D02*
X149093608Y-82982547D01*
X149093608Y-82982547D02*
X148903132Y-82982547D01*
X148903132Y-82982547D02*
X148807894Y-82934928D01*
X148807894Y-82934928D02*
X148760275Y-82887309D01*
X148760275Y-82887309D02*
X148712656Y-82792071D01*
X96479922Y-87715881D02*
X96337065Y-87763500D01*
X96337065Y-87763500D02*
X96098970Y-87763500D01*
X96098970Y-87763500D02*
X96003732Y-87715881D01*
X96003732Y-87715881D02*
X95956113Y-87668261D01*
X95956113Y-87668261D02*
X95908494Y-87573023D01*
X95908494Y-87573023D02*
X95908494Y-87477785D01*
X95908494Y-87477785D02*
X95956113Y-87382547D01*
X95956113Y-87382547D02*
X96003732Y-87334928D01*
X96003732Y-87334928D02*
X96098970Y-87287309D01*
X96098970Y-87287309D02*
X96289446Y-87239690D01*
X96289446Y-87239690D02*
X96384684Y-87192071D01*
X96384684Y-87192071D02*
X96432303Y-87144452D01*
X96432303Y-87144452D02*
X96479922Y-87049214D01*
X96479922Y-87049214D02*
X96479922Y-86953976D01*
X96479922Y-86953976D02*
X96432303Y-86858738D01*
X96432303Y-86858738D02*
X96384684Y-86811119D01*
X96384684Y-86811119D02*
X96289446Y-86763500D01*
X96289446Y-86763500D02*
X96051351Y-86763500D01*
X96051351Y-86763500D02*
X95908494Y-86811119D01*
X95575160Y-86763500D02*
X95337065Y-87763500D01*
X95337065Y-87763500D02*
X95146589Y-87049214D01*
X95146589Y-87049214D02*
X94956113Y-87763500D01*
X94956113Y-87763500D02*
X94718018Y-86763500D01*
X93908494Y-86763500D02*
X94098970Y-86763500D01*
X94098970Y-86763500D02*
X94194208Y-86811119D01*
X94194208Y-86811119D02*
X94241827Y-86858738D01*
X94241827Y-86858738D02*
X94337065Y-87001595D01*
X94337065Y-87001595D02*
X94384684Y-87192071D01*
X94384684Y-87192071D02*
X94384684Y-87573023D01*
X94384684Y-87573023D02*
X94337065Y-87668261D01*
X94337065Y-87668261D02*
X94289446Y-87715881D01*
X94289446Y-87715881D02*
X94194208Y-87763500D01*
X94194208Y-87763500D02*
X94003732Y-87763500D01*
X94003732Y-87763500D02*
X93908494Y-87715881D01*
X93908494Y-87715881D02*
X93860875Y-87668261D01*
X93860875Y-87668261D02*
X93813256Y-87573023D01*
X93813256Y-87573023D02*
X93813256Y-87334928D01*
X93813256Y-87334928D02*
X93860875Y-87239690D01*
X93860875Y-87239690D02*
X93908494Y-87192071D01*
X93908494Y-87192071D02*
X94003732Y-87144452D01*
X94003732Y-87144452D02*
X94194208Y-87144452D01*
X94194208Y-87144452D02*
X94289446Y-87192071D01*
X94289446Y-87192071D02*
X94337065Y-87239690D01*
X94337065Y-87239690D02*
X94384684Y-87334928D01*
X96479922Y-68815881D02*
X96337065Y-68863500D01*
X96337065Y-68863500D02*
X96098970Y-68863500D01*
X96098970Y-68863500D02*
X96003732Y-68815881D01*
X96003732Y-68815881D02*
X95956113Y-68768261D01*
X95956113Y-68768261D02*
X95908494Y-68673023D01*
X95908494Y-68673023D02*
X95908494Y-68577785D01*
X95908494Y-68577785D02*
X95956113Y-68482547D01*
X95956113Y-68482547D02*
X96003732Y-68434928D01*
X96003732Y-68434928D02*
X96098970Y-68387309D01*
X96098970Y-68387309D02*
X96289446Y-68339690D01*
X96289446Y-68339690D02*
X96384684Y-68292071D01*
X96384684Y-68292071D02*
X96432303Y-68244452D01*
X96432303Y-68244452D02*
X96479922Y-68149214D01*
X96479922Y-68149214D02*
X96479922Y-68053976D01*
X96479922Y-68053976D02*
X96432303Y-67958738D01*
X96432303Y-67958738D02*
X96384684Y-67911119D01*
X96384684Y-67911119D02*
X96289446Y-67863500D01*
X96289446Y-67863500D02*
X96051351Y-67863500D01*
X96051351Y-67863500D02*
X95908494Y-67911119D01*
X95575160Y-67863500D02*
X95337065Y-68863500D01*
X95337065Y-68863500D02*
X95146589Y-68149214D01*
X95146589Y-68149214D02*
X94956113Y-68863500D01*
X94956113Y-68863500D02*
X94718018Y-67863500D01*
X93813256Y-68863500D02*
X94384684Y-68863500D01*
X94098970Y-68863500D02*
X94098970Y-67863500D01*
X94098970Y-67863500D02*
X94194208Y-68006357D01*
X94194208Y-68006357D02*
X94289446Y-68101595D01*
X94289446Y-68101595D02*
X94384684Y-68149214D01*
X170155313Y-103855481D02*
X170012456Y-103903100D01*
X170012456Y-103903100D02*
X169774361Y-103903100D01*
X169774361Y-103903100D02*
X169679123Y-103855481D01*
X169679123Y-103855481D02*
X169631504Y-103807861D01*
X169631504Y-103807861D02*
X169583885Y-103712623D01*
X169583885Y-103712623D02*
X169583885Y-103617385D01*
X169583885Y-103617385D02*
X169631504Y-103522147D01*
X169631504Y-103522147D02*
X169679123Y-103474528D01*
X169679123Y-103474528D02*
X169774361Y-103426909D01*
X169774361Y-103426909D02*
X169964837Y-103379290D01*
X169964837Y-103379290D02*
X170060075Y-103331671D01*
X170060075Y-103331671D02*
X170107694Y-103284052D01*
X170107694Y-103284052D02*
X170155313Y-103188814D01*
X170155313Y-103188814D02*
X170155313Y-103093576D01*
X170155313Y-103093576D02*
X170107694Y-102998338D01*
X170107694Y-102998338D02*
X170060075Y-102950719D01*
X170060075Y-102950719D02*
X169964837Y-102903100D01*
X169964837Y-102903100D02*
X169726742Y-102903100D01*
X169726742Y-102903100D02*
X169583885Y-102950719D01*
X169250551Y-102903100D02*
X169012456Y-103903100D01*
X169012456Y-103903100D02*
X168821980Y-103188814D01*
X168821980Y-103188814D02*
X168631504Y-103903100D01*
X168631504Y-103903100D02*
X168393409Y-102903100D01*
X167488647Y-103903100D02*
X168060075Y-103903100D01*
X167774361Y-103903100D02*
X167774361Y-102903100D01*
X167774361Y-102903100D02*
X167869599Y-103045957D01*
X167869599Y-103045957D02*
X167964837Y-103141195D01*
X167964837Y-103141195D02*
X168060075Y-103188814D01*
X166583885Y-102903100D02*
X167060075Y-102903100D01*
X167060075Y-102903100D02*
X167107694Y-103379290D01*
X167107694Y-103379290D02*
X167060075Y-103331671D01*
X167060075Y-103331671D02*
X166964837Y-103284052D01*
X166964837Y-103284052D02*
X166726742Y-103284052D01*
X166726742Y-103284052D02*
X166631504Y-103331671D01*
X166631504Y-103331671D02*
X166583885Y-103379290D01*
X166583885Y-103379290D02*
X166536266Y-103474528D01*
X166536266Y-103474528D02*
X166536266Y-103712623D01*
X166536266Y-103712623D02*
X166583885Y-103807861D01*
X166583885Y-103807861D02*
X166631504Y-103855481D01*
X166631504Y-103855481D02*
X166726742Y-103903100D01*
X166726742Y-103903100D02*
X166964837Y-103903100D01*
X166964837Y-103903100D02*
X167060075Y-103855481D01*
X167060075Y-103855481D02*
X167107694Y-103807861D01*
X183201955Y-76007981D02*
X183201955Y-76817504D01*
X183201955Y-76817504D02*
X183154336Y-76912742D01*
X183154336Y-76912742D02*
X183106717Y-76960362D01*
X183106717Y-76960362D02*
X183011479Y-77007981D01*
X183011479Y-77007981D02*
X182821003Y-77007981D01*
X182821003Y-77007981D02*
X182725765Y-76960362D01*
X182725765Y-76960362D02*
X182678146Y-76912742D01*
X182678146Y-76912742D02*
X182630527Y-76817504D01*
X182630527Y-76817504D02*
X182630527Y-76007981D01*
X181630527Y-77007981D02*
X182201955Y-77007981D01*
X181916241Y-77007981D02*
X181916241Y-76007981D01*
X181916241Y-76007981D02*
X182011479Y-76150838D01*
X182011479Y-76150838D02*
X182106717Y-76246076D01*
X182106717Y-76246076D02*
X182201955Y-76293695D01*
X150406270Y-119246850D02*
X150257314Y-119268938D01*
X150257314Y-119268938D02*
X150022836Y-119227594D01*
X150022836Y-119227594D02*
X149937314Y-119164160D01*
X149937314Y-119164160D02*
X149898687Y-119108996D01*
X149898687Y-119108996D02*
X149868330Y-119006935D01*
X149868330Y-119006935D02*
X149884868Y-118913144D01*
X149884868Y-118913144D02*
X149948301Y-118827622D01*
X149948301Y-118827622D02*
X150003466Y-118788995D01*
X150003466Y-118788995D02*
X150105526Y-118758638D01*
X150105526Y-118758638D02*
X150301377Y-118744818D01*
X150301377Y-118744818D02*
X150403437Y-118714460D01*
X150403437Y-118714460D02*
X150458602Y-118675833D01*
X150458602Y-118675833D02*
X150522035Y-118590311D01*
X150522035Y-118590311D02*
X150538573Y-118496520D01*
X150538573Y-118496520D02*
X150508216Y-118394460D01*
X150508216Y-118394460D02*
X150469589Y-118339295D01*
X150469589Y-118339295D02*
X150384067Y-118275862D01*
X150384067Y-118275862D02*
X150149589Y-118234517D01*
X150149589Y-118234517D02*
X150000633Y-118256606D01*
X149680633Y-118151827D02*
X149272506Y-119095290D01*
X149272506Y-119095290D02*
X149208958Y-118358780D01*
X149208958Y-118358780D02*
X148897342Y-119029139D01*
X148897342Y-119029139D02*
X148836512Y-118002986D01*
X147771847Y-118830684D02*
X148334594Y-118929911D01*
X148053221Y-118880297D02*
X148226869Y-117895490D01*
X148226869Y-117895490D02*
X148295853Y-118052714D01*
X148295853Y-118052714D02*
X148373107Y-118163043D01*
X148373107Y-118163043D02*
X148458629Y-118226477D01*
X147101374Y-117697034D02*
X147288957Y-117730110D01*
X147288957Y-117730110D02*
X147374479Y-117793544D01*
X147374479Y-117793544D02*
X147413106Y-117848708D01*
X147413106Y-117848708D02*
X147482090Y-118005933D01*
X147482090Y-118005933D02*
X147495910Y-118201785D01*
X147495910Y-118201785D02*
X147429758Y-118576949D01*
X147429758Y-118576949D02*
X147366325Y-118662472D01*
X147366325Y-118662472D02*
X147311160Y-118701098D01*
X147311160Y-118701098D02*
X147209100Y-118731456D01*
X147209100Y-118731456D02*
X147021517Y-118698380D01*
X147021517Y-118698380D02*
X146935995Y-118634947D01*
X146935995Y-118634947D02*
X146897369Y-118579782D01*
X146897369Y-118579782D02*
X146867011Y-118477722D01*
X146867011Y-118477722D02*
X146908356Y-118243244D01*
X146908356Y-118243244D02*
X146971789Y-118157722D01*
X146971789Y-118157722D02*
X147026954Y-118119095D01*
X147026954Y-118119095D02*
X147129014Y-118088737D01*
X147129014Y-118088737D02*
X147316596Y-118121813D01*
X147316596Y-118121813D02*
X147402119Y-118185247D01*
X147402119Y-118185247D02*
X147440745Y-118240411D01*
X147440745Y-118240411D02*
X147471103Y-118342471D01*
X169679122Y-69855481D02*
X169536265Y-69903100D01*
X169536265Y-69903100D02*
X169298170Y-69903100D01*
X169298170Y-69903100D02*
X169202932Y-69855481D01*
X169202932Y-69855481D02*
X169155313Y-69807861D01*
X169155313Y-69807861D02*
X169107694Y-69712623D01*
X169107694Y-69712623D02*
X169107694Y-69617385D01*
X169107694Y-69617385D02*
X169155313Y-69522147D01*
X169155313Y-69522147D02*
X169202932Y-69474528D01*
X169202932Y-69474528D02*
X169298170Y-69426909D01*
X169298170Y-69426909D02*
X169488646Y-69379290D01*
X169488646Y-69379290D02*
X169583884Y-69331671D01*
X169583884Y-69331671D02*
X169631503Y-69284052D01*
X169631503Y-69284052D02*
X169679122Y-69188814D01*
X169679122Y-69188814D02*
X169679122Y-69093576D01*
X169679122Y-69093576D02*
X169631503Y-68998338D01*
X169631503Y-68998338D02*
X169583884Y-68950719D01*
X169583884Y-68950719D02*
X169488646Y-68903100D01*
X169488646Y-68903100D02*
X169250551Y-68903100D01*
X169250551Y-68903100D02*
X169107694Y-68950719D01*
X168774360Y-68903100D02*
X168536265Y-69903100D01*
X168536265Y-69903100D02*
X168345789Y-69188814D01*
X168345789Y-69188814D02*
X168155313Y-69903100D01*
X168155313Y-69903100D02*
X167917218Y-68903100D01*
X167060075Y-68903100D02*
X167536265Y-68903100D01*
X167536265Y-68903100D02*
X167583884Y-69379290D01*
X167583884Y-69379290D02*
X167536265Y-69331671D01*
X167536265Y-69331671D02*
X167441027Y-69284052D01*
X167441027Y-69284052D02*
X167202932Y-69284052D01*
X167202932Y-69284052D02*
X167107694Y-69331671D01*
X167107694Y-69331671D02*
X167060075Y-69379290D01*
X167060075Y-69379290D02*
X167012456Y-69474528D01*
X167012456Y-69474528D02*
X167012456Y-69712623D01*
X167012456Y-69712623D02*
X167060075Y-69807861D01*
X167060075Y-69807861D02*
X167107694Y-69855481D01*
X167107694Y-69855481D02*
X167202932Y-69903100D01*
X167202932Y-69903100D02*
X167441027Y-69903100D01*
X167441027Y-69903100D02*
X167536265Y-69855481D01*
X167536265Y-69855481D02*
X167583884Y-69807861D01*
X170155313Y-86855481D02*
X170012456Y-86903100D01*
X170012456Y-86903100D02*
X169774361Y-86903100D01*
X169774361Y-86903100D02*
X169679123Y-86855481D01*
X169679123Y-86855481D02*
X169631504Y-86807861D01*
X169631504Y-86807861D02*
X169583885Y-86712623D01*
X169583885Y-86712623D02*
X169583885Y-86617385D01*
X169583885Y-86617385D02*
X169631504Y-86522147D01*
X169631504Y-86522147D02*
X169679123Y-86474528D01*
X169679123Y-86474528D02*
X169774361Y-86426909D01*
X169774361Y-86426909D02*
X169964837Y-86379290D01*
X169964837Y-86379290D02*
X170060075Y-86331671D01*
X170060075Y-86331671D02*
X170107694Y-86284052D01*
X170107694Y-86284052D02*
X170155313Y-86188814D01*
X170155313Y-86188814D02*
X170155313Y-86093576D01*
X170155313Y-86093576D02*
X170107694Y-85998338D01*
X170107694Y-85998338D02*
X170060075Y-85950719D01*
X170060075Y-85950719D02*
X169964837Y-85903100D01*
X169964837Y-85903100D02*
X169726742Y-85903100D01*
X169726742Y-85903100D02*
X169583885Y-85950719D01*
X169250551Y-85903100D02*
X169012456Y-86903100D01*
X169012456Y-86903100D02*
X168821980Y-86188814D01*
X168821980Y-86188814D02*
X168631504Y-86903100D01*
X168631504Y-86903100D02*
X168393409Y-85903100D01*
X167488647Y-86903100D02*
X168060075Y-86903100D01*
X167774361Y-86903100D02*
X167774361Y-85903100D01*
X167774361Y-85903100D02*
X167869599Y-86045957D01*
X167869599Y-86045957D02*
X167964837Y-86141195D01*
X167964837Y-86141195D02*
X168060075Y-86188814D01*
X166869599Y-85903100D02*
X166774361Y-85903100D01*
X166774361Y-85903100D02*
X166679123Y-85950719D01*
X166679123Y-85950719D02*
X166631504Y-85998338D01*
X166631504Y-85998338D02*
X166583885Y-86093576D01*
X166583885Y-86093576D02*
X166536266Y-86284052D01*
X166536266Y-86284052D02*
X166536266Y-86522147D01*
X166536266Y-86522147D02*
X166583885Y-86712623D01*
X166583885Y-86712623D02*
X166631504Y-86807861D01*
X166631504Y-86807861D02*
X166679123Y-86855481D01*
X166679123Y-86855481D02*
X166774361Y-86903100D01*
X166774361Y-86903100D02*
X166869599Y-86903100D01*
X166869599Y-86903100D02*
X166964837Y-86855481D01*
X166964837Y-86855481D02*
X167012456Y-86807861D01*
X167012456Y-86807861D02*
X167060075Y-86712623D01*
X167060075Y-86712623D02*
X167107694Y-86522147D01*
X167107694Y-86522147D02*
X167107694Y-86284052D01*
X167107694Y-86284052D02*
X167060075Y-86093576D01*
X167060075Y-86093576D02*
X167012456Y-85998338D01*
X167012456Y-85998338D02*
X166964837Y-85950719D01*
X166964837Y-85950719D02*
X166869599Y-85903100D01*
X179693551Y-123042981D02*
X178753858Y-122700961D01*
X178753858Y-122700961D02*
X178623565Y-123058939D01*
X178623565Y-123058939D02*
X178635739Y-123164721D01*
X178635739Y-123164721D02*
X178664199Y-123225754D01*
X178664199Y-123225754D02*
X178737407Y-123303075D01*
X178737407Y-123303075D02*
X178871649Y-123351935D01*
X178871649Y-123351935D02*
X178977430Y-123339761D01*
X178977430Y-123339761D02*
X179038464Y-123311301D01*
X179038464Y-123311301D02*
X179115785Y-123238093D01*
X179115785Y-123238093D02*
X179246078Y-122880115D01*
X178444411Y-123551159D02*
X179302671Y-124116916D01*
X179302671Y-124116916D02*
X178566315Y-124051605D01*
X178566315Y-124051605D02*
X179172377Y-124474894D01*
X179172377Y-124474894D02*
X178151251Y-124356610D01*
X178765210Y-125593575D02*
X178431745Y-125117478D01*
X178960651Y-125056608D02*
X178020958Y-124714588D01*
X178020958Y-124714588D02*
X177890665Y-125072566D01*
X177890665Y-125072566D02*
X177902838Y-125178347D01*
X177902838Y-125178347D02*
X177931299Y-125239381D01*
X177931299Y-125239381D02*
X178004507Y-125316702D01*
X178004507Y-125316702D02*
X178138749Y-125365562D01*
X178138749Y-125365562D02*
X178244530Y-125353388D01*
X178244530Y-125353388D02*
X178305564Y-125324927D01*
X178305564Y-125324927D02*
X178382885Y-125251720D01*
X178382885Y-125251720D02*
X178513178Y-124893741D01*
X178789558Y-125805138D02*
X178528972Y-126521094D01*
X178329583Y-126651223D02*
X178325470Y-126801752D01*
X178325470Y-126801752D02*
X178244037Y-127025488D01*
X178244037Y-127025488D02*
X178166716Y-127098696D01*
X178166716Y-127098696D02*
X178105682Y-127127157D01*
X178105682Y-127127157D02*
X177999901Y-127139331D01*
X177999901Y-127139331D02*
X177910407Y-127106757D01*
X177910407Y-127106757D02*
X177837199Y-127029437D01*
X177837199Y-127029437D02*
X177808738Y-126968403D01*
X177808738Y-126968403D02*
X177796564Y-126862621D01*
X177796564Y-126862621D02*
X177816964Y-126667346D01*
X177816964Y-126667346D02*
X177804790Y-126561565D01*
X177804790Y-126561565D02*
X177776329Y-126500531D01*
X177776329Y-126500531D02*
X177703121Y-126423210D01*
X177703121Y-126423210D02*
X177613627Y-126390637D01*
X177613627Y-126390637D02*
X177507845Y-126402811D01*
X177507845Y-126402811D02*
X177446812Y-126431271D01*
X177446812Y-126431271D02*
X177369491Y-126504479D01*
X177369491Y-126504479D02*
X177288058Y-126728215D01*
X177288058Y-126728215D02*
X177283945Y-126878744D01*
X177125191Y-127175688D02*
X177983450Y-127741445D01*
X177983450Y-127741445D02*
X177247094Y-127676134D01*
X177247094Y-127676134D02*
X177853157Y-128099423D01*
X177853157Y-128099423D02*
X176832031Y-127981139D01*
X177812358Y-128489974D02*
X177551771Y-129205930D01*
X176546932Y-129042899D02*
X176485898Y-129071360D01*
X176485898Y-129071360D02*
X176408577Y-129144568D01*
X176408577Y-129144568D02*
X176327144Y-129368304D01*
X176327144Y-129368304D02*
X176339318Y-129474085D01*
X176339318Y-129474085D02*
X176367778Y-129535119D01*
X176367778Y-129535119D02*
X176440986Y-129612440D01*
X176440986Y-129612440D02*
X176530481Y-129645013D01*
X176530481Y-129645013D02*
X176681009Y-129649126D01*
X176681009Y-129649126D02*
X177413416Y-129307599D01*
X177413416Y-129307599D02*
X177201690Y-129889313D01*
D11*
X169345590Y-83648681D02*
X166945590Y-83648681D01*
X166945590Y-83648681D02*
X166945590Y-89648681D01*
X166945590Y-89648681D02*
X169345590Y-89648681D01*
X169345590Y-89648681D02*
X169345590Y-83648681D01*
X169345590Y-89648681D02*
X166945590Y-89648681D01*
X166945590Y-89090281D01*
X169345590Y-89090281D01*
X169345590Y-89648681D01*
G36*
X169345590Y-89648681D02*
G01*
X166945590Y-89648681D01*
X166945590Y-89090281D01*
X169345590Y-89090281D01*
X169345590Y-89648681D01*
G37*
D10*
X105460390Y-87208681D02*
X105460390Y-89808681D01*
X105460390Y-87208681D02*
X106485390Y-86183681D01*
X109035390Y-86183681D02*
X106485390Y-86183681D01*
X114060390Y-93033681D02*
X111460390Y-93033681D01*
X115060390Y-89383681D02*
X115060390Y-92033681D01*
X114060390Y-93033681D02*
G75*
G03*
X115060390Y-92033681I0J1000000D01*
G01*
D11*
X132946190Y-77809081D02*
X130546190Y-77809081D01*
X130546190Y-77809081D02*
X130546190Y-83809081D01*
X130546190Y-83809081D02*
X132946190Y-83809081D01*
X132946190Y-83809081D02*
X132946190Y-77809081D01*
X132946190Y-83809081D02*
X130546190Y-83809081D01*
X130546190Y-83250681D01*
X132946190Y-83250681D01*
X132946190Y-83809081D01*
G36*
X132946190Y-83809081D02*
G01*
X130546190Y-83809081D01*
X130546190Y-83250681D01*
X132946190Y-83250681D01*
X132946190Y-83809081D01*
G37*
X96346590Y-84509081D02*
X93946590Y-84509081D01*
X93946590Y-84509081D02*
X93946590Y-90509081D01*
X93946590Y-90509081D02*
X96346590Y-90509081D01*
X96346590Y-90509081D02*
X96346590Y-84509081D01*
X96346590Y-90509081D02*
X93946590Y-90509081D01*
X93946590Y-89950681D01*
X96346590Y-89950681D01*
X96346590Y-90509081D01*
G36*
X96346590Y-90509081D02*
G01*
X93946590Y-90509081D01*
X93946590Y-89950681D01*
X96346590Y-89950681D01*
X96346590Y-90509081D01*
G37*
D10*
X123760190Y-68708681D02*
X123760190Y-71308681D01*
X123760190Y-68708681D02*
X124785190Y-67683681D01*
X127335190Y-67683681D02*
X124785190Y-67683681D01*
X132360190Y-74533681D02*
X129760190Y-74533681D01*
X133360190Y-70883681D02*
X133360190Y-73533681D01*
X132360190Y-74533681D02*
G75*
G03*
X133360190Y-73533681I0J1000000D01*
G01*
X105460390Y-70208681D02*
X105460390Y-72808681D01*
X105460390Y-70208681D02*
X106485390Y-69183681D01*
X109035390Y-69183681D02*
X106485390Y-69183681D01*
X114060390Y-76033681D02*
X111460390Y-76033681D01*
X115060390Y-72383681D02*
X115060390Y-75033681D01*
X114060390Y-76033681D02*
G75*
G03*
X115060390Y-75033681I0J1000000D01*
G01*
X123760190Y-85708681D02*
X123760190Y-88308681D01*
X123760190Y-85708681D02*
X124785190Y-84683681D01*
X127335190Y-84683681D02*
X124785190Y-84683681D01*
X132360190Y-91533681D02*
X129760190Y-91533681D01*
X133360190Y-87883681D02*
X133360190Y-90533681D01*
X132360190Y-91533681D02*
G75*
G03*
X133360190Y-90533681I0J1000000D01*
G01*
D11*
X114646390Y-96309081D02*
X112246390Y-96309081D01*
X112246390Y-96309081D02*
X112246390Y-102309081D01*
X112246390Y-102309081D02*
X114646390Y-102309081D01*
X114646390Y-102309081D02*
X114646390Y-96309081D01*
X114646390Y-102309081D02*
X112246390Y-102309081D01*
X112246390Y-101750681D01*
X114646390Y-101750681D01*
X114646390Y-102309081D01*
G36*
X114646390Y-102309081D02*
G01*
X112246390Y-102309081D01*
X112246390Y-101750681D01*
X114646390Y-101750681D01*
X114646390Y-102309081D01*
G37*
X114446190Y-79309081D02*
X112046190Y-79309081D01*
X112046190Y-79309081D02*
X112046190Y-85309081D01*
X112046190Y-85309081D02*
X114446190Y-85309081D01*
X114446190Y-85309081D02*
X114446190Y-79309081D01*
X114446190Y-85309081D02*
X112046190Y-85309081D01*
X112046190Y-84750681D01*
X114446190Y-84750681D01*
X114446190Y-85309081D01*
G36*
X114446190Y-85309081D02*
G01*
X112046190Y-85309081D01*
X112046190Y-84750681D01*
X114446190Y-84750681D01*
X114446190Y-85309081D01*
G37*
D10*
X105460390Y-53208681D02*
X105460390Y-55808681D01*
X105460390Y-53208681D02*
X106485390Y-52183681D01*
X109035390Y-52183681D02*
X106485390Y-52183681D01*
X114060390Y-59033681D02*
X111460390Y-59033681D01*
X115060390Y-55383681D02*
X115060390Y-58033681D01*
X114060390Y-59033681D02*
G75*
G03*
X115060390Y-58033681I0J1000000D01*
G01*
D11*
X151045790Y-80109081D02*
X148645790Y-80109081D01*
X148645790Y-80109081D02*
X148645790Y-86109081D01*
X148645790Y-86109081D02*
X151045790Y-86109081D01*
X151045790Y-86109081D02*
X151045790Y-80109081D01*
X151045790Y-86109081D02*
X148645790Y-86109081D01*
X148645790Y-85550681D01*
X151045790Y-85550681D01*
X151045790Y-86109081D01*
G36*
X151045790Y-86109081D02*
G01*
X148645790Y-86109081D01*
X148645790Y-85550681D01*
X151045790Y-85550681D01*
X151045790Y-86109081D01*
G37*
D10*
X87160590Y-92408681D02*
X87160590Y-95008681D01*
X87160590Y-92408681D02*
X88185590Y-91383681D01*
X90735590Y-91383681D02*
X88185590Y-91383681D01*
X95760590Y-98233681D02*
X93160590Y-98233681D01*
X96760590Y-94583681D02*
X96760590Y-97233681D01*
X95760590Y-98233681D02*
G75*
G03*
X96760590Y-97233681I0J1000000D01*
G01*
X142059990Y-54008481D02*
X142059990Y-56608481D01*
X142059990Y-54008481D02*
X143084990Y-52983481D01*
X145634990Y-52983481D02*
X143084990Y-52983481D01*
X150659990Y-59833481D02*
X148059990Y-59833481D01*
X151659990Y-56183481D02*
X151659990Y-58833481D01*
X150659990Y-59833481D02*
G75*
G03*
X151659990Y-58833481I0J1000000D01*
G01*
D11*
X169345590Y-66648681D02*
X166945590Y-66648681D01*
X166945590Y-66648681D02*
X166945590Y-72648681D01*
X166945590Y-72648681D02*
X169345590Y-72648681D01*
X169345590Y-72648681D02*
X169345590Y-66648681D01*
X169345590Y-72648681D02*
X166945590Y-72648681D01*
X166945590Y-72090281D01*
X169345590Y-72090281D01*
X169345590Y-72648681D01*
G36*
X169345590Y-72648681D02*
G01*
X166945590Y-72648681D01*
X166945590Y-72090281D01*
X169345590Y-72090281D01*
X169345590Y-72648681D01*
G37*
D10*
X168550390Y-131452821D02*
X169439643Y-129009620D01*
X168550390Y-131452821D02*
X167236635Y-132065435D01*
X164840419Y-131193284D02*
X167236635Y-132065435D01*
X162461301Y-123037738D02*
X164904502Y-123926991D01*
X160273235Y-126125596D02*
X161179588Y-123635411D01*
X162461301Y-123037738D02*
G75*
G03*
X161179588Y-123635411I-342020J-939693D01*
G01*
D11*
X166935400Y-115907600D02*
X169335400Y-115907600D01*
X169335400Y-115907600D02*
X169335400Y-109907600D01*
X169335400Y-109907600D02*
X166935400Y-109907600D01*
X166935400Y-109907600D02*
X166935400Y-115907600D01*
X169335400Y-110466000D02*
X166935400Y-110466000D01*
X166935400Y-109907600D01*
X169335400Y-109907600D01*
X169335400Y-110466000D01*
G36*
X169335400Y-110466000D02*
G01*
X166935400Y-110466000D01*
X166935400Y-109907600D01*
X169335400Y-109907600D01*
X169335400Y-110466000D01*
G37*
D10*
X123760190Y-51708681D02*
X123760190Y-54308681D01*
X123760190Y-51708681D02*
X124785190Y-50683681D01*
X127335190Y-50683681D02*
X124785190Y-50683681D01*
X132360190Y-57533681D02*
X129760190Y-57533681D01*
X133360190Y-53883681D02*
X133360190Y-56533681D01*
X132360190Y-57533681D02*
G75*
G03*
X133360190Y-56533681I0J1000000D01*
G01*
D11*
X170453200Y-115907600D02*
X172853200Y-115907600D01*
X172853200Y-115907600D02*
X172853200Y-109907600D01*
X172853200Y-109907600D02*
X170453200Y-109907600D01*
X170453200Y-109907600D02*
X170453200Y-115907600D01*
X172853200Y-110466000D02*
X170453200Y-110466000D01*
X170453200Y-109907600D01*
X172853200Y-109907600D01*
X172853200Y-110466000D01*
G36*
X172853200Y-110466000D02*
G01*
X170453200Y-110466000D01*
X170453200Y-109907600D01*
X172853200Y-109907600D01*
X172853200Y-110466000D01*
G37*
X96146390Y-101509081D02*
X93746390Y-101509081D01*
X93746390Y-101509081D02*
X93746390Y-107509081D01*
X93746390Y-107509081D02*
X96146390Y-107509081D01*
X96146390Y-107509081D02*
X96146390Y-101509081D01*
X96146390Y-107509081D02*
X93746390Y-107509081D01*
X93746390Y-106950681D01*
X96146390Y-106950681D01*
X96146390Y-107509081D01*
G36*
X96146390Y-107509081D02*
G01*
X93746390Y-107509081D01*
X93746390Y-106950681D01*
X96146390Y-106950681D01*
X96146390Y-107509081D01*
G37*
D10*
X142059990Y-88008681D02*
X142059990Y-90608681D01*
X142059990Y-88008681D02*
X143084990Y-86983681D01*
X145634990Y-86983681D02*
X143084990Y-86983681D01*
X150659990Y-93833681D02*
X148059990Y-93833681D01*
X151659990Y-90183681D02*
X151659990Y-92833681D01*
X150659990Y-93833681D02*
G75*
G03*
X151659990Y-92833681I0J1000000D01*
G01*
X142059990Y-71008681D02*
X142059990Y-73608681D01*
X142059990Y-71008681D02*
X143084990Y-69983681D01*
X145634990Y-69983681D02*
X143084990Y-69983681D01*
X150659990Y-76833681D02*
X148059990Y-76833681D01*
X151659990Y-73183681D02*
X151659990Y-75833681D01*
X150659990Y-76833681D02*
G75*
G03*
X151659990Y-75833681I0J1000000D01*
G01*
D11*
X114446190Y-62309081D02*
X112046190Y-62309081D01*
X112046190Y-62309081D02*
X112046190Y-68309081D01*
X112046190Y-68309081D02*
X114446190Y-68309081D01*
X114446190Y-68309081D02*
X114446190Y-62309081D01*
X114446190Y-68309081D02*
X112046190Y-68309081D01*
X112046190Y-67750681D01*
X114446190Y-67750681D01*
X114446190Y-68309081D01*
G36*
X114446190Y-68309081D02*
G01*
X112046190Y-68309081D01*
X112046190Y-67750681D01*
X114446190Y-67750681D01*
X114446190Y-68309081D01*
G37*
D10*
X87160590Y-75408681D02*
X87160590Y-78008681D01*
X87160590Y-75408681D02*
X88185590Y-74383681D01*
X90735590Y-74383681D02*
X88185590Y-74383681D01*
X95760590Y-81233681D02*
X93160590Y-81233681D01*
X96760590Y-77583681D02*
X96760590Y-80233681D01*
X95760590Y-81233681D02*
G75*
G03*
X96760590Y-80233681I0J1000000D01*
G01*
D11*
X132745990Y-94809081D02*
X130345990Y-94809081D01*
X130345990Y-94809081D02*
X130345990Y-100809081D01*
X130345990Y-100809081D02*
X132745990Y-100809081D01*
X132745990Y-100809081D02*
X132745990Y-94809081D01*
X132745990Y-100809081D02*
X130345990Y-100809081D01*
X130345990Y-100250681D01*
X132745990Y-100250681D01*
X132745990Y-100809081D01*
G36*
X132745990Y-100809081D02*
G01*
X130345990Y-100809081D01*
X130345990Y-100250681D01*
X132745990Y-100250681D01*
X132745990Y-100809081D01*
G37*
D10*
X87160590Y-56508681D02*
X87160590Y-59108681D01*
X87160590Y-56508681D02*
X88185590Y-55483681D01*
X90735590Y-55483681D02*
X88185590Y-55483681D01*
X95760590Y-62333681D02*
X93160590Y-62333681D01*
X96760590Y-58683681D02*
X96760590Y-61333681D01*
X95760590Y-62333681D02*
G75*
G03*
X96760590Y-61333681I0J1000000D01*
G01*
D11*
X132745990Y-60809081D02*
X130345990Y-60809081D01*
X130345990Y-60809081D02*
X130345990Y-66809081D01*
X130345990Y-66809081D02*
X132745990Y-66809081D01*
X132745990Y-66809081D02*
X132745990Y-60809081D01*
X132745990Y-66809081D02*
X130345990Y-66809081D01*
X130345990Y-66250681D01*
X132745990Y-66250681D01*
X132745990Y-66809081D01*
G36*
X132745990Y-66809081D02*
G01*
X130345990Y-66809081D01*
X130345990Y-66250681D01*
X132745990Y-66250681D01*
X132745990Y-66809081D01*
G37*
D10*
X160359790Y-91548281D02*
X160359790Y-94148281D01*
X160359790Y-91548281D02*
X161384790Y-90523281D01*
X163934790Y-90523281D02*
X161384790Y-90523281D01*
X168959790Y-97373281D02*
X166359790Y-97373281D01*
X169959790Y-93723281D02*
X169959790Y-96373281D01*
X168959790Y-97373281D02*
G75*
G03*
X169959790Y-96373281I0J1000000D01*
G01*
X173540051Y-76282162D02*
X173540051Y-77282162D01*
X173540051Y-76282162D02*
X174490051Y-76282162D01*
X173540051Y-96170362D02*
X173540051Y-97170362D01*
X173540051Y-97170362D02*
X174550051Y-97170362D01*
X191340051Y-76282162D02*
X190340051Y-76282162D01*
X191340051Y-76282162D02*
X191340051Y-77282162D01*
X191340051Y-96120362D02*
X191340051Y-97170362D01*
X191340051Y-97170362D02*
X190340051Y-97170362D01*
X149695951Y-126019192D02*
X150147436Y-123458691D01*
X149695951Y-126019192D02*
X148508533Y-126850630D01*
X145997274Y-126407827D02*
X148508533Y-126850630D01*
X142238105Y-118789312D02*
X144798605Y-119240797D01*
X140619481Y-122210212D02*
X141079649Y-119600472D01*
X142238105Y-118789313D02*
G75*
G03*
X141079649Y-119600472I-173649J-984807D01*
G01*
D11*
X151045790Y-63108881D02*
X148645790Y-63108881D01*
X148645790Y-63108881D02*
X148645790Y-69108881D01*
X148645790Y-69108881D02*
X151045790Y-69108881D01*
X151045790Y-69108881D02*
X151045790Y-63108881D01*
X151045790Y-69108881D02*
X148645790Y-69108881D01*
X148645790Y-68550481D01*
X151045790Y-68550481D01*
X151045790Y-69108881D01*
G36*
X151045790Y-69108881D02*
G01*
X148645790Y-69108881D01*
X148645790Y-68550481D01*
X151045790Y-68550481D01*
X151045790Y-69108881D01*
G37*
X151245990Y-97109081D02*
X148845990Y-97109081D01*
X148845990Y-97109081D02*
X148845990Y-103109081D01*
X148845990Y-103109081D02*
X151245990Y-103109081D01*
X151245990Y-103109081D02*
X151245990Y-97109081D01*
X151245990Y-103109081D02*
X148845990Y-103109081D01*
X148845990Y-102550681D01*
X151245990Y-102550681D01*
X151245990Y-103109081D01*
G36*
X151245990Y-103109081D02*
G01*
X148845990Y-103109081D01*
X148845990Y-102550681D01*
X151245990Y-102550681D01*
X151245990Y-103109081D01*
G37*
X169345590Y-100648681D02*
X166945590Y-100648681D01*
X166945590Y-100648681D02*
X166945590Y-106648681D01*
X166945590Y-106648681D02*
X169345590Y-106648681D01*
X169345590Y-106648681D02*
X169345590Y-100648681D01*
X169345590Y-106648681D02*
X166945590Y-106648681D01*
X166945590Y-106090281D01*
X169345590Y-106090281D01*
X169345590Y-106648681D01*
G36*
X169345590Y-106648681D02*
G01*
X166945590Y-106648681D01*
X166945590Y-106090281D01*
X169345590Y-106090281D01*
X169345590Y-106648681D01*
G37*
X96146390Y-65609081D02*
X93746390Y-65609081D01*
X93746390Y-65609081D02*
X93746390Y-71609081D01*
X93746390Y-71609081D02*
X96146390Y-71609081D01*
X96146390Y-71609081D02*
X96146390Y-65609081D01*
X96146390Y-71609081D02*
X93746390Y-71609081D01*
X93746390Y-71050681D01*
X96146390Y-71050681D01*
X96146390Y-71609081D01*
G36*
X96146390Y-71609081D02*
G01*
X93746390Y-71609081D01*
X93746390Y-71050681D01*
X96146390Y-71050681D01*
X96146390Y-71609081D01*
G37*
D10*
X160359790Y-57548281D02*
X160359790Y-60148281D01*
X160359790Y-57548281D02*
X161384790Y-56523281D01*
X163934790Y-56523281D02*
X161384790Y-56523281D01*
X168959790Y-63373281D02*
X166359790Y-63373281D01*
X169959790Y-59723281D02*
X169959790Y-62373281D01*
X168959790Y-63373281D02*
G75*
G03*
X169959790Y-62373281I0J1000000D01*
G01*
X160359790Y-74548281D02*
X160359790Y-77148281D01*
X160359790Y-74548281D02*
X161384790Y-73523281D01*
X163934790Y-73523281D02*
X161384790Y-73523281D01*
X168959790Y-80373281D02*
X166359790Y-80373281D01*
X169959790Y-76723281D02*
X169959790Y-79373281D01*
X168959790Y-80373281D02*
G75*
G03*
X169959790Y-79373281I0J1000000D01*
G01*
D12*
X138236747Y-111872419D02*
X140736747Y-111872419D01*
X140736747Y-111872419D02*
X140736747Y-109222419D01*
X134616747Y-110502419D02*
X134616747Y-109752419D01*
X134616747Y-109752419D02*
X135616747Y-109352419D01*
X135616747Y-109352419D02*
X135616747Y-106522419D01*
X140736747Y-109222419D02*
X142126747Y-109222419D01*
X135616747Y-106522419D02*
X134616747Y-106122419D01*
X134616747Y-106122419D02*
X134616747Y-105372419D01*
X138236747Y-104002419D02*
X140736747Y-104002419D01*
X140736747Y-104002419D02*
X140736747Y-106652419D01*
D13*
X182829200Y-115163600D02*
X181951200Y-115164000D01*
X182829200Y-113690400D02*
X182829200Y-115163600D01*
X179806600Y-115163600D02*
X180701200Y-115163600D01*
X179806600Y-113741200D02*
X179806600Y-115163600D01*
G36*
X179829039Y-106702347D02*
G01*
X179875812Y-106719431D01*
X179991720Y-106760717D01*
X180163915Y-106821584D01*
X180381996Y-106898388D01*
X180635563Y-106987488D01*
X180914216Y-107085239D01*
X181207554Y-107188000D01*
X181505177Y-107292125D01*
X181796684Y-107393974D01*
X182071676Y-107489902D01*
X182319751Y-107576266D01*
X182530509Y-107649424D01*
X182693550Y-107705732D01*
X182923913Y-107784947D01*
X182923913Y-108770603D01*
X182723598Y-108770603D01*
X182723282Y-107917603D01*
X182032352Y-107677805D01*
X181907739Y-107634575D01*
X181596086Y-107526573D01*
X181257145Y-107409238D01*
X180924141Y-107294070D01*
X180630301Y-107192568D01*
X179919181Y-106947128D01*
X179919181Y-108770603D01*
X179718866Y-108770603D01*
X179718866Y-106659583D01*
X179829039Y-106702347D01*
G37*
D12*
X182149581Y-124116800D02*
X182891938Y-124386996D01*
X183635816Y-125296252D02*
X181686301Y-130652500D01*
X180530166Y-125496110D02*
X179948732Y-127093588D01*
X184352090Y-127100012D02*
X184481021Y-127359775D01*
X183139886Y-126658806D02*
X184352090Y-127100012D01*
X184481021Y-127359775D02*
X184173203Y-128205498D01*
X183907464Y-128321613D02*
X184173203Y-128205498D01*
X183907464Y-128321613D02*
X182695260Y-127880407D01*
X179504106Y-128315188D02*
X179435702Y-128503127D01*
X180531999Y-130870875D02*
X179789642Y-130600679D01*
%LPC*%
D14*
X177258451Y-79575362D02*
X176242451Y-79575362D01*
X176242451Y-78559362D01*
X177258451Y-78559362D01*
X177258451Y-79575362D01*
G36*
X177258451Y-79575362D02*
G01*
X176242451Y-79575362D01*
X176242451Y-78559362D01*
X177258451Y-78559362D01*
X177258451Y-79575362D01*
G37*
X177258451Y-82115362D02*
X176242451Y-82115362D01*
X176242451Y-81099362D01*
X177258451Y-81099362D01*
X177258451Y-82115362D01*
G36*
X177258451Y-82115362D02*
G01*
X176242451Y-82115362D01*
X176242451Y-81099362D01*
X177258451Y-81099362D01*
X177258451Y-82115362D01*
G37*
X177258451Y-84655362D02*
X176242451Y-84655362D01*
X176242451Y-83639362D01*
X177258451Y-83639362D01*
X177258451Y-84655362D01*
G36*
X177258451Y-84655362D02*
G01*
X176242451Y-84655362D01*
X176242451Y-83639362D01*
X177258451Y-83639362D01*
X177258451Y-84655362D01*
G37*
X177258451Y-87195362D02*
X176242451Y-87195362D01*
X176242451Y-86179362D01*
X177258451Y-86179362D01*
X177258451Y-87195362D01*
G36*
X177258451Y-87195362D02*
G01*
X176242451Y-87195362D01*
X176242451Y-86179362D01*
X177258451Y-86179362D01*
X177258451Y-87195362D01*
G37*
X177258451Y-89735362D02*
X176242451Y-89735362D01*
X176242451Y-88719362D01*
X177258451Y-88719362D01*
X177258451Y-89735362D01*
G36*
X177258451Y-89735362D02*
G01*
X176242451Y-89735362D01*
X176242451Y-88719362D01*
X177258451Y-88719362D01*
X177258451Y-89735362D01*
G37*
X177258451Y-92275362D02*
X176242451Y-92275362D01*
X176242451Y-91259362D01*
X177258451Y-91259362D01*
X177258451Y-92275362D01*
G36*
X177258451Y-92275362D02*
G01*
X176242451Y-92275362D01*
X176242451Y-91259362D01*
X177258451Y-91259362D01*
X177258451Y-92275362D01*
G37*
X177258451Y-94815362D02*
X176242451Y-94815362D01*
X176242451Y-93799362D01*
X177258451Y-93799362D01*
X177258451Y-94815362D01*
G36*
X177258451Y-94815362D02*
G01*
X176242451Y-94815362D01*
X176242451Y-93799362D01*
X177258451Y-93799362D01*
X177258451Y-94815362D01*
G37*
X188637651Y-79575362D02*
X187621651Y-79575362D01*
X187621651Y-78559362D01*
X188637651Y-78559362D01*
X188637651Y-79575362D01*
G36*
X188637651Y-79575362D02*
G01*
X187621651Y-79575362D01*
X187621651Y-78559362D01*
X188637651Y-78559362D01*
X188637651Y-79575362D01*
G37*
X188637651Y-82115362D02*
X187621651Y-82115362D01*
X187621651Y-81099362D01*
X188637651Y-81099362D01*
X188637651Y-82115362D01*
G36*
X188637651Y-82115362D02*
G01*
X187621651Y-82115362D01*
X187621651Y-81099362D01*
X188637651Y-81099362D01*
X188637651Y-82115362D01*
G37*
X188637651Y-84655362D02*
X187621651Y-84655362D01*
X187621651Y-83639362D01*
X188637651Y-83639362D01*
X188637651Y-84655362D01*
G36*
X188637651Y-84655362D02*
G01*
X187621651Y-84655362D01*
X187621651Y-83639362D01*
X188637651Y-83639362D01*
X188637651Y-84655362D01*
G37*
X188637651Y-87195362D02*
X187621651Y-87195362D01*
X187621651Y-86179362D01*
X188637651Y-86179362D01*
X188637651Y-87195362D01*
G36*
X188637651Y-87195362D02*
G01*
X187621651Y-87195362D01*
X187621651Y-86179362D01*
X188637651Y-86179362D01*
X188637651Y-87195362D01*
G37*
X188637651Y-89735362D02*
X187621651Y-89735362D01*
X187621651Y-88719362D01*
X188637651Y-88719362D01*
X188637651Y-89735362D01*
G36*
X188637651Y-89735362D02*
G01*
X187621651Y-89735362D01*
X187621651Y-88719362D01*
X188637651Y-88719362D01*
X188637651Y-89735362D01*
G37*
X188637651Y-92275362D02*
X187621651Y-92275362D01*
X187621651Y-91259362D01*
X188637651Y-91259362D01*
X188637651Y-92275362D01*
G36*
X188637651Y-92275362D02*
G01*
X187621651Y-92275362D01*
X187621651Y-91259362D01*
X188637651Y-91259362D01*
X188637651Y-92275362D01*
G37*
X188637651Y-94815362D02*
X187621651Y-94815362D01*
X187621651Y-93799362D01*
X188637651Y-93799362D01*
X188637651Y-94815362D01*
G36*
X188637651Y-94815362D02*
G01*
X187621651Y-94815362D01*
X187621651Y-93799362D01*
X188637651Y-93799362D01*
X188637651Y-94815362D01*
G37*
D15*
X168145590Y-88148281D03*
X168145590Y-84748281D03*
D16*
X102246390Y-94408681D03*
D17*
X102746390Y-90708681D03*
X107746390Y-88508681D03*
D18*
X107746390Y-94408681D03*
D17*
X112746390Y-90708681D03*
D16*
X113246390Y-94408681D03*
D19*
X104946390Y-88508681D03*
X115546390Y-90708681D03*
D15*
X131746190Y-82308681D03*
X131746190Y-78908681D03*
D20*
X100431600Y-105460800D03*
D15*
X95146590Y-89008681D03*
X95146590Y-85608681D03*
D16*
X120546190Y-75908681D03*
D17*
X121046190Y-72208681D03*
X126046190Y-70008681D03*
D18*
X126046190Y-75908681D03*
D17*
X131046190Y-72208681D03*
D16*
X131546190Y-75908681D03*
D19*
X123246190Y-70008681D03*
X133846190Y-72208681D03*
D16*
X102246390Y-77408681D03*
D17*
X102746390Y-73708681D03*
X107746390Y-71508681D03*
D18*
X107746390Y-77408681D03*
D17*
X112746390Y-73708681D03*
D16*
X113246390Y-77408681D03*
D19*
X104946390Y-71508681D03*
X115546390Y-73708681D03*
D21*
X248650190Y-82818281D03*
D16*
X120546190Y-92908681D03*
D17*
X121046190Y-89208681D03*
X126046190Y-87008681D03*
D18*
X126046190Y-92908681D03*
D17*
X131046190Y-89208681D03*
D16*
X131546190Y-92908681D03*
D19*
X123246190Y-87008681D03*
X133846190Y-89208681D03*
D15*
X113446390Y-100808681D03*
X113446390Y-97408681D03*
D21*
X248650190Y-88768281D03*
D15*
X113246190Y-83808681D03*
X113246190Y-80408681D03*
D22*
X180832458Y-128905087D03*
X181858519Y-126086009D03*
D16*
X102246390Y-60408681D03*
D17*
X102746390Y-56708681D03*
X107746390Y-54508681D03*
D18*
X107746390Y-60408681D03*
D17*
X112746390Y-56708681D03*
D16*
X113246390Y-60408681D03*
D19*
X104946390Y-54508681D03*
X115546390Y-56708681D03*
D15*
X149845790Y-84608681D03*
X149845790Y-81208681D03*
D16*
X83946590Y-99608681D03*
D17*
X84446590Y-95908681D03*
X89446590Y-93708681D03*
D18*
X89446590Y-99608681D03*
D17*
X94446590Y-95908681D03*
D16*
X94946590Y-99608681D03*
D19*
X86646590Y-93708681D03*
X97246590Y-95908681D03*
D16*
X138845990Y-61208481D03*
D17*
X139345990Y-57508481D03*
X144345990Y-55308481D03*
D18*
X144345990Y-61208481D03*
D17*
X149345990Y-57508481D03*
D16*
X149845990Y-61208481D03*
D19*
X141545990Y-55308481D03*
X152145990Y-57508481D03*
D15*
X168145590Y-71148281D03*
X168145590Y-67748281D03*
D20*
X160782000Y-113792000D03*
D16*
X174033107Y-125786287D03*
D17*
X172297787Y-129092139D03*
X166846879Y-129449362D03*
D18*
X168864798Y-123905176D03*
D17*
X162900860Y-125671938D03*
D16*
X163696489Y-122024065D03*
D23*
X169478018Y-130407019D03*
X160269721Y-124714282D03*
D24*
X168135400Y-111408000D03*
X168135400Y-114808000D03*
D16*
X120546190Y-58908681D03*
D17*
X121046190Y-55208681D03*
X126046190Y-53008681D03*
D18*
X126046190Y-58908681D03*
D17*
X131046190Y-55208681D03*
D16*
X131546190Y-58908681D03*
D19*
X123246190Y-53008681D03*
X133846190Y-55208681D03*
D24*
X171653200Y-111408000D03*
X171653200Y-114808000D03*
D25*
X103987600Y-108191400D03*
X103987600Y-107597650D03*
X103987600Y-107003900D03*
X103987600Y-106410150D03*
X103987600Y-105816400D03*
D15*
X94946390Y-106008681D03*
X94946390Y-102608681D03*
D21*
X248650190Y-94718281D03*
D16*
X138845990Y-95208681D03*
D17*
X139345990Y-91508681D03*
X144345990Y-89308681D03*
D18*
X144345990Y-95208681D03*
D17*
X149345990Y-91508681D03*
D16*
X149845990Y-95208681D03*
D19*
X141545990Y-89308681D03*
X152145990Y-91508681D03*
D16*
X138845990Y-78208681D03*
D17*
X139345990Y-74508681D03*
X144345990Y-72308681D03*
D18*
X144345990Y-78208681D03*
D17*
X149345990Y-74508681D03*
D16*
X149845990Y-78208681D03*
D19*
X141545990Y-72308681D03*
X152145990Y-74508681D03*
D20*
X96824800Y-52730400D03*
D15*
X113246190Y-66808681D03*
X113246190Y-63408681D03*
D16*
X83946590Y-82608681D03*
D17*
X84446590Y-78908681D03*
X89446590Y-76708681D03*
D18*
X89446590Y-82608681D03*
D17*
X94446590Y-78908681D03*
D16*
X94946590Y-82608681D03*
D19*
X86646590Y-76708681D03*
X97246590Y-78908681D03*
D15*
X131545990Y-99308681D03*
X131545990Y-95908681D03*
D16*
X83946590Y-63708681D03*
D17*
X84446590Y-60008681D03*
X89446590Y-57808681D03*
D18*
X89446590Y-63708681D03*
D17*
X94446590Y-60008681D03*
D16*
X94946590Y-63708681D03*
D19*
X86646590Y-57808681D03*
X97246590Y-60008681D03*
D15*
X131545990Y-65308681D03*
X131545990Y-61908681D03*
D16*
X157145790Y-98748281D03*
D17*
X157645790Y-95048281D03*
X162645790Y-92848281D03*
D18*
X162645790Y-98748281D03*
D17*
X167645790Y-95048281D03*
D16*
X168145790Y-98748281D03*
D19*
X159845790Y-92848281D03*
X170445790Y-95048281D03*
D20*
X155194000Y-53848000D03*
D26*
X174881251Y-79067362D03*
X174881251Y-81607362D03*
X174881251Y-84147362D03*
X174881251Y-86687362D03*
X174881251Y-89227362D03*
X174881251Y-91767362D03*
X174881251Y-94307362D03*
D27*
X176496451Y-79067362D03*
X176496451Y-81607362D03*
X176496451Y-84147362D03*
X176496451Y-86687362D03*
X176496451Y-89227362D03*
X176496451Y-91767362D03*
X176496451Y-94307362D03*
D28*
X188383651Y-79067362D03*
X188383651Y-81607362D03*
X188383651Y-84147362D03*
X188383651Y-86687362D03*
X188383651Y-89227362D03*
X188383651Y-91767362D03*
X188383651Y-94307362D03*
D26*
X189983851Y-79067362D03*
X189983851Y-81607362D03*
X189983851Y-84147362D03*
X189983851Y-86687362D03*
X189983851Y-89227362D03*
X189983851Y-91767362D03*
X189983851Y-94307362D03*
D29*
X177512451Y-79067362D03*
X177512451Y-81607362D03*
X177512451Y-84147362D03*
X177512451Y-86687362D03*
X177512451Y-89227362D03*
X177512451Y-91767362D03*
X177512451Y-94307362D03*
D30*
X187367651Y-94307362D03*
X187367651Y-91767362D03*
X187367651Y-89227362D03*
X187367651Y-86687362D03*
X187367651Y-84147362D03*
X187367651Y-81607362D03*
X187367651Y-79067362D03*
D16*
X154111390Y-119486681D03*
D17*
X152976488Y-123043646D03*
X147670423Y-124341982D03*
D18*
X148694947Y-118531616D03*
D17*
X143128410Y-121307164D03*
D16*
X143278504Y-117576551D03*
D31*
X150427884Y-124828197D03*
X140370948Y-120820949D03*
D15*
X149845790Y-67608481D03*
X149845790Y-64208481D03*
X150045990Y-101608681D03*
X150045990Y-98208681D03*
X168145590Y-105148281D03*
X168145590Y-101748281D03*
X94946390Y-70108681D03*
X94946390Y-66708681D03*
D16*
X157145790Y-64748281D03*
D17*
X157645790Y-61048281D03*
X162645790Y-58848281D03*
D18*
X162645790Y-64748281D03*
D17*
X167645790Y-61048281D03*
D16*
X168145790Y-64748281D03*
D19*
X159845790Y-58848281D03*
X170445790Y-61048281D03*
D25*
X115836600Y-104241600D03*
X116430350Y-104241600D03*
X117024100Y-104241600D03*
X117617850Y-104241600D03*
X118211600Y-104241600D03*
D16*
X157145790Y-81748281D03*
D17*
X157645790Y-78048281D03*
X162645790Y-75848281D03*
D18*
X162645790Y-81748281D03*
D17*
X167645790Y-78048281D03*
D16*
X168145790Y-81748281D03*
D19*
X159845790Y-75848281D03*
X170445790Y-78048281D03*
D32*
X141176747Y-108562419D03*
X141176747Y-107312419D03*
D33*
X136301747Y-111412419D03*
X136301747Y-104462419D03*
D34*
X181641200Y-115214400D03*
D35*
X181299803Y-117185877D03*
D36*
X181299803Y-116814600D03*
D37*
X181294406Y-117525800D03*
D38*
X181051200Y-115214400D03*
D39*
X183627524Y-124441892D03*
X181550803Y-123686027D03*
D22*
X181858519Y-126086009D03*
X180832458Y-128905087D03*
D39*
X181130777Y-131301648D03*
X179054056Y-130545783D03*
D40*
X180461175Y-124779284D03*
X179435114Y-127598362D03*
X178922084Y-129007901D03*
%LPD*%
M02*
