  0
SECTION
  2
HEADER
  9
$ANGBASE
  50
0.0
  9
$ANGDIR
  70
1
  9
$MEASUREMENT
  70
1
  0
ENDSEC
  0
SECTION
  2
TABLES
  0
TABLE
  2
LTYPE
  70
4
  0
LTYPE
  5
40F
  2
CONTINUOUS
  70
0
  3
Solid line
  72
65
  73
0
  40
0.0
  0
LTYPE
  5
410
  2
DASHDOT
 70
0
  3
Dash Dot ____ _ ____ _
 72
65
 73
4
 40
2.0
 49
1.25
 49
-0.25
 49
0.25
 49
-0.25
  0
LTYPE
  5
411
  2
DASHED
 70
0
  3
Dashed __ __ __ __ __
 72
65
 73
2
 40
0.75
 49
0.5
 49
-0.25
  0
LTYPE
  5
43B
  2
DOTTED
 70
0
  3
Dotted .  .  .  .
 72
65
 73
2
 40
0.2
 49
0.0
 49
-0.2
  0
ENDTAB
  0
TABLE
  2
STYLE
  70
4
  0
STYLE
  2
KICAD
  70
0
  40
0
  41
1
  42
1
  50
0
  71
0
  3
isocp.shx
  0
STYLE
  2
KICADB
  70
0
  40
0
  41
1
  42
1
  50
0
  71
0
  3
isocp.shx
  0
STYLE
  2
KICADI
  70
0
  40
0
  41
1
  42
1
  50
15
  71
0
  3
isocp.shx
  0
STYLE
  2
KICADBI
  70
0
  40
0
  41
1
  42
1
  50
15
  71
0
  3
isocp.shx
  0
ENDTAB
  0
TABLE
  2
LAYER
  70
1
  0
LAYER
  2
BLACK
  70
0
  62
7
  6
CONTINUOUS
  0
ENDTAB
  0
ENDSEC
  0
SECTION
  2
ENTITIES
0
ARC
8
BLACK
10
257.34
20
-128.133
40
1.51971
50
-27.1759
51
56.2449
0
LINE
8
BLACK
6
CONTINUOUS
10
149.321
20
-110.697
11
149.321
21
-60.3492
0
ARC
8
BLACK
10
100.973
20
-159.184
40
111.334
50
64.9569
51
112.987
0
LINE
8
BLACK
6
CONTINUOUS
10
244.215
20
-58.368
11
244.215
21
-91.5912
0
LINE
8
BLACK
6
CONTINUOUS
10
243.706
20
-92.8612
11
242.487
21
-94.0804
0
ARC
8
BLACK
10
57.1939
20
-116.704
40
1.47039
50
-62.3929
51
2.67456
0
ARC
8
BLACK
10
153.492
20
-60.2704
40
2.17201
50
-244.059
51
-177.921
0
ARC
8
BLACK
10
242.536
20
-91.6562
40
1.67975
50
-45.838
51
2.21813
0
LINE
8
BLACK
6
CONTINUOUS
10
152.389
20
-112.167
11
228.117
21
-132.451
0
LINE
8
BLACK
6
CONTINUOUS
10
248.894
20
-143.017
11
236.372
21
-135.804
0
LINE
8
BLACK
6
CONTINUOUS
10
58.1547
20
-94.0804
11
56.9355
21
-92.8612
0
ARC
8
BLACK
10
199.669
20
-159.184
40
111.334
50
67.0126
51
115.043
0
LINE
8
BLACK
6
CONTINUOUS
10
58.6627
20
-116.636
11
58.6629
21
-95.3504
0
ARC
8
BLACK
10
147.15
20
-60.2703
40
2.17195
50
-2.08149
51
64.059
0
ARC
8
BLACK
10
152.807
20
-110.74
40
1.48689
50
-181.654
51
-106.338
0
ARC
8
BLACK
10
242.39
20
-58.3516
40
1.82492
50
-0.514486
51
65.4549
0
ARC
8
BLACK
10
243.657
20
-95.2854
40
1.67976
50
-225.838
51
-177.783
0
ARC
8
BLACK
10
58.1057
20
-91.6562
40
1.6797
50
-182.218
51
-134.161
0
LINE
8
BLACK
6
CONTINUOUS
10
41.9495
20
-128.828
11
49.8408
21
-142.51
0
LINE
8
BLACK
6
CONTINUOUS
10
258.185
20
-126.87
11
242.767
21
-118.007
0
LINE
8
BLACK
6
CONTINUOUS
10
250.801
20
-142.51
11
258.692
21
-128.828
0
LINE
8
BLACK
6
CONTINUOUS
10
57.8753
20
-118.007
11
42.457
21
-126.87
0
ARC
8
BLACK
10
249.559
20
-141.68
40
1.49364
50
-116.435
51
-33.7536
0
LINE
8
BLACK
6
CONTINUOUS
10
72.5248
20
-132.451
11
148.253
21
-112.167
0
ARC
8
BLACK
10
218.422
20
-168.161
40
37.0028
50
60.9804
51
74.8102
0
ARC
8
BLACK
10
51.0826
20
-141.68
40
1.49353
50
-146.249
51
-63.5617
0
ARC
8
BLACK
10
58.2517
20
-58.3514
40
1.82453
50
-245.465
51
-179.479
0
ARC
8
BLACK
10
43.3014
20
-128.133
40
1.51967
50
-236.246
51
-152.823
0
ARC
8
BLACK
10
147.834
20
-110.74
40
1.48713
50
-73.6552
51
1.64625
0
ARC
8
BLACK
10
56.9845
20
-95.2854
40
1.6797
50
-2.21731
51
45.8399
0
LINE
8
BLACK
6
CONTINUOUS
10
56.4272
20
-91.5912
11
56.4272
21
-58.368
0
LINE
8
BLACK
6
CONTINUOUS
10
241.979
20
-95.3504
11
241.979
21
-116.636
0
LINE
8
BLACK
6
CONTINUOUS
10
64.2698
20
-135.804
11
51.7476
21
-143.017
0
ARC
8
BLACK
10
82.2199
20
-168.16
40
37.0021
50
105.19
51
119.02
0
LINE
8
BLACK
6
CONTINUOUS
10
151.321
20
-60.3492
11
151.321
21
-110.697
0
ARC
8
BLACK
10
243.448
20
-116.704
40
1.47043
50
-182.674
51
-117.609
0
CIRCLE
8
BLACK
10
172.332
20
-108.854
40
1.1
0
CIRCLE
8
BLACK
10
223.357
20
-108.693
40
1.1
0
CIRCLE
8
BLACK
10
168.599
20
-55.6502
40
1.1
0
CIRCLE
8
BLACK
10
236.234
20
-124.238
40
1.1
0
CIRCLE
8
BLACK
10
226.455
20
-54.1516
40
1.1
0
CIRCLE
8
BLACK
10
64.4075
20
-124.238
40
1.1
0
CIRCLE
8
BLACK
10
77.2853
20
-108.693
40
1.1
0
CIRCLE
8
BLACK
10
74.1865
20
-54.1516
40
1.1
0
CIRCLE
8
BLACK
10
132.043
20
-55.6502
40
1.1
0
CIRCLE
8
BLACK
10
128.31
20
-108.854
40
1.1
0
LINE
8
BLACK
6
CONTINUOUS
10
186.478
20
-104.882
11
172.478
21
-104.882
0
LINE
8
BLACK
6
CONTINUOUS
10
172.478
20
-104.882
11
172.478
21
-90.8819
0
LINE
8
BLACK
6
CONTINUOUS
10
172.478
20
-90.8819
11
186.478
21
-90.8819
0
LINE
8
BLACK
6
CONTINUOUS
10
186.478
20
-90.8819
11
186.478
21
-104.882
0
LINE
8
BLACK
6
CONTINUOUS
10
204.563
20
-83.7939
11
190.563
21
-83.7939
0
LINE
8
BLACK
6
CONTINUOUS
10
190.563
20
-83.7939
11
190.563
21
-69.7939
0
LINE
8
BLACK
6
CONTINUOUS
10
190.563
20
-69.7939
11
204.563
21
-69.7939
0
LINE
8
BLACK
6
CONTINUOUS
10
204.563
20
-69.7939
11
204.563
21
-83.7939
0
LINE
8
BLACK
6
CONTINUOUS
10
186.478
20
-87.8639
11
172.478
21
-87.8639
0
LINE
8
BLACK
6
CONTINUOUS
10
172.478
20
-87.8639
11
172.478
21
-73.8639
0
LINE
8
BLACK
6
CONTINUOUS
10
172.478
20
-73.8639
11
186.478
21
-73.8639
0
LINE
8
BLACK
6
CONTINUOUS
10
186.478
20
-73.8639
11
186.478
21
-87.8639
0
LINE
8
BLACK
6
CONTINUOUS
10
204.563
20
-100.812
11
190.563
21
-100.812
0
LINE
8
BLACK
6
CONTINUOUS
10
190.563
20
-100.812
11
190.563
21
-86.8119
0
LINE
8
BLACK
6
CONTINUOUS
10
190.563
20
-86.8119
11
204.563
21
-86.8119
0
LINE
8
BLACK
6
CONTINUOUS
10
204.563
20
-86.8119
11
204.563
21
-100.812
0
LINE
8
BLACK
6
CONTINUOUS
10
186.478
20
-70.8459
11
172.478
21
-70.8459
0
LINE
8
BLACK
6
CONTINUOUS
10
172.478
20
-70.8459
11
172.478
21
-56.8459
0
LINE
8
BLACK
6
CONTINUOUS
10
172.478
20
-56.8459
11
186.478
21
-56.8459
0
LINE
8
BLACK
6
CONTINUOUS
10
186.478
20
-56.8459
11
186.478
21
-70.8459
0
LINE
8
BLACK
6
CONTINUOUS
10
168.393
20
-108.382
11
154.393
21
-108.382
0
LINE
8
BLACK
6
CONTINUOUS
10
154.393
20
-108.382
11
154.393
21
-94.3819
0
LINE
8
BLACK
6
CONTINUOUS
10
154.393
20
-94.3819
11
168.393
21
-94.3819
0
LINE
8
BLACK
6
CONTINUOUS
10
168.393
20
-94.3819
11
168.393
21
-108.382
0
LINE
8
BLACK
6
CONTINUOUS
10
222.647
20
-69.5757
11
208.647
21
-69.5757
0
LINE
8
BLACK
6
CONTINUOUS
10
208.647
20
-69.5757
11
208.647
21
-55.5757
0
LINE
8
BLACK
6
CONTINUOUS
10
208.647
20
-55.5757
11
222.647
21
-55.5757
0
LINE
8
BLACK
6
CONTINUOUS
10
222.647
20
-55.5757
11
222.647
21
-69.5757
0
LINE
8
BLACK
6
CONTINUOUS
10
242.943
20
-120.34
11
255.068
21
-127.34
0
LINE
8
BLACK
6
CONTINUOUS
10
255.068
20
-127.34
11
248.068
21
-139.464
0
LINE
8
BLACK
6
CONTINUOUS
10
248.068
20
-139.464
11
235.943
21
-132.464
0
LINE
8
BLACK
6
CONTINUOUS
10
235.943
20
-132.464
11
242.943
21
-120.34
0
LINE
8
BLACK
6
CONTINUOUS
10
204.563
20
-66.7759
11
190.563
21
-66.7759
0
LINE
8
BLACK
6
CONTINUOUS
10
190.563
20
-66.7759
11
190.563
21
-52.7759
0
LINE
8
BLACK
6
CONTINUOUS
10
190.563
20
-52.7759
11
204.563
21
-52.7759
0
LINE
8
BLACK
6
CONTINUOUS
10
204.563
20
-52.7759
11
204.563
21
-66.7759
0
LINE
8
BLACK
6
CONTINUOUS
10
222.647
20
-103.612
11
208.647
21
-103.612
0
LINE
8
BLACK
6
CONTINUOUS
10
208.647
20
-103.612
11
208.647
21
-89.6119
0
LINE
8
BLACK
6
CONTINUOUS
10
208.647
20
-89.6119
11
222.647
21
-89.6119
0
LINE
8
BLACK
6
CONTINUOUS
10
222.647
20
-89.6119
11
222.647
21
-103.612
0
LINE
8
BLACK
6
CONTINUOUS
10
222.647
20
-86.5939
11
208.647
21
-86.5939
0
LINE
8
BLACK
6
CONTINUOUS
10
208.647
20
-86.5939
11
208.647
21
-72.5939
0
LINE
8
BLACK
6
CONTINUOUS
10
208.647
20
-72.5939
11
222.647
21
-72.5939
0
LINE
8
BLACK
6
CONTINUOUS
10
222.647
20
-72.5939
11
222.647
21
-86.5939
0
LINE
8
BLACK
6
CONTINUOUS
10
168.393
20
-91.3639
11
154.393
21
-91.3639
0
LINE
8
BLACK
6
CONTINUOUS
10
154.393
20
-91.3639
11
154.393
21
-77.3639
0
LINE
8
BLACK
6
CONTINUOUS
10
154.393
20
-77.3639
11
168.393
21
-77.3639
0
LINE
8
BLACK
6
CONTINUOUS
10
168.393
20
-77.3639
11
168.393
21
-91.3639
0
LINE
8
BLACK
6
CONTINUOUS
10
168.393
20
-74.3459
11
154.393
21
-74.3459
0
LINE
8
BLACK
6
CONTINUOUS
10
154.393
20
-74.3459
11
154.393
21
-60.3459
0
LINE
8
BLACK
6
CONTINUOUS
10
154.393
20
-60.3459
11
168.393
21
-60.3459
0
LINE
8
BLACK
6
CONTINUOUS
10
168.393
20
-60.3459
11
168.393
21
-74.3459
0
LINE
8
BLACK
6
CONTINUOUS
10
240.732
20
-106.152
11
226.732
21
-106.152
0
LINE
8
BLACK
6
CONTINUOUS
10
226.732
20
-106.152
11
226.732
21
-92.1515
0
LINE
8
BLACK
6
CONTINUOUS
10
226.732
20
-92.1515
11
240.732
21
-92.1515
0
LINE
8
BLACK
6
CONTINUOUS
10
240.732
20
-92.1515
11
240.732
21
-106.152
0
LINE
8
BLACK
6
CONTINUOUS
10
220.744
20
-113.201
11
234.267
21
-116.824
0
LINE
8
BLACK
6
CONTINUOUS
10
234.267
20
-116.824
11
230.643
21
-130.347
0
LINE
8
BLACK
6
CONTINUOUS
10
230.643
20
-130.347
11
217.12
21
-126.724
0
LINE
8
BLACK
6
CONTINUOUS
10
217.12
20
-126.724
11
220.744
21
-113.201
0
LINE
8
BLACK
6
CONTINUOUS
10
240.732
20
-72.1155
11
226.732
21
-72.1155
0
LINE
8
BLACK
6
CONTINUOUS
10
226.732
20
-72.1155
11
226.732
21
-58.1155
0
LINE
8
BLACK
6
CONTINUOUS
10
226.732
20
-58.1155
11
240.732
21
-58.1155
0
LINE
8
BLACK
6
CONTINUOUS
10
240.732
20
-58.1155
11
240.732
21
-72.1155
0
LINE
8
BLACK
6
CONTINUOUS
10
240.732
20
-89.1335
11
226.732
21
-89.1335
0
LINE
8
BLACK
6
CONTINUOUS
10
226.732
20
-89.1335
11
226.732
21
-75.1335
0
LINE
8
BLACK
6
CONTINUOUS
10
226.732
20
-75.1335
11
240.732
21
-75.1335
0
LINE
8
BLACK
6
CONTINUOUS
10
240.732
20
-75.1335
11
240.732
21
-89.1335
0
LINE
8
BLACK
6
CONTINUOUS
10
79.8983
20
-113.201
11
66.3753
21
-116.824
0
LINE
8
BLACK
6
CONTINUOUS
10
66.3753
20
-116.824
11
69.9988
21
-130.347
0
LINE
8
BLACK
6
CONTINUOUS
10
69.9988
20
-130.347
11
83.5217
21
-126.724
0
LINE
8
BLACK
6
CONTINUOUS
10
83.5217
20
-126.724
11
79.8983
21
-113.201
0
LINE
8
BLACK
6
CONTINUOUS
10
114.164
20
-104.882
11
128.164
21
-104.882
0
LINE
8
BLACK
6
CONTINUOUS
10
128.164
20
-104.882
11
128.164
21
-90.8819
0
LINE
8
BLACK
6
CONTINUOUS
10
128.164
20
-90.8819
11
114.164
21
-90.8819
0
LINE
8
BLACK
6
CONTINUOUS
10
114.164
20
-90.8819
11
114.164
21
-104.882
0
LINE
8
BLACK
6
CONTINUOUS
10
59.9096
20
-89.1335
11
73.9096
21
-89.1335
0
LINE
8
BLACK
6
CONTINUOUS
10
73.9096
20
-89.1335
11
73.9096
21
-75.1335
0
LINE
8
BLACK
6
CONTINUOUS
10
73.9096
20
-75.1335
11
59.9096
21
-75.1335
0
LINE
8
BLACK
6
CONTINUOUS
10
59.9096
20
-75.1335
11
59.9096
21
-89.1335
0
LINE
8
BLACK
6
CONTINUOUS
10
114.164
20
-87.8639
11
128.164
21
-87.8639
0
LINE
8
BLACK
6
CONTINUOUS
10
128.164
20
-87.8639
11
128.164
21
-73.8639
0
LINE
8
BLACK
6
CONTINUOUS
10
128.164
20
-73.8639
11
114.164
21
-73.8639
0
LINE
8
BLACK
6
CONTINUOUS
10
114.164
20
-73.8639
11
114.164
21
-87.8639
0
LINE
8
BLACK
6
CONTINUOUS
10
96.0792
20
-100.812
11
110.079
21
-100.812
0
LINE
8
BLACK
6
CONTINUOUS
10
110.079
20
-100.812
11
110.079
21
-86.8119
0
LINE
8
BLACK
6
CONTINUOUS
10
110.079
20
-86.8119
11
96.0792
21
-86.8119
0
LINE
8
BLACK
6
CONTINUOUS
10
96.0792
20
-86.8119
11
96.0792
21
-100.812
0
LINE
8
BLACK
6
CONTINUOUS
10
114.164
20
-70.8459
11
128.164
21
-70.8459
0
LINE
8
BLACK
6
CONTINUOUS
10
128.164
20
-70.8459
11
128.164
21
-56.8459
0
LINE
8
BLACK
6
CONTINUOUS
10
128.164
20
-56.8459
11
114.164
21
-56.8459
0
LINE
8
BLACK
6
CONTINUOUS
10
114.164
20
-56.8459
11
114.164
21
-70.8459
0
LINE
8
BLACK
6
CONTINUOUS
10
77.9944
20
-69.5757
11
91.9944
21
-69.5757
0
LINE
8
BLACK
6
CONTINUOUS
10
91.9944
20
-69.5757
11
91.9944
21
-55.5757
0
LINE
8
BLACK
6
CONTINUOUS
10
91.9944
20
-55.5757
11
77.9944
21
-55.5757
0
LINE
8
BLACK
6
CONTINUOUS
10
77.9944
20
-55.5757
11
77.9944
21
-69.5757
0
LINE
8
BLACK
6
CONTINUOUS
10
59.9096
20
-106.152
11
73.9096
21
-106.152
0
LINE
8
BLACK
6
CONTINUOUS
10
73.9096
20
-106.152
11
73.9096
21
-92.1515
0
LINE
8
BLACK
6
CONTINUOUS
10
73.9096
20
-92.1515
11
59.9096
21
-92.1515
0
LINE
8
BLACK
6
CONTINUOUS
10
59.9096
20
-92.1515
11
59.9096
21
-106.152
0
LINE
8
BLACK
6
CONTINUOUS
10
96.0792
20
-83.7939
11
110.079
21
-83.7939
0
LINE
8
BLACK
6
CONTINUOUS
10
110.079
20
-83.7939
11
110.079
21
-69.7939
0
LINE
8
BLACK
6
CONTINUOUS
10
110.079
20
-69.7939
11
96.0792
21
-69.7939
0
LINE
8
BLACK
6
CONTINUOUS
10
96.0792
20
-69.7939
11
96.0792
21
-83.7939
0
LINE
8
BLACK
6
CONTINUOUS
10
132.249
20
-108.382
11
146.249
21
-108.382
0
LINE
8
BLACK
6
CONTINUOUS
10
146.249
20
-108.382
11
146.249
21
-94.3819
0
LINE
8
BLACK
6
CONTINUOUS
10
146.249
20
-94.3819
11
132.249
21
-94.3819
0
LINE
8
BLACK
6
CONTINUOUS
10
132.249
20
-94.3819
11
132.249
21
-108.382
0
LINE
8
BLACK
6
CONTINUOUS
10
59.9096
20
-72.1155
11
73.9096
21
-72.1155
0
LINE
8
BLACK
6
CONTINUOUS
10
73.9096
20
-72.1155
11
73.9096
21
-58.1155
0
LINE
8
BLACK
6
CONTINUOUS
10
73.9096
20
-58.1155
11
59.9096
21
-58.1155
0
LINE
8
BLACK
6
CONTINUOUS
10
59.9096
20
-58.1155
11
59.9096
21
-72.1155
0
LINE
8
BLACK
6
CONTINUOUS
10
77.9944
20
-103.612
11
91.9944
21
-103.612
0
LINE
8
BLACK
6
CONTINUOUS
10
91.9944
20
-103.612
11
91.9944
21
-89.6119
0
LINE
8
BLACK
6
CONTINUOUS
10
91.9944
20
-89.6119
11
77.9944
21
-89.6119
0
LINE
8
BLACK
6
CONTINUOUS
10
77.9944
20
-89.6119
11
77.9944
21
-103.612
0
LINE
8
BLACK
6
CONTINUOUS
10
132.249
20
-74.3459
11
146.249
21
-74.3459
0
LINE
8
BLACK
6
CONTINUOUS
10
146.249
20
-74.3459
11
146.249
21
-60.3459
0
LINE
8
BLACK
6
CONTINUOUS
10
146.249
20
-60.3459
11
132.249
21
-60.3459
0
LINE
8
BLACK
6
CONTINUOUS
10
132.249
20
-60.3459
11
132.249
21
-74.3459
0
LINE
8
BLACK
6
CONTINUOUS
10
77.9944
20
-86.5939
11
91.9944
21
-86.5939
0
LINE
8
BLACK
6
CONTINUOUS
10
91.9944
20
-86.5939
11
91.9944
21
-72.5939
0
LINE
8
BLACK
6
CONTINUOUS
10
91.9944
20
-72.5939
11
77.9944
21
-72.5939
0
LINE
8
BLACK
6
CONTINUOUS
10
77.9944
20
-72.5939
11
77.9944
21
-86.5939
0
LINE
8
BLACK
6
CONTINUOUS
10
132.249
20
-91.3639
11
146.249
21
-91.3639
0
LINE
8
BLACK
6
CONTINUOUS
10
146.249
20
-91.3639
11
146.249
21
-77.3639
0
LINE
8
BLACK
6
CONTINUOUS
10
146.249
20
-77.3639
11
132.249
21
-77.3639
0
LINE
8
BLACK
6
CONTINUOUS
10
132.249
20
-77.3639
11
132.249
21
-91.3639
0
LINE
8
BLACK
6
CONTINUOUS
10
57.6987
20
-120.34
11
45.5743
21
-127.34
0
LINE
8
BLACK
6
CONTINUOUS
10
45.5743
20
-127.34
11
52.5743
21
-139.464
0
LINE
8
BLACK
6
CONTINUOUS
10
52.5743
20
-139.464
11
64.6987
21
-132.464
0
LINE
8
BLACK
6
CONTINUOUS
10
64.6987
20
-132.464
11
57.6987
21
-120.34
0
LINE
8
BLACK
6
CONTINUOUS
10
96.0792
20
-66.7759
11
110.079
21
-66.7759
0
LINE
8
BLACK
6
CONTINUOUS
10
110.079
20
-66.7759
11
110.079
21
-52.7759
0
LINE
8
BLACK
6
CONTINUOUS
10
110.079
20
-52.7759
11
96.0792
21
-52.7759
0
LINE
8
BLACK
6
CONTINUOUS
10
96.0792
20
-52.7759
11
96.0792
21
-66.7759
  0
ENDSEC
  0
EOF
