  0
SECTION
  2
HEADER
  9
$ANGBASE
  50
0.0
  9
$ANGDIR
  70
1
  9
$MEASUREMENT
  70
1
  0
ENDSEC
  0
SECTION
  2
TABLES
  0
TABLE
  2
LTYPE
  70
4
  0
LTYPE
  5
40F
  2
CONTINUOUS
  70
0
  3
Solid line
  72
65
  73
0
  40
0.0
  0
LTYPE
  5
410
  2
DASHDOT
 70
0
  3
Dash Dot ____ _ ____ _
 72
65
 73
4
 40
2.0
 49
1.25
 49
-0.25
 49
0.25
 49
-0.25
  0
LTYPE
  5
411
  2
DASHED
 70
0
  3
Dashed __ __ __ __ __
 72
65
 73
2
 40
0.75
 49
0.5
 49
-0.25
  0
LTYPE
  5
43B
  2
DOTTED
 70
0
  3
Dotted .  .  .  .
 72
65
 73
2
 40
0.2
 49
0.0
 49
-0.2
  0
ENDTAB
  0
TABLE
  2
STYLE
  70
4
  0
STYLE
  2
KICAD
  70
0
  40
0
  41
1
  42
1
  50
0
  71
0
  3
isocp.shx
  0
STYLE
  2
KICADB
  70
0
  40
0
  41
1
  42
1
  50
0
  71
0
  3
isocp.shx
  0
STYLE
  2
KICADI
  70
0
  40
0
  41
1
  42
1
  50
15
  71
0
  3
isocp.shx
  0
STYLE
  2
KICADBI
  70
0
  40
0
  41
1
  42
1
  50
15
  71
0
  3
isocp.shx
  0
ENDTAB
  0
TABLE
  2
LAYER
  70
1
  0
LAYER
  2
BLACK
  70
0
  62
7
  6
CONTINUOUS
  0
ENDTAB
  0
ENDSEC
  0
SECTION
  2
ENTITIES
0
LINE
8
BLACK
6
CONTINUOUS
10
49.7025
20
-65.9278
11
32.7754
21
-65.917
0
ARC
8
BLACK
10
52.5938
20
-54.4773
40
1.82456
50
-245.464
51
-179.48
0
ARC
8
BLACK
10
49.6801
20
-64.8386
40
1.08945
50
-88.821
51
-1.17898
0
LINE
8
BLACK
6
CONTINUOUS
10
238.557
20
-54.4939
11
238.557
21
-64.861
0
ARC
8
BLACK
10
147.834
20
-56.3962
40
2.17204
50
-244.057
51
-177.919
0
ARC
8
BLACK
10
239.646
20
-64.8386
40
1.08944
50
-178.821
51
-91.175
0
LINE
8
BLACK
6
CONTINUOUS
10
146.731
20
-108.293
11
222.459
21
-128.577
0
ARC
8
BLACK
10
32.7803
20
-66.6219
40
0.704879
50
-269.6
51
-179.585
0
LINE
8
BLACK
6
CONTINUOUS
10
245.143
20
-138.636
11
256.459
21
-118.992
0
ARC
8
BLACK
10
251.759
20
-116.15
40
5.49212
50
-31.1613
51
-1.02973
0
ARC
8
BLACK
10
141.493
20
-56.3962
40
2.17196
50
-2.08065
51
64.0601
0
LINE
8
BLACK
6
CONTINUOUS
10
243.236
20
-139.143
11
230.714
21
-131.93
0
LINE
8
BLACK
6
CONTINUOUS
10
66.8668
20
-128.577
11
142.595
21
-108.293
0
ARC
8
BLACK
10
37.5668
20
-116.15
40
5.49224
50
-178.97
51
-148.839
0
ARC
8
BLACK
10
45.4246
20
-137.806
40
1.49353
50
-146.248
51
-63.5587
0
ARC
8
BLACK
10
194.011
20
-155.31
40
111.334
50
67.0127
51
115.043
0
LINE
8
BLACK
6
CONTINUOUS
10
256.551
20
-65.917
11
239.623
21
-65.9278
0
ARC
8
BLACK
10
147.149
20
-106.866
40
1.48684
50
-181.656
51
-106.336
0
LINE
8
BLACK
6
CONTINUOUS
10
58.6118
20
-131.93
11
46.0896
21
-139.143
0
ARC
8
BLACK
10
76.562
20
-164.286
40
37.0021
50
105.19
51
119.02
0
ARC
8
BLACK
10
236.732
20
-54.4775
40
1.82494
50
-0.513459
51
65.4562
0
ARC
8
BLACK
10
243.901
20
-137.806
40
1.49366
50
-116.435
51
-33.7564
0
LINE
8
BLACK
6
CONTINUOUS
10
143.663
20
-106.823
11
143.663
21
-56.4751
0
ARC
8
BLACK
10
95.3151
20
-155.31
40
111.334
50
64.957
51
112.987
0
ARC
8
BLACK
10
212.764
20
-164.287
40
37.0028
50
60.9803
51
74.8101
0
LINE
8
BLACK
6
CONTINUOUS
10
32.867
20
-118.992
11
44.1828
21
-138.636
0
LINE
8
BLACK
6
CONTINUOUS
10
50.7693
20
-64.861
11
50.7693
21
-54.4939
0
LINE
8
BLACK
6
CONTINUOUS
10
32.0754
20
-116.249
11
32.0754
21
-66.627
0
ARC
8
BLACK
10
256.546
20
-66.6219
40
0.704874
50
-0.41451
51
89.5938
0
LINE
8
BLACK
6
CONTINUOUS
10
257.251
20
-66.627
11
257.251
21
-116.249
0
LINE
8
BLACK
6
CONTINUOUS
10
145.663
20
-56.4751
11
145.663
21
-106.823
0
ARC
8
BLACK
10
142.176
20
-106.866
40
1.4872
50
-73.6523
51
1.64744
0
LINE
8
BLACK
6
CONTINUOUS
10
235.124
20
-76.7594
11
237.524
21
-76.7594
0
LINE
8
BLACK
6
CONTINUOUS
10
237.524
20
-76.7594
11
237.524
21
-82.2006
0
LINE
8
BLACK
6
CONTINUOUS
10
237.524
20
-82.2006
11
235.124
21
-82.2006
0
LINE
8
BLACK
6
CONTINUOUS
10
235.124
20
-82.2006
11
235.124
21
-76.7594
0
LINE
8
BLACK
6
CONTINUOUS
10
176.137
20
-92.7364
11
181.105
21
-92.7364
0
LINE
8
BLACK
6
CONTINUOUS
10
181.105
20
-88.8008
11
183.553
21
-88.8008
0
LINE
8
BLACK
6
CONTINUOUS
10
175.605
20
-85.5284
11
176.105
21
-86.0284
0
LINE
8
BLACK
6
CONTINUOUS
10
171.597
20
-86.5656
11
169.148
21
-86.5656
0
LINE
8
BLACK
6
CONTINUOUS
10
171.597
20
-86.0284
11
172.097
21
-85.5284
0
LINE
8
BLACK
6
CONTINUOUS
10
181.105
20
-92.7364
11
181.105
21
-91.6964
0
LINE
8
BLACK
6
CONTINUOUS
10
171.597
20
-89.4612
11
169.148
21
-89.4612
0
LINE
8
BLACK
6
CONTINUOUS
10
171.597
20
-90.0364
11
172.097
21
-90.5364
0
LINE
8
BLACK
6
CONTINUOUS
10
176.137
20
-92.0364
11
176.137
21
-92.7364
0
LINE
8
BLACK
6
CONTINUOUS
10
169.148
20
-86.5656
11
169.148
21
-89.4612
0
LINE
8
BLACK
6
CONTINUOUS
10
183.553
20
-91.6964
11
183.553
21
-88.8008
0
LINE
8
BLACK
6
CONTINUOUS
10
181.105
20
-88.8008
11
181.105
21
-87.5284
0
LINE
8
BLACK
6
CONTINUOUS
10
181.105
20
-87.5284
11
176.605
21
-87.5284
0
LINE
8
BLACK
6
CONTINUOUS
10
172.097
20
-85.5284
11
175.605
21
-85.5284
0
LINE
8
BLACK
6
CONTINUOUS
10
172.097
20
-90.5364
11
174.613
21
-90.5364
0
LINE
8
BLACK
6
CONTINUOUS
10
176.105
20
-87.0284
11
176.105
21
-86.0284
0
LINE
8
BLACK
6
CONTINUOUS
10
171.597
20
-90.0364
11
171.597
21
-89.4612
0
LINE
8
BLACK
6
CONTINUOUS
10
181.105
20
-91.6964
11
183.553
21
-91.6964
0
LINE
8
BLACK
6
CONTINUOUS
10
171.597
20
-86.5656
11
171.597
21
-86.0284
0
ARC
8
BLACK
10
176.605
20
-87.0284
40
0.500001
50
-180
51
-90.0001
0
ARC
8
BLACK
10
174.694
20
-91.978
40
1.44391
50
-2.31713
51
93.2266
0
CIRCLE
8
BLACK
10
168.32
20
-94.0078
40
0.855
0
CIRCLE
8
BLACK
10
179.32
20
-94.0078
40
0.855
0
CIRCLE
8
BLACK
10
173.82
20
-94.0078
40
1.75
0
LINE
8
BLACK
6
CONTINUOUS
10
198.955
20
-73.8792
11
201.355
21
-73.8792
0
LINE
8
BLACK
6
CONTINUOUS
10
201.355
20
-73.8792
11
201.355
21
-79.3204
0
LINE
8
BLACK
6
CONTINUOUS
10
201.355
20
-79.3204
11
198.955
21
-79.3204
0
LINE
8
BLACK
6
CONTINUOUS
10
198.955
20
-79.3204
11
198.955
21
-73.8792
0
CIRCLE
8
BLACK
10
166.674
20
-104.979
40
1.6
0
LINE
8
BLACK
6
CONTINUOUS
10
162.785
20
-79.0406
11
165.185
21
-79.0406
0
LINE
8
BLACK
6
CONTINUOUS
10
165.185
20
-79.0406
11
165.185
21
-84.4818
0
LINE
8
BLACK
6
CONTINUOUS
10
165.185
20
-84.4818
11
162.785
21
-84.4818
0
LINE
8
BLACK
6
CONTINUOUS
10
162.785
20
-84.4818
11
162.785
21
-79.0406
0
LINE
8
BLACK
6
CONTINUOUS
10
187.233
20
-65.4776
11
187.233
21
-68.3732
0
LINE
8
BLACK
6
CONTINUOUS
10
189.681
20
-68.9484
11
189.681
21
-68.3732
0
LINE
8
BLACK
6
CONTINUOUS
10
199.189
20
-70.6084
11
201.638
21
-70.6084
0
LINE
8
BLACK
6
CONTINUOUS
10
194.221
20
-71.6484
11
199.189
21
-71.6484
0
LINE
8
BLACK
6
CONTINUOUS
10
199.189
20
-67.7128
11
201.638
21
-67.7128
0
LINE
8
BLACK
6
CONTINUOUS
10
190.181
20
-69.4484
11
192.697
21
-69.4484
0
LINE
8
BLACK
6
CONTINUOUS
10
189.681
20
-65.4776
11
189.681
21
-64.9404
0
LINE
8
BLACK
6
CONTINUOUS
10
189.681
20
-68.9484
11
190.181
21
-69.4484
0
LINE
8
BLACK
6
CONTINUOUS
10
199.189
20
-67.7128
11
199.189
21
-66.4404
0
LINE
8
BLACK
6
CONTINUOUS
10
190.181
20
-64.4404
11
193.689
21
-64.4404
0
LINE
8
BLACK
6
CONTINUOUS
10
193.689
20
-64.4404
11
194.189
21
-64.9404
0
LINE
8
BLACK
6
CONTINUOUS
10
194.189
20
-65.9404
11
194.189
21
-64.9404
0
LINE
8
BLACK
6
CONTINUOUS
10
189.681
20
-64.9404
11
190.181
21
-64.4404
0
LINE
8
BLACK
6
CONTINUOUS
10
189.681
20
-65.4776
11
187.233
21
-65.4776
0
LINE
8
BLACK
6
CONTINUOUS
10
189.681
20
-68.3732
11
187.233
21
-68.3732
0
LINE
8
BLACK
6
CONTINUOUS
10
199.189
20
-71.6484
11
199.189
21
-70.6084
0
LINE
8
BLACK
6
CONTINUOUS
10
194.221
20
-70.9484
11
194.221
21
-71.6484
0
LINE
8
BLACK
6
CONTINUOUS
10
201.638
20
-70.6084
11
201.638
21
-67.7128
0
LINE
8
BLACK
6
CONTINUOUS
10
199.189
20
-66.4404
11
194.689
21
-66.4404
0
ARC
8
BLACK
10
194.689
20
-65.9404
40
0.500001
50
-180
51
-90.0001
0
ARC
8
BLACK
10
192.779
20
-70.89
40
1.44391
50
-2.31713
51
93.2266
0
CIRCLE
8
BLACK
10
191.905
20
-72.9198
40
1.75
0
CIRCLE
8
BLACK
10
186.405
20
-72.9198
40
0.855
0
CIRCLE
8
BLACK
10
197.405
20
-72.9198
40
0.855
0
LINE
8
BLACK
6
CONTINUOUS
10
171.597
20
-69.0104
11
172.097
21
-68.5104
0
LINE
8
BLACK
6
CONTINUOUS
10
172.097
20
-68.5104
11
175.605
21
-68.5104
0
LINE
8
BLACK
6
CONTINUOUS
10
171.597
20
-72.4432
11
169.148
21
-72.4432
0
LINE
8
BLACK
6
CONTINUOUS
10
181.105
20
-71.7828
11
181.105
21
-70.5104
0
LINE
8
BLACK
6
CONTINUOUS
10
176.105
20
-70.0104
11
176.105
21
-69.0104
0
LINE
8
BLACK
6
CONTINUOUS
10
183.553
20
-74.6784
11
183.553
21
-71.7828
0
LINE
8
BLACK
6
CONTINUOUS
10
171.597
20
-73.0184
11
172.097
21
-73.5184
0
LINE
8
BLACK
6
CONTINUOUS
10
171.597
20
-69.5476
11
169.148
21
-69.5476
0
LINE
8
BLACK
6
CONTINUOUS
10
171.597
20
-69.5476
11
171.597
21
-69.0104
0
LINE
8
BLACK
6
CONTINUOUS
10
176.137
20
-75.0184
11
176.137
21
-75.7184
0
LINE
8
BLACK
6
CONTINUOUS
10
181.105
20
-74.6784
11
183.553
21
-74.6784
0
LINE
8
BLACK
6
CONTINUOUS
10
181.105
20
-70.5104
11
176.605
21
-70.5104
0
LINE
8
BLACK
6
CONTINUOUS
10
171.597
20
-73.0184
11
171.597
21
-72.4432
0
LINE
8
BLACK
6
CONTINUOUS
10
181.105
20
-71.7828
11
183.553
21
-71.7828
0
LINE
8
BLACK
6
CONTINUOUS
10
181.105
20
-75.7184
11
181.105
21
-74.6784
0
LINE
8
BLACK
6
CONTINUOUS
10
169.148
20
-69.5476
11
169.148
21
-72.4432
0
LINE
8
BLACK
6
CONTINUOUS
10
172.097
20
-73.5184
11
174.613
21
-73.5184
0
LINE
8
BLACK
6
CONTINUOUS
10
175.605
20
-68.5104
11
176.105
21
-69.0104
0
LINE
8
BLACK
6
CONTINUOUS
10
176.137
20
-75.7184
11
181.105
21
-75.7184
0
ARC
8
BLACK
10
174.694
20
-74.96
40
1.44391
50
-2.31713
51
93.2266
0
ARC
8
BLACK
10
176.605
20
-70.0104
40
0.500001
50
-180
51
-90.0001
0
CIRCLE
8
BLACK
10
168.32
20
-76.9898
40
0.855
0
CIRCLE
8
BLACK
10
173.82
20
-76.9898
40
1.75
0
CIRCLE
8
BLACK
10
179.32
20
-76.9898
40
0.855
0
CIRCLE
8
BLACK
10
254
20
-90.4736
40
2.15
0
LINE
8
BLACK
6
CONTINUOUS
10
199.189
20
-88.6664
11
199.189
21
-87.6264
0
LINE
8
BLACK
6
CONTINUOUS
10
201.638
20
-87.6264
11
201.638
21
-84.7308
0
LINE
8
BLACK
6
CONTINUOUS
10
194.221
20
-88.6664
11
199.189
21
-88.6664
0
LINE
8
BLACK
6
CONTINUOUS
10
193.689
20
-81.4584
11
194.189
21
-81.9584
0
LINE
8
BLACK
6
CONTINUOUS
10
190.181
20
-86.4664
11
192.697
21
-86.4664
0
LINE
8
BLACK
6
CONTINUOUS
10
187.233
20
-82.4956
11
187.233
21
-85.3912
0
LINE
8
BLACK
6
CONTINUOUS
10
199.189
20
-83.4584
11
194.689
21
-83.4584
0
LINE
8
BLACK
6
CONTINUOUS
10
194.221
20
-87.9664
11
194.221
21
-88.6664
0
LINE
8
BLACK
6
CONTINUOUS
10
199.189
20
-84.7308
11
201.638
21
-84.7308
0
LINE
8
BLACK
6
CONTINUOUS
10
189.681
20
-85.9664
11
190.181
21
-86.4664
0
LINE
8
BLACK
6
CONTINUOUS
10
194.189
20
-82.9584
11
194.189
21
-81.9584
0
LINE
8
BLACK
6
CONTINUOUS
10
189.681
20
-85.9664
11
189.681
21
-85.3912
0
LINE
8
BLACK
6
CONTINUOUS
10
189.681
20
-85.3912
11
187.233
21
-85.3912
0
LINE
8
BLACK
6
CONTINUOUS
10
189.681
20
-82.4956
11
187.233
21
-82.4956
0
LINE
8
BLACK
6
CONTINUOUS
10
190.181
20
-81.4584
11
193.689
21
-81.4584
0
LINE
8
BLACK
6
CONTINUOUS
10
199.189
20
-84.7308
11
199.189
21
-83.4584
0
LINE
8
BLACK
6
CONTINUOUS
10
189.681
20
-81.9584
11
190.181
21
-81.4584
0
LINE
8
BLACK
6
CONTINUOUS
10
199.189
20
-87.6264
11
201.638
21
-87.6264
0
LINE
8
BLACK
6
CONTINUOUS
10
189.681
20
-82.4956
11
189.681
21
-81.9584
0
ARC
8
BLACK
10
192.779
20
-87.908
40
1.44391
50
-2.31713
51
93.2266
0
ARC
8
BLACK
10
194.689
20
-82.9584
40
0.500001
50
-180
51
-90.0001
0
CIRCLE
8
BLACK
10
191.905
20
-89.9378
40
1.75
0
CIRCLE
8
BLACK
10
186.405
20
-89.9378
40
0.855
0
CIRCLE
8
BLACK
10
197.405
20
-89.9378
40
0.855
0
LINE
8
BLACK
6
CONTINUOUS
10
95.1978
20
-85.9664
11
95.1978
21
-85.3912
0
LINE
8
BLACK
6
CONTINUOUS
10
95.6978
20
-86.4664
11
98.2138
21
-86.4664
0
LINE
8
BLACK
6
CONTINUOUS
10
95.1978
20
-85.9664
11
95.6978
21
-86.4664
0
LINE
8
BLACK
6
CONTINUOUS
10
107.155
20
-87.6264
11
107.155
21
-84.7308
0
LINE
8
BLACK
6
CONTINUOUS
10
104.706
20
-88.6664
11
104.706
21
-87.6264
0
LINE
8
BLACK
6
CONTINUOUS
10
99.7058
20
-82.9584
11
99.7058
21
-81.9584
0
LINE
8
BLACK
6
CONTINUOUS
10
95.1978
20
-82.4956
11
95.1978
21
-81.9584
0
LINE
8
BLACK
6
CONTINUOUS
10
99.7378
20
-88.6664
11
104.706
21
-88.6664
0
LINE
8
BLACK
6
CONTINUOUS
10
99.2058
20
-81.4584
11
99.7058
21
-81.9584
0
LINE
8
BLACK
6
CONTINUOUS
10
99.7378
20
-87.9664
11
99.7378
21
-88.6664
0
LINE
8
BLACK
6
CONTINUOUS
10
95.1978
20
-81.9584
11
95.6978
21
-81.4584
0
LINE
8
BLACK
6
CONTINUOUS
10
95.1978
20
-85.3912
11
92.749
21
-85.3912
0
LINE
8
BLACK
6
CONTINUOUS
10
104.706
20
-84.7308
11
107.155
21
-84.7308
0
LINE
8
BLACK
6
CONTINUOUS
10
95.6978
20
-81.4584
11
99.2058
21
-81.4584
0
LINE
8
BLACK
6
CONTINUOUS
10
92.749
20
-82.4956
11
92.749
21
-85.3912
0
LINE
8
BLACK
6
CONTINUOUS
10
104.706
20
-84.7308
11
104.706
21
-83.4584
0
LINE
8
BLACK
6
CONTINUOUS
10
95.1978
20
-82.4956
11
92.749
21
-82.4956
0
LINE
8
BLACK
6
CONTINUOUS
10
104.706
20
-87.6264
11
107.155
21
-87.6264
0
LINE
8
BLACK
6
CONTINUOUS
10
104.706
20
-83.4584
11
100.206
21
-83.4584
0
ARC
8
BLACK
10
98.2951
20
-87.908
40
1.44391
50
-2.31713
51
93.2266
0
ARC
8
BLACK
10
100.206
20
-82.9584
40
0.500001
50
-180
51
-90.0001
0
CIRCLE
8
BLACK
10
102.921
20
-89.9378
40
0.855
0
CIRCLE
8
BLACK
10
91.9212
20
-89.9378
40
0.855
0
CIRCLE
8
BLACK
10
97.4212
20
-89.9378
40
1.75
0
LINE
8
BLACK
6
CONTINUOUS
10
110.834
20
-52.5296
11
110.834
21
-55.4252
0
LINE
8
BLACK
6
CONTINUOUS
10
113.283
20
-52.5296
11
113.283
21
-51.9924
0
LINE
8
BLACK
6
CONTINUOUS
10
122.791
20
-57.6604
11
125.239
21
-57.6604
0
LINE
8
BLACK
6
CONTINUOUS
10
113.283
20
-56.0004
11
113.283
21
-55.4252
0
LINE
8
BLACK
6
CONTINUOUS
10
117.791
20
-52.9924
11
117.791
21
-51.9924
0
LINE
8
BLACK
6
CONTINUOUS
10
113.283
20
-51.9924
11
113.783
21
-51.4924
0
LINE
8
BLACK
6
CONTINUOUS
10
113.283
20
-52.5296
11
110.834
21
-52.5296
0
LINE
8
BLACK
6
CONTINUOUS
10
113.283
20
-56.0004
11
113.783
21
-56.5004
0
LINE
8
BLACK
6
CONTINUOUS
10
113.283
20
-55.4252
11
110.834
21
-55.4252
0
LINE
8
BLACK
6
CONTINUOUS
10
125.239
20
-57.6604
11
125.239
21
-54.7648
0
LINE
8
BLACK
6
CONTINUOUS
10
117.823
20
-58.7004
11
122.791
21
-58.7004
0
LINE
8
BLACK
6
CONTINUOUS
10
122.791
20
-54.7648
11
122.791
21
-53.4924
0
LINE
8
BLACK
6
CONTINUOUS
10
117.291
20
-51.4924
11
117.791
21
-51.9924
0
LINE
8
BLACK
6
CONTINUOUS
10
122.791
20
-58.7004
11
122.791
21
-57.6604
0
LINE
8
BLACK
6
CONTINUOUS
10
113.783
20
-51.4924
11
117.291
21
-51.4924
0
LINE
8
BLACK
6
CONTINUOUS
10
113.783
20
-56.5004
11
116.299
21
-56.5004
0
LINE
8
BLACK
6
CONTINUOUS
10
117.823
20
-58.0004
11
117.823
21
-58.7004
0
LINE
8
BLACK
6
CONTINUOUS
10
122.791
20
-54.7648
11
125.239
21
-54.7648
0
LINE
8
BLACK
6
CONTINUOUS
10
122.791
20
-53.4924
11
118.291
21
-53.4924
0
ARC
8
BLACK
10
116.38
20
-57.942
40
1.44391
50
-2.31713
51
93.2266
0
ARC
8
BLACK
10
118.291
20
-52.9924
40
0.500001
50
-180
51
-90.0001
0
CIRCLE
8
BLACK
10
115.506
20
-59.9718
40
1.75
0
CIRCLE
8
BLACK
10
110.006
20
-59.9718
40
0.855
0
CIRCLE
8
BLACK
10
121.006
20
-59.9718
40
0.855
0
LINE
8
BLACK
6
CONTINUOUS
10
180.87
20
-92.5078
11
183.27
21
-92.5078
0
LINE
8
BLACK
6
CONTINUOUS
10
183.27
20
-92.5078
11
183.27
21
-97.949
0
LINE
8
BLACK
6
CONTINUOUS
10
183.27
20
-97.949
11
180.87
21
-97.949
0
LINE
8
BLACK
6
CONTINUOUS
10
180.87
20
-97.949
11
180.87
21
-92.5078
0
LINE
8
BLACK
6
CONTINUOUS
10
180.87
20
-75.4898
11
183.27
21
-75.4898
0
LINE
8
BLACK
6
CONTINUOUS
10
183.27
20
-75.4898
11
183.27
21
-80.931
0
LINE
8
BLACK
6
CONTINUOUS
10
183.27
20
-80.931
11
180.87
21
-80.931
0
LINE
8
BLACK
6
CONTINUOUS
10
180.87
20
-80.931
11
180.87
21
-75.4898
0
LINE
8
BLACK
6
CONTINUOUS
10
95.1978
20
-65.4776
11
92.749
21
-65.4776
0
LINE
8
BLACK
6
CONTINUOUS
10
95.1978
20
-64.9404
11
95.6978
21
-64.4404
0
LINE
8
BLACK
6
CONTINUOUS
10
99.7378
20
-70.9484
11
99.7378
21
-71.6484
0
LINE
8
BLACK
6
CONTINUOUS
10
104.706
20
-66.4404
11
100.206
21
-66.4404
0
LINE
8
BLACK
6
CONTINUOUS
10
104.706
20
-67.7128
11
107.155
21
-67.7128
0
LINE
8
BLACK
6
CONTINUOUS
10
95.1978
20
-68.9484
11
95.6978
21
-69.4484
0
LINE
8
BLACK
6
CONTINUOUS
10
104.706
20
-71.6484
11
104.706
21
-70.6084
0
LINE
8
BLACK
6
CONTINUOUS
10
104.706
20
-70.6084
11
107.155
21
-70.6084
0
LINE
8
BLACK
6
CONTINUOUS
10
95.6978
20
-69.4484
11
98.2138
21
-69.4484
0
LINE
8
BLACK
6
CONTINUOUS
10
107.155
20
-70.6084
11
107.155
21
-67.7128
0
LINE
8
BLACK
6
CONTINUOUS
10
99.2058
20
-64.4404
11
99.7058
21
-64.9404
0
LINE
8
BLACK
6
CONTINUOUS
10
92.749
20
-65.4776
11
92.749
21
-68.3732
0
LINE
8
BLACK
6
CONTINUOUS
10
99.7058
20
-65.9404
11
99.7058
21
-64.9404
0
LINE
8
BLACK
6
CONTINUOUS
10
95.1978
20
-68.9484
11
95.1978
21
-68.3732
0
LINE
8
BLACK
6
CONTINUOUS
10
104.706
20
-67.7128
11
104.706
21
-66.4404
0
LINE
8
BLACK
6
CONTINUOUS
10
99.7378
20
-71.6484
11
104.706
21
-71.6484
0
LINE
8
BLACK
6
CONTINUOUS
10
95.1978
20
-68.3732
11
92.749
21
-68.3732
0
LINE
8
BLACK
6
CONTINUOUS
10
95.6978
20
-64.4404
11
99.2058
21
-64.4404
0
LINE
8
BLACK
6
CONTINUOUS
10
95.1978
20
-65.4776
11
95.1978
21
-64.9404
0
ARC
8
BLACK
10
100.206
20
-65.9404
40
0.500001
50
-180
51
-90.0001
0
ARC
8
BLACK
10
98.2951
20
-70.89
40
1.44391
50
-2.31713
51
93.2266
0
CIRCLE
8
BLACK
10
91.9212
20
-72.9198
40
0.855
0
CIRCLE
8
BLACK
10
102.921
20
-72.9198
40
0.855
0
CIRCLE
8
BLACK
10
97.4212
20
-72.9198
40
1.75
0
LINE
8
BLACK
6
CONTINUOUS
10
131.367
20
-89.5284
11
131.867
21
-89.0284
0
LINE
8
BLACK
6
CONTINUOUS
10
131.367
20
-93.5364
11
131.367
21
-92.9612
0
LINE
8
BLACK
6
CONTINUOUS
10
135.907
20
-96.2364
11
140.875
21
-96.2364
0
LINE
8
BLACK
6
CONTINUOUS
10
131.867
20
-94.0364
11
134.383
21
-94.0364
0
LINE
8
BLACK
6
CONTINUOUS
10
135.375
20
-89.0284
11
135.875
21
-89.5284
0
LINE
8
BLACK
6
CONTINUOUS
10
140.875
20
-95.1964
11
143.324
21
-95.1964
0
LINE
8
BLACK
6
CONTINUOUS
10
131.367
20
-92.9612
11
128.919
21
-92.9612
0
LINE
8
BLACK
6
CONTINUOUS
10
140.875
20
-92.3008
11
143.324
21
-92.3008
0
LINE
8
BLACK
6
CONTINUOUS
10
131.367
20
-93.5364
11
131.867
21
-94.0364
0
LINE
8
BLACK
6
CONTINUOUS
10
131.367
20
-90.0656
11
128.919
21
-90.0656
0
LINE
8
BLACK
6
CONTINUOUS
10
140.875
20
-91.0284
11
136.375
21
-91.0284
0
LINE
8
BLACK
6
CONTINUOUS
10
128.919
20
-90.0656
11
128.919
21
-92.9612
0
LINE
8
BLACK
6
CONTINUOUS
10
140.875
20
-92.3008
11
140.875
21
-91.0284
0
LINE
8
BLACK
6
CONTINUOUS
10
135.907
20
-95.5364
11
135.907
21
-96.2364
0
LINE
8
BLACK
6
CONTINUOUS
10
135.875
20
-90.5284
11
135.875
21
-89.5284
0
LINE
8
BLACK
6
CONTINUOUS
10
140.875
20
-96.2364
11
140.875
21
-95.1964
0
LINE
8
BLACK
6
CONTINUOUS
10
131.367
20
-90.0656
11
131.367
21
-89.5284
0
LINE
8
BLACK
6
CONTINUOUS
10
131.867
20
-89.0284
11
135.375
21
-89.0284
0
LINE
8
BLACK
6
CONTINUOUS
10
143.324
20
-95.1964
11
143.324
21
-92.3008
0
ARC
8
BLACK
10
136.375
20
-90.5284
40
0.500001
50
-180
51
-90.0001
0
ARC
8
BLACK
10
134.465
20
-95.478
40
1.44391
50
-2.31713
51
93.2266
0
CIRCLE
8
BLACK
10
133.591
20
-97.5078
40
1.75
0
CIRCLE
8
BLACK
10
139.091
20
-97.5078
40
0.855
0
CIRCLE
8
BLACK
10
128.091
20
-97.5078
40
0.855
0
LINE
8
BLACK
6
CONTINUOUS
10
246.183
20
-127.587
11
249.278
21
-122.227
0
LINE
8
BLACK
6
CONTINUOUS
10
250.202
20
-122.761
11
250.867
21
-121.608
0
LINE
8
BLACK
6
CONTINUOUS
10
247.107
20
-128.12
11
246.467
21
-129.229
0
LINE
8
BLACK
6
CONTINUOUS
10
247.107
20
-128.12
11
246.183
21
-127.587
0
LINE
8
BLACK
6
CONTINUOUS
10
250.867
20
-121.608
11
253.771
21
-123.284
0
LINE
8
BLACK
6
CONTINUOUS
10
250.202
20
-122.761
11
249.278
21
-122.227
0
LINE
8
BLACK
6
CONTINUOUS
10
249.371
20
-130.905
11
246.467
21
-129.229
0
LINE
8
BLACK
6
CONTINUOUS
10
253.771
20
-123.284
11
249.371
21
-130.905
0
LINE
8
BLACK
6
CONTINUOUS
10
171.597
20
-51.9924
11
172.097
21
-51.4924
0
LINE
8
BLACK
6
CONTINUOUS
10
171.597
20
-55.4252
11
169.148
21
-55.4252
0
LINE
8
BLACK
6
CONTINUOUS
10
176.137
20
-58.0004
11
176.137
21
-58.7004
0
LINE
8
BLACK
6
CONTINUOUS
10
172.097
20
-51.4924
11
175.605
21
-51.4924
0
LINE
8
BLACK
6
CONTINUOUS
10
181.105
20
-57.6604
11
183.553
21
-57.6604
0
LINE
8
BLACK
6
CONTINUOUS
10
181.105
20
-54.7648
11
183.553
21
-54.7648
0
LINE
8
BLACK
6
CONTINUOUS
10
171.597
20
-52.5296
11
169.148
21
-52.5296
0
LINE
8
BLACK
6
CONTINUOUS
10
176.105
20
-52.9924
11
176.105
21
-51.9924
0
LINE
8
BLACK
6
CONTINUOUS
10
181.105
20
-58.7004
11
181.105
21
-57.6604
0
LINE
8
BLACK
6
CONTINUOUS
10
181.105
20
-54.7648
11
181.105
21
-53.4924
0
LINE
8
BLACK
6
CONTINUOUS
10
172.097
20
-56.5004
11
174.613
21
-56.5004
0
LINE
8
BLACK
6
CONTINUOUS
10
175.605
20
-51.4924
11
176.105
21
-51.9924
0
LINE
8
BLACK
6
CONTINUOUS
10
171.597
20
-56.0004
11
172.097
21
-56.5004
0
LINE
8
BLACK
6
CONTINUOUS
10
171.597
20
-56.0004
11
171.597
21
-55.4252
0
LINE
8
BLACK
6
CONTINUOUS
10
176.137
20
-58.7004
11
181.105
21
-58.7004
0
LINE
8
BLACK
6
CONTINUOUS
10
171.597
20
-52.5296
11
171.597
21
-51.9924
0
LINE
8
BLACK
6
CONTINUOUS
10
169.148
20
-52.5296
11
169.148
21
-55.4252
0
LINE
8
BLACK
6
CONTINUOUS
10
183.553
20
-57.6604
11
183.553
21
-54.7648
0
LINE
8
BLACK
6
CONTINUOUS
10
181.105
20
-53.4924
11
176.605
21
-53.4924
0
ARC
8
BLACK
10
176.605
20
-52.9924
40
0.500001
50
-180
51
-90.0001
0
ARC
8
BLACK
10
174.694
20
-57.942
40
1.44391
50
-2.31713
51
93.2266
0
CIRCLE
8
BLACK
10
179.32
20
-59.9718
40
0.855
0
CIRCLE
8
BLACK
10
168.32
20
-59.9718
40
0.855
0
CIRCLE
8
BLACK
10
173.82
20
-59.9718
40
1.75
0
LINE
8
BLACK
6
CONTINUOUS
10
77.113
20
-84.7584
11
77.613
21
-84.2584
0
LINE
8
BLACK
6
CONTINUOUS
10
77.613
20
-89.2664
11
80.129
21
-89.2664
0
LINE
8
BLACK
6
CONTINUOUS
10
86.621
20
-86.2584
11
82.121
21
-86.2584
0
LINE
8
BLACK
6
CONTINUOUS
10
77.113
20
-85.2956
11
74.6642
21
-85.2956
0
LINE
8
BLACK
6
CONTINUOUS
10
86.621
20
-91.4664
11
86.621
21
-90.4264
0
LINE
8
BLACK
6
CONTINUOUS
10
89.0698
20
-90.4264
11
89.0698
21
-87.5308
0
LINE
8
BLACK
6
CONTINUOUS
10
77.113
20
-88.7664
11
77.113
21
-88.1912
0
LINE
8
BLACK
6
CONTINUOUS
10
77.113
20
-88.1912
11
74.6642
21
-88.1912
0
LINE
8
BLACK
6
CONTINUOUS
10
77.613
20
-84.2584
11
81.121
21
-84.2584
0
LINE
8
BLACK
6
CONTINUOUS
10
81.121
20
-84.2584
11
81.621
21
-84.7584
0
LINE
8
BLACK
6
CONTINUOUS
10
81.621
20
-85.7584
11
81.621
21
-84.7584
0
LINE
8
BLACK
6
CONTINUOUS
10
77.113
20
-88.7664
11
77.613
21
-89.2664
0
LINE
8
BLACK
6
CONTINUOUS
10
81.653
20
-91.4664
11
86.621
21
-91.4664
0
LINE
8
BLACK
6
CONTINUOUS
10
86.621
20
-90.4264
11
89.0698
21
-90.4264
0
LINE
8
BLACK
6
CONTINUOUS
10
86.621
20
-87.5308
11
89.0698
21
-87.5308
0
LINE
8
BLACK
6
CONTINUOUS
10
74.6642
20
-85.2956
11
74.6642
21
-88.1912
0
LINE
8
BLACK
6
CONTINUOUS
10
81.653
20
-90.7664
11
81.653
21
-91.4664
0
LINE
8
BLACK
6
CONTINUOUS
10
77.113
20
-85.2956
11
77.113
21
-84.7584
0
LINE
8
BLACK
6
CONTINUOUS
10
86.621
20
-87.5308
11
86.621
21
-86.2584
0
ARC
8
BLACK
10
80.2103
20
-90.708
40
1.44391
50
-2.31713
51
93.2266
0
ARC
8
BLACK
10
82.121
20
-85.7584
40
0.500001
50
-180
51
-90.0001
0
CIRCLE
8
BLACK
10
79.3364
20
-92.7378
40
1.75
0
CIRCLE
8
BLACK
10
73.8364
20
-92.7378
40
0.855
0
CIRCLE
8
BLACK
10
84.8364
20
-92.7378
40
0.855
0
LINE
8
BLACK
6
CONTINUOUS
10
95.1978
20
-48.4596
11
95.1978
21
-47.9224
0
LINE
8
BLACK
6
CONTINUOUS
10
95.1978
20
-51.3552
11
92.749
21
-51.3552
0
LINE
8
BLACK
6
CONTINUOUS
10
99.2058
20
-47.4224
11
99.7058
21
-47.9224
0
LINE
8
BLACK
6
CONTINUOUS
10
99.7378
20
-54.6304
11
104.706
21
-54.6304
0
LINE
8
BLACK
6
CONTINUOUS
10
107.155
20
-53.5904
11
107.155
21
-50.6948
0
LINE
8
BLACK
6
CONTINUOUS
10
95.1978
20
-51.9304
11
95.6978
21
-52.4304
0
LINE
8
BLACK
6
CONTINUOUS
10
104.706
20
-50.6948
11
107.155
21
-50.6948
0
LINE
8
BLACK
6
CONTINUOUS
10
95.1978
20
-51.9304
11
95.1978
21
-51.3552
0
LINE
8
BLACK
6
CONTINUOUS
10
92.749
20
-48.4596
11
92.749
21
-51.3552
0
LINE
8
BLACK
6
CONTINUOUS
10
95.6978
20
-47.4224
11
99.2058
21
-47.4224
0
LINE
8
BLACK
6
CONTINUOUS
10
99.7058
20
-48.9224
11
99.7058
21
-47.9224
0
LINE
8
BLACK
6
CONTINUOUS
10
95.1978
20
-47.9224
11
95.6978
21
-47.4224
0
LINE
8
BLACK
6
CONTINUOUS
10
104.706
20
-54.6304
11
104.706
21
-53.5904
0
LINE
8
BLACK
6
CONTINUOUS
10
104.706
20
-49.4224
11
100.206
21
-49.4224
0
LINE
8
BLACK
6
CONTINUOUS
10
99.7378
20
-53.9304
11
99.7378
21
-54.6304
0
LINE
8
BLACK
6
CONTINUOUS
10
95.1978
20
-48.4596
11
92.749
21
-48.4596
0
LINE
8
BLACK
6
CONTINUOUS
10
104.706
20
-53.5904
11
107.155
21
-53.5904
0
LINE
8
BLACK
6
CONTINUOUS
10
104.706
20
-50.6948
11
104.706
21
-49.4224
0
LINE
8
BLACK
6
CONTINUOUS
10
95.6978
20
-52.4304
11
98.2138
21
-52.4304
0
ARC
8
BLACK
10
98.2951
20
-53.872
40
1.44391
50
-2.31713
51
93.2266
0
ARC
8
BLACK
10
100.206
20
-48.9224
40
0.500001
50
-180
51
-90.0001
0
CIRCLE
8
BLACK
10
91.9212
20
-55.9018
40
0.855
0
CIRCLE
8
BLACK
10
102.921
20
-55.9018
40
0.855
0
CIRCLE
8
BLACK
10
97.4212
20
-55.9018
40
1.75
0
CIRCLE
8
BLACK
10
247.244
20
-90.4071
40
0.4
0
CIRCLE
8
BLACK
10
248.494
20
-90.4071
40
0.4
0
LINE
8
BLACK
6
CONTINUOUS
10
117.823
20
-75.7184
11
122.791
21
-75.7184
0
LINE
8
BLACK
6
CONTINUOUS
10
122.791
20
-74.6784
11
125.239
21
-74.6784
0
LINE
8
BLACK
6
CONTINUOUS
10
122.791
20
-70.5104
11
118.291
21
-70.5104
0
LINE
8
BLACK
6
CONTINUOUS
10
117.291
20
-68.5104
11
117.791
21
-69.0104
0
LINE
8
BLACK
6
CONTINUOUS
10
110.834
20
-69.5476
11
110.834
21
-72.4432
0
LINE
8
BLACK
6
CONTINUOUS
10
113.283
20
-69.5476
11
110.834
21
-69.5476
0
LINE
8
BLACK
6
CONTINUOUS
10
113.283
20
-69.0104
11
113.783
21
-68.5104
0
LINE
8
BLACK
6
CONTINUOUS
10
113.783
20
-68.5104
11
117.291
21
-68.5104
0
LINE
8
BLACK
6
CONTINUOUS
10
125.239
20
-74.6784
11
125.239
21
-71.7828
0
LINE
8
BLACK
6
CONTINUOUS
10
113.783
20
-73.5184
11
116.299
21
-73.5184
0
LINE
8
BLACK
6
CONTINUOUS
10
117.791
20
-70.0104
11
117.791
21
-69.0104
0
LINE
8
BLACK
6
CONTINUOUS
10
122.791
20
-71.7828
11
122.791
21
-70.5104
0
LINE
8
BLACK
6
CONTINUOUS
10
113.283
20
-72.4432
11
110.834
21
-72.4432
0
LINE
8
BLACK
6
CONTINUOUS
10
113.283
20
-73.0184
11
113.783
21
-73.5184
0
LINE
8
BLACK
6
CONTINUOUS
10
117.823
20
-75.0184
11
117.823
21
-75.7184
0
LINE
8
BLACK
6
CONTINUOUS
10
113.283
20
-69.5476
11
113.283
21
-69.0104
0
LINE
8
BLACK
6
CONTINUOUS
10
122.791
20
-75.7184
11
122.791
21
-74.6784
0
LINE
8
BLACK
6
CONTINUOUS
10
113.283
20
-73.0184
11
113.283
21
-72.4432
0
LINE
8
BLACK
6
CONTINUOUS
10
122.791
20
-71.7828
11
125.239
21
-71.7828
0
ARC
8
BLACK
10
118.291
20
-70.0104
40
0.500001
50
-180
51
-90.0001
0
ARC
8
BLACK
10
116.38
20
-74.96
40
1.44391
50
-2.31713
51
93.2266
0
CIRCLE
8
BLACK
10
115.506
20
-76.9898
40
1.75
0
CIRCLE
8
BLACK
10
121.006
20
-76.9898
40
0.855
0
CIRCLE
8
BLACK
10
110.006
20
-76.9898
40
0.855
0
LINE
8
BLACK
6
CONTINUOUS
10
217.04
20
-76.0878
11
219.44
21
-76.0878
0
LINE
8
BLACK
6
CONTINUOUS
10
219.44
20
-76.0878
11
219.44
21
-81.529
0
LINE
8
BLACK
6
CONTINUOUS
10
219.44
20
-81.529
11
217.04
21
-81.529
0
LINE
8
BLACK
6
CONTINUOUS
10
217.04
20
-81.529
11
217.04
21
-76.0878
0
LINE
8
BLACK
6
CONTINUOUS
10
153.512
20
-92.9612
11
151.063
21
-92.9612
0
LINE
8
BLACK
6
CONTINUOUS
10
163.02
20
-92.3008
11
163.02
21
-91.0284
0
LINE
8
BLACK
6
CONTINUOUS
10
158.02
20
-90.5284
11
158.02
21
-89.5284
0
LINE
8
BLACK
6
CONTINUOUS
10
163.02
20
-92.3008
11
165.469
21
-92.3008
0
LINE
8
BLACK
6
CONTINUOUS
10
163.02
20
-96.2364
11
163.02
21
-95.1964
0
LINE
8
BLACK
6
CONTINUOUS
10
158.052
20
-95.5364
11
158.052
21
-96.2364
0
LINE
8
BLACK
6
CONTINUOUS
10
153.512
20
-93.5364
11
154.012
21
-94.0364
0
LINE
8
BLACK
6
CONTINUOUS
10
163.02
20
-91.0284
11
158.52
21
-91.0284
0
LINE
8
BLACK
6
CONTINUOUS
10
158.052
20
-96.2364
11
163.02
21
-96.2364
0
LINE
8
BLACK
6
CONTINUOUS
10
153.512
20
-90.0656
11
153.512
21
-89.5284
0
LINE
8
BLACK
6
CONTINUOUS
10
151.063
20
-90.0656
11
151.063
21
-92.9612
0
LINE
8
BLACK
6
CONTINUOUS
10
153.512
20
-93.5364
11
153.512
21
-92.9612
0
LINE
8
BLACK
6
CONTINUOUS
10
153.512
20
-89.5284
11
154.012
21
-89.0284
0
LINE
8
BLACK
6
CONTINUOUS
10
154.012
20
-89.0284
11
157.52
21
-89.0284
0
LINE
8
BLACK
6
CONTINUOUS
10
165.469
20
-95.1964
11
165.469
21
-92.3008
0
LINE
8
BLACK
6
CONTINUOUS
10
153.512
20
-90.0656
11
151.063
21
-90.0656
0
LINE
8
BLACK
6
CONTINUOUS
10
157.52
20
-89.0284
11
158.02
21
-89.5284
0
LINE
8
BLACK
6
CONTINUOUS
10
163.02
20
-95.1964
11
165.469
21
-95.1964
0
LINE
8
BLACK
6
CONTINUOUS
10
154.012
20
-94.0364
11
156.528
21
-94.0364
0
ARC
8
BLACK
10
156.609
20
-95.478
40
1.44391
50
-2.31713
51
93.2266
0
ARC
8
BLACK
10
158.52
20
-90.5284
40
0.500001
50
-180
51
-90.0001
0
CIRCLE
8
BLACK
10
150.235
20
-97.5078
40
0.855
0
CIRCLE
8
BLACK
10
161.235
20
-97.5078
40
0.855
0
CIRCLE
8
BLACK
10
155.735
20
-97.5078
40
1.75
0
LINE
8
BLACK
6
CONTINUOUS
10
217.274
20
-56.3902
11
219.723
21
-56.3902
0
LINE
8
BLACK
6
CONTINUOUS
10
212.274
20
-51.7222
11
212.274
21
-50.7222
0
LINE
8
BLACK
6
CONTINUOUS
10
207.766
20
-54.7302
11
207.766
21
-54.155
0
LINE
8
BLACK
6
CONTINUOUS
10
212.306
20
-56.7302
11
212.306
21
-57.4302
0
LINE
8
BLACK
6
CONTINUOUS
10
207.766
20
-50.7222
11
208.266
21
-50.2222
0
LINE
8
BLACK
6
CONTINUOUS
10
207.766
20
-54.155
11
205.317
21
-54.155
0
LINE
8
BLACK
6
CONTINUOUS
10
207.766
20
-51.2594
11
205.317
21
-51.2594
0
LINE
8
BLACK
6
CONTINUOUS
10
205.317
20
-51.2594
11
205.317
21
-54.155
0
LINE
8
BLACK
6
CONTINUOUS
10
217.274
20
-53.4946
11
217.274
21
-52.2222
0
LINE
8
BLACK
6
CONTINUOUS
10
207.766
20
-51.2594
11
207.766
21
-50.7222
0
LINE
8
BLACK
6
CONTINUOUS
10
207.766
20
-54.7302
11
208.266
21
-55.2302
0
LINE
8
BLACK
6
CONTINUOUS
10
212.306
20
-57.4302
11
217.274
21
-57.4302
0
LINE
8
BLACK
6
CONTINUOUS
10
219.723
20
-56.3902
11
219.723
21
-53.4946
0
LINE
8
BLACK
6
CONTINUOUS
10
217.274
20
-53.4946
11
219.723
21
-53.4946
0
LINE
8
BLACK
6
CONTINUOUS
10
208.266
20
-55.2302
11
210.782
21
-55.2302
0
LINE
8
BLACK
6
CONTINUOUS
10
217.274
20
-57.4302
11
217.274
21
-56.3902
0
LINE
8
BLACK
6
CONTINUOUS
10
211.774
20
-50.2222
11
212.274
21
-50.7222
0
LINE
8
BLACK
6
CONTINUOUS
10
208.266
20
-50.2222
11
211.774
21
-50.2222
0
LINE
8
BLACK
6
CONTINUOUS
10
217.274
20
-52.2222
11
212.774
21
-52.2222
0
ARC
8
BLACK
10
210.863
20
-56.6718
40
1.44391
50
-2.31713
51
93.2266
0
ARC
8
BLACK
10
212.774
20
-51.7222
40
0.500001
50
-180
51
-90.0001
0
CIRCLE
8
BLACK
10
209.99
20
-58.7016
40
1.75
0
CIRCLE
8
BLACK
10
215.49
20
-58.7016
40
0.855
0
CIRCLE
8
BLACK
10
204.49
20
-58.7016
40
0.855
0
LINE
8
BLACK
6
CONTINUOUS
10
235.124
20
-59.7414
11
237.524
21
-59.7414
0
LINE
8
BLACK
6
CONTINUOUS
10
237.524
20
-59.7414
11
237.524
21
-65.1826
0
LINE
8
BLACK
6
CONTINUOUS
10
237.524
20
-65.1826
11
235.124
21
-65.1826
0
LINE
8
BLACK
6
CONTINUOUS
10
235.124
20
-65.1826
11
235.124
21
-59.7414
0
CIRCLE
8
BLACK
10
217.699
20
-104.819
40
1.6
0
LINE
8
BLACK
6
CONTINUOUS
10
59.0282
20
-91.306
11
59.5282
21
-91.806
0
LINE
8
BLACK
6
CONTINUOUS
10
68.5362
20
-94.006
11
68.5362
21
-92.966
0
LINE
8
BLACK
6
CONTINUOUS
10
59.0282
20
-91.306
11
59.0282
21
-90.7308
0
LINE
8
BLACK
6
CONTINUOUS
10
56.5794
20
-87.8352
11
56.5794
21
-90.7308
0
LINE
8
BLACK
6
CONTINUOUS
10
68.5362
20
-88.798
11
64.0362
21
-88.798
0
LINE
8
BLACK
6
CONTINUOUS
10
59.5282
20
-91.806
11
62.0442
21
-91.806
0
LINE
8
BLACK
6
CONTINUOUS
10
59.0282
20
-87.8352
11
56.5794
21
-87.8352
0
LINE
8
BLACK
6
CONTINUOUS
10
63.5362
20
-88.298
11
63.5362
21
-87.298
0
LINE
8
BLACK
6
CONTINUOUS
10
63.5682
20
-93.306
11
63.5682
21
-94.006
0
LINE
8
BLACK
6
CONTINUOUS
10
59.0282
20
-90.7308
11
56.5794
21
-90.7308
0
LINE
8
BLACK
6
CONTINUOUS
10
68.5362
20
-90.0704
11
68.5362
21
-88.798
0
LINE
8
BLACK
6
CONTINUOUS
10
68.5362
20
-90.0704
11
70.985
21
-90.0704
0
LINE
8
BLACK
6
CONTINUOUS
10
59.0282
20
-87.8352
11
59.0282
21
-87.298
0
LINE
8
BLACK
6
CONTINUOUS
10
63.5682
20
-94.006
11
68.5362
21
-94.006
0
LINE
8
BLACK
6
CONTINUOUS
10
59.5282
20
-86.798
11
63.0362
21
-86.798
0
LINE
8
BLACK
6
CONTINUOUS
10
59.0282
20
-87.298
11
59.5282
21
-86.798
0
LINE
8
BLACK
6
CONTINUOUS
10
63.0362
20
-86.798
11
63.5362
21
-87.298
0
LINE
8
BLACK
6
CONTINUOUS
10
68.5362
20
-92.966
11
70.985
21
-92.966
0
LINE
8
BLACK
6
CONTINUOUS
10
70.985
20
-92.966
11
70.985
21
-90.0704
0
ARC
8
BLACK
10
64.0362
20
-88.298
40
0.500001
50
-180
51
-90.0001
0
ARC
8
BLACK
10
62.1255
20
-93.2476
40
1.44391
50
-2.31713
51
93.2266
0
CIRCLE
8
BLACK
10
61.2516
20
-95.2774
40
1.75
0
CIRCLE
8
BLACK
10
55.7516
20
-95.2774
40
0.855
0
CIRCLE
8
BLACK
10
66.7516
20
-95.2774
40
0.855
0
LINE
8
BLACK
6
CONTINUOUS
10
239.787
20
-130.579
11
239.5
21
-131.077
0
LINE
8
BLACK
6
CONTINUOUS
10
238.052
20
-133.585
11
237.783
21
-134.05
0
LINE
8
BLACK
6
CONTINUOUS
10
239.604
20
-129.896
11
237.425
21
-128.638
0
LINE
8
BLACK
6
CONTINUOUS
10
238.052
20
-133.585
11
240.173
21
-134.809
0
LINE
8
BLACK
6
CONTINUOUS
10
232.383
20
-124.387
11
230.262
21
-123.163
0
LINE
8
BLACK
6
CONTINUOUS
10
230.935
20
-126.895
11
230.299
21
-127.997
0
LINE
8
BLACK
6
CONTINUOUS
10
239.787
20
-130.579
11
239.604
21
-129.896
0
LINE
8
BLACK
6
CONTINUOUS
10
240.173
20
-134.809
11
241.62
21
-132.302
0
LINE
8
BLACK
6
CONTINUOUS
10
232.903
20
-123.487
11
232.383
21
-124.387
0
LINE
8
BLACK
6
CONTINUOUS
10
230.262
20
-123.163
11
228.815
21
-125.671
0
LINE
8
BLACK
6
CONTINUOUS
10
237.1
20
-134.233
11
234.062
21
-132.479
0
LINE
8
BLACK
6
CONTINUOUS
10
237.783
20
-134.05
11
237.1
21
-134.233
0
LINE
8
BLACK
6
CONTINUOUS
10
239.5
20
-131.077
11
241.62
21
-132.302
0
LINE
8
BLACK
6
CONTINUOUS
10
237.205
20
-125.971
11
232.903
21
-123.487
0
LINE
8
BLACK
6
CONTINUOUS
10
236.855
20
-126.577
11
237.205
21
-125.971
0
LINE
8
BLACK
6
CONTINUOUS
10
230.299
20
-127.997
11
234.196
21
-130.247
0
LINE
8
BLACK
6
CONTINUOUS
10
234.062
20
-132.479
11
233.879
21
-131.796
0
LINE
8
BLACK
6
CONTINUOUS
10
230.935
20
-126.895
11
228.815
21
-125.671
0
LINE
8
BLACK
6
CONTINUOUS
10
234.379
20
-130.93
11
233.879
21
-131.796
0
ARC
8
BLACK
10
238.076
20
-127.349
40
1.44391
50
-212.317
51
-116.773
0
ARC
8
BLACK
10
233.946
20
-130.68
40
0.500001
50
-29.9999
51
59.9998
0
CIRCLE
8
BLACK
10
239.847
20
-126.028
40
1.75
0
CIRCLE
8
BLACK
10
244.611
20
-128.778
40
0.855
0
CIRCLE
8
BLACK
10
235.084
20
-123.278
40
0.854999
0
LINE
8
BLACK
6
CONTINUOUS
10
226.747
20
-110.261
11
224.347
21
-110.261
0
LINE
8
BLACK
6
CONTINUOUS
10
224.347
20
-110.261
11
224.347
21
-104.819
0
LINE
8
BLACK
6
CONTINUOUS
10
224.347
20
-104.819
11
226.747
21
-104.819
0
LINE
8
BLACK
6
CONTINUOUS
10
226.747
20
-104.819
11
226.747
21
-110.261
0
LINE
8
BLACK
6
CONTINUOUS
10
131.367
20
-75.9432
11
128.919
21
-75.9432
0
LINE
8
BLACK
6
CONTINUOUS
10
140.875
20
-74.0104
11
136.375
21
-74.0104
0
LINE
8
BLACK
6
CONTINUOUS
10
131.867
20
-77.0184
11
134.383
21
-77.0184
0
LINE
8
BLACK
6
CONTINUOUS
10
135.875
20
-73.5104
11
135.875
21
-72.5104
0
LINE
8
BLACK
6
CONTINUOUS
10
143.324
20
-78.1784
11
143.324
21
-75.2828
0
LINE
8
BLACK
6
CONTINUOUS
10
131.367
20
-72.5104
11
131.867
21
-72.0104
0
LINE
8
BLACK
6
CONTINUOUS
10
140.875
20
-75.2828
11
143.324
21
-75.2828
0
LINE
8
BLACK
6
CONTINUOUS
10
131.367
20
-76.5184
11
131.367
21
-75.9432
0
LINE
8
BLACK
6
CONTINUOUS
10
131.367
20
-73.0476
11
128.919
21
-73.0476
0
LINE
8
BLACK
6
CONTINUOUS
10
135.375
20
-72.0104
11
135.875
21
-72.5104
0
LINE
8
BLACK
6
CONTINUOUS
10
140.875
20
-75.2828
11
140.875
21
-74.0104
0
LINE
8
BLACK
6
CONTINUOUS
10
131.867
20
-72.0104
11
135.375
21
-72.0104
0
LINE
8
BLACK
6
CONTINUOUS
10
131.367
20
-73.0476
11
131.367
21
-72.5104
0
LINE
8
BLACK
6
CONTINUOUS
10
135.907
20
-78.5184
11
135.907
21
-79.2184
0
LINE
8
BLACK
6
CONTINUOUS
10
135.907
20
-79.2184
11
140.875
21
-79.2184
0
LINE
8
BLACK
6
CONTINUOUS
10
140.875
20
-79.2184
11
140.875
21
-78.1784
0
LINE
8
BLACK
6
CONTINUOUS
10
128.919
20
-73.0476
11
128.919
21
-75.9432
0
LINE
8
BLACK
6
CONTINUOUS
10
131.367
20
-76.5184
11
131.867
21
-77.0184
0
LINE
8
BLACK
6
CONTINUOUS
10
140.875
20
-78.1784
11
143.324
21
-78.1784
0
ARC
8
BLACK
10
136.375
20
-73.5104
40
0.500001
50
-180
51
-90.0001
0
ARC
8
BLACK
10
134.465
20
-78.46
40
1.44391
50
-2.31713
51
93.2266
0
CIRCLE
8
BLACK
10
128.091
20
-80.4898
40
0.855
0
CIRCLE
8
BLACK
10
133.591
20
-80.4898
40
1.75
0
CIRCLE
8
BLACK
10
139.091
20
-80.4898
40
0.855
0
LINE
8
BLACK
6
CONTINUOUS
10
189.681
20
-51.9304
11
189.681
21
-51.3552
0
LINE
8
BLACK
6
CONTINUOUS
10
201.638
20
-53.5904
11
201.638
21
-50.6948
0
LINE
8
BLACK
6
CONTINUOUS
10
189.681
20
-47.9224
11
190.181
21
-47.4224
0
LINE
8
BLACK
6
CONTINUOUS
10
189.681
20
-51.9304
11
190.181
21
-52.4304
0
LINE
8
BLACK
6
CONTINUOUS
10
189.681
20
-48.4596
11
189.681
21
-47.9224
0
LINE
8
BLACK
6
CONTINUOUS
10
194.221
20
-54.6304
11
199.189
21
-54.6304
0
LINE
8
BLACK
6
CONTINUOUS
10
199.189
20
-50.6948
11
201.638
21
-50.6948
0
LINE
8
BLACK
6
CONTINUOUS
10
199.189
20
-50.6948
11
199.189
21
-49.4224
0
LINE
8
BLACK
6
CONTINUOUS
10
199.189
20
-49.4224
11
194.689
21
-49.4224
0
LINE
8
BLACK
6
CONTINUOUS
10
187.233
20
-48.4596
11
187.233
21
-51.3552
0
LINE
8
BLACK
6
CONTINUOUS
10
194.189
20
-48.9224
11
194.189
21
-47.9224
0
LINE
8
BLACK
6
CONTINUOUS
10
193.689
20
-47.4224
11
194.189
21
-47.9224
0
LINE
8
BLACK
6
CONTINUOUS
10
199.189
20
-54.6304
11
199.189
21
-53.5904
0
LINE
8
BLACK
6
CONTINUOUS
10
194.221
20
-53.9304
11
194.221
21
-54.6304
0
LINE
8
BLACK
6
CONTINUOUS
10
189.681
20
-51.3552
11
187.233
21
-51.3552
0
LINE
8
BLACK
6
CONTINUOUS
10
190.181
20
-47.4224
11
193.689
21
-47.4224
0
LINE
8
BLACK
6
CONTINUOUS
10
189.681
20
-48.4596
11
187.233
21
-48.4596
0
LINE
8
BLACK
6
CONTINUOUS
10
199.189
20
-53.5904
11
201.638
21
-53.5904
0
LINE
8
BLACK
6
CONTINUOUS
10
190.181
20
-52.4304
11
192.697
21
-52.4304
0
ARC
8
BLACK
10
192.779
20
-53.872
40
1.44391
50
-2.31713
51
93.2266
0
ARC
8
BLACK
10
194.689
20
-48.9224
40
0.500001
50
-180
51
-90.0001
0
CIRCLE
8
BLACK
10
186.405
20
-55.9018
40
0.855
0
CIRCLE
8
BLACK
10
191.905
20
-55.9018
40
1.75
0
CIRCLE
8
BLACK
10
197.405
20
-55.9018
40
0.855
0
LINE
8
BLACK
6
CONTINUOUS
10
68.5362
20
-73.0524
11
68.5362
21
-71.78
0
LINE
8
BLACK
6
CONTINUOUS
10
63.5362
20
-71.28
11
63.5362
21
-70.28
0
LINE
8
BLACK
6
CONTINUOUS
10
68.5362
20
-75.948
11
70.985
21
-75.948
0
LINE
8
BLACK
6
CONTINUOUS
10
59.5282
20
-74.788
11
62.0442
21
-74.788
0
LINE
8
BLACK
6
CONTINUOUS
10
56.5794
20
-70.8172
11
56.5794
21
-73.7128
0
LINE
8
BLACK
6
CONTINUOUS
10
59.0282
20
-74.288
11
59.5282
21
-74.788
0
LINE
8
BLACK
6
CONTINUOUS
10
63.5682
20
-76.988
11
68.5362
21
-76.988
0
LINE
8
BLACK
6
CONTINUOUS
10
59.0282
20
-70.8172
11
56.5794
21
-70.8172
0
LINE
8
BLACK
6
CONTINUOUS
10
68.5362
20
-71.78
11
64.0362
21
-71.78
0
LINE
8
BLACK
6
CONTINUOUS
10
59.0282
20
-74.288
11
59.0282
21
-73.7128
0
LINE
8
BLACK
6
CONTINUOUS
10
63.0362
20
-69.78
11
63.5362
21
-70.28
0
LINE
8
BLACK
6
CONTINUOUS
10
70.985
20
-75.948
11
70.985
21
-73.0524
0
LINE
8
BLACK
6
CONTINUOUS
10
68.5362
20
-76.988
11
68.5362
21
-75.948
0
LINE
8
BLACK
6
CONTINUOUS
10
68.5362
20
-73.0524
11
70.985
21
-73.0524
0
LINE
8
BLACK
6
CONTINUOUS
10
63.5682
20
-76.288
11
63.5682
21
-76.988
0
LINE
8
BLACK
6
CONTINUOUS
10
59.0282
20
-70.28
11
59.5282
21
-69.78
0
LINE
8
BLACK
6
CONTINUOUS
10
59.0282
20
-70.8172
11
59.0282
21
-70.28
0
LINE
8
BLACK
6
CONTINUOUS
10
59.0282
20
-73.7128
11
56.5794
21
-73.7128
0
LINE
8
BLACK
6
CONTINUOUS
10
59.5282
20
-69.78
11
63.0362
21
-69.78
0
ARC
8
BLACK
10
62.1255
20
-76.2296
40
1.44391
50
-2.31713
51
93.2266
0
ARC
8
BLACK
10
64.0362
20
-71.28
40
0.500001
50
-180
51
-90.0001
0
CIRCLE
8
BLACK
10
66.7516
20
-78.2594
40
0.855
0
CIRCLE
8
BLACK
10
55.7516
20
-78.2594
40
0.855
0
CIRCLE
8
BLACK
10
61.2516
20
-78.2594
40
1.75
0
CIRCLE
8
BLACK
10
253.055
20
-119.297
40
2.15
0
LINE
8
BLACK
6
CONTINUOUS
10
229.44
20
-110.261
11
227.04
21
-110.261
0
LINE
8
BLACK
6
CONTINUOUS
10
227.04
20
-110.261
11
227.04
21
-104.819
0
LINE
8
BLACK
6
CONTINUOUS
10
227.04
20
-104.819
11
229.44
21
-104.819
0
LINE
8
BLACK
6
CONTINUOUS
10
229.44
20
-104.819
11
229.44
21
-110.261
0
LINE
8
BLACK
6
CONTINUOUS
10
162.785
20
-96.0078
11
165.185
21
-96.0078
0
LINE
8
BLACK
6
CONTINUOUS
10
165.185
20
-96.0078
11
165.185
21
-101.449
0
LINE
8
BLACK
6
CONTINUOUS
10
165.185
20
-101.449
11
162.785
21
-101.449
0
LINE
8
BLACK
6
CONTINUOUS
10
162.785
20
-101.449
11
162.785
21
-96.0078
0
LINE
8
BLACK
6
CONTINUOUS
10
68.8902
20
-125.233
11
69.149
21
-126.199
0
LINE
8
BLACK
6
CONTINUOUS
10
71.8537
20
-120.807
11
69.4235
21
-121.458
0
LINE
8
BLACK
6
CONTINUOUS
10
72.4661
20
-121.161
11
72.615
21
-121.716
0
LINE
8
BLACK
6
CONTINUOUS
10
73.1499
20
-125.644
11
69.7614
21
-126.552
0
LINE
8
BLACK
6
CONTINUOUS
10
73.5034
20
-125.032
11
73.1499
21
-125.644
0
LINE
8
BLACK
6
CONTINUOUS
10
62.5833
20
-121.013
11
62.8524
21
-122.018
0
LINE
8
BLACK
6
CONTINUOUS
10
69.7614
20
-126.552
11
69.149
21
-126.199
0
LINE
8
BLACK
6
CONTINUOUS
10
73.3644
20
-124.513
11
73.5034
21
-125.032
0
LINE
8
BLACK
6
CONTINUOUS
10
63.6019
20
-124.815
11
63.9312
21
-126.044
0
LINE
8
BLACK
6
CONTINUOUS
10
67.382
20
-119.728
11
62.5833
21
-121.013
0
LINE
8
BLACK
6
CONTINUOUS
10
72.4661
20
-121.161
11
71.8537
21
-120.807
0
LINE
8
BLACK
6
CONTINUOUS
10
75.7298
20
-123.879
11
74.9803
21
-121.082
0
LINE
8
BLACK
6
CONTINUOUS
10
73.3644
20
-124.513
11
75.7298
21
-123.879
0
LINE
8
BLACK
6
CONTINUOUS
10
60.4871
20
-122.652
11
61.2365
21
-125.449
0
LINE
8
BLACK
6
CONTINUOUS
10
63.6019
20
-124.815
11
61.2365
21
-125.449
0
LINE
8
BLACK
6
CONTINUOUS
10
67.5631
20
-120.404
11
67.382
21
-119.728
0
LINE
8
BLACK
6
CONTINUOUS
10
72.615
20
-121.716
11
74.9803
21
-121.082
0
LINE
8
BLACK
6
CONTINUOUS
10
63.9312
20
-126.044
11
68.2779
21
-124.879
0
LINE
8
BLACK
6
CONTINUOUS
10
62.8524
20
-122.018
11
60.4871
21
-122.652
0
ARC
8
BLACK
10
68.4073
20
-125.362
40
0.500001
50
15
51
105
0
ARC
8
BLACK
10
68.9718
20
-120.087
40
1.44391
50
-167.317
51
-71.7734
0
CIRCLE
8
BLACK
10
69.2906
20
-117.9
40
1.75
0
CIRCLE
8
BLACK
10
74.6032
20
-116.476
40
0.855001
0
CIRCLE
8
BLACK
10
63.978
20
-119.324
40
0.855
0
LINE
8
BLACK
6
CONTINUOUS
10
217.274
20
-91.4664
11
217.274
21
-90.4264
0
LINE
8
BLACK
6
CONTINUOUS
10
208.266
20
-84.2584
11
211.774
21
-84.2584
0
LINE
8
BLACK
6
CONTINUOUS
10
205.317
20
-85.2956
11
205.317
21
-88.1912
0
LINE
8
BLACK
6
CONTINUOUS
10
217.274
20
-90.4264
11
219.723
21
-90.4264
0
LINE
8
BLACK
6
CONTINUOUS
10
217.274
20
-87.5308
11
217.274
21
-86.2584
0
LINE
8
BLACK
6
CONTINUOUS
10
207.766
20
-85.2956
11
205.317
21
-85.2956
0
LINE
8
BLACK
6
CONTINUOUS
10
207.766
20
-88.1912
11
205.317
21
-88.1912
0
LINE
8
BLACK
6
CONTINUOUS
10
219.723
20
-90.4264
11
219.723
21
-87.5308
0
LINE
8
BLACK
6
CONTINUOUS
10
207.766
20
-88.7664
11
208.266
21
-89.2664
0
LINE
8
BLACK
6
CONTINUOUS
10
211.774
20
-84.2584
11
212.274
21
-84.7584
0
LINE
8
BLACK
6
CONTINUOUS
10
212.306
20
-91.4664
11
217.274
21
-91.4664
0
LINE
8
BLACK
6
CONTINUOUS
10
208.266
20
-89.2664
11
210.782
21
-89.2664
0
LINE
8
BLACK
6
CONTINUOUS
10
212.306
20
-90.7664
11
212.306
21
-91.4664
0
LINE
8
BLACK
6
CONTINUOUS
10
212.274
20
-85.7584
11
212.274
21
-84.7584
0
LINE
8
BLACK
6
CONTINUOUS
10
207.766
20
-85.2956
11
207.766
21
-84.7584
0
LINE
8
BLACK
6
CONTINUOUS
10
207.766
20
-84.7584
11
208.266
21
-84.2584
0
LINE
8
BLACK
6
CONTINUOUS
10
207.766
20
-88.7664
11
207.766
21
-88.1912
0
LINE
8
BLACK
6
CONTINUOUS
10
217.274
20
-86.2584
11
212.774
21
-86.2584
0
LINE
8
BLACK
6
CONTINUOUS
10
217.274
20
-87.5308
11
219.723
21
-87.5308
0
ARC
8
BLACK
10
210.863
20
-90.708
40
1.44391
50
-2.31713
51
93.2266
0
ARC
8
BLACK
10
212.774
20
-85.7584
40
0.500001
50
-180
51
-90.0001
0
CIRCLE
8
BLACK
10
204.49
20
-92.7378
40
0.855
0
CIRCLE
8
BLACK
10
215.49
20
-92.7378
40
0.855
0
CIRCLE
8
BLACK
10
209.99
20
-92.7378
40
1.75
0
LINE
8
BLACK
6
CONTINUOUS
10
207.766
20
-71.7484
11
207.766
21
-71.1732
0
LINE
8
BLACK
6
CONTINUOUS
10
219.723
20
-73.4084
11
219.723
21
-70.5128
0
LINE
8
BLACK
6
CONTINUOUS
10
217.274
20
-73.4084
11
219.723
21
-73.4084
0
LINE
8
BLACK
6
CONTINUOUS
10
217.274
20
-69.2404
11
212.774
21
-69.2404
0
LINE
8
BLACK
6
CONTINUOUS
10
207.766
20
-68.2776
11
205.317
21
-68.2776
0
LINE
8
BLACK
6
CONTINUOUS
10
217.274
20
-70.5128
11
217.274
21
-69.2404
0
LINE
8
BLACK
6
CONTINUOUS
10
217.274
20
-74.4484
11
217.274
21
-73.4084
0
LINE
8
BLACK
6
CONTINUOUS
10
208.266
20
-72.2484
11
210.782
21
-72.2484
0
LINE
8
BLACK
6
CONTINUOUS
10
207.766
20
-71.1732
11
205.317
21
-71.1732
0
LINE
8
BLACK
6
CONTINUOUS
10
217.274
20
-70.5128
11
219.723
21
-70.5128
0
LINE
8
BLACK
6
CONTINUOUS
10
207.766
20
-67.7404
11
208.266
21
-67.2404
0
LINE
8
BLACK
6
CONTINUOUS
10
207.766
20
-71.7484
11
208.266
21
-72.2484
0
LINE
8
BLACK
6
CONTINUOUS
10
208.266
20
-67.2404
11
211.774
21
-67.2404
0
LINE
8
BLACK
6
CONTINUOUS
10
211.774
20
-67.2404
11
212.274
21
-67.7404
0
LINE
8
BLACK
6
CONTINUOUS
10
212.306
20
-73.7484
11
212.306
21
-74.4484
0
LINE
8
BLACK
6
CONTINUOUS
10
212.306
20
-74.4484
11
217.274
21
-74.4484
0
LINE
8
BLACK
6
CONTINUOUS
10
205.317
20
-68.2776
11
205.317
21
-71.1732
0
LINE
8
BLACK
6
CONTINUOUS
10
207.766
20
-68.2776
11
207.766
21
-67.7404
0
LINE
8
BLACK
6
CONTINUOUS
10
212.274
20
-68.7404
11
212.274
21
-67.7404
0
ARC
8
BLACK
10
212.774
20
-68.7404
40
0.500001
50
-180
51
-90.0001
0
ARC
8
BLACK
10
210.863
20
-73.69
40
1.44391
50
-2.31713
51
93.2266
0
CIRCLE
8
BLACK
10
204.49
20
-75.7198
40
0.855
0
CIRCLE
8
BLACK
10
209.99
20
-75.7198
40
1.75
0
CIRCLE
8
BLACK
10
215.49
20
-75.7198
40
0.855
0
CIRCLE
8
BLACK
10
162.941
20
-51.7761
40
1.6
0
LINE
8
BLACK
6
CONTINUOUS
10
180.87
20
-58.4718
11
183.27
21
-58.4718
0
LINE
8
BLACK
6
CONTINUOUS
10
183.27
20
-58.4718
11
183.27
21
-63.913
0
LINE
8
BLACK
6
CONTINUOUS
10
183.27
20
-63.913
11
180.87
21
-63.913
0
LINE
8
BLACK
6
CONTINUOUS
10
180.87
20
-63.913
11
180.87
21
-58.4718
0
LINE
8
BLACK
6
CONTINUOUS
10
151.063
20
-73.0476
11
151.063
21
-75.9432
0
LINE
8
BLACK
6
CONTINUOUS
10
158.052
20
-78.5184
11
158.052
21
-79.2184
0
LINE
8
BLACK
6
CONTINUOUS
10
154.012
20
-77.0184
11
156.528
21
-77.0184
0
LINE
8
BLACK
6
CONTINUOUS
10
163.02
20
-75.2828
11
163.02
21
-74.0104
0
LINE
8
BLACK
6
CONTINUOUS
10
158.02
20
-73.5104
11
158.02
21
-72.5104
0
LINE
8
BLACK
6
CONTINUOUS
10
157.52
20
-72.0104
11
158.02
21
-72.5104
0
LINE
8
BLACK
6
CONTINUOUS
10
153.512
20
-73.0476
11
151.063
21
-73.0476
0
LINE
8
BLACK
6
CONTINUOUS
10
163.02
20
-78.1784
11
165.469
21
-78.1784
0
LINE
8
BLACK
6
CONTINUOUS
10
154.012
20
-72.0104
11
157.52
21
-72.0104
0
LINE
8
BLACK
6
CONTINUOUS
10
153.512
20
-72.5104
11
154.012
21
-72.0104
0
LINE
8
BLACK
6
CONTINUOUS
10
153.512
20
-76.5184
11
154.012
21
-77.0184
0
LINE
8
BLACK
6
CONTINUOUS
10
163.02
20
-75.2828
11
165.469
21
-75.2828
0
LINE
8
BLACK
6
CONTINUOUS
10
153.512
20
-76.5184
11
153.512
21
-75.9432
0
LINE
8
BLACK
6
CONTINUOUS
10
153.512
20
-73.0476
11
153.512
21
-72.5104
0
LINE
8
BLACK
6
CONTINUOUS
10
153.512
20
-75.9432
11
151.063
21
-75.9432
0
LINE
8
BLACK
6
CONTINUOUS
10
163.02
20
-79.2184
11
163.02
21
-78.1784
0
LINE
8
BLACK
6
CONTINUOUS
10
158.052
20
-79.2184
11
163.02
21
-79.2184
0
LINE
8
BLACK
6
CONTINUOUS
10
165.469
20
-78.1784
11
165.469
21
-75.2828
0
LINE
8
BLACK
6
CONTINUOUS
10
163.02
20
-74.0104
11
158.52
21
-74.0104
0
ARC
8
BLACK
10
156.609
20
-78.46
40
1.44391
50
-2.31713
51
93.2266
0
ARC
8
BLACK
10
158.52
20
-73.5104
40
0.500001
50
-180
51
-90.0001
0
CIRCLE
8
BLACK
10
155.735
20
-80.4898
40
1.75
0
CIRCLE
8
BLACK
10
150.235
20
-80.4898
40
0.855
0
CIRCLE
8
BLACK
10
161.235
20
-80.4898
40
0.855
0
LINE
8
BLACK
6
CONTINUOUS
10
198.955
20
-90.8972
11
201.355
21
-90.8972
0
LINE
8
BLACK
6
CONTINUOUS
10
201.355
20
-90.8972
11
201.355
21
-96.3384
0
LINE
8
BLACK
6
CONTINUOUS
10
201.355
20
-96.3384
11
198.955
21
-96.3384
0
LINE
8
BLACK
6
CONTINUOUS
10
198.955
20
-96.3384
11
198.955
21
-90.8972
0
LINE
8
BLACK
6
CONTINUOUS
10
153.512
20
-59.5004
11
153.512
21
-58.9252
0
LINE
8
BLACK
6
CONTINUOUS
10
154.012
20
-60.0004
11
156.528
21
-60.0004
0
LINE
8
BLACK
6
CONTINUOUS
10
163.02
20
-56.9924
11
158.52
21
-56.9924
0
LINE
8
BLACK
6
CONTINUOUS
10
153.512
20
-59.5004
11
154.012
21
-60.0004
0
LINE
8
BLACK
6
CONTINUOUS
10
154.012
20
-54.9924
11
157.52
21
-54.9924
0
LINE
8
BLACK
6
CONTINUOUS
10
163.02
20
-58.2648
11
163.02
21
-56.9924
0
LINE
8
BLACK
6
CONTINUOUS
10
153.512
20
-55.4924
11
154.012
21
-54.9924
0
LINE
8
BLACK
6
CONTINUOUS
10
158.052
20
-61.5004
11
158.052
21
-62.2004
0
LINE
8
BLACK
6
CONTINUOUS
10
153.512
20
-56.0296
11
151.063
21
-56.0296
0
LINE
8
BLACK
6
CONTINUOUS
10
151.063
20
-56.0296
11
151.063
21
-58.9252
0
LINE
8
BLACK
6
CONTINUOUS
10
153.512
20
-58.9252
11
151.063
21
-58.9252
0
LINE
8
BLACK
6
CONTINUOUS
10
157.52
20
-54.9924
11
158.02
21
-55.4924
0
LINE
8
BLACK
6
CONTINUOUS
10
163.02
20
-61.1604
11
165.469
21
-61.1604
0
LINE
8
BLACK
6
CONTINUOUS
10
158.052
20
-62.2004
11
163.02
21
-62.2004
0
LINE
8
BLACK
6
CONTINUOUS
10
165.469
20
-61.1604
11
165.469
21
-58.2648
0
LINE
8
BLACK
6
CONTINUOUS
10
163.02
20
-62.2004
11
163.02
21
-61.1604
0
LINE
8
BLACK
6
CONTINUOUS
10
163.02
20
-58.2648
11
165.469
21
-58.2648
0
LINE
8
BLACK
6
CONTINUOUS
10
158.02
20
-56.4924
11
158.02
21
-55.4924
0
LINE
8
BLACK
6
CONTINUOUS
10
153.512
20
-56.0296
11
153.512
21
-55.4924
0
ARC
8
BLACK
10
156.609
20
-61.442
40
1.44391
50
-2.31713
51
93.2266
0
ARC
8
BLACK
10
158.52
20
-56.4924
40
0.500001
50
-180
51
-90.0001
0
CIRCLE
8
BLACK
10
155.735
20
-63.4718
40
1.75
0
CIRCLE
8
BLACK
10
161.235
20
-63.4718
40
0.855
0
CIRCLE
8
BLACK
10
150.235
20
-63.4718
40
0.855
0
CIRCLE
8
BLACK
10
241.382
20
-90.4736
40
2.15
0
LINE
8
BLACK
6
CONTINUOUS
10
198.955
20
-56.8612
11
201.355
21
-56.8612
0
LINE
8
BLACK
6
CONTINUOUS
10
201.355
20
-56.8612
11
201.355
21
-62.3024
0
LINE
8
BLACK
6
CONTINUOUS
10
201.355
20
-62.3024
11
198.955
21
-62.3024
0
LINE
8
BLACK
6
CONTINUOUS
10
198.955
20
-62.3024
11
198.955
21
-56.8612
0
LINE
8
BLACK
6
CONTINUOUS
10
235.359
20
-90.0704
11
235.359
21
-88.798
0
LINE
8
BLACK
6
CONTINUOUS
10
223.402
20
-87.8352
11
223.402
21
-90.7308
0
LINE
8
BLACK
6
CONTINUOUS
10
229.859
20
-86.798
11
230.359
21
-87.298
0
LINE
8
BLACK
6
CONTINUOUS
10
225.851
20
-87.8352
11
225.851
21
-87.298
0
LINE
8
BLACK
6
CONTINUOUS
10
235.359
20
-90.0704
11
237.808
21
-90.0704
0
LINE
8
BLACK
6
CONTINUOUS
10
235.359
20
-94.006
11
235.359
21
-92.966
0
LINE
8
BLACK
6
CONTINUOUS
10
225.851
20
-90.7308
11
223.402
21
-90.7308
0
LINE
8
BLACK
6
CONTINUOUS
10
225.851
20
-91.306
11
225.851
21
-90.7308
0
LINE
8
BLACK
6
CONTINUOUS
10
226.351
20
-86.798
11
229.859
21
-86.798
0
LINE
8
BLACK
6
CONTINUOUS
10
226.351
20
-91.806
11
228.867
21
-91.806
0
LINE
8
BLACK
6
CONTINUOUS
10
225.851
20
-87.298
11
226.351
21
-86.798
0
LINE
8
BLACK
6
CONTINUOUS
10
235.359
20
-92.966
11
237.808
21
-92.966
0
LINE
8
BLACK
6
CONTINUOUS
10
225.851
20
-91.306
11
226.351
21
-91.806
0
LINE
8
BLACK
6
CONTINUOUS
10
230.391
20
-93.306
11
230.391
21
-94.006
0
LINE
8
BLACK
6
CONTINUOUS
10
235.359
20
-88.798
11
230.859
21
-88.798
0
LINE
8
BLACK
6
CONTINUOUS
10
225.851
20
-87.8352
11
223.402
21
-87.8352
0
LINE
8
BLACK
6
CONTINUOUS
10
237.808
20
-92.966
11
237.808
21
-90.0704
0
LINE
8
BLACK
6
CONTINUOUS
10
230.359
20
-88.298
11
230.359
21
-87.298
0
LINE
8
BLACK
6
CONTINUOUS
10
230.391
20
-94.006
11
235.359
21
-94.006
0
ARC
8
BLACK
10
228.948
20
-93.2476
40
1.44391
50
-2.31713
51
93.2266
0
ARC
8
BLACK
10
230.859
20
-88.298
40
0.500001
50
-180
51
-90.0001
0
CIRCLE
8
BLACK
10
222.574
20
-95.2774
40
0.855
0
CIRCLE
8
BLACK
10
228.074
20
-95.2774
40
1.75
0
CIRCLE
8
BLACK
10
233.574
20
-95.2774
40
0.855
0
CIRCLE
8
BLACK
10
230.576
20
-120.364
40
1.6
0
CIRCLE
8
BLACK
10
220.797
20
-50.2775
40
1.6
0
LINE
8
BLACK
6
CONTINUOUS
10
77.113
20
-67.7404
11
77.613
21
-67.2404
0
LINE
8
BLACK
6
CONTINUOUS
10
89.0698
20
-73.4084
11
89.0698
21
-70.5128
0
LINE
8
BLACK
6
CONTINUOUS
10
77.113
20
-71.1732
11
74.6642
21
-71.1732
0
LINE
8
BLACK
6
CONTINUOUS
10
77.113
20
-71.7484
11
77.113
21
-71.1732
0
LINE
8
BLACK
6
CONTINUOUS
10
77.613
20
-67.2404
11
81.121
21
-67.2404
0
LINE
8
BLACK
6
CONTINUOUS
10
86.621
20
-74.4484
11
86.621
21
-73.4084
0
LINE
8
BLACK
6
CONTINUOUS
10
86.621
20
-69.2404
11
82.121
21
-69.2404
0
LINE
8
BLACK
6
CONTINUOUS
10
74.6642
20
-68.2776
11
74.6642
21
-71.1732
0
LINE
8
BLACK
6
CONTINUOUS
10
77.113
20
-71.7484
11
77.613
21
-72.2484
0
LINE
8
BLACK
6
CONTINUOUS
10
81.121
20
-67.2404
11
81.621
21
-67.7404
0
LINE
8
BLACK
6
CONTINUOUS
10
86.621
20
-70.5128
11
86.621
21
-69.2404
0
LINE
8
BLACK
6
CONTINUOUS
10
81.653
20
-73.7484
11
81.653
21
-74.4484
0
LINE
8
BLACK
6
CONTINUOUS
10
77.113
20
-68.2776
11
77.113
21
-67.7404
0
LINE
8
BLACK
6
CONTINUOUS
10
81.653
20
-74.4484
11
86.621
21
-74.4484
0
LINE
8
BLACK
6
CONTINUOUS
10
86.621
20
-70.5128
11
89.0698
21
-70.5128
0
LINE
8
BLACK
6
CONTINUOUS
10
86.621
20
-73.4084
11
89.0698
21
-73.4084
0
LINE
8
BLACK
6
CONTINUOUS
10
81.621
20
-68.7404
11
81.621
21
-67.7404
0
LINE
8
BLACK
6
CONTINUOUS
10
77.113
20
-68.2776
11
74.6642
21
-68.2776
0
LINE
8
BLACK
6
CONTINUOUS
10
77.613
20
-72.2484
11
80.129
21
-72.2484
0
ARC
8
BLACK
10
82.121
20
-68.7404
40
0.500001
50
-180
51
-90.0001
0
ARC
8
BLACK
10
80.2103
20
-73.69
40
1.44391
50
-2.31713
51
93.2266
0
CIRCLE
8
BLACK
10
73.8364
20
-75.7198
40
0.855
0
CIRCLE
8
BLACK
10
84.8364
20
-75.7198
40
0.855
0
CIRCLE
8
BLACK
10
79.3364
20
-75.7198
40
1.75
0
LINE
8
BLACK
6
CONTINUOUS
10
252.237
20
-68.9814
11
256.606
21
-68.9814
0
LINE
8
BLACK
6
CONTINUOUS
10
256.606
20
-68.9814
11
256.606
21
-86.355
0
LINE
8
BLACK
6
CONTINUOUS
10
256.606
20
-86.355
11
252.237
21
-86.355
0
LINE
8
BLACK
6
CONTINUOUS
10
252.237
20
-86.355
11
252.237
21
-68.9814
0
LINE
8
BLACK
6
CONTINUOUS
10
239.131
20
-68.9814
11
243.5
21
-68.9814
0
LINE
8
BLACK
6
CONTINUOUS
10
243.5
20
-68.9814
11
243.5
21
-86.355
0
LINE
8
BLACK
6
CONTINUOUS
10
243.5
20
-86.355
11
239.131
21
-86.355
0
LINE
8
BLACK
6
CONTINUOUS
10
239.131
20
-86.355
11
239.131
21
-68.9814
0
LINE
8
BLACK
6
CONTINUOUS
10
221.155
20
-122.312
11
220.802
21
-121.699
0
LINE
8
BLACK
6
CONTINUOUS
10
222.622
20
-126.298
11
223.372
21
-123.501
0
LINE
8
BLACK
6
CONTINUOUS
10
220.118
20
-126.183
11
219.505
21
-126.537
0
LINE
8
BLACK
6
CONTINUOUS
10
211.651
20
-121.044
11
209.286
21
-120.41
0
LINE
8
BLACK
6
CONTINUOUS
10
216.022
20
-124.05
11
215.763
21
-125.016
0
LINE
8
BLACK
6
CONTINUOUS
10
211.322
20
-122.273
11
215.669
21
-123.438
0
LINE
8
BLACK
6
CONTINUOUS
10
220.257
20
-125.664
11
222.622
21
-126.298
0
LINE
8
BLACK
6
CONTINUOUS
10
221.006
20
-122.867
11
223.372
21
-123.501
0
LINE
8
BLACK
6
CONTINUOUS
10
219.505
20
-126.537
11
216.117
21
-125.629
0
LINE
8
BLACK
6
CONTINUOUS
10
220.802
20
-121.699
11
218.371
21
-121.048
0
LINE
8
BLACK
6
CONTINUOUS
10
211.651
20
-121.044
11
211.322
21
-122.273
0
LINE
8
BLACK
6
CONTINUOUS
10
212.67
20
-117.243
11
212.401
21
-118.247
0
LINE
8
BLACK
6
CONTINUOUS
10
210.035
20
-117.613
11
209.286
21
-120.41
0
LINE
8
BLACK
6
CONTINUOUS
10
217.287
20
-119.205
11
217.469
21
-118.528
0
LINE
8
BLACK
6
CONTINUOUS
10
216.117
20
-125.629
11
215.763
21
-125.016
0
LINE
8
BLACK
6
CONTINUOUS
10
220.257
20
-125.664
11
220.118
21
-126.183
0
LINE
8
BLACK
6
CONTINUOUS
10
221.155
20
-122.312
11
221.006
21
-122.867
0
LINE
8
BLACK
6
CONTINUOUS
10
217.469
20
-118.528
11
212.67
21
-117.243
0
LINE
8
BLACK
6
CONTINUOUS
10
212.401
20
-118.247
11
210.035
21
-117.613
0
ARC
8
BLACK
10
215.539
20
-123.921
40
0.500001
50
-14.9999
51
74.9999
0
ARC
8
BLACK
10
218.666
20
-119.634
40
1.44391
50
-197.317
51
-101.773
0
CIRCLE
8
BLACK
10
214.723
20
-116.476
40
0.855
0
CIRCLE
8
BLACK
10
225.348
20
-119.324
40
0.855001
0
CIRCLE
8
BLACK
10
220.035
20
-117.9
40
1.75
0
LINE
8
BLACK
6
CONTINUOUS
10
217.04
20
-59.0696
11
219.44
21
-59.0696
0
LINE
8
BLACK
6
CONTINUOUS
10
219.44
20
-59.0696
11
219.44
21
-64.5108
0
LINE
8
BLACK
6
CONTINUOUS
10
219.44
20
-64.5108
11
217.04
21
-64.5108
0
LINE
8
BLACK
6
CONTINUOUS
10
217.04
20
-64.5108
11
217.04
21
-59.0696
0
LINE
8
BLACK
6
CONTINUOUS
10
140.875
20
-58.2648
11
140.875
21
-56.9924
0
LINE
8
BLACK
6
CONTINUOUS
10
135.375
20
-54.9924
11
135.875
21
-55.4924
0
LINE
8
BLACK
6
CONTINUOUS
10
131.367
20
-59.5004
11
131.367
21
-58.9252
0
LINE
8
BLACK
6
CONTINUOUS
10
140.875
20
-61.1604
11
143.324
21
-61.1604
0
LINE
8
BLACK
6
CONTINUOUS
10
135.907
20
-61.5004
11
135.907
21
-62.2004
0
LINE
8
BLACK
6
CONTINUOUS
10
135.907
20
-62.2004
11
140.875
21
-62.2004
0
LINE
8
BLACK
6
CONTINUOUS
10
143.324
20
-61.1604
11
143.324
21
-58.2648
0
LINE
8
BLACK
6
CONTINUOUS
10
131.367
20
-59.5004
11
131.867
21
-60.0004
0
LINE
8
BLACK
6
CONTINUOUS
10
131.867
20
-60.0004
11
134.383
21
-60.0004
0
LINE
8
BLACK
6
CONTINUOUS
10
135.875
20
-56.4924
11
135.875
21
-55.4924
0
LINE
8
BLACK
6
CONTINUOUS
10
131.367
20
-55.4924
11
131.867
21
-54.9924
0
LINE
8
BLACK
6
CONTINUOUS
10
128.919
20
-56.0296
11
128.919
21
-58.9252
0
LINE
8
BLACK
6
CONTINUOUS
10
131.367
20
-56.0296
11
128.919
21
-56.0296
0
LINE
8
BLACK
6
CONTINUOUS
10
131.867
20
-54.9924
11
135.375
21
-54.9924
0
LINE
8
BLACK
6
CONTINUOUS
10
140.875
20
-58.2648
11
143.324
21
-58.2648
0
LINE
8
BLACK
6
CONTINUOUS
10
140.875
20
-62.2004
11
140.875
21
-61.1604
0
LINE
8
BLACK
6
CONTINUOUS
10
140.875
20
-56.9924
11
136.375
21
-56.9924
0
LINE
8
BLACK
6
CONTINUOUS
10
131.367
20
-58.9252
11
128.919
21
-58.9252
0
LINE
8
BLACK
6
CONTINUOUS
10
131.367
20
-56.0296
11
131.367
21
-55.4924
0
ARC
8
BLACK
10
134.465
20
-61.442
40
1.44391
50
-2.31713
51
93.2266
0
ARC
8
BLACK
10
136.375
20
-56.4924
40
0.500001
50
-180
51
-90.0001
0
CIRCLE
8
BLACK
10
133.591
20
-63.4718
40
1.75
0
CIRCLE
8
BLACK
10
139.091
20
-63.4718
40
0.855
0
CIRCLE
8
BLACK
10
128.091
20
-63.4718
40
0.855
0
LINE
8
BLACK
6
CONTINUOUS
10
217.04
20
-93.1058
11
219.44
21
-93.1058
0
LINE
8
BLACK
6
CONTINUOUS
10
219.44
20
-93.1058
11
219.44
21
-98.547
0
LINE
8
BLACK
6
CONTINUOUS
10
219.44
20
-98.547
11
217.04
21
-98.547
0
LINE
8
BLACK
6
CONTINUOUS
10
217.04
20
-98.547
11
217.04
21
-93.1058
0
LINE
8
BLACK
6
CONTINUOUS
10
247.569
20
-85.5551
11
248.169
21
-85.5551
0
LINE
8
BLACK
6
CONTINUOUS
10
246.869
20
-87.6551
11
246.869
21
-86.2551
0
LINE
8
BLACK
6
CONTINUOUS
10
248.869
20
-86.2551
11
248.869
21
-87.6551
0
LINE
8
BLACK
6
CONTINUOUS
10
248.169
20
-88.3551
11
247.569
21
-88.3551
0
ARC
8
BLACK
10
248.169
20
-87.6551
40
0.699999
50
-90.0001
51
8.18512e-05
0
ARC
8
BLACK
10
248.169
20
-86.2551
40
0.7
50
-0
51
90
0
ARC
8
BLACK
10
247.569
20
-87.6551
40
0.699999
50
-180
51
-89.9999
0
ARC
8
BLACK
10
247.569
20
-86.2551
40
0.7
50
90
51
180
0
LINE
8
BLACK
6
CONTINUOUS
10
122.791
20
-88.8008
11
125.239
21
-88.8008
0
LINE
8
BLACK
6
CONTINUOUS
10
125.239
20
-91.6964
11
125.239
21
-88.8008
0
LINE
8
BLACK
6
CONTINUOUS
10
117.791
20
-87.0284
11
117.791
21
-86.0284
0
LINE
8
BLACK
6
CONTINUOUS
10
113.783
20
-90.5364
11
116.299
21
-90.5364
0
LINE
8
BLACK
6
CONTINUOUS
10
117.291
20
-85.5284
11
117.791
21
-86.0284
0
LINE
8
BLACK
6
CONTINUOUS
10
113.783
20
-85.5284
11
117.291
21
-85.5284
0
LINE
8
BLACK
6
CONTINUOUS
10
113.283
20
-86.0284
11
113.783
21
-85.5284
0
LINE
8
BLACK
6
CONTINUOUS
10
113.283
20
-86.5656
11
110.834
21
-86.5656
0
LINE
8
BLACK
6
CONTINUOUS
10
117.823
20
-92.0364
11
117.823
21
-92.7364
0
LINE
8
BLACK
6
CONTINUOUS
10
122.791
20
-87.5284
11
118.291
21
-87.5284
0
LINE
8
BLACK
6
CONTINUOUS
10
113.283
20
-89.4612
11
110.834
21
-89.4612
0
LINE
8
BLACK
6
CONTINUOUS
10
117.823
20
-92.7364
11
122.791
21
-92.7364
0
LINE
8
BLACK
6
CONTINUOUS
10
113.283
20
-86.5656
11
113.283
21
-86.0284
0
LINE
8
BLACK
6
CONTINUOUS
10
122.791
20
-91.6964
11
125.239
21
-91.6964
0
LINE
8
BLACK
6
CONTINUOUS
10
122.791
20
-92.7364
11
122.791
21
-91.6964
0
LINE
8
BLACK
6
CONTINUOUS
10
113.283
20
-90.0364
11
113.783
21
-90.5364
0
LINE
8
BLACK
6
CONTINUOUS
10
122.791
20
-88.8008
11
122.791
21
-87.5284
0
LINE
8
BLACK
6
CONTINUOUS
10
113.283
20
-90.0364
11
113.283
21
-89.4612
0
LINE
8
BLACK
6
CONTINUOUS
10
110.834
20
-86.5656
11
110.834
21
-89.4612
0
ARC
8
BLACK
10
116.38
20
-91.978
40
1.44391
50
-2.31713
51
93.2266
0
ARC
8
BLACK
10
118.291
20
-87.0284
40
0.500001
50
-180
51
-90.0001
0
CIRCLE
8
BLACK
10
110.006
20
-94.0078
40
0.855
0
CIRCLE
8
BLACK
10
121.006
20
-94.0078
40
0.855
0
CIRCLE
8
BLACK
10
115.506
20
-94.0078
40
1.75
0
LINE
8
BLACK
6
CONTINUOUS
10
235.124
20
-93.7774
11
237.524
21
-93.7774
0
LINE
8
BLACK
6
CONTINUOUS
10
237.524
20
-93.7774
11
237.524
21
-99.2186
0
LINE
8
BLACK
6
CONTINUOUS
10
237.524
20
-99.2186
11
235.124
21
-99.2186
0
LINE
8
BLACK
6
CONTINUOUS
10
235.124
20
-99.2186
11
235.124
21
-93.7774
0
LINE
8
BLACK
6
CONTINUOUS
10
162.785
20
-61.9718
11
165.185
21
-61.9718
0
LINE
8
BLACK
6
CONTINUOUS
10
165.185
20
-61.9718
11
165.185
21
-67.413
0
LINE
8
BLACK
6
CONTINUOUS
10
165.185
20
-67.413
11
162.785
21
-67.413
0
LINE
8
BLACK
6
CONTINUOUS
10
162.785
20
-67.413
11
162.785
21
-61.9718
0
LINE
8
BLACK
6
CONTINUOUS
10
86.621
20
-53.4946
11
89.0698
21
-53.4946
0
LINE
8
BLACK
6
CONTINUOUS
10
77.113
20
-50.7222
11
77.613
21
-50.2222
0
LINE
8
BLACK
6
CONTINUOUS
10
77.613
20
-55.2302
11
80.129
21
-55.2302
0
LINE
8
BLACK
6
CONTINUOUS
10
81.653
20
-56.7302
11
81.653
21
-57.4302
0
LINE
8
BLACK
6
CONTINUOUS
10
77.613
20
-50.2222
11
81.121
21
-50.2222
0
LINE
8
BLACK
6
CONTINUOUS
10
86.621
20
-53.4946
11
86.621
21
-52.2222
0
LINE
8
BLACK
6
CONTINUOUS
10
89.0698
20
-56.3902
11
89.0698
21
-53.4946
0
LINE
8
BLACK
6
CONTINUOUS
10
77.113
20
-51.2594
11
77.113
21
-50.7222
0
LINE
8
BLACK
6
CONTINUOUS
10
81.121
20
-50.2222
11
81.621
21
-50.7222
0
LINE
8
BLACK
6
CONTINUOUS
10
77.113
20
-54.7302
11
77.113
21
-54.155
0
LINE
8
BLACK
6
CONTINUOUS
10
77.113
20
-51.2594
11
74.6642
21
-51.2594
0
LINE
8
BLACK
6
CONTINUOUS
10
86.621
20
-52.2222
11
82.121
21
-52.2222
0
LINE
8
BLACK
6
CONTINUOUS
10
77.113
20
-54.155
11
74.6642
21
-54.155
0
LINE
8
BLACK
6
CONTINUOUS
10
74.6642
20
-51.2594
11
74.6642
21
-54.155
0
LINE
8
BLACK
6
CONTINUOUS
10
86.621
20
-57.4302
11
86.621
21
-56.3902
0
LINE
8
BLACK
6
CONTINUOUS
10
81.653
20
-57.4302
11
86.621
21
-57.4302
0
LINE
8
BLACK
6
CONTINUOUS
10
77.113
20
-54.7302
11
77.613
21
-55.2302
0
LINE
8
BLACK
6
CONTINUOUS
10
81.621
20
-51.7222
11
81.621
21
-50.7222
0
LINE
8
BLACK
6
CONTINUOUS
10
86.621
20
-56.3902
11
89.0698
21
-56.3902
0
ARC
8
BLACK
10
82.121
20
-51.7222
40
0.500001
50
-180
51
-90.0001
0
ARC
8
BLACK
10
80.2103
20
-56.6718
40
1.44391
50
-2.31713
51
93.2266
0
CIRCLE
8
BLACK
10
73.8364
20
-58.7016
40
0.855
0
CIRCLE
8
BLACK
10
79.3364
20
-58.7016
40
1.75
0
CIRCLE
8
BLACK
10
84.8364
20
-58.7016
40
0.855
0
LINE
8
BLACK
6
CONTINUOUS
10
225.851
20
-53.7992
11
223.402
21
-53.7992
0
LINE
8
BLACK
6
CONTINUOUS
10
226.351
20
-52.762
11
229.859
21
-52.762
0
LINE
8
BLACK
6
CONTINUOUS
10
235.359
20
-56.0344
11
237.808
21
-56.0344
0
LINE
8
BLACK
6
CONTINUOUS
10
230.359
20
-54.262
11
230.359
21
-53.262
0
LINE
8
BLACK
6
CONTINUOUS
10
226.351
20
-57.77
11
228.867
21
-57.77
0
LINE
8
BLACK
6
CONTINUOUS
10
230.391
20
-59.97
11
235.359
21
-59.97
0
LINE
8
BLACK
6
CONTINUOUS
10
235.359
20
-54.762
11
230.859
21
-54.762
0
LINE
8
BLACK
6
CONTINUOUS
10
225.851
20
-57.27
11
226.351
21
-57.77
0
LINE
8
BLACK
6
CONTINUOUS
10
235.359
20
-59.97
11
235.359
21
-58.93
0
LINE
8
BLACK
6
CONTINUOUS
10
223.402
20
-53.7992
11
223.402
21
-56.6948
0
LINE
8
BLACK
6
CONTINUOUS
10
225.851
20
-53.262
11
226.351
21
-52.762
0
LINE
8
BLACK
6
CONTINUOUS
10
225.851
20
-53.7992
11
225.851
21
-53.262
0
LINE
8
BLACK
6
CONTINUOUS
10
225.851
20
-56.6948
11
223.402
21
-56.6948
0
LINE
8
BLACK
6
CONTINUOUS
10
230.391
20
-59.27
11
230.391
21
-59.97
0
LINE
8
BLACK
6
CONTINUOUS
10
225.851
20
-57.27
11
225.851
21
-56.6948
0
LINE
8
BLACK
6
CONTINUOUS
10
235.359
20
-58.93
11
237.808
21
-58.93
0
LINE
8
BLACK
6
CONTINUOUS
10
235.359
20
-56.0344
11
235.359
21
-54.762
0
LINE
8
BLACK
6
CONTINUOUS
10
229.859
20
-52.762
11
230.359
21
-53.262
0
LINE
8
BLACK
6
CONTINUOUS
10
237.808
20
-58.93
11
237.808
21
-56.0344
0
ARC
8
BLACK
10
230.859
20
-54.262
40
0.500001
50
-180
51
-90.0001
0
ARC
8
BLACK
10
228.948
20
-59.2116
40
1.44391
50
-2.31713
51
93.2266
0
CIRCLE
8
BLACK
10
228.074
20
-61.2414
40
1.75
0
CIRCLE
8
BLACK
10
222.574
20
-61.2414
40
0.855
0
CIRCLE
8
BLACK
10
233.574
20
-61.2414
40
0.855
0
LINE
8
BLACK
6
CONTINUOUS
10
68.5362
20
-56.0344
11
70.985
21
-56.0344
0
LINE
8
BLACK
6
CONTINUOUS
10
59.5282
20
-52.762
11
63.0362
21
-52.762
0
LINE
8
BLACK
6
CONTINUOUS
10
59.0282
20
-57.27
11
59.0282
21
-56.6948
0
LINE
8
BLACK
6
CONTINUOUS
10
59.0282
20
-53.262
11
59.5282
21
-52.762
0
LINE
8
BLACK
6
CONTINUOUS
10
59.5282
20
-57.77
11
62.0442
21
-57.77
0
LINE
8
BLACK
6
CONTINUOUS
10
68.5362
20
-56.0344
11
68.5362
21
-54.762
0
LINE
8
BLACK
6
CONTINUOUS
10
70.985
20
-58.93
11
70.985
21
-56.0344
0
LINE
8
BLACK
6
CONTINUOUS
10
59.0282
20
-53.7992
11
59.0282
21
-53.262
0
LINE
8
BLACK
6
CONTINUOUS
10
63.0362
20
-52.762
11
63.5362
21
-53.262
0
LINE
8
BLACK
6
CONTINUOUS
10
63.5362
20
-54.262
11
63.5362
21
-53.262
0
LINE
8
BLACK
6
CONTINUOUS
10
59.0282
20
-56.6948
11
56.5794
21
-56.6948
0
LINE
8
BLACK
6
CONTINUOUS
10
68.5362
20
-58.93
11
70.985
21
-58.93
0
LINE
8
BLACK
6
CONTINUOUS
10
59.0282
20
-53.7992
11
56.5794
21
-53.7992
0
LINE
8
BLACK
6
CONTINUOUS
10
59.0282
20
-57.27
11
59.5282
21
-57.77
0
LINE
8
BLACK
6
CONTINUOUS
10
68.5362
20
-54.762
11
64.0362
21
-54.762
0
LINE
8
BLACK
6
CONTINUOUS
10
63.5682
20
-59.97
11
68.5362
21
-59.97
0
LINE
8
BLACK
6
CONTINUOUS
10
63.5682
20
-59.27
11
63.5682
21
-59.97
0
LINE
8
BLACK
6
CONTINUOUS
10
68.5362
20
-59.97
11
68.5362
21
-58.93
0
LINE
8
BLACK
6
CONTINUOUS
10
56.5794
20
-53.7992
11
56.5794
21
-56.6948
0
ARC
8
BLACK
10
62.1255
20
-59.2116
40
1.44391
50
-2.31713
51
93.2266
0
ARC
8
BLACK
10
64.0362
20
-54.262
40
0.500001
50
-180
51
-90.0001
0
CIRCLE
8
BLACK
10
61.2516
20
-61.2414
40
1.75
0
CIRCLE
8
BLACK
10
66.7516
20
-61.2414
40
0.855
0
CIRCLE
8
BLACK
10
55.7516
20
-61.2414
40
0.855
0
LINE
8
BLACK
6
CONTINUOUS
10
230.391
20
-76.288
11
230.391
21
-76.988
0
LINE
8
BLACK
6
CONTINUOUS
10
235.359
20
-75.948
11
237.808
21
-75.948
0
LINE
8
BLACK
6
CONTINUOUS
10
226.351
20
-74.788
11
228.867
21
-74.788
0
LINE
8
BLACK
6
CONTINUOUS
10
225.851
20
-74.288
11
226.351
21
-74.788
0
LINE
8
BLACK
6
CONTINUOUS
10
225.851
20
-70.28
11
226.351
21
-69.78
0
LINE
8
BLACK
6
CONTINUOUS
10
223.402
20
-70.8172
11
223.402
21
-73.7128
0
LINE
8
BLACK
6
CONTINUOUS
10
225.851
20
-74.288
11
225.851
21
-73.7128
0
LINE
8
BLACK
6
CONTINUOUS
10
226.351
20
-69.78
11
229.859
21
-69.78
0
LINE
8
BLACK
6
CONTINUOUS
10
230.359
20
-71.28
11
230.359
21
-70.28
0
LINE
8
BLACK
6
CONTINUOUS
10
235.359
20
-73.0524
11
235.359
21
-71.78
0
LINE
8
BLACK
6
CONTINUOUS
10
229.859
20
-69.78
11
230.359
21
-70.28
0
LINE
8
BLACK
6
CONTINUOUS
10
235.359
20
-73.0524
11
237.808
21
-73.0524
0
LINE
8
BLACK
6
CONTINUOUS
10
225.851
20
-73.7128
11
223.402
21
-73.7128
0
LINE
8
BLACK
6
CONTINUOUS
10
235.359
20
-71.78
11
230.859
21
-71.78
0
LINE
8
BLACK
6
CONTINUOUS
10
235.359
20
-76.988
11
235.359
21
-75.948
0
LINE
8
BLACK
6
CONTINUOUS
10
230.391
20
-76.988
11
235.359
21
-76.988
0
LINE
8
BLACK
6
CONTINUOUS
10
225.851
20
-70.8172
11
225.851
21
-70.28
0
LINE
8
BLACK
6
CONTINUOUS
10
237.808
20
-75.948
11
237.808
21
-73.0524
0
LINE
8
BLACK
6
CONTINUOUS
10
225.851
20
-70.8172
11
223.402
21
-70.8172
0
ARC
8
BLACK
10
230.859
20
-71.28
40
0.500001
50
-180
51
-90.0001
0
ARC
8
BLACK
10
228.948
20
-76.2296
40
1.44391
50
-2.31713
51
93.2266
0
CIRCLE
8
BLACK
10
228.074
20
-78.2594
40
1.75
0
CIRCLE
8
BLACK
10
233.574
20
-78.2594
40
0.855
0
CIRCLE
8
BLACK
10
222.574
20
-78.2594
40
0.855
0
LINE
8
BLACK
6
CONTINUOUS
10
48.108
20
-128.287
11
43.8056
21
-130.771
0
LINE
8
BLACK
6
CONTINUOUS
10
43.8056
20
-130.771
11
44.3256
21
-131.672
0
LINE
8
BLACK
6
CONTINUOUS
10
46.4096
20
-135.282
11
50.3067
21
-133.032
0
LINE
8
BLACK
6
CONTINUOUS
10
44.3256
20
-131.672
11
42.2049
21
-132.896
0
LINE
8
BLACK
6
CONTINUOUS
10
42.2049
20
-132.896
11
43.6527
21
-135.404
0
LINE
8
BLACK
6
CONTINUOUS
10
48.458
20
-128.894
11
48.108
21
-128.287
0
LINE
8
BLACK
6
CONTINUOUS
10
53.3898
20
-128.356
11
53.6774
21
-128.854
0
LINE
8
BLACK
6
CONTINUOUS
10
53.3898
20
-128.356
11
52.7068
21
-128.173
0
LINE
8
BLACK
6
CONTINUOUS
10
55.1252
20
-131.361
11
55.3938
21
-131.827
0
LINE
8
BLACK
6
CONTINUOUS
10
55.2108
20
-132.51
11
52.1728
21
-134.264
0
LINE
8
BLACK
6
CONTINUOUS
10
55.3938
20
-131.827
11
55.2108
21
-132.51
0
LINE
8
BLACK
6
CONTINUOUS
10
53.6774
20
-128.854
11
55.7981
21
-127.629
0
LINE
8
BLACK
6
CONTINUOUS
10
52.1728
20
-134.264
11
51.4898
21
-134.081
0
LINE
8
BLACK
6
CONTINUOUS
10
52.7068
20
-128.173
11
50.5279
21
-129.431
0
LINE
8
BLACK
6
CONTINUOUS
10
57.2459
20
-130.137
11
55.7981
21
-127.629
0
LINE
8
BLACK
6
CONTINUOUS
10
45.7734
20
-134.18
11
46.4096
21
-135.282
0
LINE
8
BLACK
6
CONTINUOUS
10
45.7734
20
-134.18
11
43.6527
21
-135.404
0
LINE
8
BLACK
6
CONTINUOUS
10
55.1252
20
-131.361
11
57.2459
21
-130.137
0
LINE
8
BLACK
6
CONTINUOUS
10
50.9898
20
-133.215
11
51.4898
21
-134.081
0
ARC
8
BLACK
10
50.5567
20
-133.465
40
0.500001
50
30.0001
51
120
0
ARC
8
BLACK
10
49.7367
20
-128.223
40
1.44391
50
-152.317
51
-56.7734
0
CIRCLE
8
BLACK
10
54.2417
20
-123.278
40
0.855
0
CIRCLE
8
BLACK
10
49.4786
20
-126.028
40
1.75
0
CIRCLE
8
BLACK
10
44.7154
20
-128.778
40
0.854999
0
LINE
8
BLACK
6
CONTINUOUS
10
59.8864
20
-110.261
11
62.2864
21
-110.261
0
LINE
8
BLACK
6
CONTINUOUS
10
62.2864
20
-110.261
11
62.2864
21
-104.819
0
LINE
8
BLACK
6
CONTINUOUS
10
62.2864
20
-104.819
11
59.8864
21
-104.819
0
LINE
8
BLACK
6
CONTINUOUS
10
59.8864
20
-104.819
11
59.8864
21
-110.261
0
LINE
8
BLACK
6
CONTINUOUS
10
90.3712
20
-90.8972
11
87.9712
21
-90.8972
0
LINE
8
BLACK
6
CONTINUOUS
10
87.9712
20
-90.8972
11
87.9712
21
-96.3384
0
LINE
8
BLACK
6
CONTINUOUS
10
87.9712
20
-96.3384
11
90.3712
21
-96.3384
0
LINE
8
BLACK
6
CONTINUOUS
10
90.3712
20
-96.3384
11
90.3712
21
-90.8972
0
LINE
8
BLACK
6
CONTINUOUS
10
54.2016
20
-59.7414
11
51.8016
21
-59.7414
0
LINE
8
BLACK
6
CONTINUOUS
10
51.8016
20
-59.7414
11
51.8016
21
-65.1826
0
LINE
8
BLACK
6
CONTINUOUS
10
51.8016
20
-65.1826
11
54.2016
21
-65.1826
0
LINE
8
BLACK
6
CONTINUOUS
10
54.2016
20
-65.1826
11
54.2016
21
-59.7414
0
LINE
8
BLACK
6
CONTINUOUS
10
54.2016
20
-93.7774
11
51.8016
21
-93.7774
0
LINE
8
BLACK
6
CONTINUOUS
10
51.8016
20
-93.7774
11
51.8016
21
-99.2186
0
LINE
8
BLACK
6
CONTINUOUS
10
51.8016
20
-99.2186
11
54.2016
21
-99.2186
0
LINE
8
BLACK
6
CONTINUOUS
10
54.2016
20
-99.2186
11
54.2016
21
-93.7774
0
LINE
8
BLACK
6
CONTINUOUS
10
62.5788
20
-110.261
11
64.9788
21
-110.261
0
LINE
8
BLACK
6
CONTINUOUS
10
64.9788
20
-110.261
11
64.9788
21
-104.819
0
LINE
8
BLACK
6
CONTINUOUS
10
64.9788
20
-104.819
11
62.5788
21
-104.819
0
LINE
8
BLACK
6
CONTINUOUS
10
62.5788
20
-104.819
11
62.5788
21
-110.261
0
CIRCLE
8
BLACK
10
68.5286
20
-50.2775
40
1.6
0
LINE
8
BLACK
6
CONTINUOUS
10
72.2864
20
-93.1058
11
69.8864
21
-93.1058
0
LINE
8
BLACK
6
CONTINUOUS
10
69.8864
20
-93.1058
11
69.8864
21
-98.547
0
LINE
8
BLACK
6
CONTINUOUS
10
69.8864
20
-98.547
11
72.2864
21
-98.547
0
LINE
8
BLACK
6
CONTINUOUS
10
72.2864
20
-98.547
11
72.2864
21
-93.1058
0
CIRCLE
8
BLACK
10
36.2706
20
-119.297
40
2.15
0
LINE
8
BLACK
6
CONTINUOUS
10
39.9552
20
-130.905
11
42.8588
21
-129.229
0
LINE
8
BLACK
6
CONTINUOUS
10
39.1244
20
-122.761
11
38.4588
21
-121.608
0
LINE
8
BLACK
6
CONTINUOUS
10
39.1244
20
-122.761
11
40.0483
21
-122.227
0
LINE
8
BLACK
6
CONTINUOUS
10
42.2186
20
-128.12
11
43.1425
21
-127.587
0
LINE
8
BLACK
6
CONTINUOUS
10
38.4588
20
-121.608
11
35.5552
21
-123.284
0
LINE
8
BLACK
6
CONTINUOUS
10
43.1425
20
-127.587
11
40.0483
21
-122.227
0
LINE
8
BLACK
6
CONTINUOUS
10
35.5552
20
-123.284
11
39.9552
21
-130.905
0
LINE
8
BLACK
6
CONTINUOUS
10
42.2186
20
-128.12
11
42.8588
21
-129.229
0
LINE
8
BLACK
6
CONTINUOUS
10
90.3712
20
-73.8792
11
87.9712
21
-73.8792
0
LINE
8
BLACK
6
CONTINUOUS
10
87.9712
20
-73.8792
11
87.9712
21
-79.3204
0
LINE
8
BLACK
6
CONTINUOUS
10
87.9712
20
-79.3204
11
90.3712
21
-79.3204
0
LINE
8
BLACK
6
CONTINUOUS
10
90.3712
20
-79.3204
11
90.3712
21
-73.8792
0
LINE
8
BLACK
6
CONTINUOUS
10
72.2864
20
-76.0878
11
69.8864
21
-76.0878
0
LINE
8
BLACK
6
CONTINUOUS
10
69.8864
20
-76.0878
11
69.8864
21
-81.529
0
LINE
8
BLACK
6
CONTINUOUS
10
69.8864
20
-81.529
11
72.2864
21
-81.529
0
LINE
8
BLACK
6
CONTINUOUS
10
72.2864
20
-81.529
11
72.2864
21
-76.0878
0
CIRCLE
8
BLACK
10
35.3261
20
-90.4736
40
2.15
0
CIRCLE
8
BLACK
10
42.0824
20
-90.4071
40
0.4
0
CIRCLE
8
BLACK
10
40.8324
20
-90.4071
40
0.4
0
CIRCLE
8
BLACK
10
122.652
20
-104.979
40
1.6
0
CIRCLE
8
BLACK
10
126.385
20
-51.7761
40
1.6
0
LINE
8
BLACK
6
CONTINUOUS
10
126.541
20
-96.0078
11
124.141
21
-96.0078
0
LINE
8
BLACK
6
CONTINUOUS
10
124.141
20
-96.0078
11
124.141
21
-101.449
0
LINE
8
BLACK
6
CONTINUOUS
10
124.141
20
-101.449
11
126.541
21
-101.449
0
LINE
8
BLACK
6
CONTINUOUS
10
126.541
20
-101.449
11
126.541
21
-96.0078
0
LINE
8
BLACK
6
CONTINUOUS
10
108.456
20
-58.4718
11
106.056
21
-58.4718
0
LINE
8
BLACK
6
CONTINUOUS
10
106.056
20
-58.4718
11
106.056
21
-63.913
0
LINE
8
BLACK
6
CONTINUOUS
10
106.056
20
-63.913
11
108.456
21
-63.913
0
LINE
8
BLACK
6
CONTINUOUS
10
108.456
20
-63.913
11
108.456
21
-58.4718
0
LINE
8
BLACK
6
CONTINUOUS
10
72.2864
20
-59.0696
11
69.8864
21
-59.0696
0
LINE
8
BLACK
6
CONTINUOUS
10
69.8864
20
-59.0696
11
69.8864
21
-64.5108
0
LINE
8
BLACK
6
CONTINUOUS
10
69.8864
20
-64.5108
11
72.2864
21
-64.5108
0
LINE
8
BLACK
6
CONTINUOUS
10
72.2864
20
-64.5108
11
72.2864
21
-59.0696
0
LINE
8
BLACK
6
CONTINUOUS
10
37.0886
20
-68.9814
11
32.7198
21
-68.9814
0
LINE
8
BLACK
6
CONTINUOUS
10
32.7198
20
-68.9814
11
32.7198
21
-86.355
0
LINE
8
BLACK
6
CONTINUOUS
10
32.7198
20
-86.355
11
37.0886
21
-86.355
0
LINE
8
BLACK
6
CONTINUOUS
10
37.0886
20
-86.355
11
37.0886
21
-68.9814
0
LINE
8
BLACK
6
CONTINUOUS
10
50.195
20
-68.9814
11
45.8262
21
-68.9814
0
LINE
8
BLACK
6
CONTINUOUS
10
45.8262
20
-68.9814
11
45.8262
21
-86.355
0
LINE
8
BLACK
6
CONTINUOUS
10
45.8262
20
-86.355
11
50.195
21
-86.355
0
LINE
8
BLACK
6
CONTINUOUS
10
50.195
20
-86.355
11
50.195
21
-68.9814
0
CIRCLE
8
BLACK
10
47.9439
20
-90.4736
40
2.15
0
LINE
8
BLACK
6
CONTINUOUS
10
54.2016
20
-76.7594
11
51.8016
21
-76.7594
0
LINE
8
BLACK
6
CONTINUOUS
10
51.8016
20
-76.7594
11
51.8016
21
-82.2006
0
LINE
8
BLACK
6
CONTINUOUS
10
51.8016
20
-82.2006
11
54.2016
21
-82.2006
0
LINE
8
BLACK
6
CONTINUOUS
10
54.2016
20
-82.2006
11
54.2016
21
-76.7594
0
LINE
8
BLACK
6
CONTINUOUS
10
108.456
20
-75.4898
11
106.056
21
-75.4898
0
LINE
8
BLACK
6
CONTINUOUS
10
106.056
20
-75.4898
11
106.056
21
-80.931
0
LINE
8
BLACK
6
CONTINUOUS
10
106.056
20
-80.931
11
108.456
21
-80.931
0
LINE
8
BLACK
6
CONTINUOUS
10
108.456
20
-80.931
11
108.456
21
-75.4898
0
LINE
8
BLACK
6
CONTINUOUS
10
126.541
20
-61.9718
11
124.141
21
-61.9718
0
LINE
8
BLACK
6
CONTINUOUS
10
124.141
20
-61.9718
11
124.141
21
-67.413
0
LINE
8
BLACK
6
CONTINUOUS
10
124.141
20
-67.413
11
126.541
21
-67.413
0
LINE
8
BLACK
6
CONTINUOUS
10
126.541
20
-67.413
11
126.541
21
-61.9718
0
LINE
8
BLACK
6
CONTINUOUS
10
108.456
20
-92.5078
11
106.056
21
-92.5078
0
LINE
8
BLACK
6
CONTINUOUS
10
106.056
20
-92.5078
11
106.056
21
-97.949
0
LINE
8
BLACK
6
CONTINUOUS
10
106.056
20
-97.949
11
108.456
21
-97.949
0
LINE
8
BLACK
6
CONTINUOUS
10
108.456
20
-97.949
11
108.456
21
-92.5078
0
LINE
8
BLACK
6
CONTINUOUS
10
126.541
20
-79.0406
11
124.141
21
-79.0406
0
LINE
8
BLACK
6
CONTINUOUS
10
124.141
20
-79.0406
11
124.141
21
-84.4818
0
LINE
8
BLACK
6
CONTINUOUS
10
124.141
20
-84.4818
11
126.541
21
-84.4818
0
LINE
8
BLACK
6
CONTINUOUS
10
126.541
20
-84.4818
11
126.541
21
-79.0406
0
LINE
8
BLACK
6
CONTINUOUS
10
90.3712
20
-56.8612
11
87.9712
21
-56.8612
0
LINE
8
BLACK
6
CONTINUOUS
10
87.9712
20
-56.8612
11
87.9712
21
-62.3024
0
LINE
8
BLACK
6
CONTINUOUS
10
87.9712
20
-62.3024
11
90.3712
21
-62.3024
0
LINE
8
BLACK
6
CONTINUOUS
10
90.3712
20
-62.3024
11
90.3712
21
-56.8612
0
LINE
8
BLACK
6
CONTINUOUS
10
41.1574
20
-88.3551
11
41.7574
21
-88.3551
0
LINE
8
BLACK
6
CONTINUOUS
10
40.4574
20
-86.2551
11
40.4574
21
-87.6551
0
LINE
8
BLACK
6
CONTINUOUS
10
42.4574
20
-87.6551
11
42.4574
21
-86.2551
0
LINE
8
BLACK
6
CONTINUOUS
10
41.7574
20
-85.5551
11
41.1574
21
-85.5551
0
ARC
8
BLACK
10
41.7574
20
-86.2551
40
0.7
50
-0
51
90
0
ARC
8
BLACK
10
41.1574
20
-86.2551
40
0.7
50
90
51
180
0
ARC
8
BLACK
10
41.7574
20
-87.6551
40
0.699999
50
-90.0001
51
8.18512e-05
0
ARC
8
BLACK
10
41.1574
20
-87.6551
40
0.699999
50
-180
51
-89.9999
0
CIRCLE
8
BLACK
10
58.7496
20
-120.364
40
1.6
0
CIRCLE
8
BLACK
10
71.6274
20
-104.819
40
1.6
  0
ENDSEC
  0
EOF
