  0
SECTION
  2
HEADER
  9
$ANGBASE
  50
0.0
  9
$ANGDIR
  70
1
  9
$MEASUREMENT
  70
1
  0
ENDSEC
  0
SECTION
  2
TABLES
  0
TABLE
  2
LTYPE
  70
4
  0
LTYPE
  5
40F
  2
CONTINUOUS
  70
0
  3
Solid line
  72
65
  73
0
  40
0.0
  0
LTYPE
  5
410
  2
DASHDOT
 70
0
  3
Dash Dot ____ _ ____ _
 72
65
 73
4
 40
2.0
 49
1.25
 49
-0.25
 49
0.25
 49
-0.25
  0
LTYPE
  5
411
  2
DASHED
 70
0
  3
Dashed __ __ __ __ __
 72
65
 73
2
 40
0.75
 49
0.5
 49
-0.25
  0
LTYPE
  5
43B
  2
DOTTED
 70
0
  3
Dotted .  .  .  .
 72
65
 73
2
 40
0.2
 49
0.0
 49
-0.2
  0
ENDTAB
  0
TABLE
  2
STYLE
  70
4
  0
STYLE
  2
KICAD
  70
0
  40
0
  41
1
  42
1
  50
0
  71
0
  3
isocp.shx
  0
STYLE
  2
KICADB
  70
0
  40
0
  41
1
  42
1
  50
0
  71
0
  3
isocp.shx
  0
STYLE
  2
KICADI
  70
0
  40
0
  41
1
  42
1
  50
15
  71
0
  3
isocp.shx
  0
STYLE
  2
KICADBI
  70
0
  40
0
  41
1
  42
1
  50
15
  71
0
  3
isocp.shx
  0
ENDTAB
  0
TABLE
  2
LAYER
  70
1
  0
LAYER
  2
BLACK
  70
0
  62
7
  6
CONTINUOUS
  0
ENDTAB
  0
ENDSEC
  0
SECTION
  2
ENTITIES
0
CIRCLE
8
BLACK
10
82.1003899999999902
20
-57.9136809999999969
40
3.0499999999999998
0
ARC
8
BLACK
10
141.6117999999999881
20
-129.617999999999995
40
0.5000450401403858
50
-97.49478437
51
-7.50358557
0
LINE
8
BLACK
6
CONTINUOUS
10
155.252728999999988
20
-131.9182089999999903
11
151.2627369999999871
21
-131.3929169999999829
0
ARC
8
BLACK
10
107.0386999999999915
20
-125.7320999999999884
40
1.3985434490429678
50
-82.49854245
51
-14.71226152
0
LINE
8
BLACK
6
CONTINUOUS
10
137.0575639999999851
20
-129.52276999999998
11
141.5465779999999825
21
-130.1137589999999875
0
LINE
8
BLACK
6
CONTINUOUS
10
173.1281119999999873
20
-56.858590999999997
11
173.1281119999999873
21
-106.5020869999999888
0
LINE
8
BLACK
6
CONTINUOUS
10
150.0554109999999923
20
-126.5341009999999926
11
143.9199539999999899
21
-125.7263519999999914
0
LINE
8
BLACK
6
CONTINUOUS
10
142.5112619999999879
20
-126.6169000000000011
11
142.107562999999999
21
-129.6833000000000027
0
LINE
8
BLACK
6
CONTINUOUS
10
80.8869189999999918
20
-109.9298280000000005
11
80.4871849999999966
21
-109.9824539999999899
0
LINE
8
BLACK
6
CONTINUOUS
10
155.4323389999999847
20
-131.9539359999999988
11
172.7734499999999969
21
-136.6004719999999963
0
CIRCLE
8
BLACK
10
171.8679899999999918
20
-133.0214809999999943
40
3.0499999999999998
0
ARC
8
BLACK
10
108.9162999999999926
20
-126.1580000000000013
40
0.529652419102377
50
94.58216886
51
172.32697348
0
ARC
8
BLACK
10
171.3536000000000001
20
-56.8451999999999984
40
1.7745227752835409
50
-0.43236294
51
73.54012594
0
ARC
8
BLACK
10
155.0699999999999932
20
-133.3058999999999799
40
1.399670032158294
50
74.99678388
51
82.49853837
0
LINE
8
BLACK
6
CONTINUOUS
10
181.0431889999999839
20
-111.146569999999997
11
174.4880929999999921
21
-135.6105230000000006
0
LINE
8
BLACK
6
CONTINUOUS
10
151.2359769999999912
20
-127.7655299999999983
11
150.8322780000000023
21
-130.8319319999999948
0
LINE
8
BLACK
6
CONTINUOUS
10
82.0089449999999971
20
-110.7911649999999923
11
84.3610520000000008
21
-128.7156129999999905
0
LINE
8
BLACK
6
CONTINUOUS
10
135.8639569999999992
20
-122.0767859999999985
11
108.8739899999999921
21
-125.6300809999999899
0
ARC
8
BLACK
10
81.017399999999995
20
-110.9213999999999913
40
1.0001201540540017
50
7.48271081
51
97.49648243
0
ARC
8
BLACK
10
126.1210699999999889
20
-188.0764199999999846
40
140.5806104763432245
50
71.01432751
51
109.08090272
0
LINE
8
BLACK
6
CONTINUOUS
10
143.7807080000000042
20
-126.7840259999999972
11
142.5112619999999879
21
-126.6169000000000011
0
ARC
8
BLACK
10
151.328000000000003
20
-130.897199999999998
40
0.4999946032288748
50
-187.50056358
51
-97.50007031
0
ARC
8
BLACK
10
135.9422999999999888
20
-122.6717000000000013
40
0.6000502421006094
50
-7.49591246
51
97.50199618
0
ARC
8
BLACK
10
174.5280999999999949
20
-106.5020999999999987
40
1.3999842728809491
50
-180.00053204
51
-104.99967830
0
LINE
8
BLACK
6
CONTINUOUS
10
149.916166000000004
20
-127.5917740000000009
11
151.2359769999999912
21
-127.7655299999999983
0
CIRCLE
8
BLACK
10
82.1531899999999951
20
-106.836080999999993
40
3.0499999999999998
0
ARC
8
BLACK
10
137.2402999999999906
20
-128.1346999999999809
40
1.4000467030052961
50
-187.49811602
51
-97.49972076
0
LINE
8
BLACK
6
CONTINUOUS
10
78.9044480000000021
20
-56.858590999999997
11
78.9044480000000021
21
-108.5944310000000002
0
LINE
8
BLACK
6
CONTINUOUS
10
135.8522789999999816
20
-127.9520099999999871
11
136.5371399999999937
21
-122.749968999999993
0
CIRCLE
8
BLACK
10
169.9355899999999906
20
-57.8374809999999968
40
3.0499999999999998
0
LINE
8
BLACK
6
CONTINUOUS
10
85.9318889999999982
20
-129.9214849999999899
11
107.2212829999999997
21
-127.1186829999999901
0
ARC
8
BLACK
10
80.3044000000000011
20
-108.5943999999999932
40
1.4000372363408766
50
-179.99873126
51
-82.49820564
0
ARC
8
BLACK
10
80.5900000000000034
20
-56.8506999999999962
40
1.6855704709637622
50
-255.39104388
51
-179.73176877
0
ARC
8
BLACK
10
173.135799999999989
20
-135.2481999999999971
40
1.3999908264620879
50
-105.00038779
51
-14.99909800
0
LINE
8
BLACK
6
CONTINUOUS
10
174.1657649999999933
20
-107.8543829999999986
11
180.0532399999999882
21
-109.43192599999999
0
LINE
8
BLACK
6
CONTINUOUS
10
143.7807080000000042
20
-126.7840259999999972
11
143.9199539999999899
21
-125.7263519999999914
0
LINE
8
BLACK
6
CONTINUOUS
10
150.0554109999999923
20
-126.5341009999999926
11
149.916166000000004
21
-127.5917740000000009
0
ARC
8
BLACK
10
85.7492000000000019
20
-128.533299999999997
40
1.4001545860889788
50
-172.51785845
51
-82.50280030
0
ARC
8
BLACK
10
179.6908999999999992
20
-110.7841999999999985
40
1.3999768736218465
50
-15.00099834
51
75.00002871
0
CIRCLE
8
BLACK
10
100.822189999999992
20
-105.9958809999999971
40
2.1499999999999999
0
CIRCLE
8
BLACK
10
158.9373899999999935
20
-113.0570809999999966
40
2.1499999999999999
0
CIRCLE
8
BLACK
10
86.8788839999999993
20
-112.6355489999999975
40
1.05
0
CIRCLE
8
BLACK
10
88.850168999999994
20
-127.6089439999999939
40
1.05
0
CIRCLE
8
BLACK
10
89.3971540000000005
20
-112.3040120000000002
40
1.05
0
CIRCLE
8
BLACK
10
91.3684389999999951
20
-127.2774069999999966
40
1.05
0
CIRCLE
8
BLACK
10
91.9154240000000016
20
-111.9724760000000003
40
1.0500019999999999
0
CIRCLE
8
BLACK
10
93.8867089999999962
20
-126.9458709999999968
40
1.05
0
CIRCLE
8
BLACK
10
94.4336940000000027
20
-111.6409389999999888
40
1.05
0
CIRCLE
8
BLACK
10
96.4049789999999973
20
-126.6143339999999995
40
1.05
0
CIRCLE
8
BLACK
10
96.9519639999999896
20
-111.3094040000000007
40
1.0500019999999999
0
CIRCLE
8
BLACK
10
98.9232489999999984
20
-126.2827979999999997
40
1.05
0
CIRCLE
8
BLACK
10
99.4702339999999907
20
-110.9778659999999917
40
1.05
0
CIRCLE
8
BLACK
10
101.4415180000000021
20
-125.9512609999999881
40
1.05
0
CIRCLE
8
BLACK
10
101.9885049999999893
20
-110.6463289999999944
40
1.05
0
CIRCLE
8
BLACK
10
103.959787999999989
20
-125.6197249999999883
40
1.05
0
CIRCLE
8
BLACK
10
97.3327999999999918
20
-53.5431999999999988
40
2.1499999999999999
0
CIRCLE
8
BLACK
10
154.8940000000000055
20
-53.847999999999999
40
2.1499999999999999
0
CIRCLE
8
BLACK
10
133.603999999999985
20
-119.887999999999991
40
1.0999999999999999
0
CIRCLE
8
BLACK
10
111.3637859999999904
20
-122.8159799999999962
40
1.0999999999999999
  0
ENDSEC
  0
EOF
