M48
; DRILL file {KiCad 8.0.0} date 2024-03-03T16:28:32+0800
; FORMAT={-:-/ absolute / metric / decimal}
; #@! TF.CreationDate,2024-03-03T16:28:32+08:00
; #@! TF.GenerationSoftware,Kicad,Pcbnew,8.0.0
; #@! TF.FileFunction,NonPlated,1,2,NPTH
FMAT,2
METRIC
; #@! TA.AperFunction,NonPlated,NPTH,ComponentDrill
T1C0.300
; #@! TA.AperFunction,NonPlated,NPTH,ComponentDrill
T2C0.900
; #@! TA.AperFunction,NonPlated,NPTH,ComponentDrill
T3C1.800
; #@! TA.AperFunction,NonPlated,NPTH,ComponentDrill
T4C3.000
; #@! TA.AperFunction,NonPlated,NPTH,ComponentDrill
T5C3.200
; #@! TA.AperFunction,NonPlated,NPTH,ComponentDrill
T6C3.400
%
G90
G05
T1
X108.279Y-121.23
X108.356Y-121.818
X108.434Y-122.407
X108.511Y-122.996
X108.589Y-123.584
X136.452Y-120.32
X136.529Y-119.732
X136.607Y-119.143
X136.684Y-118.554
X136.762Y-117.966
T2
X177.832Y-118.323
X177.832Y-118.323
X178.609Y-115.426
X178.609Y-115.426
T3
X83.947Y-64.209
X83.947Y-81.208
X83.947Y-98.208
X94.947Y-64.209
X94.947Y-81.208
X94.947Y-98.208
X102.246Y-61.209
X102.246Y-78.209
X102.246Y-95.209
X113.246Y-61.209
X113.246Y-78.209
X113.246Y-95.209
X120.546Y-58.409
X120.546Y-75.409
X120.546Y-92.409
X131.546Y-58.409
X131.546Y-75.409
X131.546Y-92.409
X138.846Y-61.208
X138.846Y-78.209
X138.846Y-95.209
X142.341Y-119.347
X149.846Y-61.208
X149.846Y-78.209
X149.846Y-95.209
X153.247Y-120.783
X157.146Y-64.748
X157.146Y-81.748
X157.146Y-98.748
X161.884Y-122.482
X168.146Y-64.748
X168.146Y-81.748
X168.146Y-98.748
X172.51Y-125.329
T4
X84.447Y-67.909
X84.447Y-77.508
X84.447Y-94.508
X89.447Y-70.109
X89.447Y-75.308
X89.447Y-92.308
X94.447Y-67.909
X94.447Y-77.508
X94.447Y-94.508
X102.746Y-57.509
X102.746Y-74.509
X102.746Y-91.509
X107.746Y-55.309
X107.746Y-72.309
X107.746Y-89.309
X112.746Y-57.509
X112.746Y-74.509
X112.746Y-91.509
X121.046Y-54.709
X121.046Y-71.709
X121.046Y-88.709
X126.046Y-52.509
X126.046Y-69.509
X126.046Y-86.509
X131.046Y-54.709
X131.046Y-71.709
X131.046Y-88.709
X139.346Y-57.508
X139.346Y-74.509
X139.346Y-91.509
X142.354Y-123.081
X144.346Y-55.308
X144.346Y-72.309
X144.346Y-89.309
X147.024Y-125.915
X149.346Y-57.508
X149.346Y-74.509
X149.346Y-91.509
X152.268Y-124.386
X157.646Y-68.448
X157.646Y-78.048
X157.646Y-95.048
X162.646Y-70.648
X162.646Y-75.848
X162.646Y-92.848
X163.325Y-119.037
X167.646Y-68.448
X167.646Y-78.048
X167.646Y-95.048
X168.724Y-118.206
X172.984Y-121.625
T5
X97.333Y-53.543
X100.228Y-106.02
X155.194Y-53.848
X159.055Y-114.148
T6
X89.447Y-64.209
X89.447Y-81.208
X89.447Y-98.208
X107.746Y-61.209
X107.746Y-78.209
X107.746Y-95.209
X126.046Y-58.409
X126.046Y-75.409
X126.046Y-92.409
X144.346Y-61.208
X144.346Y-78.209
X144.346Y-95.209
X147.794Y-120.065
X162.646Y-64.748
X162.646Y-81.748
X162.646Y-98.748
X167.197Y-123.905
M30
