M48
; DRILL file {KiCad 9.0.2} date 2025-07-12T22:53:37+0800
; FORMAT={-:-/ absolute / metric / decimal}
; #@! TF.CreationDate,2025-07-12T22:53:37+08:00
; #@! TF.GenerationSoftware,Kicad,Pcbnew,9.0.2
; #@! TF.FileFunction,Plated,1,2,PTH
FMAT,2
METRIC
; #@! TA.AperFunction,Plated,PTH,ViaDrill
T1C0.300
; #@! TA.AperFunction,Plated,PTH,ComponentDrill
T2C0.300
; #@! TA.AperFunction,Plated,PTH,ViaDrill
T3C0.400
; #@! TA.AperFunction,Plated,PTH,ComponentDrill
T4C0.800
; #@! TA.AperFunction,Plated,PTH,ComponentDrill
T5C1.220
; #@! TA.AperFunction,Plated,PTH,ComponentDrill
T6C1.550
; #@! TA.AperFunction,Plated,PTH,ComponentDrill
T7C2.200
%
G90
G05
T1
X80.298Y-78.141
X80.619Y-95.487
X86.09Y-118.594
X86.647Y-69.809
X86.903Y-120.88
X87.075Y-108.688
X87.768Y-119.763
X88.443Y-122.049
X89.545Y-120.88
X91.831Y-122.049
X95.988Y-77.593
X96.309Y-94.939
X96.513Y-120.838
X97.347Y-67.709
X99.353Y-121.744
X99.846Y-56.764
X99.846Y-74.409
X99.846Y-91.409
X100.263Y-121.287
X100.771Y-115.546
X101.569Y-117.578
X102.244Y-114.784
X102.382Y-121.44
X102.919Y-118.645
X103.02Y-117.578
X103.377Y-114.784
X105.12Y-99.169
X111.338Y-97.498
X112.354Y-97.511
X115.546Y-56.764
X115.546Y-74.409
X115.546Y-91.409
X118.146Y-54.609
X118.146Y-71.609
X118.146Y-88.609
X133.846Y-54.609
X133.846Y-71.609
X133.846Y-88.609
X137.396Y-90.038
X137.837Y-73.038
X138.277Y-56.037
X140.457Y-115.267
X153.075Y-90.86
X153.515Y-73.859
X153.955Y-56.859
X154.518Y-99.239
X155.407Y-86.285
X155.407Y-96.028
X156.023Y-117.316
X156.097Y-79.041
X160.55Y-118.19
X161.273Y-72.002
X166.865Y-72.296
X171.081Y-96.95
X171.776Y-79.863
X175.715Y-122.253
T2
X97.451Y-81.288
X97.451Y-84.688
X97.761Y-60.659
X97.761Y-64.059
X97.761Y-98.505
X97.761Y-101.905
X116.262Y-60.676
X116.262Y-64.076
X116.262Y-78.321
X116.262Y-81.721
X116.262Y-95.237
X116.262Y-98.637
X134.198Y-58.814
X134.198Y-62.214
X134.198Y-75.578
X134.198Y-78.978
X134.198Y-92.545
X134.198Y-95.945
X152.579Y-97.582
X152.579Y-100.982
X152.778Y-80.793
X152.778Y-84.193
X153.078Y-63.81
X153.078Y-67.21
X156.016Y-121.568
X156.016Y-124.968
X156.333Y-61.259
X156.333Y-64.659
X159.039Y-122.025
X159.039Y-125.425
X171.019Y-102.849
X171.019Y-106.249
X171.129Y-86.313
X171.129Y-89.713
T3
X82.229Y-105.92
X84.414Y-117.273
X87.005Y-123.319
X90.662Y-117.07
X104.073Y-61.851
X104.175Y-96.801
X128.203Y-72.265
X141.31Y-102.44
X142.3Y-61.343
X144.678Y-126.751
X147.653Y-127.143
X148.574Y-106.859
X152.495Y-107.007
X163.763Y-111.381
T4
X172.563Y-110.868
X172.637Y-113.916
X173.08Y-108.936
X173.801Y-109.569
X174.322Y-112.996
X174.569Y-114.433
X175.733Y-110.087
X176.254Y-113.514
X176.5Y-114.951
X177.665Y-110.604
X178.841Y-112.551
X179.359Y-110.619
T5
X94.55Y-114.962
X95.658Y-123.376
T6
X86.879Y-112.636
X88.85Y-127.609
X89.397Y-112.304
X91.368Y-127.277
X91.915Y-111.972
X93.887Y-126.946
X94.434Y-111.641
X96.405Y-126.614
X96.952Y-111.309
X98.923Y-126.283
X99.47Y-110.978
X101.442Y-125.951
X101.989Y-110.646
X103.96Y-125.62
T7
X111.364Y-122.816
X133.604Y-119.888
M30
