G04 #@! TF.GenerationSoftware,KiCad,Pcbnew,8.0.5*
G04 #@! TF.CreationDate,2025-01-03T21:24:17+08:00*
G04 #@! TF.ProjectId,Kretstr_d_v2,4b726574-7374-472e-9464-5f76322e6b69,rev?*
G04 #@! TF.SameCoordinates,Original*
G04 #@! TF.FileFunction,Legend,Bot*
G04 #@! TF.FilePolarity,Positive*
%FSLAX46Y46*%
G04 Gerber Fmt 4.6, Leading zero omitted, Abs format (unit mm)*
G04 Created by KiCad (PCBNEW 8.0.5) date 2025-01-03 21:24:17*
%MOMM*%
%LPD*%
G01*
G04 APERTURE LIST*
G04 Aperture macros list*
%AMRoundRect*
0 Rectangle with rounded corners*
0 $1 Rounding radius*
0 $2 $3 $4 $5 $6 $7 $8 $9 X,Y pos of 4 corners*
0 Add a 4 corners polygon primitive as box body*
4,1,4,$2,$3,$4,$5,$6,$7,$8,$9,$2,$3,0*
0 Add four circle primitives for the rounded corners*
1,1,$1+$1,$2,$3*
1,1,$1+$1,$4,$5*
1,1,$1+$1,$6,$7*
1,1,$1+$1,$8,$9*
0 Add four rect primitives between the rounded corners*
20,1,$1+$1,$2,$3,$4,$5,0*
20,1,$1+$1,$4,$5,$6,$7,0*
20,1,$1+$1,$6,$7,$8,$9,0*
20,1,$1+$1,$8,$9,$2,$3,0*%
%AMFreePoly0*
4,1,22,0.886777,1.280194,0.956366,1.224698,0.994986,1.144504,1.000000,1.100000,1.000000,-1.100000,0.980194,-1.186777,0.924698,-1.256366,0.844504,-1.294986,0.800000,-1.300000,-0.480000,-1.300000,-0.566777,-1.280194,-0.621421,-1.241421,-0.941421,-0.921421,-0.988777,-0.846056,-1.000000,-0.780000,-1.000000,1.100000,-0.980194,1.186777,-0.924698,1.256366,-0.844504,1.294986,-0.800000,1.300000,
0.800000,1.300000,0.886777,1.280194,0.886777,1.280194,$1*%
%AMFreePoly1*
4,1,22,0.686777,0.580194,0.756366,0.524698,0.794986,0.444504,0.800000,0.400000,0.800000,0.200000,0.780194,0.113223,0.741421,0.058579,0.141421,-0.541421,0.066056,-0.588777,-0.022393,-0.598742,-0.106406,-0.569345,-0.141421,-0.541421,-0.741421,0.058579,-0.788777,0.133944,-0.800000,0.200000,-0.800000,0.400000,-0.780193,0.486777,-0.724698,0.556366,-0.644504,0.594986,-0.600000,0.600000,
0.600000,0.600000,0.686777,0.580194,0.686777,0.580194,$1*%
%AMFreePoly2*
4,1,26,0.706406,1.169345,0.769345,1.106406,0.798742,1.022393,0.800000,1.000000,0.800000,-0.250000,0.780194,-0.336777,0.724699,-0.406366,0.644505,-0.444986,0.600000,-0.450000,-0.600000,-0.450000,-0.686777,-0.430194,-0.756366,-0.374698,-0.794986,-0.294504,-0.800000,-0.250000,-0.800000,1.000000,-0.780194,1.086777,-0.724698,1.156366,-0.644504,1.194986,-0.555496,1.194986,-0.475302,1.156366,
-0.458579,1.141421,0.000000,0.682842,0.458579,1.141421,0.533944,1.188778,0.622393,1.198742,0.706406,1.169345,0.706406,1.169345,$1*%
%AMFreePoly3*
4,1,292,0.206777,1.229994,0.276366,1.174498,0.314986,1.094304,0.320000,1.049800,0.320000,0.008200,0.319495,0.005987,0.319495,-1.866709,0.319486,-1.942235,0.319486,-1.942460,0.318928,-2.390763,0.318926,-2.391335,0.317383,-2.767014,0.317377,-2.767939,0.314675,-3.077389,0.314657,-3.078876,0.310622,-3.328489,0.310568,-3.330901,0.305029,-3.527071,0.304875,-3.531095,0.297657,-3.680215,
0.297195,-3.687212,0.288125,-3.795676,0.286622,-3.808584,0.275528,-3.882784,0.269972,-3.908365,0.256680,-3.954695,0.246330,-3.982691,0.240139,-3.996234,0.229057,-4.017117,0.167561,-4.118087,0.157692,-4.132784,0.062026,-4.262462,0.054482,-4.272060,-0.057455,-4.405866,-0.061018,-4.410009,-0.070960,-4.421254,-0.171727,-4.547475,-0.239381,-4.651468,-0.261422,-4.702806,-0.268448,-4.790209,
-0.275185,-4.947662,-0.279770,-5.144579,-0.281450,-5.361536,-0.281447,-5.385011,-0.280528,-5.604860,-0.277007,-5.754079,-0.270393,-5.838887,-0.268290,-5.848462,-0.224488,-5.894056,-0.171049,-5.977321,-0.142171,-6.051967,-0.122143,-6.170287,-0.120852,-6.228231,-0.135594,-6.347346,-0.162124,-6.424914,-0.212996,-6.510565,-0.274338,-6.575059,-0.308050,-6.593056,-0.393200,-6.628524,-0.459529,-6.643620,
-0.582275,-6.650118,-0.631318,-6.646663,-0.750780,-6.623247,-0.819367,-6.595916,-0.898997,-6.545453,-0.952252,-6.496101,-0.953444,-6.494503,-0.980620,-6.444550,-1.025271,-6.324319,-1.037078,-6.237909,-1.034553,-6.207928,-1.095319,-6.245365,-1.119612,-6.251953,-1.263243,-6.281341,-1.334401,-6.282972,-1.441733,-6.266095,-1.524379,-6.233050,-1.535526,-6.224760,-1.625648,-6.152737,-1.674999,-6.094737,
-1.708800,-6.034795,-1.731134,-5.973572,-1.756230,-5.840310,-1.752826,-5.751366,-1.751357,-5.746183,-1.721747,-5.646814,-1.786435,-5.670245,-1.797570,-5.671308,-1.925994,-5.679949,-2.013905,-5.666013,-2.017213,-5.664651,-2.152853,-5.607383,-2.223422,-5.557256,-2.286363,-5.487634,-2.329864,-5.409980,-2.331418,-5.403739,-1.483158,-5.403739,-1.355185,-5.371470,-1.321520,-5.365981,-1.296753,-5.364088,
-1.271925,-5.355039,-1.217781,-5.314195,-1.113600,-5.210504,-0.992406,-5.073003,-0.922095,-4.967193,-0.891918,-4.883182,-0.881171,-4.765871,-0.875626,-4.680694,-0.868608,-4.639640,-0.821297,-4.471082,-0.802138,-4.425469,-0.700510,-4.248647,-0.682044,-4.221835,-0.562810,-4.075770,-0.603069,-4.078811,-0.691091,-4.065597,-0.695126,-4.063965,-0.829973,-4.007718,-0.882942,-3.970058,-0.884544,-4.105830,
-0.885000,-4.117175,-0.898888,-4.319380,-0.902711,-4.346893,-0.935986,-4.504891,-0.949035,-4.545136,-1.009063,-4.679733,-1.028893,-4.714405,-1.123042,-4.846409,-1.137428,-4.864308,-1.273065,-5.014526,-1.276513,-5.018249,-1.287869,-5.030202,-1.395729,-5.154077,-1.436036,-5.218316,-1.445698,-5.259360,-1.451178,-5.311568,-1.471682,-5.381092,-1.483158,-5.403739,-2.331418,-5.403739,-2.333940,-5.393612,
-2.360039,-5.266091,-2.360039,-5.185886,-2.330712,-5.042597,-2.293908,-4.961554,-2.277054,-4.942143,-2.201588,-4.865752,-2.261402,-4.879975,-2.348652,-4.881156,-2.489497,-4.851669,-2.570374,-4.814501,-2.590504,-4.796763,-2.603049,-4.784116,-2.016632,-4.784116,-1.947691,-4.769658,-1.921784,-4.765974,-1.897996,-4.764167,-1.873068,-4.755114,-1.818842,-4.714263,-1.712135,-4.608103,-1.710532,-4.606403,
-1.610735,-4.492471,-1.536348,-4.394539,-1.509620,-4.348678,-1.496774,-4.253933,-1.486629,-4.104764,-1.484943,-4.030087,-1.521728,-4.066661,-1.663872,-4.210425,-1.771561,-4.327147,-1.827485,-4.398952,-1.841739,-4.426218,-1.846868,-4.455718,-1.849044,-4.466476,-1.880833,-4.604089,-1.919662,-4.684181,-1.933210,-4.699418,-2.016632,-4.784116,-2.603049,-4.784116,-2.677271,-4.709294,-2.724322,-4.633739,
-2.731172,-4.608776,-2.760623,-4.465732,-2.760769,-4.385781,-2.732270,-4.244767,-2.695666,-4.163633,-2.680108,-4.145462,-2.594432,-4.056733,-2.519907,-4.008065,-2.492843,-4.000178,-2.352971,-3.969921,-2.326052,-3.966765,-2.302641,-3.962426,-2.276550,-3.949146,-2.210815,-3.898611,-2.101881,-3.798678,-1.944546,-3.643569,-1.907849,-3.606777,-1.998584,-3.608265,-2.086361,-3.615506,-2.113472,-3.640814,
-2.190420,-3.685551,-2.195993,-3.687200,-2.285285,-3.712217,-2.328694,-3.719355,-2.443408,-3.725413,-2.478949,-3.724123,-2.588384,-3.710339,-2.648428,-3.692928,-2.721883,-3.658421,-2.792004,-3.603597,-2.794591,-3.600348,-2.808469,-3.582542,-2.842246,-3.517205,-2.871896,-3.418636,-2.880342,-3.357508,-2.878149,-3.232815,-2.869435,-3.177839,-2.834704,-3.064278,-2.812088,-3.015249,-2.804020,-3.002595,
-2.744226,-2.942329,-2.663376,-2.889881,-2.579901,-2.859285,-2.464107,-2.844477,-2.401736,-2.846314,-2.281469,-2.868955,-2.211215,-2.896693,-2.116941,-2.956591,-2.095419,-2.974395,-2.075454,-2.989291,-2.056638,-2.994994,-2.046805,-2.995889,-2.070491,-2.960773,-2.070904,-2.959695,-2.108494,-2.860796,-2.121279,-2.800020,-2.127521,-2.678750,-2.122913,-2.624593,-2.097809,-2.512950,-2.059448,-2.432632,
-2.058380,-2.431296,-2.001929,-2.361278,-1.932045,-2.306154,-1.911531,-2.297769,-1.812031,-2.263398,-1.738834,-2.252593,-1.594647,-2.258290,-1.508720,-2.281507,-1.504448,-2.283843,-1.384933,-2.351109,-1.358738,-2.368710,-1.337152,-2.385832,-1.317487,-2.393167,-1.240752,-2.402224,-1.085472,-2.405350,-1.078233,-2.405170,-1.107077,-2.378573,-1.139850,-2.295818,-1.141775,-2.278081,-1.154236,-2.081951,
-1.154606,-2.072859,-1.156502,-1.967207,-1.150610,-1.915302,-1.126324,-1.817749,-1.086141,-1.738328,-1.046755,-1.702089,-0.979056,-1.654814,-0.896569,-1.621370,-0.885058,-1.619844,-0.761116,-1.607067,-0.757791,-1.606753,-0.746558,-1.605784,-0.717431,-1.594755,-0.653273,-1.547006,-0.535915,-1.433820,-0.518656,-1.415993,-0.412858,-1.301079,-0.333107,-1.206106,-0.309939,-1.172922,-0.306469,-1.159605,
-0.293711,-1.047354,-0.284312,-0.875422,-0.280824,-0.666619,-0.282712,0.034061,-0.280000,0.046092,-0.280000,1.049800,-0.260194,1.136577,-0.204698,1.206166,-0.124504,1.244786,-0.080000,1.249800,0.120000,1.249800,0.206777,1.229994,0.206777,1.229994,$1*%
%AMFreePoly4*
4,1,332,0.216903,1.226394,0.286492,1.170898,0.325112,1.090704,0.330126,1.046200,0.330126,0.053880,0.332333,0.034041,0.330446,-0.641485,0.333256,-0.817119,0.341852,-0.991008,0.354077,-1.119624,0.362643,-1.162576,0.397195,-1.217294,0.480043,-1.321262,0.585725,-1.436349,0.661974,-1.511306,0.745305,-1.581782,0.780351,-1.600628,0.816226,-1.606236,0.855709,-1.608367,0.916305,-1.621245,
1.018029,-1.660105,1.092024,-1.709574,1.121528,-1.749879,1.172534,-1.841779,1.197328,-1.927265,1.197479,-1.930252,1.204078,-2.083860,1.203745,-2.106820,1.191281,-2.279776,1.165288,-2.364904,1.129225,-2.403994,1.173666,-2.405391,1.223573,-2.405255,1.373671,-2.401394,1.448171,-2.392642,1.465323,-2.386622,1.490349,-2.367250,1.499144,-2.360816,1.558427,-2.319886,1.616268,-2.292409,
1.736039,-2.257617,1.795103,-2.249705,1.918049,-2.251717,1.998400,-2.270011,2.089018,-2.311721,2.159564,-2.365996,2.168233,-2.377282,2.179017,-2.392405,2.207229,-2.449366,2.233861,-2.535376,2.241991,-2.576456,2.252651,-2.693916,2.253382,-2.717931,2.251655,-2.776071,2.247065,-2.813135,2.225093,-2.912935,2.195461,-2.975695,2.212494,-2.958198,2.289490,-2.904783,2.362073,-2.873447,
2.477989,-2.848910,2.531369,-2.844932,2.650838,-2.852090,2.724742,-2.871102,2.812396,-2.912770,2.882265,-2.967914,2.907895,-3.009099,2.941835,-3.082118,2.959271,-3.144555,2.971968,-3.260006,2.972232,-3.301190,2.960919,-3.417757,2.944419,-3.480107,2.909095,-3.559070,2.855580,-3.630194,2.824642,-3.651681,2.776780,-3.678625,2.716103,-3.700809,2.613675,-3.720326,2.575255,-3.723859,
2.458923,-3.723286,2.420925,-3.719452,2.321391,-3.699672,2.242209,-3.664868,2.226678,-3.653495,2.249568,-3.708190,2.262483,-3.753325,2.275714,-3.834758,2.276340,-3.894786,2.255370,-4.043353,2.251016,-4.059843,2.261336,-4.057503,2.405029,-4.053550,2.423479,-4.053894,2.607272,-4.065820,2.692585,-4.091203,2.758435,-4.151089,2.791780,-4.233615,2.793805,-4.251024,2.806269,-4.423981,
2.806736,-4.433904,2.808688,-4.521554,2.803411,-4.571859,2.775606,-4.689911,2.736433,-4.769835,2.707599,-4.798835,2.630832,-4.861660,2.551134,-4.901291,2.531391,-4.905022,2.396634,-4.923538,2.367519,-4.925391,2.352493,-4.925249,2.321484,-4.922534,2.294546,-4.918041,2.345556,-4.977430,2.387072,-5.056163,2.391784,-5.079151,2.411668,-5.216808,2.413676,-5.249681,2.412978,-5.282286,
2.408266,-5.321372,2.380906,-5.444549,2.342754,-5.524966,2.315925,-5.552945,2.240017,-5.618098,2.161269,-5.659587,2.137440,-5.664410,2.001028,-5.683476,1.971455,-5.685392,1.956951,-5.685255,1.923948,-5.682197,1.791737,-5.658772,1.709746,-5.624130,1.687090,-5.605118,1.615161,-5.535067,1.566814,-5.460335,1.557616,-5.425814,1.535881,-5.299923,1.533998,-5.280958,1.533090,-5.277310,
1.533100,-5.278989,1.537975,-5.407923,1.546049,-5.464506,1.546949,-5.466699,1.560605,-5.481756,1.576426,-5.501596,1.634693,-5.585018,1.668145,-5.667501,1.668563,-5.670193,1.688071,-5.801698,1.682547,-5.885969,1.643425,-6.022953,1.600550,-6.100955,1.596826,-6.105026,1.561415,-6.142690,1.487545,-6.192345,1.486564,-6.192720,1.387509,-6.230250,1.326898,-6.242961,1.205437,-6.249194,
1.151442,-6.244614,1.082920,-6.229254,1.081676,-6.301771,1.060958,-6.387044,1.004589,-6.500955,0.948350,-6.569945,0.933901,-6.580220,0.857650,-6.629504,0.787543,-6.657803,0.665751,-6.681668,0.584915,-6.680859,0.473708,-6.656748,0.415993,-6.629724,0.400586,-6.658754,0.394933,-6.665026,0.359522,-6.702690,0.285652,-6.752345,0.284671,-6.752720,0.185616,-6.790250,0.125005,-6.802961,
0.003544,-6.809194,-0.050452,-6.804614,-0.162271,-6.779549,-0.242614,-6.741242,-0.243814,-6.740285,-0.268198,-6.720687,-0.315294,-6.752345,-0.316275,-6.752720,-0.415330,-6.790250,-0.475941,-6.802961,-0.597402,-6.809194,-0.651397,-6.804614,-0.763217,-6.779549,-0.843561,-6.741242,-0.844763,-6.740284,-0.914891,-6.683922,-0.970122,-6.614122,-0.978575,-6.593515,-1.013000,-6.494172,-1.023868,-6.420766,
-1.018162,-6.276806,-0.994935,-6.190882,-0.992477,-6.186396,-0.925104,-6.067069,-0.903724,-6.036331,-0.891370,-6.021707,-0.890072,-6.018941,-0.882527,-5.981614,-0.875398,-5.887738,-0.871719,-5.731182,-0.870818,-5.503325,-0.870817,-5.503105,-0.869927,-5.326988,-0.869827,-5.321581,-0.862543,-5.094702,-0.861499,-5.079727,-0.853873,-5.008841,-0.260880,-5.008841,-0.250757,-5.118082,-0.182664,-5.265028,
-0.032771,-5.461496,0.009168,-5.510153,0.014500,-5.516608,0.119025,-5.648672,0.127203,-5.659770,0.205250,-5.773710,0.219630,-5.798292,0.256978,-5.874043,0.259707,-5.879806,0.280044,-5.924601,0.283266,-5.919104,0.302558,-5.891727,0.305210,-5.888563,0.317208,-5.858522,0.310754,-5.815815,0.250423,-5.704381,0.110971,-5.530276,0.036442,-5.444592,0.027944,-5.434129,-0.099383,-5.266107,
-0.111658,-5.246753,0.652054,-5.246753,0.732842,-5.349046,0.752387,-5.378939,0.849802,-5.561723,0.882643,-5.509562,0.905761,-5.479570,0.917107,-5.467427,0.924826,-5.420679,0.930495,-5.304719,0.931637,-5.162069,0.886595,-5.192346,0.885617,-5.192720,0.786563,-5.230250,0.725952,-5.242961,0.652054,-5.246753,-0.111658,-5.246753,-0.117198,-5.238019,-0.195936,-5.087503,-0.212368,-5.044802,
-0.239091,-4.941314,-0.260880,-5.008841,-0.853873,-5.008841,-0.842699,-4.904973,-0.837775,-4.877464,-0.810044,-4.767492,1.929028,-4.767492,1.940400,-4.777363,1.980579,-4.800138,2.016790,-4.806377,2.048565,-4.809884,2.049055,-4.809987,2.034161,-4.797214,2.013963,-4.774565,2.013402,-4.774389,1.934562,-4.767567,1.929028,-4.767492,-0.810044,-4.767492,-0.802541,-4.737737,-0.789993,-4.702371,
-0.733407,-4.580574,-0.717030,-4.551821,-0.634173,-4.430855,-0.622986,-4.416047,-0.508940,-4.278815,-0.506152,-4.275532,-0.504541,-4.273676,-0.406101,-4.155775,-0.327937,-4.054618,-0.302887,-4.017163,-0.302099,-4.013563,-0.294032,-3.925579,-0.286464,-3.770786,-0.280305,-3.552503,-0.275623,-3.268476,-0.272373,-2.915349,-0.271993,-2.829728,0.332029,-2.829728,0.339270,-2.984437,0.352076,-3.112266,
0.360925,-3.154360,0.378419,-3.181798,0.458433,-3.279847,0.578494,-3.414759,0.722334,-3.568542,0.876663,-3.727341,1.028514,-3.877808,1.164669,-4.006494,1.268831,-4.097556,1.310593,-4.127530,1.364956,-4.143570,1.451145,-4.154832,1.444522,-4.147382,1.401669,-4.069368,1.396370,-4.045227,1.377901,-3.926443,1.353356,-3.888438,1.272875,-3.790852,1.139773,-3.645237,0.953129,-3.451557,
0.710038,-3.206705,0.332029,-2.829728,-0.271993,-2.829728,-0.270485,-2.489954,-0.269874,-1.987786,-0.269874,1.046200,-0.250068,1.132977,-0.194572,1.202566,-0.114378,1.241186,-0.069874,1.246200,0.130126,1.246200,0.216903,1.226394,0.216903,1.226394,$1*%
G04 Aperture macros list end*
%ADD10C,1.360000*%
%ADD11C,0.150000*%
%ADD12C,0.120000*%
%ADD13C,0.200000*%
%ADD14C,0.178000*%
%ADD15C,0.000000*%
%ADD16C,0.100000*%
%ADD17C,2.300000*%
%ADD18C,3.400000*%
%ADD19C,2.000000*%
%ADD20C,5.450000*%
%ADD21FreePoly0,0.000000*%
%ADD22RoundRect,0.200000X-0.800000X-1.100000X0.800000X-1.100000X0.800000X1.100000X-0.800000X1.100000X0*%
%ADD23FreePoly0,2.000000*%
%ADD24RoundRect,0.200000X-0.761123X-1.127250X0.837902X-1.071410X0.761123X1.127250X-0.837902X1.071410X0*%
%ADD25FreePoly0,357.000000*%
%ADD26RoundRect,0.200000X-0.856473X-1.056624X0.741334X-1.140361X0.856473X1.056624X-0.741334X1.140361X0*%
%ADD27FreePoly0,345.000000*%
%ADD28RoundRect,0.200000X-1.057442X-0.855463X0.488040X-1.269574X1.057442X0.855463X-0.488040X1.269574X0*%
%ADD29FreePoly0,180.000000*%
%ADD30RoundRect,0.200000X0.800000X1.100000X-0.800000X1.100000X-0.800000X-1.100000X0.800000X-1.100000X0*%
%ADD31FreePoly0,352.500000*%
%ADD32RoundRect,0.200000X-0.936735X-0.986168X0.649577X-1.195010X0.936735X0.986168X-0.649577X1.195010X0*%
%ADD33FreePoly0,177.000000*%
%ADD34RoundRect,0.200000X0.856473X1.056624X-0.741334X1.140361X-0.856473X-1.056624X0.741334X-1.140361X0*%
%ADD35RoundRect,0.200000X-0.256961X0.586491X-0.515780X-0.379435X0.256961X-0.586491X0.515780X0.379435X0*%
%ADD36C,1.300000*%
%ADD37RoundRect,0.200000X-0.633858X0.532188X-0.815031X-0.143960X0.633858X-0.532188X0.815031X0.143960X0*%
%ADD38RoundRect,0.200000X0.700000X-0.600000X0.700000X0.600000X-0.700000X0.600000X-0.700000X-0.600000X0*%
%ADD39C,3.600000*%
%ADD40RoundRect,0.200000X-0.700000X0.600000X-0.700000X-0.600000X0.700000X-0.600000X0.700000X0.600000X0*%
%ADD41C,2.500000*%
%ADD42FreePoly1,187.500000*%
%ADD43FreePoly1,7.500000*%
%ADD44FreePoly2,187.500000*%
%ADD45FreePoly2,7.500000*%
%ADD46C,2.200000*%
%ADD47C,4.200000*%
%ADD48RoundRect,0.326924X1.548076X-0.523076X1.548076X0.523076X-1.548076X0.523076X-1.548076X-0.523076X0*%
%ADD49RoundRect,0.300000X0.850000X-0.300000X0.850000X0.300000X-0.850000X0.300000X-0.850000X-0.300000X0*%
%ADD50FreePoly3,180.000000*%
%ADD51RoundRect,0.229000X-0.606000X-0.057250X0.606000X-0.057250X0.606000X0.057250X-0.606000X0.057250X0*%
%ADD52RoundRect,0.229000X-1.171000X-0.057250X1.171000X-0.057250X1.171000X0.057250X-1.171000X0.057250X0*%
%ADD53RoundRect,0.229000X-0.208500X-0.057250X0.208500X-0.057250X0.208500X0.057250X-0.208500X0.057250X0*%
%ADD54FreePoly4,180.000000*%
%ADD55RoundRect,0.200000X0.444900X0.697899X-0.249111X0.789268X-0.444900X-0.697899X0.249111X-0.789268X0*%
%ADD56RoundRect,0.200000X0.547933X0.331315X-0.443512X0.461841X-0.547933X-0.331315X0.443512X-0.461841X0*%
G04 APERTURE END LIST*
D10*
X96337918Y-123376142D02*
G75*
G02*
X94977918Y-123376142I-680000J0D01*
G01*
X94977918Y-123376142D02*
G75*
G02*
X96337918Y-123376142I680000J0D01*
G01*
D11*
X130248387Y-119267282D02*
X130135887Y-118367282D01*
X129734101Y-119267282D02*
X130055530Y-118752996D01*
X129621601Y-118367282D02*
X130200173Y-118881567D01*
X129348387Y-119267282D02*
X129273387Y-118667282D01*
X129294816Y-118838710D02*
X129241244Y-118752996D01*
X129241244Y-118752996D02*
X129193030Y-118710139D01*
X129193030Y-118710139D02*
X129101958Y-118667282D01*
X129101958Y-118667282D02*
X129016244Y-118667282D01*
X128443030Y-119224425D02*
X128534101Y-119267282D01*
X128534101Y-119267282D02*
X128705530Y-119267282D01*
X128705530Y-119267282D02*
X128785887Y-119224425D01*
X128785887Y-119224425D02*
X128818030Y-119138710D01*
X128818030Y-119138710D02*
X128775173Y-118795853D01*
X128775173Y-118795853D02*
X128721601Y-118710139D01*
X128721601Y-118710139D02*
X128630530Y-118667282D01*
X128630530Y-118667282D02*
X128459101Y-118667282D01*
X128459101Y-118667282D02*
X128378744Y-118710139D01*
X128378744Y-118710139D02*
X128346601Y-118795853D01*
X128346601Y-118795853D02*
X128357315Y-118881567D01*
X128357315Y-118881567D02*
X128796601Y-118967282D01*
X128073386Y-118667282D02*
X127730529Y-118667282D01*
X127907315Y-118367282D02*
X128003744Y-119138710D01*
X128003744Y-119138710D02*
X127971601Y-119224425D01*
X127971601Y-119224425D02*
X127891244Y-119267282D01*
X127891244Y-119267282D02*
X127805529Y-119267282D01*
X127543029Y-119224425D02*
X127462672Y-119267282D01*
X127462672Y-119267282D02*
X127291243Y-119267282D01*
X127291243Y-119267282D02*
X127200172Y-119224425D01*
X127200172Y-119224425D02*
X127146600Y-119138710D01*
X127146600Y-119138710D02*
X127141243Y-119095853D01*
X127141243Y-119095853D02*
X127173386Y-119010139D01*
X127173386Y-119010139D02*
X127253743Y-118967282D01*
X127253743Y-118967282D02*
X127382315Y-118967282D01*
X127382315Y-118967282D02*
X127462672Y-118924425D01*
X127462672Y-118924425D02*
X127494815Y-118838710D01*
X127494815Y-118838710D02*
X127489458Y-118795853D01*
X127489458Y-118795853D02*
X127435886Y-118710139D01*
X127435886Y-118710139D02*
X127344815Y-118667282D01*
X127344815Y-118667282D02*
X127216243Y-118667282D01*
X127216243Y-118667282D02*
X127135886Y-118710139D01*
X126830529Y-118667282D02*
X126487672Y-118667282D01*
X126664458Y-118367282D02*
X126760887Y-119138710D01*
X126760887Y-119138710D02*
X126728744Y-119224425D01*
X126728744Y-119224425D02*
X126648387Y-119267282D01*
X126648387Y-119267282D02*
X126562672Y-119267282D01*
X126262672Y-119267282D02*
X126187672Y-118667282D01*
X126209101Y-118838710D02*
X126155529Y-118752996D01*
X126155529Y-118752996D02*
X126107315Y-118710139D01*
X126107315Y-118710139D02*
X126016243Y-118667282D01*
X126016243Y-118667282D02*
X125930529Y-118667282D01*
X125319815Y-119267282D02*
X125260886Y-118795853D01*
X125260886Y-118795853D02*
X125293029Y-118710139D01*
X125293029Y-118710139D02*
X125373386Y-118667282D01*
X125373386Y-118667282D02*
X125544815Y-118667282D01*
X125544815Y-118667282D02*
X125635886Y-118710139D01*
X125314458Y-119224425D02*
X125405529Y-119267282D01*
X125405529Y-119267282D02*
X125619815Y-119267282D01*
X125619815Y-119267282D02*
X125700172Y-119224425D01*
X125700172Y-119224425D02*
X125732315Y-119138710D01*
X125732315Y-119138710D02*
X125721600Y-119052996D01*
X125721600Y-119052996D02*
X125668029Y-118967282D01*
X125668029Y-118967282D02*
X125576958Y-118924425D01*
X125576958Y-118924425D02*
X125362672Y-118924425D01*
X125362672Y-118924425D02*
X125271600Y-118881567D01*
X125593029Y-118367282D02*
X125555529Y-118410139D01*
X125555529Y-118410139D02*
X125603743Y-118452996D01*
X125603743Y-118452996D02*
X125641243Y-118410139D01*
X125641243Y-118410139D02*
X125593029Y-118367282D01*
X125593029Y-118367282D02*
X125603743Y-118452996D01*
X125250172Y-118367282D02*
X125212672Y-118410139D01*
X125212672Y-118410139D02*
X125260886Y-118452996D01*
X125260886Y-118452996D02*
X125298386Y-118410139D01*
X125298386Y-118410139D02*
X125250172Y-118367282D01*
X125250172Y-118367282D02*
X125260886Y-118452996D01*
X124505529Y-119267282D02*
X124393029Y-118367282D01*
X124500172Y-119224425D02*
X124591243Y-119267282D01*
X124591243Y-119267282D02*
X124762672Y-119267282D01*
X124762672Y-119267282D02*
X124843029Y-119224425D01*
X124843029Y-119224425D02*
X124880529Y-119181567D01*
X124880529Y-119181567D02*
X124912672Y-119095853D01*
X124912672Y-119095853D02*
X124880529Y-118838710D01*
X124880529Y-118838710D02*
X124826957Y-118752996D01*
X124826957Y-118752996D02*
X124778743Y-118710139D01*
X124778743Y-118710139D02*
X124687672Y-118667282D01*
X124687672Y-118667282D02*
X124516243Y-118667282D01*
X124516243Y-118667282D02*
X124435886Y-118710139D01*
X123401957Y-118667282D02*
X123262672Y-119267282D01*
X123262672Y-119267282D02*
X122973386Y-118667282D01*
X122646600Y-118452996D02*
X122598386Y-118410139D01*
X122598386Y-118410139D02*
X122507315Y-118367282D01*
X122507315Y-118367282D02*
X122293029Y-118367282D01*
X122293029Y-118367282D02*
X122212672Y-118410139D01*
X122212672Y-118410139D02*
X122175172Y-118452996D01*
X122175172Y-118452996D02*
X122143029Y-118538710D01*
X122143029Y-118538710D02*
X122153743Y-118624425D01*
X122153743Y-118624425D02*
X122212672Y-118752996D01*
X122212672Y-118752996D02*
X122791243Y-119267282D01*
X122791243Y-119267282D02*
X122234100Y-119267282D01*
X121837672Y-119181567D02*
X121800172Y-119224425D01*
X121800172Y-119224425D02*
X121848386Y-119267282D01*
X121848386Y-119267282D02*
X121885886Y-119224425D01*
X121885886Y-119224425D02*
X121837672Y-119181567D01*
X121837672Y-119181567D02*
X121848386Y-119267282D01*
X120948386Y-119267282D02*
X121462672Y-119267282D01*
X121205529Y-119267282D02*
X121093029Y-118367282D01*
X121093029Y-118367282D02*
X121194815Y-118495853D01*
X121194815Y-118495853D02*
X121291244Y-118581567D01*
X121291244Y-118581567D02*
X121382315Y-118624425D01*
X130248387Y-120716232D02*
X130135887Y-119816232D01*
X130135887Y-119816232D02*
X129793030Y-119816232D01*
X129793030Y-119816232D02*
X129712673Y-119859089D01*
X129712673Y-119859089D02*
X129675173Y-119901946D01*
X129675173Y-119901946D02*
X129643030Y-119987660D01*
X129643030Y-119987660D02*
X129659101Y-120116232D01*
X129659101Y-120116232D02*
X129712673Y-120201946D01*
X129712673Y-120201946D02*
X129760887Y-120244803D01*
X129760887Y-120244803D02*
X129851958Y-120287660D01*
X129851958Y-120287660D02*
X130194816Y-120287660D01*
X128823387Y-120630517D02*
X128871601Y-120673375D01*
X128871601Y-120673375D02*
X129005530Y-120716232D01*
X129005530Y-120716232D02*
X129091244Y-120716232D01*
X129091244Y-120716232D02*
X129214458Y-120673375D01*
X129214458Y-120673375D02*
X129289458Y-120587660D01*
X129289458Y-120587660D02*
X129321601Y-120501946D01*
X129321601Y-120501946D02*
X129343030Y-120330517D01*
X129343030Y-120330517D02*
X129326958Y-120201946D01*
X129326958Y-120201946D02*
X129262673Y-120030517D01*
X129262673Y-120030517D02*
X129209101Y-119944803D01*
X129209101Y-119944803D02*
X129112673Y-119859089D01*
X129112673Y-119859089D02*
X128978744Y-119816232D01*
X128978744Y-119816232D02*
X128893030Y-119816232D01*
X128893030Y-119816232D02*
X128769816Y-119859089D01*
X128769816Y-119859089D02*
X128732316Y-119901946D01*
X128089458Y-120244803D02*
X127966244Y-120287660D01*
X127966244Y-120287660D02*
X127928744Y-120330517D01*
X127928744Y-120330517D02*
X127896601Y-120416232D01*
X127896601Y-120416232D02*
X127912673Y-120544803D01*
X127912673Y-120544803D02*
X127966244Y-120630517D01*
X127966244Y-120630517D02*
X128014458Y-120673375D01*
X128014458Y-120673375D02*
X128105530Y-120716232D01*
X128105530Y-120716232D02*
X128448387Y-120716232D01*
X128448387Y-120716232D02*
X128335887Y-119816232D01*
X128335887Y-119816232D02*
X128035887Y-119816232D01*
X128035887Y-119816232D02*
X127955530Y-119859089D01*
X127955530Y-119859089D02*
X127918030Y-119901946D01*
X127918030Y-119901946D02*
X127885887Y-119987660D01*
X127885887Y-119987660D02*
X127896601Y-120073375D01*
X127896601Y-120073375D02*
X127950173Y-120159089D01*
X127950173Y-120159089D02*
X127998387Y-120201946D01*
X127998387Y-120201946D02*
X128089458Y-120244803D01*
X128089458Y-120244803D02*
X128389458Y-120244803D01*
X126862673Y-120716232D02*
X126750173Y-119816232D01*
X126793030Y-120159089D02*
X126701959Y-120116232D01*
X126701959Y-120116232D02*
X126530530Y-120116232D01*
X126530530Y-120116232D02*
X126450173Y-120159089D01*
X126450173Y-120159089D02*
X126412673Y-120201946D01*
X126412673Y-120201946D02*
X126380530Y-120287660D01*
X126380530Y-120287660D02*
X126412673Y-120544803D01*
X126412673Y-120544803D02*
X126466244Y-120630517D01*
X126466244Y-120630517D02*
X126514459Y-120673375D01*
X126514459Y-120673375D02*
X126605530Y-120716232D01*
X126605530Y-120716232D02*
X126776959Y-120716232D01*
X126776959Y-120716232D02*
X126857316Y-120673375D01*
X126059101Y-120116232D02*
X125919816Y-120716232D01*
X125630530Y-120116232D02*
X125919816Y-120716232D01*
X125919816Y-120716232D02*
X126032316Y-120930517D01*
X126032316Y-120930517D02*
X126080530Y-120973375D01*
X126080530Y-120973375D02*
X126171601Y-121016232D01*
X124601959Y-120116232D02*
X124698388Y-120887660D01*
X124698388Y-120887660D02*
X124751959Y-120973375D01*
X124751959Y-120973375D02*
X124843030Y-121016232D01*
X124843030Y-121016232D02*
X124885888Y-121016232D01*
X124564459Y-119816232D02*
X124612673Y-119859089D01*
X124612673Y-119859089D02*
X124575173Y-119901946D01*
X124575173Y-119901946D02*
X124526959Y-119859089D01*
X124526959Y-119859089D02*
X124564459Y-119816232D01*
X124564459Y-119816232D02*
X124575173Y-119901946D01*
X124259102Y-120116232D02*
X124162674Y-120716232D01*
X124162674Y-120716232D02*
X123937674Y-120287660D01*
X123937674Y-120287660D02*
X123819817Y-120716232D01*
X123819817Y-120716232D02*
X123573388Y-120116232D01*
X151383951Y-104776133D02*
X150622047Y-104776133D01*
X151002999Y-104395180D02*
X151002999Y-105157085D01*
X176372688Y-111588537D02*
X175406763Y-111329718D01*
X175406763Y-111329718D02*
X175308165Y-111697689D01*
X175308165Y-111697689D02*
X175329512Y-111802007D01*
X175329512Y-111802007D02*
X175363184Y-111860328D01*
X175363184Y-111860328D02*
X175442852Y-111930974D01*
X175442852Y-111930974D02*
X175580841Y-111967948D01*
X175580841Y-111967948D02*
X175685159Y-111946601D01*
X175685159Y-111946601D02*
X175743480Y-111912929D01*
X175743480Y-111912929D02*
X175814126Y-111833261D01*
X175814126Y-111833261D02*
X175912724Y-111465289D01*
X175172593Y-112203650D02*
X176076895Y-112692452D01*
X176076895Y-112692452D02*
X175337649Y-112691567D01*
X175337649Y-112691567D02*
X175978298Y-113060424D01*
X175978298Y-113060424D02*
X174950748Y-113031587D01*
X175670180Y-114210335D02*
X175296488Y-113765113D01*
X175818076Y-113658378D02*
X174852150Y-113399559D01*
X174852150Y-113399559D02*
X174753553Y-113767530D01*
X174753553Y-113767530D02*
X174774900Y-113871848D01*
X174774900Y-113871848D02*
X174808571Y-113930169D01*
X174808571Y-113930169D02*
X174888240Y-114000815D01*
X174888240Y-114000815D02*
X175026229Y-114037789D01*
X175026229Y-114037789D02*
X175130547Y-114016442D01*
X175130547Y-114016442D02*
X175188868Y-113982770D01*
X175188868Y-113982770D02*
X175259514Y-113903102D01*
X175259514Y-113903102D02*
X175358112Y-113535130D01*
X175712874Y-114418970D02*
X175515678Y-115154914D01*
X175328390Y-115301926D02*
X175337412Y-115452240D01*
X175337412Y-115452240D02*
X175275789Y-115682222D01*
X175275789Y-115682222D02*
X175205143Y-115761891D01*
X175205143Y-115761891D02*
X175146822Y-115795562D01*
X175146822Y-115795562D02*
X175042504Y-115816909D01*
X175042504Y-115816909D02*
X174950511Y-115792260D01*
X174950511Y-115792260D02*
X174870843Y-115721614D01*
X174870843Y-115721614D02*
X174837171Y-115663293D01*
X174837171Y-115663293D02*
X174815824Y-115558975D01*
X174815824Y-115558975D02*
X174819126Y-115362665D01*
X174819126Y-115362665D02*
X174797779Y-115258347D01*
X174797779Y-115258347D02*
X174764108Y-115200026D01*
X174764108Y-115200026D02*
X174684439Y-115129380D01*
X174684439Y-115129380D02*
X174592446Y-115104730D01*
X174592446Y-115104730D02*
X174488129Y-115126077D01*
X174488129Y-115126077D02*
X174429808Y-115159749D01*
X174429808Y-115159749D02*
X174359162Y-115239417D01*
X174359162Y-115239417D02*
X174297538Y-115469400D01*
X174297538Y-115469400D02*
X174306560Y-115619714D01*
X174174291Y-115929365D02*
X175078593Y-116418166D01*
X175078593Y-116418166D02*
X174339347Y-116417281D01*
X174339347Y-116417281D02*
X174979995Y-116786138D01*
X174979995Y-116786138D02*
X173952446Y-116757301D01*
X174973391Y-117178759D02*
X174776195Y-117914702D01*
X173867706Y-118361457D02*
X174511656Y-118534004D01*
X173561357Y-118032877D02*
X174312928Y-117987766D01*
X174312928Y-117987766D02*
X174152707Y-118585720D01*
X105460390Y-88008681D02*
X105460390Y-90608681D01*
X105460390Y-88008681D02*
X106485390Y-86983681D01*
X109035390Y-86983681D02*
X106485390Y-86983681D01*
X114060390Y-89083681D02*
X111460390Y-89083681D01*
X114060390Y-93733681D02*
X111460390Y-93733681D01*
X115060390Y-90083681D02*
X115060390Y-92733681D01*
X114060390Y-89083681D02*
G75*
G02*
X115060390Y-90083681I0J-1000000D01*
G01*
X115060390Y-92733681D02*
G75*
G02*
X114060390Y-93733681I-1000000J0D01*
G01*
X123760190Y-68208681D02*
X123760190Y-70808681D01*
X123760190Y-68208681D02*
X124785190Y-67183681D01*
X127335190Y-67183681D02*
X124785190Y-67183681D01*
X132360190Y-69283681D02*
X129760190Y-69283681D01*
X132360190Y-73933681D02*
X129760190Y-73933681D01*
X133360190Y-70283681D02*
X133360190Y-72933681D01*
X132360190Y-69283681D02*
G75*
G02*
X133360190Y-70283681I0J-1000000D01*
G01*
X133360190Y-72933681D02*
G75*
G02*
X132360190Y-73933681I-1000000J0D01*
G01*
X105460390Y-71008681D02*
X105460390Y-73608681D01*
X105460390Y-71008681D02*
X106485390Y-69983681D01*
X109035390Y-69983681D02*
X106485390Y-69983681D01*
X114060390Y-72083681D02*
X111460390Y-72083681D01*
X114060390Y-76733681D02*
X111460390Y-76733681D01*
X115060390Y-73083681D02*
X115060390Y-75733681D01*
X114060390Y-72083681D02*
G75*
G02*
X115060390Y-73083681I0J-1000000D01*
G01*
X115060390Y-75733681D02*
G75*
G02*
X114060390Y-76733681I-1000000J0D01*
G01*
X123760190Y-85208681D02*
X123760190Y-87808681D01*
X123760190Y-85208681D02*
X124785190Y-84183681D01*
X127335190Y-84183681D02*
X124785190Y-84183681D01*
X132360190Y-86283681D02*
X129760190Y-86283681D01*
X132360190Y-90933681D02*
X129760190Y-90933681D01*
X133360190Y-87283681D02*
X133360190Y-89933681D01*
X132360190Y-86283681D02*
G75*
G02*
X133360190Y-87283681I0J-1000000D01*
G01*
X133360190Y-89933681D02*
G75*
G02*
X132360190Y-90933681I-1000000J0D01*
G01*
X105460390Y-52808681D02*
X105460390Y-55408681D01*
X105460390Y-52808681D02*
X106485390Y-51783681D01*
X109035390Y-51783681D02*
X106485390Y-51783681D01*
X114060390Y-53883681D02*
X111460390Y-53883681D01*
X114060390Y-58533681D02*
X111460390Y-58533681D01*
X115060390Y-54883681D02*
X115060390Y-57533681D01*
X114060390Y-53883681D02*
G75*
G02*
X115060390Y-54883681I0J-1000000D01*
G01*
X115060390Y-57533681D02*
G75*
G02*
X114060390Y-58533681I-1000000J0D01*
G01*
X86110706Y-91892647D02*
X86201445Y-94491063D01*
X86110706Y-91892647D02*
X87099310Y-90832500D01*
X89647756Y-90743506D02*
X87099310Y-90832500D01*
X94742984Y-92666857D02*
X92144568Y-92757595D01*
X94905267Y-97314024D02*
X92306851Y-97404763D01*
X95777275Y-93631348D02*
X95869758Y-96279734D01*
X94742984Y-92666857D02*
G75*
G02*
X95777275Y-93631348I34900J-999391D01*
G01*
X95869758Y-96279734D02*
G75*
G02*
X94905267Y-97314024I-999391J-34899D01*
G01*
X143062634Y-52883444D02*
X142926560Y-55479881D01*
X143062634Y-52883444D02*
X144139873Y-51913493D01*
X146686379Y-52046950D02*
X144139873Y-51913493D01*
X151594587Y-54407060D02*
X148998150Y-54270987D01*
X151351224Y-59050688D02*
X148754788Y-58914614D01*
X152540880Y-55458026D02*
X152402190Y-58104394D01*
X151594587Y-54407060D02*
G75*
G02*
X152540881Y-55458026I-52336J-998630D01*
G01*
X152402190Y-58104394D02*
G75*
G02*
X151351224Y-59050688I-998630J52336D01*
G01*
X166852392Y-116358850D02*
X166179462Y-118870257D01*
X166852392Y-116358850D02*
X168107755Y-115634065D01*
X170570866Y-116294054D02*
X168107755Y-115634065D01*
X174881123Y-119623064D02*
X172369716Y-118950134D01*
X173677615Y-124114619D02*
X171166208Y-123441689D01*
X175588230Y-120847809D02*
X174902360Y-123407512D01*
X174881123Y-119623064D02*
G75*
G02*
X175588230Y-120847809I-258819J-965926D01*
G01*
X174902360Y-123407512D02*
G75*
G02*
X173677615Y-124114619I-965926J258819D01*
G01*
X123760190Y-51208681D02*
X123760190Y-53808681D01*
X123760190Y-51208681D02*
X124785190Y-50183681D01*
X127335190Y-50183681D02*
X124785190Y-50183681D01*
X132360190Y-52283681D02*
X129760190Y-52283681D01*
X132360190Y-56933681D02*
X129760190Y-56933681D01*
X133360190Y-53283681D02*
X133360190Y-55933681D01*
X132360190Y-52283681D02*
G75*
G02*
X133360190Y-53283681I0J-1000000D01*
G01*
X133360190Y-55933681D02*
G75*
G02*
X132360190Y-56933681I-1000000J0D01*
G01*
X142681283Y-86910319D02*
X142545209Y-89506756D01*
X142681283Y-86910319D02*
X143758522Y-85940368D01*
X146305028Y-86073825D02*
X143758522Y-85940368D01*
X151213236Y-88433935D02*
X148616799Y-88297862D01*
X150969873Y-93077563D02*
X148373437Y-92941489D01*
X152159529Y-89484901D02*
X152020839Y-92131269D01*
X151213236Y-88433935D02*
G75*
G02*
X152159530Y-89484901I-52336J-998630D01*
G01*
X152020839Y-92131269D02*
G75*
G02*
X150969873Y-93077563I-998630J52336D01*
G01*
X142921885Y-69899598D02*
X142785811Y-72496035D01*
X142921885Y-69899598D02*
X143999124Y-68929647D01*
X146545630Y-69063104D02*
X143999124Y-68929647D01*
X151453838Y-71423214D02*
X148857401Y-71287141D01*
X151210475Y-76066842D02*
X148614039Y-75930768D01*
X152400131Y-72474180D02*
X152261441Y-75120548D01*
X151453838Y-71423214D02*
G75*
G02*
X152400132Y-72474180I-52336J-998630D01*
G01*
X152261441Y-75120548D02*
G75*
G02*
X151210475Y-76066842I-998630J52336D01*
G01*
X86100236Y-74592830D02*
X86190975Y-77191246D01*
X86100236Y-74592830D02*
X87088840Y-73532683D01*
X89637286Y-73443689D02*
X87088840Y-73532683D01*
X94732514Y-75367040D02*
X92134098Y-75457778D01*
X94894797Y-80014207D02*
X92296381Y-80104946D01*
X95766805Y-76331531D02*
X95859288Y-78979917D01*
X94732514Y-75367040D02*
G75*
G02*
X95766805Y-76331531I34900J-999391D01*
G01*
X95859288Y-78979917D02*
G75*
G02*
X94894797Y-80014207I-999391J-34899D01*
G01*
X91732590Y-71108681D02*
X91732590Y-68508681D01*
X91732590Y-71108681D02*
X90707590Y-72133681D01*
X88157590Y-72133681D02*
X90707590Y-72133681D01*
X83132590Y-70033681D02*
X85732590Y-70033681D01*
X83132590Y-65383681D02*
X85732590Y-65383681D01*
X82132590Y-69033681D02*
X82132590Y-66383681D01*
X83132590Y-70033681D02*
G75*
G02*
X82132590Y-69033681I0J1000000D01*
G01*
X82132590Y-66383681D02*
G75*
G02*
X83132590Y-65383681I1000000J0D01*
G01*
X160692252Y-92900750D02*
X160556178Y-95497187D01*
X160692252Y-92900750D02*
X161769491Y-91930799D01*
X164315997Y-92064256D02*
X161769491Y-91930799D01*
X169224205Y-94424366D02*
X166627768Y-94288293D01*
X168980842Y-99067994D02*
X166384406Y-98931920D01*
X170170498Y-95475332D02*
X170031808Y-98121700D01*
X169224205Y-94424366D02*
G75*
G02*
X170170499Y-95475332I-52336J-998630D01*
G01*
X170031808Y-98121700D02*
G75*
G02*
X168980842Y-99067994I-998630J52336D01*
G01*
X146467079Y-112628511D02*
X146127711Y-115206268D01*
X146467079Y-112628511D02*
X147617099Y-111746069D01*
X150145283Y-112078911D02*
X147617099Y-111746069D01*
X154853189Y-114816840D02*
X152275432Y-114477472D01*
X154246242Y-119427058D02*
X151668485Y-119087690D01*
X155714107Y-115938811D02*
X155368213Y-118566140D01*
X154853189Y-114816840D02*
G75*
G02*
X155714107Y-115938811I-130526J-991444D01*
G01*
X155368213Y-118566140D02*
G75*
G02*
X154246242Y-119427058I-991445J130527D01*
G01*
X165484866Y-73525023D02*
X165620940Y-70928586D01*
X165484866Y-73525023D02*
X164407627Y-74494974D01*
X161861121Y-74361517D02*
X164407627Y-74494974D01*
X156952913Y-72001407D02*
X159549350Y-72137480D01*
X157196276Y-67357779D02*
X159792712Y-67493853D01*
X156006620Y-70950441D02*
X156145310Y-68304073D01*
X156952913Y-72001407D02*
G75*
G02*
X156006619Y-70950441I52336J998630D01*
G01*
X156145310Y-68304073D02*
G75*
G02*
X157196276Y-67357779I998630J-52336D01*
G01*
X161382237Y-75913581D02*
X161246163Y-78510018D01*
X161382237Y-75913581D02*
X162459476Y-74943630D01*
X165005982Y-75077087D02*
X162459476Y-74943630D01*
X169914190Y-77437197D02*
X167317753Y-77301124D01*
X169670827Y-82080825D02*
X167074391Y-81944751D01*
X170860483Y-78488163D02*
X170721793Y-81134531D01*
X169914190Y-77437197D02*
G75*
G02*
X170860484Y-78488163I-52336J-998630D01*
G01*
X170721793Y-81134531D02*
G75*
G02*
X169670827Y-82080825I-998630J52336D01*
G01*
D12*
X179676044Y-112648680D02*
X178912963Y-112444213D01*
X179021069Y-118995420D02*
X180496338Y-113489642D01*
X176979933Y-115601489D02*
X177419926Y-113959415D01*
X181367095Y-115224111D02*
X180121050Y-114890235D01*
X181518175Y-115471649D02*
X181367095Y-115224111D01*
X181285238Y-116340982D02*
X181518175Y-115471649D01*
X181285238Y-116340982D02*
X181030630Y-116479815D01*
X179784586Y-116145938D02*
X181030630Y-116479815D01*
X176591705Y-117050378D02*
X176643468Y-116857193D01*
X177127111Y-119109101D02*
X177890193Y-119313568D01*
D13*
X171719790Y-84755881D02*
X169319790Y-84755881D01*
X169319790Y-90755881D01*
X171719790Y-90755881D01*
X171719790Y-84755881D01*
X171719790Y-90755881D02*
X169319790Y-90755881D01*
X169319790Y-90197481D01*
X171719790Y-90197481D01*
X171719790Y-90755881D01*
G36*
X171719790Y-90755881D02*
G01*
X169319790Y-90755881D01*
X169319790Y-90197481D01*
X171719790Y-90197481D01*
X171719790Y-90755881D01*
G37*
X135397790Y-74478281D02*
X132997790Y-74478281D01*
X132997790Y-80478281D01*
X135397790Y-80478281D01*
X135397790Y-74478281D01*
X135397790Y-80478281D02*
X132997790Y-80478281D01*
X132997790Y-79919881D01*
X135397790Y-79919881D01*
X135397790Y-80478281D01*
G36*
X135397790Y-80478281D02*
G01*
X132997790Y-80478281D01*
X132997790Y-79919881D01*
X135397790Y-79919881D01*
X135397790Y-80478281D01*
G37*
X98961390Y-80234681D02*
X96561390Y-80234681D01*
X96561390Y-86234681D01*
X98961390Y-86234681D01*
X98961390Y-80234681D01*
X98961390Y-86234681D02*
X96561390Y-86234681D01*
X96561390Y-85676281D01*
X98961390Y-85676281D01*
X98961390Y-86234681D01*
G36*
X98961390Y-86234681D02*
G01*
X96561390Y-86234681D01*
X96561390Y-85676281D01*
X98961390Y-85676281D01*
X98961390Y-86234681D01*
G37*
X117462190Y-94137881D02*
X115062190Y-94137881D01*
X115062190Y-100137881D01*
X117462190Y-100137881D01*
X117462190Y-94137881D01*
X117462190Y-100137881D02*
X115062190Y-100137881D01*
X115062190Y-99579481D01*
X117462190Y-99579481D01*
X117462190Y-100137881D01*
G36*
X117462190Y-100137881D02*
G01*
X115062190Y-100137881D01*
X115062190Y-99579481D01*
X117462190Y-99579481D01*
X117462190Y-100137881D01*
G37*
X117462190Y-77221481D02*
X115062190Y-77221481D01*
X115062190Y-83221481D01*
X117462190Y-83221481D01*
X117462190Y-77221481D01*
X117462190Y-83221481D02*
X115062190Y-83221481D01*
X115062190Y-82663081D01*
X117462190Y-82663081D01*
X117462190Y-83221481D01*
G36*
X117462190Y-83221481D02*
G01*
X115062190Y-83221481D01*
X115062190Y-82663081D01*
X117462190Y-82663081D01*
X117462190Y-83221481D01*
G37*
X153279390Y-79656681D02*
X150879390Y-79656681D01*
X150879390Y-85656681D01*
X153279390Y-85656681D01*
X153279390Y-79656681D01*
X153279390Y-85656681D02*
X150879390Y-85656681D01*
X150879390Y-85098281D01*
X153279390Y-85098281D01*
X153279390Y-85656681D01*
G36*
X153279390Y-85656681D02*
G01*
X150879390Y-85656681D01*
X150879390Y-85098281D01*
X153279390Y-85098281D01*
X153279390Y-85656681D01*
G37*
X156733790Y-60117881D02*
X154333790Y-60117881D01*
X154333790Y-66117881D01*
X156733790Y-66117881D01*
X156733790Y-60117881D01*
X156733790Y-66117881D02*
X154333790Y-66117881D01*
X154333790Y-65559481D01*
X156733790Y-65559481D01*
X156733790Y-66117881D01*
G36*
X156733790Y-66117881D02*
G01*
X154333790Y-66117881D01*
X154333790Y-65559481D01*
X156733790Y-65559481D01*
X156733790Y-66117881D01*
G37*
X157216390Y-120468281D02*
X154816390Y-120468281D01*
X154816390Y-126468281D01*
X157216390Y-126468281D01*
X157216390Y-120468281D01*
X157216390Y-126468281D02*
X154816390Y-126468281D01*
X154816390Y-125909881D01*
X157216390Y-125909881D01*
X157216390Y-126468281D01*
G36*
X157216390Y-126468281D02*
G01*
X154816390Y-126468281D01*
X154816390Y-125909881D01*
X157216390Y-125909881D01*
X157216390Y-126468281D01*
G37*
X157838990Y-126524681D02*
X160238990Y-126524681D01*
X160238990Y-120524681D01*
X157838990Y-120524681D01*
X157838990Y-126524681D01*
X160238990Y-121083081D02*
X157838990Y-121083081D01*
X157838990Y-120524681D01*
X160238990Y-120524681D01*
X160238990Y-121083081D01*
G36*
X160238990Y-121083081D02*
G01*
X157838990Y-121083081D01*
X157838990Y-120524681D01*
X160238990Y-120524681D01*
X160238990Y-121083081D01*
G37*
X98961390Y-97405081D02*
X96561390Y-97405081D01*
X96561390Y-103405081D01*
X98961390Y-103405081D01*
X98961390Y-97405081D01*
X98961390Y-103405081D02*
X96561390Y-103405081D01*
X96561390Y-102846681D01*
X98961390Y-102846681D01*
X98961390Y-103405081D01*
G36*
X98961390Y-103405081D02*
G01*
X96561390Y-103405081D01*
X96561390Y-102846681D01*
X98961390Y-102846681D01*
X98961390Y-103405081D01*
G37*
D11*
X83940492Y-111654493D02*
X84071018Y-112645938D01*
X83940492Y-111654493D02*
X84931937Y-111523966D01*
X86263858Y-129302211D02*
X86139858Y-128360339D01*
X86263858Y-129302211D02*
X87255303Y-129171685D01*
X103608973Y-109065088D02*
X104649993Y-108928035D01*
X104649993Y-108928035D02*
X104780517Y-109919480D01*
X105981912Y-126706280D02*
X106973357Y-126575754D01*
X106973357Y-126575754D02*
X106841525Y-125574395D01*
D13*
X117462190Y-59021481D02*
X115062190Y-59021481D01*
X115062190Y-65021481D01*
X117462190Y-65021481D01*
X117462190Y-59021481D01*
X117462190Y-65021481D02*
X115062190Y-65021481D01*
X115062190Y-64463081D01*
X117462190Y-64463081D01*
X117462190Y-65021481D01*
G36*
X117462190Y-65021481D02*
G01*
X115062190Y-65021481D01*
X115062190Y-64463081D01*
X117462190Y-64463081D01*
X117462190Y-65021481D01*
G37*
X135397790Y-91445481D02*
X132997790Y-91445481D01*
X132997790Y-97445481D01*
X135397790Y-97445481D01*
X135397790Y-91445481D01*
X135397790Y-97445481D02*
X132997790Y-97445481D01*
X132997790Y-96887081D01*
X135397790Y-96887081D01*
X135397790Y-97445481D01*
G36*
X135397790Y-97445481D02*
G01*
X132997790Y-97445481D01*
X132997790Y-96887081D01*
X135397790Y-96887081D01*
X135397790Y-97445481D01*
G37*
X135397790Y-57714281D02*
X132997790Y-57714281D01*
X132997790Y-63714281D01*
X135397790Y-63714281D01*
X135397790Y-57714281D01*
X135397790Y-63714281D02*
X132997790Y-63714281D01*
X132997790Y-63155881D01*
X135397790Y-63155881D01*
X135397790Y-63714281D01*
G36*
X135397790Y-63714281D02*
G01*
X132997790Y-63714281D01*
X132997790Y-63155881D01*
X135397790Y-63155881D01*
X135397790Y-63714281D01*
G37*
X153279390Y-62657881D02*
X150879390Y-62657881D01*
X150879390Y-68657881D01*
X153279390Y-68657881D01*
X153279390Y-62657881D01*
X153279390Y-68657881D02*
X150879390Y-68657881D01*
X150879390Y-68099481D01*
X153279390Y-68099481D01*
X153279390Y-68657881D01*
G36*
X153279390Y-68657881D02*
G01*
X150879390Y-68657881D01*
X150879390Y-68099481D01*
X153279390Y-68099481D01*
X153279390Y-68657881D01*
G37*
X153279390Y-96456681D02*
X150879390Y-96456681D01*
X150879390Y-102456681D01*
X153279390Y-102456681D01*
X153279390Y-96456681D01*
X153279390Y-102456681D02*
X150879390Y-102456681D01*
X150879390Y-101898281D01*
X153279390Y-101898281D01*
X153279390Y-102456681D01*
G36*
X153279390Y-102456681D02*
G01*
X150879390Y-102456681D01*
X150879390Y-101898281D01*
X153279390Y-101898281D01*
X153279390Y-102456681D01*
G37*
X171719790Y-101723081D02*
X169319790Y-101723081D01*
X169319790Y-107723081D01*
X171719790Y-107723081D01*
X171719790Y-101723081D01*
X171719790Y-107723081D02*
X169319790Y-107723081D01*
X169319790Y-107164681D01*
X171719790Y-107164681D01*
X171719790Y-107723081D01*
G36*
X171719790Y-107723081D02*
G01*
X169319790Y-107723081D01*
X169319790Y-107164681D01*
X171719790Y-107164681D01*
X171719790Y-107723081D01*
G37*
X98961390Y-59059081D02*
X96561390Y-59059081D01*
X96561390Y-65059081D01*
X98961390Y-65059081D01*
X98961390Y-59059081D01*
X98961390Y-65059081D02*
X96561390Y-65059081D01*
X96561390Y-64500681D01*
X98961390Y-64500681D01*
X98961390Y-65059081D01*
G36*
X98961390Y-65059081D02*
G01*
X96561390Y-65059081D01*
X96561390Y-64500681D01*
X98961390Y-64500681D01*
X98961390Y-65059081D01*
G37*
D12*
X150231000Y-110890000D02*
X150231000Y-108240000D01*
X150231000Y-108240000D02*
X151621000Y-108240000D01*
X150231000Y-103020000D02*
X150231000Y-105670000D01*
X147731000Y-110890000D02*
X150231000Y-110890000D01*
X147731000Y-103020000D02*
X150231000Y-103020000D01*
X145111000Y-108370000D02*
X145111000Y-105540000D01*
X145111000Y-105540000D02*
X144111000Y-105140000D01*
X144111000Y-109520000D02*
X144111000Y-108770000D01*
X144111000Y-108770000D02*
X145111000Y-108370000D01*
X144111000Y-105140000D02*
X144111000Y-104390000D01*
D14*
X114584797Y-120116600D02*
X114584797Y-121539000D01*
X114584797Y-121539000D02*
X115479397Y-121539000D01*
X117607397Y-120065800D02*
X117607397Y-121539000D01*
X117607397Y-121539000D02*
X116729397Y-121539400D01*
D15*
G36*
X114607236Y-113077747D02*
G01*
X114654009Y-113094831D01*
X114769917Y-113136117D01*
X114942112Y-113196984D01*
X115160193Y-113273788D01*
X115413760Y-113362888D01*
X115692413Y-113460639D01*
X115985751Y-113563400D01*
X116283374Y-113667525D01*
X116574881Y-113769374D01*
X116849873Y-113865302D01*
X117097948Y-113951666D01*
X117308706Y-114024824D01*
X117471747Y-114081132D01*
X117702110Y-114160347D01*
X117702110Y-115146003D01*
X117501795Y-115146003D01*
X117501479Y-114293003D01*
X116810549Y-114053205D01*
X116685936Y-114009975D01*
X116374283Y-113901973D01*
X116035342Y-113784638D01*
X115702338Y-113669470D01*
X115408498Y-113567968D01*
X114697378Y-113322528D01*
X114697378Y-115146003D01*
X114497063Y-115146003D01*
X114497063Y-113034983D01*
X114607236Y-113077747D01*
G37*
D12*
X151574570Y-128996133D02*
X151471454Y-129779374D01*
X150744757Y-130702418D02*
X145093519Y-129958419D01*
X149877451Y-127713643D02*
X148191994Y-127491748D01*
X149307161Y-130513155D02*
X149138783Y-131792119D01*
X149138783Y-131792119D02*
X148913083Y-131974217D01*
X148913083Y-131974217D02*
X148020783Y-131856744D01*
X147849904Y-131622435D02*
X148020783Y-131856744D01*
X147849904Y-131622435D02*
X148018284Y-130343472D01*
X146903115Y-127322064D02*
X146704827Y-127295959D01*
X144630485Y-128878744D02*
X144733601Y-128095502D01*
%LPC*%
D16*
X87756130Y-115406955D02*
X86748822Y-115539569D01*
X86616207Y-114532261D01*
X87623515Y-114399647D01*
X87756130Y-115406955D01*
G36*
X87756130Y-115406955D02*
G01*
X86748822Y-115539569D01*
X86616207Y-114532261D01*
X87623515Y-114399647D01*
X87756130Y-115406955D01*
G37*
X89112845Y-125712231D02*
X88105537Y-125844846D01*
X87972923Y-124837538D01*
X88980231Y-124704923D01*
X89112845Y-125712231D01*
G36*
X89112845Y-125712231D02*
G01*
X88105537Y-125844846D01*
X87972923Y-124837538D01*
X88980231Y-124704923D01*
X89112845Y-125712231D01*
G37*
X89438017Y-115185530D02*
X88430709Y-115318145D01*
X88298094Y-114310837D01*
X89305402Y-114178222D01*
X89438017Y-115185530D01*
G36*
X89438017Y-115185530D02*
G01*
X88430709Y-115318145D01*
X88298094Y-114310837D01*
X89305402Y-114178222D01*
X89438017Y-115185530D01*
G37*
X90794732Y-125490806D02*
X89787424Y-125623421D01*
X89654810Y-124616113D01*
X90662118Y-124483498D01*
X90794732Y-125490806D01*
G36*
X90794732Y-125490806D02*
G01*
X89787424Y-125623421D01*
X89654810Y-124616113D01*
X90662118Y-124483498D01*
X90794732Y-125490806D01*
G37*
X91119904Y-114964106D02*
X90112596Y-115096720D01*
X89979981Y-114089412D01*
X90987289Y-113956798D01*
X91119904Y-114964106D01*
G36*
X91119904Y-114964106D02*
G01*
X90112596Y-115096720D01*
X89979981Y-114089412D01*
X90987289Y-113956798D01*
X91119904Y-114964106D01*
G37*
X92476619Y-125269382D02*
X91469311Y-125401996D01*
X91336697Y-124394688D01*
X92344005Y-124262074D01*
X92476619Y-125269382D01*
G36*
X92476619Y-125269382D02*
G01*
X91469311Y-125401996D01*
X91336697Y-124394688D01*
X92344005Y-124262074D01*
X92476619Y-125269382D01*
G37*
X96983111Y-114192200D02*
X95975803Y-114324814D01*
X95843188Y-113317506D01*
X96850496Y-113184892D01*
X96983111Y-114192200D01*
G36*
X96983111Y-114192200D02*
G01*
X95975803Y-114324814D01*
X95843188Y-113317506D01*
X96850496Y-113184892D01*
X96983111Y-114192200D01*
G37*
X98339826Y-124497476D02*
X97332518Y-124630091D01*
X97199903Y-123622783D01*
X98207211Y-123490168D01*
X98339826Y-124497476D01*
G36*
X98339826Y-124497476D02*
G01*
X97332518Y-124630091D01*
X97199903Y-123622783D01*
X98207211Y-123490168D01*
X98339826Y-124497476D01*
G37*
X98665295Y-113970736D02*
X97657987Y-114103351D01*
X97525373Y-113096043D01*
X98532681Y-112963428D01*
X98665295Y-113970736D01*
G36*
X98665295Y-113970736D02*
G01*
X97657987Y-114103351D01*
X97525373Y-113096043D01*
X98532681Y-112963428D01*
X98665295Y-113970736D01*
G37*
X100022010Y-124276012D02*
X99014703Y-124408627D01*
X98882088Y-123401319D01*
X99889396Y-123268704D01*
X100022010Y-124276012D01*
G36*
X100022010Y-124276012D02*
G01*
X99014703Y-124408627D01*
X98882088Y-123401319D01*
X99889396Y-123268704D01*
X100022010Y-124276012D01*
G37*
X100347480Y-113749272D02*
X99340172Y-113881887D01*
X99207557Y-112874579D01*
X100214865Y-112741964D01*
X100347480Y-113749272D01*
G36*
X100347480Y-113749272D02*
G01*
X99340172Y-113881887D01*
X99207557Y-112874579D01*
X100214865Y-112741964D01*
X100347480Y-113749272D01*
G37*
X101704195Y-124054548D02*
X100696887Y-124187163D01*
X100564272Y-123179855D01*
X101571580Y-123047240D01*
X101704195Y-124054548D01*
G36*
X101704195Y-124054548D02*
G01*
X100696887Y-124187163D01*
X100564272Y-123179855D01*
X101571580Y-123047240D01*
X101704195Y-124054548D01*
G37*
X102370027Y-113482999D02*
X101362719Y-113615613D01*
X101230105Y-112608305D01*
X102237413Y-112475691D01*
X102370027Y-113482999D01*
G36*
X102370027Y-113482999D02*
G01*
X101362719Y-113615613D01*
X101230105Y-112608305D01*
X102237413Y-112475691D01*
X102370027Y-113482999D01*
G37*
X103726743Y-123788275D02*
X102719435Y-123920892D01*
X102586820Y-122913582D01*
X103594128Y-122780967D01*
X103726743Y-123788275D01*
G36*
X103726743Y-123788275D02*
G01*
X102719435Y-123920892D01*
X102586820Y-122913582D01*
X103594128Y-122780967D01*
X103726743Y-123788275D01*
G37*
D17*
X102246390Y-95208681D03*
D18*
X102746390Y-91408681D03*
D19*
X102746390Y-100358681D03*
D18*
X107746390Y-89308681D03*
D20*
X107746390Y-95208681D03*
D18*
X112746390Y-91408681D03*
D19*
X112746390Y-100358681D03*
D17*
X113246390Y-95208681D03*
D21*
X104946390Y-89308681D03*
D22*
X115546390Y-91408681D03*
D17*
X120546190Y-75408681D03*
D18*
X121046190Y-71608681D03*
D19*
X121046190Y-80558681D03*
D18*
X126046190Y-69508681D03*
D20*
X126046190Y-75408681D03*
D18*
X131046190Y-71608681D03*
D19*
X131046190Y-80558681D03*
D17*
X131546190Y-75408681D03*
D21*
X123246190Y-69508681D03*
D22*
X133846190Y-71608681D03*
D17*
X102246390Y-78208681D03*
D18*
X102746390Y-74408681D03*
D19*
X102746390Y-83358681D03*
D18*
X107746390Y-72308681D03*
D20*
X107746390Y-78208681D03*
D18*
X112746390Y-74408681D03*
D19*
X112746390Y-83358681D03*
D17*
X113246390Y-78208681D03*
D21*
X104946390Y-72308681D03*
D22*
X115546390Y-74408681D03*
D17*
X120546190Y-92408681D03*
D18*
X121046190Y-88608681D03*
D19*
X121046190Y-97558681D03*
D18*
X126046190Y-86508681D03*
D20*
X126046190Y-92408681D03*
D18*
X131046190Y-88608681D03*
D19*
X131046190Y-97558681D03*
D17*
X131546190Y-92408681D03*
D21*
X123246190Y-86508681D03*
D22*
X133846190Y-88608681D03*
D17*
X102246390Y-60008681D03*
D18*
X102746390Y-56208681D03*
D19*
X102746390Y-65158681D03*
D18*
X107746390Y-54108681D03*
D20*
X107746390Y-60008681D03*
D18*
X112746390Y-56208681D03*
D19*
X112746390Y-65158681D03*
D17*
X113246390Y-60008681D03*
D21*
X104946390Y-54108681D03*
D22*
X115546390Y-56208681D03*
D17*
X83149940Y-99200428D03*
D18*
X83517018Y-95385293D03*
D19*
X83829368Y-104329841D03*
D18*
X88440683Y-93112075D03*
D20*
X88646590Y-99008481D03*
D18*
X93510926Y-95036298D03*
D19*
X93823277Y-103980846D03*
D17*
X94143240Y-98816534D03*
D23*
X85642389Y-93209794D03*
D24*
X96309220Y-94938580D03*
D17*
X139476220Y-59905369D03*
D18*
X140174411Y-56136745D03*
D19*
X139706004Y-65074479D03*
D18*
X145277464Y-54301303D03*
D20*
X144968682Y-60193217D03*
D18*
X150160706Y-56660105D03*
D19*
X149692299Y-65597839D03*
D17*
X150461144Y-60481065D03*
D25*
X142481301Y-54154762D03*
D26*
X152956869Y-56806645D03*
D17*
X161884409Y-122481671D03*
D18*
X163350884Y-118940563D03*
D19*
X161034454Y-127585599D03*
D18*
X168724033Y-118206214D03*
D20*
X167197001Y-123905176D03*
D18*
X173010143Y-121528753D03*
D19*
X170693712Y-130173789D03*
D17*
X172509593Y-125328681D03*
D27*
X166019441Y-117481520D03*
D28*
X175714735Y-122253446D03*
D17*
X120546190Y-58408681D03*
D18*
X121046190Y-54608681D03*
D19*
X121046190Y-63558681D03*
D18*
X126046190Y-52508681D03*
D20*
X126046190Y-58408681D03*
D18*
X131046190Y-54608681D03*
D19*
X131046190Y-63558681D03*
D17*
X131546190Y-58408681D03*
D21*
X123246190Y-52508681D03*
D22*
X133846190Y-54608681D03*
D17*
X139094869Y-93932244D03*
D18*
X139793060Y-90163620D03*
D19*
X139324653Y-99101354D03*
D18*
X144896113Y-88328178D03*
D20*
X144587331Y-94220092D03*
D18*
X149779355Y-90686980D03*
D19*
X149310948Y-99624714D03*
D17*
X150079793Y-94507940D03*
D25*
X142099950Y-88181637D03*
D26*
X152575518Y-90833520D03*
D17*
X139335471Y-76921523D03*
D18*
X140033662Y-73152899D03*
D19*
X139565255Y-82090633D03*
D18*
X145136715Y-71317457D03*
D20*
X144827933Y-77209371D03*
D18*
X150019957Y-73676259D03*
D19*
X149551550Y-82613993D03*
D17*
X150320395Y-77497219D03*
D25*
X142340552Y-71170916D03*
D26*
X152816120Y-73822799D03*
D17*
X83139470Y-81900611D03*
D18*
X83506548Y-78085476D03*
D19*
X83818898Y-87030024D03*
D18*
X88430213Y-75812258D03*
D20*
X88636120Y-81708664D03*
D18*
X93500456Y-77736481D03*
D19*
X93812807Y-86681029D03*
D17*
X94132770Y-81516717D03*
D23*
X85631919Y-75909977D03*
D24*
X96298750Y-77638763D03*
D17*
X94946590Y-63908681D03*
D18*
X94446590Y-67708681D03*
D19*
X94446590Y-58758681D03*
D18*
X89446590Y-69808681D03*
D20*
X89446590Y-63908681D03*
D18*
X84446590Y-67708681D03*
D19*
X84446590Y-58758681D03*
D17*
X83946590Y-63908681D03*
D29*
X92246590Y-69808681D03*
D30*
X81646590Y-67708681D03*
D17*
X157105838Y-99922675D03*
D18*
X157804029Y-96154051D03*
D19*
X157335622Y-105091785D03*
D18*
X162907082Y-94318609D03*
D20*
X162598300Y-100210523D03*
D18*
X167790324Y-96677411D03*
D19*
X167321917Y-105615145D03*
D17*
X168090762Y-100498371D03*
D25*
X160110919Y-94172068D03*
D26*
X170586487Y-96823951D03*
D17*
X142340786Y-119347403D03*
D18*
X143332508Y-115645176D03*
D19*
X142164299Y-124518607D03*
D18*
X148563838Y-114215772D03*
D20*
X147793733Y-120065297D03*
D18*
X153246957Y-116950437D03*
D19*
X152078747Y-125823869D03*
D17*
X153246680Y-120783191D03*
D31*
X145787792Y-113850299D03*
D32*
X156023002Y-117315911D03*
D17*
X169071280Y-66503098D03*
D18*
X168373089Y-70271722D03*
D19*
X168841496Y-61333988D03*
D18*
X163270036Y-72107164D03*
D20*
X163578818Y-66215250D03*
D18*
X158386794Y-69748362D03*
D19*
X158855201Y-60810628D03*
D17*
X158086356Y-65927402D03*
D33*
X166066199Y-72253705D03*
D34*
X155590631Y-69601822D03*
D17*
X157795823Y-82935506D03*
D18*
X158494014Y-79166882D03*
D19*
X158025607Y-88104616D03*
D18*
X163597067Y-77331440D03*
D20*
X163288285Y-83223354D03*
D18*
X168480309Y-79690242D03*
D19*
X168011902Y-88627976D03*
D17*
X168780747Y-83511202D03*
D25*
X160800904Y-77184899D03*
D26*
X171276472Y-79836782D03*
D35*
X178278919Y-112067266D03*
X180413615Y-112639256D03*
D36*
X178794636Y-114431296D03*
X178018179Y-117329073D03*
D35*
X176389540Y-119118524D03*
X178524236Y-119690515D03*
D37*
X177288721Y-113251330D03*
X176512264Y-116149107D03*
X176124035Y-117597996D03*
D36*
X178018179Y-117329073D03*
X178794636Y-114431296D03*
D38*
X170519790Y-89255481D03*
X170519790Y-85855481D03*
X134197790Y-78977881D03*
X134197790Y-75577881D03*
D39*
X101025390Y-106656281D03*
D38*
X97761390Y-84734281D03*
X97761390Y-81334281D03*
X116262190Y-98637481D03*
X116262190Y-95237481D03*
X116262190Y-81721081D03*
X116262190Y-78321081D03*
D36*
X149589042Y-129138185D03*
X146614708Y-128746607D03*
D38*
X152079390Y-84156281D03*
X152079390Y-80756281D03*
X155533790Y-64617481D03*
X155533790Y-61217481D03*
D39*
X159054800Y-114147600D03*
D38*
X156016390Y-124967881D03*
X156016390Y-121567881D03*
D40*
X159038990Y-122025081D03*
X159038990Y-125425081D03*
D38*
X97761390Y-101904681D03*
X97761390Y-98504681D03*
D41*
X88850169Y-127608944D03*
X91368439Y-127277407D03*
X93886709Y-126945871D03*
X96404979Y-126614334D03*
X101441518Y-125951261D03*
X103959790Y-125619724D03*
X98923248Y-126282797D03*
D42*
X88576038Y-125526711D03*
X90257925Y-125305287D03*
X91939812Y-125083862D03*
X97803018Y-124311956D03*
X99485203Y-124090492D03*
X103189935Y-123602755D03*
X101167387Y-123869028D03*
D43*
X99744365Y-113060099D03*
X87153015Y-114717781D03*
X88834902Y-114496357D03*
X90516789Y-114274932D03*
X96379996Y-113503026D03*
X98062180Y-113281562D03*
X101766912Y-112793825D03*
D41*
X96951964Y-111309404D03*
X86878884Y-112635549D03*
X89397154Y-112304012D03*
X91915424Y-111972476D03*
X94433694Y-111640939D03*
X99470234Y-110977866D03*
X101988507Y-110646329D03*
D44*
X88443423Y-124519403D03*
X90125310Y-124297979D03*
X91807197Y-124076554D03*
X97670404Y-123304648D03*
X99352588Y-123083183D03*
X101034773Y-122861723D03*
X103057320Y-122595447D03*
D45*
X101899527Y-113801133D03*
X99876979Y-114067405D03*
X98194795Y-114288870D03*
X96512610Y-114510334D03*
X90649404Y-115282240D03*
X88967517Y-115503664D03*
X87285630Y-115725089D03*
D39*
X97164590Y-53468681D03*
D38*
X116262190Y-63521081D03*
X116262190Y-60121081D03*
X134197790Y-95945081D03*
X134197790Y-92545081D03*
D46*
X95657918Y-123376142D03*
D38*
X134197790Y-62213881D03*
X134197790Y-58813881D03*
D39*
X156397390Y-54586281D03*
D47*
X133604000Y-119888000D03*
D46*
X94550195Y-114962146D03*
D38*
X152079390Y-67157481D03*
X152079390Y-63757481D03*
X152079390Y-100956281D03*
X152079390Y-97556281D03*
D47*
X111363786Y-122815980D03*
D38*
X170519790Y-106222681D03*
X170519790Y-102822681D03*
X97761390Y-63558681D03*
X97761390Y-60158681D03*
D48*
X145796000Y-103480000D03*
X145796000Y-110430000D03*
D49*
X150671000Y-106330000D03*
X150671000Y-107580000D03*
D50*
X116419397Y-121589800D03*
D51*
X116078000Y-123561277D03*
D52*
X116078000Y-123190000D03*
D53*
X116072603Y-123901200D03*
D54*
X115829397Y-121589800D03*
D55*
X146100850Y-126903769D03*
X147588018Y-127099558D03*
X150562352Y-127491137D03*
D56*
X144339522Y-129556564D03*
X144627986Y-127365471D03*
D36*
X146614708Y-128746607D03*
X149589042Y-129138185D03*
D56*
X151865533Y-128318312D03*
X151577070Y-130509405D03*
%LPD*%
M02*
