M48
; DRILL file {KiCad 8.0.5} date 2025-01-03T21:24:15+0800
; FORMAT={-:-/ absolute / metric / decimal}
; #@! TF.CreationDate,2025-01-03T21:24:15+08:00
; #@! TF.GenerationSoftware,Kicad,Pcbnew,8.0.5
; #@! TF.FileFunction,NonPlated,1,2,NPTH
FMAT,2
METRIC
; #@! TA.AperFunction,NonPlated,NPTH,ComponentDrill
T1C0.900
; #@! TA.AperFunction,NonPlated,NPTH,ComponentDrill
T2C1.600
; #@! TA.AperFunction,NonPlated,NPTH,ComponentDrill
T3C1.900
; #@! TA.AperFunction,NonPlated,NPTH,ComponentDrill
T4C3.000
; #@! TA.AperFunction,NonPlated,NPTH,ComponentDrill
T5C3.200
; #@! TA.AperFunction,NonPlated,NPTH,ComponentDrill
T6C5.050
%
G90
G05
T1
X146.615Y-128.747
X146.615Y-128.747
X149.589Y-129.138
X149.589Y-129.138
X178.018Y-117.329
X178.018Y-117.329
X178.795Y-114.431
X178.795Y-114.431
T2
X83.819Y-87.03
X83.829Y-104.33
X84.447Y-58.759
X93.813Y-86.681
X93.823Y-103.981
X94.447Y-58.759
X102.746Y-65.159
X102.746Y-83.359
X102.746Y-100.359
X112.746Y-65.159
X112.746Y-83.359
X112.746Y-100.359
X121.046Y-63.559
X121.046Y-80.559
X121.046Y-97.559
X131.046Y-63.559
X131.046Y-80.559
X131.046Y-97.559
X139.325Y-99.101
X139.565Y-82.091
X139.706Y-65.074
X142.164Y-124.519
X149.311Y-99.625
X149.552Y-82.614
X149.692Y-65.598
X152.079Y-125.824
X157.336Y-105.092
X158.026Y-88.105
X158.855Y-60.811
X161.034Y-127.586
X167.322Y-105.615
X168.012Y-88.628
X168.841Y-61.334
X170.694Y-130.174
T3
X83.139Y-81.901
X83.15Y-99.2
X83.947Y-63.909
X94.133Y-81.517
X94.143Y-98.817
X94.947Y-63.909
X102.246Y-60.009
X102.246Y-78.209
X102.246Y-95.209
X113.246Y-60.009
X113.246Y-78.209
X113.246Y-95.209
X120.546Y-58.409
X120.546Y-75.409
X120.546Y-92.409
X131.546Y-58.409
X131.546Y-75.409
X131.546Y-92.409
X139.095Y-93.932
X139.335Y-76.922
X139.476Y-59.905
X142.341Y-119.347
X150.08Y-94.508
X150.32Y-77.497
X150.461Y-60.481
X153.247Y-120.783
X157.106Y-99.923
X157.796Y-82.936
X158.086Y-65.927
X161.884Y-122.482
X168.091Y-100.498
X168.781Y-83.511
X169.071Y-66.503
X172.51Y-125.329
T4
X83.507Y-78.085
X83.517Y-95.385
X84.447Y-67.709
X88.43Y-75.812
X88.441Y-93.112
X89.447Y-69.809
X93.5Y-77.736
X93.511Y-95.036
X94.447Y-67.709
X102.746Y-56.209
X102.746Y-74.409
X102.746Y-91.409
X107.746Y-54.109
X107.746Y-72.309
X107.746Y-89.309
X112.746Y-56.209
X112.746Y-74.409
X112.746Y-91.409
X121.046Y-54.609
X121.046Y-71.609
X121.046Y-88.609
X126.046Y-52.509
X126.046Y-69.509
X126.046Y-86.509
X131.046Y-54.609
X131.046Y-71.609
X131.046Y-88.609
X139.793Y-90.164
X140.034Y-73.153
X140.174Y-56.137
X143.333Y-115.645
X144.896Y-88.328
X145.137Y-71.317
X145.277Y-54.301
X148.564Y-114.216
X149.779Y-90.687
X150.02Y-73.676
X150.161Y-56.66
X153.247Y-116.95
X157.804Y-96.154
X158.387Y-69.748
X158.494Y-79.167
X162.907Y-94.319
X163.27Y-72.107
X163.351Y-118.941
X163.597Y-77.331
X167.79Y-96.677
X168.373Y-70.272
X168.48Y-79.69
X168.724Y-118.206
X173.01Y-121.529
T5
X97.165Y-53.469
X101.025Y-106.656
X156.397Y-54.586
X159.055Y-114.148
T6
X88.636Y-81.709
X88.647Y-99.008
X89.447Y-63.909
X107.746Y-60.009
X107.746Y-78.209
X107.746Y-95.209
X126.046Y-58.409
X126.046Y-75.409
X126.046Y-92.409
X144.587Y-94.22
X144.828Y-77.209
X144.969Y-60.193
X147.794Y-120.065
X162.598Y-100.211
X163.288Y-83.223
X163.579Y-66.215
X167.197Y-123.905
M30
