G04 #@! TF.GenerationSoftware,KiCad,Pcbnew,9.0.2*
G04 #@! TF.CreationDate,2025-07-12T22:53:40+08:00*
G04 #@! TF.ProjectId,Kretstr_d_v2,4b726574-7374-472e-9464-5f76322e6b69,rev?*
G04 #@! TF.SameCoordinates,Original*
G04 #@! TF.FileFunction,Profile,NP*
%FSLAX46Y46*%
G04 Gerber Fmt 4.6, Leading zero omitted, Abs format (unit mm)*
G04 Created by KiCad (PCBNEW 9.0.2) date 2025-07-12 22:53:40*
%MOMM*%
%LPD*%
G01*
G04 APERTURE LIST*
G04 #@! TA.AperFunction,Profile*
%ADD10C,0.150000*%
G04 #@! TD*
G04 APERTURE END LIST*
D10*
X173921421Y-57736723D02*
G75*
G02*
X175999184Y-60936714I-1227521J-3071577D01*
G01*
X155355476Y-131931736D02*
G75*
G02*
X155637721Y-131987876I-287176J-2181364D01*
G01*
X174467182Y-106815818D02*
G75*
G02*
X173653403Y-105695731I284718J1062518D01*
G01*
X86725379Y-129817020D02*
G75*
G02*
X84256948Y-127922077I-287179J2181120D01*
G01*
X81323053Y-109872410D02*
G75*
G02*
X78838886Y-107806372I-287153J2181210D01*
G01*
X136330473Y-120246946D02*
G75*
G02*
X133962946Y-122614473I-2726473J358946D01*
G01*
X137850720Y-129627192D02*
X155355476Y-131931736D01*
X175999112Y-60936711D02*
X173653391Y-105695730D01*
X175386358Y-135001901D02*
G75*
G02*
X172691912Y-136557562I-2125058J569401D01*
G01*
X105872489Y-106147146D02*
G75*
G02*
X107855543Y-103886080I1982911J261046D01*
G01*
X81382851Y-109864537D02*
X81323053Y-109872410D01*
X77140078Y-59158343D02*
X78838905Y-107806371D01*
X136739905Y-103888465D02*
G75*
G02*
X138722630Y-106149517I-205J-2000035D01*
G01*
X155637721Y-131987877D02*
X172691919Y-136557536D01*
X81943863Y-110295205D02*
X84256922Y-127922080D01*
X133962946Y-122614473D02*
X111722733Y-125542453D01*
X180246269Y-108364319D02*
X174467182Y-106815818D01*
X138195027Y-106084252D02*
X136330473Y-120246946D01*
X137850720Y-129627192D02*
G75*
G02*
X135956703Y-127158855I287180J2181192D01*
G01*
X111722733Y-125542453D02*
G75*
G02*
X108637346Y-123174923I-358933J2726453D01*
G01*
X107874261Y-104386094D02*
X136707982Y-104388463D01*
X136707982Y-104388463D02*
G75*
G02*
X138195094Y-106084261I18J-1499937D01*
G01*
X79638590Y-55348281D02*
G75*
G02*
X173921423Y-57736720I44281010J-114107819D01*
G01*
X136739905Y-103888465D02*
X107855543Y-103886093D01*
X108348334Y-124953047D02*
X105872489Y-106147146D01*
X180246269Y-108364319D02*
G75*
G02*
X181801929Y-111058765I-569269J-2124981D01*
G01*
X106386970Y-106081883D02*
X108637313Y-123174927D01*
X108348334Y-124953047D02*
G75*
G02*
X106626501Y-127197028I-1982934J-261053D01*
G01*
X175386358Y-135001901D02*
X181801904Y-111058758D01*
X135956700Y-127158855D02*
X138722631Y-106149517D01*
X86725379Y-129817020D02*
X106626496Y-127196988D01*
X81382851Y-109864537D02*
G75*
G02*
X81943883Y-110295202I65249J-495763D01*
G01*
X77140078Y-59158343D02*
G75*
G02*
X79638574Y-55348241I3987322J109543D01*
G01*
X106386970Y-106081883D02*
G75*
G02*
X107874261Y-104386138I1487130J195783D01*
G01*
M02*
