G04 #@! TF.GenerationSoftware,KiCad,Pcbnew,8.0.0*
G04 #@! TF.CreationDate,2024-03-03T16:28:34+08:00*
G04 #@! TF.ProjectId,Kretstr_d_v2,4b726574-7374-472e-9464-5f76322e6b69,rev?*
G04 #@! TF.SameCoordinates,Original*
G04 #@! TF.FileFunction,Profile,NP*
%FSLAX46Y46*%
G04 Gerber Fmt 4.6, Leading zero omitted, Abs format (unit mm)*
G04 Created by KiCad (PCBNEW 8.0.0) date 2024-03-03 16:28:34*
%MOMM*%
%LPD*%
G01*
G04 APERTURE LIST*
G04 #@! TA.AperFunction,Profile*
%ADD10C,0.150000*%
G04 #@! TD*
G04 #@! TA.AperFunction,Profile*
%ADD11C,0.100000*%
G04 #@! TD*
G04 APERTURE END LIST*
D10*
X107807561Y-120830072D02*
X108638622Y-120720805D01*
D11*
X253847600Y-157835600D02*
X253847600Y-157835600D01*
D10*
X135886464Y-121326406D02*
G75*
G02*
X135025570Y-122187182I-991464J130706D01*
G01*
X136660987Y-129470559D02*
X155433456Y-131942002D01*
X173128112Y-56858591D02*
X173128112Y-105172050D01*
X80886919Y-109929828D02*
X80034974Y-110041989D01*
X155561749Y-131967521D02*
X173851030Y-136868119D01*
X171856400Y-55143401D02*
G75*
G02*
X173128071Y-56858591I-502800J-1701799D01*
G01*
X107211769Y-104686000D02*
X137395718Y-104686000D01*
X80034974Y-110041989D02*
G75*
G02*
X78904350Y-109050544I-130574J991489D01*
G01*
X82008945Y-110791165D02*
X84413117Y-129112381D01*
X110269384Y-125446376D02*
X135025567Y-122187162D01*
X181534790Y-108191939D02*
X173869293Y-106137976D01*
X136395255Y-117461754D02*
X137226316Y-117571021D01*
X136804699Y-120834284D02*
X135973638Y-120725017D01*
X80886919Y-109929828D02*
G75*
G02*
X82009003Y-110791157I130481J-991572D01*
G01*
X85535269Y-129973701D02*
G75*
G02*
X84413096Y-129112384I-130769J991301D01*
G01*
X105725668Y-105016526D02*
G75*
G02*
X106717112Y-103886013I991432J130526D01*
G01*
X80164858Y-55219600D02*
G75*
G02*
X171856400Y-55143401I45956212J-132856820D01*
G01*
X173869293Y-106137975D02*
G75*
G02*
X173128078Y-105172050I258707J965875D01*
G01*
X108638622Y-120720805D02*
X106616902Y-105364316D01*
X106717112Y-103886000D02*
X137880093Y-103888558D01*
X137990572Y-105364414D02*
X136395255Y-117461754D01*
X107807561Y-120830072D02*
X105725668Y-105016526D01*
X175075775Y-136161012D02*
G75*
G02*
X173851027Y-136868132I-965875J258712D01*
G01*
X109060239Y-123984068D02*
X108229178Y-124093335D01*
X108478751Y-125944607D02*
G75*
G02*
X107617826Y-127066521I-991551J-130393D01*
G01*
X137880093Y-103888558D02*
G75*
G02*
X138871492Y-105019089I-93J-1000042D01*
G01*
X155433456Y-131942003D02*
G75*
G02*
X155561749Y-131967519I-130556J-991697D01*
G01*
X108229178Y-124093335D02*
X108478752Y-125944607D01*
X137395718Y-104686000D02*
G75*
G02*
X137990554Y-105364412I-18J-600000D01*
G01*
X78904448Y-56858591D02*
X78904448Y-109050544D01*
X109147413Y-124585457D02*
X109060239Y-123984068D01*
X136660987Y-129470559D02*
G75*
G02*
X135800042Y-128348585I130513J991459D01*
G01*
X181534790Y-108191939D02*
G75*
G02*
X182242018Y-109416474I-258790J-965961D01*
G01*
X182241957Y-109416458D02*
X175075775Y-136161012D01*
X138871456Y-105019084D02*
X137226316Y-117571021D01*
X85535269Y-129973701D02*
X107617820Y-127066478D01*
X110269384Y-125446376D02*
G75*
G02*
X109147434Y-124585454I-130484J991476D01*
G01*
X78904448Y-56858591D02*
G75*
G02*
X80164864Y-55219625I1685552J7891D01*
G01*
X136804699Y-120834284D02*
X135800068Y-128348588D01*
X106616903Y-105364316D02*
G75*
G02*
X107211769Y-104685970I594897J78316D01*
G01*
X135973638Y-120725017D02*
X135886464Y-121326406D01*
D11*
X253847600Y-157835600D02*
X253847600Y-157835600D01*
M02*
