G04 #@! TF.GenerationSoftware,KiCad,Pcbnew,9.0.2*
G04 #@! TF.CreationDate,2025-07-12T22:53:39+08:00*
G04 #@! TF.ProjectId,Kretstr_d_v2,4b726574-7374-472e-9464-5f76322e6b69,rev?*
G04 #@! TF.SameCoordinates,Original*
G04 #@! TF.FileFunction,Legend,Bot*
G04 #@! TF.FilePolarity,Positive*
%FSLAX46Y46*%
G04 Gerber Fmt 4.6, Leading zero omitted, Abs format (unit mm)*
G04 Created by KiCad (PCBNEW 9.0.2) date 2025-07-12 22:53:39*
%MOMM*%
%LPD*%
G01*
G04 APERTURE LIST*
G04 Aperture macros list*
%AMRoundRect*
0 Rectangle with rounded corners*
0 $1 Rounding radius*
0 $2 $3 $4 $5 $6 $7 $8 $9 X,Y pos of 4 corners*
0 Add a 4 corners polygon primitive as box body*
4,1,4,$2,$3,$4,$5,$6,$7,$8,$9,$2,$3,0*
0 Add four circle primitives for the rounded corners*
1,1,$1+$1,$2,$3*
1,1,$1+$1,$4,$5*
1,1,$1+$1,$6,$7*
1,1,$1+$1,$8,$9*
0 Add four rect primitives between the rounded corners*
20,1,$1+$1,$2,$3,$4,$5,0*
20,1,$1+$1,$4,$5,$6,$7,0*
20,1,$1+$1,$6,$7,$8,$9,0*
20,1,$1+$1,$8,$9,$2,$3,0*%
%AMFreePoly0*
4,1,22,0.886777,1.280194,0.956366,1.224698,0.994986,1.144504,1.000000,1.100000,1.000000,-1.100000,0.980194,-1.186777,0.924698,-1.256366,0.844504,-1.294986,0.800000,-1.300000,-0.480000,-1.300000,-0.566777,-1.280194,-0.621421,-1.241421,-0.941421,-0.921421,-0.988777,-0.846056,-1.000000,-0.780000,-1.000000,1.100000,-0.980194,1.186777,-0.924698,1.256366,-0.844504,1.294986,-0.800000,1.300000,
0.800000,1.300000,0.886777,1.280194,0.886777,1.280194,$1*%
%AMFreePoly1*
4,1,22,0.686777,0.580194,0.756366,0.524698,0.794986,0.444504,0.800000,0.400000,0.800000,0.200000,0.780194,0.113223,0.741421,0.058579,0.141421,-0.541421,0.066056,-0.588777,-0.022393,-0.598742,-0.106406,-0.569345,-0.141421,-0.541421,-0.741421,0.058579,-0.788777,0.133944,-0.800000,0.200000,-0.800000,0.400000,-0.780193,0.486777,-0.724698,0.556366,-0.644504,0.594986,-0.600000,0.600000,
0.600000,0.600000,0.686777,0.580194,0.686777,0.580194,$1*%
%AMFreePoly2*
4,1,26,0.706406,1.169345,0.769345,1.106406,0.798742,1.022393,0.800000,1.000000,0.800000,-0.250000,0.780194,-0.336777,0.724699,-0.406366,0.644505,-0.444986,0.600000,-0.450000,-0.600000,-0.450000,-0.686777,-0.430194,-0.756366,-0.374698,-0.794986,-0.294504,-0.800000,-0.250000,-0.800000,1.000000,-0.780194,1.086777,-0.724698,1.156366,-0.644504,1.194986,-0.555496,1.194986,-0.475302,1.156366,
-0.458579,1.141421,0.000000,0.682842,0.458579,1.141421,0.533944,1.188778,0.622393,1.198742,0.706406,1.169345,0.706406,1.169345,$1*%
%AMFreePoly3*
4,1,292,0.206777,1.229994,0.276366,1.174498,0.314986,1.094304,0.320000,1.049800,0.320000,0.008200,0.319495,0.005987,0.319495,-1.866709,0.319486,-1.942235,0.319486,-1.942460,0.318928,-2.390763,0.318926,-2.391335,0.317383,-2.767014,0.317377,-2.767939,0.314675,-3.077389,0.314657,-3.078876,0.310622,-3.328489,0.310568,-3.330901,0.305029,-3.527071,0.304875,-3.531095,0.297657,-3.680215,
0.297195,-3.687212,0.288125,-3.795676,0.286622,-3.808584,0.275528,-3.882784,0.269972,-3.908365,0.256680,-3.954695,0.246330,-3.982691,0.240139,-3.996234,0.229057,-4.017117,0.167561,-4.118087,0.157692,-4.132784,0.062026,-4.262462,0.054482,-4.272060,-0.057455,-4.405866,-0.061018,-4.410009,-0.070960,-4.421254,-0.171727,-4.547475,-0.239381,-4.651468,-0.261422,-4.702806,-0.268448,-4.790209,
-0.275185,-4.947662,-0.279770,-5.144579,-0.281450,-5.361536,-0.281447,-5.385011,-0.280528,-5.604860,-0.277007,-5.754079,-0.270393,-5.838887,-0.268290,-5.848462,-0.224488,-5.894056,-0.171049,-5.977321,-0.142171,-6.051967,-0.122143,-6.170287,-0.120852,-6.228231,-0.135594,-6.347346,-0.162124,-6.424914,-0.212996,-6.510565,-0.274338,-6.575059,-0.308050,-6.593056,-0.393200,-6.628524,-0.459529,-6.643620,
-0.582275,-6.650118,-0.631318,-6.646663,-0.750780,-6.623247,-0.819367,-6.595916,-0.898997,-6.545453,-0.952252,-6.496101,-0.953444,-6.494503,-0.980620,-6.444550,-1.025271,-6.324319,-1.037078,-6.237909,-1.034553,-6.207928,-1.095319,-6.245365,-1.119612,-6.251953,-1.263243,-6.281341,-1.334401,-6.282972,-1.441733,-6.266095,-1.524379,-6.233050,-1.535526,-6.224760,-1.625648,-6.152737,-1.674999,-6.094737,
-1.708800,-6.034795,-1.731134,-5.973572,-1.756230,-5.840310,-1.752826,-5.751366,-1.751357,-5.746183,-1.721747,-5.646814,-1.786435,-5.670245,-1.797570,-5.671308,-1.925994,-5.679949,-2.013905,-5.666013,-2.017213,-5.664651,-2.152853,-5.607383,-2.223422,-5.557256,-2.286363,-5.487634,-2.329864,-5.409980,-2.331418,-5.403739,-1.483158,-5.403739,-1.355185,-5.371470,-1.321520,-5.365981,-1.296753,-5.364088,
-1.271925,-5.355039,-1.217781,-5.314195,-1.113600,-5.210504,-0.992406,-5.073003,-0.922095,-4.967193,-0.891918,-4.883182,-0.881171,-4.765871,-0.875626,-4.680694,-0.868608,-4.639640,-0.821297,-4.471082,-0.802138,-4.425469,-0.700510,-4.248647,-0.682044,-4.221835,-0.562810,-4.075770,-0.603069,-4.078811,-0.691091,-4.065597,-0.695126,-4.063965,-0.829973,-4.007718,-0.882942,-3.970058,-0.884544,-4.105830,
-0.885000,-4.117175,-0.898888,-4.319380,-0.902711,-4.346893,-0.935986,-4.504891,-0.949035,-4.545136,-1.009063,-4.679733,-1.028893,-4.714405,-1.123042,-4.846409,-1.137428,-4.864308,-1.273065,-5.014526,-1.276513,-5.018249,-1.287869,-5.030202,-1.395729,-5.154077,-1.436036,-5.218316,-1.445698,-5.259360,-1.451178,-5.311568,-1.471682,-5.381092,-1.483158,-5.403739,-2.331418,-5.403739,-2.333940,-5.393612,
-2.360039,-5.266091,-2.360039,-5.185886,-2.330712,-5.042597,-2.293908,-4.961554,-2.277054,-4.942143,-2.201588,-4.865752,-2.261402,-4.879975,-2.348652,-4.881156,-2.489497,-4.851669,-2.570374,-4.814501,-2.590504,-4.796763,-2.603049,-4.784116,-2.016632,-4.784116,-1.947691,-4.769658,-1.921784,-4.765974,-1.897996,-4.764167,-1.873068,-4.755114,-1.818842,-4.714263,-1.712135,-4.608103,-1.710532,-4.606403,
-1.610735,-4.492471,-1.536348,-4.394539,-1.509620,-4.348678,-1.496774,-4.253933,-1.486629,-4.104764,-1.484943,-4.030087,-1.521728,-4.066661,-1.663872,-4.210425,-1.771561,-4.327147,-1.827485,-4.398952,-1.841739,-4.426218,-1.846868,-4.455718,-1.849044,-4.466476,-1.880833,-4.604089,-1.919662,-4.684181,-1.933210,-4.699418,-2.016632,-4.784116,-2.603049,-4.784116,-2.677271,-4.709294,-2.724322,-4.633739,
-2.731172,-4.608776,-2.760623,-4.465732,-2.760769,-4.385781,-2.732270,-4.244767,-2.695666,-4.163633,-2.680108,-4.145462,-2.594432,-4.056733,-2.519907,-4.008065,-2.492843,-4.000178,-2.352971,-3.969921,-2.326052,-3.966765,-2.302641,-3.962426,-2.276550,-3.949146,-2.210815,-3.898611,-2.101881,-3.798678,-1.944546,-3.643569,-1.907849,-3.606777,-1.998584,-3.608265,-2.086361,-3.615506,-2.113472,-3.640814,
-2.190420,-3.685551,-2.195993,-3.687200,-2.285285,-3.712217,-2.328694,-3.719355,-2.443408,-3.725413,-2.478949,-3.724123,-2.588384,-3.710339,-2.648428,-3.692928,-2.721883,-3.658421,-2.792004,-3.603597,-2.794591,-3.600348,-2.808469,-3.582542,-2.842246,-3.517205,-2.871896,-3.418636,-2.880342,-3.357508,-2.878149,-3.232815,-2.869435,-3.177839,-2.834704,-3.064278,-2.812088,-3.015249,-2.804020,-3.002595,
-2.744226,-2.942329,-2.663376,-2.889881,-2.579901,-2.859285,-2.464107,-2.844477,-2.401736,-2.846314,-2.281469,-2.868955,-2.211215,-2.896693,-2.116941,-2.956591,-2.095419,-2.974395,-2.075454,-2.989291,-2.056638,-2.994994,-2.046805,-2.995889,-2.070491,-2.960773,-2.070904,-2.959695,-2.108494,-2.860796,-2.121279,-2.800020,-2.127521,-2.678750,-2.122913,-2.624593,-2.097809,-2.512950,-2.059448,-2.432632,
-2.058380,-2.431296,-2.001929,-2.361278,-1.932045,-2.306154,-1.911531,-2.297769,-1.812031,-2.263398,-1.738834,-2.252593,-1.594647,-2.258290,-1.508720,-2.281507,-1.504448,-2.283843,-1.384933,-2.351109,-1.358738,-2.368710,-1.337152,-2.385832,-1.317487,-2.393167,-1.240752,-2.402224,-1.085472,-2.405350,-1.078233,-2.405170,-1.107077,-2.378573,-1.139850,-2.295818,-1.141775,-2.278081,-1.154236,-2.081951,
-1.154606,-2.072859,-1.156502,-1.967207,-1.150610,-1.915302,-1.126324,-1.817749,-1.086141,-1.738328,-1.046755,-1.702089,-0.979056,-1.654814,-0.896569,-1.621370,-0.885058,-1.619844,-0.761116,-1.607067,-0.757791,-1.606753,-0.746558,-1.605784,-0.717431,-1.594755,-0.653273,-1.547006,-0.535915,-1.433820,-0.518656,-1.415993,-0.412858,-1.301079,-0.333107,-1.206106,-0.309939,-1.172922,-0.306469,-1.159605,
-0.293711,-1.047354,-0.284312,-0.875422,-0.280824,-0.666619,-0.282712,0.034061,-0.280000,0.046092,-0.280000,1.049800,-0.260194,1.136577,-0.204698,1.206166,-0.124504,1.244786,-0.080000,1.249800,0.120000,1.249800,0.206777,1.229994,0.206777,1.229994,$1*%
%AMFreePoly4*
4,1,332,0.216903,1.226394,0.286492,1.170898,0.325112,1.090704,0.330126,1.046200,0.330126,0.053880,0.332333,0.034041,0.330446,-0.641485,0.333256,-0.817119,0.341852,-0.991008,0.354077,-1.119624,0.362643,-1.162576,0.397195,-1.217294,0.480043,-1.321262,0.585725,-1.436349,0.661974,-1.511306,0.745305,-1.581782,0.780351,-1.600628,0.816226,-1.606236,0.855709,-1.608367,0.916305,-1.621245,
1.018029,-1.660105,1.092024,-1.709574,1.121528,-1.749879,1.172534,-1.841779,1.197328,-1.927265,1.197479,-1.930252,1.204078,-2.083860,1.203745,-2.106820,1.191281,-2.279776,1.165288,-2.364904,1.129225,-2.403994,1.173666,-2.405391,1.223573,-2.405255,1.373671,-2.401394,1.448171,-2.392642,1.465323,-2.386622,1.490349,-2.367250,1.499144,-2.360816,1.558427,-2.319886,1.616268,-2.292409,
1.736039,-2.257617,1.795103,-2.249705,1.918049,-2.251717,1.998400,-2.270011,2.089018,-2.311721,2.159564,-2.365996,2.168233,-2.377282,2.179017,-2.392405,2.207229,-2.449366,2.233861,-2.535376,2.241991,-2.576456,2.252651,-2.693916,2.253382,-2.717931,2.251655,-2.776071,2.247065,-2.813135,2.225093,-2.912935,2.195461,-2.975695,2.212494,-2.958198,2.289490,-2.904783,2.362073,-2.873447,
2.477989,-2.848910,2.531369,-2.844932,2.650838,-2.852090,2.724742,-2.871102,2.812396,-2.912770,2.882265,-2.967914,2.907895,-3.009099,2.941835,-3.082118,2.959271,-3.144555,2.971968,-3.260006,2.972232,-3.301190,2.960919,-3.417757,2.944419,-3.480107,2.909095,-3.559070,2.855580,-3.630194,2.824642,-3.651681,2.776780,-3.678625,2.716103,-3.700809,2.613675,-3.720326,2.575255,-3.723859,
2.458923,-3.723286,2.420925,-3.719452,2.321391,-3.699672,2.242209,-3.664868,2.226678,-3.653495,2.249568,-3.708190,2.262483,-3.753325,2.275714,-3.834758,2.276340,-3.894786,2.255370,-4.043353,2.251016,-4.059843,2.261336,-4.057503,2.405029,-4.053550,2.423479,-4.053894,2.607272,-4.065820,2.692585,-4.091203,2.758435,-4.151089,2.791780,-4.233615,2.793805,-4.251024,2.806269,-4.423981,
2.806736,-4.433904,2.808688,-4.521554,2.803411,-4.571859,2.775606,-4.689911,2.736433,-4.769835,2.707599,-4.798835,2.630832,-4.861660,2.551134,-4.901291,2.531391,-4.905022,2.396634,-4.923538,2.367519,-4.925391,2.352493,-4.925249,2.321484,-4.922534,2.294546,-4.918041,2.345556,-4.977430,2.387072,-5.056163,2.391784,-5.079151,2.411668,-5.216808,2.413676,-5.249681,2.412978,-5.282286,
2.408266,-5.321372,2.380906,-5.444549,2.342754,-5.524966,2.315925,-5.552945,2.240017,-5.618098,2.161269,-5.659587,2.137440,-5.664410,2.001028,-5.683476,1.971455,-5.685392,1.956951,-5.685255,1.923948,-5.682197,1.791737,-5.658772,1.709746,-5.624130,1.687090,-5.605118,1.615161,-5.535067,1.566814,-5.460335,1.557616,-5.425814,1.535881,-5.299923,1.533998,-5.280958,1.533090,-5.277310,
1.533100,-5.278989,1.537975,-5.407923,1.546049,-5.464506,1.546949,-5.466699,1.560605,-5.481756,1.576426,-5.501596,1.634693,-5.585018,1.668145,-5.667501,1.668563,-5.670193,1.688071,-5.801698,1.682547,-5.885969,1.643425,-6.022953,1.600550,-6.100955,1.596826,-6.105026,1.561415,-6.142690,1.487545,-6.192345,1.486564,-6.192720,1.387509,-6.230250,1.326898,-6.242961,1.205437,-6.249194,
1.151442,-6.244614,1.082920,-6.229254,1.081676,-6.301771,1.060958,-6.387044,1.004589,-6.500955,0.948350,-6.569945,0.933901,-6.580220,0.857650,-6.629504,0.787543,-6.657803,0.665751,-6.681668,0.584915,-6.680859,0.473708,-6.656748,0.415993,-6.629724,0.400586,-6.658754,0.394933,-6.665026,0.359522,-6.702690,0.285652,-6.752345,0.284671,-6.752720,0.185616,-6.790250,0.125005,-6.802961,
0.003544,-6.809194,-0.050452,-6.804614,-0.162271,-6.779549,-0.242614,-6.741242,-0.243814,-6.740285,-0.268198,-6.720687,-0.315294,-6.752345,-0.316275,-6.752720,-0.415330,-6.790250,-0.475941,-6.802961,-0.597402,-6.809194,-0.651397,-6.804614,-0.763217,-6.779549,-0.843561,-6.741242,-0.844763,-6.740284,-0.914891,-6.683922,-0.970122,-6.614122,-0.978575,-6.593515,-1.013000,-6.494172,-1.023868,-6.420766,
-1.018162,-6.276806,-0.994935,-6.190882,-0.992477,-6.186396,-0.925104,-6.067069,-0.903724,-6.036331,-0.891370,-6.021707,-0.890072,-6.018941,-0.882527,-5.981614,-0.875398,-5.887738,-0.871719,-5.731182,-0.870818,-5.503325,-0.870817,-5.503105,-0.869927,-5.326988,-0.869827,-5.321581,-0.862543,-5.094702,-0.861499,-5.079727,-0.853873,-5.008841,-0.260880,-5.008841,-0.250757,-5.118082,-0.182664,-5.265028,
-0.032771,-5.461496,0.009168,-5.510153,0.014500,-5.516608,0.119025,-5.648672,0.127203,-5.659770,0.205250,-5.773710,0.219630,-5.798292,0.256978,-5.874043,0.259707,-5.879806,0.280044,-5.924601,0.283266,-5.919104,0.302558,-5.891727,0.305210,-5.888563,0.317208,-5.858522,0.310754,-5.815815,0.250423,-5.704381,0.110971,-5.530276,0.036442,-5.444592,0.027944,-5.434129,-0.099383,-5.266107,
-0.111658,-5.246753,0.652054,-5.246753,0.732842,-5.349046,0.752387,-5.378939,0.849802,-5.561723,0.882643,-5.509562,0.905761,-5.479570,0.917107,-5.467427,0.924826,-5.420679,0.930495,-5.304719,0.931637,-5.162069,0.886595,-5.192346,0.885617,-5.192720,0.786563,-5.230250,0.725952,-5.242961,0.652054,-5.246753,-0.111658,-5.246753,-0.117198,-5.238019,-0.195936,-5.087503,-0.212368,-5.044802,
-0.239091,-4.941314,-0.260880,-5.008841,-0.853873,-5.008841,-0.842699,-4.904973,-0.837775,-4.877464,-0.810044,-4.767492,1.929028,-4.767492,1.940400,-4.777363,1.980579,-4.800138,2.016790,-4.806377,2.048565,-4.809884,2.049055,-4.809987,2.034161,-4.797214,2.013963,-4.774565,2.013402,-4.774389,1.934562,-4.767567,1.929028,-4.767492,-0.810044,-4.767492,-0.802541,-4.737737,-0.789993,-4.702371,
-0.733407,-4.580574,-0.717030,-4.551821,-0.634173,-4.430855,-0.622986,-4.416047,-0.508940,-4.278815,-0.506152,-4.275532,-0.504541,-4.273676,-0.406101,-4.155775,-0.327937,-4.054618,-0.302887,-4.017163,-0.302099,-4.013563,-0.294032,-3.925579,-0.286464,-3.770786,-0.280305,-3.552503,-0.275623,-3.268476,-0.272373,-2.915349,-0.271993,-2.829728,0.332029,-2.829728,0.339270,-2.984437,0.352076,-3.112266,
0.360925,-3.154360,0.378419,-3.181798,0.458433,-3.279847,0.578494,-3.414759,0.722334,-3.568542,0.876663,-3.727341,1.028514,-3.877808,1.164669,-4.006494,1.268831,-4.097556,1.310593,-4.127530,1.364956,-4.143570,1.451145,-4.154832,1.444522,-4.147382,1.401669,-4.069368,1.396370,-4.045227,1.377901,-3.926443,1.353356,-3.888438,1.272875,-3.790852,1.139773,-3.645237,0.953129,-3.451557,
0.710038,-3.206705,0.332029,-2.829728,-0.271993,-2.829728,-0.270485,-2.489954,-0.269874,-1.987786,-0.269874,1.046200,-0.250068,1.132977,-0.194572,1.202566,-0.114378,1.241186,-0.069874,1.246200,0.130126,1.246200,0.216903,1.226394,0.216903,1.226394,$1*%
G04 Aperture macros list end*
%ADD10C,0.338000*%
%ADD11C,0.150000*%
%ADD12C,0.100000*%
%ADD13C,0.200000*%
%ADD14C,0.120000*%
%ADD15C,0.178000*%
%ADD16C,0.000000*%
%ADD17C,1.600000*%
%ADD18RoundRect,0.200000X-0.700000X0.600000X-0.700000X-0.600000X0.700000X-0.600000X0.700000X0.600000X0*%
%ADD19RoundRect,0.200000X0.700000X-0.600000X0.700000X0.600000X-0.700000X0.600000X-0.700000X-0.600000X0*%
%ADD20C,2.300000*%
%ADD21C,3.400000*%
%ADD22C,2.000000*%
%ADD23C,5.280000*%
%ADD24FreePoly0,0.000000*%
%ADD25RoundRect,0.200000X-0.800000X-1.100000X0.800000X-1.100000X0.800000X1.100000X-0.800000X1.100000X0*%
%ADD26C,3.600000*%
%ADD27C,1.300000*%
%ADD28FreePoly0,2.000000*%
%ADD29RoundRect,0.200000X-0.761123X-1.127250X0.837902X-1.071410X0.761123X1.127250X-0.837902X1.071410X0*%
%ADD30FreePoly0,357.000000*%
%ADD31RoundRect,0.200000X-0.856473X-1.056624X0.741334X-1.140361X0.856473X1.056624X-0.741334X1.140361X0*%
%ADD32FreePoly0,345.000000*%
%ADD33RoundRect,0.200000X-1.057442X-0.855463X0.488040X-1.269574X1.057442X0.855463X-0.488040X1.269574X0*%
%ADD34C,2.500000*%
%ADD35FreePoly1,187.500000*%
%ADD36FreePoly1,7.500000*%
%ADD37FreePoly2,187.500000*%
%ADD38FreePoly2,7.500000*%
%ADD39FreePoly0,180.000000*%
%ADD40RoundRect,0.200000X0.800000X1.100000X-0.800000X1.100000X-0.800000X-1.100000X0.800000X-1.100000X0*%
%ADD41C,4.200000*%
%ADD42FreePoly0,352.500000*%
%ADD43RoundRect,0.200000X-0.936735X-0.986168X0.649577X-1.195010X0.936735X0.986168X-0.649577X1.195010X0*%
%ADD44FreePoly0,177.000000*%
%ADD45RoundRect,0.200000X0.856473X1.056624X-0.741334X1.140361X-0.856473X-1.056624X0.741334X-1.140361X0*%
%ADD46RoundRect,0.300000X0.850000X-0.300000X0.850000X0.300000X-0.850000X0.300000X-0.850000X-0.300000X0*%
%ADD47RoundRect,0.326924X1.548076X-0.523076X1.548076X0.523076X-1.548076X0.523076X-1.548076X-0.523076X0*%
%ADD48FreePoly3,180.000000*%
%ADD49RoundRect,0.229000X-0.606000X-0.057250X0.606000X-0.057250X0.606000X0.057250X-0.606000X0.057250X0*%
%ADD50RoundRect,0.229000X-1.171000X-0.057250X1.171000X-0.057250X1.171000X0.057250X-1.171000X0.057250X0*%
%ADD51RoundRect,0.229000X-0.208500X-0.057250X0.208500X-0.057250X0.208500X0.057250X-0.208500X0.057250X0*%
%ADD52FreePoly4,180.000000*%
%ADD53RoundRect,0.200000X0.547933X0.331315X-0.443512X0.461841X-0.547933X-0.331315X0.443512X-0.461841X0*%
%ADD54RoundRect,0.200000X0.444900X0.697899X-0.249111X0.789268X-0.444900X-0.697899X0.249111X-0.789268X0*%
G04 APERTURE END LIST*
D10*
X95590996Y-124923836D02*
G75*
G02*
X96753556Y-122281918I67634J1546986D01*
G01*
D11*
X130248387Y-119267282D02*
X130135887Y-118367282D01*
X129734101Y-119267282D02*
X130055530Y-118752996D01*
X129621601Y-118367282D02*
X130200173Y-118881567D01*
X129348387Y-119267282D02*
X129273387Y-118667282D01*
X129294816Y-118838710D02*
X129241244Y-118752996D01*
X129241244Y-118752996D02*
X129193030Y-118710139D01*
X129193030Y-118710139D02*
X129101958Y-118667282D01*
X129101958Y-118667282D02*
X129016244Y-118667282D01*
X128443030Y-119224425D02*
X128534101Y-119267282D01*
X128534101Y-119267282D02*
X128705530Y-119267282D01*
X128705530Y-119267282D02*
X128785887Y-119224425D01*
X128785887Y-119224425D02*
X128818030Y-119138710D01*
X128818030Y-119138710D02*
X128775173Y-118795853D01*
X128775173Y-118795853D02*
X128721601Y-118710139D01*
X128721601Y-118710139D02*
X128630530Y-118667282D01*
X128630530Y-118667282D02*
X128459101Y-118667282D01*
X128459101Y-118667282D02*
X128378744Y-118710139D01*
X128378744Y-118710139D02*
X128346601Y-118795853D01*
X128346601Y-118795853D02*
X128357315Y-118881567D01*
X128357315Y-118881567D02*
X128796601Y-118967282D01*
X128073386Y-118667282D02*
X127730529Y-118667282D01*
X127907315Y-118367282D02*
X128003744Y-119138710D01*
X128003744Y-119138710D02*
X127971601Y-119224425D01*
X127971601Y-119224425D02*
X127891244Y-119267282D01*
X127891244Y-119267282D02*
X127805529Y-119267282D01*
X127543029Y-119224425D02*
X127462672Y-119267282D01*
X127462672Y-119267282D02*
X127291243Y-119267282D01*
X127291243Y-119267282D02*
X127200172Y-119224425D01*
X127200172Y-119224425D02*
X127146600Y-119138710D01*
X127146600Y-119138710D02*
X127141243Y-119095853D01*
X127141243Y-119095853D02*
X127173386Y-119010139D01*
X127173386Y-119010139D02*
X127253743Y-118967282D01*
X127253743Y-118967282D02*
X127382315Y-118967282D01*
X127382315Y-118967282D02*
X127462672Y-118924425D01*
X127462672Y-118924425D02*
X127494815Y-118838710D01*
X127494815Y-118838710D02*
X127489458Y-118795853D01*
X127489458Y-118795853D02*
X127435886Y-118710139D01*
X127435886Y-118710139D02*
X127344815Y-118667282D01*
X127344815Y-118667282D02*
X127216243Y-118667282D01*
X127216243Y-118667282D02*
X127135886Y-118710139D01*
X126830529Y-118667282D02*
X126487672Y-118667282D01*
X126664458Y-118367282D02*
X126760887Y-119138710D01*
X126760887Y-119138710D02*
X126728744Y-119224425D01*
X126728744Y-119224425D02*
X126648387Y-119267282D01*
X126648387Y-119267282D02*
X126562672Y-119267282D01*
X126262672Y-119267282D02*
X126187672Y-118667282D01*
X126209101Y-118838710D02*
X126155529Y-118752996D01*
X126155529Y-118752996D02*
X126107315Y-118710139D01*
X126107315Y-118710139D02*
X126016243Y-118667282D01*
X126016243Y-118667282D02*
X125930529Y-118667282D01*
X125319815Y-119267282D02*
X125260886Y-118795853D01*
X125260886Y-118795853D02*
X125293029Y-118710139D01*
X125293029Y-118710139D02*
X125373386Y-118667282D01*
X125373386Y-118667282D02*
X125544815Y-118667282D01*
X125544815Y-118667282D02*
X125635886Y-118710139D01*
X125314458Y-119224425D02*
X125405529Y-119267282D01*
X125405529Y-119267282D02*
X125619815Y-119267282D01*
X125619815Y-119267282D02*
X125700172Y-119224425D01*
X125700172Y-119224425D02*
X125732315Y-119138710D01*
X125732315Y-119138710D02*
X125721600Y-119052996D01*
X125721600Y-119052996D02*
X125668029Y-118967282D01*
X125668029Y-118967282D02*
X125576958Y-118924425D01*
X125576958Y-118924425D02*
X125362672Y-118924425D01*
X125362672Y-118924425D02*
X125271600Y-118881567D01*
X125593029Y-118367282D02*
X125555529Y-118410139D01*
X125555529Y-118410139D02*
X125603743Y-118452996D01*
X125603743Y-118452996D02*
X125641243Y-118410139D01*
X125641243Y-118410139D02*
X125593029Y-118367282D01*
X125593029Y-118367282D02*
X125603743Y-118452996D01*
X125250172Y-118367282D02*
X125212672Y-118410139D01*
X125212672Y-118410139D02*
X125260886Y-118452996D01*
X125260886Y-118452996D02*
X125298386Y-118410139D01*
X125298386Y-118410139D02*
X125250172Y-118367282D01*
X125250172Y-118367282D02*
X125260886Y-118452996D01*
X124505529Y-119267282D02*
X124393029Y-118367282D01*
X124500172Y-119224425D02*
X124591243Y-119267282D01*
X124591243Y-119267282D02*
X124762672Y-119267282D01*
X124762672Y-119267282D02*
X124843029Y-119224425D01*
X124843029Y-119224425D02*
X124880529Y-119181567D01*
X124880529Y-119181567D02*
X124912672Y-119095853D01*
X124912672Y-119095853D02*
X124880529Y-118838710D01*
X124880529Y-118838710D02*
X124826957Y-118752996D01*
X124826957Y-118752996D02*
X124778743Y-118710139D01*
X124778743Y-118710139D02*
X124687672Y-118667282D01*
X124687672Y-118667282D02*
X124516243Y-118667282D01*
X124516243Y-118667282D02*
X124435886Y-118710139D01*
X123401957Y-118667282D02*
X123262672Y-119267282D01*
X123262672Y-119267282D02*
X122973386Y-118667282D01*
X122646600Y-118452996D02*
X122598386Y-118410139D01*
X122598386Y-118410139D02*
X122507315Y-118367282D01*
X122507315Y-118367282D02*
X122293029Y-118367282D01*
X122293029Y-118367282D02*
X122212672Y-118410139D01*
X122212672Y-118410139D02*
X122175172Y-118452996D01*
X122175172Y-118452996D02*
X122143029Y-118538710D01*
X122143029Y-118538710D02*
X122153743Y-118624425D01*
X122153743Y-118624425D02*
X122212672Y-118752996D01*
X122212672Y-118752996D02*
X122791243Y-119267282D01*
X122791243Y-119267282D02*
X122234100Y-119267282D01*
X121837672Y-119181567D02*
X121800172Y-119224425D01*
X121800172Y-119224425D02*
X121848386Y-119267282D01*
X121848386Y-119267282D02*
X121885886Y-119224425D01*
X121885886Y-119224425D02*
X121837672Y-119181567D01*
X121837672Y-119181567D02*
X121848386Y-119267282D01*
X121360886Y-118452996D02*
X121312672Y-118410139D01*
X121312672Y-118410139D02*
X121221601Y-118367282D01*
X121221601Y-118367282D02*
X121007315Y-118367282D01*
X121007315Y-118367282D02*
X120926958Y-118410139D01*
X120926958Y-118410139D02*
X120889458Y-118452996D01*
X120889458Y-118452996D02*
X120857315Y-118538710D01*
X120857315Y-118538710D02*
X120868029Y-118624425D01*
X120868029Y-118624425D02*
X120926958Y-118752996D01*
X120926958Y-118752996D02*
X121505529Y-119267282D01*
X121505529Y-119267282D02*
X120948386Y-119267282D01*
X130248387Y-120716232D02*
X130135887Y-119816232D01*
X130135887Y-119816232D02*
X129793030Y-119816232D01*
X129793030Y-119816232D02*
X129712673Y-119859089D01*
X129712673Y-119859089D02*
X129675173Y-119901946D01*
X129675173Y-119901946D02*
X129643030Y-119987660D01*
X129643030Y-119987660D02*
X129659101Y-120116232D01*
X129659101Y-120116232D02*
X129712673Y-120201946D01*
X129712673Y-120201946D02*
X129760887Y-120244803D01*
X129760887Y-120244803D02*
X129851958Y-120287660D01*
X129851958Y-120287660D02*
X130194816Y-120287660D01*
X128823387Y-120630517D02*
X128871601Y-120673375D01*
X128871601Y-120673375D02*
X129005530Y-120716232D01*
X129005530Y-120716232D02*
X129091244Y-120716232D01*
X129091244Y-120716232D02*
X129214458Y-120673375D01*
X129214458Y-120673375D02*
X129289458Y-120587660D01*
X129289458Y-120587660D02*
X129321601Y-120501946D01*
X129321601Y-120501946D02*
X129343030Y-120330517D01*
X129343030Y-120330517D02*
X129326958Y-120201946D01*
X129326958Y-120201946D02*
X129262673Y-120030517D01*
X129262673Y-120030517D02*
X129209101Y-119944803D01*
X129209101Y-119944803D02*
X129112673Y-119859089D01*
X129112673Y-119859089D02*
X128978744Y-119816232D01*
X128978744Y-119816232D02*
X128893030Y-119816232D01*
X128893030Y-119816232D02*
X128769816Y-119859089D01*
X128769816Y-119859089D02*
X128732316Y-119901946D01*
X128089458Y-120244803D02*
X127966244Y-120287660D01*
X127966244Y-120287660D02*
X127928744Y-120330517D01*
X127928744Y-120330517D02*
X127896601Y-120416232D01*
X127896601Y-120416232D02*
X127912673Y-120544803D01*
X127912673Y-120544803D02*
X127966244Y-120630517D01*
X127966244Y-120630517D02*
X128014458Y-120673375D01*
X128014458Y-120673375D02*
X128105530Y-120716232D01*
X128105530Y-120716232D02*
X128448387Y-120716232D01*
X128448387Y-120716232D02*
X128335887Y-119816232D01*
X128335887Y-119816232D02*
X128035887Y-119816232D01*
X128035887Y-119816232D02*
X127955530Y-119859089D01*
X127955530Y-119859089D02*
X127918030Y-119901946D01*
X127918030Y-119901946D02*
X127885887Y-119987660D01*
X127885887Y-119987660D02*
X127896601Y-120073375D01*
X127896601Y-120073375D02*
X127950173Y-120159089D01*
X127950173Y-120159089D02*
X127998387Y-120201946D01*
X127998387Y-120201946D02*
X128089458Y-120244803D01*
X128089458Y-120244803D02*
X128389458Y-120244803D01*
X126862673Y-120716232D02*
X126750173Y-119816232D01*
X126793030Y-120159089D02*
X126701959Y-120116232D01*
X126701959Y-120116232D02*
X126530530Y-120116232D01*
X126530530Y-120116232D02*
X126450173Y-120159089D01*
X126450173Y-120159089D02*
X126412673Y-120201946D01*
X126412673Y-120201946D02*
X126380530Y-120287660D01*
X126380530Y-120287660D02*
X126412673Y-120544803D01*
X126412673Y-120544803D02*
X126466244Y-120630517D01*
X126466244Y-120630517D02*
X126514459Y-120673375D01*
X126514459Y-120673375D02*
X126605530Y-120716232D01*
X126605530Y-120716232D02*
X126776959Y-120716232D01*
X126776959Y-120716232D02*
X126857316Y-120673375D01*
X126059101Y-120116232D02*
X125919816Y-120716232D01*
X125630530Y-120116232D02*
X125919816Y-120716232D01*
X125919816Y-120716232D02*
X126032316Y-120930517D01*
X126032316Y-120930517D02*
X126080530Y-120973375D01*
X126080530Y-120973375D02*
X126171601Y-121016232D01*
X124601959Y-120116232D02*
X124698388Y-120887660D01*
X124698388Y-120887660D02*
X124751959Y-120973375D01*
X124751959Y-120973375D02*
X124843030Y-121016232D01*
X124843030Y-121016232D02*
X124885888Y-121016232D01*
X124564459Y-119816232D02*
X124612673Y-119859089D01*
X124612673Y-119859089D02*
X124575173Y-119901946D01*
X124575173Y-119901946D02*
X124526959Y-119859089D01*
X124526959Y-119859089D02*
X124564459Y-119816232D01*
X124564459Y-119816232D02*
X124575173Y-119901946D01*
X124259102Y-120116232D02*
X124162674Y-120716232D01*
X124162674Y-120716232D02*
X123937674Y-120287660D01*
X123937674Y-120287660D02*
X123819817Y-120716232D01*
X123819817Y-120716232D02*
X123573388Y-120116232D01*
X150622048Y-104776133D02*
X151383953Y-104776133D01*
X151003000Y-104395180D02*
X151003000Y-105157085D01*
D12*
X173584687Y-113082713D02*
X174205852Y-110764491D01*
D13*
X174701464Y-109569096D02*
G75*
G02*
X172901464Y-109569096I-900000J0D01*
G01*
X172901464Y-109569096D02*
G75*
G02*
X174701464Y-109569096I900000J0D01*
G01*
X160238990Y-120525081D02*
X160238990Y-122251881D01*
X157838990Y-120525081D02*
X157838990Y-122251881D01*
X160238990Y-121083081D02*
X157838990Y-121083081D01*
X157838990Y-120524681D01*
X160238990Y-120524681D01*
X160238990Y-121083081D01*
G36*
X160238990Y-121083081D02*
G01*
X157838990Y-121083081D01*
X157838990Y-120524681D01*
X160238990Y-120524681D01*
X160238990Y-121083081D01*
G37*
X154816390Y-126467881D02*
X154816390Y-124741081D01*
X157216390Y-126467881D02*
X157216390Y-124741081D01*
X157216390Y-126468281D02*
X154816390Y-126468281D01*
X154816390Y-125909881D01*
X157216390Y-125909881D01*
X157216390Y-126468281D01*
G36*
X157216390Y-126468281D02*
G01*
X154816390Y-126468281D01*
X154816390Y-125909881D01*
X157216390Y-125909881D01*
X157216390Y-126468281D01*
G37*
X169819105Y-107748849D02*
X169819105Y-106022049D01*
X172219105Y-107748849D02*
X172219105Y-106022049D01*
X172219105Y-107749249D02*
X169819105Y-107749249D01*
X169819105Y-107190849D01*
X172219105Y-107190849D01*
X172219105Y-107749249D01*
G36*
X172219105Y-107749249D02*
G01*
X169819105Y-107749249D01*
X169819105Y-107190849D01*
X172219105Y-107190849D01*
X172219105Y-107749249D01*
G37*
X151378705Y-102482449D02*
X151378705Y-100755649D01*
X153778705Y-102482449D02*
X153778705Y-100755649D01*
X153778705Y-102482849D02*
X151378705Y-102482849D01*
X151378705Y-101924449D01*
X153778705Y-101924449D01*
X153778705Y-102482849D01*
G36*
X153778705Y-102482849D02*
G01*
X151378705Y-102482849D01*
X151378705Y-101924449D01*
X153778705Y-101924449D01*
X153778705Y-102482849D01*
G37*
X132997790Y-97445081D02*
X132997790Y-95718281D01*
X135397790Y-97445081D02*
X135397790Y-95718281D01*
X135397790Y-97445481D02*
X132997790Y-97445481D01*
X132997790Y-96887081D01*
X135397790Y-96887081D01*
X135397790Y-97445481D01*
G36*
X135397790Y-97445481D02*
G01*
X132997790Y-97445481D01*
X132997790Y-96887081D01*
X135397790Y-96887081D01*
X135397790Y-97445481D01*
G37*
X115062190Y-100137481D02*
X115062190Y-98410681D01*
X117462190Y-100137481D02*
X117462190Y-98410681D01*
X117462190Y-100137881D02*
X115062190Y-100137881D01*
X115062190Y-99579481D01*
X117462190Y-99579481D01*
X117462190Y-100137881D01*
G36*
X117462190Y-100137881D02*
G01*
X115062190Y-100137881D01*
X115062190Y-99579481D01*
X117462190Y-99579481D01*
X117462190Y-100137881D01*
G37*
X96561390Y-103404681D02*
X96561390Y-101677881D01*
X98961390Y-103404681D02*
X98961390Y-101677881D01*
X98961390Y-103405081D02*
X96561390Y-103405081D01*
X96561390Y-102846681D01*
X98961390Y-102846681D01*
X98961390Y-103405081D01*
G36*
X98961390Y-103405081D02*
G01*
X96561390Y-103405081D01*
X96561390Y-102846681D01*
X98961390Y-102846681D01*
X98961390Y-103405081D01*
G37*
X169929390Y-91212681D02*
X169929390Y-89485881D01*
X172329390Y-91212681D02*
X172329390Y-89485881D01*
X172329390Y-91213081D02*
X169929390Y-91213081D01*
X169929390Y-90654681D01*
X172329390Y-90654681D01*
X172329390Y-91213081D01*
G36*
X172329390Y-91213081D02*
G01*
X169929390Y-91213081D01*
X169929390Y-90654681D01*
X172329390Y-90654681D01*
X172329390Y-91213081D01*
G37*
X151578431Y-85692916D02*
X151578431Y-83966116D01*
X153978431Y-85692916D02*
X153978431Y-83966116D01*
X153978431Y-85693316D02*
X151578431Y-85693316D01*
X151578431Y-85134916D01*
X153978431Y-85134916D01*
X153978431Y-85693316D01*
G36*
X153978431Y-85693316D02*
G01*
X151578431Y-85693316D01*
X151578431Y-85134916D01*
X153978431Y-85134916D01*
X153978431Y-85693316D01*
G37*
X132997790Y-80477881D02*
X132997790Y-78751081D01*
X135397790Y-80477881D02*
X135397790Y-78751081D01*
X135397790Y-80478281D02*
X132997790Y-80478281D01*
X132997790Y-79919881D01*
X135397790Y-79919881D01*
X135397790Y-80478281D01*
G36*
X135397790Y-80478281D02*
G01*
X132997790Y-80478281D01*
X132997790Y-79919881D01*
X135397790Y-79919881D01*
X135397790Y-80478281D01*
G37*
X115062190Y-83221081D02*
X115062190Y-81494281D01*
X117462190Y-83221081D02*
X117462190Y-81494281D01*
X117462190Y-83221481D02*
X115062190Y-83221481D01*
X115062190Y-82663081D01*
X117462190Y-82663081D01*
X117462190Y-83221481D01*
G36*
X117462190Y-83221481D02*
G01*
X115062190Y-83221481D01*
X115062190Y-82663081D01*
X117462190Y-82663081D01*
X117462190Y-83221481D01*
G37*
X96250660Y-86188298D02*
X96250660Y-84461498D01*
X98650660Y-86188298D02*
X98650660Y-84461498D01*
X98650660Y-86188698D02*
X96250660Y-86188698D01*
X96250660Y-85630298D01*
X98650660Y-85630298D01*
X98650660Y-86188698D01*
G36*
X98650660Y-86188698D02*
G01*
X96250660Y-86188698D01*
X96250660Y-85630298D01*
X98650660Y-85630298D01*
X98650660Y-86188698D01*
G37*
X155132694Y-66159350D02*
X155132694Y-64432550D01*
X157532694Y-66159350D02*
X157532694Y-64432550D01*
X157532694Y-66159750D02*
X155132694Y-66159750D01*
X155132694Y-65601350D01*
X157532694Y-65601350D01*
X157532694Y-66159750D01*
G36*
X157532694Y-66159750D02*
G01*
X155132694Y-66159750D01*
X155132694Y-65601350D01*
X157532694Y-65601350D01*
X157532694Y-66159750D01*
G37*
X151878020Y-68709817D02*
X151878020Y-66983017D01*
X154278020Y-68709817D02*
X154278020Y-66983017D01*
X154278020Y-68710217D02*
X151878020Y-68710217D01*
X151878020Y-68151817D01*
X154278020Y-68151817D01*
X154278020Y-68710217D01*
G36*
X154278020Y-68710217D02*
G01*
X151878020Y-68710217D01*
X151878020Y-68151817D01*
X154278020Y-68151817D01*
X154278020Y-68710217D01*
G37*
X132997790Y-63713881D02*
X132997790Y-61987081D01*
X135397790Y-63713881D02*
X135397790Y-61987081D01*
X135397790Y-63714281D02*
X132997790Y-63714281D01*
X132997790Y-63155881D01*
X135397790Y-63155881D01*
X135397790Y-63714281D01*
G36*
X135397790Y-63714281D02*
G01*
X132997790Y-63714281D01*
X132997790Y-63155881D01*
X135397790Y-63155881D01*
X135397790Y-63714281D01*
G37*
X115062190Y-65576081D02*
X115062190Y-63849281D01*
X117462190Y-65576081D02*
X117462190Y-63849281D01*
X117462190Y-65576481D02*
X115062190Y-65576481D01*
X115062190Y-65018081D01*
X117462190Y-65018081D01*
X117462190Y-65576481D01*
G36*
X117462190Y-65576481D02*
G01*
X115062190Y-65576481D01*
X115062190Y-65018081D01*
X117462190Y-65018081D01*
X117462190Y-65576481D01*
G37*
X96561390Y-65558681D02*
X96561390Y-63831881D01*
X98961390Y-65558681D02*
X98961390Y-63831881D01*
X98961390Y-65559081D02*
X96561390Y-65559081D01*
X96561390Y-65000681D01*
X98961390Y-65000681D01*
X98961390Y-65559081D01*
G36*
X98961390Y-65559081D02*
G01*
X96561390Y-65559081D01*
X96561390Y-65000681D01*
X98961390Y-65000681D01*
X98961390Y-65559081D01*
G37*
D11*
X105460390Y-88008681D02*
X105460390Y-88118681D01*
X105460390Y-88008681D02*
X106485390Y-86983681D01*
X109035390Y-86983681D02*
X106485390Y-86983681D01*
X115060390Y-89083681D02*
X111460390Y-89083681D01*
X115060390Y-89083681D02*
X115060390Y-89386681D01*
X115060390Y-93430681D02*
X115060390Y-93733681D01*
X115060390Y-93733681D02*
X111460390Y-93733681D01*
X123760190Y-68208681D02*
X123760190Y-68318681D01*
X123760190Y-68208681D02*
X124785190Y-67183681D01*
X127335190Y-67183681D02*
X124785190Y-67183681D01*
X133360190Y-69283681D02*
X129760190Y-69283681D01*
X133360190Y-69283681D02*
X133360190Y-69586681D01*
X133360190Y-73630681D02*
X133360190Y-73933681D01*
X133360190Y-73933681D02*
X129760190Y-73933681D01*
X105460390Y-71008681D02*
X105460390Y-71118681D01*
X105460390Y-71008681D02*
X106485390Y-69983681D01*
X109035390Y-69983681D02*
X106485390Y-69983681D01*
X115060390Y-72083681D02*
X111460390Y-72083681D01*
X115060390Y-72083681D02*
X115060390Y-72386681D01*
X115060390Y-76430681D02*
X115060390Y-76733681D01*
X115060390Y-76733681D02*
X111460390Y-76733681D01*
X123760190Y-85208681D02*
X123760190Y-85318681D01*
X123760190Y-85208681D02*
X124785190Y-84183681D01*
X127335190Y-84183681D02*
X124785190Y-84183681D01*
X133360190Y-86283681D02*
X129760190Y-86283681D01*
X133360190Y-86283681D02*
X133360190Y-86586681D01*
X133360190Y-90630681D02*
X133360190Y-90933681D01*
X133360190Y-90933681D02*
X129760190Y-90933681D01*
X105460390Y-53363681D02*
X105460390Y-53473681D01*
X105460390Y-53363681D02*
X106485390Y-52338681D01*
X109035390Y-52338681D02*
X106485390Y-52338681D01*
X115060390Y-54438681D02*
X111460390Y-54438681D01*
X115060390Y-54438681D02*
X115060390Y-54741681D01*
X115060390Y-58785681D02*
X115060390Y-59088681D01*
X115060390Y-59088681D02*
X111460390Y-59088681D01*
X86110706Y-91892647D02*
X86114545Y-92002580D01*
X86110706Y-91892647D02*
X87099310Y-90832500D01*
X89647756Y-90743506D02*
X87099310Y-90832500D01*
X95742375Y-92631957D02*
X92144568Y-92757595D01*
X95742375Y-92631957D02*
X95752950Y-92934773D01*
X95894083Y-96976309D02*
X95904658Y-97279125D01*
X95904658Y-97279125D02*
X92306851Y-97404763D01*
X144061264Y-52935780D02*
X144055507Y-53045630D01*
X144061264Y-52935780D02*
X145138503Y-51965829D01*
X147685009Y-52099286D02*
X145138503Y-51965829D01*
X153348484Y-59155360D02*
X149753418Y-58966950D01*
X153364342Y-58852775D02*
X153348484Y-59155360D01*
X153591846Y-54511732D02*
X149996780Y-54323323D01*
X153591846Y-54511732D02*
X153575988Y-54814317D01*
X166852392Y-116358850D02*
X166823923Y-116465102D01*
X166852392Y-116358850D02*
X168107755Y-115634065D01*
X170570866Y-116294054D02*
X168107755Y-115634065D01*
X174643541Y-124373438D02*
X171166208Y-123441689D01*
X174721963Y-124080762D02*
X174643541Y-124373438D01*
X175847049Y-119881883D02*
X172369716Y-118950134D01*
X175847049Y-119881883D02*
X175768627Y-120174558D01*
X123760190Y-51208681D02*
X123760190Y-51318681D01*
X123760190Y-51208681D02*
X124785190Y-50183681D01*
X127335190Y-50183681D02*
X124785190Y-50183681D01*
X133360190Y-52283681D02*
X129760190Y-52283681D01*
X133360190Y-52283681D02*
X133360190Y-52586681D01*
X133360190Y-56630681D02*
X133360190Y-56933681D01*
X133360190Y-56933681D02*
X129760190Y-56933681D01*
X143180598Y-86936487D02*
X143174841Y-87046337D01*
X143180598Y-86936487D02*
X144257837Y-85966536D01*
X146804343Y-86099993D02*
X144257837Y-85966536D01*
X152467818Y-93156067D02*
X148872752Y-92967657D01*
X152483676Y-92853482D02*
X152467818Y-93156067D01*
X152711180Y-88512439D02*
X149116114Y-88324030D01*
X152711180Y-88512439D02*
X152695322Y-88815024D01*
X143620926Y-69936233D02*
X143615169Y-70046083D01*
X143620926Y-69936233D02*
X144698165Y-68966282D01*
X147244671Y-69099739D02*
X144698165Y-68966282D01*
X152908146Y-76155813D02*
X149313080Y-75967403D01*
X152924004Y-75853228D02*
X152908146Y-76155813D01*
X153151508Y-71512185D02*
X149556442Y-71323776D01*
X153151508Y-71512185D02*
X153135650Y-71814770D01*
X84226331Y-113634119D02*
G75*
G02*
X85948168Y-111390178I1982889J261052D01*
G01*
X88271534Y-129037896D02*
G75*
G02*
X86027592Y-127316058I-261053J1982889D01*
G01*
X102691887Y-109185825D02*
G75*
G02*
X104935828Y-110907662I261052J-1982889D01*
G01*
X106737091Y-124589601D02*
G75*
G02*
X105015253Y-126833542I-1982889J-261052D01*
G01*
X85789506Y-74546847D02*
X85793345Y-74656780D01*
X85789506Y-74546847D02*
X86778110Y-73486700D01*
X89326556Y-73397706D02*
X86778110Y-73486700D01*
X95421175Y-75286157D02*
X91823368Y-75411795D01*
X95421175Y-75286157D02*
X95431750Y-75588973D01*
X95572883Y-79630509D02*
X95583458Y-79933325D01*
X95583458Y-79933325D02*
X91985651Y-80058963D01*
X82132590Y-65383681D02*
X85732590Y-65383681D01*
X82132590Y-65686681D02*
X82132590Y-65383681D01*
X82132590Y-70033681D02*
X82132590Y-69730681D01*
X82132590Y-70033681D02*
X85732590Y-70033681D01*
X88157590Y-72133681D02*
X90707590Y-72133681D01*
X91732590Y-71108681D02*
X90707590Y-72133681D01*
X91732590Y-71108681D02*
X91732590Y-70998681D01*
X161095342Y-92926918D02*
X161089585Y-93036768D01*
X161095342Y-92926918D02*
X162172581Y-91956967D01*
X164719087Y-92090424D02*
X162172581Y-91956967D01*
X170382562Y-99146498D02*
X166787496Y-98958088D01*
X170398420Y-98843913D02*
X170382562Y-99146498D01*
X170625924Y-94502870D02*
X167030858Y-94314461D01*
X170625924Y-94502870D02*
X170610066Y-94805455D01*
X146467079Y-112628511D02*
X146452721Y-112737570D01*
X146467079Y-112628511D02*
X147617099Y-111746069D01*
X150145283Y-112078911D02*
X147617099Y-111746069D01*
X155237687Y-119557584D02*
X151668485Y-119087690D01*
X155277236Y-119257177D02*
X155237687Y-119557584D01*
X155844634Y-114947366D02*
X152275432Y-114477472D01*
X155844634Y-114947366D02*
X155805084Y-115247774D01*
X156753188Y-71990940D02*
X156769046Y-71688355D01*
X156753188Y-71990940D02*
X160348254Y-72179349D01*
X156980692Y-67649897D02*
X156996550Y-67347312D01*
X156996550Y-67347312D02*
X160591616Y-67535722D01*
X162660025Y-74403386D02*
X165206531Y-74536843D01*
X166283770Y-73566892D02*
X165206531Y-74536843D01*
X166283770Y-73566892D02*
X166289527Y-73457042D01*
X161881552Y-75939749D02*
X161875795Y-76049599D01*
X161881552Y-75939749D02*
X162958791Y-74969798D01*
X165505297Y-75103255D02*
X162958791Y-74969798D01*
X171168772Y-82159329D02*
X167573706Y-81970919D01*
X171184630Y-81856744D02*
X171168772Y-82159329D01*
X171412134Y-77515701D02*
X167817068Y-77327292D01*
X171412134Y-77515701D02*
X171396276Y-77818286D01*
D14*
X144111000Y-105140000D02*
X144111000Y-104390000D01*
X144111000Y-108770000D02*
X145111000Y-108370000D01*
X144111000Y-109520000D02*
X144111000Y-108770000D01*
X145111000Y-105540000D02*
X144111000Y-105140000D01*
X145111000Y-108370000D02*
X145111000Y-105540000D01*
X147731000Y-103020000D02*
X150231000Y-103020000D01*
X147731000Y-110890000D02*
X150231000Y-110890000D01*
X150231000Y-103020000D02*
X150231000Y-105670000D01*
X150231000Y-108240000D02*
X151621000Y-108240000D01*
X150231000Y-110890000D02*
X150231000Y-108240000D01*
D15*
X114584797Y-120116600D02*
X114584797Y-121539000D01*
X114584797Y-121539000D02*
X115479397Y-121539000D01*
X117607397Y-120065800D02*
X117607397Y-121539000D01*
X117607397Y-121539000D02*
X116729397Y-121539400D01*
D16*
G36*
X114607236Y-113077747D02*
G01*
X114654009Y-113094831D01*
X114769917Y-113136117D01*
X114942112Y-113196984D01*
X115160193Y-113273788D01*
X115413760Y-113362888D01*
X115692413Y-113460639D01*
X115985751Y-113563400D01*
X116283374Y-113667525D01*
X116574881Y-113769374D01*
X116849873Y-113865302D01*
X117097948Y-113951666D01*
X117308706Y-114024824D01*
X117471747Y-114081132D01*
X117702110Y-114160347D01*
X117702110Y-115146003D01*
X117501795Y-115146003D01*
X117501479Y-114293003D01*
X116810549Y-114053205D01*
X116685936Y-114009975D01*
X116374283Y-113901973D01*
X116035342Y-113784638D01*
X115702338Y-113669470D01*
X115408498Y-113567968D01*
X114697378Y-113322528D01*
X114697378Y-115146003D01*
X114497063Y-115146003D01*
X114497063Y-113034983D01*
X114607236Y-113077747D01*
G37*
D14*
X143311201Y-127943102D02*
X143208085Y-128726344D01*
X143671119Y-129806019D02*
X149322357Y-130550018D01*
X145282427Y-127143559D02*
X145480715Y-127169664D01*
X146595884Y-130191072D02*
X146427504Y-131470035D01*
X146598383Y-131704344D02*
X146427504Y-131470035D01*
X146598383Y-131704344D02*
X147490683Y-131821817D01*
X146769594Y-127339348D02*
X148455051Y-127561243D01*
X147490683Y-131821817D02*
X147716383Y-131639719D01*
X147716383Y-131639719D02*
X147884761Y-130360755D01*
X150049054Y-129626974D02*
X150152170Y-128843733D01*
%LPC*%
D12*
X87756130Y-115406955D02*
X86748822Y-115539569D01*
X86616207Y-114532261D01*
X87623515Y-114399647D01*
X87756130Y-115406955D01*
G36*
X87756130Y-115406955D02*
G01*
X86748822Y-115539569D01*
X86616207Y-114532261D01*
X87623515Y-114399647D01*
X87756130Y-115406955D01*
G37*
X89112845Y-125712231D02*
X88105537Y-125844846D01*
X87972923Y-124837538D01*
X88980231Y-124704923D01*
X89112845Y-125712231D01*
G36*
X89112845Y-125712231D02*
G01*
X88105537Y-125844846D01*
X87972923Y-124837538D01*
X88980231Y-124704923D01*
X89112845Y-125712231D01*
G37*
X89438017Y-115185530D02*
X88430709Y-115318145D01*
X88298094Y-114310837D01*
X89305402Y-114178222D01*
X89438017Y-115185530D01*
G36*
X89438017Y-115185530D02*
G01*
X88430709Y-115318145D01*
X88298094Y-114310837D01*
X89305402Y-114178222D01*
X89438017Y-115185530D01*
G37*
X90794732Y-125490806D02*
X89787424Y-125623421D01*
X89654810Y-124616113D01*
X90662118Y-124483498D01*
X90794732Y-125490806D01*
G36*
X90794732Y-125490806D02*
G01*
X89787424Y-125623421D01*
X89654810Y-124616113D01*
X90662118Y-124483498D01*
X90794732Y-125490806D01*
G37*
X91119904Y-114964106D02*
X90112596Y-115096720D01*
X89979981Y-114089412D01*
X90987289Y-113956798D01*
X91119904Y-114964106D01*
G36*
X91119904Y-114964106D02*
G01*
X90112596Y-115096720D01*
X89979981Y-114089412D01*
X90987289Y-113956798D01*
X91119904Y-114964106D01*
G37*
X92476619Y-125269382D02*
X91469311Y-125401996D01*
X91336697Y-124394688D01*
X92344005Y-124262074D01*
X92476619Y-125269382D01*
G36*
X92476619Y-125269382D02*
G01*
X91469311Y-125401996D01*
X91336697Y-124394688D01*
X92344005Y-124262074D01*
X92476619Y-125269382D01*
G37*
X96983111Y-114192200D02*
X95975803Y-114324814D01*
X95843188Y-113317506D01*
X96850496Y-113184892D01*
X96983111Y-114192200D01*
G36*
X96983111Y-114192200D02*
G01*
X95975803Y-114324814D01*
X95843188Y-113317506D01*
X96850496Y-113184892D01*
X96983111Y-114192200D01*
G37*
X98339826Y-124497476D02*
X97332518Y-124630091D01*
X97199903Y-123622783D01*
X98207211Y-123490168D01*
X98339826Y-124497476D01*
G36*
X98339826Y-124497476D02*
G01*
X97332518Y-124630091D01*
X97199903Y-123622783D01*
X98207211Y-123490168D01*
X98339826Y-124497476D01*
G37*
X98665295Y-113970736D02*
X97657987Y-114103351D01*
X97525373Y-113096043D01*
X98532681Y-112963428D01*
X98665295Y-113970736D01*
G36*
X98665295Y-113970736D02*
G01*
X97657987Y-114103351D01*
X97525373Y-113096043D01*
X98532681Y-112963428D01*
X98665295Y-113970736D01*
G37*
X100022010Y-124276012D02*
X99014703Y-124408627D01*
X98882088Y-123401319D01*
X99889396Y-123268704D01*
X100022010Y-124276012D01*
G36*
X100022010Y-124276012D02*
G01*
X99014703Y-124408627D01*
X98882088Y-123401319D01*
X99889396Y-123268704D01*
X100022010Y-124276012D01*
G37*
X100347480Y-113749272D02*
X99340172Y-113881887D01*
X99207557Y-112874579D01*
X100214865Y-112741964D01*
X100347480Y-113749272D01*
G36*
X100347480Y-113749272D02*
G01*
X99340172Y-113881887D01*
X99207557Y-112874579D01*
X100214865Y-112741964D01*
X100347480Y-113749272D01*
G37*
X101704195Y-124054548D02*
X100696887Y-124187163D01*
X100564272Y-123179855D01*
X101571580Y-123047240D01*
X101704195Y-124054548D01*
G36*
X101704195Y-124054548D02*
G01*
X100696887Y-124187163D01*
X100564272Y-123179855D01*
X101571580Y-123047240D01*
X101704195Y-124054548D01*
G37*
X102370027Y-113482999D02*
X101362719Y-113615613D01*
X101230105Y-112608305D01*
X102237413Y-112475691D01*
X102370027Y-113482999D01*
G36*
X102370027Y-113482999D02*
G01*
X101362719Y-113615613D01*
X101230105Y-112608305D01*
X102237413Y-112475691D01*
X102370027Y-113482999D01*
G37*
X103726743Y-123788275D02*
X102719435Y-123920892D01*
X102586820Y-122913582D01*
X103594128Y-122780967D01*
X103726743Y-123788275D01*
G36*
X103726743Y-123788275D02*
G01*
X102719435Y-123920892D01*
X102586820Y-122913582D01*
X103594128Y-122780967D01*
X103726743Y-123788275D01*
G37*
D17*
X176253908Y-113513671D03*
X178841352Y-112550533D03*
X179358990Y-110618681D03*
X174322057Y-112996033D03*
X172562834Y-110868209D03*
X173080472Y-108936357D03*
X172636778Y-113915762D03*
X174568630Y-114433400D03*
X176500482Y-114951038D03*
X173801464Y-109569096D03*
X175733316Y-110086734D03*
X177665168Y-110604372D03*
D18*
X159038990Y-122025081D03*
X159038990Y-125425081D03*
D19*
X156016390Y-124967881D03*
X156016390Y-121567881D03*
X171019105Y-106248849D03*
X171019105Y-102848849D03*
X152578705Y-100982449D03*
X152578705Y-97582449D03*
X134197790Y-95945081D03*
X134197790Y-92545081D03*
X116262190Y-98637481D03*
X116262190Y-95237481D03*
X97761390Y-101904681D03*
X97761390Y-98504681D03*
X171129390Y-89712681D03*
X171129390Y-86312681D03*
X152778431Y-84192916D03*
X152778431Y-80792916D03*
X134197790Y-78977881D03*
X134197790Y-75577881D03*
X116262190Y-81721081D03*
X116262190Y-78321081D03*
X97450660Y-84688298D03*
X97450660Y-81288298D03*
X156332694Y-64659350D03*
X156332694Y-61259350D03*
X153078020Y-67209817D03*
X153078020Y-63809817D03*
X134197790Y-62213881D03*
X134197790Y-58813881D03*
X116262190Y-64076081D03*
X116262190Y-60676081D03*
X97761390Y-64058681D03*
X97761390Y-60658681D03*
D20*
X102246390Y-95208681D03*
D21*
X102746390Y-91408681D03*
D22*
X102746390Y-100358681D03*
D21*
X107746390Y-89308681D03*
D23*
X107746390Y-95208681D03*
D21*
X112746390Y-91408681D03*
D22*
X112746390Y-100358681D03*
D20*
X113246390Y-95208681D03*
D24*
X104946390Y-89308681D03*
D25*
X115546390Y-91408681D03*
D26*
X100720590Y-106203881D03*
D20*
X120546190Y-75408681D03*
D21*
X121046190Y-71608681D03*
D22*
X121046190Y-80558681D03*
D21*
X126046190Y-69508681D03*
D23*
X126046190Y-75408681D03*
D21*
X131046190Y-71608681D03*
D22*
X131046190Y-80558681D03*
D20*
X131546190Y-75408681D03*
D24*
X123246190Y-69508681D03*
D25*
X133846190Y-71608681D03*
D20*
X102246390Y-78208681D03*
D21*
X102746390Y-74408681D03*
D22*
X102746390Y-83358681D03*
D21*
X107746390Y-72308681D03*
D23*
X107746390Y-78208681D03*
D21*
X112746390Y-74408681D03*
D22*
X112746390Y-83358681D03*
D20*
X113246390Y-78208681D03*
D24*
X104946390Y-72308681D03*
D25*
X115546390Y-74408681D03*
D27*
X145192308Y-128594207D03*
X148166642Y-128985785D03*
D20*
X120546190Y-92408681D03*
D21*
X121046190Y-88608681D03*
D22*
X121046190Y-97558681D03*
D21*
X126046190Y-86508681D03*
D23*
X126046190Y-92408681D03*
D21*
X131046190Y-88608681D03*
D22*
X131046190Y-97558681D03*
D20*
X131546190Y-92408681D03*
D24*
X123246190Y-86508681D03*
D25*
X133846190Y-88608681D03*
D20*
X102246390Y-60563681D03*
D21*
X102746390Y-56763681D03*
D22*
X102746390Y-65713681D03*
D21*
X107746390Y-54663681D03*
D23*
X107746390Y-60563681D03*
D21*
X112746390Y-56763681D03*
D22*
X112746390Y-65713681D03*
D20*
X113246390Y-60563681D03*
D24*
X104946390Y-54663681D03*
D25*
X115546390Y-56763681D03*
D20*
X83149940Y-99200428D03*
D21*
X83517018Y-95385293D03*
D22*
X83829368Y-104329841D03*
D21*
X88440683Y-93112075D03*
D23*
X88646590Y-99008481D03*
D21*
X93510926Y-95036298D03*
D22*
X93823277Y-103980846D03*
D20*
X94143240Y-98816534D03*
D28*
X85642389Y-93209794D03*
D29*
X96309220Y-94938580D03*
D20*
X140474850Y-59957705D03*
D21*
X141173041Y-56189081D03*
D22*
X140704634Y-65126815D03*
D21*
X146276094Y-54353639D03*
D23*
X145967312Y-60245553D03*
D21*
X151159336Y-56712441D03*
D22*
X150690929Y-65650175D03*
D20*
X151459774Y-60533401D03*
D30*
X143479931Y-54207098D03*
D31*
X153955499Y-56858981D03*
D26*
X159054800Y-114147600D03*
D20*
X161884409Y-122481671D03*
D21*
X163350884Y-118940563D03*
D22*
X161034454Y-127585599D03*
D21*
X168724033Y-118206214D03*
D23*
X167197001Y-123905176D03*
D21*
X173010143Y-121528753D03*
D22*
X170693712Y-130173789D03*
D20*
X172509593Y-125328681D03*
D32*
X166019441Y-117481520D03*
D33*
X175714735Y-122253446D03*
D20*
X120546190Y-58408681D03*
D21*
X121046190Y-54608681D03*
D22*
X121046190Y-63558681D03*
D21*
X126046190Y-52508681D03*
D23*
X126046190Y-58408681D03*
D21*
X131046190Y-54608681D03*
D22*
X131046190Y-63558681D03*
D20*
X131546190Y-58408681D03*
D24*
X123246190Y-52508681D03*
D25*
X133846190Y-54608681D03*
D20*
X139594184Y-93958412D03*
D21*
X140292375Y-90189788D03*
D22*
X139823968Y-99127522D03*
D21*
X145395428Y-88354346D03*
D23*
X145086646Y-94246260D03*
D21*
X150278670Y-90713148D03*
D22*
X149810263Y-99650882D03*
D20*
X150579108Y-94534108D03*
D30*
X142599265Y-88207805D03*
D31*
X153074833Y-90859688D03*
D20*
X140034512Y-76958158D03*
D21*
X140732703Y-73189534D03*
D22*
X140264296Y-82127268D03*
D21*
X145835756Y-71354092D03*
D23*
X145526974Y-77246006D03*
D21*
X150718998Y-73712894D03*
D22*
X150250591Y-82650628D03*
D20*
X151019436Y-77533854D03*
D30*
X143039593Y-71207551D03*
D31*
X153515161Y-73859434D03*
D34*
X88850169Y-127608944D03*
X91368439Y-127277407D03*
X93886709Y-126945871D03*
X96404979Y-126614334D03*
X101441518Y-125951261D03*
X103959790Y-125619724D03*
X98923248Y-126282797D03*
D35*
X88576038Y-125526711D03*
X90257925Y-125305287D03*
X91939812Y-125083862D03*
X97803018Y-124311956D03*
X99485203Y-124090492D03*
X103189935Y-123602755D03*
X101167387Y-123869028D03*
D36*
X99744365Y-113060099D03*
X87153015Y-114717781D03*
X88834902Y-114496357D03*
X90516789Y-114274932D03*
X96379996Y-113503026D03*
X98062180Y-113281562D03*
X101766912Y-112793825D03*
D34*
X96951964Y-111309404D03*
X86878884Y-112635549D03*
X89397154Y-112304012D03*
X91915424Y-111972476D03*
X94433694Y-111640939D03*
X99470234Y-110977866D03*
X101988507Y-110646329D03*
D37*
X88443423Y-124519403D03*
X90125310Y-124297979D03*
X91807197Y-124076554D03*
X97670404Y-123304648D03*
X99352588Y-123083183D03*
X101034773Y-122861723D03*
X103057320Y-122595447D03*
D38*
X101899527Y-113801133D03*
X99876979Y-114067405D03*
X98194795Y-114288870D03*
X96512610Y-114510334D03*
X90649404Y-115282240D03*
X88967517Y-115503664D03*
X87285630Y-115725089D03*
D26*
X96961390Y-53468681D03*
D20*
X82828740Y-81854628D03*
D21*
X83195818Y-78039493D03*
D22*
X83508168Y-86984041D03*
D21*
X88119483Y-75766275D03*
D23*
X88325390Y-81662681D03*
D21*
X93189726Y-77690498D03*
D22*
X93502077Y-86635046D03*
D20*
X93822040Y-81470734D03*
D28*
X85321189Y-75863994D03*
D29*
X95988020Y-77592780D03*
D20*
X94946590Y-63908681D03*
D21*
X94446590Y-67708681D03*
D22*
X94446590Y-58758681D03*
D21*
X89446590Y-69808681D03*
D23*
X89446590Y-63908681D03*
D21*
X84446590Y-67708681D03*
D22*
X84446590Y-58758681D03*
D20*
X83946590Y-63908681D03*
D39*
X92246590Y-69808681D03*
D40*
X81646590Y-67708681D03*
D20*
X95657918Y-123376142D03*
X157508928Y-99948843D03*
D21*
X158207119Y-96180219D03*
D22*
X157738712Y-105117953D03*
D21*
X163310172Y-94344777D03*
D23*
X163001390Y-100236691D03*
D21*
X168193414Y-96703579D03*
D22*
X167725007Y-105641313D03*
D20*
X168493852Y-100524539D03*
D30*
X160514009Y-94198236D03*
D31*
X170989577Y-96850119D03*
D26*
X157210190Y-55348281D03*
D41*
X133604000Y-119888000D03*
D20*
X94550195Y-114962146D03*
X142340786Y-119347403D03*
D21*
X143332508Y-115645176D03*
D22*
X142164299Y-124518607D03*
D21*
X148563838Y-114215772D03*
D23*
X147793733Y-120065297D03*
D21*
X153246957Y-116950436D03*
D22*
X152078747Y-125823869D03*
D20*
X153246680Y-120783191D03*
D42*
X145787792Y-113850299D03*
D43*
X156023002Y-117315911D03*
D41*
X111363786Y-122815980D03*
D20*
X169870184Y-66544967D03*
D21*
X169171993Y-70313591D03*
D22*
X169640400Y-61375857D03*
D21*
X164068940Y-72149033D03*
D23*
X164377722Y-66257119D03*
D21*
X159185698Y-69790231D03*
D22*
X159654105Y-60852497D03*
D20*
X158885260Y-65969271D03*
D44*
X166865103Y-72295574D03*
D45*
X156389535Y-69643691D03*
D20*
X158295138Y-82961674D03*
D21*
X158993329Y-79193050D03*
D22*
X158524922Y-88130784D03*
D21*
X164096382Y-77357608D03*
D23*
X163787600Y-83249522D03*
D21*
X168979624Y-79716410D03*
D22*
X168511217Y-88654144D03*
D20*
X169280062Y-83537370D03*
D30*
X161300219Y-77211067D03*
D31*
X171775787Y-79862950D03*
D46*
X150671000Y-107580000D03*
X150671000Y-106330000D03*
D47*
X145796000Y-110430000D03*
X145796000Y-103480000D03*
D48*
X116419397Y-121589800D03*
D49*
X116078000Y-123561277D03*
D50*
X116078000Y-123190000D03*
D51*
X116072603Y-123901200D03*
D52*
X115829397Y-121589800D03*
D53*
X150154670Y-130357005D03*
X150443133Y-128165912D03*
D27*
X148166642Y-128985785D03*
X145192308Y-128594207D03*
D53*
X143205586Y-127213071D03*
X142917122Y-129404164D03*
D54*
X149139952Y-127338737D03*
X146165618Y-126947158D03*
X144678450Y-126751369D03*
%LPD*%
M02*
