G04 #@! TF.GenerationSoftware,KiCad,Pcbnew,9.0.2*
G04 #@! TF.CreationDate,2025-07-12T22:53:39+08:00*
G04 #@! TF.ProjectId,Kretstr_d_v2,4b726574-7374-472e-9464-5f76322e6b69,rev?*
G04 #@! TF.SameCoordinates,Original*
G04 #@! TF.FileFunction,Legend,Top*
G04 #@! TF.FilePolarity,Positive*
%FSLAX46Y46*%
G04 Gerber Fmt 4.6, Leading zero omitted, Abs format (unit mm)*
G04 Created by KiCad (PCBNEW 9.0.2) date 2025-07-12 22:53:39*
%MOMM*%
%LPD*%
G01*
G04 APERTURE LIST*
G04 Aperture macros list*
%AMRoundRect*
0 Rectangle with rounded corners*
0 $1 Rounding radius*
0 $2 $3 $4 $5 $6 $7 $8 $9 X,Y pos of 4 corners*
0 Add a 4 corners polygon primitive as box body*
4,1,4,$2,$3,$4,$5,$6,$7,$8,$9,$2,$3,0*
0 Add four circle primitives for the rounded corners*
1,1,$1+$1,$2,$3*
1,1,$1+$1,$4,$5*
1,1,$1+$1,$6,$7*
1,1,$1+$1,$8,$9*
0 Add four rect primitives between the rounded corners*
20,1,$1+$1,$2,$3,$4,$5,0*
20,1,$1+$1,$4,$5,$6,$7,0*
20,1,$1+$1,$6,$7,$8,$9,0*
20,1,$1+$1,$8,$9,$2,$3,0*%
%AMFreePoly0*
4,1,22,0.886777,1.280194,0.956366,1.224698,0.994986,1.144504,1.000000,1.100000,1.000000,-0.780000,0.980194,-0.866777,0.941421,-0.921421,0.621421,-1.241421,0.546056,-1.288777,0.480000,-1.300000,-0.800000,-1.300000,-0.886777,-1.280194,-0.956366,-1.224698,-0.994986,-1.144504,-1.000000,-1.100000,-1.000000,1.100000,-0.980194,1.186777,-0.924698,1.256366,-0.844504,1.294986,-0.800000,1.300000,
0.800000,1.300000,0.886777,1.280194,0.886777,1.280194,$1*%
%AMFreePoly1*
4,1,22,0.686777,0.580194,0.756366,0.524698,0.794986,0.444504,0.800000,0.400000,0.800000,0.200000,0.780194,0.113223,0.741421,0.058579,0.141421,-0.541421,0.066056,-0.588777,-0.022393,-0.598742,-0.106406,-0.569345,-0.141421,-0.541421,-0.741421,0.058579,-0.788777,0.133944,-0.800000,0.200000,-0.800000,0.400000,-0.780193,0.486777,-0.724698,0.556366,-0.644504,0.594986,-0.600000,0.600000,
0.600000,0.600000,0.686777,0.580194,0.686777,0.580194,$1*%
%AMFreePoly2*
4,1,26,0.706406,1.169345,0.769345,1.106406,0.798742,1.022393,0.800000,1.000000,0.800000,-0.250000,0.780194,-0.336777,0.724699,-0.406366,0.644505,-0.444986,0.600000,-0.450000,-0.600000,-0.450000,-0.686777,-0.430194,-0.756366,-0.374698,-0.794986,-0.294504,-0.800000,-0.250000,-0.800000,1.000000,-0.780194,1.086777,-0.724698,1.156366,-0.644504,1.194986,-0.555496,1.194986,-0.475302,1.156366,
-0.458579,1.141421,0.000000,0.682842,0.458579,1.141421,0.533944,1.188778,0.622393,1.198742,0.706406,1.169345,0.706406,1.169345,$1*%
G04 Aperture macros list end*
%ADD10C,0.338000*%
%ADD11C,0.150000*%
%ADD12C,0.100000*%
%ADD13C,0.200000*%
%ADD14C,0.120000*%
%ADD15C,1.600000*%
%ADD16RoundRect,0.200000X-0.700000X0.600000X-0.700000X-0.600000X0.700000X-0.600000X0.700000X0.600000X0*%
%ADD17RoundRect,0.200000X0.700000X-0.600000X0.700000X0.600000X-0.700000X0.600000X-0.700000X-0.600000X0*%
%ADD18C,2.300000*%
%ADD19C,3.400000*%
%ADD20C,2.000000*%
%ADD21C,5.280000*%
%ADD22RoundRect,0.200000X-0.800000X-1.100000X0.800000X-1.100000X0.800000X1.100000X-0.800000X1.100000X0*%
%ADD23FreePoly0,0.000000*%
%ADD24C,3.600000*%
%ADD25RoundRect,0.200000X-0.547933X-0.331315X0.443512X-0.461841X0.547933X0.331315X-0.443512X0.461841X0*%
%ADD26C,1.300000*%
%ADD27RoundRect,0.200000X-0.444900X-0.697899X0.249111X-0.789268X0.444900X0.697899X-0.249111X0.789268X0*%
%ADD28RoundRect,0.200000X-0.761123X-1.127250X0.837902X-1.071410X0.761123X1.127250X-0.837902X1.071410X0*%
%ADD29FreePoly0,2.000000*%
%ADD30RoundRect,0.200000X-0.856473X-1.056624X0.741334X-1.140361X0.856473X1.056624X-0.741334X1.140361X0*%
%ADD31FreePoly0,357.000000*%
%ADD32RoundRect,0.200000X-1.057442X-0.855463X0.488040X-1.269574X1.057442X0.855463X-0.488040X1.269574X0*%
%ADD33FreePoly0,345.000000*%
%ADD34C,2.500000*%
%ADD35FreePoly1,187.500000*%
%ADD36FreePoly1,7.500000*%
%ADD37FreePoly2,7.500000*%
%ADD38FreePoly2,187.500000*%
%ADD39RoundRect,0.300000X-0.850000X0.300000X-0.850000X-0.300000X0.850000X-0.300000X0.850000X0.300000X0*%
%ADD40RoundRect,0.326924X-1.548076X0.523076X-1.548076X-0.523076X1.548076X-0.523076X1.548076X0.523076X0*%
%ADD41RoundRect,0.200000X0.800000X1.100000X-0.800000X1.100000X-0.800000X-1.100000X0.800000X-1.100000X0*%
%ADD42FreePoly0,180.000000*%
%ADD43C,4.200000*%
%ADD44RoundRect,0.200000X-0.936735X-0.986168X0.649577X-1.195010X0.936735X0.986168X-0.649577X1.195010X0*%
%ADD45FreePoly0,352.500000*%
%ADD46RoundRect,0.200000X0.856473X1.056624X-0.741334X1.140361X-0.856473X-1.056624X0.741334X-1.140361X0*%
%ADD47FreePoly0,177.000000*%
G04 APERTURE END LIST*
D10*
X95596259Y-116102852D02*
G75*
G02*
X94550195Y-113412605I-1046059J1141752D01*
G01*
D11*
X78428315Y-67736715D02*
X79306827Y-67105671D01*
X78407375Y-67137080D02*
X79327767Y-67705305D01*
X79297853Y-66848684D02*
X78681766Y-66398483D01*
X78698218Y-66869624D02*
X79281400Y-66377543D01*
X79272426Y-66120557D02*
X78656339Y-65670355D01*
X78672792Y-66141497D02*
X79255973Y-65649416D01*
X79246999Y-65392430D02*
X78630912Y-64942228D01*
X78647365Y-65413370D02*
X79230547Y-64921288D01*
X78875933Y-64590606D02*
X78852002Y-63905310D01*
X79182684Y-63550695D02*
X78566597Y-63100494D01*
X78583050Y-63571635D02*
X79166232Y-63079554D01*
X79157258Y-62822568D02*
X78541171Y-62372367D01*
X78557623Y-62843508D02*
X79140805Y-62351427D01*
X79131831Y-62094441D02*
X78515744Y-61644239D01*
X78532196Y-62115381D02*
X79115378Y-61623300D01*
X79106404Y-61366314D02*
X78490317Y-60916112D01*
X78506770Y-61387254D02*
X79089952Y-60895173D01*
X108241802Y-108495913D02*
X108354302Y-107595913D01*
X108756088Y-108495913D02*
X108434659Y-107981627D01*
X108868588Y-107595913D02*
X108290016Y-108110198D01*
X109141802Y-108495913D02*
X109216802Y-107895913D01*
X109195374Y-108067341D02*
X109248945Y-107981627D01*
X109248945Y-107981627D02*
X109297159Y-107938770D01*
X109297159Y-107938770D02*
X109388231Y-107895913D01*
X109388231Y-107895913D02*
X109473945Y-107895913D01*
X110047159Y-108453056D02*
X109956088Y-108495913D01*
X109956088Y-108495913D02*
X109784659Y-108495913D01*
X109784659Y-108495913D02*
X109704302Y-108453056D01*
X109704302Y-108453056D02*
X109672159Y-108367341D01*
X109672159Y-108367341D02*
X109715017Y-108024484D01*
X109715017Y-108024484D02*
X109768588Y-107938770D01*
X109768588Y-107938770D02*
X109859659Y-107895913D01*
X109859659Y-107895913D02*
X110031088Y-107895913D01*
X110031088Y-107895913D02*
X110111445Y-107938770D01*
X110111445Y-107938770D02*
X110143588Y-108024484D01*
X110143588Y-108024484D02*
X110132874Y-108110198D01*
X110132874Y-108110198D02*
X109693588Y-108195913D01*
X110416803Y-107895913D02*
X110759660Y-107895913D01*
X110582874Y-107595913D02*
X110486446Y-108367341D01*
X110486446Y-108367341D02*
X110518588Y-108453056D01*
X110518588Y-108453056D02*
X110598946Y-108495913D01*
X110598946Y-108495913D02*
X110684660Y-108495913D01*
X110947160Y-108453056D02*
X111027517Y-108495913D01*
X111027517Y-108495913D02*
X111198946Y-108495913D01*
X111198946Y-108495913D02*
X111290017Y-108453056D01*
X111290017Y-108453056D02*
X111343589Y-108367341D01*
X111343589Y-108367341D02*
X111348946Y-108324484D01*
X111348946Y-108324484D02*
X111316803Y-108238770D01*
X111316803Y-108238770D02*
X111236446Y-108195913D01*
X111236446Y-108195913D02*
X111107874Y-108195913D01*
X111107874Y-108195913D02*
X111027517Y-108153056D01*
X111027517Y-108153056D02*
X110995374Y-108067341D01*
X110995374Y-108067341D02*
X111000732Y-108024484D01*
X111000732Y-108024484D02*
X111054303Y-107938770D01*
X111054303Y-107938770D02*
X111145374Y-107895913D01*
X111145374Y-107895913D02*
X111273946Y-107895913D01*
X111273946Y-107895913D02*
X111354303Y-107938770D01*
X111659660Y-107895913D02*
X112002517Y-107895913D01*
X111825731Y-107595913D02*
X111729303Y-108367341D01*
X111729303Y-108367341D02*
X111761445Y-108453056D01*
X111761445Y-108453056D02*
X111841803Y-108495913D01*
X111841803Y-108495913D02*
X111927517Y-108495913D01*
X112227517Y-108495913D02*
X112302517Y-107895913D01*
X112281089Y-108067341D02*
X112334660Y-107981627D01*
X112334660Y-107981627D02*
X112382874Y-107938770D01*
X112382874Y-107938770D02*
X112473946Y-107895913D01*
X112473946Y-107895913D02*
X112559660Y-107895913D01*
X113170374Y-108495913D02*
X113229303Y-108024484D01*
X113229303Y-108024484D02*
X113197160Y-107938770D01*
X113197160Y-107938770D02*
X113116803Y-107895913D01*
X113116803Y-107895913D02*
X112945374Y-107895913D01*
X112945374Y-107895913D02*
X112854303Y-107938770D01*
X113175732Y-108453056D02*
X113084660Y-108495913D01*
X113084660Y-108495913D02*
X112870374Y-108495913D01*
X112870374Y-108495913D02*
X112790017Y-108453056D01*
X112790017Y-108453056D02*
X112757874Y-108367341D01*
X112757874Y-108367341D02*
X112768589Y-108281627D01*
X112768589Y-108281627D02*
X112822160Y-108195913D01*
X112822160Y-108195913D02*
X112913232Y-108153056D01*
X112913232Y-108153056D02*
X113127517Y-108153056D01*
X113127517Y-108153056D02*
X113218589Y-108110198D01*
X112897160Y-107595913D02*
X112934660Y-107638770D01*
X112934660Y-107638770D02*
X112886446Y-107681627D01*
X112886446Y-107681627D02*
X112848946Y-107638770D01*
X112848946Y-107638770D02*
X112897160Y-107595913D01*
X112897160Y-107595913D02*
X112886446Y-107681627D01*
X113240017Y-107595913D02*
X113277517Y-107638770D01*
X113277517Y-107638770D02*
X113229303Y-107681627D01*
X113229303Y-107681627D02*
X113191803Y-107638770D01*
X113191803Y-107638770D02*
X113240017Y-107595913D01*
X113240017Y-107595913D02*
X113229303Y-107681627D01*
X113984660Y-108495913D02*
X114097160Y-107595913D01*
X113990018Y-108453056D02*
X113898946Y-108495913D01*
X113898946Y-108495913D02*
X113727518Y-108495913D01*
X113727518Y-108495913D02*
X113647160Y-108453056D01*
X113647160Y-108453056D02*
X113609660Y-108410198D01*
X113609660Y-108410198D02*
X113577518Y-108324484D01*
X113577518Y-108324484D02*
X113609660Y-108067341D01*
X113609660Y-108067341D02*
X113663232Y-107981627D01*
X113663232Y-107981627D02*
X113711446Y-107938770D01*
X113711446Y-107938770D02*
X113802518Y-107895913D01*
X113802518Y-107895913D02*
X113973946Y-107895913D01*
X113973946Y-107895913D02*
X114054303Y-107938770D01*
X114461446Y-108453056D02*
X114456089Y-108495913D01*
X114456089Y-108495913D02*
X114402518Y-108581627D01*
X114402518Y-108581627D02*
X114354304Y-108624484D01*
X116052517Y-108410198D02*
X116004303Y-108453056D01*
X116004303Y-108453056D02*
X115870374Y-108495913D01*
X115870374Y-108495913D02*
X115784660Y-108495913D01*
X115784660Y-108495913D02*
X115661446Y-108453056D01*
X115661446Y-108453056D02*
X115586446Y-108367341D01*
X115586446Y-108367341D02*
X115554303Y-108281627D01*
X115554303Y-108281627D02*
X115532874Y-108110198D01*
X115532874Y-108110198D02*
X115548946Y-107981627D01*
X115548946Y-107981627D02*
X115613231Y-107810198D01*
X115613231Y-107810198D02*
X115666803Y-107724484D01*
X115666803Y-107724484D02*
X115763231Y-107638770D01*
X115763231Y-107638770D02*
X115897160Y-107595913D01*
X115897160Y-107595913D02*
X115982874Y-107595913D01*
X115982874Y-107595913D02*
X116106089Y-107638770D01*
X116106089Y-107638770D02*
X116143589Y-107681627D01*
X116427517Y-108495913D02*
X116502517Y-107895913D01*
X116540017Y-107595913D02*
X116491803Y-107638770D01*
X116491803Y-107638770D02*
X116529303Y-107681627D01*
X116529303Y-107681627D02*
X116577517Y-107638770D01*
X116577517Y-107638770D02*
X116540017Y-107595913D01*
X116540017Y-107595913D02*
X116529303Y-107681627D01*
X116856088Y-108495913D02*
X116931088Y-107895913D01*
X116909660Y-108067341D02*
X116963231Y-107981627D01*
X116963231Y-107981627D02*
X117011445Y-107938770D01*
X117011445Y-107938770D02*
X117102517Y-107895913D01*
X117102517Y-107895913D02*
X117188231Y-107895913D01*
X117804303Y-108453056D02*
X117713231Y-108495913D01*
X117713231Y-108495913D02*
X117541803Y-108495913D01*
X117541803Y-108495913D02*
X117461445Y-108453056D01*
X117461445Y-108453056D02*
X117423945Y-108410198D01*
X117423945Y-108410198D02*
X117391803Y-108324484D01*
X117391803Y-108324484D02*
X117423945Y-108067341D01*
X117423945Y-108067341D02*
X117477517Y-107981627D01*
X117477517Y-107981627D02*
X117525731Y-107938770D01*
X117525731Y-107938770D02*
X117616803Y-107895913D01*
X117616803Y-107895913D02*
X117788231Y-107895913D01*
X117788231Y-107895913D02*
X117868588Y-107938770D01*
X118645374Y-107895913D02*
X118570374Y-108495913D01*
X118259660Y-107895913D02*
X118200732Y-108367341D01*
X118200732Y-108367341D02*
X118232874Y-108453056D01*
X118232874Y-108453056D02*
X118313232Y-108495913D01*
X118313232Y-108495913D02*
X118441803Y-108495913D01*
X118441803Y-108495913D02*
X118532874Y-108453056D01*
X118532874Y-108453056D02*
X118581089Y-108410198D01*
X118998946Y-108495913D02*
X119073946Y-107895913D01*
X119111446Y-107595913D02*
X119063232Y-107638770D01*
X119063232Y-107638770D02*
X119100732Y-107681627D01*
X119100732Y-107681627D02*
X119148946Y-107638770D01*
X119148946Y-107638770D02*
X119111446Y-107595913D01*
X119111446Y-107595913D02*
X119100732Y-107681627D01*
X119373946Y-107895913D02*
X119716803Y-107895913D01*
X119540017Y-107595913D02*
X119443589Y-108367341D01*
X119443589Y-108367341D02*
X119475731Y-108453056D01*
X119475731Y-108453056D02*
X119556089Y-108495913D01*
X119556089Y-108495913D02*
X119641803Y-108495913D01*
X120611446Y-107595913D02*
X121125731Y-107595913D01*
X120756089Y-108495913D02*
X120868589Y-107595913D01*
X121313231Y-108495913D02*
X121388231Y-107895913D01*
X121366803Y-108067341D02*
X121420374Y-107981627D01*
X121420374Y-107981627D02*
X121468588Y-107938770D01*
X121468588Y-107938770D02*
X121559660Y-107895913D01*
X121559660Y-107895913D02*
X121645374Y-107895913D01*
X122218588Y-108453056D02*
X122127517Y-108495913D01*
X122127517Y-108495913D02*
X121956088Y-108495913D01*
X121956088Y-108495913D02*
X121875731Y-108453056D01*
X121875731Y-108453056D02*
X121843588Y-108367341D01*
X121843588Y-108367341D02*
X121886446Y-108024484D01*
X121886446Y-108024484D02*
X121940017Y-107938770D01*
X121940017Y-107938770D02*
X122031088Y-107895913D01*
X122031088Y-107895913D02*
X122202517Y-107895913D01*
X122202517Y-107895913D02*
X122282874Y-107938770D01*
X122282874Y-107938770D02*
X122315017Y-108024484D01*
X122315017Y-108024484D02*
X122304303Y-108110198D01*
X122304303Y-108110198D02*
X121865017Y-108195913D01*
X122990017Y-108453056D02*
X122898946Y-108495913D01*
X122898946Y-108495913D02*
X122727517Y-108495913D01*
X122727517Y-108495913D02*
X122647160Y-108453056D01*
X122647160Y-108453056D02*
X122615017Y-108367341D01*
X122615017Y-108367341D02*
X122657875Y-108024484D01*
X122657875Y-108024484D02*
X122711446Y-107938770D01*
X122711446Y-107938770D02*
X122802517Y-107895913D01*
X122802517Y-107895913D02*
X122973946Y-107895913D01*
X122973946Y-107895913D02*
X123054303Y-107938770D01*
X123054303Y-107938770D02*
X123086446Y-108024484D01*
X123086446Y-108024484D02*
X123075732Y-108110198D01*
X123075732Y-108110198D02*
X122636446Y-108195913D01*
X123461446Y-108453056D02*
X123456089Y-108495913D01*
X123456089Y-108495913D02*
X123402518Y-108581627D01*
X123402518Y-108581627D02*
X123354304Y-108624484D01*
X125052517Y-108410198D02*
X125004303Y-108453056D01*
X125004303Y-108453056D02*
X124870374Y-108495913D01*
X124870374Y-108495913D02*
X124784660Y-108495913D01*
X124784660Y-108495913D02*
X124661446Y-108453056D01*
X124661446Y-108453056D02*
X124586446Y-108367341D01*
X124586446Y-108367341D02*
X124554303Y-108281627D01*
X124554303Y-108281627D02*
X124532874Y-108110198D01*
X124532874Y-108110198D02*
X124548946Y-107981627D01*
X124548946Y-107981627D02*
X124613231Y-107810198D01*
X124613231Y-107810198D02*
X124666803Y-107724484D01*
X124666803Y-107724484D02*
X124763231Y-107638770D01*
X124763231Y-107638770D02*
X124897160Y-107595913D01*
X124897160Y-107595913D02*
X124982874Y-107595913D01*
X124982874Y-107595913D02*
X125106089Y-107638770D01*
X125106089Y-107638770D02*
X125143589Y-107681627D01*
X125427517Y-108495913D02*
X125502517Y-107895913D01*
X125540017Y-107595913D02*
X125491803Y-107638770D01*
X125491803Y-107638770D02*
X125529303Y-107681627D01*
X125529303Y-107681627D02*
X125577517Y-107638770D01*
X125577517Y-107638770D02*
X125540017Y-107595913D01*
X125540017Y-107595913D02*
X125529303Y-107681627D01*
X125856088Y-108495913D02*
X125931088Y-107895913D01*
X125909660Y-108067341D02*
X125963231Y-107981627D01*
X125963231Y-107981627D02*
X126011445Y-107938770D01*
X126011445Y-107938770D02*
X126102517Y-107895913D01*
X126102517Y-107895913D02*
X126188231Y-107895913D01*
X126804303Y-108453056D02*
X126713231Y-108495913D01*
X126713231Y-108495913D02*
X126541803Y-108495913D01*
X126541803Y-108495913D02*
X126461445Y-108453056D01*
X126461445Y-108453056D02*
X126423945Y-108410198D01*
X126423945Y-108410198D02*
X126391803Y-108324484D01*
X126391803Y-108324484D02*
X126423945Y-108067341D01*
X126423945Y-108067341D02*
X126477517Y-107981627D01*
X126477517Y-107981627D02*
X126525731Y-107938770D01*
X126525731Y-107938770D02*
X126616803Y-107895913D01*
X126616803Y-107895913D02*
X126788231Y-107895913D01*
X126788231Y-107895913D02*
X126868588Y-107938770D01*
X127645374Y-107895913D02*
X127570374Y-108495913D01*
X127259660Y-107895913D02*
X127200732Y-108367341D01*
X127200732Y-108367341D02*
X127232874Y-108453056D01*
X127232874Y-108453056D02*
X127313232Y-108495913D01*
X127313232Y-108495913D02*
X127441803Y-108495913D01*
X127441803Y-108495913D02*
X127532874Y-108453056D01*
X127532874Y-108453056D02*
X127581089Y-108410198D01*
X127998946Y-108495913D02*
X128073946Y-107895913D01*
X128111446Y-107595913D02*
X128063232Y-107638770D01*
X128063232Y-107638770D02*
X128100732Y-107681627D01*
X128100732Y-107681627D02*
X128148946Y-107638770D01*
X128148946Y-107638770D02*
X128111446Y-107595913D01*
X128111446Y-107595913D02*
X128100732Y-107681627D01*
X128373946Y-107895913D02*
X128716803Y-107895913D01*
X128540017Y-107595913D02*
X128443589Y-108367341D01*
X128443589Y-108367341D02*
X128475731Y-108453056D01*
X128475731Y-108453056D02*
X128556089Y-108495913D01*
X128556089Y-108495913D02*
X128641803Y-108495913D01*
X128941803Y-108495913D02*
X129016803Y-107895913D01*
X128995375Y-108067341D02*
X129048946Y-107981627D01*
X129048946Y-107981627D02*
X129097160Y-107938770D01*
X129097160Y-107938770D02*
X129188232Y-107895913D01*
X129188232Y-107895913D02*
X129273946Y-107895913D01*
X129488232Y-107895913D02*
X129627518Y-108495913D01*
X129916803Y-107895913D02*
X129627518Y-108495913D01*
X129627518Y-108495913D02*
X129515018Y-108710198D01*
X129515018Y-108710198D02*
X129466803Y-108753056D01*
X129466803Y-108753056D02*
X129375732Y-108795913D01*
X110984658Y-111393813D02*
X111097158Y-110493813D01*
X111097158Y-110493813D02*
X111498944Y-111393813D01*
X111498944Y-111393813D02*
X111611444Y-110493813D01*
X112211444Y-110493813D02*
X112382872Y-110493813D01*
X112382872Y-110493813D02*
X112463229Y-110536670D01*
X112463229Y-110536670D02*
X112538229Y-110622384D01*
X112538229Y-110622384D02*
X112559658Y-110793813D01*
X112559658Y-110793813D02*
X112522158Y-111093813D01*
X112522158Y-111093813D02*
X112457872Y-111265241D01*
X112457872Y-111265241D02*
X112361444Y-111350956D01*
X112361444Y-111350956D02*
X112270372Y-111393813D01*
X112270372Y-111393813D02*
X112098944Y-111393813D01*
X112098944Y-111393813D02*
X112018587Y-111350956D01*
X112018587Y-111350956D02*
X111943587Y-111265241D01*
X111943587Y-111265241D02*
X111922158Y-111093813D01*
X111922158Y-111093813D02*
X111959658Y-110793813D01*
X111959658Y-110793813D02*
X112023944Y-110622384D01*
X112023944Y-110622384D02*
X112120372Y-110536670D01*
X112120372Y-110536670D02*
X112211444Y-110493813D01*
X112982872Y-110493813D02*
X112891801Y-111222384D01*
X112891801Y-111222384D02*
X112923944Y-111308098D01*
X112923944Y-111308098D02*
X112961444Y-111350956D01*
X112961444Y-111350956D02*
X113041801Y-111393813D01*
X113041801Y-111393813D02*
X113213229Y-111393813D01*
X113213229Y-111393813D02*
X113304301Y-111350956D01*
X113304301Y-111350956D02*
X113352515Y-111308098D01*
X113352515Y-111308098D02*
X113406086Y-111222384D01*
X113406086Y-111222384D02*
X113497158Y-110493813D01*
X113813229Y-111393813D02*
X113925729Y-110493813D01*
X113925729Y-110493813D02*
X114327515Y-111393813D01*
X114327515Y-111393813D02*
X114440015Y-110493813D01*
X111456087Y-112842763D02*
X110941801Y-112842763D01*
X111198944Y-112842763D02*
X111311444Y-111942763D01*
X111311444Y-111942763D02*
X111209658Y-112071334D01*
X111209658Y-112071334D02*
X111113230Y-112157048D01*
X111113230Y-112157048D02*
X111022158Y-112199906D01*
X111852515Y-112757048D02*
X111890015Y-112799906D01*
X111890015Y-112799906D02*
X111841801Y-112842763D01*
X111841801Y-112842763D02*
X111804301Y-112799906D01*
X111804301Y-112799906D02*
X111852515Y-112757048D01*
X111852515Y-112757048D02*
X111841801Y-112842763D01*
X112902515Y-112242763D02*
X113245372Y-112242763D01*
X113068586Y-111942763D02*
X112972158Y-112714191D01*
X112972158Y-112714191D02*
X113004300Y-112799906D01*
X113004300Y-112799906D02*
X113084658Y-112842763D01*
X113084658Y-112842763D02*
X113170372Y-112842763D01*
X113470372Y-112842763D02*
X113582872Y-111942763D01*
X113856086Y-112842763D02*
X113915015Y-112371334D01*
X113915015Y-112371334D02*
X113882872Y-112285620D01*
X113882872Y-112285620D02*
X113802515Y-112242763D01*
X113802515Y-112242763D02*
X113673944Y-112242763D01*
X113673944Y-112242763D02*
X113582872Y-112285620D01*
X113582872Y-112285620D02*
X113534658Y-112328477D01*
X114632872Y-112799906D02*
X114541801Y-112842763D01*
X114541801Y-112842763D02*
X114370372Y-112842763D01*
X114370372Y-112842763D02*
X114290015Y-112799906D01*
X114290015Y-112799906D02*
X114257872Y-112714191D01*
X114257872Y-112714191D02*
X114300730Y-112371334D01*
X114300730Y-112371334D02*
X114354301Y-112285620D01*
X114354301Y-112285620D02*
X114445372Y-112242763D01*
X114445372Y-112242763D02*
X114616801Y-112242763D01*
X114616801Y-112242763D02*
X114697158Y-112285620D01*
X114697158Y-112285620D02*
X114729301Y-112371334D01*
X114729301Y-112371334D02*
X114718587Y-112457048D01*
X114718587Y-112457048D02*
X114279301Y-112542763D01*
X115704301Y-112799906D02*
X115784658Y-112842763D01*
X115784658Y-112842763D02*
X115956087Y-112842763D01*
X115956087Y-112842763D02*
X116047158Y-112799906D01*
X116047158Y-112799906D02*
X116100730Y-112714191D01*
X116100730Y-112714191D02*
X116106087Y-112671334D01*
X116106087Y-112671334D02*
X116073944Y-112585620D01*
X116073944Y-112585620D02*
X115993587Y-112542763D01*
X115993587Y-112542763D02*
X115865015Y-112542763D01*
X115865015Y-112542763D02*
X115784658Y-112499906D01*
X115784658Y-112499906D02*
X115752515Y-112414191D01*
X115752515Y-112414191D02*
X115757873Y-112371334D01*
X115757873Y-112371334D02*
X115811444Y-112285620D01*
X115811444Y-112285620D02*
X115902515Y-112242763D01*
X115902515Y-112242763D02*
X116031087Y-112242763D01*
X116031087Y-112242763D02*
X116111444Y-112285620D01*
X116861444Y-112799906D02*
X116770372Y-112842763D01*
X116770372Y-112842763D02*
X116598944Y-112842763D01*
X116598944Y-112842763D02*
X116518586Y-112799906D01*
X116518586Y-112799906D02*
X116481086Y-112757048D01*
X116481086Y-112757048D02*
X116448944Y-112671334D01*
X116448944Y-112671334D02*
X116481086Y-112414191D01*
X116481086Y-112414191D02*
X116534658Y-112328477D01*
X116534658Y-112328477D02*
X116582872Y-112285620D01*
X116582872Y-112285620D02*
X116673944Y-112242763D01*
X116673944Y-112242763D02*
X116845372Y-112242763D01*
X116845372Y-112242763D02*
X116925729Y-112285620D01*
X117241801Y-112842763D02*
X117316801Y-112242763D01*
X117354301Y-111942763D02*
X117306087Y-111985620D01*
X117306087Y-111985620D02*
X117343587Y-112028477D01*
X117343587Y-112028477D02*
X117391801Y-111985620D01*
X117391801Y-111985620D02*
X117354301Y-111942763D01*
X117354301Y-111942763D02*
X117343587Y-112028477D01*
X118018586Y-112799906D02*
X117927515Y-112842763D01*
X117927515Y-112842763D02*
X117756086Y-112842763D01*
X117756086Y-112842763D02*
X117675729Y-112799906D01*
X117675729Y-112799906D02*
X117643586Y-112714191D01*
X117643586Y-112714191D02*
X117686444Y-112371334D01*
X117686444Y-112371334D02*
X117740015Y-112285620D01*
X117740015Y-112285620D02*
X117831086Y-112242763D01*
X117831086Y-112242763D02*
X118002515Y-112242763D01*
X118002515Y-112242763D02*
X118082872Y-112285620D01*
X118082872Y-112285620D02*
X118115015Y-112371334D01*
X118115015Y-112371334D02*
X118104301Y-112457048D01*
X118104301Y-112457048D02*
X117665015Y-112542763D01*
X118516801Y-112242763D02*
X118441801Y-112842763D01*
X118506087Y-112328477D02*
X118554301Y-112285620D01*
X118554301Y-112285620D02*
X118645373Y-112242763D01*
X118645373Y-112242763D02*
X118773944Y-112242763D01*
X118773944Y-112242763D02*
X118854301Y-112285620D01*
X118854301Y-112285620D02*
X118886444Y-112371334D01*
X118886444Y-112371334D02*
X118827515Y-112842763D01*
X119647159Y-112799906D02*
X119556087Y-112842763D01*
X119556087Y-112842763D02*
X119384659Y-112842763D01*
X119384659Y-112842763D02*
X119304301Y-112799906D01*
X119304301Y-112799906D02*
X119266801Y-112757048D01*
X119266801Y-112757048D02*
X119234659Y-112671334D01*
X119234659Y-112671334D02*
X119266801Y-112414191D01*
X119266801Y-112414191D02*
X119320373Y-112328477D01*
X119320373Y-112328477D02*
X119368587Y-112285620D01*
X119368587Y-112285620D02*
X119459659Y-112242763D01*
X119459659Y-112242763D02*
X119631087Y-112242763D01*
X119631087Y-112242763D02*
X119711444Y-112285620D01*
X120375730Y-112799906D02*
X120284659Y-112842763D01*
X120284659Y-112842763D02*
X120113230Y-112842763D01*
X120113230Y-112842763D02*
X120032873Y-112799906D01*
X120032873Y-112799906D02*
X120000730Y-112714191D01*
X120000730Y-112714191D02*
X120043588Y-112371334D01*
X120043588Y-112371334D02*
X120097159Y-112285620D01*
X120097159Y-112285620D02*
X120188230Y-112242763D01*
X120188230Y-112242763D02*
X120359659Y-112242763D01*
X120359659Y-112242763D02*
X120440016Y-112285620D01*
X120440016Y-112285620D02*
X120472159Y-112371334D01*
X120472159Y-112371334D02*
X120461445Y-112457048D01*
X120461445Y-112457048D02*
X120022159Y-112542763D01*
X121613231Y-112842763D02*
X121532873Y-112799906D01*
X121532873Y-112799906D02*
X121495373Y-112757048D01*
X121495373Y-112757048D02*
X121463231Y-112671334D01*
X121463231Y-112671334D02*
X121495373Y-112414191D01*
X121495373Y-112414191D02*
X121548945Y-112328477D01*
X121548945Y-112328477D02*
X121597159Y-112285620D01*
X121597159Y-112285620D02*
X121688231Y-112242763D01*
X121688231Y-112242763D02*
X121816802Y-112242763D01*
X121816802Y-112242763D02*
X121897159Y-112285620D01*
X121897159Y-112285620D02*
X121934659Y-112328477D01*
X121934659Y-112328477D02*
X121966802Y-112414191D01*
X121966802Y-112414191D02*
X121934659Y-112671334D01*
X121934659Y-112671334D02*
X121881088Y-112757048D01*
X121881088Y-112757048D02*
X121832873Y-112799906D01*
X121832873Y-112799906D02*
X121741802Y-112842763D01*
X121741802Y-112842763D02*
X121613231Y-112842763D01*
X122245374Y-112242763D02*
X122588231Y-112242763D01*
X122298945Y-112842763D02*
X122395374Y-112071334D01*
X122395374Y-112071334D02*
X122448945Y-111985620D01*
X122448945Y-111985620D02*
X122540017Y-111942763D01*
X122540017Y-111942763D02*
X122625731Y-111942763D01*
X123884659Y-112842763D02*
X123997159Y-111942763D01*
X123890017Y-112799906D02*
X123798945Y-112842763D01*
X123798945Y-112842763D02*
X123627517Y-112842763D01*
X123627517Y-112842763D02*
X123547159Y-112799906D01*
X123547159Y-112799906D02*
X123509659Y-112757048D01*
X123509659Y-112757048D02*
X123477517Y-112671334D01*
X123477517Y-112671334D02*
X123509659Y-112414191D01*
X123509659Y-112414191D02*
X123563231Y-112328477D01*
X123563231Y-112328477D02*
X123611445Y-112285620D01*
X123611445Y-112285620D02*
X123702517Y-112242763D01*
X123702517Y-112242763D02*
X123873945Y-112242763D01*
X123873945Y-112242763D02*
X123954302Y-112285620D01*
X124661445Y-112799906D02*
X124570374Y-112842763D01*
X124570374Y-112842763D02*
X124398945Y-112842763D01*
X124398945Y-112842763D02*
X124318588Y-112799906D01*
X124318588Y-112799906D02*
X124286445Y-112714191D01*
X124286445Y-112714191D02*
X124329303Y-112371334D01*
X124329303Y-112371334D02*
X124382874Y-112285620D01*
X124382874Y-112285620D02*
X124473945Y-112242763D01*
X124473945Y-112242763D02*
X124645374Y-112242763D01*
X124645374Y-112242763D02*
X124725731Y-112285620D01*
X124725731Y-112285620D02*
X124757874Y-112371334D01*
X124757874Y-112371334D02*
X124747160Y-112457048D01*
X124747160Y-112457048D02*
X124307874Y-112542763D01*
X125047160Y-112799906D02*
X125127517Y-112842763D01*
X125127517Y-112842763D02*
X125298946Y-112842763D01*
X125298946Y-112842763D02*
X125390017Y-112799906D01*
X125390017Y-112799906D02*
X125443589Y-112714191D01*
X125443589Y-112714191D02*
X125448946Y-112671334D01*
X125448946Y-112671334D02*
X125416803Y-112585620D01*
X125416803Y-112585620D02*
X125336446Y-112542763D01*
X125336446Y-112542763D02*
X125207874Y-112542763D01*
X125207874Y-112542763D02*
X125127517Y-112499906D01*
X125127517Y-112499906D02*
X125095374Y-112414191D01*
X125095374Y-112414191D02*
X125100732Y-112371334D01*
X125100732Y-112371334D02*
X125154303Y-112285620D01*
X125154303Y-112285620D02*
X125245374Y-112242763D01*
X125245374Y-112242763D02*
X125373946Y-112242763D01*
X125373946Y-112242763D02*
X125454303Y-112285620D01*
X125813231Y-112842763D02*
X125888231Y-112242763D01*
X125925731Y-111942763D02*
X125877517Y-111985620D01*
X125877517Y-111985620D02*
X125915017Y-112028477D01*
X125915017Y-112028477D02*
X125963231Y-111985620D01*
X125963231Y-111985620D02*
X125925731Y-111942763D01*
X125925731Y-111942763D02*
X125915017Y-112028477D01*
X126702516Y-112242763D02*
X126611445Y-112971334D01*
X126611445Y-112971334D02*
X126557874Y-113057048D01*
X126557874Y-113057048D02*
X126509659Y-113099906D01*
X126509659Y-113099906D02*
X126418588Y-113142763D01*
X126418588Y-113142763D02*
X126290016Y-113142763D01*
X126290016Y-113142763D02*
X126209659Y-113099906D01*
X126632874Y-112799906D02*
X126541802Y-112842763D01*
X126541802Y-112842763D02*
X126370374Y-112842763D01*
X126370374Y-112842763D02*
X126290016Y-112799906D01*
X126290016Y-112799906D02*
X126252516Y-112757048D01*
X126252516Y-112757048D02*
X126220374Y-112671334D01*
X126220374Y-112671334D02*
X126252516Y-112414191D01*
X126252516Y-112414191D02*
X126306088Y-112328477D01*
X126306088Y-112328477D02*
X126354302Y-112285620D01*
X126354302Y-112285620D02*
X126445374Y-112242763D01*
X126445374Y-112242763D02*
X126616802Y-112242763D01*
X126616802Y-112242763D02*
X126697159Y-112285620D01*
X127131088Y-112242763D02*
X127056088Y-112842763D01*
X127120374Y-112328477D02*
X127168588Y-112285620D01*
X127168588Y-112285620D02*
X127259660Y-112242763D01*
X127259660Y-112242763D02*
X127388231Y-112242763D01*
X127388231Y-112242763D02*
X127468588Y-112285620D01*
X127468588Y-112285620D02*
X127500731Y-112371334D01*
X127500731Y-112371334D02*
X127441802Y-112842763D01*
X127870374Y-112842763D02*
X127945374Y-112242763D01*
X127982874Y-111942763D02*
X127934660Y-111985620D01*
X127934660Y-111985620D02*
X127972160Y-112028477D01*
X127972160Y-112028477D02*
X128020374Y-111985620D01*
X128020374Y-111985620D02*
X127982874Y-111942763D01*
X127982874Y-111942763D02*
X127972160Y-112028477D01*
X128373945Y-112242763D02*
X128298945Y-112842763D01*
X128363231Y-112328477D02*
X128411445Y-112285620D01*
X128411445Y-112285620D02*
X128502517Y-112242763D01*
X128502517Y-112242763D02*
X128631088Y-112242763D01*
X128631088Y-112242763D02*
X128711445Y-112285620D01*
X128711445Y-112285620D02*
X128743588Y-112371334D01*
X128743588Y-112371334D02*
X128684659Y-112842763D01*
X129573945Y-112242763D02*
X129482874Y-112971334D01*
X129482874Y-112971334D02*
X129429303Y-113057048D01*
X129429303Y-113057048D02*
X129381088Y-113099906D01*
X129381088Y-113099906D02*
X129290017Y-113142763D01*
X129290017Y-113142763D02*
X129161445Y-113142763D01*
X129161445Y-113142763D02*
X129081088Y-113099906D01*
X129504303Y-112799906D02*
X129413231Y-112842763D01*
X129413231Y-112842763D02*
X129241803Y-112842763D01*
X129241803Y-112842763D02*
X129161445Y-112799906D01*
X129161445Y-112799906D02*
X129123945Y-112757048D01*
X129123945Y-112757048D02*
X129091803Y-112671334D01*
X129091803Y-112671334D02*
X129123945Y-112414191D01*
X129123945Y-112414191D02*
X129177517Y-112328477D01*
X129177517Y-112328477D02*
X129225731Y-112285620D01*
X129225731Y-112285620D02*
X129316803Y-112242763D01*
X129316803Y-112242763D02*
X129488231Y-112242763D01*
X129488231Y-112242763D02*
X129568588Y-112285620D01*
X130961445Y-112799906D02*
X130870374Y-112842763D01*
X130870374Y-112842763D02*
X130698945Y-112842763D01*
X130698945Y-112842763D02*
X130618588Y-112799906D01*
X130618588Y-112799906D02*
X130586445Y-112714191D01*
X130586445Y-112714191D02*
X130629303Y-112371334D01*
X130629303Y-112371334D02*
X130682874Y-112285620D01*
X130682874Y-112285620D02*
X130773945Y-112242763D01*
X130773945Y-112242763D02*
X130945374Y-112242763D01*
X130945374Y-112242763D02*
X131025731Y-112285620D01*
X131025731Y-112285620D02*
X131057874Y-112371334D01*
X131057874Y-112371334D02*
X131047160Y-112457048D01*
X131047160Y-112457048D02*
X130607874Y-112542763D01*
X131513232Y-112842763D02*
X131432874Y-112799906D01*
X131432874Y-112799906D02*
X131400732Y-112714191D01*
X131400732Y-112714191D02*
X131497160Y-111942763D01*
X132204303Y-112799906D02*
X132113232Y-112842763D01*
X132113232Y-112842763D02*
X131941803Y-112842763D01*
X131941803Y-112842763D02*
X131861446Y-112799906D01*
X131861446Y-112799906D02*
X131829303Y-112714191D01*
X131829303Y-112714191D02*
X131872161Y-112371334D01*
X131872161Y-112371334D02*
X131925732Y-112285620D01*
X131925732Y-112285620D02*
X132016803Y-112242763D01*
X132016803Y-112242763D02*
X132188232Y-112242763D01*
X132188232Y-112242763D02*
X132268589Y-112285620D01*
X132268589Y-112285620D02*
X132300732Y-112371334D01*
X132300732Y-112371334D02*
X132290018Y-112457048D01*
X132290018Y-112457048D02*
X131850732Y-112542763D01*
X133018590Y-112799906D02*
X132927518Y-112842763D01*
X132927518Y-112842763D02*
X132756090Y-112842763D01*
X132756090Y-112842763D02*
X132675732Y-112799906D01*
X132675732Y-112799906D02*
X132638232Y-112757048D01*
X132638232Y-112757048D02*
X132606090Y-112671334D01*
X132606090Y-112671334D02*
X132638232Y-112414191D01*
X132638232Y-112414191D02*
X132691804Y-112328477D01*
X132691804Y-112328477D02*
X132740018Y-112285620D01*
X132740018Y-112285620D02*
X132831090Y-112242763D01*
X132831090Y-112242763D02*
X133002518Y-112242763D01*
X133002518Y-112242763D02*
X133082875Y-112285620D01*
X133345376Y-112242763D02*
X133688233Y-112242763D01*
X133511447Y-111942763D02*
X133415019Y-112714191D01*
X133415019Y-112714191D02*
X133447161Y-112799906D01*
X133447161Y-112799906D02*
X133527519Y-112842763D01*
X133527519Y-112842763D02*
X133613233Y-112842763D01*
X133913233Y-112842763D02*
X133988233Y-112242763D01*
X133966805Y-112414191D02*
X134020376Y-112328477D01*
X134020376Y-112328477D02*
X134068590Y-112285620D01*
X134068590Y-112285620D02*
X134159662Y-112242763D01*
X134159662Y-112242763D02*
X134245376Y-112242763D01*
X134470376Y-112842763D02*
X134545376Y-112242763D01*
X134582876Y-111942763D02*
X134534662Y-111985620D01*
X134534662Y-111985620D02*
X134572162Y-112028477D01*
X134572162Y-112028477D02*
X134620376Y-111985620D01*
X134620376Y-111985620D02*
X134582876Y-111942763D01*
X134582876Y-111942763D02*
X134572162Y-112028477D01*
X135290019Y-112799906D02*
X135198947Y-112842763D01*
X135198947Y-112842763D02*
X135027519Y-112842763D01*
X135027519Y-112842763D02*
X134947161Y-112799906D01*
X134947161Y-112799906D02*
X134909661Y-112757048D01*
X134909661Y-112757048D02*
X134877519Y-112671334D01*
X134877519Y-112671334D02*
X134909661Y-112414191D01*
X134909661Y-112414191D02*
X134963233Y-112328477D01*
X134963233Y-112328477D02*
X135011447Y-112285620D01*
X135011447Y-112285620D02*
X135102519Y-112242763D01*
X135102519Y-112242763D02*
X135273947Y-112242763D01*
X135273947Y-112242763D02*
X135354304Y-112285620D01*
X113127516Y-114291713D02*
X113047158Y-114248856D01*
X113047158Y-114248856D02*
X113009658Y-114205998D01*
X113009658Y-114205998D02*
X112977516Y-114120284D01*
X112977516Y-114120284D02*
X113009658Y-113863141D01*
X113009658Y-113863141D02*
X113063230Y-113777427D01*
X113063230Y-113777427D02*
X113111444Y-113734570D01*
X113111444Y-113734570D02*
X113202516Y-113691713D01*
X113202516Y-113691713D02*
X113331087Y-113691713D01*
X113331087Y-113691713D02*
X113411444Y-113734570D01*
X113411444Y-113734570D02*
X113448944Y-113777427D01*
X113448944Y-113777427D02*
X113481087Y-113863141D01*
X113481087Y-113863141D02*
X113448944Y-114120284D01*
X113448944Y-114120284D02*
X113395373Y-114205998D01*
X113395373Y-114205998D02*
X113347158Y-114248856D01*
X113347158Y-114248856D02*
X113256087Y-114291713D01*
X113256087Y-114291713D02*
X113127516Y-114291713D01*
X113813230Y-114291713D02*
X113888230Y-113691713D01*
X113866802Y-113863141D02*
X113920373Y-113777427D01*
X113920373Y-113777427D02*
X113968587Y-113734570D01*
X113968587Y-113734570D02*
X114059659Y-113691713D01*
X114059659Y-113691713D02*
X114145373Y-113691713D01*
X115404301Y-114248856D02*
X115313230Y-114291713D01*
X115313230Y-114291713D02*
X115141801Y-114291713D01*
X115141801Y-114291713D02*
X115061444Y-114248856D01*
X115061444Y-114248856D02*
X115029301Y-114163141D01*
X115029301Y-114163141D02*
X115072159Y-113820284D01*
X115072159Y-113820284D02*
X115125730Y-113734570D01*
X115125730Y-113734570D02*
X115216801Y-113691713D01*
X115216801Y-113691713D02*
X115388230Y-113691713D01*
X115388230Y-113691713D02*
X115468587Y-113734570D01*
X115468587Y-113734570D02*
X115500730Y-113820284D01*
X115500730Y-113820284D02*
X115490016Y-113905998D01*
X115490016Y-113905998D02*
X115050730Y-113991713D01*
X115956088Y-114291713D02*
X115875730Y-114248856D01*
X115875730Y-114248856D02*
X115843588Y-114163141D01*
X115843588Y-114163141D02*
X115940016Y-113391713D01*
X116647159Y-114248856D02*
X116556088Y-114291713D01*
X116556088Y-114291713D02*
X116384659Y-114291713D01*
X116384659Y-114291713D02*
X116304302Y-114248856D01*
X116304302Y-114248856D02*
X116272159Y-114163141D01*
X116272159Y-114163141D02*
X116315017Y-113820284D01*
X116315017Y-113820284D02*
X116368588Y-113734570D01*
X116368588Y-113734570D02*
X116459659Y-113691713D01*
X116459659Y-113691713D02*
X116631088Y-113691713D01*
X116631088Y-113691713D02*
X116711445Y-113734570D01*
X116711445Y-113734570D02*
X116743588Y-113820284D01*
X116743588Y-113820284D02*
X116732874Y-113905998D01*
X116732874Y-113905998D02*
X116293588Y-113991713D01*
X117461446Y-114248856D02*
X117370374Y-114291713D01*
X117370374Y-114291713D02*
X117198946Y-114291713D01*
X117198946Y-114291713D02*
X117118588Y-114248856D01*
X117118588Y-114248856D02*
X117081088Y-114205998D01*
X117081088Y-114205998D02*
X117048946Y-114120284D01*
X117048946Y-114120284D02*
X117081088Y-113863141D01*
X117081088Y-113863141D02*
X117134660Y-113777427D01*
X117134660Y-113777427D02*
X117182874Y-113734570D01*
X117182874Y-113734570D02*
X117273946Y-113691713D01*
X117273946Y-113691713D02*
X117445374Y-113691713D01*
X117445374Y-113691713D02*
X117525731Y-113734570D01*
X117788232Y-113691713D02*
X118131089Y-113691713D01*
X117954303Y-113391713D02*
X117857875Y-114163141D01*
X117857875Y-114163141D02*
X117890017Y-114248856D01*
X117890017Y-114248856D02*
X117970375Y-114291713D01*
X117970375Y-114291713D02*
X118056089Y-114291713D01*
X118356089Y-114291713D02*
X118431089Y-113691713D01*
X118409661Y-113863141D02*
X118463232Y-113777427D01*
X118463232Y-113777427D02*
X118511446Y-113734570D01*
X118511446Y-113734570D02*
X118602518Y-113691713D01*
X118602518Y-113691713D02*
X118688232Y-113691713D01*
X119041804Y-114291713D02*
X118961446Y-114248856D01*
X118961446Y-114248856D02*
X118923946Y-114205998D01*
X118923946Y-114205998D02*
X118891804Y-114120284D01*
X118891804Y-114120284D02*
X118923946Y-113863141D01*
X118923946Y-113863141D02*
X118977518Y-113777427D01*
X118977518Y-113777427D02*
X119025732Y-113734570D01*
X119025732Y-113734570D02*
X119116804Y-113691713D01*
X119116804Y-113691713D02*
X119245375Y-113691713D01*
X119245375Y-113691713D02*
X119325732Y-113734570D01*
X119325732Y-113734570D02*
X119363232Y-113777427D01*
X119363232Y-113777427D02*
X119395375Y-113863141D01*
X119395375Y-113863141D02*
X119363232Y-114120284D01*
X119363232Y-114120284D02*
X119309661Y-114205998D01*
X119309661Y-114205998D02*
X119261446Y-114248856D01*
X119261446Y-114248856D02*
X119170375Y-114291713D01*
X119170375Y-114291713D02*
X119041804Y-114291713D01*
X119802518Y-113691713D02*
X119727518Y-114291713D01*
X119791804Y-113777427D02*
X119840018Y-113734570D01*
X119840018Y-113734570D02*
X119931090Y-113691713D01*
X119931090Y-113691713D02*
X120059661Y-113691713D01*
X120059661Y-113691713D02*
X120140018Y-113734570D01*
X120140018Y-113734570D02*
X120172161Y-113820284D01*
X120172161Y-113820284D02*
X120113232Y-114291713D01*
X120541804Y-114291713D02*
X120616804Y-113691713D01*
X120654304Y-113391713D02*
X120606090Y-113434570D01*
X120606090Y-113434570D02*
X120643590Y-113477427D01*
X120643590Y-113477427D02*
X120691804Y-113434570D01*
X120691804Y-113434570D02*
X120654304Y-113391713D01*
X120654304Y-113391713D02*
X120643590Y-113477427D01*
X121361447Y-114248856D02*
X121270375Y-114291713D01*
X121270375Y-114291713D02*
X121098947Y-114291713D01*
X121098947Y-114291713D02*
X121018589Y-114248856D01*
X121018589Y-114248856D02*
X120981089Y-114205998D01*
X120981089Y-114205998D02*
X120948947Y-114120284D01*
X120948947Y-114120284D02*
X120981089Y-113863141D01*
X120981089Y-113863141D02*
X121034661Y-113777427D01*
X121034661Y-113777427D02*
X121082875Y-113734570D01*
X121082875Y-113734570D02*
X121173947Y-113691713D01*
X121173947Y-113691713D02*
X121345375Y-113691713D01*
X121345375Y-113691713D02*
X121425732Y-113734570D01*
X122818590Y-114248856D02*
X122727518Y-114291713D01*
X122727518Y-114291713D02*
X122556090Y-114291713D01*
X122556090Y-114291713D02*
X122475732Y-114248856D01*
X122475732Y-114248856D02*
X122438232Y-114205998D01*
X122438232Y-114205998D02*
X122406090Y-114120284D01*
X122406090Y-114120284D02*
X122438232Y-113863141D01*
X122438232Y-113863141D02*
X122491804Y-113777427D01*
X122491804Y-113777427D02*
X122540018Y-113734570D01*
X122540018Y-113734570D02*
X122631090Y-113691713D01*
X122631090Y-113691713D02*
X122802518Y-113691713D01*
X122802518Y-113691713D02*
X122882875Y-113734570D01*
X123198947Y-114291713D02*
X123273947Y-113691713D01*
X123311447Y-113391713D02*
X123263233Y-113434570D01*
X123263233Y-113434570D02*
X123300733Y-113477427D01*
X123300733Y-113477427D02*
X123348947Y-113434570D01*
X123348947Y-113434570D02*
X123311447Y-113391713D01*
X123311447Y-113391713D02*
X123300733Y-113477427D01*
X123627518Y-114291713D02*
X123702518Y-113691713D01*
X123681090Y-113863141D02*
X123734661Y-113777427D01*
X123734661Y-113777427D02*
X123782875Y-113734570D01*
X123782875Y-113734570D02*
X123873947Y-113691713D01*
X123873947Y-113691713D02*
X123959661Y-113691713D01*
X124575733Y-114248856D02*
X124484661Y-114291713D01*
X124484661Y-114291713D02*
X124313233Y-114291713D01*
X124313233Y-114291713D02*
X124232875Y-114248856D01*
X124232875Y-114248856D02*
X124195375Y-114205998D01*
X124195375Y-114205998D02*
X124163233Y-114120284D01*
X124163233Y-114120284D02*
X124195375Y-113863141D01*
X124195375Y-113863141D02*
X124248947Y-113777427D01*
X124248947Y-113777427D02*
X124297161Y-113734570D01*
X124297161Y-113734570D02*
X124388233Y-113691713D01*
X124388233Y-113691713D02*
X124559661Y-113691713D01*
X124559661Y-113691713D02*
X124640018Y-113734570D01*
X125416804Y-113691713D02*
X125341804Y-114291713D01*
X125031090Y-113691713D02*
X124972162Y-114163141D01*
X124972162Y-114163141D02*
X125004304Y-114248856D01*
X125004304Y-114248856D02*
X125084662Y-114291713D01*
X125084662Y-114291713D02*
X125213233Y-114291713D01*
X125213233Y-114291713D02*
X125304304Y-114248856D01*
X125304304Y-114248856D02*
X125352519Y-114205998D01*
X125770376Y-114291713D02*
X125845376Y-113691713D01*
X125882876Y-113391713D02*
X125834662Y-113434570D01*
X125834662Y-113434570D02*
X125872162Y-113477427D01*
X125872162Y-113477427D02*
X125920376Y-113434570D01*
X125920376Y-113434570D02*
X125882876Y-113391713D01*
X125882876Y-113391713D02*
X125872162Y-113477427D01*
X126145376Y-113691713D02*
X126488233Y-113691713D01*
X126311447Y-113391713D02*
X126215019Y-114163141D01*
X126215019Y-114163141D02*
X126247161Y-114248856D01*
X126247161Y-114248856D02*
X126327519Y-114291713D01*
X126327519Y-114291713D02*
X126413233Y-114291713D01*
X126675733Y-114248856D02*
X126756090Y-114291713D01*
X126756090Y-114291713D02*
X126927519Y-114291713D01*
X126927519Y-114291713D02*
X127018590Y-114248856D01*
X127018590Y-114248856D02*
X127072162Y-114163141D01*
X127072162Y-114163141D02*
X127077519Y-114120284D01*
X127077519Y-114120284D02*
X127045376Y-114034570D01*
X127045376Y-114034570D02*
X126965019Y-113991713D01*
X126965019Y-113991713D02*
X126836447Y-113991713D01*
X126836447Y-113991713D02*
X126756090Y-113948856D01*
X126756090Y-113948856D02*
X126723947Y-113863141D01*
X126723947Y-113863141D02*
X126729305Y-113820284D01*
X126729305Y-113820284D02*
X126782876Y-113734570D01*
X126782876Y-113734570D02*
X126873947Y-113691713D01*
X126873947Y-113691713D02*
X127002519Y-113691713D01*
X127002519Y-113691713D02*
X127082876Y-113734570D01*
X127452518Y-114205998D02*
X127490018Y-114248856D01*
X127490018Y-114248856D02*
X127441804Y-114291713D01*
X127441804Y-114291713D02*
X127404304Y-114248856D01*
X127404304Y-114248856D02*
X127452518Y-114205998D01*
X127452518Y-114205998D02*
X127441804Y-114291713D01*
X111043587Y-114926377D02*
X111091801Y-114883520D01*
X111091801Y-114883520D02*
X111182872Y-114840663D01*
X111182872Y-114840663D02*
X111397158Y-114840663D01*
X111397158Y-114840663D02*
X111477515Y-114883520D01*
X111477515Y-114883520D02*
X111515015Y-114926377D01*
X111515015Y-114926377D02*
X111547158Y-115012091D01*
X111547158Y-115012091D02*
X111536444Y-115097806D01*
X111536444Y-115097806D02*
X111477515Y-115226377D01*
X111477515Y-115226377D02*
X110898944Y-115740663D01*
X110898944Y-115740663D02*
X111456087Y-115740663D01*
X111852515Y-115654948D02*
X111890015Y-115697806D01*
X111890015Y-115697806D02*
X111841801Y-115740663D01*
X111841801Y-115740663D02*
X111804301Y-115697806D01*
X111804301Y-115697806D02*
X111852515Y-115654948D01*
X111852515Y-115654948D02*
X111841801Y-115740663D01*
X112902515Y-115140663D02*
X113245372Y-115140663D01*
X113068586Y-114840663D02*
X112972158Y-115612091D01*
X112972158Y-115612091D02*
X113004300Y-115697806D01*
X113004300Y-115697806D02*
X113084658Y-115740663D01*
X113084658Y-115740663D02*
X113170372Y-115740663D01*
X113470372Y-115740663D02*
X113582872Y-114840663D01*
X113856086Y-115740663D02*
X113915015Y-115269234D01*
X113915015Y-115269234D02*
X113882872Y-115183520D01*
X113882872Y-115183520D02*
X113802515Y-115140663D01*
X113802515Y-115140663D02*
X113673944Y-115140663D01*
X113673944Y-115140663D02*
X113582872Y-115183520D01*
X113582872Y-115183520D02*
X113534658Y-115226377D01*
X114632872Y-115697806D02*
X114541801Y-115740663D01*
X114541801Y-115740663D02*
X114370372Y-115740663D01*
X114370372Y-115740663D02*
X114290015Y-115697806D01*
X114290015Y-115697806D02*
X114257872Y-115612091D01*
X114257872Y-115612091D02*
X114300730Y-115269234D01*
X114300730Y-115269234D02*
X114354301Y-115183520D01*
X114354301Y-115183520D02*
X114445372Y-115140663D01*
X114445372Y-115140663D02*
X114616801Y-115140663D01*
X114616801Y-115140663D02*
X114697158Y-115183520D01*
X114697158Y-115183520D02*
X114729301Y-115269234D01*
X114729301Y-115269234D02*
X114718587Y-115354948D01*
X114718587Y-115354948D02*
X114279301Y-115440663D01*
X116132873Y-115697806D02*
X116041801Y-115740663D01*
X116041801Y-115740663D02*
X115870373Y-115740663D01*
X115870373Y-115740663D02*
X115790015Y-115697806D01*
X115790015Y-115697806D02*
X115752515Y-115654948D01*
X115752515Y-115654948D02*
X115720373Y-115569234D01*
X115720373Y-115569234D02*
X115752515Y-115312091D01*
X115752515Y-115312091D02*
X115806087Y-115226377D01*
X115806087Y-115226377D02*
X115854301Y-115183520D01*
X115854301Y-115183520D02*
X115945373Y-115140663D01*
X115945373Y-115140663D02*
X116116801Y-115140663D01*
X116116801Y-115140663D02*
X116197158Y-115183520D01*
X116513230Y-115740663D02*
X116588230Y-115140663D01*
X116625730Y-114840663D02*
X116577516Y-114883520D01*
X116577516Y-114883520D02*
X116615016Y-114926377D01*
X116615016Y-114926377D02*
X116663230Y-114883520D01*
X116663230Y-114883520D02*
X116625730Y-114840663D01*
X116625730Y-114840663D02*
X116615016Y-114926377D01*
X116941801Y-115740663D02*
X117016801Y-115140663D01*
X116995373Y-115312091D02*
X117048944Y-115226377D01*
X117048944Y-115226377D02*
X117097158Y-115183520D01*
X117097158Y-115183520D02*
X117188230Y-115140663D01*
X117188230Y-115140663D02*
X117273944Y-115140663D01*
X117890016Y-115697806D02*
X117798944Y-115740663D01*
X117798944Y-115740663D02*
X117627516Y-115740663D01*
X117627516Y-115740663D02*
X117547158Y-115697806D01*
X117547158Y-115697806D02*
X117509658Y-115654948D01*
X117509658Y-115654948D02*
X117477516Y-115569234D01*
X117477516Y-115569234D02*
X117509658Y-115312091D01*
X117509658Y-115312091D02*
X117563230Y-115226377D01*
X117563230Y-115226377D02*
X117611444Y-115183520D01*
X117611444Y-115183520D02*
X117702516Y-115140663D01*
X117702516Y-115140663D02*
X117873944Y-115140663D01*
X117873944Y-115140663D02*
X117954301Y-115183520D01*
X118731087Y-115140663D02*
X118656087Y-115740663D01*
X118345373Y-115140663D02*
X118286445Y-115612091D01*
X118286445Y-115612091D02*
X118318587Y-115697806D01*
X118318587Y-115697806D02*
X118398945Y-115740663D01*
X118398945Y-115740663D02*
X118527516Y-115740663D01*
X118527516Y-115740663D02*
X118618587Y-115697806D01*
X118618587Y-115697806D02*
X118666802Y-115654948D01*
X119084659Y-115740663D02*
X119159659Y-115140663D01*
X119197159Y-114840663D02*
X119148945Y-114883520D01*
X119148945Y-114883520D02*
X119186445Y-114926377D01*
X119186445Y-114926377D02*
X119234659Y-114883520D01*
X119234659Y-114883520D02*
X119197159Y-114840663D01*
X119197159Y-114840663D02*
X119186445Y-114926377D01*
X119459659Y-115140663D02*
X119802516Y-115140663D01*
X119625730Y-114840663D02*
X119529302Y-115612091D01*
X119529302Y-115612091D02*
X119561444Y-115697806D01*
X119561444Y-115697806D02*
X119641802Y-115740663D01*
X119641802Y-115740663D02*
X119727516Y-115740663D01*
X119990016Y-115697806D02*
X120070373Y-115740663D01*
X120070373Y-115740663D02*
X120241802Y-115740663D01*
X120241802Y-115740663D02*
X120332873Y-115697806D01*
X120332873Y-115697806D02*
X120386445Y-115612091D01*
X120386445Y-115612091D02*
X120391802Y-115569234D01*
X120391802Y-115569234D02*
X120359659Y-115483520D01*
X120359659Y-115483520D02*
X120279302Y-115440663D01*
X120279302Y-115440663D02*
X120150730Y-115440663D01*
X120150730Y-115440663D02*
X120070373Y-115397806D01*
X120070373Y-115397806D02*
X120038230Y-115312091D01*
X120038230Y-115312091D02*
X120043588Y-115269234D01*
X120043588Y-115269234D02*
X120097159Y-115183520D01*
X120097159Y-115183520D02*
X120188230Y-115140663D01*
X120188230Y-115140663D02*
X120316802Y-115140663D01*
X120316802Y-115140663D02*
X120397159Y-115183520D01*
X121388230Y-115140663D02*
X121731087Y-115140663D01*
X121554301Y-114840663D02*
X121457873Y-115612091D01*
X121457873Y-115612091D02*
X121490015Y-115697806D01*
X121490015Y-115697806D02*
X121570373Y-115740663D01*
X121570373Y-115740663D02*
X121656087Y-115740663D01*
X121956087Y-115740663D02*
X122068587Y-114840663D01*
X122341801Y-115740663D02*
X122400730Y-115269234D01*
X122400730Y-115269234D02*
X122368587Y-115183520D01*
X122368587Y-115183520D02*
X122288230Y-115140663D01*
X122288230Y-115140663D02*
X122159659Y-115140663D01*
X122159659Y-115140663D02*
X122068587Y-115183520D01*
X122068587Y-115183520D02*
X122020373Y-115226377D01*
X123118587Y-115697806D02*
X123027516Y-115740663D01*
X123027516Y-115740663D02*
X122856087Y-115740663D01*
X122856087Y-115740663D02*
X122775730Y-115697806D01*
X122775730Y-115697806D02*
X122743587Y-115612091D01*
X122743587Y-115612091D02*
X122786445Y-115269234D01*
X122786445Y-115269234D02*
X122840016Y-115183520D01*
X122840016Y-115183520D02*
X122931087Y-115140663D01*
X122931087Y-115140663D02*
X123102516Y-115140663D01*
X123102516Y-115140663D02*
X123182873Y-115183520D01*
X123182873Y-115183520D02*
X123215016Y-115269234D01*
X123215016Y-115269234D02*
X123204302Y-115354948D01*
X123204302Y-115354948D02*
X122765016Y-115440663D01*
X123541802Y-115740663D02*
X123616802Y-115140663D01*
X123606088Y-115226377D02*
X123654302Y-115183520D01*
X123654302Y-115183520D02*
X123745374Y-115140663D01*
X123745374Y-115140663D02*
X123873945Y-115140663D01*
X123873945Y-115140663D02*
X123954302Y-115183520D01*
X123954302Y-115183520D02*
X123986445Y-115269234D01*
X123986445Y-115269234D02*
X123927516Y-115740663D01*
X123986445Y-115269234D02*
X124040016Y-115183520D01*
X124040016Y-115183520D02*
X124131088Y-115140663D01*
X124131088Y-115140663D02*
X124259659Y-115140663D01*
X124259659Y-115140663D02*
X124340016Y-115183520D01*
X124340016Y-115183520D02*
X124372159Y-115269234D01*
X124372159Y-115269234D02*
X124313231Y-115740663D01*
X124704302Y-115697806D02*
X124784659Y-115740663D01*
X124784659Y-115740663D02*
X124956088Y-115740663D01*
X124956088Y-115740663D02*
X125047159Y-115697806D01*
X125047159Y-115697806D02*
X125100731Y-115612091D01*
X125100731Y-115612091D02*
X125106088Y-115569234D01*
X125106088Y-115569234D02*
X125073945Y-115483520D01*
X125073945Y-115483520D02*
X124993588Y-115440663D01*
X124993588Y-115440663D02*
X124865016Y-115440663D01*
X124865016Y-115440663D02*
X124784659Y-115397806D01*
X124784659Y-115397806D02*
X124752516Y-115312091D01*
X124752516Y-115312091D02*
X124757874Y-115269234D01*
X124757874Y-115269234D02*
X124811445Y-115183520D01*
X124811445Y-115183520D02*
X124902516Y-115140663D01*
X124902516Y-115140663D02*
X125031088Y-115140663D01*
X125031088Y-115140663D02*
X125111445Y-115183520D01*
X125818587Y-115697806D02*
X125727516Y-115740663D01*
X125727516Y-115740663D02*
X125556087Y-115740663D01*
X125556087Y-115740663D02*
X125475730Y-115697806D01*
X125475730Y-115697806D02*
X125443587Y-115612091D01*
X125443587Y-115612091D02*
X125486445Y-115269234D01*
X125486445Y-115269234D02*
X125540016Y-115183520D01*
X125540016Y-115183520D02*
X125631087Y-115140663D01*
X125631087Y-115140663D02*
X125802516Y-115140663D01*
X125802516Y-115140663D02*
X125882873Y-115183520D01*
X125882873Y-115183520D02*
X125915016Y-115269234D01*
X125915016Y-115269234D02*
X125904302Y-115354948D01*
X125904302Y-115354948D02*
X125465016Y-115440663D01*
X126370374Y-115740663D02*
X126290016Y-115697806D01*
X126290016Y-115697806D02*
X126257874Y-115612091D01*
X126257874Y-115612091D02*
X126354302Y-114840663D01*
X126702517Y-115140663D02*
X126841803Y-115740663D01*
X126841803Y-115740663D02*
X127131088Y-115140663D01*
X127747159Y-115697806D02*
X127656088Y-115740663D01*
X127656088Y-115740663D02*
X127484659Y-115740663D01*
X127484659Y-115740663D02*
X127404302Y-115697806D01*
X127404302Y-115697806D02*
X127372159Y-115612091D01*
X127372159Y-115612091D02*
X127415017Y-115269234D01*
X127415017Y-115269234D02*
X127468588Y-115183520D01*
X127468588Y-115183520D02*
X127559659Y-115140663D01*
X127559659Y-115140663D02*
X127731088Y-115140663D01*
X127731088Y-115140663D02*
X127811445Y-115183520D01*
X127811445Y-115183520D02*
X127843588Y-115269234D01*
X127843588Y-115269234D02*
X127832874Y-115354948D01*
X127832874Y-115354948D02*
X127393588Y-115440663D01*
X128132874Y-115697806D02*
X128213231Y-115740663D01*
X128213231Y-115740663D02*
X128384660Y-115740663D01*
X128384660Y-115740663D02*
X128475731Y-115697806D01*
X128475731Y-115697806D02*
X128529303Y-115612091D01*
X128529303Y-115612091D02*
X128534660Y-115569234D01*
X128534660Y-115569234D02*
X128502517Y-115483520D01*
X128502517Y-115483520D02*
X128422160Y-115440663D01*
X128422160Y-115440663D02*
X128293588Y-115440663D01*
X128293588Y-115440663D02*
X128213231Y-115397806D01*
X128213231Y-115397806D02*
X128181088Y-115312091D01*
X128181088Y-115312091D02*
X128186446Y-115269234D01*
X128186446Y-115269234D02*
X128240017Y-115183520D01*
X128240017Y-115183520D02*
X128331088Y-115140663D01*
X128331088Y-115140663D02*
X128459660Y-115140663D01*
X128459660Y-115140663D02*
X128540017Y-115183520D01*
X128909659Y-115654948D02*
X128947159Y-115697806D01*
X128947159Y-115697806D02*
X128898945Y-115740663D01*
X128898945Y-115740663D02*
X128861445Y-115697806D01*
X128861445Y-115697806D02*
X128909659Y-115654948D01*
X128909659Y-115654948D02*
X128898945Y-115740663D01*
X111011444Y-116289613D02*
X111568587Y-116289613D01*
X111568587Y-116289613D02*
X111225730Y-116632470D01*
X111225730Y-116632470D02*
X111354301Y-116632470D01*
X111354301Y-116632470D02*
X111434658Y-116675327D01*
X111434658Y-116675327D02*
X111472158Y-116718184D01*
X111472158Y-116718184D02*
X111504301Y-116803898D01*
X111504301Y-116803898D02*
X111477515Y-117018184D01*
X111477515Y-117018184D02*
X111423944Y-117103898D01*
X111423944Y-117103898D02*
X111375730Y-117146756D01*
X111375730Y-117146756D02*
X111284658Y-117189613D01*
X111284658Y-117189613D02*
X111027515Y-117189613D01*
X111027515Y-117189613D02*
X110947158Y-117146756D01*
X110947158Y-117146756D02*
X110909658Y-117103898D01*
X111852515Y-117103898D02*
X111890015Y-117146756D01*
X111890015Y-117146756D02*
X111841801Y-117189613D01*
X111841801Y-117189613D02*
X111804301Y-117146756D01*
X111804301Y-117146756D02*
X111852515Y-117103898D01*
X111852515Y-117103898D02*
X111841801Y-117189613D01*
X112902515Y-116589613D02*
X113245372Y-116589613D01*
X113068586Y-116289613D02*
X112972158Y-117061041D01*
X112972158Y-117061041D02*
X113004300Y-117146756D01*
X113004300Y-117146756D02*
X113084658Y-117189613D01*
X113084658Y-117189613D02*
X113170372Y-117189613D01*
X113470372Y-117189613D02*
X113582872Y-116289613D01*
X113856086Y-117189613D02*
X113915015Y-116718184D01*
X113915015Y-116718184D02*
X113882872Y-116632470D01*
X113882872Y-116632470D02*
X113802515Y-116589613D01*
X113802515Y-116589613D02*
X113673944Y-116589613D01*
X113673944Y-116589613D02*
X113582872Y-116632470D01*
X113582872Y-116632470D02*
X113534658Y-116675327D01*
X114632872Y-117146756D02*
X114541801Y-117189613D01*
X114541801Y-117189613D02*
X114370372Y-117189613D01*
X114370372Y-117189613D02*
X114290015Y-117146756D01*
X114290015Y-117146756D02*
X114257872Y-117061041D01*
X114257872Y-117061041D02*
X114300730Y-116718184D01*
X114300730Y-116718184D02*
X114354301Y-116632470D01*
X114354301Y-116632470D02*
X114445372Y-116589613D01*
X114445372Y-116589613D02*
X114616801Y-116589613D01*
X114616801Y-116589613D02*
X114697158Y-116632470D01*
X114697158Y-116632470D02*
X114729301Y-116718184D01*
X114729301Y-116718184D02*
X114718587Y-116803898D01*
X114718587Y-116803898D02*
X114279301Y-116889613D01*
X116132873Y-117146756D02*
X116041801Y-117189613D01*
X116041801Y-117189613D02*
X115870373Y-117189613D01*
X115870373Y-117189613D02*
X115790015Y-117146756D01*
X115790015Y-117146756D02*
X115752515Y-117103898D01*
X115752515Y-117103898D02*
X115720373Y-117018184D01*
X115720373Y-117018184D02*
X115752515Y-116761041D01*
X115752515Y-116761041D02*
X115806087Y-116675327D01*
X115806087Y-116675327D02*
X115854301Y-116632470D01*
X115854301Y-116632470D02*
X115945373Y-116589613D01*
X115945373Y-116589613D02*
X116116801Y-116589613D01*
X116116801Y-116589613D02*
X116197158Y-116632470D01*
X116641802Y-117189613D02*
X116561444Y-117146756D01*
X116561444Y-117146756D02*
X116523944Y-117103898D01*
X116523944Y-117103898D02*
X116491802Y-117018184D01*
X116491802Y-117018184D02*
X116523944Y-116761041D01*
X116523944Y-116761041D02*
X116577516Y-116675327D01*
X116577516Y-116675327D02*
X116625730Y-116632470D01*
X116625730Y-116632470D02*
X116716802Y-116589613D01*
X116716802Y-116589613D02*
X116845373Y-116589613D01*
X116845373Y-116589613D02*
X116925730Y-116632470D01*
X116925730Y-116632470D02*
X116963230Y-116675327D01*
X116963230Y-116675327D02*
X116995373Y-116761041D01*
X116995373Y-116761041D02*
X116963230Y-117018184D01*
X116963230Y-117018184D02*
X116909659Y-117103898D01*
X116909659Y-117103898D02*
X116861444Y-117146756D01*
X116861444Y-117146756D02*
X116770373Y-117189613D01*
X116770373Y-117189613D02*
X116641802Y-117189613D01*
X117327516Y-117189613D02*
X117402516Y-116589613D01*
X117391802Y-116675327D02*
X117440016Y-116632470D01*
X117440016Y-116632470D02*
X117531088Y-116589613D01*
X117531088Y-116589613D02*
X117659659Y-116589613D01*
X117659659Y-116589613D02*
X117740016Y-116632470D01*
X117740016Y-116632470D02*
X117772159Y-116718184D01*
X117772159Y-116718184D02*
X117713230Y-117189613D01*
X117772159Y-116718184D02*
X117825730Y-116632470D01*
X117825730Y-116632470D02*
X117916802Y-116589613D01*
X117916802Y-116589613D02*
X118045373Y-116589613D01*
X118045373Y-116589613D02*
X118125730Y-116632470D01*
X118125730Y-116632470D02*
X118157873Y-116718184D01*
X118157873Y-116718184D02*
X118098945Y-117189613D01*
X118602516Y-116589613D02*
X118490016Y-117489613D01*
X118597159Y-116632470D02*
X118688230Y-116589613D01*
X118688230Y-116589613D02*
X118859659Y-116589613D01*
X118859659Y-116589613D02*
X118940016Y-116632470D01*
X118940016Y-116632470D02*
X118977516Y-116675327D01*
X118977516Y-116675327D02*
X119009659Y-116761041D01*
X119009659Y-116761041D02*
X118977516Y-117018184D01*
X118977516Y-117018184D02*
X118923945Y-117103898D01*
X118923945Y-117103898D02*
X118875730Y-117146756D01*
X118875730Y-117146756D02*
X118784659Y-117189613D01*
X118784659Y-117189613D02*
X118613230Y-117189613D01*
X118613230Y-117189613D02*
X118532873Y-117146756D01*
X119470374Y-117189613D02*
X119390016Y-117146756D01*
X119390016Y-117146756D02*
X119352516Y-117103898D01*
X119352516Y-117103898D02*
X119320374Y-117018184D01*
X119320374Y-117018184D02*
X119352516Y-116761041D01*
X119352516Y-116761041D02*
X119406088Y-116675327D01*
X119406088Y-116675327D02*
X119454302Y-116632470D01*
X119454302Y-116632470D02*
X119545374Y-116589613D01*
X119545374Y-116589613D02*
X119673945Y-116589613D01*
X119673945Y-116589613D02*
X119754302Y-116632470D01*
X119754302Y-116632470D02*
X119791802Y-116675327D01*
X119791802Y-116675327D02*
X119823945Y-116761041D01*
X119823945Y-116761041D02*
X119791802Y-117018184D01*
X119791802Y-117018184D02*
X119738231Y-117103898D01*
X119738231Y-117103898D02*
X119690016Y-117146756D01*
X119690016Y-117146756D02*
X119598945Y-117189613D01*
X119598945Y-117189613D02*
X119470374Y-117189613D01*
X120231088Y-116589613D02*
X120156088Y-117189613D01*
X120220374Y-116675327D02*
X120268588Y-116632470D01*
X120268588Y-116632470D02*
X120359660Y-116589613D01*
X120359660Y-116589613D02*
X120488231Y-116589613D01*
X120488231Y-116589613D02*
X120568588Y-116632470D01*
X120568588Y-116632470D02*
X120600731Y-116718184D01*
X120600731Y-116718184D02*
X120541802Y-117189613D01*
X121318588Y-117146756D02*
X121227517Y-117189613D01*
X121227517Y-117189613D02*
X121056088Y-117189613D01*
X121056088Y-117189613D02*
X120975731Y-117146756D01*
X120975731Y-117146756D02*
X120943588Y-117061041D01*
X120943588Y-117061041D02*
X120986446Y-116718184D01*
X120986446Y-116718184D02*
X121040017Y-116632470D01*
X121040017Y-116632470D02*
X121131088Y-116589613D01*
X121131088Y-116589613D02*
X121302517Y-116589613D01*
X121302517Y-116589613D02*
X121382874Y-116632470D01*
X121382874Y-116632470D02*
X121415017Y-116718184D01*
X121415017Y-116718184D02*
X121404303Y-116803898D01*
X121404303Y-116803898D02*
X120965017Y-116889613D01*
X121816803Y-116589613D02*
X121741803Y-117189613D01*
X121806089Y-116675327D02*
X121854303Y-116632470D01*
X121854303Y-116632470D02*
X121945375Y-116589613D01*
X121945375Y-116589613D02*
X122073946Y-116589613D01*
X122073946Y-116589613D02*
X122154303Y-116632470D01*
X122154303Y-116632470D02*
X122186446Y-116718184D01*
X122186446Y-116718184D02*
X122127517Y-117189613D01*
X122502518Y-116589613D02*
X122845375Y-116589613D01*
X122668589Y-116289613D02*
X122572161Y-117061041D01*
X122572161Y-117061041D02*
X122604303Y-117146756D01*
X122604303Y-117146756D02*
X122684661Y-117189613D01*
X122684661Y-117189613D02*
X122770375Y-117189613D01*
X123032875Y-117146756D02*
X123113232Y-117189613D01*
X123113232Y-117189613D02*
X123284661Y-117189613D01*
X123284661Y-117189613D02*
X123375732Y-117146756D01*
X123375732Y-117146756D02*
X123429304Y-117061041D01*
X123429304Y-117061041D02*
X123434661Y-117018184D01*
X123434661Y-117018184D02*
X123402518Y-116932470D01*
X123402518Y-116932470D02*
X123322161Y-116889613D01*
X123322161Y-116889613D02*
X123193589Y-116889613D01*
X123193589Y-116889613D02*
X123113232Y-116846756D01*
X123113232Y-116846756D02*
X123081089Y-116761041D01*
X123081089Y-116761041D02*
X123086447Y-116718184D01*
X123086447Y-116718184D02*
X123140018Y-116632470D01*
X123140018Y-116632470D02*
X123231089Y-116589613D01*
X123231089Y-116589613D02*
X123359661Y-116589613D01*
X123359661Y-116589613D02*
X123440018Y-116632470D01*
X124613232Y-117189613D02*
X124532874Y-117146756D01*
X124532874Y-117146756D02*
X124495374Y-117103898D01*
X124495374Y-117103898D02*
X124463232Y-117018184D01*
X124463232Y-117018184D02*
X124495374Y-116761041D01*
X124495374Y-116761041D02*
X124548946Y-116675327D01*
X124548946Y-116675327D02*
X124597160Y-116632470D01*
X124597160Y-116632470D02*
X124688232Y-116589613D01*
X124688232Y-116589613D02*
X124816803Y-116589613D01*
X124816803Y-116589613D02*
X124897160Y-116632470D01*
X124897160Y-116632470D02*
X124934660Y-116675327D01*
X124934660Y-116675327D02*
X124966803Y-116761041D01*
X124966803Y-116761041D02*
X124934660Y-117018184D01*
X124934660Y-117018184D02*
X124881089Y-117103898D01*
X124881089Y-117103898D02*
X124832874Y-117146756D01*
X124832874Y-117146756D02*
X124741803Y-117189613D01*
X124741803Y-117189613D02*
X124613232Y-117189613D01*
X125245375Y-116589613D02*
X125588232Y-116589613D01*
X125298946Y-117189613D02*
X125395375Y-116418184D01*
X125395375Y-116418184D02*
X125448946Y-116332470D01*
X125448946Y-116332470D02*
X125540018Y-116289613D01*
X125540018Y-116289613D02*
X125625732Y-116289613D01*
X126461446Y-117146756D02*
X126541803Y-117189613D01*
X126541803Y-117189613D02*
X126713232Y-117189613D01*
X126713232Y-117189613D02*
X126804303Y-117146756D01*
X126804303Y-117146756D02*
X126857875Y-117061041D01*
X126857875Y-117061041D02*
X126863232Y-117018184D01*
X126863232Y-117018184D02*
X126831089Y-116932470D01*
X126831089Y-116932470D02*
X126750732Y-116889613D01*
X126750732Y-116889613D02*
X126622160Y-116889613D01*
X126622160Y-116889613D02*
X126541803Y-116846756D01*
X126541803Y-116846756D02*
X126509660Y-116761041D01*
X126509660Y-116761041D02*
X126515018Y-116718184D01*
X126515018Y-116718184D02*
X126568589Y-116632470D01*
X126568589Y-116632470D02*
X126659660Y-116589613D01*
X126659660Y-116589613D02*
X126788232Y-116589613D01*
X126788232Y-116589613D02*
X126868589Y-116632470D01*
X127688231Y-116589613D02*
X127613231Y-117189613D01*
X127302517Y-116589613D02*
X127243589Y-117061041D01*
X127243589Y-117061041D02*
X127275731Y-117146756D01*
X127275731Y-117146756D02*
X127356089Y-117189613D01*
X127356089Y-117189613D02*
X127484660Y-117189613D01*
X127484660Y-117189613D02*
X127575731Y-117146756D01*
X127575731Y-117146756D02*
X127623946Y-117103898D01*
X128432875Y-117146756D02*
X128341803Y-117189613D01*
X128341803Y-117189613D02*
X128170375Y-117189613D01*
X128170375Y-117189613D02*
X128090017Y-117146756D01*
X128090017Y-117146756D02*
X128052517Y-117103898D01*
X128052517Y-117103898D02*
X128020375Y-117018184D01*
X128020375Y-117018184D02*
X128052517Y-116761041D01*
X128052517Y-116761041D02*
X128106089Y-116675327D01*
X128106089Y-116675327D02*
X128154303Y-116632470D01*
X128154303Y-116632470D02*
X128245375Y-116589613D01*
X128245375Y-116589613D02*
X128416803Y-116589613D01*
X128416803Y-116589613D02*
X128497160Y-116632470D01*
X128813232Y-117189613D02*
X128925732Y-116289613D01*
X129198946Y-117189613D02*
X129257875Y-116718184D01*
X129257875Y-116718184D02*
X129225732Y-116632470D01*
X129225732Y-116632470D02*
X129145375Y-116589613D01*
X129145375Y-116589613D02*
X129016804Y-116589613D01*
X129016804Y-116589613D02*
X128925732Y-116632470D01*
X128925732Y-116632470D02*
X128877518Y-116675327D01*
X113390016Y-118595706D02*
X113298944Y-118638563D01*
X113298944Y-118638563D02*
X113127516Y-118638563D01*
X113127516Y-118638563D02*
X113047158Y-118595706D01*
X113047158Y-118595706D02*
X113009658Y-118552848D01*
X113009658Y-118552848D02*
X112977516Y-118467134D01*
X112977516Y-118467134D02*
X113009658Y-118209991D01*
X113009658Y-118209991D02*
X113063230Y-118124277D01*
X113063230Y-118124277D02*
X113111444Y-118081420D01*
X113111444Y-118081420D02*
X113202516Y-118038563D01*
X113202516Y-118038563D02*
X113373944Y-118038563D01*
X113373944Y-118038563D02*
X113454301Y-118081420D01*
X113770373Y-118638563D02*
X113845373Y-118038563D01*
X113882873Y-117738563D02*
X113834659Y-117781420D01*
X113834659Y-117781420D02*
X113872159Y-117824277D01*
X113872159Y-117824277D02*
X113920373Y-117781420D01*
X113920373Y-117781420D02*
X113882873Y-117738563D01*
X113882873Y-117738563D02*
X113872159Y-117824277D01*
X114198944Y-118638563D02*
X114273944Y-118038563D01*
X114252516Y-118209991D02*
X114306087Y-118124277D01*
X114306087Y-118124277D02*
X114354301Y-118081420D01*
X114354301Y-118081420D02*
X114445373Y-118038563D01*
X114445373Y-118038563D02*
X114531087Y-118038563D01*
X115147159Y-118595706D02*
X115056087Y-118638563D01*
X115056087Y-118638563D02*
X114884659Y-118638563D01*
X114884659Y-118638563D02*
X114804301Y-118595706D01*
X114804301Y-118595706D02*
X114766801Y-118552848D01*
X114766801Y-118552848D02*
X114734659Y-118467134D01*
X114734659Y-118467134D02*
X114766801Y-118209991D01*
X114766801Y-118209991D02*
X114820373Y-118124277D01*
X114820373Y-118124277D02*
X114868587Y-118081420D01*
X114868587Y-118081420D02*
X114959659Y-118038563D01*
X114959659Y-118038563D02*
X115131087Y-118038563D01*
X115131087Y-118038563D02*
X115211444Y-118081420D01*
X115988230Y-118038563D02*
X115913230Y-118638563D01*
X115602516Y-118038563D02*
X115543588Y-118509991D01*
X115543588Y-118509991D02*
X115575730Y-118595706D01*
X115575730Y-118595706D02*
X115656088Y-118638563D01*
X115656088Y-118638563D02*
X115784659Y-118638563D01*
X115784659Y-118638563D02*
X115875730Y-118595706D01*
X115875730Y-118595706D02*
X115923945Y-118552848D01*
X116341802Y-118638563D02*
X116416802Y-118038563D01*
X116454302Y-117738563D02*
X116406088Y-117781420D01*
X116406088Y-117781420D02*
X116443588Y-117824277D01*
X116443588Y-117824277D02*
X116491802Y-117781420D01*
X116491802Y-117781420D02*
X116454302Y-117738563D01*
X116454302Y-117738563D02*
X116443588Y-117824277D01*
X116716802Y-118038563D02*
X117059659Y-118038563D01*
X116882873Y-117738563D02*
X116786445Y-118509991D01*
X116786445Y-118509991D02*
X116818587Y-118595706D01*
X116818587Y-118595706D02*
X116898945Y-118638563D01*
X116898945Y-118638563D02*
X116984659Y-118638563D01*
X117247159Y-118595706D02*
X117327516Y-118638563D01*
X117327516Y-118638563D02*
X117498945Y-118638563D01*
X117498945Y-118638563D02*
X117590016Y-118595706D01*
X117590016Y-118595706D02*
X117643588Y-118509991D01*
X117643588Y-118509991D02*
X117648945Y-118467134D01*
X117648945Y-118467134D02*
X117616802Y-118381420D01*
X117616802Y-118381420D02*
X117536445Y-118338563D01*
X117536445Y-118338563D02*
X117407873Y-118338563D01*
X117407873Y-118338563D02*
X117327516Y-118295706D01*
X117327516Y-118295706D02*
X117295373Y-118209991D01*
X117295373Y-118209991D02*
X117300731Y-118167134D01*
X117300731Y-118167134D02*
X117354302Y-118081420D01*
X117354302Y-118081420D02*
X117445373Y-118038563D01*
X117445373Y-118038563D02*
X117573945Y-118038563D01*
X117573945Y-118038563D02*
X117654302Y-118081420D01*
X118023944Y-118552848D02*
X118061444Y-118595706D01*
X118061444Y-118595706D02*
X118013230Y-118638563D01*
X118013230Y-118638563D02*
X117975730Y-118595706D01*
X117975730Y-118595706D02*
X118023944Y-118552848D01*
X118023944Y-118552848D02*
X118013230Y-118638563D01*
X150622048Y-109114866D02*
X151383953Y-109114866D01*
X151003000Y-109495819D02*
X151003000Y-108733914D01*
D12*
X173584687Y-113082713D02*
X174205852Y-110764491D01*
D13*
X173536778Y-113915762D02*
G75*
G02*
X171736778Y-113915762I-900000J0D01*
G01*
X171736778Y-113915762D02*
G75*
G02*
X173536778Y-113915762I900000J0D01*
G01*
X160238990Y-120525081D02*
X160238990Y-122251881D01*
X157838990Y-120525081D02*
X157838990Y-122251881D01*
X160238990Y-121083481D02*
X157838990Y-121083481D01*
X157838990Y-120525081D01*
X160238990Y-120525081D01*
X160238990Y-121083481D01*
G36*
X160238990Y-121083481D02*
G01*
X157838990Y-121083481D01*
X157838990Y-120525081D01*
X160238990Y-120525081D01*
X160238990Y-121083481D01*
G37*
X154816390Y-126467881D02*
X154816390Y-124741081D01*
X157216390Y-126467881D02*
X157216390Y-124741081D01*
X157216390Y-126467881D02*
X154816390Y-126467881D01*
X154816390Y-125909481D01*
X157216390Y-125909481D01*
X157216390Y-126467881D01*
G36*
X157216390Y-126467881D02*
G01*
X154816390Y-126467881D01*
X154816390Y-125909481D01*
X157216390Y-125909481D01*
X157216390Y-126467881D01*
G37*
X169819105Y-107748849D02*
X169819105Y-106022049D01*
X172219105Y-107748849D02*
X172219105Y-106022049D01*
X172219105Y-107748849D02*
X169819105Y-107748849D01*
X169819105Y-107190449D01*
X172219105Y-107190449D01*
X172219105Y-107748849D01*
G36*
X172219105Y-107748849D02*
G01*
X169819105Y-107748849D01*
X169819105Y-107190449D01*
X172219105Y-107190449D01*
X172219105Y-107748849D01*
G37*
X151378705Y-102482449D02*
X151378705Y-100755649D01*
X153778705Y-102482449D02*
X153778705Y-100755649D01*
X153778705Y-102482449D02*
X151378705Y-102482449D01*
X151378705Y-101924049D01*
X153778705Y-101924049D01*
X153778705Y-102482449D01*
G36*
X153778705Y-102482449D02*
G01*
X151378705Y-102482449D01*
X151378705Y-101924049D01*
X153778705Y-101924049D01*
X153778705Y-102482449D01*
G37*
X132997790Y-97445081D02*
X132997790Y-95718281D01*
X135397790Y-97445081D02*
X135397790Y-95718281D01*
X135397790Y-97445081D02*
X132997790Y-97445081D01*
X132997790Y-96886681D01*
X135397790Y-96886681D01*
X135397790Y-97445081D01*
G36*
X135397790Y-97445081D02*
G01*
X132997790Y-97445081D01*
X132997790Y-96886681D01*
X135397790Y-96886681D01*
X135397790Y-97445081D01*
G37*
X115062190Y-100137481D02*
X115062190Y-98410681D01*
X117462190Y-100137481D02*
X117462190Y-98410681D01*
X117462190Y-100137481D02*
X115062190Y-100137481D01*
X115062190Y-99579081D01*
X117462190Y-99579081D01*
X117462190Y-100137481D01*
G36*
X117462190Y-100137481D02*
G01*
X115062190Y-100137481D01*
X115062190Y-99579081D01*
X117462190Y-99579081D01*
X117462190Y-100137481D01*
G37*
X96561390Y-103404681D02*
X96561390Y-101677881D01*
X98961390Y-103404681D02*
X98961390Y-101677881D01*
X98961390Y-103404681D02*
X96561390Y-103404681D01*
X96561390Y-102846281D01*
X98961390Y-102846281D01*
X98961390Y-103404681D01*
G36*
X98961390Y-103404681D02*
G01*
X96561390Y-103404681D01*
X96561390Y-102846281D01*
X98961390Y-102846281D01*
X98961390Y-103404681D01*
G37*
X169929390Y-91212681D02*
X169929390Y-89485881D01*
X172329390Y-91212681D02*
X172329390Y-89485881D01*
X172329390Y-91212681D02*
X169929390Y-91212681D01*
X169929390Y-90654281D01*
X172329390Y-90654281D01*
X172329390Y-91212681D01*
G36*
X172329390Y-91212681D02*
G01*
X169929390Y-91212681D01*
X169929390Y-90654281D01*
X172329390Y-90654281D01*
X172329390Y-91212681D01*
G37*
X151578431Y-85692916D02*
X151578431Y-83966116D01*
X153978431Y-85692916D02*
X153978431Y-83966116D01*
X153978431Y-85692916D02*
X151578431Y-85692916D01*
X151578431Y-85134516D01*
X153978431Y-85134516D01*
X153978431Y-85692916D01*
G36*
X153978431Y-85692916D02*
G01*
X151578431Y-85692916D01*
X151578431Y-85134516D01*
X153978431Y-85134516D01*
X153978431Y-85692916D01*
G37*
X132997790Y-80477881D02*
X132997790Y-78751081D01*
X135397790Y-80477881D02*
X135397790Y-78751081D01*
X135397790Y-80477881D02*
X132997790Y-80477881D01*
X132997790Y-79919481D01*
X135397790Y-79919481D01*
X135397790Y-80477881D01*
G36*
X135397790Y-80477881D02*
G01*
X132997790Y-80477881D01*
X132997790Y-79919481D01*
X135397790Y-79919481D01*
X135397790Y-80477881D01*
G37*
X115062190Y-83221081D02*
X115062190Y-81494281D01*
X117462190Y-83221081D02*
X117462190Y-81494281D01*
X117462190Y-83221081D02*
X115062190Y-83221081D01*
X115062190Y-82662681D01*
X117462190Y-82662681D01*
X117462190Y-83221081D01*
G36*
X117462190Y-83221081D02*
G01*
X115062190Y-83221081D01*
X115062190Y-82662681D01*
X117462190Y-82662681D01*
X117462190Y-83221081D01*
G37*
X96250660Y-86188298D02*
X96250660Y-84461498D01*
X98650660Y-86188298D02*
X98650660Y-84461498D01*
X98650660Y-86188298D02*
X96250660Y-86188298D01*
X96250660Y-85629898D01*
X98650660Y-85629898D01*
X98650660Y-86188298D01*
G36*
X98650660Y-86188298D02*
G01*
X96250660Y-86188298D01*
X96250660Y-85629898D01*
X98650660Y-85629898D01*
X98650660Y-86188298D01*
G37*
X155132694Y-66159350D02*
X155132694Y-64432550D01*
X157532694Y-66159350D02*
X157532694Y-64432550D01*
X157532694Y-66159350D02*
X155132694Y-66159350D01*
X155132694Y-65600950D01*
X157532694Y-65600950D01*
X157532694Y-66159350D01*
G36*
X157532694Y-66159350D02*
G01*
X155132694Y-66159350D01*
X155132694Y-65600950D01*
X157532694Y-65600950D01*
X157532694Y-66159350D01*
G37*
X151878020Y-68709817D02*
X151878020Y-66983017D01*
X154278020Y-68709817D02*
X154278020Y-66983017D01*
X154278020Y-68709817D02*
X151878020Y-68709817D01*
X151878020Y-68151417D01*
X154278020Y-68151417D01*
X154278020Y-68709817D01*
G36*
X154278020Y-68709817D02*
G01*
X151878020Y-68709817D01*
X151878020Y-68151417D01*
X154278020Y-68151417D01*
X154278020Y-68709817D01*
G37*
X132997790Y-63713881D02*
X132997790Y-61987081D01*
X135397790Y-63713881D02*
X135397790Y-61987081D01*
X135397790Y-63713881D02*
X132997790Y-63713881D01*
X132997790Y-63155481D01*
X135397790Y-63155481D01*
X135397790Y-63713881D01*
G36*
X135397790Y-63713881D02*
G01*
X132997790Y-63713881D01*
X132997790Y-63155481D01*
X135397790Y-63155481D01*
X135397790Y-63713881D01*
G37*
X115062190Y-65576081D02*
X115062190Y-63849281D01*
X117462190Y-65576081D02*
X117462190Y-63849281D01*
X117462190Y-65576081D02*
X115062190Y-65576081D01*
X115062190Y-65017681D01*
X117462190Y-65017681D01*
X117462190Y-65576081D01*
G36*
X117462190Y-65576081D02*
G01*
X115062190Y-65576081D01*
X115062190Y-65017681D01*
X117462190Y-65017681D01*
X117462190Y-65576081D01*
G37*
X96561390Y-65558681D02*
X96561390Y-63831881D01*
X98961390Y-65558681D02*
X98961390Y-63831881D01*
X98961390Y-65558681D02*
X96561390Y-65558681D01*
X96561390Y-65000281D01*
X98961390Y-65000281D01*
X98961390Y-65558681D01*
G36*
X98961390Y-65558681D02*
G01*
X96561390Y-65558681D01*
X96561390Y-65000281D01*
X98961390Y-65000281D01*
X98961390Y-65558681D01*
G37*
D11*
X100446390Y-89386681D02*
X100446390Y-89083681D01*
X100446390Y-93733681D02*
X100446390Y-93430681D01*
X104046390Y-89083681D02*
X100446390Y-89083681D01*
X104046390Y-93733681D02*
X100446390Y-93733681D01*
X106471390Y-86983681D02*
X109021390Y-86983681D01*
X110046390Y-88008681D02*
X109021390Y-86983681D01*
X110046390Y-88008681D02*
X110046390Y-88108681D01*
X118746190Y-69586681D02*
X118746190Y-69283681D01*
X118746190Y-73933681D02*
X118746190Y-73630681D01*
X122346190Y-69283681D02*
X118746190Y-69283681D01*
X122346190Y-73933681D02*
X118746190Y-73933681D01*
X124771190Y-67183681D02*
X127321190Y-67183681D01*
X128346190Y-68208681D02*
X127321190Y-67183681D01*
X128346190Y-68208681D02*
X128346190Y-68308681D01*
X100446390Y-72386681D02*
X100446390Y-72083681D01*
X100446390Y-76733681D02*
X100446390Y-76430681D01*
X104046390Y-72083681D02*
X100446390Y-72083681D01*
X104046390Y-76733681D02*
X100446390Y-76733681D01*
X106471390Y-69983681D02*
X109021390Y-69983681D01*
X110046390Y-71008681D02*
X109021390Y-69983681D01*
X110046390Y-71008681D02*
X110046390Y-71108681D01*
D14*
X143311201Y-127943102D02*
X143208085Y-128726344D01*
X143671119Y-129806019D02*
X149322357Y-130550018D01*
X144940337Y-131274246D02*
X145111215Y-131508556D01*
X145108716Y-129995282D02*
X144940337Y-131274246D01*
X145111215Y-131508556D02*
X146003516Y-131626028D01*
X145282427Y-127143559D02*
X146967883Y-127365453D01*
X146229215Y-131443930D02*
X146003516Y-131626028D01*
X146229215Y-131443930D02*
X146397594Y-130164966D01*
X148256761Y-127535138D02*
X148455051Y-127561243D01*
X150049054Y-129626974D02*
X150152170Y-128843733D01*
D11*
X118746190Y-86586681D02*
X118746190Y-86283681D01*
X118746190Y-90933681D02*
X118746190Y-90630681D01*
X122346190Y-86283681D02*
X118746190Y-86283681D01*
X122346190Y-90933681D02*
X118746190Y-90933681D01*
X124771190Y-84183681D02*
X127321190Y-84183681D01*
X128346190Y-85208681D02*
X127321190Y-84183681D01*
X128346190Y-85208681D02*
X128346190Y-85308681D01*
X100446390Y-54741681D02*
X100446390Y-54438681D01*
X100446390Y-59088681D02*
X100446390Y-58785681D01*
X104046390Y-54438681D02*
X100446390Y-54438681D01*
X104046390Y-59088681D02*
X100446390Y-59088681D01*
X106471390Y-52338681D02*
X109021390Y-52338681D01*
X110046390Y-53363681D02*
X109021390Y-52338681D01*
X110046390Y-53363681D02*
X110046390Y-53463681D01*
X81147852Y-93444794D02*
X81137278Y-93141987D01*
X81299560Y-97789146D02*
X81288986Y-97486330D01*
X84735085Y-93016340D02*
X81137278Y-93141987D01*
X84897367Y-97663508D02*
X81299560Y-97789146D01*
X87085318Y-90832988D02*
X89633765Y-90743995D01*
X90693913Y-91732598D02*
X89633765Y-90743995D01*
X90693913Y-91732598D02*
X90697402Y-91832537D01*
X138754512Y-58390522D02*
X138770370Y-58087937D01*
X138982016Y-54049479D02*
X138997874Y-53746895D01*
X142349578Y-58578931D02*
X138754512Y-58390522D01*
X142592940Y-53935304D02*
X138997874Y-53746895D01*
X145124523Y-51965097D02*
X147671028Y-52098553D01*
X148640979Y-53175793D02*
X147671028Y-52098553D01*
X148640979Y-53175793D02*
X148635745Y-53275656D01*
X160527501Y-120591056D02*
X160605923Y-120298381D01*
X161652587Y-116392177D02*
X161731009Y-116099501D01*
X164004834Y-121522805D02*
X160527501Y-120591056D01*
X165208342Y-117031250D02*
X161731009Y-116099501D01*
X168094232Y-115630442D02*
X170557343Y-116290430D01*
X171282128Y-117545794D02*
X170557343Y-116290430D01*
X171282128Y-117545794D02*
X171256246Y-117642385D01*
X118746190Y-52586681D02*
X118746190Y-52283681D01*
X118746190Y-56933681D02*
X118746190Y-56630681D01*
X122346190Y-52283681D02*
X118746190Y-52283681D01*
X122346190Y-56933681D02*
X118746190Y-56933681D01*
X124771190Y-50183681D02*
X127321190Y-50183681D01*
X128346190Y-51208681D02*
X127321190Y-50183681D01*
X128346190Y-51208681D02*
X128346190Y-51308681D01*
X137873846Y-92391229D02*
X137889704Y-92088644D01*
X138101350Y-88050186D02*
X138117208Y-87747602D01*
X141468912Y-92579638D02*
X137873846Y-92391229D01*
X141712274Y-87936011D02*
X138117208Y-87747602D01*
X144243857Y-85965804D02*
X146790362Y-86099260D01*
X147760313Y-87176500D02*
X146790362Y-86099260D01*
X147760313Y-87176500D02*
X147755079Y-87276363D01*
X138314174Y-75390975D02*
X138330032Y-75088390D01*
X138541678Y-71049932D02*
X138557536Y-70747348D01*
X141909240Y-75579384D02*
X138314174Y-75390975D01*
X142152602Y-70935757D02*
X138557536Y-70747348D01*
X144684185Y-68965550D02*
X147230690Y-69099006D01*
X148200641Y-70176246D02*
X147230690Y-69099006D01*
X148200641Y-70176246D02*
X148195407Y-70276109D01*
X84226331Y-113634119D02*
G75*
G02*
X85948168Y-111390178I1982889J261052D01*
G01*
X88271534Y-129037896D02*
G75*
G02*
X86027592Y-127316058I-261053J1982889D01*
G01*
X102691887Y-109185825D02*
G75*
G02*
X104935828Y-110907662I261052J-1982889D01*
G01*
X106737091Y-124589601D02*
G75*
G02*
X105015253Y-126833542I-1982889J-261052D01*
G01*
X80826652Y-76098994D02*
X80816078Y-75796187D01*
X80978360Y-80443346D02*
X80967786Y-80140530D01*
X84413885Y-75670540D02*
X80816078Y-75796187D01*
X84576167Y-80317708D02*
X80978360Y-80443346D01*
X86764118Y-73487188D02*
X89312565Y-73398195D01*
X90372713Y-74386798D02*
X89312565Y-73398195D01*
X90372713Y-74386798D02*
X90376202Y-74486737D01*
D14*
X144111000Y-104390000D02*
X144111000Y-105140000D01*
X144111000Y-105140000D02*
X145111000Y-105540000D01*
X144111000Y-108770000D02*
X144111000Y-109520000D01*
X145111000Y-105540000D02*
X145111000Y-108370000D01*
X145111000Y-108370000D02*
X144111000Y-108770000D01*
X147731000Y-103020000D02*
X150231000Y-103020000D01*
X147731000Y-110890000D02*
X150231000Y-110890000D01*
X150231000Y-103020000D02*
X150231000Y-105670000D01*
X150231000Y-105670000D02*
X151621000Y-105670000D01*
X150231000Y-110890000D02*
X150231000Y-108240000D01*
D11*
X87146590Y-71108681D02*
X87146590Y-71008681D01*
X87146590Y-71108681D02*
X88171590Y-72133681D01*
X90721590Y-72133681D02*
X88171590Y-72133681D01*
X93146590Y-65383681D02*
X96746590Y-65383681D01*
X93146590Y-70033681D02*
X96746590Y-70033681D01*
X96746590Y-65383681D02*
X96746590Y-65686681D01*
X96746590Y-69730681D02*
X96746590Y-70033681D01*
X155788590Y-98381660D02*
X155804448Y-98079075D01*
X156016094Y-94040617D02*
X156031952Y-93738033D01*
X159383656Y-98570069D02*
X155788590Y-98381660D01*
X159627018Y-93926442D02*
X156031952Y-93738033D01*
X162158601Y-91956235D02*
X164705106Y-92089691D01*
X165675057Y-93166931D02*
X164705106Y-92089691D01*
X165675057Y-93166931D02*
X165669823Y-93266794D01*
X140748712Y-117650075D02*
X140788261Y-117349667D01*
X141316109Y-113340264D02*
X141355658Y-113039856D01*
X144317913Y-118119969D02*
X140748712Y-117650075D01*
X144924860Y-113509750D02*
X141355658Y-113039856D01*
X147603219Y-111744242D02*
X150131403Y-112077084D01*
X151013845Y-113227104D02*
X150131403Y-112077084D01*
X151013845Y-113227104D02*
X151000792Y-113326249D01*
X161704055Y-73326879D02*
X161709289Y-73227016D01*
X161704055Y-73326879D02*
X162674006Y-74404119D01*
X165220511Y-74537575D02*
X162674006Y-74404119D01*
X167752094Y-72567368D02*
X171347160Y-72755777D01*
X167995456Y-67923741D02*
X171590522Y-68112150D01*
X171363018Y-72453193D02*
X171347160Y-72755777D01*
X171590522Y-68112150D02*
X171574664Y-68414735D01*
X156574800Y-81394491D02*
X156590658Y-81091906D01*
X156802304Y-77053448D02*
X156818162Y-76750864D01*
X160169866Y-81582900D02*
X156574800Y-81394491D01*
X160413228Y-76939273D02*
X156818162Y-76750864D01*
X162944811Y-74969066D02*
X165491316Y-75102522D01*
X166461267Y-76179762D02*
X165491316Y-75102522D01*
X166461267Y-76179762D02*
X166456033Y-76279625D01*
%LPC*%
D12*
X87756130Y-115406955D02*
X86748822Y-115539569D01*
X86616207Y-114532261D01*
X87623515Y-114399647D01*
X87756130Y-115406955D01*
G36*
X87756130Y-115406955D02*
G01*
X86748822Y-115539569D01*
X86616207Y-114532261D01*
X87623515Y-114399647D01*
X87756130Y-115406955D01*
G37*
X89112845Y-125712231D02*
X88105537Y-125844846D01*
X87972923Y-124837538D01*
X88980231Y-124704923D01*
X89112845Y-125712231D01*
G36*
X89112845Y-125712231D02*
G01*
X88105537Y-125844846D01*
X87972923Y-124837538D01*
X88980231Y-124704923D01*
X89112845Y-125712231D01*
G37*
X89438017Y-115185530D02*
X88430709Y-115318145D01*
X88298094Y-114310837D01*
X89305402Y-114178222D01*
X89438017Y-115185530D01*
G36*
X89438017Y-115185530D02*
G01*
X88430709Y-115318145D01*
X88298094Y-114310837D01*
X89305402Y-114178222D01*
X89438017Y-115185530D01*
G37*
X90794732Y-125490806D02*
X89787424Y-125623421D01*
X89654810Y-124616113D01*
X90662118Y-124483498D01*
X90794732Y-125490806D01*
G36*
X90794732Y-125490806D02*
G01*
X89787424Y-125623421D01*
X89654810Y-124616113D01*
X90662118Y-124483498D01*
X90794732Y-125490806D01*
G37*
X91119904Y-114964106D02*
X90112596Y-115096720D01*
X89979981Y-114089412D01*
X90987289Y-113956798D01*
X91119904Y-114964106D01*
G36*
X91119904Y-114964106D02*
G01*
X90112596Y-115096720D01*
X89979981Y-114089412D01*
X90987289Y-113956798D01*
X91119904Y-114964106D01*
G37*
X92476619Y-125269382D02*
X91469311Y-125401996D01*
X91336697Y-124394688D01*
X92344005Y-124262074D01*
X92476619Y-125269382D01*
G36*
X92476619Y-125269382D02*
G01*
X91469311Y-125401996D01*
X91336697Y-124394688D01*
X92344005Y-124262074D01*
X92476619Y-125269382D01*
G37*
X96983111Y-114192200D02*
X95975803Y-114324814D01*
X95843188Y-113317506D01*
X96850496Y-113184892D01*
X96983111Y-114192200D01*
G36*
X96983111Y-114192200D02*
G01*
X95975803Y-114324814D01*
X95843188Y-113317506D01*
X96850496Y-113184892D01*
X96983111Y-114192200D01*
G37*
X98339826Y-124497476D02*
X97332518Y-124630091D01*
X97199903Y-123622783D01*
X98207211Y-123490168D01*
X98339826Y-124497476D01*
G36*
X98339826Y-124497476D02*
G01*
X97332518Y-124630091D01*
X97199903Y-123622783D01*
X98207211Y-123490168D01*
X98339826Y-124497476D01*
G37*
X98665295Y-113970736D02*
X97657987Y-114103351D01*
X97525373Y-113096043D01*
X98532681Y-112963428D01*
X98665295Y-113970736D01*
G36*
X98665295Y-113970736D02*
G01*
X97657987Y-114103351D01*
X97525373Y-113096043D01*
X98532681Y-112963428D01*
X98665295Y-113970736D01*
G37*
X100022010Y-124276012D02*
X99014703Y-124408627D01*
X98882088Y-123401319D01*
X99889396Y-123268704D01*
X100022010Y-124276012D01*
G36*
X100022010Y-124276012D02*
G01*
X99014703Y-124408627D01*
X98882088Y-123401319D01*
X99889396Y-123268704D01*
X100022010Y-124276012D01*
G37*
X100347480Y-113749272D02*
X99340172Y-113881887D01*
X99207557Y-112874579D01*
X100214865Y-112741964D01*
X100347480Y-113749272D01*
G36*
X100347480Y-113749272D02*
G01*
X99340172Y-113881887D01*
X99207557Y-112874579D01*
X100214865Y-112741964D01*
X100347480Y-113749272D01*
G37*
X101704195Y-124054548D02*
X100696887Y-124187163D01*
X100564272Y-123179855D01*
X101571580Y-123047240D01*
X101704195Y-124054548D01*
G36*
X101704195Y-124054548D02*
G01*
X100696887Y-124187163D01*
X100564272Y-123179855D01*
X101571580Y-123047240D01*
X101704195Y-124054548D01*
G37*
X102370027Y-113482999D02*
X101362719Y-113615613D01*
X101230105Y-112608305D01*
X102237413Y-112475691D01*
X102370027Y-113482999D01*
G36*
X102370027Y-113482999D02*
G01*
X101362719Y-113615613D01*
X101230105Y-112608305D01*
X102237413Y-112475691D01*
X102370027Y-113482999D01*
G37*
X103726743Y-123788275D02*
X102719435Y-123920892D01*
X102586820Y-122913582D01*
X103594128Y-122780967D01*
X103726743Y-123788275D01*
G36*
X103726743Y-123788275D02*
G01*
X102719435Y-123920892D01*
X102586820Y-122913582D01*
X103594128Y-122780967D01*
X103726743Y-123788275D01*
G37*
D15*
X176253908Y-113513671D03*
X178841352Y-112550533D03*
X179358990Y-110618681D03*
X174322057Y-112996033D03*
X172562834Y-110868209D03*
X173080472Y-108936357D03*
X172636778Y-113915762D03*
X174568630Y-114433400D03*
X176500482Y-114951038D03*
X173801464Y-109569096D03*
X175733316Y-110086734D03*
X177665168Y-110604372D03*
D16*
X159038990Y-122025081D03*
X159038990Y-125425081D03*
D17*
X156016390Y-124967881D03*
X156016390Y-121567881D03*
X171019105Y-106248849D03*
X171019105Y-102848849D03*
X152578705Y-100982449D03*
X152578705Y-97582449D03*
X134197790Y-95945081D03*
X134197790Y-92545081D03*
X116262190Y-98637481D03*
X116262190Y-95237481D03*
X97761390Y-101904681D03*
X97761390Y-98504681D03*
X171129390Y-89712681D03*
X171129390Y-86312681D03*
X152778431Y-84192916D03*
X152778431Y-80792916D03*
X134197790Y-78977881D03*
X134197790Y-75577881D03*
X116262190Y-81721081D03*
X116262190Y-78321081D03*
X97450660Y-84688298D03*
X97450660Y-81288298D03*
X156332694Y-64659350D03*
X156332694Y-61259350D03*
X153078020Y-67209817D03*
X153078020Y-63809817D03*
X134197790Y-62213881D03*
X134197790Y-58813881D03*
X116262190Y-64076081D03*
X116262190Y-60676081D03*
X97761390Y-64058681D03*
X97761390Y-60658681D03*
D18*
X102246390Y-95208681D03*
D19*
X102746390Y-91408681D03*
D20*
X102746390Y-100358681D03*
D19*
X107746390Y-89308681D03*
D21*
X107746390Y-95208681D03*
D19*
X112746390Y-91408681D03*
D20*
X112746390Y-100358681D03*
D18*
X113246390Y-95208681D03*
D22*
X99846390Y-91408681D03*
D23*
X110546390Y-89308681D03*
D24*
X100720590Y-106203881D03*
D18*
X120546190Y-75408681D03*
D19*
X121046190Y-71608681D03*
D20*
X121046190Y-80558681D03*
D19*
X126046190Y-69508681D03*
D21*
X126046190Y-75408681D03*
D19*
X131046190Y-71608681D03*
D20*
X131046190Y-80558681D03*
D18*
X131546190Y-75408681D03*
D22*
X118146190Y-71608681D03*
D23*
X128846190Y-69508681D03*
D18*
X102246390Y-78208681D03*
D19*
X102746390Y-74408681D03*
D20*
X102746390Y-83358681D03*
D19*
X107746390Y-72308681D03*
D21*
X107746390Y-78208681D03*
D19*
X112746390Y-74408681D03*
D20*
X112746390Y-83358681D03*
D18*
X113246390Y-78208681D03*
D22*
X99846390Y-74408681D03*
D23*
X110546390Y-72308681D03*
D25*
X142917122Y-129404164D03*
X143205586Y-127213071D03*
D26*
X145192308Y-128594207D03*
X148166642Y-128985785D03*
D25*
X150443133Y-128165912D03*
X150154670Y-130357005D03*
D27*
X144678450Y-126751369D03*
X147652785Y-127142947D03*
X149139952Y-127338737D03*
D18*
X120546190Y-92408681D03*
D19*
X121046190Y-88608681D03*
D20*
X121046190Y-97558681D03*
D19*
X126046190Y-86508681D03*
D21*
X126046190Y-92408681D03*
D19*
X131046190Y-88608681D03*
D20*
X131046190Y-97558681D03*
D18*
X131546190Y-92408681D03*
D22*
X118146190Y-88608681D03*
D23*
X128846190Y-86508681D03*
D18*
X102246390Y-60563681D03*
D19*
X102746390Y-56763681D03*
D20*
X102746390Y-65713681D03*
D19*
X107746390Y-54663681D03*
D21*
X107746390Y-60563681D03*
D19*
X112746390Y-56763681D03*
D20*
X112746390Y-65713681D03*
D18*
X113246390Y-60563681D03*
D22*
X99846390Y-56763681D03*
D23*
X110546390Y-54663681D03*
D18*
X83149940Y-99200428D03*
D19*
X83517018Y-95385293D03*
D20*
X83829368Y-104329841D03*
D19*
X88440683Y-93112075D03*
D21*
X88646590Y-99008481D03*
D19*
X93510926Y-95036298D03*
D20*
X93823277Y-103980846D03*
D18*
X94143240Y-98816534D03*
D28*
X80618784Y-95486502D03*
D29*
X91238977Y-93014357D03*
D18*
X140474850Y-59957705D03*
D19*
X141173041Y-56189081D03*
D20*
X140704634Y-65126815D03*
D19*
X146276094Y-54353639D03*
D21*
X145967312Y-60245553D03*
D19*
X151159336Y-56712441D03*
D20*
X150690929Y-65650175D03*
D18*
X151459774Y-60533401D03*
D30*
X138277015Y-56037307D03*
D31*
X149072257Y-54500179D03*
D24*
X159054800Y-114147600D03*
D18*
X161884409Y-122481671D03*
D19*
X163350884Y-118940563D03*
D20*
X161034454Y-127585599D03*
D19*
X168724033Y-118206214D03*
D21*
X167197001Y-123905176D03*
D19*
X173010143Y-121528753D03*
D20*
X170693712Y-130173789D03*
D18*
X172509593Y-125328681D03*
D32*
X160549699Y-118189987D03*
D33*
X171428626Y-118930907D03*
D18*
X120546190Y-58408681D03*
D19*
X121046190Y-54608681D03*
D20*
X121046190Y-63558681D03*
D19*
X126046190Y-52508681D03*
D21*
X126046190Y-58408681D03*
D19*
X131046190Y-54608681D03*
D20*
X131046190Y-63558681D03*
D18*
X131546190Y-58408681D03*
D22*
X118146190Y-54608681D03*
D23*
X128846190Y-52508681D03*
D18*
X139594184Y-93958412D03*
D19*
X140292375Y-90189788D03*
D20*
X139823968Y-99127522D03*
D19*
X145395428Y-88354346D03*
D21*
X145086646Y-94246260D03*
D19*
X150278670Y-90713148D03*
D20*
X149810263Y-99650882D03*
D18*
X150579108Y-94534108D03*
D30*
X137396349Y-90038014D03*
D31*
X148191591Y-88500886D03*
D18*
X140034512Y-76958158D03*
D19*
X140732703Y-73189534D03*
D20*
X140264296Y-82127268D03*
D19*
X145835756Y-71354092D03*
D21*
X145526974Y-77246006D03*
D19*
X150718998Y-73712894D03*
D20*
X150250591Y-82650628D03*
D18*
X151019436Y-77533854D03*
D30*
X137836677Y-73037760D03*
D31*
X148631919Y-71500632D03*
D34*
X88850169Y-127608944D03*
X91368439Y-127277407D03*
X93886709Y-126945871D03*
X96404979Y-126614334D03*
X101441518Y-125951261D03*
X103959790Y-125619724D03*
X98923248Y-126282797D03*
D35*
X88576038Y-125526711D03*
X90257925Y-125305287D03*
X91939812Y-125083862D03*
X97803018Y-124311956D03*
X99485203Y-124090492D03*
X103189935Y-123602755D03*
X101167387Y-123869028D03*
D36*
X99744365Y-113060099D03*
X87153015Y-114717781D03*
X88834902Y-114496357D03*
X90516789Y-114274932D03*
X96379996Y-113503026D03*
X98062180Y-113281562D03*
X101766912Y-112793825D03*
D34*
X96951964Y-111309404D03*
X86878884Y-112635549D03*
X89397154Y-112304012D03*
X91915424Y-111972476D03*
X94433694Y-111640939D03*
X99470234Y-110977866D03*
X101988507Y-110646329D03*
D37*
X87285630Y-115725089D03*
X88967517Y-115503664D03*
X90649404Y-115282240D03*
X96512610Y-114510334D03*
X98194795Y-114288870D03*
X99876979Y-114067405D03*
X101899527Y-113801133D03*
D38*
X103057320Y-122595447D03*
X101034773Y-122861723D03*
X99352588Y-123083183D03*
X97670404Y-123304648D03*
X91807197Y-124076554D03*
X90125310Y-124297979D03*
X88443423Y-124519403D03*
D24*
X96961390Y-53468681D03*
D18*
X82828740Y-81854628D03*
D19*
X83195818Y-78039493D03*
D20*
X83508168Y-86984041D03*
D19*
X88119483Y-75766275D03*
D21*
X88325390Y-81662681D03*
D19*
X93189726Y-77690498D03*
D20*
X93502077Y-86635046D03*
D18*
X93822040Y-81470734D03*
D28*
X80297584Y-78140702D03*
D29*
X90917777Y-75668557D03*
D39*
X150671000Y-106330000D03*
X150671000Y-107580000D03*
D40*
X145796000Y-103480000D03*
X145796000Y-110430000D03*
D18*
X94946590Y-63908681D03*
D19*
X94446590Y-67708681D03*
D20*
X94446590Y-58758681D03*
D19*
X89446590Y-69808681D03*
D21*
X89446590Y-63908681D03*
D19*
X84446590Y-67708681D03*
D20*
X84446590Y-58758681D03*
D18*
X83946590Y-63908681D03*
D41*
X97346590Y-67708681D03*
D42*
X86646590Y-69808681D03*
D18*
X95657918Y-123376142D03*
X157508928Y-99948843D03*
D19*
X158207119Y-96180219D03*
D20*
X157738712Y-105117953D03*
D19*
X163310172Y-94344777D03*
D21*
X163001390Y-100236691D03*
D19*
X168193414Y-96703579D03*
D20*
X167725007Y-105641313D03*
D18*
X168493852Y-100524539D03*
D30*
X155311093Y-96028445D03*
D31*
X166106335Y-94491317D03*
D24*
X157210190Y-55348281D03*
D43*
X133604000Y-119888000D03*
D18*
X94550195Y-114962146D03*
X142340786Y-119347403D03*
D19*
X143332508Y-115645176D03*
D20*
X142164299Y-124518607D03*
D19*
X148563838Y-114215772D03*
D21*
X147793733Y-120065297D03*
D19*
X153246957Y-116950436D03*
D20*
X152078747Y-125823869D03*
D18*
X153246680Y-120783191D03*
D44*
X140457318Y-115266650D03*
D45*
X151339883Y-114581246D03*
D43*
X111363786Y-122815980D03*
D18*
X169870184Y-66544967D03*
D19*
X169171993Y-70313591D03*
D20*
X169640400Y-61375857D03*
D19*
X164068940Y-72149033D03*
D21*
X164377722Y-66257119D03*
D19*
X159185698Y-69790231D03*
D20*
X159654105Y-60852497D03*
D18*
X158885260Y-65969271D03*
D46*
X172068019Y-70465365D03*
D47*
X161272777Y-72002493D03*
D18*
X158295138Y-82961674D03*
D19*
X158993329Y-79193050D03*
D20*
X158524922Y-88130784D03*
D19*
X164096382Y-77357608D03*
D21*
X163787600Y-83249522D03*
D19*
X168979624Y-79716410D03*
D20*
X168511217Y-88654144D03*
D18*
X169280062Y-83537370D03*
D30*
X156097303Y-79041276D03*
D31*
X166892545Y-77504148D03*
D26*
X148166642Y-128985785D03*
X145192308Y-128594207D03*
%LPD*%
M02*
