M48
; DRILL file {KiCad 8.0.5} date 2025-01-03T21:24:15+0800
; FORMAT={-:-/ absolute / metric / decimal}
; #@! TF.CreationDate,2025-01-03T21:24:15+08:00
; #@! TF.GenerationSoftware,Kicad,Pcbnew,8.0.5
; #@! TF.FileFunction,Plated,1,2,PTH
FMAT,2
METRIC
; #@! TA.AperFunction,Plated,PTH,ViaDrill
T1C0.300
; #@! TA.AperFunction,Plated,PTH,ViaDrill
T2C0.400
; #@! TA.AperFunction,Plated,PTH,ComponentDrill
T3C0.400
; #@! TA.AperFunction,Plated,PTH,ComponentDrill
T4C1.250
; #@! TA.AperFunction,Plated,PTH,ComponentDrill
T5C1.550
; #@! TA.AperFunction,Plated,PTH,ComponentDrill
T6C2.200
%
G90
G05
T1
X80.608Y-78.187
X80.619Y-95.487
X85.412Y-108.257
X85.76Y-114.199
X86.09Y-118.34
X86.647Y-69.809
X87.36Y-116.765
X88.021Y-117.629
X96.299Y-77.639
X96.309Y-94.939
X97.347Y-67.709
X97.67Y-122.353
X98.739Y-121.033
X99.846Y-56.209
X99.846Y-74.409
X99.846Y-91.409
X99.877Y-115.902
X99.877Y-120.982
X101.9Y-120.982
X101.94Y-115.089
X102.753Y-119.559
X102.867Y-115.116
X103.738Y-119.529
X105.14Y-101.273
X108.755Y-100.416
X114.487Y-97.461
X115.546Y-56.209
X115.546Y-74.409
X115.546Y-91.409
X118.146Y-54.609
X118.146Y-71.609
X118.146Y-88.609
X133.846Y-54.609
X133.846Y-71.609
X133.846Y-88.609
X136.897Y-90.012
X137.138Y-73.001
X137.278Y-55.985
X140.457Y-115.267
X152.576Y-90.834
X152.811Y-73.923
X152.957Y-56.807
X154.228Y-102.847
X154.903Y-102.033
X154.908Y-96.002
X155.598Y-79.015
X156.023Y-117.316
X160.474Y-71.961
X160.55Y-118.19
X166.066Y-72.254
X170.581Y-96.924
X171.276Y-79.837
X175.715Y-122.253
T2
X86.395Y-125.554
X90.103Y-122.303
X94.675Y-106.047
X109.601Y-92.075
X124.19Y-72.773
X141.298Y-103.512
X146.101Y-126.904
X147.588Y-127.1
X148.371Y-109.196
X152.495Y-107.007
X164.779Y-80.088
X176.512Y-116.149
X177.289Y-113.251
T3
X97.761Y-60.159
X97.761Y-63.559
X97.761Y-81.334
X97.761Y-84.734
X97.761Y-98.505
X97.761Y-101.905
X116.262Y-60.121
X116.262Y-63.521
X116.262Y-78.321
X116.262Y-81.721
X116.262Y-95.237
X116.262Y-98.637
X134.198Y-58.814
X134.198Y-62.214
X134.198Y-75.578
X134.198Y-78.978
X134.198Y-92.545
X134.198Y-95.945
X152.079Y-63.757
X152.079Y-67.157
X152.079Y-80.756
X152.079Y-84.156
X152.079Y-97.556
X152.079Y-100.956
X155.534Y-61.217
X155.534Y-64.617
X156.016Y-121.568
X156.016Y-124.968
X159.039Y-122.025
X159.039Y-125.425
X170.52Y-85.855
X170.52Y-89.255
X170.52Y-102.823
X170.52Y-106.223
T4
X94.55Y-114.962
X95.658Y-123.376
T5
X86.879Y-112.636
X88.85Y-127.609
X89.397Y-112.304
X91.368Y-127.277
X91.915Y-111.972
X93.887Y-126.946
X94.434Y-111.641
X96.405Y-126.614
X96.952Y-111.309
X98.923Y-126.283
X99.47Y-110.978
X101.442Y-125.951
X101.989Y-110.646
X103.96Y-125.62
T6
X111.364Y-122.816
X133.604Y-119.888
M30
