M48
; DRILL file {KiCad 8.0.2-1} date 2024-07-14T12:39:04+0800
; FORMAT={-:-/ absolute / metric / decimal}
; #@! TF.CreationDate,2024-07-14T12:39:04+08:00
; #@! TF.GenerationSoftware,Kicad,Pcbnew,8.0.2-1
; #@! TF.FileFunction,NonPlated,1,2,NPTH
FMAT,2
METRIC
; #@! TA.AperFunction,NonPlated,NPTH,ComponentDrill
T1C0.900
; #@! TA.AperFunction,NonPlated,NPTH,ComponentDrill
T2C1.050
; #@! TA.AperFunction,NonPlated,NPTH,ComponentDrill
T3C1.250
%
G90
G05
T1
X145.164Y-128.682
X145.164Y-128.682
X148.139Y-129.074
X148.139Y-129.074
T2
X84.547Y-66.959
X84.547Y-83.958
X84.547Y-100.958
X96.147Y-66.959
X96.147Y-83.958
X96.147Y-100.958
X102.546Y-63.959
X102.546Y-80.959
X102.546Y-97.959
X114.146Y-63.959
X114.146Y-80.959
X114.146Y-97.959
X120.546Y-61.159
X120.546Y-78.159
X120.546Y-95.159
X132.146Y-61.159
X132.146Y-78.159
X132.146Y-95.159
X138.546Y-63.958
X138.546Y-80.959
X138.546Y-97.959
X141.684Y-122.035
X150.146Y-63.958
X150.146Y-80.959
X150.146Y-97.959
X153.185Y-123.549
X156.546Y-68.248
X156.546Y-85.248
X156.546Y-102.248
X160.255Y-124.88
X168.146Y-68.248
X168.146Y-85.248
X168.146Y-102.248
X171.46Y-127.883
T3
X84.547Y-61.459
X84.547Y-78.458
X84.547Y-95.458
X96.147Y-61.459
X96.147Y-78.458
X96.147Y-95.458
X102.546Y-58.459
X102.546Y-75.459
X102.546Y-92.459
X114.146Y-58.459
X114.146Y-75.459
X114.146Y-92.459
X120.546Y-55.659
X120.546Y-72.659
X120.546Y-89.659
X132.146Y-55.659
X132.146Y-72.659
X132.146Y-89.659
X138.546Y-58.458
X138.546Y-75.459
X138.546Y-92.459
X142.402Y-116.582
X150.146Y-58.458
X150.146Y-75.459
X150.146Y-92.459
X153.903Y-118.096
X156.546Y-62.748
X156.546Y-79.748
X156.546Y-96.748
X161.678Y-119.568
X168.146Y-62.748
X168.146Y-79.748
X168.146Y-96.748
X172.883Y-122.57
M30
