M48
; DRILL file {KiCad 8.0.2-1} date 2024-07-14T12:39:04+0800
; FORMAT={-:-/ absolute / metric / decimal}
; #@! TF.CreationDate,2024-07-14T12:39:04+08:00
; #@! TF.GenerationSoftware,Kicad,Pcbnew,8.0.2-1
; #@! TF.FileFunction,Plated,1,2,PTH
FMAT,2
METRIC
; #@! TA.AperFunction,Plated,PTH,ViaDrill
T1C0.300
; #@! TA.AperFunction,Plated,PTH,ViaDrill
T2C0.400
; #@! TA.AperFunction,Plated,PTH,ComponentDrill
T3C1.550
; #@! TA.AperFunction,Plated,PTH,ComponentDrill
T4C2.200
%
G90
G05
T1
X86.864Y-118.495
X87.542Y-123.605
X87.672Y-110.804
X87.847Y-68.378
X87.847Y-82.348
X87.847Y-99.341
X88.643Y-60.441
X88.656Y-77.599
X88.656Y-94.591
X88.753Y-110.081
X90.06Y-119.255
X90.06Y-123.273
X92.059Y-62.536
X92.059Y-79.732
X92.059Y-96.699
X92.578Y-118.58
X92.579Y-122.936
X92.847Y-65.356
X92.847Y-82.348
X92.847Y-99.341
X95.25Y-119.966
X95.25Y-122.682
X97.79Y-118.58
X97.79Y-122.301
X99.877Y-116.689
X100.281Y-122.096
X100.999Y-115.784
X102.786Y-121.75
X103.175Y-114.515
X103.53Y-115.784
X103.589Y-116.688
X103.591Y-118.58
X105.115Y-100.103
X105.79Y-100.897
X105.846Y-65.381
X105.846Y-79.351
X105.846Y-96.344
X106.604Y-101.474
X106.639Y-57.431
X106.639Y-74.449
X106.639Y-91.442
X107.299Y-102.149
X110.042Y-93.601
X110.068Y-59.565
X110.068Y-76.583
X110.846Y-62.359
X110.846Y-79.351
X110.846Y-96.344
X123.846Y-62.536
X123.846Y-76.557
X123.846Y-93.575
X124.647Y-56.771
X124.647Y-73.789
X124.647Y-90.781
X128.051Y-73.789
X128.051Y-90.807
X128.071Y-56.776
X128.846Y-59.565
X128.846Y-76.557
X128.846Y-93.55
X141.846Y-65.356
X141.846Y-79.351
X141.846Y-96.344
X142.656Y-59.59
X142.656Y-76.583
X142.656Y-93.601
X144.969Y-120.779
X145.089Y-100.159
X146.034Y-93.601
X146.06Y-59.615
X146.06Y-76.583
X146.846Y-62.359
X146.846Y-79.377
X146.846Y-96.358
X147.05Y-118.467
X149.666Y-118.772
X149.926Y-121.344
X159.846Y-69.648
X159.846Y-83.644
X159.846Y-100.662
X160.614Y-95.582
X160.639Y-61.597
X160.639Y-78.615
X163.713Y-124.131
X164.043Y-63.857
X164.068Y-80.901
X164.068Y-97.817
X164.846Y-66.651
X164.846Y-83.644
X164.846Y-100.662
X165.237Y-121.668
X168.298Y-125.325
X168.539Y-122.582
T2
X88.441Y-116.918
X90.932Y-122.047
X90.96Y-116.549
X91.17Y-109.679
X93.218Y-115.951
X140.929Y-103.049
X144.65Y-126.84
X146.138Y-127.035
X146.251Y-114.872
X151.673Y-107.494
T3
X86.879Y-112.636
X88.85Y-127.609
X89.397Y-112.304
X91.368Y-127.277
X91.915Y-111.972
X93.887Y-126.946
X94.434Y-111.641
X96.405Y-126.614
X96.952Y-111.309
X98.923Y-126.283
X99.47Y-110.978
X101.442Y-125.951
X101.989Y-110.646
X103.96Y-125.62
T4
X97.333Y-53.543
X100.822Y-105.996
X111.364Y-122.816
X133.604Y-119.888
X154.894Y-53.848
X158.937Y-113.057
M30
