G04 #@! TF.GenerationSoftware,KiCad,Pcbnew,8.0.2-1*
G04 #@! TF.CreationDate,2024-07-14T12:39:06+08:00*
G04 #@! TF.ProjectId,Kretstr_d_v2_PG1316,4b726574-7374-472e-9464-5f76325f5047,rev?*
G04 #@! TF.SameCoordinates,Original*
G04 #@! TF.FileFunction,Soldermask,Top*
G04 #@! TF.FilePolarity,Negative*
%FSLAX46Y46*%
G04 Gerber Fmt 4.6, Leading zero omitted, Abs format (unit mm)*
G04 Created by KiCad (PCBNEW 8.0.2-1) date 2024-07-14 12:39:06*
%MOMM*%
%LPD*%
G01*
G04 APERTURE LIST*
G04 Aperture macros list*
%AMRoundRect*
0 Rectangle with rounded corners*
0 $1 Rounding radius*
0 $2 $3 $4 $5 $6 $7 $8 $9 X,Y pos of 4 corners*
0 Add a 4 corners polygon primitive as box body*
4,1,4,$2,$3,$4,$5,$6,$7,$8,$9,$2,$3,0*
0 Add four circle primitives for the rounded corners*
1,1,$1+$1,$2,$3*
1,1,$1+$1,$4,$5*
1,1,$1+$1,$6,$7*
1,1,$1+$1,$8,$9*
0 Add four rect primitives between the rounded corners*
20,1,$1+$1,$2,$3,$4,$5,0*
20,1,$1+$1,$4,$5,$6,$7,0*
20,1,$1+$1,$6,$7,$8,$9,0*
20,1,$1+$1,$8,$9,$2,$3,0*%
%AMFreePoly0*
4,1,22,0.686777,0.580194,0.756366,0.524698,0.794986,0.444504,0.800000,0.400000,0.800000,0.200000,0.780194,0.113223,0.741421,0.058579,0.141421,-0.541421,0.066056,-0.588777,-0.022393,-0.598742,-0.106406,-0.569345,-0.141421,-0.541421,-0.741421,0.058579,-0.788777,0.133944,-0.800000,0.200000,-0.800000,0.400000,-0.780193,0.486777,-0.724698,0.556366,-0.644504,0.594986,-0.600000,0.600000,
0.600000,0.600000,0.686777,0.580194,0.686777,0.580194,$1*%
%AMFreePoly1*
4,1,26,0.706406,1.169345,0.769345,1.106406,0.798742,1.022393,0.800000,1.000000,0.800000,-0.250000,0.780194,-0.336777,0.724699,-0.406366,0.644505,-0.444986,0.600000,-0.450000,-0.600000,-0.450000,-0.686777,-0.430194,-0.756366,-0.374698,-0.794986,-0.294504,-0.800000,-0.250000,-0.800000,1.000000,-0.780194,1.086777,-0.724698,1.156366,-0.644504,1.194986,-0.555496,1.194986,-0.475302,1.156366,
-0.458579,1.141421,0.000000,0.682842,0.458579,1.141421,0.533944,1.188778,0.622393,1.198742,0.706406,1.169345,0.706406,1.169345,$1*%
G04 Aperture macros list end*
%ADD10C,0.100000*%
%ADD11RoundRect,0.200000X-0.600000X-0.700000X0.600000X-0.700000X0.600000X0.700000X-0.600000X0.700000X0*%
%ADD12RoundRect,0.200000X-1.000000X-1.000000X1.000000X-1.000000X1.000000X1.000000X-1.000000X1.000000X0*%
%ADD13C,1.650000*%
%ADD14C,1.450000*%
%ADD15RoundRect,0.200000X-0.775000X-1.000000X0.775000X-1.000000X0.775000X1.000000X-0.775000X1.000000X0*%
%ADD16C,4.200000*%
%ADD17RoundRect,0.200000X-0.547933X-0.331315X0.443512X-0.461841X0.547933X0.331315X-0.443512X0.461841X0*%
%ADD18C,1.300000*%
%ADD19RoundRect,0.200000X-0.444900X-0.697899X0.249111X-0.789268X0.444900X0.697899X-0.249111X0.789268X0*%
%ADD20RoundRect,0.200000X0.686235X0.615696X-0.503499X0.772327X-0.686235X-0.615696X0.503499X-0.772327X0*%
%ADD21RoundRect,0.200000X-0.760729X-0.520857X0.398382X-0.831440X0.760729X0.520857X-0.398382X0.831440X0*%
%ADD22C,2.500000*%
%ADD23FreePoly0,187.500000*%
%ADD24FreePoly0,7.500000*%
%ADD25FreePoly1,7.500000*%
%ADD26FreePoly1,187.500000*%
%ADD27RoundRect,0.300000X-0.850000X0.300000X-0.850000X-0.300000X0.850000X-0.300000X0.850000X0.300000X0*%
%ADD28RoundRect,0.326924X-1.548076X0.523076X-1.548076X-0.523076X1.548076X-0.523076X1.548076X0.523076X0*%
%ADD29RoundRect,0.200000X-1.224745X-0.707107X0.707107X-1.224745X1.224745X0.707107X-0.707107X1.224745X0*%
%ADD30RoundRect,0.200000X-1.007412X-0.765341X0.489773X-1.166511X1.007412X0.765341X-0.489773X1.166511X0*%
%ADD31RoundRect,0.200000X-1.121971X-0.860919X0.860919X-1.121971X1.121971X0.860919X-0.860919X1.121971X0*%
%ADD32RoundRect,0.200000X-0.898896X-0.890287X0.637844X-1.092603X0.898896X0.890287X-0.637844X1.092603X0*%
G04 APERTURE END LIST*
D10*
X87756130Y-115406955D02*
X86748822Y-115539569D01*
X86616207Y-114532261D01*
X87623515Y-114399647D01*
X87756130Y-115406955D01*
G36*
X87756130Y-115406955D02*
G01*
X86748822Y-115539569D01*
X86616207Y-114532261D01*
X87623515Y-114399647D01*
X87756130Y-115406955D01*
G37*
X89110887Y-125697359D02*
X88103579Y-125829974D01*
X87970965Y-124822666D01*
X88978273Y-124690051D01*
X89110887Y-125697359D01*
G36*
X89110887Y-125697359D02*
G01*
X88103579Y-125829974D01*
X87970965Y-124822666D01*
X88978273Y-124690051D01*
X89110887Y-125697359D01*
G37*
X90274400Y-115075418D02*
X89267092Y-115208033D01*
X89134477Y-114200725D01*
X90141785Y-114068110D01*
X90274400Y-115075418D01*
G36*
X90274400Y-115075418D02*
G01*
X89267092Y-115208033D01*
X89134477Y-114200725D01*
X90141785Y-114068110D01*
X90274400Y-115075418D01*
G37*
X91629157Y-125365823D02*
X90621849Y-125498437D01*
X90489235Y-124491129D01*
X91496543Y-124358515D01*
X91629157Y-125365823D01*
G36*
X91629157Y-125365823D02*
G01*
X90621849Y-125498437D01*
X90489235Y-124491129D01*
X91496543Y-124358515D01*
X91629157Y-125365823D01*
G37*
X92792670Y-114743882D02*
X91785362Y-114876496D01*
X91652747Y-113869188D01*
X92660055Y-113736574D01*
X92792670Y-114743882D01*
G36*
X92792670Y-114743882D02*
G01*
X91785362Y-114876496D01*
X91652747Y-113869188D01*
X92660055Y-113736574D01*
X92792670Y-114743882D01*
G37*
X94147427Y-125034286D02*
X93140119Y-125166901D01*
X93007505Y-124159593D01*
X94014813Y-124026978D01*
X94147427Y-125034286D01*
G36*
X94147427Y-125034286D02*
G01*
X93140119Y-125166901D01*
X93007505Y-124159593D01*
X94014813Y-124026978D01*
X94147427Y-125034286D01*
G37*
X95310940Y-114412345D02*
X94303632Y-114544960D01*
X94171017Y-113537652D01*
X95178325Y-113405037D01*
X95310940Y-114412345D01*
G36*
X95310940Y-114412345D02*
G01*
X94303632Y-114544960D01*
X94171017Y-113537652D01*
X95178325Y-113405037D01*
X95310940Y-114412345D01*
G37*
X96665697Y-124702750D02*
X95658389Y-124835364D01*
X95525775Y-123828056D01*
X96533083Y-123695442D01*
X96665697Y-124702750D01*
G36*
X96665697Y-124702750D02*
G01*
X95658389Y-124835364D01*
X95525775Y-123828056D01*
X96533083Y-123695442D01*
X96665697Y-124702750D01*
G37*
X97829210Y-114080809D02*
X96821902Y-114213423D01*
X96689287Y-113206115D01*
X97696595Y-113073501D01*
X97829210Y-114080809D01*
G36*
X97829210Y-114080809D02*
G01*
X96821902Y-114213423D01*
X96689287Y-113206115D01*
X97696595Y-113073501D01*
X97829210Y-114080809D01*
G37*
X99183967Y-124371213D02*
X98176659Y-124503828D01*
X98044045Y-123496520D01*
X99051353Y-123363905D01*
X99183967Y-124371213D01*
G36*
X99183967Y-124371213D02*
G01*
X98176659Y-124503828D01*
X98044045Y-123496520D01*
X99051353Y-123363905D01*
X99183967Y-124371213D01*
G37*
X100347480Y-113749272D02*
X99340172Y-113881887D01*
X99207557Y-112874579D01*
X100214865Y-112741964D01*
X100347480Y-113749272D01*
G36*
X100347480Y-113749272D02*
G01*
X99340172Y-113881887D01*
X99207557Y-112874579D01*
X100214865Y-112741964D01*
X100347480Y-113749272D01*
G37*
X101702237Y-124039677D02*
X100694929Y-124172291D01*
X100562315Y-123164983D01*
X101569621Y-123032369D01*
X101702237Y-124039677D01*
G36*
X101702237Y-124039677D02*
G01*
X100694929Y-124172291D01*
X100562315Y-123164983D01*
X101569621Y-123032369D01*
X101702237Y-124039677D01*
G37*
X102865750Y-113417736D02*
X101858442Y-113550350D01*
X101725827Y-112543042D01*
X102733135Y-112410428D01*
X102865750Y-113417736D01*
G36*
X102865750Y-113417736D02*
G01*
X101858442Y-113550350D01*
X101725827Y-112543042D01*
X102733135Y-112410428D01*
X102865750Y-113417736D01*
G37*
X104220507Y-123708140D02*
X103213199Y-123840755D01*
X103080584Y-122833447D01*
X104087892Y-122700832D01*
X104220507Y-123708140D01*
G36*
X104220507Y-123708140D02*
G01*
X103213199Y-123840755D01*
X103080584Y-122833447D01*
X104087892Y-122700832D01*
X104220507Y-123708140D01*
G37*
D11*
X161353990Y-79798281D03*
X164753990Y-79798281D03*
D12*
X101996339Y-101208630D03*
X101996390Y-89208630D03*
D13*
X102546390Y-92458681D03*
D14*
X102546390Y-97958681D03*
D13*
X114146390Y-92458681D03*
D14*
X114146390Y-97958681D03*
D12*
X114696339Y-101208630D03*
X114696390Y-89208630D03*
D15*
X105846390Y-97858681D03*
X110846390Y-97858681D03*
D11*
X125354190Y-72708281D03*
X128754190Y-72708281D03*
D16*
X100822190Y-105995881D03*
D11*
X89356990Y-78665481D03*
X92756990Y-78665481D03*
D12*
X119996139Y-81408630D03*
X119996190Y-69408630D03*
D13*
X120546190Y-72658681D03*
D14*
X120546190Y-78158681D03*
D13*
X132146190Y-72658681D03*
D14*
X132146190Y-78158681D03*
D12*
X132696139Y-81408630D03*
X132696190Y-69408630D03*
D15*
X123846190Y-78058681D03*
X128846190Y-78058681D03*
D12*
X101996339Y-84208630D03*
X101996390Y-72208630D03*
D13*
X102546390Y-75458681D03*
D14*
X102546390Y-80958681D03*
D13*
X114146390Y-75458681D03*
D14*
X114146390Y-80958681D03*
D12*
X114696339Y-84208630D03*
X114696390Y-72208630D03*
D15*
X105846390Y-80858681D03*
X110846390Y-80858681D03*
D12*
X119996139Y-98408630D03*
X119996190Y-86408630D03*
D13*
X120546190Y-89658681D03*
D14*
X120546190Y-95158681D03*
D13*
X132146190Y-89658681D03*
D14*
X132146190Y-95158681D03*
D12*
X132696139Y-98408630D03*
X132696190Y-86408630D03*
D15*
X123846190Y-95058681D03*
X128846190Y-95058681D03*
D11*
X107354190Y-92508281D03*
X110754190Y-92508281D03*
X107354190Y-75508281D03*
X110754190Y-75508281D03*
D17*
X142889163Y-129492426D03*
X143177627Y-127301333D03*
D18*
X145164349Y-128682469D03*
X148138683Y-129074047D03*
D17*
X150415174Y-128254174D03*
X150126711Y-130445267D03*
D19*
X144650491Y-126839631D03*
X147624826Y-127231209D03*
X149111993Y-127426999D03*
D12*
X101996339Y-67208630D03*
X101996390Y-55208630D03*
D13*
X102546390Y-58458681D03*
D14*
X102546390Y-63958681D03*
D13*
X114146390Y-58458681D03*
D14*
X114146390Y-63958681D03*
D12*
X114696339Y-67208630D03*
X114696390Y-55208630D03*
D15*
X105846390Y-63858681D03*
X110846390Y-63858681D03*
D11*
X143353990Y-75508281D03*
X146753990Y-75508281D03*
D12*
X83996539Y-104208430D03*
X83996590Y-92208430D03*
D13*
X84546590Y-95458481D03*
D14*
X84546590Y-100958481D03*
D13*
X96146590Y-95458481D03*
D14*
X96146590Y-100958481D03*
D12*
X96696539Y-104208430D03*
X96696590Y-92208430D03*
D15*
X87846590Y-100858481D03*
X92846590Y-100858481D03*
D12*
X137995939Y-67208430D03*
X137995990Y-55208430D03*
D13*
X138545990Y-58458481D03*
D14*
X138545990Y-63958481D03*
D13*
X150145990Y-58458481D03*
D14*
X150145990Y-63958481D03*
D12*
X150695939Y-67208430D03*
X150695990Y-55208430D03*
D15*
X141845990Y-63858481D03*
X146845990Y-63858481D03*
D11*
X161353990Y-62798281D03*
X164753990Y-62798281D03*
D16*
X158937390Y-113057081D03*
D20*
X150453790Y-117730681D03*
X147082878Y-117286889D03*
D12*
X119996139Y-64408630D03*
X119996190Y-52408630D03*
D13*
X120546190Y-55658681D03*
D14*
X120546190Y-61158681D03*
D13*
X132146190Y-55658681D03*
D14*
X132146190Y-61158681D03*
D12*
X132696139Y-64408630D03*
X132696190Y-52408630D03*
D15*
X123846190Y-61058681D03*
X128846190Y-61058681D03*
D21*
X166219642Y-120813097D03*
X169503790Y-121693081D03*
D11*
X89356990Y-95632681D03*
X92756990Y-95632681D03*
D12*
X137995939Y-101208630D03*
X137995990Y-89208630D03*
D13*
X138545990Y-92458681D03*
D14*
X138545990Y-97958681D03*
D13*
X150145990Y-92458681D03*
D14*
X150145990Y-97958681D03*
D12*
X150695939Y-101208630D03*
X150695990Y-89208630D03*
D15*
X141845990Y-97858681D03*
X146845990Y-97858681D03*
D12*
X137995939Y-84208630D03*
X137995990Y-72208630D03*
D13*
X138545990Y-75458681D03*
D14*
X138545990Y-80958681D03*
D13*
X150145990Y-75458681D03*
D14*
X150145990Y-80958681D03*
D12*
X150695939Y-84208630D03*
X150695990Y-72208630D03*
D15*
X141845990Y-80858681D03*
X146845990Y-80858681D03*
D22*
X88850169Y-127608944D03*
X91368439Y-127277407D03*
X93886709Y-126945871D03*
X96404979Y-126614334D03*
X98923249Y-126282798D03*
X101441518Y-125951261D03*
X103959788Y-125619725D03*
D23*
X98647160Y-124185697D03*
X88574080Y-125511840D03*
X91092350Y-125180303D03*
X93610620Y-124848767D03*
X96128890Y-124517230D03*
X101165429Y-123854157D03*
X103683699Y-123522617D03*
D24*
X99744365Y-113060099D03*
X87153015Y-114717781D03*
X89671285Y-114386245D03*
X92189555Y-114054708D03*
X94707825Y-113723172D03*
X97226095Y-113391635D03*
X102262635Y-112728562D03*
D22*
X96951964Y-111309404D03*
X86878884Y-112635549D03*
X89397154Y-112304012D03*
X91915424Y-111972476D03*
X94433694Y-111640939D03*
X99470234Y-110977866D03*
X101988507Y-110646329D03*
D25*
X87285630Y-115725089D03*
X89803900Y-115393553D03*
X92322169Y-115062016D03*
X94840439Y-114730480D03*
X97358709Y-114398943D03*
X99876979Y-114067405D03*
X102395249Y-113735870D03*
D26*
X103551085Y-122515312D03*
X101032815Y-122846849D03*
X98514545Y-123178386D03*
X95996275Y-123509922D03*
X93478005Y-123841459D03*
X90959735Y-124172995D03*
X88441465Y-124504532D03*
D16*
X97332800Y-53543200D03*
D11*
X107354190Y-58509081D03*
X110754190Y-58509081D03*
D12*
X83996539Y-87208430D03*
X83996590Y-75208430D03*
D13*
X84546590Y-78458481D03*
D14*
X84546590Y-83958481D03*
D13*
X96146590Y-78458481D03*
D14*
X96146590Y-83958481D03*
D12*
X96696539Y-87208430D03*
X96696590Y-75208430D03*
D15*
X87846590Y-83858481D03*
X92846590Y-83858481D03*
D11*
X125354190Y-89708281D03*
X128754190Y-89708281D03*
D12*
X83996539Y-70208630D03*
X83996590Y-58208630D03*
D13*
X84546590Y-61458681D03*
D14*
X84546590Y-66958681D03*
D13*
X96146590Y-61458681D03*
D14*
X96146590Y-66958681D03*
D12*
X96696539Y-70208630D03*
X96696590Y-58208630D03*
D15*
X87846590Y-66858681D03*
X92846590Y-66858681D03*
D11*
X125354190Y-55709081D03*
X128754190Y-55709081D03*
D27*
X153309390Y-106945681D03*
X153309390Y-108195681D03*
D28*
X148434390Y-104095681D03*
X148434390Y-111045681D03*
D12*
X155995739Y-105498230D03*
X155995790Y-93498230D03*
D13*
X156545790Y-96748281D03*
D14*
X156545790Y-102248281D03*
D13*
X168145790Y-96748281D03*
D14*
X168145790Y-102248281D03*
D12*
X168695739Y-105498230D03*
X168695790Y-93498230D03*
D15*
X159845790Y-102148281D03*
X164845790Y-102148281D03*
D16*
X154894000Y-53848000D03*
D29*
X158882395Y-127877059D03*
X161988272Y-116285962D03*
D14*
X160254852Y-124880213D03*
D13*
X161678358Y-119567621D03*
D14*
X171459590Y-127882513D03*
D13*
X172883096Y-122569921D03*
D29*
X171149653Y-131164059D03*
X174255530Y-119572964D03*
D30*
X163468289Y-125637723D03*
X168297918Y-126931818D03*
D16*
X133604000Y-119888000D03*
D31*
X140714857Y-125185068D03*
X142281222Y-113287736D03*
D13*
X142402300Y-116581772D03*
D14*
X141684406Y-122034718D03*
D13*
X153903060Y-118095876D03*
D14*
X153185166Y-123548822D03*
D31*
X153306207Y-126842750D03*
X154872572Y-114945419D03*
D32*
X144969226Y-122366310D03*
X149926451Y-123018941D03*
D11*
X143353990Y-58508081D03*
X146753990Y-58508081D03*
X143353990Y-92508281D03*
X146753990Y-92508281D03*
D16*
X111363786Y-122815980D03*
D11*
X161353990Y-96742281D03*
X164753990Y-96742281D03*
X89356990Y-61509081D03*
X92756990Y-61509081D03*
D12*
X155995739Y-71498230D03*
X155995790Y-59498230D03*
D13*
X156545790Y-62748281D03*
D14*
X156545790Y-68248281D03*
D13*
X168145790Y-62748281D03*
D14*
X168145790Y-68248281D03*
D12*
X168695739Y-71498230D03*
X168695790Y-59498230D03*
D15*
X159845790Y-68148281D03*
X164845790Y-68148281D03*
D12*
X155995739Y-88498230D03*
X155995790Y-76498230D03*
D13*
X156545790Y-79748281D03*
D14*
X156545790Y-85248281D03*
D13*
X168145790Y-79748281D03*
D14*
X168145790Y-85248281D03*
D12*
X168695739Y-88498230D03*
X168695790Y-76498230D03*
D15*
X159845790Y-85148281D03*
X164845790Y-85148281D03*
D18*
X148138683Y-129074047D03*
X145164349Y-128682469D03*
M02*
