G04 #@! TF.GenerationSoftware,KiCad,Pcbnew,8.0.2-1*
G04 #@! TF.CreationDate,2024-07-14T12:39:06+08:00*
G04 #@! TF.ProjectId,Kretstr_d_v2_PG1316,4b726574-7374-472e-9464-5f76325f5047,rev?*
G04 #@! TF.SameCoordinates,Original*
G04 #@! TF.FileFunction,Legend,Top*
G04 #@! TF.FilePolarity,Positive*
%FSLAX46Y46*%
G04 Gerber Fmt 4.6, Leading zero omitted, Abs format (unit mm)*
G04 Created by KiCad (PCBNEW 8.0.2-1) date 2024-07-14 12:39:06*
%MOMM*%
%LPD*%
G01*
G04 APERTURE LIST*
G04 Aperture macros list*
%AMRoundRect*
0 Rectangle with rounded corners*
0 $1 Rounding radius*
0 $2 $3 $4 $5 $6 $7 $8 $9 X,Y pos of 4 corners*
0 Add a 4 corners polygon primitive as box body*
4,1,4,$2,$3,$4,$5,$6,$7,$8,$9,$2,$3,0*
0 Add four circle primitives for the rounded corners*
1,1,$1+$1,$2,$3*
1,1,$1+$1,$4,$5*
1,1,$1+$1,$6,$7*
1,1,$1+$1,$8,$9*
0 Add four rect primitives between the rounded corners*
20,1,$1+$1,$2,$3,$4,$5,0*
20,1,$1+$1,$4,$5,$6,$7,0*
20,1,$1+$1,$6,$7,$8,$9,0*
20,1,$1+$1,$8,$9,$2,$3,0*%
%AMFreePoly0*
4,1,22,0.686777,0.580194,0.756366,0.524698,0.794986,0.444504,0.800000,0.400000,0.800000,0.200000,0.780194,0.113223,0.741421,0.058579,0.141421,-0.541421,0.066056,-0.588777,-0.022393,-0.598742,-0.106406,-0.569345,-0.141421,-0.541421,-0.741421,0.058579,-0.788777,0.133944,-0.800000,0.200000,-0.800000,0.400000,-0.780193,0.486777,-0.724698,0.556366,-0.644504,0.594986,-0.600000,0.600000,
0.600000,0.600000,0.686777,0.580194,0.686777,0.580194,$1*%
%AMFreePoly1*
4,1,26,0.706406,1.169345,0.769345,1.106406,0.798742,1.022393,0.800000,1.000000,0.800000,-0.250000,0.780194,-0.336777,0.724699,-0.406366,0.644505,-0.444986,0.600000,-0.450000,-0.600000,-0.450000,-0.686777,-0.430194,-0.756366,-0.374698,-0.794986,-0.294504,-0.800000,-0.250000,-0.800000,1.000000,-0.780194,1.086777,-0.724698,1.156366,-0.644504,1.194986,-0.555496,1.194986,-0.475302,1.156366,
-0.458579,1.141421,0.000000,0.682842,0.458579,1.141421,0.533944,1.188778,0.622393,1.198742,0.706406,1.169345,0.706406,1.169345,$1*%
G04 Aperture macros list end*
%ADD10C,0.150000*%
%ADD11C,0.200000*%
%ADD12C,0.120000*%
%ADD13C,0.100000*%
%ADD14RoundRect,0.200000X-0.600000X-0.700000X0.600000X-0.700000X0.600000X0.700000X-0.600000X0.700000X0*%
%ADD15RoundRect,0.200000X-1.000000X-1.000000X1.000000X-1.000000X1.000000X1.000000X-1.000000X1.000000X0*%
%ADD16C,1.650000*%
%ADD17C,1.450000*%
%ADD18RoundRect,0.200000X-0.775000X-1.000000X0.775000X-1.000000X0.775000X1.000000X-0.775000X1.000000X0*%
%ADD19C,4.200000*%
%ADD20RoundRect,0.200000X-0.547933X-0.331315X0.443512X-0.461841X0.547933X0.331315X-0.443512X0.461841X0*%
%ADD21C,1.300000*%
%ADD22RoundRect,0.200000X-0.444900X-0.697899X0.249111X-0.789268X0.444900X0.697899X-0.249111X0.789268X0*%
%ADD23RoundRect,0.200000X0.686235X0.615696X-0.503499X0.772327X-0.686235X-0.615696X0.503499X-0.772327X0*%
%ADD24RoundRect,0.200000X-0.760729X-0.520857X0.398382X-0.831440X0.760729X0.520857X-0.398382X0.831440X0*%
%ADD25C,2.500000*%
%ADD26FreePoly0,187.500000*%
%ADD27FreePoly0,7.500000*%
%ADD28FreePoly1,7.500000*%
%ADD29FreePoly1,187.500000*%
%ADD30RoundRect,0.300000X-0.850000X0.300000X-0.850000X-0.300000X0.850000X-0.300000X0.850000X0.300000X0*%
%ADD31RoundRect,0.326924X-1.548076X0.523076X-1.548076X-0.523076X1.548076X-0.523076X1.548076X0.523076X0*%
%ADD32RoundRect,0.200000X-1.224745X-0.707107X0.707107X-1.224745X1.224745X0.707107X-0.707107X1.224745X0*%
%ADD33RoundRect,0.200000X-1.007412X-0.765341X0.489773X-1.166511X1.007412X0.765341X-0.489773X1.166511X0*%
%ADD34RoundRect,0.200000X-1.121971X-0.860919X0.860919X-1.121971X1.121971X0.860919X-0.860919X1.121971X0*%
%ADD35RoundRect,0.200000X-0.898896X-0.890287X0.637844X-1.092603X0.898896X0.890287X-0.637844X1.092603X0*%
G04 APERTURE END LIST*
D10*
X109250398Y-108563230D02*
X109350398Y-107763230D01*
X109707541Y-108563230D02*
X109421826Y-108106087D01*
X109807541Y-107763230D02*
X109293255Y-108220373D01*
X110050398Y-108563230D02*
X110117064Y-108029896D01*
X110098017Y-108182277D02*
X110145636Y-108106087D01*
X110145636Y-108106087D02*
X110188493Y-108067992D01*
X110188493Y-108067992D02*
X110269445Y-108029896D01*
X110269445Y-108029896D02*
X110345636Y-108029896D01*
X110855160Y-108525135D02*
X110774207Y-108563230D01*
X110774207Y-108563230D02*
X110621826Y-108563230D01*
X110621826Y-108563230D02*
X110550398Y-108525135D01*
X110550398Y-108525135D02*
X110521826Y-108448944D01*
X110521826Y-108448944D02*
X110559922Y-108144182D01*
X110559922Y-108144182D02*
X110607541Y-108067992D01*
X110607541Y-108067992D02*
X110688493Y-108029896D01*
X110688493Y-108029896D02*
X110840874Y-108029896D01*
X110840874Y-108029896D02*
X110912302Y-108067992D01*
X110912302Y-108067992D02*
X110940874Y-108144182D01*
X110940874Y-108144182D02*
X110931350Y-108220373D01*
X110931350Y-108220373D02*
X110540874Y-108296563D01*
X111183731Y-108029896D02*
X111488493Y-108029896D01*
X111331350Y-107763230D02*
X111245636Y-108448944D01*
X111245636Y-108448944D02*
X111274207Y-108525135D01*
X111274207Y-108525135D02*
X111345636Y-108563230D01*
X111345636Y-108563230D02*
X111421826Y-108563230D01*
X111655159Y-108525135D02*
X111726588Y-108563230D01*
X111726588Y-108563230D02*
X111878969Y-108563230D01*
X111878969Y-108563230D02*
X111959921Y-108525135D01*
X111959921Y-108525135D02*
X112007540Y-108448944D01*
X112007540Y-108448944D02*
X112012302Y-108410849D01*
X112012302Y-108410849D02*
X111983731Y-108334658D01*
X111983731Y-108334658D02*
X111912302Y-108296563D01*
X111912302Y-108296563D02*
X111798017Y-108296563D01*
X111798017Y-108296563D02*
X111726588Y-108258468D01*
X111726588Y-108258468D02*
X111698017Y-108182277D01*
X111698017Y-108182277D02*
X111702779Y-108144182D01*
X111702779Y-108144182D02*
X111750398Y-108067992D01*
X111750398Y-108067992D02*
X111831350Y-108029896D01*
X111831350Y-108029896D02*
X111945636Y-108029896D01*
X111945636Y-108029896D02*
X112017064Y-108067992D01*
X112288493Y-108029896D02*
X112593255Y-108029896D01*
X112436112Y-107763230D02*
X112350398Y-108448944D01*
X112350398Y-108448944D02*
X112378969Y-108525135D01*
X112378969Y-108525135D02*
X112450398Y-108563230D01*
X112450398Y-108563230D02*
X112526588Y-108563230D01*
X112793255Y-108563230D02*
X112859921Y-108029896D01*
X112840874Y-108182277D02*
X112888493Y-108106087D01*
X112888493Y-108106087D02*
X112931350Y-108067992D01*
X112931350Y-108067992D02*
X113012302Y-108029896D01*
X113012302Y-108029896D02*
X113088493Y-108029896D01*
X113631350Y-108563230D02*
X113683731Y-108144182D01*
X113683731Y-108144182D02*
X113655159Y-108067992D01*
X113655159Y-108067992D02*
X113583731Y-108029896D01*
X113583731Y-108029896D02*
X113431350Y-108029896D01*
X113431350Y-108029896D02*
X113350398Y-108067992D01*
X113636112Y-108525135D02*
X113555159Y-108563230D01*
X113555159Y-108563230D02*
X113364683Y-108563230D01*
X113364683Y-108563230D02*
X113293255Y-108525135D01*
X113293255Y-108525135D02*
X113264683Y-108448944D01*
X113264683Y-108448944D02*
X113274207Y-108372754D01*
X113274207Y-108372754D02*
X113321826Y-108296563D01*
X113321826Y-108296563D02*
X113402779Y-108258468D01*
X113402779Y-108258468D02*
X113593255Y-108258468D01*
X113593255Y-108258468D02*
X113674207Y-108220373D01*
X113388493Y-107763230D02*
X113421826Y-107801325D01*
X113421826Y-107801325D02*
X113378969Y-107839420D01*
X113378969Y-107839420D02*
X113345636Y-107801325D01*
X113345636Y-107801325D02*
X113388493Y-107763230D01*
X113388493Y-107763230D02*
X113378969Y-107839420D01*
X113693255Y-107763230D02*
X113726588Y-107801325D01*
X113726588Y-107801325D02*
X113683731Y-107839420D01*
X113683731Y-107839420D02*
X113650398Y-107801325D01*
X113650398Y-107801325D02*
X113693255Y-107763230D01*
X113693255Y-107763230D02*
X113683731Y-107839420D01*
X114355160Y-108563230D02*
X114455160Y-107763230D01*
X114359922Y-108525135D02*
X114278969Y-108563230D01*
X114278969Y-108563230D02*
X114126589Y-108563230D01*
X114126589Y-108563230D02*
X114055160Y-108525135D01*
X114055160Y-108525135D02*
X114021827Y-108487039D01*
X114021827Y-108487039D02*
X113993255Y-108410849D01*
X113993255Y-108410849D02*
X114021827Y-108182277D01*
X114021827Y-108182277D02*
X114069446Y-108106087D01*
X114069446Y-108106087D02*
X114112303Y-108067992D01*
X114112303Y-108067992D02*
X114193255Y-108029896D01*
X114193255Y-108029896D02*
X114345636Y-108029896D01*
X114345636Y-108029896D02*
X114417065Y-108067992D01*
X114778970Y-108525135D02*
X114774208Y-108563230D01*
X114774208Y-108563230D02*
X114726589Y-108639420D01*
X114726589Y-108639420D02*
X114683732Y-108677515D01*
X116193255Y-108487039D02*
X116150398Y-108525135D01*
X116150398Y-108525135D02*
X116031351Y-108563230D01*
X116031351Y-108563230D02*
X115955160Y-108563230D01*
X115955160Y-108563230D02*
X115845636Y-108525135D01*
X115845636Y-108525135D02*
X115778970Y-108448944D01*
X115778970Y-108448944D02*
X115750398Y-108372754D01*
X115750398Y-108372754D02*
X115731351Y-108220373D01*
X115731351Y-108220373D02*
X115745636Y-108106087D01*
X115745636Y-108106087D02*
X115802779Y-107953706D01*
X115802779Y-107953706D02*
X115850398Y-107877515D01*
X115850398Y-107877515D02*
X115936113Y-107801325D01*
X115936113Y-107801325D02*
X116055160Y-107763230D01*
X116055160Y-107763230D02*
X116131351Y-107763230D01*
X116131351Y-107763230D02*
X116240875Y-107801325D01*
X116240875Y-107801325D02*
X116274208Y-107839420D01*
X116526589Y-108563230D02*
X116593255Y-108029896D01*
X116626589Y-107763230D02*
X116583732Y-107801325D01*
X116583732Y-107801325D02*
X116617065Y-107839420D01*
X116617065Y-107839420D02*
X116659922Y-107801325D01*
X116659922Y-107801325D02*
X116626589Y-107763230D01*
X116626589Y-107763230D02*
X116617065Y-107839420D01*
X116907541Y-108563230D02*
X116974207Y-108029896D01*
X116955160Y-108182277D02*
X117002779Y-108106087D01*
X117002779Y-108106087D02*
X117045636Y-108067992D01*
X117045636Y-108067992D02*
X117126588Y-108029896D01*
X117126588Y-108029896D02*
X117202779Y-108029896D01*
X117750398Y-108525135D02*
X117669445Y-108563230D01*
X117669445Y-108563230D02*
X117517065Y-108563230D01*
X117517065Y-108563230D02*
X117445636Y-108525135D01*
X117445636Y-108525135D02*
X117412303Y-108487039D01*
X117412303Y-108487039D02*
X117383731Y-108410849D01*
X117383731Y-108410849D02*
X117412303Y-108182277D01*
X117412303Y-108182277D02*
X117459922Y-108106087D01*
X117459922Y-108106087D02*
X117502779Y-108067992D01*
X117502779Y-108067992D02*
X117583731Y-108029896D01*
X117583731Y-108029896D02*
X117736112Y-108029896D01*
X117736112Y-108029896D02*
X117807541Y-108067992D01*
X118498017Y-108029896D02*
X118431350Y-108563230D01*
X118155159Y-108029896D02*
X118102779Y-108448944D01*
X118102779Y-108448944D02*
X118131350Y-108525135D01*
X118131350Y-108525135D02*
X118202779Y-108563230D01*
X118202779Y-108563230D02*
X118317064Y-108563230D01*
X118317064Y-108563230D02*
X118398017Y-108525135D01*
X118398017Y-108525135D02*
X118440874Y-108487039D01*
X118812303Y-108563230D02*
X118878969Y-108029896D01*
X118912303Y-107763230D02*
X118869446Y-107801325D01*
X118869446Y-107801325D02*
X118902779Y-107839420D01*
X118902779Y-107839420D02*
X118945636Y-107801325D01*
X118945636Y-107801325D02*
X118912303Y-107763230D01*
X118912303Y-107763230D02*
X118902779Y-107839420D01*
X119145636Y-108029896D02*
X119450398Y-108029896D01*
X119293255Y-107763230D02*
X119207541Y-108448944D01*
X119207541Y-108448944D02*
X119236112Y-108525135D01*
X119236112Y-108525135D02*
X119307541Y-108563230D01*
X119307541Y-108563230D02*
X119383731Y-108563230D01*
X120245636Y-107763230D02*
X120702779Y-107763230D01*
X120374208Y-108563230D02*
X120474208Y-107763230D01*
X120869446Y-108563230D02*
X120936112Y-108029896D01*
X120917065Y-108182277D02*
X120964684Y-108106087D01*
X120964684Y-108106087D02*
X121007541Y-108067992D01*
X121007541Y-108067992D02*
X121088493Y-108029896D01*
X121088493Y-108029896D02*
X121164684Y-108029896D01*
X121674208Y-108525135D02*
X121593255Y-108563230D01*
X121593255Y-108563230D02*
X121440874Y-108563230D01*
X121440874Y-108563230D02*
X121369446Y-108525135D01*
X121369446Y-108525135D02*
X121340874Y-108448944D01*
X121340874Y-108448944D02*
X121378970Y-108144182D01*
X121378970Y-108144182D02*
X121426589Y-108067992D01*
X121426589Y-108067992D02*
X121507541Y-108029896D01*
X121507541Y-108029896D02*
X121659922Y-108029896D01*
X121659922Y-108029896D02*
X121731350Y-108067992D01*
X121731350Y-108067992D02*
X121759922Y-108144182D01*
X121759922Y-108144182D02*
X121750398Y-108220373D01*
X121750398Y-108220373D02*
X121359922Y-108296563D01*
X122359922Y-108525135D02*
X122278969Y-108563230D01*
X122278969Y-108563230D02*
X122126588Y-108563230D01*
X122126588Y-108563230D02*
X122055160Y-108525135D01*
X122055160Y-108525135D02*
X122026588Y-108448944D01*
X122026588Y-108448944D02*
X122064684Y-108144182D01*
X122064684Y-108144182D02*
X122112303Y-108067992D01*
X122112303Y-108067992D02*
X122193255Y-108029896D01*
X122193255Y-108029896D02*
X122345636Y-108029896D01*
X122345636Y-108029896D02*
X122417064Y-108067992D01*
X122417064Y-108067992D02*
X122445636Y-108144182D01*
X122445636Y-108144182D02*
X122436112Y-108220373D01*
X122436112Y-108220373D02*
X122045636Y-108296563D01*
X122778969Y-108525135D02*
X122774207Y-108563230D01*
X122774207Y-108563230D02*
X122726588Y-108639420D01*
X122726588Y-108639420D02*
X122683731Y-108677515D01*
X124193254Y-108487039D02*
X124150397Y-108525135D01*
X124150397Y-108525135D02*
X124031350Y-108563230D01*
X124031350Y-108563230D02*
X123955159Y-108563230D01*
X123955159Y-108563230D02*
X123845635Y-108525135D01*
X123845635Y-108525135D02*
X123778969Y-108448944D01*
X123778969Y-108448944D02*
X123750397Y-108372754D01*
X123750397Y-108372754D02*
X123731350Y-108220373D01*
X123731350Y-108220373D02*
X123745635Y-108106087D01*
X123745635Y-108106087D02*
X123802778Y-107953706D01*
X123802778Y-107953706D02*
X123850397Y-107877515D01*
X123850397Y-107877515D02*
X123936112Y-107801325D01*
X123936112Y-107801325D02*
X124055159Y-107763230D01*
X124055159Y-107763230D02*
X124131350Y-107763230D01*
X124131350Y-107763230D02*
X124240874Y-107801325D01*
X124240874Y-107801325D02*
X124274207Y-107839420D01*
X124526588Y-108563230D02*
X124593254Y-108029896D01*
X124626588Y-107763230D02*
X124583731Y-107801325D01*
X124583731Y-107801325D02*
X124617064Y-107839420D01*
X124617064Y-107839420D02*
X124659921Y-107801325D01*
X124659921Y-107801325D02*
X124626588Y-107763230D01*
X124626588Y-107763230D02*
X124617064Y-107839420D01*
X124907540Y-108563230D02*
X124974206Y-108029896D01*
X124955159Y-108182277D02*
X125002778Y-108106087D01*
X125002778Y-108106087D02*
X125045635Y-108067992D01*
X125045635Y-108067992D02*
X125126587Y-108029896D01*
X125126587Y-108029896D02*
X125202778Y-108029896D01*
X125750397Y-108525135D02*
X125669444Y-108563230D01*
X125669444Y-108563230D02*
X125517064Y-108563230D01*
X125517064Y-108563230D02*
X125445635Y-108525135D01*
X125445635Y-108525135D02*
X125412302Y-108487039D01*
X125412302Y-108487039D02*
X125383730Y-108410849D01*
X125383730Y-108410849D02*
X125412302Y-108182277D01*
X125412302Y-108182277D02*
X125459921Y-108106087D01*
X125459921Y-108106087D02*
X125502778Y-108067992D01*
X125502778Y-108067992D02*
X125583730Y-108029896D01*
X125583730Y-108029896D02*
X125736111Y-108029896D01*
X125736111Y-108029896D02*
X125807540Y-108067992D01*
X126498016Y-108029896D02*
X126431349Y-108563230D01*
X126155158Y-108029896D02*
X126102778Y-108448944D01*
X126102778Y-108448944D02*
X126131349Y-108525135D01*
X126131349Y-108525135D02*
X126202778Y-108563230D01*
X126202778Y-108563230D02*
X126317063Y-108563230D01*
X126317063Y-108563230D02*
X126398016Y-108525135D01*
X126398016Y-108525135D02*
X126440873Y-108487039D01*
X126812302Y-108563230D02*
X126878968Y-108029896D01*
X126912302Y-107763230D02*
X126869445Y-107801325D01*
X126869445Y-107801325D02*
X126902778Y-107839420D01*
X126902778Y-107839420D02*
X126945635Y-107801325D01*
X126945635Y-107801325D02*
X126912302Y-107763230D01*
X126912302Y-107763230D02*
X126902778Y-107839420D01*
X127145635Y-108029896D02*
X127450397Y-108029896D01*
X127293254Y-107763230D02*
X127207540Y-108448944D01*
X127207540Y-108448944D02*
X127236111Y-108525135D01*
X127236111Y-108525135D02*
X127307540Y-108563230D01*
X127307540Y-108563230D02*
X127383730Y-108563230D01*
X127650397Y-108563230D02*
X127717063Y-108029896D01*
X127698016Y-108182277D02*
X127745635Y-108106087D01*
X127745635Y-108106087D02*
X127788492Y-108067992D01*
X127788492Y-108067992D02*
X127869444Y-108029896D01*
X127869444Y-108029896D02*
X127945635Y-108029896D01*
X128136111Y-108029896D02*
X128259921Y-108563230D01*
X128517063Y-108029896D02*
X128259921Y-108563230D01*
X128259921Y-108563230D02*
X128159921Y-108753706D01*
X128159921Y-108753706D02*
X128117063Y-108791801D01*
X128117063Y-108791801D02*
X128036111Y-108829896D01*
X111688494Y-111139140D02*
X111788494Y-110339140D01*
X111788494Y-110339140D02*
X112145637Y-111139140D01*
X112145637Y-111139140D02*
X112245637Y-110339140D01*
X112778970Y-110339140D02*
X112931351Y-110339140D01*
X112931351Y-110339140D02*
X113002779Y-110377235D01*
X113002779Y-110377235D02*
X113069446Y-110453425D01*
X113069446Y-110453425D02*
X113088494Y-110605806D01*
X113088494Y-110605806D02*
X113055160Y-110872473D01*
X113055160Y-110872473D02*
X112998017Y-111024854D01*
X112998017Y-111024854D02*
X112912303Y-111101045D01*
X112912303Y-111101045D02*
X112831351Y-111139140D01*
X112831351Y-111139140D02*
X112678970Y-111139140D01*
X112678970Y-111139140D02*
X112607541Y-111101045D01*
X112607541Y-111101045D02*
X112540875Y-111024854D01*
X112540875Y-111024854D02*
X112521827Y-110872473D01*
X112521827Y-110872473D02*
X112555160Y-110605806D01*
X112555160Y-110605806D02*
X112612303Y-110453425D01*
X112612303Y-110453425D02*
X112698017Y-110377235D01*
X112698017Y-110377235D02*
X112778970Y-110339140D01*
X113464684Y-110339140D02*
X113383731Y-110986759D01*
X113383731Y-110986759D02*
X113412303Y-111062949D01*
X113412303Y-111062949D02*
X113445636Y-111101045D01*
X113445636Y-111101045D02*
X113517065Y-111139140D01*
X113517065Y-111139140D02*
X113669446Y-111139140D01*
X113669446Y-111139140D02*
X113750398Y-111101045D01*
X113750398Y-111101045D02*
X113793255Y-111062949D01*
X113793255Y-111062949D02*
X113840874Y-110986759D01*
X113840874Y-110986759D02*
X113921827Y-110339140D01*
X114202779Y-111139140D02*
X114302779Y-110339140D01*
X114302779Y-110339140D02*
X114659922Y-111139140D01*
X114659922Y-111139140D02*
X114759922Y-110339140D01*
X112107541Y-112427095D02*
X111650399Y-112427095D01*
X111878970Y-112427095D02*
X111978970Y-111627095D01*
X111978970Y-111627095D02*
X111888494Y-111741380D01*
X111888494Y-111741380D02*
X111802780Y-111817571D01*
X111802780Y-111817571D02*
X111721827Y-111855666D01*
X112459923Y-112350904D02*
X112493256Y-112389000D01*
X112493256Y-112389000D02*
X112450399Y-112427095D01*
X112450399Y-112427095D02*
X112417065Y-112389000D01*
X112417065Y-112389000D02*
X112459923Y-112350904D01*
X112459923Y-112350904D02*
X112450399Y-112427095D01*
X113393256Y-111893761D02*
X113698018Y-111893761D01*
X113540875Y-111627095D02*
X113455161Y-112312809D01*
X113455161Y-112312809D02*
X113483732Y-112389000D01*
X113483732Y-112389000D02*
X113555161Y-112427095D01*
X113555161Y-112427095D02*
X113631351Y-112427095D01*
X113898018Y-112427095D02*
X113998018Y-111627095D01*
X114240875Y-112427095D02*
X114293256Y-112008047D01*
X114293256Y-112008047D02*
X114264684Y-111931857D01*
X114264684Y-111931857D02*
X114193256Y-111893761D01*
X114193256Y-111893761D02*
X114078970Y-111893761D01*
X114078970Y-111893761D02*
X113998018Y-111931857D01*
X113998018Y-111931857D02*
X113955161Y-111969952D01*
X114931352Y-112389000D02*
X114850399Y-112427095D01*
X114850399Y-112427095D02*
X114698018Y-112427095D01*
X114698018Y-112427095D02*
X114626590Y-112389000D01*
X114626590Y-112389000D02*
X114598018Y-112312809D01*
X114598018Y-112312809D02*
X114636114Y-112008047D01*
X114636114Y-112008047D02*
X114683733Y-111931857D01*
X114683733Y-111931857D02*
X114764685Y-111893761D01*
X114764685Y-111893761D02*
X114917066Y-111893761D01*
X114917066Y-111893761D02*
X114988494Y-111931857D01*
X114988494Y-111931857D02*
X115017066Y-112008047D01*
X115017066Y-112008047D02*
X115007542Y-112084238D01*
X115007542Y-112084238D02*
X114617066Y-112160428D01*
X115883732Y-112389000D02*
X115955161Y-112427095D01*
X115955161Y-112427095D02*
X116107542Y-112427095D01*
X116107542Y-112427095D02*
X116188494Y-112389000D01*
X116188494Y-112389000D02*
X116236113Y-112312809D01*
X116236113Y-112312809D02*
X116240875Y-112274714D01*
X116240875Y-112274714D02*
X116212304Y-112198523D01*
X116212304Y-112198523D02*
X116140875Y-112160428D01*
X116140875Y-112160428D02*
X116026590Y-112160428D01*
X116026590Y-112160428D02*
X115955161Y-112122333D01*
X115955161Y-112122333D02*
X115926590Y-112046142D01*
X115926590Y-112046142D02*
X115931352Y-112008047D01*
X115931352Y-112008047D02*
X115978971Y-111931857D01*
X115978971Y-111931857D02*
X116059923Y-111893761D01*
X116059923Y-111893761D02*
X116174209Y-111893761D01*
X116174209Y-111893761D02*
X116245637Y-111931857D01*
X116912304Y-112389000D02*
X116831351Y-112427095D01*
X116831351Y-112427095D02*
X116678971Y-112427095D01*
X116678971Y-112427095D02*
X116607542Y-112389000D01*
X116607542Y-112389000D02*
X116574209Y-112350904D01*
X116574209Y-112350904D02*
X116545637Y-112274714D01*
X116545637Y-112274714D02*
X116574209Y-112046142D01*
X116574209Y-112046142D02*
X116621828Y-111969952D01*
X116621828Y-111969952D02*
X116664685Y-111931857D01*
X116664685Y-111931857D02*
X116745637Y-111893761D01*
X116745637Y-111893761D02*
X116898018Y-111893761D01*
X116898018Y-111893761D02*
X116969447Y-111931857D01*
X117250399Y-112427095D02*
X117317065Y-111893761D01*
X117350399Y-111627095D02*
X117307542Y-111665190D01*
X117307542Y-111665190D02*
X117340875Y-111703285D01*
X117340875Y-111703285D02*
X117383732Y-111665190D01*
X117383732Y-111665190D02*
X117350399Y-111627095D01*
X117350399Y-111627095D02*
X117340875Y-111703285D01*
X117940875Y-112389000D02*
X117859922Y-112427095D01*
X117859922Y-112427095D02*
X117707541Y-112427095D01*
X117707541Y-112427095D02*
X117636113Y-112389000D01*
X117636113Y-112389000D02*
X117607541Y-112312809D01*
X117607541Y-112312809D02*
X117645637Y-112008047D01*
X117645637Y-112008047D02*
X117693256Y-111931857D01*
X117693256Y-111931857D02*
X117774208Y-111893761D01*
X117774208Y-111893761D02*
X117926589Y-111893761D01*
X117926589Y-111893761D02*
X117998017Y-111931857D01*
X117998017Y-111931857D02*
X118026589Y-112008047D01*
X118026589Y-112008047D02*
X118017065Y-112084238D01*
X118017065Y-112084238D02*
X117626589Y-112160428D01*
X118383731Y-111893761D02*
X118317065Y-112427095D01*
X118374208Y-111969952D02*
X118417065Y-111931857D01*
X118417065Y-111931857D02*
X118498017Y-111893761D01*
X118498017Y-111893761D02*
X118612303Y-111893761D01*
X118612303Y-111893761D02*
X118683731Y-111931857D01*
X118683731Y-111931857D02*
X118712303Y-112008047D01*
X118712303Y-112008047D02*
X118659922Y-112427095D01*
X119388494Y-112389000D02*
X119307541Y-112427095D01*
X119307541Y-112427095D02*
X119155161Y-112427095D01*
X119155161Y-112427095D02*
X119083732Y-112389000D01*
X119083732Y-112389000D02*
X119050399Y-112350904D01*
X119050399Y-112350904D02*
X119021827Y-112274714D01*
X119021827Y-112274714D02*
X119050399Y-112046142D01*
X119050399Y-112046142D02*
X119098018Y-111969952D01*
X119098018Y-111969952D02*
X119140875Y-111931857D01*
X119140875Y-111931857D02*
X119221827Y-111893761D01*
X119221827Y-111893761D02*
X119374208Y-111893761D01*
X119374208Y-111893761D02*
X119445637Y-111931857D01*
X120036113Y-112389000D02*
X119955160Y-112427095D01*
X119955160Y-112427095D02*
X119802779Y-112427095D01*
X119802779Y-112427095D02*
X119731351Y-112389000D01*
X119731351Y-112389000D02*
X119702779Y-112312809D01*
X119702779Y-112312809D02*
X119740875Y-112008047D01*
X119740875Y-112008047D02*
X119788494Y-111931857D01*
X119788494Y-111931857D02*
X119869446Y-111893761D01*
X119869446Y-111893761D02*
X120021827Y-111893761D01*
X120021827Y-111893761D02*
X120093255Y-111931857D01*
X120093255Y-111931857D02*
X120121827Y-112008047D01*
X120121827Y-112008047D02*
X120112303Y-112084238D01*
X120112303Y-112084238D02*
X119721827Y-112160428D01*
X121136113Y-112427095D02*
X121064684Y-112389000D01*
X121064684Y-112389000D02*
X121031351Y-112350904D01*
X121031351Y-112350904D02*
X121002779Y-112274714D01*
X121002779Y-112274714D02*
X121031351Y-112046142D01*
X121031351Y-112046142D02*
X121078970Y-111969952D01*
X121078970Y-111969952D02*
X121121827Y-111931857D01*
X121121827Y-111931857D02*
X121202779Y-111893761D01*
X121202779Y-111893761D02*
X121317065Y-111893761D01*
X121317065Y-111893761D02*
X121388493Y-111931857D01*
X121388493Y-111931857D02*
X121421827Y-111969952D01*
X121421827Y-111969952D02*
X121450398Y-112046142D01*
X121450398Y-112046142D02*
X121421827Y-112274714D01*
X121421827Y-112274714D02*
X121374208Y-112350904D01*
X121374208Y-112350904D02*
X121331351Y-112389000D01*
X121331351Y-112389000D02*
X121250398Y-112427095D01*
X121250398Y-112427095D02*
X121136113Y-112427095D01*
X121698018Y-111893761D02*
X122002780Y-111893761D01*
X121745637Y-112427095D02*
X121831351Y-111741380D01*
X121831351Y-111741380D02*
X121878970Y-111665190D01*
X121878970Y-111665190D02*
X121959923Y-111627095D01*
X121959923Y-111627095D02*
X122036113Y-111627095D01*
X123155161Y-112427095D02*
X123255161Y-111627095D01*
X123159923Y-112389000D02*
X123078970Y-112427095D01*
X123078970Y-112427095D02*
X122926590Y-112427095D01*
X122926590Y-112427095D02*
X122855161Y-112389000D01*
X122855161Y-112389000D02*
X122821828Y-112350904D01*
X122821828Y-112350904D02*
X122793256Y-112274714D01*
X122793256Y-112274714D02*
X122821828Y-112046142D01*
X122821828Y-112046142D02*
X122869447Y-111969952D01*
X122869447Y-111969952D02*
X122912304Y-111931857D01*
X122912304Y-111931857D02*
X122993256Y-111893761D01*
X122993256Y-111893761D02*
X123145637Y-111893761D01*
X123145637Y-111893761D02*
X123217066Y-111931857D01*
X123845638Y-112389000D02*
X123764685Y-112427095D01*
X123764685Y-112427095D02*
X123612304Y-112427095D01*
X123612304Y-112427095D02*
X123540876Y-112389000D01*
X123540876Y-112389000D02*
X123512304Y-112312809D01*
X123512304Y-112312809D02*
X123550400Y-112008047D01*
X123550400Y-112008047D02*
X123598019Y-111931857D01*
X123598019Y-111931857D02*
X123678971Y-111893761D01*
X123678971Y-111893761D02*
X123831352Y-111893761D01*
X123831352Y-111893761D02*
X123902780Y-111931857D01*
X123902780Y-111931857D02*
X123931352Y-112008047D01*
X123931352Y-112008047D02*
X123921828Y-112084238D01*
X123921828Y-112084238D02*
X123531352Y-112160428D01*
X124188494Y-112389000D02*
X124259923Y-112427095D01*
X124259923Y-112427095D02*
X124412304Y-112427095D01*
X124412304Y-112427095D02*
X124493256Y-112389000D01*
X124493256Y-112389000D02*
X124540875Y-112312809D01*
X124540875Y-112312809D02*
X124545637Y-112274714D01*
X124545637Y-112274714D02*
X124517066Y-112198523D01*
X124517066Y-112198523D02*
X124445637Y-112160428D01*
X124445637Y-112160428D02*
X124331352Y-112160428D01*
X124331352Y-112160428D02*
X124259923Y-112122333D01*
X124259923Y-112122333D02*
X124231352Y-112046142D01*
X124231352Y-112046142D02*
X124236114Y-112008047D01*
X124236114Y-112008047D02*
X124283733Y-111931857D01*
X124283733Y-111931857D02*
X124364685Y-111893761D01*
X124364685Y-111893761D02*
X124478971Y-111893761D01*
X124478971Y-111893761D02*
X124550399Y-111931857D01*
X124869447Y-112427095D02*
X124936113Y-111893761D01*
X124969447Y-111627095D02*
X124926590Y-111665190D01*
X124926590Y-111665190D02*
X124959923Y-111703285D01*
X124959923Y-111703285D02*
X125002780Y-111665190D01*
X125002780Y-111665190D02*
X124969447Y-111627095D01*
X124969447Y-111627095D02*
X124959923Y-111703285D01*
X125659923Y-111893761D02*
X125578970Y-112541380D01*
X125578970Y-112541380D02*
X125531351Y-112617571D01*
X125531351Y-112617571D02*
X125488494Y-112655666D01*
X125488494Y-112655666D02*
X125407542Y-112693761D01*
X125407542Y-112693761D02*
X125293256Y-112693761D01*
X125293256Y-112693761D02*
X125221827Y-112655666D01*
X125598018Y-112389000D02*
X125517065Y-112427095D01*
X125517065Y-112427095D02*
X125364685Y-112427095D01*
X125364685Y-112427095D02*
X125293256Y-112389000D01*
X125293256Y-112389000D02*
X125259923Y-112350904D01*
X125259923Y-112350904D02*
X125231351Y-112274714D01*
X125231351Y-112274714D02*
X125259923Y-112046142D01*
X125259923Y-112046142D02*
X125307542Y-111969952D01*
X125307542Y-111969952D02*
X125350399Y-111931857D01*
X125350399Y-111931857D02*
X125431351Y-111893761D01*
X125431351Y-111893761D02*
X125583732Y-111893761D01*
X125583732Y-111893761D02*
X125655161Y-111931857D01*
X126040875Y-111893761D02*
X125974209Y-112427095D01*
X126031352Y-111969952D02*
X126074209Y-111931857D01*
X126074209Y-111931857D02*
X126155161Y-111893761D01*
X126155161Y-111893761D02*
X126269447Y-111893761D01*
X126269447Y-111893761D02*
X126340875Y-111931857D01*
X126340875Y-111931857D02*
X126369447Y-112008047D01*
X126369447Y-112008047D02*
X126317066Y-112427095D01*
X126698019Y-112427095D02*
X126764685Y-111893761D01*
X126798019Y-111627095D02*
X126755162Y-111665190D01*
X126755162Y-111665190D02*
X126788495Y-111703285D01*
X126788495Y-111703285D02*
X126831352Y-111665190D01*
X126831352Y-111665190D02*
X126798019Y-111627095D01*
X126798019Y-111627095D02*
X126788495Y-111703285D01*
X127145637Y-111893761D02*
X127078971Y-112427095D01*
X127136114Y-111969952D02*
X127178971Y-111931857D01*
X127178971Y-111931857D02*
X127259923Y-111893761D01*
X127259923Y-111893761D02*
X127374209Y-111893761D01*
X127374209Y-111893761D02*
X127445637Y-111931857D01*
X127445637Y-111931857D02*
X127474209Y-112008047D01*
X127474209Y-112008047D02*
X127421828Y-112427095D01*
X128212305Y-111893761D02*
X128131352Y-112541380D01*
X128131352Y-112541380D02*
X128083733Y-112617571D01*
X128083733Y-112617571D02*
X128040876Y-112655666D01*
X128040876Y-112655666D02*
X127959924Y-112693761D01*
X127959924Y-112693761D02*
X127845638Y-112693761D01*
X127845638Y-112693761D02*
X127774209Y-112655666D01*
X128150400Y-112389000D02*
X128069447Y-112427095D01*
X128069447Y-112427095D02*
X127917067Y-112427095D01*
X127917067Y-112427095D02*
X127845638Y-112389000D01*
X127845638Y-112389000D02*
X127812305Y-112350904D01*
X127812305Y-112350904D02*
X127783733Y-112274714D01*
X127783733Y-112274714D02*
X127812305Y-112046142D01*
X127812305Y-112046142D02*
X127859924Y-111969952D01*
X127859924Y-111969952D02*
X127902781Y-111931857D01*
X127902781Y-111931857D02*
X127983733Y-111893761D01*
X127983733Y-111893761D02*
X128136114Y-111893761D01*
X128136114Y-111893761D02*
X128207543Y-111931857D01*
X129445639Y-112389000D02*
X129364686Y-112427095D01*
X129364686Y-112427095D02*
X129212305Y-112427095D01*
X129212305Y-112427095D02*
X129140877Y-112389000D01*
X129140877Y-112389000D02*
X129112305Y-112312809D01*
X129112305Y-112312809D02*
X129150401Y-112008047D01*
X129150401Y-112008047D02*
X129198020Y-111931857D01*
X129198020Y-111931857D02*
X129278972Y-111893761D01*
X129278972Y-111893761D02*
X129431353Y-111893761D01*
X129431353Y-111893761D02*
X129502781Y-111931857D01*
X129502781Y-111931857D02*
X129531353Y-112008047D01*
X129531353Y-112008047D02*
X129521829Y-112084238D01*
X129521829Y-112084238D02*
X129131353Y-112160428D01*
X129936115Y-112427095D02*
X129864686Y-112389000D01*
X129864686Y-112389000D02*
X129836115Y-112312809D01*
X129836115Y-112312809D02*
X129921829Y-111627095D01*
X130550401Y-112389000D02*
X130469448Y-112427095D01*
X130469448Y-112427095D02*
X130317067Y-112427095D01*
X130317067Y-112427095D02*
X130245639Y-112389000D01*
X130245639Y-112389000D02*
X130217067Y-112312809D01*
X130217067Y-112312809D02*
X130255163Y-112008047D01*
X130255163Y-112008047D02*
X130302782Y-111931857D01*
X130302782Y-111931857D02*
X130383734Y-111893761D01*
X130383734Y-111893761D02*
X130536115Y-111893761D01*
X130536115Y-111893761D02*
X130607543Y-111931857D01*
X130607543Y-111931857D02*
X130636115Y-112008047D01*
X130636115Y-112008047D02*
X130626591Y-112084238D01*
X130626591Y-112084238D02*
X130236115Y-112160428D01*
X131274210Y-112389000D02*
X131193257Y-112427095D01*
X131193257Y-112427095D02*
X131040877Y-112427095D01*
X131040877Y-112427095D02*
X130969448Y-112389000D01*
X130969448Y-112389000D02*
X130936115Y-112350904D01*
X130936115Y-112350904D02*
X130907543Y-112274714D01*
X130907543Y-112274714D02*
X130936115Y-112046142D01*
X130936115Y-112046142D02*
X130983734Y-111969952D01*
X130983734Y-111969952D02*
X131026591Y-111931857D01*
X131026591Y-111931857D02*
X131107543Y-111893761D01*
X131107543Y-111893761D02*
X131259924Y-111893761D01*
X131259924Y-111893761D02*
X131331353Y-111931857D01*
X131564686Y-111893761D02*
X131869448Y-111893761D01*
X131712305Y-111627095D02*
X131626591Y-112312809D01*
X131626591Y-112312809D02*
X131655162Y-112389000D01*
X131655162Y-112389000D02*
X131726591Y-112427095D01*
X131726591Y-112427095D02*
X131802781Y-112427095D01*
X132069448Y-112427095D02*
X132136114Y-111893761D01*
X132117067Y-112046142D02*
X132164686Y-111969952D01*
X132164686Y-111969952D02*
X132207543Y-111931857D01*
X132207543Y-111931857D02*
X132288495Y-111893761D01*
X132288495Y-111893761D02*
X132364686Y-111893761D01*
X132564686Y-112427095D02*
X132631352Y-111893761D01*
X132664686Y-111627095D02*
X132621829Y-111665190D01*
X132621829Y-111665190D02*
X132655162Y-111703285D01*
X132655162Y-111703285D02*
X132698019Y-111665190D01*
X132698019Y-111665190D02*
X132664686Y-111627095D01*
X132664686Y-111627095D02*
X132655162Y-111703285D01*
X133293257Y-112389000D02*
X133212304Y-112427095D01*
X133212304Y-112427095D02*
X133059924Y-112427095D01*
X133059924Y-112427095D02*
X132988495Y-112389000D01*
X132988495Y-112389000D02*
X132955162Y-112350904D01*
X132955162Y-112350904D02*
X132926590Y-112274714D01*
X132926590Y-112274714D02*
X132955162Y-112046142D01*
X132955162Y-112046142D02*
X133002781Y-111969952D01*
X133002781Y-111969952D02*
X133045638Y-111931857D01*
X133045638Y-111931857D02*
X133126590Y-111893761D01*
X133126590Y-111893761D02*
X133278971Y-111893761D01*
X133278971Y-111893761D02*
X133350400Y-111931857D01*
X113631352Y-113715050D02*
X113559923Y-113676955D01*
X113559923Y-113676955D02*
X113526590Y-113638859D01*
X113526590Y-113638859D02*
X113498018Y-113562669D01*
X113498018Y-113562669D02*
X113526590Y-113334097D01*
X113526590Y-113334097D02*
X113574209Y-113257907D01*
X113574209Y-113257907D02*
X113617066Y-113219812D01*
X113617066Y-113219812D02*
X113698018Y-113181716D01*
X113698018Y-113181716D02*
X113812304Y-113181716D01*
X113812304Y-113181716D02*
X113883732Y-113219812D01*
X113883732Y-113219812D02*
X113917066Y-113257907D01*
X113917066Y-113257907D02*
X113945637Y-113334097D01*
X113945637Y-113334097D02*
X113917066Y-113562669D01*
X113917066Y-113562669D02*
X113869447Y-113638859D01*
X113869447Y-113638859D02*
X113826590Y-113676955D01*
X113826590Y-113676955D02*
X113745637Y-113715050D01*
X113745637Y-113715050D02*
X113631352Y-113715050D01*
X114240876Y-113715050D02*
X114307542Y-113181716D01*
X114288495Y-113334097D02*
X114336114Y-113257907D01*
X114336114Y-113257907D02*
X114378971Y-113219812D01*
X114378971Y-113219812D02*
X114459923Y-113181716D01*
X114459923Y-113181716D02*
X114536114Y-113181716D01*
X115655162Y-113676955D02*
X115574209Y-113715050D01*
X115574209Y-113715050D02*
X115421828Y-113715050D01*
X115421828Y-113715050D02*
X115350400Y-113676955D01*
X115350400Y-113676955D02*
X115321828Y-113600764D01*
X115321828Y-113600764D02*
X115359924Y-113296002D01*
X115359924Y-113296002D02*
X115407543Y-113219812D01*
X115407543Y-113219812D02*
X115488495Y-113181716D01*
X115488495Y-113181716D02*
X115640876Y-113181716D01*
X115640876Y-113181716D02*
X115712304Y-113219812D01*
X115712304Y-113219812D02*
X115740876Y-113296002D01*
X115740876Y-113296002D02*
X115731352Y-113372193D01*
X115731352Y-113372193D02*
X115340876Y-113448383D01*
X116145638Y-113715050D02*
X116074209Y-113676955D01*
X116074209Y-113676955D02*
X116045638Y-113600764D01*
X116045638Y-113600764D02*
X116131352Y-112915050D01*
X116759924Y-113676955D02*
X116678971Y-113715050D01*
X116678971Y-113715050D02*
X116526590Y-113715050D01*
X116526590Y-113715050D02*
X116455162Y-113676955D01*
X116455162Y-113676955D02*
X116426590Y-113600764D01*
X116426590Y-113600764D02*
X116464686Y-113296002D01*
X116464686Y-113296002D02*
X116512305Y-113219812D01*
X116512305Y-113219812D02*
X116593257Y-113181716D01*
X116593257Y-113181716D02*
X116745638Y-113181716D01*
X116745638Y-113181716D02*
X116817066Y-113219812D01*
X116817066Y-113219812D02*
X116845638Y-113296002D01*
X116845638Y-113296002D02*
X116836114Y-113372193D01*
X116836114Y-113372193D02*
X116445638Y-113448383D01*
X117483733Y-113676955D02*
X117402780Y-113715050D01*
X117402780Y-113715050D02*
X117250400Y-113715050D01*
X117250400Y-113715050D02*
X117178971Y-113676955D01*
X117178971Y-113676955D02*
X117145638Y-113638859D01*
X117145638Y-113638859D02*
X117117066Y-113562669D01*
X117117066Y-113562669D02*
X117145638Y-113334097D01*
X117145638Y-113334097D02*
X117193257Y-113257907D01*
X117193257Y-113257907D02*
X117236114Y-113219812D01*
X117236114Y-113219812D02*
X117317066Y-113181716D01*
X117317066Y-113181716D02*
X117469447Y-113181716D01*
X117469447Y-113181716D02*
X117540876Y-113219812D01*
X117774209Y-113181716D02*
X118078971Y-113181716D01*
X117921828Y-112915050D02*
X117836114Y-113600764D01*
X117836114Y-113600764D02*
X117864685Y-113676955D01*
X117864685Y-113676955D02*
X117936114Y-113715050D01*
X117936114Y-113715050D02*
X118012304Y-113715050D01*
X118278971Y-113715050D02*
X118345637Y-113181716D01*
X118326590Y-113334097D02*
X118374209Y-113257907D01*
X118374209Y-113257907D02*
X118417066Y-113219812D01*
X118417066Y-113219812D02*
X118498018Y-113181716D01*
X118498018Y-113181716D02*
X118574209Y-113181716D01*
X118888495Y-113715050D02*
X118817066Y-113676955D01*
X118817066Y-113676955D02*
X118783733Y-113638859D01*
X118783733Y-113638859D02*
X118755161Y-113562669D01*
X118755161Y-113562669D02*
X118783733Y-113334097D01*
X118783733Y-113334097D02*
X118831352Y-113257907D01*
X118831352Y-113257907D02*
X118874209Y-113219812D01*
X118874209Y-113219812D02*
X118955161Y-113181716D01*
X118955161Y-113181716D02*
X119069447Y-113181716D01*
X119069447Y-113181716D02*
X119140875Y-113219812D01*
X119140875Y-113219812D02*
X119174209Y-113257907D01*
X119174209Y-113257907D02*
X119202780Y-113334097D01*
X119202780Y-113334097D02*
X119174209Y-113562669D01*
X119174209Y-113562669D02*
X119126590Y-113638859D01*
X119126590Y-113638859D02*
X119083733Y-113676955D01*
X119083733Y-113676955D02*
X119002780Y-113715050D01*
X119002780Y-113715050D02*
X118888495Y-113715050D01*
X119564685Y-113181716D02*
X119498019Y-113715050D01*
X119555162Y-113257907D02*
X119598019Y-113219812D01*
X119598019Y-113219812D02*
X119678971Y-113181716D01*
X119678971Y-113181716D02*
X119793257Y-113181716D01*
X119793257Y-113181716D02*
X119864685Y-113219812D01*
X119864685Y-113219812D02*
X119893257Y-113296002D01*
X119893257Y-113296002D02*
X119840876Y-113715050D01*
X120221829Y-113715050D02*
X120288495Y-113181716D01*
X120321829Y-112915050D02*
X120278972Y-112953145D01*
X120278972Y-112953145D02*
X120312305Y-112991240D01*
X120312305Y-112991240D02*
X120355162Y-112953145D01*
X120355162Y-112953145D02*
X120321829Y-112915050D01*
X120321829Y-112915050D02*
X120312305Y-112991240D01*
X120950400Y-113676955D02*
X120869447Y-113715050D01*
X120869447Y-113715050D02*
X120717067Y-113715050D01*
X120717067Y-113715050D02*
X120645638Y-113676955D01*
X120645638Y-113676955D02*
X120612305Y-113638859D01*
X120612305Y-113638859D02*
X120583733Y-113562669D01*
X120583733Y-113562669D02*
X120612305Y-113334097D01*
X120612305Y-113334097D02*
X120659924Y-113257907D01*
X120659924Y-113257907D02*
X120702781Y-113219812D01*
X120702781Y-113219812D02*
X120783733Y-113181716D01*
X120783733Y-113181716D02*
X120936114Y-113181716D01*
X120936114Y-113181716D02*
X121007543Y-113219812D01*
X122245638Y-113676955D02*
X122164685Y-113715050D01*
X122164685Y-113715050D02*
X122012305Y-113715050D01*
X122012305Y-113715050D02*
X121940876Y-113676955D01*
X121940876Y-113676955D02*
X121907543Y-113638859D01*
X121907543Y-113638859D02*
X121878971Y-113562669D01*
X121878971Y-113562669D02*
X121907543Y-113334097D01*
X121907543Y-113334097D02*
X121955162Y-113257907D01*
X121955162Y-113257907D02*
X121998019Y-113219812D01*
X121998019Y-113219812D02*
X122078971Y-113181716D01*
X122078971Y-113181716D02*
X122231352Y-113181716D01*
X122231352Y-113181716D02*
X122302781Y-113219812D01*
X122583733Y-113715050D02*
X122650399Y-113181716D01*
X122683733Y-112915050D02*
X122640876Y-112953145D01*
X122640876Y-112953145D02*
X122674209Y-112991240D01*
X122674209Y-112991240D02*
X122717066Y-112953145D01*
X122717066Y-112953145D02*
X122683733Y-112915050D01*
X122683733Y-112915050D02*
X122674209Y-112991240D01*
X122964685Y-113715050D02*
X123031351Y-113181716D01*
X123012304Y-113334097D02*
X123059923Y-113257907D01*
X123059923Y-113257907D02*
X123102780Y-113219812D01*
X123102780Y-113219812D02*
X123183732Y-113181716D01*
X123183732Y-113181716D02*
X123259923Y-113181716D01*
X123807542Y-113676955D02*
X123726589Y-113715050D01*
X123726589Y-113715050D02*
X123574209Y-113715050D01*
X123574209Y-113715050D02*
X123502780Y-113676955D01*
X123502780Y-113676955D02*
X123469447Y-113638859D01*
X123469447Y-113638859D02*
X123440875Y-113562669D01*
X123440875Y-113562669D02*
X123469447Y-113334097D01*
X123469447Y-113334097D02*
X123517066Y-113257907D01*
X123517066Y-113257907D02*
X123559923Y-113219812D01*
X123559923Y-113219812D02*
X123640875Y-113181716D01*
X123640875Y-113181716D02*
X123793256Y-113181716D01*
X123793256Y-113181716D02*
X123864685Y-113219812D01*
X124555161Y-113181716D02*
X124488494Y-113715050D01*
X124212303Y-113181716D02*
X124159923Y-113600764D01*
X124159923Y-113600764D02*
X124188494Y-113676955D01*
X124188494Y-113676955D02*
X124259923Y-113715050D01*
X124259923Y-113715050D02*
X124374208Y-113715050D01*
X124374208Y-113715050D02*
X124455161Y-113676955D01*
X124455161Y-113676955D02*
X124498018Y-113638859D01*
X124869447Y-113715050D02*
X124936113Y-113181716D01*
X124969447Y-112915050D02*
X124926590Y-112953145D01*
X124926590Y-112953145D02*
X124959923Y-112991240D01*
X124959923Y-112991240D02*
X125002780Y-112953145D01*
X125002780Y-112953145D02*
X124969447Y-112915050D01*
X124969447Y-112915050D02*
X124959923Y-112991240D01*
X125202780Y-113181716D02*
X125507542Y-113181716D01*
X125350399Y-112915050D02*
X125264685Y-113600764D01*
X125264685Y-113600764D02*
X125293256Y-113676955D01*
X125293256Y-113676955D02*
X125364685Y-113715050D01*
X125364685Y-113715050D02*
X125440875Y-113715050D01*
X125674208Y-113676955D02*
X125745637Y-113715050D01*
X125745637Y-113715050D02*
X125898018Y-113715050D01*
X125898018Y-113715050D02*
X125978970Y-113676955D01*
X125978970Y-113676955D02*
X126026589Y-113600764D01*
X126026589Y-113600764D02*
X126031351Y-113562669D01*
X126031351Y-113562669D02*
X126002780Y-113486478D01*
X126002780Y-113486478D02*
X125931351Y-113448383D01*
X125931351Y-113448383D02*
X125817066Y-113448383D01*
X125817066Y-113448383D02*
X125745637Y-113410288D01*
X125745637Y-113410288D02*
X125717066Y-113334097D01*
X125717066Y-113334097D02*
X125721828Y-113296002D01*
X125721828Y-113296002D02*
X125769447Y-113219812D01*
X125769447Y-113219812D02*
X125850399Y-113181716D01*
X125850399Y-113181716D02*
X125964685Y-113181716D01*
X125964685Y-113181716D02*
X126036113Y-113219812D01*
X126364685Y-113638859D02*
X126398018Y-113676955D01*
X126398018Y-113676955D02*
X126355161Y-113715050D01*
X126355161Y-113715050D02*
X126321827Y-113676955D01*
X126321827Y-113676955D02*
X126364685Y-113638859D01*
X126364685Y-113638859D02*
X126355161Y-113715050D01*
X111740875Y-114279195D02*
X111783732Y-114241100D01*
X111783732Y-114241100D02*
X111864684Y-114203005D01*
X111864684Y-114203005D02*
X112055160Y-114203005D01*
X112055160Y-114203005D02*
X112126589Y-114241100D01*
X112126589Y-114241100D02*
X112159922Y-114279195D01*
X112159922Y-114279195D02*
X112188494Y-114355386D01*
X112188494Y-114355386D02*
X112178970Y-114431576D01*
X112178970Y-114431576D02*
X112126589Y-114545862D01*
X112126589Y-114545862D02*
X111612303Y-115003005D01*
X111612303Y-115003005D02*
X112107541Y-115003005D01*
X112459923Y-114926814D02*
X112493256Y-114964910D01*
X112493256Y-114964910D02*
X112450399Y-115003005D01*
X112450399Y-115003005D02*
X112417065Y-114964910D01*
X112417065Y-114964910D02*
X112459923Y-114926814D01*
X112459923Y-114926814D02*
X112450399Y-115003005D01*
X113393256Y-114469671D02*
X113698018Y-114469671D01*
X113540875Y-114203005D02*
X113455161Y-114888719D01*
X113455161Y-114888719D02*
X113483732Y-114964910D01*
X113483732Y-114964910D02*
X113555161Y-115003005D01*
X113555161Y-115003005D02*
X113631351Y-115003005D01*
X113898018Y-115003005D02*
X113998018Y-114203005D01*
X114240875Y-115003005D02*
X114293256Y-114583957D01*
X114293256Y-114583957D02*
X114264684Y-114507767D01*
X114264684Y-114507767D02*
X114193256Y-114469671D01*
X114193256Y-114469671D02*
X114078970Y-114469671D01*
X114078970Y-114469671D02*
X113998018Y-114507767D01*
X113998018Y-114507767D02*
X113955161Y-114545862D01*
X114931352Y-114964910D02*
X114850399Y-115003005D01*
X114850399Y-115003005D02*
X114698018Y-115003005D01*
X114698018Y-115003005D02*
X114626590Y-114964910D01*
X114626590Y-114964910D02*
X114598018Y-114888719D01*
X114598018Y-114888719D02*
X114636114Y-114583957D01*
X114636114Y-114583957D02*
X114683733Y-114507767D01*
X114683733Y-114507767D02*
X114764685Y-114469671D01*
X114764685Y-114469671D02*
X114917066Y-114469671D01*
X114917066Y-114469671D02*
X114988494Y-114507767D01*
X114988494Y-114507767D02*
X115017066Y-114583957D01*
X115017066Y-114583957D02*
X115007542Y-114660148D01*
X115007542Y-114660148D02*
X114617066Y-114736338D01*
X116264685Y-114964910D02*
X116183732Y-115003005D01*
X116183732Y-115003005D02*
X116031352Y-115003005D01*
X116031352Y-115003005D02*
X115959923Y-114964910D01*
X115959923Y-114964910D02*
X115926590Y-114926814D01*
X115926590Y-114926814D02*
X115898018Y-114850624D01*
X115898018Y-114850624D02*
X115926590Y-114622052D01*
X115926590Y-114622052D02*
X115974209Y-114545862D01*
X115974209Y-114545862D02*
X116017066Y-114507767D01*
X116017066Y-114507767D02*
X116098018Y-114469671D01*
X116098018Y-114469671D02*
X116250399Y-114469671D01*
X116250399Y-114469671D02*
X116321828Y-114507767D01*
X116602780Y-115003005D02*
X116669446Y-114469671D01*
X116702780Y-114203005D02*
X116659923Y-114241100D01*
X116659923Y-114241100D02*
X116693256Y-114279195D01*
X116693256Y-114279195D02*
X116736113Y-114241100D01*
X116736113Y-114241100D02*
X116702780Y-114203005D01*
X116702780Y-114203005D02*
X116693256Y-114279195D01*
X116983732Y-115003005D02*
X117050398Y-114469671D01*
X117031351Y-114622052D02*
X117078970Y-114545862D01*
X117078970Y-114545862D02*
X117121827Y-114507767D01*
X117121827Y-114507767D02*
X117202779Y-114469671D01*
X117202779Y-114469671D02*
X117278970Y-114469671D01*
X117826589Y-114964910D02*
X117745636Y-115003005D01*
X117745636Y-115003005D02*
X117593256Y-115003005D01*
X117593256Y-115003005D02*
X117521827Y-114964910D01*
X117521827Y-114964910D02*
X117488494Y-114926814D01*
X117488494Y-114926814D02*
X117459922Y-114850624D01*
X117459922Y-114850624D02*
X117488494Y-114622052D01*
X117488494Y-114622052D02*
X117536113Y-114545862D01*
X117536113Y-114545862D02*
X117578970Y-114507767D01*
X117578970Y-114507767D02*
X117659922Y-114469671D01*
X117659922Y-114469671D02*
X117812303Y-114469671D01*
X117812303Y-114469671D02*
X117883732Y-114507767D01*
X118574208Y-114469671D02*
X118507541Y-115003005D01*
X118231350Y-114469671D02*
X118178970Y-114888719D01*
X118178970Y-114888719D02*
X118207541Y-114964910D01*
X118207541Y-114964910D02*
X118278970Y-115003005D01*
X118278970Y-115003005D02*
X118393255Y-115003005D01*
X118393255Y-115003005D02*
X118474208Y-114964910D01*
X118474208Y-114964910D02*
X118517065Y-114926814D01*
X118888494Y-115003005D02*
X118955160Y-114469671D01*
X118988494Y-114203005D02*
X118945637Y-114241100D01*
X118945637Y-114241100D02*
X118978970Y-114279195D01*
X118978970Y-114279195D02*
X119021827Y-114241100D01*
X119021827Y-114241100D02*
X118988494Y-114203005D01*
X118988494Y-114203005D02*
X118978970Y-114279195D01*
X119221827Y-114469671D02*
X119526589Y-114469671D01*
X119369446Y-114203005D02*
X119283732Y-114888719D01*
X119283732Y-114888719D02*
X119312303Y-114964910D01*
X119312303Y-114964910D02*
X119383732Y-115003005D01*
X119383732Y-115003005D02*
X119459922Y-115003005D01*
X119693255Y-114964910D02*
X119764684Y-115003005D01*
X119764684Y-115003005D02*
X119917065Y-115003005D01*
X119917065Y-115003005D02*
X119998017Y-114964910D01*
X119998017Y-114964910D02*
X120045636Y-114888719D01*
X120045636Y-114888719D02*
X120050398Y-114850624D01*
X120050398Y-114850624D02*
X120021827Y-114774433D01*
X120021827Y-114774433D02*
X119950398Y-114736338D01*
X119950398Y-114736338D02*
X119836113Y-114736338D01*
X119836113Y-114736338D02*
X119764684Y-114698243D01*
X119764684Y-114698243D02*
X119736113Y-114622052D01*
X119736113Y-114622052D02*
X119740875Y-114583957D01*
X119740875Y-114583957D02*
X119788494Y-114507767D01*
X119788494Y-114507767D02*
X119869446Y-114469671D01*
X119869446Y-114469671D02*
X119983732Y-114469671D01*
X119983732Y-114469671D02*
X120055160Y-114507767D01*
X120936113Y-114469671D02*
X121240875Y-114469671D01*
X121083732Y-114203005D02*
X120998018Y-114888719D01*
X120998018Y-114888719D02*
X121026589Y-114964910D01*
X121026589Y-114964910D02*
X121098018Y-115003005D01*
X121098018Y-115003005D02*
X121174208Y-115003005D01*
X121440875Y-115003005D02*
X121540875Y-114203005D01*
X121783732Y-115003005D02*
X121836113Y-114583957D01*
X121836113Y-114583957D02*
X121807541Y-114507767D01*
X121807541Y-114507767D02*
X121736113Y-114469671D01*
X121736113Y-114469671D02*
X121621827Y-114469671D01*
X121621827Y-114469671D02*
X121540875Y-114507767D01*
X121540875Y-114507767D02*
X121498018Y-114545862D01*
X122474209Y-114964910D02*
X122393256Y-115003005D01*
X122393256Y-115003005D02*
X122240875Y-115003005D01*
X122240875Y-115003005D02*
X122169447Y-114964910D01*
X122169447Y-114964910D02*
X122140875Y-114888719D01*
X122140875Y-114888719D02*
X122178971Y-114583957D01*
X122178971Y-114583957D02*
X122226590Y-114507767D01*
X122226590Y-114507767D02*
X122307542Y-114469671D01*
X122307542Y-114469671D02*
X122459923Y-114469671D01*
X122459923Y-114469671D02*
X122531351Y-114507767D01*
X122531351Y-114507767D02*
X122559923Y-114583957D01*
X122559923Y-114583957D02*
X122550399Y-114660148D01*
X122550399Y-114660148D02*
X122159923Y-114736338D01*
X122850399Y-115003005D02*
X122917065Y-114469671D01*
X122907542Y-114545862D02*
X122950399Y-114507767D01*
X122950399Y-114507767D02*
X123031351Y-114469671D01*
X123031351Y-114469671D02*
X123145637Y-114469671D01*
X123145637Y-114469671D02*
X123217065Y-114507767D01*
X123217065Y-114507767D02*
X123245637Y-114583957D01*
X123245637Y-114583957D02*
X123193256Y-115003005D01*
X123245637Y-114583957D02*
X123293256Y-114507767D01*
X123293256Y-114507767D02*
X123374208Y-114469671D01*
X123374208Y-114469671D02*
X123488494Y-114469671D01*
X123488494Y-114469671D02*
X123559923Y-114507767D01*
X123559923Y-114507767D02*
X123588494Y-114583957D01*
X123588494Y-114583957D02*
X123536113Y-115003005D01*
X123883732Y-114964910D02*
X123955161Y-115003005D01*
X123955161Y-115003005D02*
X124107542Y-115003005D01*
X124107542Y-115003005D02*
X124188494Y-114964910D01*
X124188494Y-114964910D02*
X124236113Y-114888719D01*
X124236113Y-114888719D02*
X124240875Y-114850624D01*
X124240875Y-114850624D02*
X124212304Y-114774433D01*
X124212304Y-114774433D02*
X124140875Y-114736338D01*
X124140875Y-114736338D02*
X124026590Y-114736338D01*
X124026590Y-114736338D02*
X123955161Y-114698243D01*
X123955161Y-114698243D02*
X123926590Y-114622052D01*
X123926590Y-114622052D02*
X123931352Y-114583957D01*
X123931352Y-114583957D02*
X123978971Y-114507767D01*
X123978971Y-114507767D02*
X124059923Y-114469671D01*
X124059923Y-114469671D02*
X124174209Y-114469671D01*
X124174209Y-114469671D02*
X124245637Y-114507767D01*
X124874209Y-114964910D02*
X124793256Y-115003005D01*
X124793256Y-115003005D02*
X124640875Y-115003005D01*
X124640875Y-115003005D02*
X124569447Y-114964910D01*
X124569447Y-114964910D02*
X124540875Y-114888719D01*
X124540875Y-114888719D02*
X124578971Y-114583957D01*
X124578971Y-114583957D02*
X124626590Y-114507767D01*
X124626590Y-114507767D02*
X124707542Y-114469671D01*
X124707542Y-114469671D02*
X124859923Y-114469671D01*
X124859923Y-114469671D02*
X124931351Y-114507767D01*
X124931351Y-114507767D02*
X124959923Y-114583957D01*
X124959923Y-114583957D02*
X124950399Y-114660148D01*
X124950399Y-114660148D02*
X124559923Y-114736338D01*
X125364685Y-115003005D02*
X125293256Y-114964910D01*
X125293256Y-114964910D02*
X125264685Y-114888719D01*
X125264685Y-114888719D02*
X125350399Y-114203005D01*
X125659923Y-114469671D02*
X125783733Y-115003005D01*
X125783733Y-115003005D02*
X126040875Y-114469671D01*
X126588495Y-114964910D02*
X126507542Y-115003005D01*
X126507542Y-115003005D02*
X126355161Y-115003005D01*
X126355161Y-115003005D02*
X126283733Y-114964910D01*
X126283733Y-114964910D02*
X126255161Y-114888719D01*
X126255161Y-114888719D02*
X126293257Y-114583957D01*
X126293257Y-114583957D02*
X126340876Y-114507767D01*
X126340876Y-114507767D02*
X126421828Y-114469671D01*
X126421828Y-114469671D02*
X126574209Y-114469671D01*
X126574209Y-114469671D02*
X126645637Y-114507767D01*
X126645637Y-114507767D02*
X126674209Y-114583957D01*
X126674209Y-114583957D02*
X126664685Y-114660148D01*
X126664685Y-114660148D02*
X126274209Y-114736338D01*
X126931351Y-114964910D02*
X127002780Y-115003005D01*
X127002780Y-115003005D02*
X127155161Y-115003005D01*
X127155161Y-115003005D02*
X127236113Y-114964910D01*
X127236113Y-114964910D02*
X127283732Y-114888719D01*
X127283732Y-114888719D02*
X127288494Y-114850624D01*
X127288494Y-114850624D02*
X127259923Y-114774433D01*
X127259923Y-114774433D02*
X127188494Y-114736338D01*
X127188494Y-114736338D02*
X127074209Y-114736338D01*
X127074209Y-114736338D02*
X127002780Y-114698243D01*
X127002780Y-114698243D02*
X126974209Y-114622052D01*
X126974209Y-114622052D02*
X126978971Y-114583957D01*
X126978971Y-114583957D02*
X127026590Y-114507767D01*
X127026590Y-114507767D02*
X127107542Y-114469671D01*
X127107542Y-114469671D02*
X127221828Y-114469671D01*
X127221828Y-114469671D02*
X127293256Y-114507767D01*
X127621828Y-114926814D02*
X127655161Y-114964910D01*
X127655161Y-114964910D02*
X127612304Y-115003005D01*
X127612304Y-115003005D02*
X127578970Y-114964910D01*
X127578970Y-114964910D02*
X127621828Y-114926814D01*
X127621828Y-114926814D02*
X127612304Y-115003005D01*
X111712303Y-115490960D02*
X112207541Y-115490960D01*
X112207541Y-115490960D02*
X111902780Y-115795722D01*
X111902780Y-115795722D02*
X112017065Y-115795722D01*
X112017065Y-115795722D02*
X112088494Y-115833817D01*
X112088494Y-115833817D02*
X112121827Y-115871912D01*
X112121827Y-115871912D02*
X112150399Y-115948103D01*
X112150399Y-115948103D02*
X112126589Y-116138579D01*
X112126589Y-116138579D02*
X112078970Y-116214769D01*
X112078970Y-116214769D02*
X112036113Y-116252865D01*
X112036113Y-116252865D02*
X111955160Y-116290960D01*
X111955160Y-116290960D02*
X111726589Y-116290960D01*
X111726589Y-116290960D02*
X111655160Y-116252865D01*
X111655160Y-116252865D02*
X111621827Y-116214769D01*
X112459923Y-116214769D02*
X112493256Y-116252865D01*
X112493256Y-116252865D02*
X112450399Y-116290960D01*
X112450399Y-116290960D02*
X112417065Y-116252865D01*
X112417065Y-116252865D02*
X112459923Y-116214769D01*
X112459923Y-116214769D02*
X112450399Y-116290960D01*
X113393256Y-115757626D02*
X113698018Y-115757626D01*
X113540875Y-115490960D02*
X113455161Y-116176674D01*
X113455161Y-116176674D02*
X113483732Y-116252865D01*
X113483732Y-116252865D02*
X113555161Y-116290960D01*
X113555161Y-116290960D02*
X113631351Y-116290960D01*
X113898018Y-116290960D02*
X113998018Y-115490960D01*
X114240875Y-116290960D02*
X114293256Y-115871912D01*
X114293256Y-115871912D02*
X114264684Y-115795722D01*
X114264684Y-115795722D02*
X114193256Y-115757626D01*
X114193256Y-115757626D02*
X114078970Y-115757626D01*
X114078970Y-115757626D02*
X113998018Y-115795722D01*
X113998018Y-115795722D02*
X113955161Y-115833817D01*
X114931352Y-116252865D02*
X114850399Y-116290960D01*
X114850399Y-116290960D02*
X114698018Y-116290960D01*
X114698018Y-116290960D02*
X114626590Y-116252865D01*
X114626590Y-116252865D02*
X114598018Y-116176674D01*
X114598018Y-116176674D02*
X114636114Y-115871912D01*
X114636114Y-115871912D02*
X114683733Y-115795722D01*
X114683733Y-115795722D02*
X114764685Y-115757626D01*
X114764685Y-115757626D02*
X114917066Y-115757626D01*
X114917066Y-115757626D02*
X114988494Y-115795722D01*
X114988494Y-115795722D02*
X115017066Y-115871912D01*
X115017066Y-115871912D02*
X115007542Y-115948103D01*
X115007542Y-115948103D02*
X114617066Y-116024293D01*
X116264685Y-116252865D02*
X116183732Y-116290960D01*
X116183732Y-116290960D02*
X116031352Y-116290960D01*
X116031352Y-116290960D02*
X115959923Y-116252865D01*
X115959923Y-116252865D02*
X115926590Y-116214769D01*
X115926590Y-116214769D02*
X115898018Y-116138579D01*
X115898018Y-116138579D02*
X115926590Y-115910007D01*
X115926590Y-115910007D02*
X115974209Y-115833817D01*
X115974209Y-115833817D02*
X116017066Y-115795722D01*
X116017066Y-115795722D02*
X116098018Y-115757626D01*
X116098018Y-115757626D02*
X116250399Y-115757626D01*
X116250399Y-115757626D02*
X116321828Y-115795722D01*
X116717066Y-116290960D02*
X116645637Y-116252865D01*
X116645637Y-116252865D02*
X116612304Y-116214769D01*
X116612304Y-116214769D02*
X116583732Y-116138579D01*
X116583732Y-116138579D02*
X116612304Y-115910007D01*
X116612304Y-115910007D02*
X116659923Y-115833817D01*
X116659923Y-115833817D02*
X116702780Y-115795722D01*
X116702780Y-115795722D02*
X116783732Y-115757626D01*
X116783732Y-115757626D02*
X116898018Y-115757626D01*
X116898018Y-115757626D02*
X116969446Y-115795722D01*
X116969446Y-115795722D02*
X117002780Y-115833817D01*
X117002780Y-115833817D02*
X117031351Y-115910007D01*
X117031351Y-115910007D02*
X117002780Y-116138579D01*
X117002780Y-116138579D02*
X116955161Y-116214769D01*
X116955161Y-116214769D02*
X116912304Y-116252865D01*
X116912304Y-116252865D02*
X116831351Y-116290960D01*
X116831351Y-116290960D02*
X116717066Y-116290960D01*
X117326590Y-116290960D02*
X117393256Y-115757626D01*
X117383733Y-115833817D02*
X117426590Y-115795722D01*
X117426590Y-115795722D02*
X117507542Y-115757626D01*
X117507542Y-115757626D02*
X117621828Y-115757626D01*
X117621828Y-115757626D02*
X117693256Y-115795722D01*
X117693256Y-115795722D02*
X117721828Y-115871912D01*
X117721828Y-115871912D02*
X117669447Y-116290960D01*
X117721828Y-115871912D02*
X117769447Y-115795722D01*
X117769447Y-115795722D02*
X117850399Y-115757626D01*
X117850399Y-115757626D02*
X117964685Y-115757626D01*
X117964685Y-115757626D02*
X118036114Y-115795722D01*
X118036114Y-115795722D02*
X118064685Y-115871912D01*
X118064685Y-115871912D02*
X118012304Y-116290960D01*
X118459923Y-115757626D02*
X118359923Y-116557626D01*
X118455162Y-115795722D02*
X118536114Y-115757626D01*
X118536114Y-115757626D02*
X118688495Y-115757626D01*
X118688495Y-115757626D02*
X118759923Y-115795722D01*
X118759923Y-115795722D02*
X118793257Y-115833817D01*
X118793257Y-115833817D02*
X118821828Y-115910007D01*
X118821828Y-115910007D02*
X118793257Y-116138579D01*
X118793257Y-116138579D02*
X118745638Y-116214769D01*
X118745638Y-116214769D02*
X118702781Y-116252865D01*
X118702781Y-116252865D02*
X118621828Y-116290960D01*
X118621828Y-116290960D02*
X118469447Y-116290960D01*
X118469447Y-116290960D02*
X118398019Y-116252865D01*
X119231353Y-116290960D02*
X119159924Y-116252865D01*
X119159924Y-116252865D02*
X119126591Y-116214769D01*
X119126591Y-116214769D02*
X119098019Y-116138579D01*
X119098019Y-116138579D02*
X119126591Y-115910007D01*
X119126591Y-115910007D02*
X119174210Y-115833817D01*
X119174210Y-115833817D02*
X119217067Y-115795722D01*
X119217067Y-115795722D02*
X119298019Y-115757626D01*
X119298019Y-115757626D02*
X119412305Y-115757626D01*
X119412305Y-115757626D02*
X119483733Y-115795722D01*
X119483733Y-115795722D02*
X119517067Y-115833817D01*
X119517067Y-115833817D02*
X119545638Y-115910007D01*
X119545638Y-115910007D02*
X119517067Y-116138579D01*
X119517067Y-116138579D02*
X119469448Y-116214769D01*
X119469448Y-116214769D02*
X119426591Y-116252865D01*
X119426591Y-116252865D02*
X119345638Y-116290960D01*
X119345638Y-116290960D02*
X119231353Y-116290960D01*
X119907543Y-115757626D02*
X119840877Y-116290960D01*
X119898020Y-115833817D02*
X119940877Y-115795722D01*
X119940877Y-115795722D02*
X120021829Y-115757626D01*
X120021829Y-115757626D02*
X120136115Y-115757626D01*
X120136115Y-115757626D02*
X120207543Y-115795722D01*
X120207543Y-115795722D02*
X120236115Y-115871912D01*
X120236115Y-115871912D02*
X120183734Y-116290960D01*
X120874211Y-116252865D02*
X120793258Y-116290960D01*
X120793258Y-116290960D02*
X120640877Y-116290960D01*
X120640877Y-116290960D02*
X120569449Y-116252865D01*
X120569449Y-116252865D02*
X120540877Y-116176674D01*
X120540877Y-116176674D02*
X120578973Y-115871912D01*
X120578973Y-115871912D02*
X120626592Y-115795722D01*
X120626592Y-115795722D02*
X120707544Y-115757626D01*
X120707544Y-115757626D02*
X120859925Y-115757626D01*
X120859925Y-115757626D02*
X120931353Y-115795722D01*
X120931353Y-115795722D02*
X120959925Y-115871912D01*
X120959925Y-115871912D02*
X120950401Y-115948103D01*
X120950401Y-115948103D02*
X120559925Y-116024293D01*
X121317067Y-115757626D02*
X121250401Y-116290960D01*
X121307544Y-115833817D02*
X121350401Y-115795722D01*
X121350401Y-115795722D02*
X121431353Y-115757626D01*
X121431353Y-115757626D02*
X121545639Y-115757626D01*
X121545639Y-115757626D02*
X121617067Y-115795722D01*
X121617067Y-115795722D02*
X121645639Y-115871912D01*
X121645639Y-115871912D02*
X121593258Y-116290960D01*
X121926592Y-115757626D02*
X122231354Y-115757626D01*
X122074211Y-115490960D02*
X121988497Y-116176674D01*
X121988497Y-116176674D02*
X122017068Y-116252865D01*
X122017068Y-116252865D02*
X122088497Y-116290960D01*
X122088497Y-116290960D02*
X122164687Y-116290960D01*
X122398020Y-116252865D02*
X122469449Y-116290960D01*
X122469449Y-116290960D02*
X122621830Y-116290960D01*
X122621830Y-116290960D02*
X122702782Y-116252865D01*
X122702782Y-116252865D02*
X122750401Y-116176674D01*
X122750401Y-116176674D02*
X122755163Y-116138579D01*
X122755163Y-116138579D02*
X122726592Y-116062388D01*
X122726592Y-116062388D02*
X122655163Y-116024293D01*
X122655163Y-116024293D02*
X122540878Y-116024293D01*
X122540878Y-116024293D02*
X122469449Y-115986198D01*
X122469449Y-115986198D02*
X122440878Y-115910007D01*
X122440878Y-115910007D02*
X122445640Y-115871912D01*
X122445640Y-115871912D02*
X122493259Y-115795722D01*
X122493259Y-115795722D02*
X122574211Y-115757626D01*
X122574211Y-115757626D02*
X122688497Y-115757626D01*
X122688497Y-115757626D02*
X122759925Y-115795722D01*
X123802783Y-116290960D02*
X123731354Y-116252865D01*
X123731354Y-116252865D02*
X123698021Y-116214769D01*
X123698021Y-116214769D02*
X123669449Y-116138579D01*
X123669449Y-116138579D02*
X123698021Y-115910007D01*
X123698021Y-115910007D02*
X123745640Y-115833817D01*
X123745640Y-115833817D02*
X123788497Y-115795722D01*
X123788497Y-115795722D02*
X123869449Y-115757626D01*
X123869449Y-115757626D02*
X123983735Y-115757626D01*
X123983735Y-115757626D02*
X124055163Y-115795722D01*
X124055163Y-115795722D02*
X124088497Y-115833817D01*
X124088497Y-115833817D02*
X124117068Y-115910007D01*
X124117068Y-115910007D02*
X124088497Y-116138579D01*
X124088497Y-116138579D02*
X124040878Y-116214769D01*
X124040878Y-116214769D02*
X123998021Y-116252865D01*
X123998021Y-116252865D02*
X123917068Y-116290960D01*
X123917068Y-116290960D02*
X123802783Y-116290960D01*
X124364688Y-115757626D02*
X124669450Y-115757626D01*
X124412307Y-116290960D02*
X124498021Y-115605245D01*
X124498021Y-115605245D02*
X124545640Y-115529055D01*
X124545640Y-115529055D02*
X124626593Y-115490960D01*
X124626593Y-115490960D02*
X124702783Y-115490960D01*
X125445640Y-116252865D02*
X125517069Y-116290960D01*
X125517069Y-116290960D02*
X125669450Y-116290960D01*
X125669450Y-116290960D02*
X125750402Y-116252865D01*
X125750402Y-116252865D02*
X125798021Y-116176674D01*
X125798021Y-116176674D02*
X125802783Y-116138579D01*
X125802783Y-116138579D02*
X125774212Y-116062388D01*
X125774212Y-116062388D02*
X125702783Y-116024293D01*
X125702783Y-116024293D02*
X125588498Y-116024293D01*
X125588498Y-116024293D02*
X125517069Y-115986198D01*
X125517069Y-115986198D02*
X125488498Y-115910007D01*
X125488498Y-115910007D02*
X125493260Y-115871912D01*
X125493260Y-115871912D02*
X125540879Y-115795722D01*
X125540879Y-115795722D02*
X125621831Y-115757626D01*
X125621831Y-115757626D02*
X125736117Y-115757626D01*
X125736117Y-115757626D02*
X125807545Y-115795722D01*
X126536117Y-115757626D02*
X126469450Y-116290960D01*
X126193259Y-115757626D02*
X126140879Y-116176674D01*
X126140879Y-116176674D02*
X126169450Y-116252865D01*
X126169450Y-116252865D02*
X126240879Y-116290960D01*
X126240879Y-116290960D02*
X126355164Y-116290960D01*
X126355164Y-116290960D02*
X126436117Y-116252865D01*
X126436117Y-116252865D02*
X126478974Y-116214769D01*
X127198022Y-116252865D02*
X127117069Y-116290960D01*
X127117069Y-116290960D02*
X126964689Y-116290960D01*
X126964689Y-116290960D02*
X126893260Y-116252865D01*
X126893260Y-116252865D02*
X126859927Y-116214769D01*
X126859927Y-116214769D02*
X126831355Y-116138579D01*
X126831355Y-116138579D02*
X126859927Y-115910007D01*
X126859927Y-115910007D02*
X126907546Y-115833817D01*
X126907546Y-115833817D02*
X126950403Y-115795722D01*
X126950403Y-115795722D02*
X127031355Y-115757626D01*
X127031355Y-115757626D02*
X127183736Y-115757626D01*
X127183736Y-115757626D02*
X127255165Y-115795722D01*
X127536117Y-116290960D02*
X127636117Y-115490960D01*
X127878974Y-116290960D02*
X127931355Y-115871912D01*
X127931355Y-115871912D02*
X127902783Y-115795722D01*
X127902783Y-115795722D02*
X127831355Y-115757626D01*
X127831355Y-115757626D02*
X127717069Y-115757626D01*
X127717069Y-115757626D02*
X127636117Y-115795722D01*
X127636117Y-115795722D02*
X127593260Y-115833817D01*
X129217070Y-116252865D02*
X129136117Y-116290960D01*
X129136117Y-116290960D02*
X128983737Y-116290960D01*
X128983737Y-116290960D02*
X128912308Y-116252865D01*
X128912308Y-116252865D02*
X128878975Y-116214769D01*
X128878975Y-116214769D02*
X128850403Y-116138579D01*
X128850403Y-116138579D02*
X128878975Y-115910007D01*
X128878975Y-115910007D02*
X128926594Y-115833817D01*
X128926594Y-115833817D02*
X128969451Y-115795722D01*
X128969451Y-115795722D02*
X129050403Y-115757626D01*
X129050403Y-115757626D02*
X129202784Y-115757626D01*
X129202784Y-115757626D02*
X129274213Y-115795722D01*
X129555165Y-116290960D02*
X129621831Y-115757626D01*
X129655165Y-115490960D02*
X129612308Y-115529055D01*
X129612308Y-115529055D02*
X129645641Y-115567150D01*
X129645641Y-115567150D02*
X129688498Y-115529055D01*
X129688498Y-115529055D02*
X129655165Y-115490960D01*
X129655165Y-115490960D02*
X129645641Y-115567150D01*
X129936117Y-116290960D02*
X130002783Y-115757626D01*
X129983736Y-115910007D02*
X130031355Y-115833817D01*
X130031355Y-115833817D02*
X130074212Y-115795722D01*
X130074212Y-115795722D02*
X130155164Y-115757626D01*
X130155164Y-115757626D02*
X130231355Y-115757626D01*
X130778974Y-116252865D02*
X130698021Y-116290960D01*
X130698021Y-116290960D02*
X130545641Y-116290960D01*
X130545641Y-116290960D02*
X130474212Y-116252865D01*
X130474212Y-116252865D02*
X130440879Y-116214769D01*
X130440879Y-116214769D02*
X130412307Y-116138579D01*
X130412307Y-116138579D02*
X130440879Y-115910007D01*
X130440879Y-115910007D02*
X130488498Y-115833817D01*
X130488498Y-115833817D02*
X130531355Y-115795722D01*
X130531355Y-115795722D02*
X130612307Y-115757626D01*
X130612307Y-115757626D02*
X130764688Y-115757626D01*
X130764688Y-115757626D02*
X130836117Y-115795722D01*
X131526593Y-115757626D02*
X131459926Y-116290960D01*
X131183735Y-115757626D02*
X131131355Y-116176674D01*
X131131355Y-116176674D02*
X131159926Y-116252865D01*
X131159926Y-116252865D02*
X131231355Y-116290960D01*
X131231355Y-116290960D02*
X131345640Y-116290960D01*
X131345640Y-116290960D02*
X131426593Y-116252865D01*
X131426593Y-116252865D02*
X131469450Y-116214769D01*
X131840879Y-116290960D02*
X131907545Y-115757626D01*
X131940879Y-115490960D02*
X131898022Y-115529055D01*
X131898022Y-115529055D02*
X131931355Y-115567150D01*
X131931355Y-115567150D02*
X131974212Y-115529055D01*
X131974212Y-115529055D02*
X131940879Y-115490960D01*
X131940879Y-115490960D02*
X131931355Y-115567150D01*
X132174212Y-115757626D02*
X132478974Y-115757626D01*
X132321831Y-115490960D02*
X132236117Y-116176674D01*
X132236117Y-116176674D02*
X132264688Y-116252865D01*
X132264688Y-116252865D02*
X132336117Y-116290960D01*
X132336117Y-116290960D02*
X132412307Y-116290960D01*
X132645640Y-116252865D02*
X132717069Y-116290960D01*
X132717069Y-116290960D02*
X132869450Y-116290960D01*
X132869450Y-116290960D02*
X132950402Y-116252865D01*
X132950402Y-116252865D02*
X132998021Y-116176674D01*
X132998021Y-116176674D02*
X133002783Y-116138579D01*
X133002783Y-116138579D02*
X132974212Y-116062388D01*
X132974212Y-116062388D02*
X132902783Y-116024293D01*
X132902783Y-116024293D02*
X132788498Y-116024293D01*
X132788498Y-116024293D02*
X132717069Y-115986198D01*
X132717069Y-115986198D02*
X132688498Y-115910007D01*
X132688498Y-115910007D02*
X132693260Y-115871912D01*
X132693260Y-115871912D02*
X132740879Y-115795722D01*
X132740879Y-115795722D02*
X132821831Y-115757626D01*
X132821831Y-115757626D02*
X132936117Y-115757626D01*
X132936117Y-115757626D02*
X133007545Y-115795722D01*
X133336117Y-116214769D02*
X133369450Y-116252865D01*
X133369450Y-116252865D02*
X133326593Y-116290960D01*
X133326593Y-116290960D02*
X133293259Y-116252865D01*
X133293259Y-116252865D02*
X133336117Y-116214769D01*
X133336117Y-116214769D02*
X133326593Y-116290960D01*
X151383951Y-109484866D02*
X150622047Y-109484866D01*
X151002999Y-109865819D02*
X151002999Y-109103914D01*
X84929788Y-121269525D02*
X85732386Y-121163861D01*
X85732386Y-121163861D02*
X85820594Y-121104219D01*
X85820594Y-121104219D02*
X85861590Y-121050791D01*
X85861590Y-121050791D02*
X85896371Y-120950153D01*
X85896371Y-120950153D02*
X85871509Y-120761306D01*
X85871509Y-120761306D02*
X85811866Y-120673098D01*
X85811866Y-120673098D02*
X85758439Y-120632102D01*
X85758439Y-120632102D02*
X85657800Y-120597321D01*
X85657800Y-120597321D02*
X84855202Y-120702986D01*
X85716120Y-119581015D02*
X85790707Y-120147554D01*
X85753414Y-119864284D02*
X84761969Y-119994811D01*
X84761969Y-119994811D02*
X84916035Y-120070587D01*
X84916035Y-120070587D02*
X85022889Y-120152580D01*
X85022889Y-120152580D02*
X85082532Y-120240787D01*
X154914209Y-107904014D02*
X155628494Y-107904014D01*
X155628494Y-107904014D02*
X155771351Y-107951633D01*
X155771351Y-107951633D02*
X155866590Y-108046871D01*
X155866590Y-108046871D02*
X155914209Y-108189728D01*
X155914209Y-108189728D02*
X155914209Y-108284966D01*
X155914209Y-106904014D02*
X155914209Y-107475442D01*
X155914209Y-107189728D02*
X154914209Y-107189728D01*
X154914209Y-107189728D02*
X155057066Y-107284966D01*
X155057066Y-107284966D02*
X155152304Y-107380204D01*
X155152304Y-107380204D02*
X155199923Y-107475442D01*
D11*
X165853990Y-78598281D02*
X159853990Y-78598281D01*
X159853990Y-80998281D01*
X165853990Y-80998281D01*
X165853990Y-78598281D01*
X160412390Y-80998281D02*
X159853990Y-80998281D01*
X159853990Y-78598281D01*
X160412390Y-78598281D01*
X160412390Y-80998281D01*
G36*
X160412390Y-80998281D02*
G01*
X159853990Y-80998281D01*
X159853990Y-78598281D01*
X160412390Y-78598281D01*
X160412390Y-80998281D01*
G37*
X129854190Y-71508281D02*
X123854190Y-71508281D01*
X123854190Y-73908281D01*
X129854190Y-73908281D01*
X129854190Y-71508281D01*
X124412590Y-73908281D02*
X123854190Y-73908281D01*
X123854190Y-71508281D01*
X124412590Y-71508281D01*
X124412590Y-73908281D01*
G36*
X124412590Y-73908281D02*
G01*
X123854190Y-73908281D01*
X123854190Y-71508281D01*
X124412590Y-71508281D01*
X124412590Y-73908281D01*
G37*
X93856990Y-77465481D02*
X87856990Y-77465481D01*
X87856990Y-79865481D01*
X93856990Y-79865481D01*
X93856990Y-77465481D01*
X88415390Y-79865481D02*
X87856990Y-79865481D01*
X87856990Y-77465481D01*
X88415390Y-77465481D01*
X88415390Y-79865481D01*
G36*
X88415390Y-79865481D02*
G01*
X87856990Y-79865481D01*
X87856990Y-77465481D01*
X88415390Y-77465481D01*
X88415390Y-79865481D01*
G37*
X111854190Y-91308281D02*
X105854190Y-91308281D01*
X105854190Y-93708281D01*
X111854190Y-93708281D01*
X111854190Y-91308281D01*
X106412590Y-93708281D02*
X105854190Y-93708281D01*
X105854190Y-91308281D01*
X106412590Y-91308281D01*
X106412590Y-93708281D01*
G36*
X106412590Y-93708281D02*
G01*
X105854190Y-93708281D01*
X105854190Y-91308281D01*
X106412590Y-91308281D01*
X106412590Y-93708281D01*
G37*
X111854190Y-74308281D02*
X105854190Y-74308281D01*
X105854190Y-76708281D01*
X111854190Y-76708281D01*
X111854190Y-74308281D01*
X106412590Y-76708281D02*
X105854190Y-76708281D01*
X105854190Y-74308281D01*
X106412590Y-74308281D01*
X106412590Y-76708281D01*
G36*
X106412590Y-76708281D02*
G01*
X105854190Y-76708281D01*
X105854190Y-74308281D01*
X106412590Y-74308281D01*
X106412590Y-76708281D01*
G37*
D12*
X143283242Y-128031364D02*
X143180126Y-128814606D01*
X143643160Y-129894281D02*
X149294398Y-130638280D01*
X144912378Y-131362508D02*
X145083256Y-131596818D01*
X145080757Y-130083544D02*
X144912378Y-131362508D01*
X145083256Y-131596818D02*
X145975557Y-131714290D01*
X145254468Y-127231821D02*
X146939924Y-127453715D01*
X146201256Y-131532192D02*
X145975557Y-131714290D01*
X146201256Y-131532192D02*
X146369635Y-130253228D01*
X148228802Y-127623400D02*
X148427092Y-127649505D01*
X150021095Y-129715236D02*
X150124211Y-128931995D01*
D11*
X147853990Y-74308281D02*
X141853990Y-74308281D01*
X141853990Y-76708281D01*
X147853990Y-76708281D01*
X147853990Y-74308281D01*
X142412390Y-76708281D02*
X141853990Y-76708281D01*
X141853990Y-74308281D01*
X142412390Y-74308281D01*
X142412390Y-76708281D01*
G36*
X142412390Y-76708281D02*
G01*
X141853990Y-76708281D01*
X141853990Y-74308281D01*
X142412390Y-74308281D01*
X142412390Y-76708281D01*
G37*
X165853990Y-61598281D02*
X159853990Y-61598281D01*
X159853990Y-63998281D01*
X165853990Y-63998281D01*
X165853990Y-61598281D01*
X160412390Y-63998281D02*
X159853990Y-63998281D01*
X159853990Y-61598281D01*
X160412390Y-61598281D01*
X160412390Y-63998281D01*
G36*
X160412390Y-63998281D02*
G01*
X159853990Y-63998281D01*
X159853990Y-61598281D01*
X160412390Y-61598281D01*
X160412390Y-63998281D01*
G37*
X152097589Y-116736735D02*
X151784326Y-119116203D01*
X145835657Y-118333045D01*
X146148920Y-115953578D01*
X152097589Y-116736735D01*
X152097589Y-116736735D02*
X151784326Y-119116203D01*
X151230703Y-119043317D01*
X151543966Y-116663849D01*
X152097589Y-116736735D01*
G36*
X152097589Y-116736735D02*
G01*
X151784326Y-119116203D01*
X151230703Y-119043317D01*
X151543966Y-116663849D01*
X152097589Y-116736735D01*
G37*
X165620709Y-119410282D02*
X164999543Y-121728505D01*
X164460171Y-121583979D01*
X165081336Y-119265757D01*
X165620709Y-119410282D01*
G36*
X165620709Y-119410282D02*
G01*
X164999543Y-121728505D01*
X164460171Y-121583979D01*
X165081336Y-119265757D01*
X165620709Y-119410282D01*
G37*
X170876891Y-120818671D02*
X170255724Y-123136893D01*
X164460171Y-121583979D01*
X165081336Y-119265757D01*
X170876891Y-120818671D01*
X93856990Y-94432681D02*
X87856990Y-94432681D01*
X87856990Y-96832681D01*
X93856990Y-96832681D01*
X93856990Y-94432681D01*
X88415390Y-96832681D02*
X87856990Y-96832681D01*
X87856990Y-94432681D01*
X88415390Y-94432681D01*
X88415390Y-96832681D01*
G36*
X88415390Y-96832681D02*
G01*
X87856990Y-96832681D01*
X87856990Y-94432681D01*
X88415390Y-94432681D01*
X88415390Y-96832681D01*
G37*
D10*
X83965278Y-111651230D02*
X84089278Y-112593102D01*
X83965278Y-111651230D02*
X84956723Y-111520703D01*
X86288644Y-129298948D02*
X86158118Y-128307503D01*
X86288644Y-129298948D02*
X87280089Y-129168422D01*
X103683332Y-109055299D02*
X104674777Y-108924772D01*
X104674777Y-108924772D02*
X104806608Y-109926132D01*
X105957126Y-126709543D02*
X106998143Y-126572491D01*
X106998143Y-126572491D02*
X106867617Y-125581046D01*
D11*
X111854190Y-57309081D02*
X105854190Y-57309081D01*
X105854190Y-59709081D01*
X111854190Y-59709081D01*
X111854190Y-57309081D01*
X106412590Y-59709081D02*
X105854190Y-59709081D01*
X105854190Y-57309081D01*
X106412590Y-57309081D01*
X106412590Y-59709081D01*
G36*
X106412590Y-59709081D02*
G01*
X105854190Y-59709081D01*
X105854190Y-57309081D01*
X106412590Y-57309081D01*
X106412590Y-59709081D01*
G37*
X129854190Y-88508281D02*
X123854190Y-88508281D01*
X123854190Y-90908281D01*
X129854190Y-90908281D01*
X129854190Y-88508281D01*
X124412590Y-90908281D02*
X123854190Y-90908281D01*
X123854190Y-88508281D01*
X124412590Y-88508281D01*
X124412590Y-90908281D01*
G36*
X124412590Y-90908281D02*
G01*
X123854190Y-90908281D01*
X123854190Y-88508281D01*
X124412590Y-88508281D01*
X124412590Y-90908281D01*
G37*
X129854190Y-54509081D02*
X123854190Y-54509081D01*
X123854190Y-56909081D01*
X129854190Y-56909081D01*
X129854190Y-54509081D01*
X124412590Y-56909081D02*
X123854190Y-56909081D01*
X123854190Y-54509081D01*
X124412590Y-54509081D01*
X124412590Y-56909081D01*
G36*
X124412590Y-56909081D02*
G01*
X123854190Y-56909081D01*
X123854190Y-54509081D01*
X124412590Y-54509081D01*
X124412590Y-56909081D01*
G37*
D12*
X146749390Y-105005681D02*
X146749390Y-105755681D01*
X146749390Y-105755681D02*
X147749390Y-106155681D01*
X146749390Y-109385681D02*
X146749390Y-110135681D01*
X147749390Y-106155681D02*
X147749390Y-108985681D01*
X147749390Y-108985681D02*
X146749390Y-109385681D01*
X150369390Y-103635681D02*
X152869390Y-103635681D01*
X150369390Y-111505681D02*
X152869390Y-111505681D01*
X152869390Y-103635681D02*
X152869390Y-106285681D01*
X152869390Y-106285681D02*
X154259390Y-106285681D01*
X152869390Y-111505681D02*
X152869390Y-108855681D01*
D11*
X147853990Y-57308081D02*
X141853990Y-57308081D01*
X141853990Y-59708081D01*
X147853990Y-59708081D01*
X147853990Y-57308081D01*
X142412390Y-59708081D02*
X141853990Y-59708081D01*
X141853990Y-57308081D01*
X142412390Y-57308081D01*
X142412390Y-59708081D01*
G36*
X142412390Y-59708081D02*
G01*
X141853990Y-59708081D01*
X141853990Y-57308081D01*
X142412390Y-57308081D01*
X142412390Y-59708081D01*
G37*
X147853990Y-91308281D02*
X141853990Y-91308281D01*
X141853990Y-93708281D01*
X147853990Y-93708281D01*
X147853990Y-91308281D01*
X142412390Y-93708281D02*
X141853990Y-93708281D01*
X141853990Y-91308281D01*
X142412390Y-91308281D01*
X142412390Y-93708281D01*
G36*
X142412390Y-93708281D02*
G01*
X141853990Y-93708281D01*
X141853990Y-91308281D01*
X142412390Y-91308281D01*
X142412390Y-93708281D01*
G37*
X165853990Y-95542281D02*
X159853990Y-95542281D01*
X159853990Y-97942281D01*
X165853990Y-97942281D01*
X165853990Y-95542281D01*
X160412390Y-97942281D02*
X159853990Y-97942281D01*
X159853990Y-95542281D01*
X160412390Y-95542281D01*
X160412390Y-97942281D01*
G36*
X160412390Y-97942281D02*
G01*
X159853990Y-97942281D01*
X159853990Y-95542281D01*
X160412390Y-95542281D01*
X160412390Y-97942281D01*
G37*
X93856990Y-60309081D02*
X87856990Y-60309081D01*
X87856990Y-62709081D01*
X93856990Y-62709081D01*
X93856990Y-60309081D01*
X88415390Y-62709081D02*
X87856990Y-62709081D01*
X87856990Y-60309081D01*
X88415390Y-60309081D01*
X88415390Y-62709081D01*
G36*
X88415390Y-62709081D02*
G01*
X87856990Y-62709081D01*
X87856990Y-60309081D01*
X88415390Y-60309081D01*
X88415390Y-62709081D01*
G37*
%LPC*%
D13*
X87756130Y-115406955D02*
X86748822Y-115539569D01*
X86616207Y-114532261D01*
X87623515Y-114399647D01*
X87756130Y-115406955D01*
G36*
X87756130Y-115406955D02*
G01*
X86748822Y-115539569D01*
X86616207Y-114532261D01*
X87623515Y-114399647D01*
X87756130Y-115406955D01*
G37*
X89110887Y-125697359D02*
X88103579Y-125829974D01*
X87970965Y-124822666D01*
X88978273Y-124690051D01*
X89110887Y-125697359D01*
G36*
X89110887Y-125697359D02*
G01*
X88103579Y-125829974D01*
X87970965Y-124822666D01*
X88978273Y-124690051D01*
X89110887Y-125697359D01*
G37*
X90274400Y-115075418D02*
X89267092Y-115208033D01*
X89134477Y-114200725D01*
X90141785Y-114068110D01*
X90274400Y-115075418D01*
G36*
X90274400Y-115075418D02*
G01*
X89267092Y-115208033D01*
X89134477Y-114200725D01*
X90141785Y-114068110D01*
X90274400Y-115075418D01*
G37*
X91629157Y-125365823D02*
X90621849Y-125498437D01*
X90489235Y-124491129D01*
X91496543Y-124358515D01*
X91629157Y-125365823D01*
G36*
X91629157Y-125365823D02*
G01*
X90621849Y-125498437D01*
X90489235Y-124491129D01*
X91496543Y-124358515D01*
X91629157Y-125365823D01*
G37*
X92792670Y-114743882D02*
X91785362Y-114876496D01*
X91652747Y-113869188D01*
X92660055Y-113736574D01*
X92792670Y-114743882D01*
G36*
X92792670Y-114743882D02*
G01*
X91785362Y-114876496D01*
X91652747Y-113869188D01*
X92660055Y-113736574D01*
X92792670Y-114743882D01*
G37*
X94147427Y-125034286D02*
X93140119Y-125166901D01*
X93007505Y-124159593D01*
X94014813Y-124026978D01*
X94147427Y-125034286D01*
G36*
X94147427Y-125034286D02*
G01*
X93140119Y-125166901D01*
X93007505Y-124159593D01*
X94014813Y-124026978D01*
X94147427Y-125034286D01*
G37*
X95310940Y-114412345D02*
X94303632Y-114544960D01*
X94171017Y-113537652D01*
X95178325Y-113405037D01*
X95310940Y-114412345D01*
G36*
X95310940Y-114412345D02*
G01*
X94303632Y-114544960D01*
X94171017Y-113537652D01*
X95178325Y-113405037D01*
X95310940Y-114412345D01*
G37*
X96665697Y-124702750D02*
X95658389Y-124835364D01*
X95525775Y-123828056D01*
X96533083Y-123695442D01*
X96665697Y-124702750D01*
G36*
X96665697Y-124702750D02*
G01*
X95658389Y-124835364D01*
X95525775Y-123828056D01*
X96533083Y-123695442D01*
X96665697Y-124702750D01*
G37*
X97829210Y-114080809D02*
X96821902Y-114213423D01*
X96689287Y-113206115D01*
X97696595Y-113073501D01*
X97829210Y-114080809D01*
G36*
X97829210Y-114080809D02*
G01*
X96821902Y-114213423D01*
X96689287Y-113206115D01*
X97696595Y-113073501D01*
X97829210Y-114080809D01*
G37*
X99183967Y-124371213D02*
X98176659Y-124503828D01*
X98044045Y-123496520D01*
X99051353Y-123363905D01*
X99183967Y-124371213D01*
G36*
X99183967Y-124371213D02*
G01*
X98176659Y-124503828D01*
X98044045Y-123496520D01*
X99051353Y-123363905D01*
X99183967Y-124371213D01*
G37*
X100347480Y-113749272D02*
X99340172Y-113881887D01*
X99207557Y-112874579D01*
X100214865Y-112741964D01*
X100347480Y-113749272D01*
G36*
X100347480Y-113749272D02*
G01*
X99340172Y-113881887D01*
X99207557Y-112874579D01*
X100214865Y-112741964D01*
X100347480Y-113749272D01*
G37*
X101702237Y-124039677D02*
X100694929Y-124172291D01*
X100562315Y-123164983D01*
X101569621Y-123032369D01*
X101702237Y-124039677D01*
G36*
X101702237Y-124039677D02*
G01*
X100694929Y-124172291D01*
X100562315Y-123164983D01*
X101569621Y-123032369D01*
X101702237Y-124039677D01*
G37*
X102865750Y-113417736D02*
X101858442Y-113550350D01*
X101725827Y-112543042D01*
X102733135Y-112410428D01*
X102865750Y-113417736D01*
G36*
X102865750Y-113417736D02*
G01*
X101858442Y-113550350D01*
X101725827Y-112543042D01*
X102733135Y-112410428D01*
X102865750Y-113417736D01*
G37*
X104220507Y-123708140D02*
X103213199Y-123840755D01*
X103080584Y-122833447D01*
X104087892Y-122700832D01*
X104220507Y-123708140D01*
G36*
X104220507Y-123708140D02*
G01*
X103213199Y-123840755D01*
X103080584Y-122833447D01*
X104087892Y-122700832D01*
X104220507Y-123708140D01*
G37*
D14*
X161353990Y-79798281D03*
X164753990Y-79798281D03*
D15*
X101996339Y-101208630D03*
X101996390Y-89208630D03*
D16*
X102546390Y-92458681D03*
D17*
X102546390Y-97958681D03*
D16*
X114146390Y-92458681D03*
D17*
X114146390Y-97958681D03*
D15*
X114696339Y-101208630D03*
X114696390Y-89208630D03*
D18*
X105846390Y-97858681D03*
X110846390Y-97858681D03*
D14*
X125354190Y-72708281D03*
X128754190Y-72708281D03*
D19*
X100822190Y-105995881D03*
D14*
X89356990Y-78665481D03*
X92756990Y-78665481D03*
D15*
X119996139Y-81408630D03*
X119996190Y-69408630D03*
D16*
X120546190Y-72658681D03*
D17*
X120546190Y-78158681D03*
D16*
X132146190Y-72658681D03*
D17*
X132146190Y-78158681D03*
D15*
X132696139Y-81408630D03*
X132696190Y-69408630D03*
D18*
X123846190Y-78058681D03*
X128846190Y-78058681D03*
D15*
X101996339Y-84208630D03*
X101996390Y-72208630D03*
D16*
X102546390Y-75458681D03*
D17*
X102546390Y-80958681D03*
D16*
X114146390Y-75458681D03*
D17*
X114146390Y-80958681D03*
D15*
X114696339Y-84208630D03*
X114696390Y-72208630D03*
D18*
X105846390Y-80858681D03*
X110846390Y-80858681D03*
D15*
X119996139Y-98408630D03*
X119996190Y-86408630D03*
D16*
X120546190Y-89658681D03*
D17*
X120546190Y-95158681D03*
D16*
X132146190Y-89658681D03*
D17*
X132146190Y-95158681D03*
D15*
X132696139Y-98408630D03*
X132696190Y-86408630D03*
D18*
X123846190Y-95058681D03*
X128846190Y-95058681D03*
D14*
X107354190Y-92508281D03*
X110754190Y-92508281D03*
X107354190Y-75508281D03*
X110754190Y-75508281D03*
D20*
X142889163Y-129492426D03*
X143177627Y-127301333D03*
D21*
X145164349Y-128682469D03*
X148138683Y-129074047D03*
D20*
X150415174Y-128254174D03*
X150126711Y-130445267D03*
D22*
X144650491Y-126839631D03*
X147624826Y-127231209D03*
X149111993Y-127426999D03*
D15*
X101996339Y-67208630D03*
X101996390Y-55208630D03*
D16*
X102546390Y-58458681D03*
D17*
X102546390Y-63958681D03*
D16*
X114146390Y-58458681D03*
D17*
X114146390Y-63958681D03*
D15*
X114696339Y-67208630D03*
X114696390Y-55208630D03*
D18*
X105846390Y-63858681D03*
X110846390Y-63858681D03*
D14*
X143353990Y-75508281D03*
X146753990Y-75508281D03*
D15*
X83996539Y-104208430D03*
X83996590Y-92208430D03*
D16*
X84546590Y-95458481D03*
D17*
X84546590Y-100958481D03*
D16*
X96146590Y-95458481D03*
D17*
X96146590Y-100958481D03*
D15*
X96696539Y-104208430D03*
X96696590Y-92208430D03*
D18*
X87846590Y-100858481D03*
X92846590Y-100858481D03*
D15*
X137995939Y-67208430D03*
X137995990Y-55208430D03*
D16*
X138545990Y-58458481D03*
D17*
X138545990Y-63958481D03*
D16*
X150145990Y-58458481D03*
D17*
X150145990Y-63958481D03*
D15*
X150695939Y-67208430D03*
X150695990Y-55208430D03*
D18*
X141845990Y-63858481D03*
X146845990Y-63858481D03*
D14*
X161353990Y-62798281D03*
X164753990Y-62798281D03*
D19*
X158937390Y-113057081D03*
D23*
X150453790Y-117730681D03*
X147082878Y-117286889D03*
D15*
X119996139Y-64408630D03*
X119996190Y-52408630D03*
D16*
X120546190Y-55658681D03*
D17*
X120546190Y-61158681D03*
D16*
X132146190Y-55658681D03*
D17*
X132146190Y-61158681D03*
D15*
X132696139Y-64408630D03*
X132696190Y-52408630D03*
D18*
X123846190Y-61058681D03*
X128846190Y-61058681D03*
D24*
X166219642Y-120813097D03*
X169503790Y-121693081D03*
D14*
X89356990Y-95632681D03*
X92756990Y-95632681D03*
D15*
X137995939Y-101208630D03*
X137995990Y-89208630D03*
D16*
X138545990Y-92458681D03*
D17*
X138545990Y-97958681D03*
D16*
X150145990Y-92458681D03*
D17*
X150145990Y-97958681D03*
D15*
X150695939Y-101208630D03*
X150695990Y-89208630D03*
D18*
X141845990Y-97858681D03*
X146845990Y-97858681D03*
D15*
X137995939Y-84208630D03*
X137995990Y-72208630D03*
D16*
X138545990Y-75458681D03*
D17*
X138545990Y-80958681D03*
D16*
X150145990Y-75458681D03*
D17*
X150145990Y-80958681D03*
D15*
X150695939Y-84208630D03*
X150695990Y-72208630D03*
D18*
X141845990Y-80858681D03*
X146845990Y-80858681D03*
D25*
X88850169Y-127608944D03*
X91368439Y-127277407D03*
X93886709Y-126945871D03*
X96404979Y-126614334D03*
X98923249Y-126282798D03*
X101441518Y-125951261D03*
X103959788Y-125619725D03*
D26*
X98647160Y-124185697D03*
X88574080Y-125511840D03*
X91092350Y-125180303D03*
X93610620Y-124848767D03*
X96128890Y-124517230D03*
X101165429Y-123854157D03*
X103683699Y-123522617D03*
D27*
X99744365Y-113060099D03*
X87153015Y-114717781D03*
X89671285Y-114386245D03*
X92189555Y-114054708D03*
X94707825Y-113723172D03*
X97226095Y-113391635D03*
X102262635Y-112728562D03*
D25*
X96951964Y-111309404D03*
X86878884Y-112635549D03*
X89397154Y-112304012D03*
X91915424Y-111972476D03*
X94433694Y-111640939D03*
X99470234Y-110977866D03*
X101988507Y-110646329D03*
D28*
X87285630Y-115725089D03*
X89803900Y-115393553D03*
X92322169Y-115062016D03*
X94840439Y-114730480D03*
X97358709Y-114398943D03*
X99876979Y-114067405D03*
X102395249Y-113735870D03*
D29*
X103551085Y-122515312D03*
X101032815Y-122846849D03*
X98514545Y-123178386D03*
X95996275Y-123509922D03*
X93478005Y-123841459D03*
X90959735Y-124172995D03*
X88441465Y-124504532D03*
D19*
X97332800Y-53543200D03*
D14*
X107354190Y-58509081D03*
X110754190Y-58509081D03*
D15*
X83996539Y-87208430D03*
X83996590Y-75208430D03*
D16*
X84546590Y-78458481D03*
D17*
X84546590Y-83958481D03*
D16*
X96146590Y-78458481D03*
D17*
X96146590Y-83958481D03*
D15*
X96696539Y-87208430D03*
X96696590Y-75208430D03*
D18*
X87846590Y-83858481D03*
X92846590Y-83858481D03*
D14*
X125354190Y-89708281D03*
X128754190Y-89708281D03*
D15*
X83996539Y-70208630D03*
X83996590Y-58208630D03*
D16*
X84546590Y-61458681D03*
D17*
X84546590Y-66958681D03*
D16*
X96146590Y-61458681D03*
D17*
X96146590Y-66958681D03*
D15*
X96696539Y-70208630D03*
X96696590Y-58208630D03*
D18*
X87846590Y-66858681D03*
X92846590Y-66858681D03*
D14*
X125354190Y-55709081D03*
X128754190Y-55709081D03*
D30*
X153309390Y-106945681D03*
X153309390Y-108195681D03*
D31*
X148434390Y-104095681D03*
X148434390Y-111045681D03*
D15*
X155995739Y-105498230D03*
X155995790Y-93498230D03*
D16*
X156545790Y-96748281D03*
D17*
X156545790Y-102248281D03*
D16*
X168145790Y-96748281D03*
D17*
X168145790Y-102248281D03*
D15*
X168695739Y-105498230D03*
X168695790Y-93498230D03*
D18*
X159845790Y-102148281D03*
X164845790Y-102148281D03*
D19*
X154894000Y-53848000D03*
D32*
X158882395Y-127877059D03*
X161988272Y-116285962D03*
D17*
X160254852Y-124880213D03*
D16*
X161678358Y-119567621D03*
D17*
X171459590Y-127882513D03*
D16*
X172883096Y-122569921D03*
D32*
X171149653Y-131164059D03*
X174255530Y-119572964D03*
D33*
X163468289Y-125637723D03*
X168297918Y-126931818D03*
D19*
X133604000Y-119888000D03*
D34*
X140714857Y-125185068D03*
X142281222Y-113287736D03*
D16*
X142402300Y-116581772D03*
D17*
X141684406Y-122034718D03*
D16*
X153903060Y-118095876D03*
D17*
X153185166Y-123548822D03*
D34*
X153306207Y-126842750D03*
X154872572Y-114945419D03*
D35*
X144969226Y-122366310D03*
X149926451Y-123018941D03*
D14*
X143353990Y-58508081D03*
X146753990Y-58508081D03*
X143353990Y-92508281D03*
X146753990Y-92508281D03*
D19*
X111363786Y-122815980D03*
D14*
X161353990Y-96742281D03*
X164753990Y-96742281D03*
X89356990Y-61509081D03*
X92756990Y-61509081D03*
D15*
X155995739Y-71498230D03*
X155995790Y-59498230D03*
D16*
X156545790Y-62748281D03*
D17*
X156545790Y-68248281D03*
D16*
X168145790Y-62748281D03*
D17*
X168145790Y-68248281D03*
D15*
X168695739Y-71498230D03*
X168695790Y-59498230D03*
D18*
X159845790Y-68148281D03*
X164845790Y-68148281D03*
D15*
X155995739Y-88498230D03*
X155995790Y-76498230D03*
D16*
X156545790Y-79748281D03*
D17*
X156545790Y-85248281D03*
D16*
X168145790Y-79748281D03*
D17*
X168145790Y-85248281D03*
D15*
X168695739Y-88498230D03*
X168695790Y-76498230D03*
D18*
X159845790Y-85148281D03*
X164845790Y-85148281D03*
D21*
X148138683Y-129074047D03*
X145164349Y-128682469D03*
%LPD*%
M02*
