G04 #@! TF.GenerationSoftware,KiCad,Pcbnew,8.0.2-1*
G04 #@! TF.CreationDate,2024-07-14T12:39:06+08:00*
G04 #@! TF.ProjectId,Kretstr_d_v2_PG1316,4b726574-7374-472e-9464-5f76325f5047,rev?*
G04 #@! TF.SameCoordinates,Original*
G04 #@! TF.FileFunction,Legend,Bot*
G04 #@! TF.FilePolarity,Positive*
%FSLAX46Y46*%
G04 Gerber Fmt 4.6, Leading zero omitted, Abs format (unit mm)*
G04 Created by KiCad (PCBNEW 8.0.2-1) date 2024-07-14 12:39:06*
%MOMM*%
%LPD*%
G01*
G04 APERTURE LIST*
G04 Aperture macros list*
%AMRoundRect*
0 Rectangle with rounded corners*
0 $1 Rounding radius*
0 $2 $3 $4 $5 $6 $7 $8 $9 X,Y pos of 4 corners*
0 Add a 4 corners polygon primitive as box body*
4,1,4,$2,$3,$4,$5,$6,$7,$8,$9,$2,$3,0*
0 Add four circle primitives for the rounded corners*
1,1,$1+$1,$2,$3*
1,1,$1+$1,$4,$5*
1,1,$1+$1,$6,$7*
1,1,$1+$1,$8,$9*
0 Add four rect primitives between the rounded corners*
20,1,$1+$1,$2,$3,$4,$5,0*
20,1,$1+$1,$4,$5,$6,$7,0*
20,1,$1+$1,$6,$7,$8,$9,0*
20,1,$1+$1,$8,$9,$2,$3,0*%
%AMFreePoly0*
4,1,22,0.686777,0.580194,0.756366,0.524698,0.794986,0.444504,0.800000,0.400000,0.800000,0.200000,0.780194,0.113223,0.741421,0.058579,0.141421,-0.541421,0.066056,-0.588777,-0.022393,-0.598742,-0.106406,-0.569345,-0.141421,-0.541421,-0.741421,0.058579,-0.788777,0.133944,-0.800000,0.200000,-0.800000,0.400000,-0.780193,0.486777,-0.724698,0.556366,-0.644504,0.594986,-0.600000,0.600000,
0.600000,0.600000,0.686777,0.580194,0.686777,0.580194,$1*%
%AMFreePoly1*
4,1,26,0.706406,1.169345,0.769345,1.106406,0.798742,1.022393,0.800000,1.000000,0.800000,-0.250000,0.780194,-0.336777,0.724699,-0.406366,0.644505,-0.444986,0.600000,-0.450000,-0.600000,-0.450000,-0.686777,-0.430194,-0.756366,-0.374698,-0.794986,-0.294504,-0.800000,-0.250000,-0.800000,1.000000,-0.780194,1.086777,-0.724698,1.156366,-0.644504,1.194986,-0.555496,1.194986,-0.475302,1.156366,
-0.458579,1.141421,0.000000,0.682842,0.458579,1.141421,0.533944,1.188778,0.622393,1.198742,0.706406,1.169345,0.706406,1.169345,$1*%
%AMFreePoly2*
4,1,292,0.206777,1.229994,0.276366,1.174498,0.314986,1.094304,0.320000,1.049800,0.320000,0.008200,0.319495,0.005987,0.319495,-1.866709,0.319486,-1.942235,0.319486,-1.942460,0.318928,-2.390763,0.318926,-2.391335,0.317383,-2.767014,0.317377,-2.767939,0.314675,-3.077389,0.314657,-3.078876,0.310622,-3.328489,0.310568,-3.330901,0.305029,-3.527071,0.304875,-3.531095,0.297657,-3.680215,
0.297195,-3.687212,0.288125,-3.795676,0.286622,-3.808584,0.275528,-3.882784,0.269972,-3.908365,0.256680,-3.954695,0.246330,-3.982691,0.240139,-3.996234,0.229057,-4.017117,0.167561,-4.118087,0.157692,-4.132784,0.062026,-4.262462,0.054482,-4.272060,-0.057455,-4.405866,-0.061018,-4.410009,-0.070960,-4.421254,-0.171727,-4.547475,-0.239381,-4.651468,-0.261422,-4.702806,-0.268448,-4.790209,
-0.275185,-4.947662,-0.279770,-5.144579,-0.281450,-5.361536,-0.281447,-5.385011,-0.280528,-5.604860,-0.277007,-5.754079,-0.270393,-5.838887,-0.268290,-5.848462,-0.224488,-5.894056,-0.171049,-5.977321,-0.142171,-6.051967,-0.122143,-6.170287,-0.120852,-6.228231,-0.135594,-6.347346,-0.162124,-6.424914,-0.212996,-6.510565,-0.274338,-6.575059,-0.308050,-6.593056,-0.393200,-6.628524,-0.459529,-6.643620,
-0.582275,-6.650118,-0.631318,-6.646663,-0.750780,-6.623247,-0.819367,-6.595916,-0.898997,-6.545453,-0.952252,-6.496101,-0.953444,-6.494503,-0.980620,-6.444550,-1.025271,-6.324319,-1.037078,-6.237909,-1.034553,-6.207928,-1.095319,-6.245365,-1.119612,-6.251953,-1.263243,-6.281341,-1.334401,-6.282972,-1.441733,-6.266095,-1.524379,-6.233050,-1.535526,-6.224760,-1.625648,-6.152737,-1.674999,-6.094737,
-1.708800,-6.034795,-1.731134,-5.973572,-1.756230,-5.840310,-1.752826,-5.751366,-1.751357,-5.746183,-1.721747,-5.646814,-1.786435,-5.670245,-1.797570,-5.671308,-1.925994,-5.679949,-2.013905,-5.666013,-2.017213,-5.664651,-2.152853,-5.607383,-2.223422,-5.557256,-2.286363,-5.487634,-2.329864,-5.409980,-2.331418,-5.403739,-1.483158,-5.403739,-1.355185,-5.371470,-1.321520,-5.365981,-1.296753,-5.364088,
-1.271925,-5.355039,-1.217781,-5.314195,-1.113600,-5.210504,-0.992406,-5.073003,-0.922095,-4.967193,-0.891918,-4.883182,-0.881171,-4.765871,-0.875626,-4.680694,-0.868608,-4.639640,-0.821297,-4.471082,-0.802138,-4.425469,-0.700510,-4.248647,-0.682044,-4.221835,-0.562810,-4.075770,-0.603069,-4.078811,-0.691091,-4.065597,-0.695126,-4.063965,-0.829973,-4.007718,-0.882942,-3.970058,-0.884544,-4.105830,
-0.885000,-4.117175,-0.898888,-4.319380,-0.902711,-4.346893,-0.935986,-4.504891,-0.949035,-4.545136,-1.009063,-4.679733,-1.028893,-4.714405,-1.123042,-4.846409,-1.137428,-4.864308,-1.273065,-5.014526,-1.276513,-5.018249,-1.287869,-5.030202,-1.395729,-5.154077,-1.436036,-5.218316,-1.445698,-5.259360,-1.451178,-5.311568,-1.471682,-5.381092,-1.483158,-5.403739,-2.331418,-5.403739,-2.333940,-5.393612,
-2.360039,-5.266091,-2.360039,-5.185886,-2.330712,-5.042597,-2.293908,-4.961554,-2.277054,-4.942143,-2.201588,-4.865752,-2.261402,-4.879975,-2.348652,-4.881156,-2.489497,-4.851669,-2.570374,-4.814501,-2.590504,-4.796763,-2.603049,-4.784116,-2.016632,-4.784116,-1.947691,-4.769658,-1.921784,-4.765974,-1.897996,-4.764167,-1.873068,-4.755114,-1.818842,-4.714263,-1.712135,-4.608103,-1.710532,-4.606403,
-1.610735,-4.492471,-1.536348,-4.394539,-1.509620,-4.348678,-1.496774,-4.253933,-1.486629,-4.104764,-1.484943,-4.030087,-1.521728,-4.066661,-1.663872,-4.210425,-1.771561,-4.327147,-1.827485,-4.398952,-1.841739,-4.426218,-1.846868,-4.455718,-1.849044,-4.466476,-1.880833,-4.604089,-1.919662,-4.684181,-1.933210,-4.699418,-2.016632,-4.784116,-2.603049,-4.784116,-2.677271,-4.709294,-2.724322,-4.633739,
-2.731172,-4.608776,-2.760623,-4.465732,-2.760769,-4.385781,-2.732270,-4.244767,-2.695666,-4.163633,-2.680108,-4.145462,-2.594432,-4.056733,-2.519907,-4.008065,-2.492843,-4.000178,-2.352971,-3.969921,-2.326052,-3.966765,-2.302641,-3.962426,-2.276550,-3.949146,-2.210815,-3.898611,-2.101881,-3.798678,-1.944546,-3.643569,-1.907849,-3.606777,-1.998584,-3.608265,-2.086361,-3.615506,-2.113472,-3.640814,
-2.190420,-3.685551,-2.195993,-3.687200,-2.285285,-3.712217,-2.328694,-3.719355,-2.443408,-3.725413,-2.478949,-3.724123,-2.588384,-3.710339,-2.648428,-3.692928,-2.721883,-3.658421,-2.792004,-3.603597,-2.794591,-3.600348,-2.808469,-3.582542,-2.842246,-3.517205,-2.871896,-3.418636,-2.880342,-3.357508,-2.878149,-3.232815,-2.869435,-3.177839,-2.834704,-3.064278,-2.812088,-3.015249,-2.804020,-3.002595,
-2.744226,-2.942329,-2.663376,-2.889881,-2.579901,-2.859285,-2.464107,-2.844477,-2.401736,-2.846314,-2.281469,-2.868955,-2.211215,-2.896693,-2.116941,-2.956591,-2.095419,-2.974395,-2.075454,-2.989291,-2.056638,-2.994994,-2.046805,-2.995889,-2.070491,-2.960773,-2.070904,-2.959695,-2.108494,-2.860796,-2.121279,-2.800020,-2.127521,-2.678750,-2.122913,-2.624593,-2.097809,-2.512950,-2.059448,-2.432632,
-2.058380,-2.431296,-2.001929,-2.361278,-1.932045,-2.306154,-1.911531,-2.297769,-1.812031,-2.263398,-1.738834,-2.252593,-1.594647,-2.258290,-1.508720,-2.281507,-1.504448,-2.283843,-1.384933,-2.351109,-1.358738,-2.368710,-1.337152,-2.385832,-1.317487,-2.393167,-1.240752,-2.402224,-1.085472,-2.405350,-1.078233,-2.405170,-1.107077,-2.378573,-1.139850,-2.295818,-1.141775,-2.278081,-1.154236,-2.081951,
-1.154606,-2.072859,-1.156502,-1.967207,-1.150610,-1.915302,-1.126324,-1.817749,-1.086141,-1.738328,-1.046755,-1.702089,-0.979056,-1.654814,-0.896569,-1.621370,-0.885058,-1.619844,-0.761116,-1.607067,-0.757791,-1.606753,-0.746558,-1.605784,-0.717431,-1.594755,-0.653273,-1.547006,-0.535915,-1.433820,-0.518656,-1.415993,-0.412858,-1.301079,-0.333107,-1.206106,-0.309939,-1.172922,-0.306469,-1.159605,
-0.293711,-1.047354,-0.284312,-0.875422,-0.280824,-0.666619,-0.282712,0.034061,-0.280000,0.046092,-0.280000,1.049800,-0.260194,1.136577,-0.204698,1.206166,-0.124504,1.244786,-0.080000,1.249800,0.120000,1.249800,0.206777,1.229994,0.206777,1.229994,$1*%
%AMFreePoly3*
4,1,332,0.216903,1.226394,0.286492,1.170898,0.325112,1.090704,0.330126,1.046200,0.330126,0.053880,0.332333,0.034041,0.330446,-0.641485,0.333256,-0.817119,0.341852,-0.991008,0.354077,-1.119624,0.362643,-1.162576,0.397195,-1.217294,0.480043,-1.321262,0.585725,-1.436349,0.661974,-1.511306,0.745305,-1.581782,0.780351,-1.600628,0.816226,-1.606236,0.855709,-1.608367,0.916305,-1.621245,
1.018029,-1.660105,1.092024,-1.709574,1.121528,-1.749879,1.172534,-1.841779,1.197328,-1.927265,1.197479,-1.930252,1.204078,-2.083860,1.203745,-2.106820,1.191281,-2.279776,1.165288,-2.364904,1.129225,-2.403994,1.173666,-2.405391,1.223573,-2.405255,1.373671,-2.401394,1.448171,-2.392642,1.465323,-2.386622,1.490349,-2.367250,1.499144,-2.360816,1.558427,-2.319886,1.616268,-2.292409,
1.736039,-2.257617,1.795103,-2.249705,1.918049,-2.251717,1.998400,-2.270011,2.089018,-2.311721,2.159564,-2.365996,2.168233,-2.377282,2.179017,-2.392405,2.207229,-2.449366,2.233861,-2.535376,2.241991,-2.576456,2.252651,-2.693916,2.253382,-2.717931,2.251655,-2.776071,2.247065,-2.813135,2.225093,-2.912935,2.195461,-2.975695,2.212494,-2.958198,2.289490,-2.904783,2.362073,-2.873447,
2.477989,-2.848910,2.531369,-2.844932,2.650838,-2.852090,2.724742,-2.871102,2.812396,-2.912770,2.882265,-2.967914,2.907895,-3.009099,2.941835,-3.082118,2.959271,-3.144555,2.971968,-3.260006,2.972232,-3.301190,2.960919,-3.417757,2.944419,-3.480107,2.909095,-3.559070,2.855580,-3.630194,2.824642,-3.651681,2.776780,-3.678625,2.716103,-3.700809,2.613675,-3.720326,2.575255,-3.723859,
2.458923,-3.723286,2.420925,-3.719452,2.321391,-3.699672,2.242209,-3.664868,2.226678,-3.653495,2.249568,-3.708190,2.262483,-3.753325,2.275714,-3.834758,2.276340,-3.894786,2.255370,-4.043353,2.251016,-4.059843,2.261336,-4.057503,2.405029,-4.053550,2.423479,-4.053894,2.607272,-4.065820,2.692585,-4.091203,2.758435,-4.151089,2.791780,-4.233615,2.793805,-4.251024,2.806269,-4.423981,
2.806736,-4.433904,2.808688,-4.521554,2.803411,-4.571859,2.775606,-4.689911,2.736433,-4.769835,2.707599,-4.798835,2.630832,-4.861660,2.551134,-4.901291,2.531391,-4.905022,2.396634,-4.923538,2.367519,-4.925391,2.352493,-4.925249,2.321484,-4.922534,2.294546,-4.918041,2.345556,-4.977430,2.387072,-5.056163,2.391784,-5.079151,2.411668,-5.216808,2.413676,-5.249681,2.412978,-5.282286,
2.408266,-5.321372,2.380906,-5.444549,2.342754,-5.524966,2.315925,-5.552945,2.240017,-5.618098,2.161269,-5.659587,2.137440,-5.664410,2.001028,-5.683476,1.971455,-5.685392,1.956951,-5.685255,1.923948,-5.682197,1.791737,-5.658772,1.709746,-5.624130,1.687090,-5.605118,1.615161,-5.535067,1.566814,-5.460335,1.557616,-5.425814,1.535881,-5.299923,1.533998,-5.280958,1.533090,-5.277310,
1.533100,-5.278989,1.537975,-5.407923,1.546049,-5.464506,1.546949,-5.466699,1.560605,-5.481756,1.576426,-5.501596,1.634693,-5.585018,1.668145,-5.667501,1.668563,-5.670193,1.688071,-5.801698,1.682547,-5.885969,1.643425,-6.022953,1.600550,-6.100955,1.596826,-6.105026,1.561415,-6.142690,1.487545,-6.192345,1.486564,-6.192720,1.387509,-6.230250,1.326898,-6.242961,1.205437,-6.249194,
1.151442,-6.244614,1.082920,-6.229254,1.081676,-6.301771,1.060958,-6.387044,1.004589,-6.500955,0.948350,-6.569945,0.933901,-6.580220,0.857650,-6.629504,0.787543,-6.657803,0.665751,-6.681668,0.584915,-6.680859,0.473708,-6.656748,0.415993,-6.629724,0.400586,-6.658754,0.394933,-6.665026,0.359522,-6.702690,0.285652,-6.752345,0.284671,-6.752720,0.185616,-6.790250,0.125005,-6.802961,
0.003544,-6.809194,-0.050452,-6.804614,-0.162271,-6.779549,-0.242614,-6.741242,-0.243814,-6.740285,-0.268198,-6.720687,-0.315294,-6.752345,-0.316275,-6.752720,-0.415330,-6.790250,-0.475941,-6.802961,-0.597402,-6.809194,-0.651397,-6.804614,-0.763217,-6.779549,-0.843561,-6.741242,-0.844763,-6.740284,-0.914891,-6.683922,-0.970122,-6.614122,-0.978575,-6.593515,-1.013000,-6.494172,-1.023868,-6.420766,
-1.018162,-6.276806,-0.994935,-6.190882,-0.992477,-6.186396,-0.925104,-6.067069,-0.903724,-6.036331,-0.891370,-6.021707,-0.890072,-6.018941,-0.882527,-5.981614,-0.875398,-5.887738,-0.871719,-5.731182,-0.870818,-5.503325,-0.870817,-5.503105,-0.869927,-5.326988,-0.869827,-5.321581,-0.862543,-5.094702,-0.861499,-5.079727,-0.853873,-5.008841,-0.260880,-5.008841,-0.250757,-5.118082,-0.182664,-5.265028,
-0.032771,-5.461496,0.009168,-5.510153,0.014500,-5.516608,0.119025,-5.648672,0.127203,-5.659770,0.205250,-5.773710,0.219630,-5.798292,0.256978,-5.874043,0.259707,-5.879806,0.280044,-5.924601,0.283266,-5.919104,0.302558,-5.891727,0.305210,-5.888563,0.317208,-5.858522,0.310754,-5.815815,0.250423,-5.704381,0.110971,-5.530276,0.036442,-5.444592,0.027944,-5.434129,-0.099383,-5.266107,
-0.111658,-5.246753,0.652054,-5.246753,0.732842,-5.349046,0.752387,-5.378939,0.849802,-5.561723,0.882643,-5.509562,0.905761,-5.479570,0.917107,-5.467427,0.924826,-5.420679,0.930495,-5.304719,0.931637,-5.162069,0.886595,-5.192346,0.885617,-5.192720,0.786563,-5.230250,0.725952,-5.242961,0.652054,-5.246753,-0.111658,-5.246753,-0.117198,-5.238019,-0.195936,-5.087503,-0.212368,-5.044802,
-0.239091,-4.941314,-0.260880,-5.008841,-0.853873,-5.008841,-0.842699,-4.904973,-0.837775,-4.877464,-0.810044,-4.767492,1.929028,-4.767492,1.940400,-4.777363,1.980579,-4.800138,2.016790,-4.806377,2.048565,-4.809884,2.049055,-4.809987,2.034161,-4.797214,2.013963,-4.774565,2.013402,-4.774389,1.934562,-4.767567,1.929028,-4.767492,-0.810044,-4.767492,-0.802541,-4.737737,-0.789993,-4.702371,
-0.733407,-4.580574,-0.717030,-4.551821,-0.634173,-4.430855,-0.622986,-4.416047,-0.508940,-4.278815,-0.506152,-4.275532,-0.504541,-4.273676,-0.406101,-4.155775,-0.327937,-4.054618,-0.302887,-4.017163,-0.302099,-4.013563,-0.294032,-3.925579,-0.286464,-3.770786,-0.280305,-3.552503,-0.275623,-3.268476,-0.272373,-2.915349,-0.271993,-2.829728,0.332029,-2.829728,0.339270,-2.984437,0.352076,-3.112266,
0.360925,-3.154360,0.378419,-3.181798,0.458433,-3.279847,0.578494,-3.414759,0.722334,-3.568542,0.876663,-3.727341,1.028514,-3.877808,1.164669,-4.006494,1.268831,-4.097556,1.310593,-4.127530,1.364956,-4.143570,1.451145,-4.154832,1.444522,-4.147382,1.401669,-4.069368,1.396370,-4.045227,1.377901,-3.926443,1.353356,-3.888438,1.272875,-3.790852,1.139773,-3.645237,0.953129,-3.451557,
0.710038,-3.206705,0.332029,-2.829728,-0.271993,-2.829728,-0.270485,-2.489954,-0.269874,-1.987786,-0.269874,1.046200,-0.250068,1.132977,-0.194572,1.202566,-0.114378,1.241186,-0.069874,1.246200,0.130126,1.246200,0.216903,1.226394,0.216903,1.226394,$1*%
G04 Aperture macros list end*
%ADD10C,0.150000*%
%ADD11C,0.200000*%
%ADD12C,0.178000*%
%ADD13C,0.000000*%
%ADD14C,0.120000*%
%ADD15C,0.100000*%
%ADD16RoundRect,0.200000X-1.000000X-1.000000X1.000000X-1.000000X1.000000X1.000000X-1.000000X1.000000X0*%
%ADD17C,1.650000*%
%ADD18C,1.450000*%
%ADD19RoundRect,0.200000X-0.775000X-1.000000X0.775000X-1.000000X0.775000X1.000000X-0.775000X1.000000X0*%
%ADD20C,4.200000*%
%ADD21C,1.300000*%
%ADD22C,2.500000*%
%ADD23FreePoly0,187.500000*%
%ADD24FreePoly0,7.500000*%
%ADD25FreePoly1,187.500000*%
%ADD26FreePoly1,7.500000*%
%ADD27RoundRect,0.200000X-1.224745X-0.707107X0.707107X-1.224745X1.224745X0.707107X-0.707107X1.224745X0*%
%ADD28RoundRect,0.200000X-1.007412X-0.765341X0.489773X-1.166511X1.007412X0.765341X-0.489773X1.166511X0*%
%ADD29RoundRect,0.200000X-1.121971X-0.860919X0.860919X-1.121971X1.121971X0.860919X-0.860919X1.121971X0*%
%ADD30RoundRect,0.200000X-0.898896X-0.890287X0.637844X-1.092603X0.898896X0.890287X-0.637844X1.092603X0*%
%ADD31RoundRect,0.200000X-0.600000X-0.700000X0.600000X-0.700000X0.600000X0.700000X-0.600000X0.700000X0*%
%ADD32FreePoly2,180.000000*%
%ADD33RoundRect,0.229000X-0.606000X-0.057250X0.606000X-0.057250X0.606000X0.057250X-0.606000X0.057250X0*%
%ADD34RoundRect,0.229000X-1.171000X-0.057250X1.171000X-0.057250X1.171000X0.057250X-1.171000X0.057250X0*%
%ADD35RoundRect,0.229000X-0.208500X-0.057250X0.208500X-0.057250X0.208500X0.057250X-0.208500X0.057250X0*%
%ADD36FreePoly3,180.000000*%
%ADD37RoundRect,0.200000X0.547933X0.331315X-0.443512X0.461841X-0.547933X-0.331315X0.443512X-0.461841X0*%
%ADD38RoundRect,0.200000X0.444900X0.697899X-0.249111X0.789268X-0.444900X-0.697899X0.249111X-0.789268X0*%
%ADD39RoundRect,0.300000X0.850000X-0.300000X0.850000X0.300000X-0.850000X0.300000X-0.850000X-0.300000X0*%
%ADD40RoundRect,0.326924X1.548076X-0.523076X1.548076X0.523076X-1.548076X0.523076X-1.548076X-0.523076X0*%
%ADD41RoundRect,0.200000X0.686235X0.615696X-0.503499X0.772327X-0.686235X-0.615696X0.503499X-0.772327X0*%
%ADD42RoundRect,0.200000X-0.760729X-0.520857X0.398382X-0.831440X0.760729X0.520857X-0.398382X0.831440X0*%
G04 APERTURE END LIST*
D10*
X130225173Y-119233047D02*
X130100173Y-118233047D01*
X129653744Y-119233047D02*
X130010887Y-118661618D01*
X129528744Y-118233047D02*
X130171601Y-118804475D01*
X129225173Y-119233047D02*
X129141839Y-118566380D01*
X129165649Y-118756856D02*
X129106125Y-118661618D01*
X129106125Y-118661618D02*
X129052554Y-118613999D01*
X129052554Y-118613999D02*
X128951363Y-118566380D01*
X128951363Y-118566380D02*
X128856125Y-118566380D01*
X128219220Y-119185428D02*
X128320410Y-119233047D01*
X128320410Y-119233047D02*
X128510887Y-119233047D01*
X128510887Y-119233047D02*
X128600172Y-119185428D01*
X128600172Y-119185428D02*
X128635887Y-119090189D01*
X128635887Y-119090189D02*
X128588268Y-118709237D01*
X128588268Y-118709237D02*
X128528744Y-118613999D01*
X128528744Y-118613999D02*
X128427553Y-118566380D01*
X128427553Y-118566380D02*
X128237077Y-118566380D01*
X128237077Y-118566380D02*
X128147791Y-118613999D01*
X128147791Y-118613999D02*
X128112077Y-118709237D01*
X128112077Y-118709237D02*
X128123982Y-118804475D01*
X128123982Y-118804475D02*
X128612077Y-118899713D01*
X127808505Y-118566380D02*
X127427553Y-118566380D01*
X127623982Y-118233047D02*
X127731125Y-119090189D01*
X127731125Y-119090189D02*
X127695410Y-119185428D01*
X127695410Y-119185428D02*
X127606125Y-119233047D01*
X127606125Y-119233047D02*
X127510886Y-119233047D01*
X127219219Y-119185428D02*
X127129934Y-119233047D01*
X127129934Y-119233047D02*
X126939457Y-119233047D01*
X126939457Y-119233047D02*
X126838267Y-119185428D01*
X126838267Y-119185428D02*
X126778743Y-119090189D01*
X126778743Y-119090189D02*
X126772791Y-119042570D01*
X126772791Y-119042570D02*
X126808505Y-118947332D01*
X126808505Y-118947332D02*
X126897791Y-118899713D01*
X126897791Y-118899713D02*
X127040648Y-118899713D01*
X127040648Y-118899713D02*
X127129934Y-118852094D01*
X127129934Y-118852094D02*
X127165648Y-118756856D01*
X127165648Y-118756856D02*
X127159696Y-118709237D01*
X127159696Y-118709237D02*
X127100172Y-118613999D01*
X127100172Y-118613999D02*
X126998981Y-118566380D01*
X126998981Y-118566380D02*
X126856124Y-118566380D01*
X126856124Y-118566380D02*
X126766838Y-118613999D01*
X126427552Y-118566380D02*
X126046600Y-118566380D01*
X126243029Y-118233047D02*
X126350172Y-119090189D01*
X126350172Y-119090189D02*
X126314457Y-119185428D01*
X126314457Y-119185428D02*
X126225172Y-119233047D01*
X126225172Y-119233047D02*
X126129933Y-119233047D01*
X125796600Y-119233047D02*
X125713266Y-118566380D01*
X125737076Y-118756856D02*
X125677552Y-118661618D01*
X125677552Y-118661618D02*
X125623981Y-118613999D01*
X125623981Y-118613999D02*
X125522790Y-118566380D01*
X125522790Y-118566380D02*
X125427552Y-118566380D01*
X124748980Y-119233047D02*
X124683504Y-118709237D01*
X124683504Y-118709237D02*
X124719218Y-118613999D01*
X124719218Y-118613999D02*
X124808504Y-118566380D01*
X124808504Y-118566380D02*
X124998980Y-118566380D01*
X124998980Y-118566380D02*
X125100171Y-118613999D01*
X124743028Y-119185428D02*
X124844218Y-119233047D01*
X124844218Y-119233047D02*
X125082314Y-119233047D01*
X125082314Y-119233047D02*
X125171599Y-119185428D01*
X125171599Y-119185428D02*
X125207314Y-119090189D01*
X125207314Y-119090189D02*
X125195409Y-118994951D01*
X125195409Y-118994951D02*
X125135885Y-118899713D01*
X125135885Y-118899713D02*
X125034695Y-118852094D01*
X125034695Y-118852094D02*
X124796599Y-118852094D01*
X124796599Y-118852094D02*
X124695409Y-118804475D01*
X125052552Y-118233047D02*
X125010885Y-118280666D01*
X125010885Y-118280666D02*
X125064456Y-118328285D01*
X125064456Y-118328285D02*
X125106123Y-118280666D01*
X125106123Y-118280666D02*
X125052552Y-118233047D01*
X125052552Y-118233047D02*
X125064456Y-118328285D01*
X124671599Y-118233047D02*
X124629933Y-118280666D01*
X124629933Y-118280666D02*
X124683504Y-118328285D01*
X124683504Y-118328285D02*
X124725171Y-118280666D01*
X124725171Y-118280666D02*
X124671599Y-118233047D01*
X124671599Y-118233047D02*
X124683504Y-118328285D01*
X123844218Y-119233047D02*
X123719218Y-118233047D01*
X123838266Y-119185428D02*
X123939456Y-119233047D01*
X123939456Y-119233047D02*
X124129933Y-119233047D01*
X124129933Y-119233047D02*
X124219218Y-119185428D01*
X124219218Y-119185428D02*
X124260885Y-119137808D01*
X124260885Y-119137808D02*
X124296599Y-119042570D01*
X124296599Y-119042570D02*
X124260885Y-118756856D01*
X124260885Y-118756856D02*
X124201361Y-118661618D01*
X124201361Y-118661618D02*
X124147790Y-118613999D01*
X124147790Y-118613999D02*
X124046599Y-118566380D01*
X124046599Y-118566380D02*
X123856123Y-118566380D01*
X123856123Y-118566380D02*
X123766837Y-118613999D01*
X122618027Y-118566380D02*
X122463266Y-119233047D01*
X122463266Y-119233047D02*
X122141837Y-118566380D01*
X121778741Y-118328285D02*
X121725170Y-118280666D01*
X121725170Y-118280666D02*
X121623980Y-118233047D01*
X121623980Y-118233047D02*
X121385884Y-118233047D01*
X121385884Y-118233047D02*
X121296599Y-118280666D01*
X121296599Y-118280666D02*
X121254932Y-118328285D01*
X121254932Y-118328285D02*
X121219218Y-118423523D01*
X121219218Y-118423523D02*
X121231122Y-118518761D01*
X121231122Y-118518761D02*
X121296599Y-118661618D01*
X121296599Y-118661618D02*
X121939456Y-119233047D01*
X121939456Y-119233047D02*
X121320408Y-119233047D01*
X130225173Y-120842991D02*
X130100173Y-119842991D01*
X130100173Y-119842991D02*
X129862077Y-119842991D01*
X129862077Y-119842991D02*
X129725173Y-119890610D01*
X129725173Y-119890610D02*
X129641839Y-119985848D01*
X129641839Y-119985848D02*
X129606125Y-120081086D01*
X129606125Y-120081086D02*
X129582316Y-120271562D01*
X129582316Y-120271562D02*
X129600173Y-120414419D01*
X129600173Y-120414419D02*
X129671601Y-120604895D01*
X129671601Y-120604895D02*
X129731125Y-120700133D01*
X129731125Y-120700133D02*
X129838268Y-120795372D01*
X129838268Y-120795372D02*
X129987077Y-120842991D01*
X129987077Y-120842991D02*
X130225173Y-120842991D01*
X128838268Y-120795372D02*
X128939458Y-120842991D01*
X128939458Y-120842991D02*
X129129935Y-120842991D01*
X129129935Y-120842991D02*
X129219220Y-120795372D01*
X129219220Y-120795372D02*
X129254935Y-120700133D01*
X129254935Y-120700133D02*
X129207316Y-120319181D01*
X129207316Y-120319181D02*
X129147792Y-120223943D01*
X129147792Y-120223943D02*
X129046601Y-120176324D01*
X129046601Y-120176324D02*
X128856125Y-120176324D01*
X128856125Y-120176324D02*
X128766839Y-120223943D01*
X128766839Y-120223943D02*
X128731125Y-120319181D01*
X128731125Y-120319181D02*
X128743030Y-120414419D01*
X128743030Y-120414419D02*
X129231125Y-120509657D01*
X128409696Y-120795372D02*
X128320411Y-120842991D01*
X128320411Y-120842991D02*
X128129934Y-120842991D01*
X128129934Y-120842991D02*
X128028744Y-120795372D01*
X128028744Y-120795372D02*
X127969220Y-120700133D01*
X127969220Y-120700133D02*
X127963268Y-120652514D01*
X127963268Y-120652514D02*
X127998982Y-120557276D01*
X127998982Y-120557276D02*
X128088268Y-120509657D01*
X128088268Y-120509657D02*
X128231125Y-120509657D01*
X128231125Y-120509657D02*
X128320411Y-120462038D01*
X128320411Y-120462038D02*
X128356125Y-120366800D01*
X128356125Y-120366800D02*
X128350173Y-120319181D01*
X128350173Y-120319181D02*
X128290649Y-120223943D01*
X128290649Y-120223943D02*
X128189458Y-120176324D01*
X128189458Y-120176324D02*
X128046601Y-120176324D01*
X128046601Y-120176324D02*
X127957315Y-120223943D01*
X127558506Y-120842991D02*
X127475172Y-120176324D01*
X127433506Y-119842991D02*
X127487077Y-119890610D01*
X127487077Y-119890610D02*
X127445410Y-119938229D01*
X127445410Y-119938229D02*
X127391839Y-119890610D01*
X127391839Y-119890610D02*
X127433506Y-119842991D01*
X127433506Y-119842991D02*
X127445410Y-119938229D01*
X126570411Y-120176324D02*
X126671601Y-120985848D01*
X126671601Y-120985848D02*
X126731125Y-121081086D01*
X126731125Y-121081086D02*
X126784697Y-121128705D01*
X126784697Y-121128705D02*
X126885887Y-121176324D01*
X126885887Y-121176324D02*
X127028744Y-121176324D01*
X127028744Y-121176324D02*
X127118030Y-121128705D01*
X126647792Y-120795372D02*
X126748982Y-120842991D01*
X126748982Y-120842991D02*
X126939459Y-120842991D01*
X126939459Y-120842991D02*
X127028744Y-120795372D01*
X127028744Y-120795372D02*
X127070411Y-120747752D01*
X127070411Y-120747752D02*
X127106125Y-120652514D01*
X127106125Y-120652514D02*
X127070411Y-120366800D01*
X127070411Y-120366800D02*
X127010887Y-120271562D01*
X127010887Y-120271562D02*
X126957316Y-120223943D01*
X126957316Y-120223943D02*
X126856125Y-120176324D01*
X126856125Y-120176324D02*
X126665649Y-120176324D01*
X126665649Y-120176324D02*
X126576363Y-120223943D01*
X126094220Y-120176324D02*
X126177554Y-120842991D01*
X126106125Y-120271562D02*
X126052554Y-120223943D01*
X126052554Y-120223943D02*
X125951363Y-120176324D01*
X125951363Y-120176324D02*
X125808506Y-120176324D01*
X125808506Y-120176324D02*
X125719220Y-120223943D01*
X125719220Y-120223943D02*
X125683506Y-120319181D01*
X125683506Y-120319181D02*
X125748982Y-120842991D01*
X124885887Y-120795372D02*
X124987077Y-120842991D01*
X124987077Y-120842991D02*
X125177554Y-120842991D01*
X125177554Y-120842991D02*
X125266839Y-120795372D01*
X125266839Y-120795372D02*
X125302554Y-120700133D01*
X125302554Y-120700133D02*
X125254935Y-120319181D01*
X125254935Y-120319181D02*
X125195411Y-120223943D01*
X125195411Y-120223943D02*
X125094220Y-120176324D01*
X125094220Y-120176324D02*
X124903744Y-120176324D01*
X124903744Y-120176324D02*
X124814458Y-120223943D01*
X124814458Y-120223943D02*
X124778744Y-120319181D01*
X124778744Y-120319181D02*
X124790649Y-120414419D01*
X124790649Y-120414419D02*
X125278744Y-120509657D01*
X123987077Y-120842991D02*
X123862077Y-119842991D01*
X123981125Y-120795372D02*
X124082315Y-120842991D01*
X124082315Y-120842991D02*
X124272792Y-120842991D01*
X124272792Y-120842991D02*
X124362077Y-120795372D01*
X124362077Y-120795372D02*
X124403744Y-120747752D01*
X124403744Y-120747752D02*
X124439458Y-120652514D01*
X124439458Y-120652514D02*
X124403744Y-120366800D01*
X124403744Y-120366800D02*
X124344220Y-120271562D01*
X124344220Y-120271562D02*
X124290649Y-120223943D01*
X124290649Y-120223943D02*
X124189458Y-120176324D01*
X124189458Y-120176324D02*
X123998982Y-120176324D01*
X123998982Y-120176324D02*
X123909696Y-120223943D01*
X122748982Y-120842991D02*
X122623982Y-119842991D01*
X122671601Y-120223943D02*
X122570410Y-120176324D01*
X122570410Y-120176324D02*
X122379934Y-120176324D01*
X122379934Y-120176324D02*
X122290648Y-120223943D01*
X122290648Y-120223943D02*
X122248982Y-120271562D01*
X122248982Y-120271562D02*
X122213267Y-120366800D01*
X122213267Y-120366800D02*
X122248982Y-120652514D01*
X122248982Y-120652514D02*
X122308505Y-120747752D01*
X122308505Y-120747752D02*
X122362077Y-120795372D01*
X122362077Y-120795372D02*
X122463267Y-120842991D01*
X122463267Y-120842991D02*
X122653744Y-120842991D01*
X122653744Y-120842991D02*
X122743029Y-120795372D01*
X121856124Y-120176324D02*
X121701363Y-120842991D01*
X121379934Y-120176324D02*
X121701363Y-120842991D01*
X121701363Y-120842991D02*
X121826363Y-121081086D01*
X121826363Y-121081086D02*
X121879934Y-121128705D01*
X121879934Y-121128705D02*
X121981124Y-121176324D01*
X120237076Y-120176324D02*
X120344219Y-121033467D01*
X120344219Y-121033467D02*
X120403743Y-121128705D01*
X120403743Y-121128705D02*
X120504933Y-121176324D01*
X120504933Y-121176324D02*
X120552553Y-121176324D01*
X120195410Y-119842991D02*
X120248981Y-119890610D01*
X120248981Y-119890610D02*
X120207314Y-119938229D01*
X120207314Y-119938229D02*
X120153743Y-119890610D01*
X120153743Y-119890610D02*
X120195410Y-119842991D01*
X120195410Y-119842991D02*
X120207314Y-119938229D01*
X119856124Y-120176324D02*
X119748982Y-120842991D01*
X119748982Y-120842991D02*
X119498982Y-120366800D01*
X119498982Y-120366800D02*
X119368029Y-120842991D01*
X119368029Y-120842991D02*
X119094220Y-120176324D01*
X151383951Y-105146133D02*
X150622047Y-105146133D01*
X151002999Y-104765180D02*
X151002999Y-105527085D01*
X154914209Y-107237347D02*
X155628494Y-107237347D01*
X155628494Y-107237347D02*
X155771351Y-107189728D01*
X155771351Y-107189728D02*
X155866590Y-107094490D01*
X155866590Y-107094490D02*
X155914209Y-106951633D01*
X155914209Y-106951633D02*
X155914209Y-106856395D01*
X155009447Y-107665919D02*
X154961828Y-107713538D01*
X154961828Y-107713538D02*
X154914209Y-107808776D01*
X154914209Y-107808776D02*
X154914209Y-108046871D01*
X154914209Y-108046871D02*
X154961828Y-108142109D01*
X154961828Y-108142109D02*
X155009447Y-108189728D01*
X155009447Y-108189728D02*
X155104685Y-108237347D01*
X155104685Y-108237347D02*
X155199923Y-108237347D01*
X155199923Y-108237347D02*
X155342780Y-108189728D01*
X155342780Y-108189728D02*
X155914209Y-107618300D01*
X155914209Y-107618300D02*
X155914209Y-108237347D01*
X83940492Y-111654493D02*
X84071018Y-112645938D01*
X83940492Y-111654493D02*
X84931937Y-111523966D01*
X86263858Y-129302211D02*
X86139858Y-128360339D01*
X86263858Y-129302211D02*
X87255303Y-129171685D01*
X103608973Y-109065088D02*
X104649993Y-108928035D01*
X104649993Y-108928035D02*
X104780517Y-109919480D01*
X105981912Y-126706280D02*
X106973357Y-126575754D01*
X106973357Y-126575754D02*
X106841525Y-125574395D01*
D11*
X104452990Y-91308281D02*
X110452990Y-91308281D01*
X110452990Y-93708281D01*
X104452990Y-93708281D01*
X104452990Y-91308281D01*
X105011390Y-93708281D02*
X104452990Y-93708281D01*
X104452990Y-91308281D01*
X105011390Y-91308281D01*
X105011390Y-93708281D01*
G36*
X105011390Y-93708281D02*
G01*
X104452990Y-93708281D01*
X104452990Y-91308281D01*
X105011390Y-91308281D01*
X105011390Y-93708281D01*
G37*
X158425990Y-78598281D02*
X164425990Y-78598281D01*
X164425990Y-80998281D01*
X158425990Y-80998281D01*
X158425990Y-78598281D01*
X158984390Y-80998281D02*
X158425990Y-80998281D01*
X158425990Y-78598281D01*
X158984390Y-78598281D01*
X158984390Y-80998281D01*
G36*
X158984390Y-80998281D02*
G01*
X158425990Y-80998281D01*
X158425990Y-78598281D01*
X158984390Y-78598281D01*
X158984390Y-80998281D01*
G37*
X158425990Y-95542281D02*
X164425990Y-95542281D01*
X164425990Y-97942281D01*
X158425990Y-97942281D01*
X158425990Y-95542281D01*
X158984390Y-97942281D02*
X158425990Y-97942281D01*
X158425990Y-95542281D01*
X158984390Y-95542281D01*
X158984390Y-97942281D01*
G36*
X158984390Y-97942281D02*
G01*
X158425990Y-97942281D01*
X158425990Y-95542281D01*
X158984390Y-95542281D01*
X158984390Y-97942281D01*
G37*
X122443590Y-54509081D02*
X128443590Y-54509081D01*
X128443590Y-56909081D01*
X122443590Y-56909081D01*
X122443590Y-54509081D01*
X123001990Y-56909081D02*
X122443590Y-56909081D01*
X122443590Y-54509081D01*
X123001990Y-54509081D01*
X123001990Y-56909081D01*
G36*
X123001990Y-56909081D02*
G01*
X122443590Y-56909081D01*
X122443590Y-54509081D01*
X123001990Y-54509081D01*
X123001990Y-56909081D01*
G37*
X140430790Y-74308281D02*
X146430790Y-74308281D01*
X146430790Y-76708281D01*
X140430790Y-76708281D01*
X140430790Y-74308281D01*
X140989190Y-76708281D02*
X140430790Y-76708281D01*
X140430790Y-74308281D01*
X140989190Y-74308281D01*
X140989190Y-76708281D01*
G36*
X140989190Y-76708281D02*
G01*
X140430790Y-76708281D01*
X140430790Y-74308281D01*
X140989190Y-74308281D01*
X140989190Y-76708281D01*
G37*
X86434190Y-77465481D02*
X92434190Y-77465481D01*
X92434190Y-79865481D01*
X86434190Y-79865481D01*
X86434190Y-77465481D01*
X86992590Y-79865481D02*
X86434190Y-79865481D01*
X86434190Y-77465481D01*
X86992590Y-77465481D01*
X86992590Y-79865481D01*
G36*
X86992590Y-79865481D02*
G01*
X86434190Y-79865481D01*
X86434190Y-77465481D01*
X86992590Y-77465481D01*
X86992590Y-79865481D01*
G37*
D12*
X114584797Y-120116600D02*
X114584797Y-121539000D01*
X114584797Y-121539000D02*
X115479397Y-121539000D01*
X117607397Y-120065800D02*
X117607397Y-121539000D01*
X117607397Y-121539000D02*
X116729397Y-121539400D01*
D13*
G36*
X114607236Y-113077747D02*
G01*
X114654009Y-113094831D01*
X114769917Y-113136117D01*
X114942112Y-113196984D01*
X115160193Y-113273788D01*
X115413760Y-113362888D01*
X115692413Y-113460639D01*
X115985751Y-113563400D01*
X116283374Y-113667525D01*
X116574881Y-113769374D01*
X116849873Y-113865302D01*
X117097948Y-113951666D01*
X117308706Y-114024824D01*
X117471747Y-114081132D01*
X117702110Y-114160347D01*
X117702110Y-115146003D01*
X117501795Y-115146003D01*
X117501479Y-114293003D01*
X116810549Y-114053205D01*
X116685936Y-114009975D01*
X116374283Y-113901973D01*
X116035342Y-113784638D01*
X115702338Y-113669470D01*
X115408498Y-113567968D01*
X114697378Y-113322528D01*
X114697378Y-115146003D01*
X114497063Y-115146003D01*
X114497063Y-113034983D01*
X114607236Y-113077747D01*
G37*
D14*
X143180126Y-128814606D02*
X143283242Y-128031364D01*
X145452756Y-127257926D02*
X145254468Y-127231821D01*
X146399545Y-131558297D02*
X146567925Y-130279334D01*
X146399545Y-131558297D02*
X146570424Y-131792606D01*
X147462724Y-131910079D02*
X146570424Y-131792606D01*
X147688424Y-131727981D02*
X147462724Y-131910079D01*
X147856802Y-130449017D02*
X147688424Y-131727981D01*
X148427092Y-127649505D02*
X146741635Y-127427610D01*
X149294398Y-130638280D02*
X143643160Y-129894281D01*
X150124211Y-128931995D02*
X150021095Y-129715236D01*
D11*
X122443590Y-71508281D02*
X128443590Y-71508281D01*
X128443590Y-73908281D01*
X122443590Y-73908281D01*
X122443590Y-71508281D01*
X123001990Y-73908281D02*
X122443590Y-73908281D01*
X122443590Y-71508281D01*
X123001990Y-71508281D01*
X123001990Y-73908281D01*
G36*
X123001990Y-73908281D02*
G01*
X122443590Y-73908281D01*
X122443590Y-71508281D01*
X123001990Y-71508281D01*
X123001990Y-73908281D01*
G37*
X140430790Y-57308081D02*
X146430790Y-57308081D01*
X146430790Y-59708081D01*
X140430790Y-59708081D01*
X140430790Y-57308081D01*
X140989190Y-59708081D02*
X140430790Y-59708081D01*
X140430790Y-57308081D01*
X140989190Y-57308081D01*
X140989190Y-59708081D01*
G36*
X140989190Y-59708081D02*
G01*
X140430790Y-59708081D01*
X140430790Y-57308081D01*
X140989190Y-57308081D01*
X140989190Y-59708081D01*
G37*
X122443590Y-88508281D02*
X128443590Y-88508281D01*
X128443590Y-90908281D01*
X122443590Y-90908281D01*
X122443590Y-88508281D01*
X123001990Y-90908281D02*
X122443590Y-90908281D01*
X122443590Y-88508281D01*
X123001990Y-88508281D01*
X123001990Y-90908281D01*
G36*
X123001990Y-90908281D02*
G01*
X122443590Y-90908281D01*
X122443590Y-88508281D01*
X123001990Y-88508281D01*
X123001990Y-90908281D01*
G37*
X140430790Y-91308281D02*
X146430790Y-91308281D01*
X146430790Y-93708281D01*
X140430790Y-93708281D01*
X140430790Y-91308281D01*
X140989190Y-93708281D02*
X140430790Y-93708281D01*
X140430790Y-91308281D01*
X140989190Y-91308281D01*
X140989190Y-93708281D01*
G36*
X140989190Y-93708281D02*
G01*
X140430790Y-93708281D01*
X140430790Y-91308281D01*
X140989190Y-91308281D01*
X140989190Y-93708281D01*
G37*
D14*
X146749390Y-105005681D02*
X146749390Y-105755681D01*
X146749390Y-105755681D02*
X147749390Y-106155681D01*
X146749390Y-109385681D02*
X146749390Y-110135681D01*
X147749390Y-106155681D02*
X147749390Y-108985681D01*
X147749390Y-108985681D02*
X146749390Y-109385681D01*
X152869390Y-103635681D02*
X150369390Y-103635681D01*
X152869390Y-106285681D02*
X152869390Y-103635681D01*
X152869390Y-108855681D02*
X152869390Y-111505681D01*
X152869390Y-111505681D02*
X150369390Y-111505681D01*
X154259390Y-108855681D02*
X152869390Y-108855681D01*
D11*
X150693301Y-116545527D02*
X150380038Y-118924995D01*
X149826415Y-118852109D01*
X150139678Y-116472641D01*
X150693301Y-116545527D01*
G36*
X150693301Y-116545527D02*
G01*
X150380038Y-118924995D01*
X149826415Y-118852109D01*
X150139678Y-116472641D01*
X150693301Y-116545527D01*
G37*
X150693301Y-116545527D02*
X150380038Y-118924995D01*
X144431369Y-118141837D01*
X144744632Y-115762370D01*
X150693301Y-116545527D01*
X104452990Y-74308281D02*
X110452990Y-74308281D01*
X110452990Y-76708281D01*
X104452990Y-76708281D01*
X104452990Y-74308281D01*
X105011390Y-76708281D02*
X104452990Y-76708281D01*
X104452990Y-74308281D01*
X105011390Y-74308281D01*
X105011390Y-76708281D01*
G36*
X105011390Y-76708281D02*
G01*
X104452990Y-76708281D01*
X104452990Y-74308281D01*
X105011390Y-74308281D01*
X105011390Y-76708281D01*
G37*
X86434190Y-94432681D02*
X92434190Y-94432681D01*
X92434190Y-96832681D01*
X86434190Y-96832681D01*
X86434190Y-94432681D01*
X86992590Y-96832681D02*
X86434190Y-96832681D01*
X86434190Y-94432681D01*
X86992590Y-94432681D01*
X86992590Y-96832681D01*
G36*
X86992590Y-96832681D02*
G01*
X86434190Y-96832681D01*
X86434190Y-94432681D01*
X86992590Y-94432681D01*
X86992590Y-96832681D01*
G37*
X86434190Y-60309081D02*
X92434190Y-60309081D01*
X92434190Y-62709081D01*
X86434190Y-62709081D01*
X86434190Y-60309081D01*
X86992590Y-62709081D02*
X86434190Y-62709081D01*
X86434190Y-60309081D01*
X86992590Y-60309081D01*
X86992590Y-62709081D01*
G36*
X86992590Y-62709081D02*
G01*
X86434190Y-62709081D01*
X86434190Y-60309081D01*
X86992590Y-60309081D01*
X86992590Y-62709081D01*
G37*
X104452990Y-57309081D02*
X110452990Y-57309081D01*
X110452990Y-59709081D01*
X104452990Y-59709081D01*
X104452990Y-57309081D01*
X105011390Y-59709081D02*
X104452990Y-59709081D01*
X104452990Y-57309081D01*
X105011390Y-57309081D01*
X105011390Y-59709081D01*
G36*
X105011390Y-59709081D02*
G01*
X104452990Y-59709081D01*
X104452990Y-57309081D01*
X105011390Y-57309081D01*
X105011390Y-59709081D01*
G37*
X169487439Y-120454055D02*
X168866272Y-122772277D01*
X163070719Y-121219363D01*
X163691884Y-118901141D01*
X169487439Y-120454055D01*
X164231257Y-119045666D02*
X163610091Y-121363889D01*
X163070719Y-121219363D01*
X163691884Y-118901141D01*
X164231257Y-119045666D01*
G36*
X164231257Y-119045666D02*
G01*
X163610091Y-121363889D01*
X163070719Y-121219363D01*
X163691884Y-118901141D01*
X164231257Y-119045666D01*
G37*
X158425990Y-61598281D02*
X164425990Y-61598281D01*
X164425990Y-63998281D01*
X158425990Y-63998281D01*
X158425990Y-61598281D01*
X158984390Y-63998281D02*
X158425990Y-63998281D01*
X158425990Y-61598281D01*
X158984390Y-61598281D01*
X158984390Y-63998281D01*
G36*
X158984390Y-63998281D02*
G01*
X158425990Y-63998281D01*
X158425990Y-61598281D01*
X158984390Y-61598281D01*
X158984390Y-63998281D01*
G37*
%LPC*%
D15*
X87756130Y-115406955D02*
X86748822Y-115539569D01*
X86616207Y-114532261D01*
X87623515Y-114399647D01*
X87756130Y-115406955D01*
G36*
X87756130Y-115406955D02*
G01*
X86748822Y-115539569D01*
X86616207Y-114532261D01*
X87623515Y-114399647D01*
X87756130Y-115406955D01*
G37*
X89110887Y-125697359D02*
X88103579Y-125829974D01*
X87970965Y-124822666D01*
X88978273Y-124690051D01*
X89110887Y-125697359D01*
G36*
X89110887Y-125697359D02*
G01*
X88103579Y-125829974D01*
X87970965Y-124822666D01*
X88978273Y-124690051D01*
X89110887Y-125697359D01*
G37*
X90274400Y-115075418D02*
X89267092Y-115208033D01*
X89134477Y-114200725D01*
X90141785Y-114068110D01*
X90274400Y-115075418D01*
G36*
X90274400Y-115075418D02*
G01*
X89267092Y-115208033D01*
X89134477Y-114200725D01*
X90141785Y-114068110D01*
X90274400Y-115075418D01*
G37*
X91629157Y-125365823D02*
X90621849Y-125498437D01*
X90489235Y-124491129D01*
X91496543Y-124358515D01*
X91629157Y-125365823D01*
G36*
X91629157Y-125365823D02*
G01*
X90621849Y-125498437D01*
X90489235Y-124491129D01*
X91496543Y-124358515D01*
X91629157Y-125365823D01*
G37*
X92792670Y-114743882D02*
X91785362Y-114876496D01*
X91652747Y-113869188D01*
X92660055Y-113736574D01*
X92792670Y-114743882D01*
G36*
X92792670Y-114743882D02*
G01*
X91785362Y-114876496D01*
X91652747Y-113869188D01*
X92660055Y-113736574D01*
X92792670Y-114743882D01*
G37*
X94147427Y-125034286D02*
X93140119Y-125166901D01*
X93007505Y-124159593D01*
X94014813Y-124026978D01*
X94147427Y-125034286D01*
G36*
X94147427Y-125034286D02*
G01*
X93140119Y-125166901D01*
X93007505Y-124159593D01*
X94014813Y-124026978D01*
X94147427Y-125034286D01*
G37*
X95310940Y-114412345D02*
X94303632Y-114544960D01*
X94171017Y-113537652D01*
X95178325Y-113405037D01*
X95310940Y-114412345D01*
G36*
X95310940Y-114412345D02*
G01*
X94303632Y-114544960D01*
X94171017Y-113537652D01*
X95178325Y-113405037D01*
X95310940Y-114412345D01*
G37*
X96665697Y-124702750D02*
X95658389Y-124835364D01*
X95525775Y-123828056D01*
X96533083Y-123695442D01*
X96665697Y-124702750D01*
G36*
X96665697Y-124702750D02*
G01*
X95658389Y-124835364D01*
X95525775Y-123828056D01*
X96533083Y-123695442D01*
X96665697Y-124702750D01*
G37*
X97829210Y-114080809D02*
X96821902Y-114213423D01*
X96689287Y-113206115D01*
X97696595Y-113073501D01*
X97829210Y-114080809D01*
G36*
X97829210Y-114080809D02*
G01*
X96821902Y-114213423D01*
X96689287Y-113206115D01*
X97696595Y-113073501D01*
X97829210Y-114080809D01*
G37*
X99183967Y-124371213D02*
X98176659Y-124503828D01*
X98044045Y-123496520D01*
X99051353Y-123363905D01*
X99183967Y-124371213D01*
G36*
X99183967Y-124371213D02*
G01*
X98176659Y-124503828D01*
X98044045Y-123496520D01*
X99051353Y-123363905D01*
X99183967Y-124371213D01*
G37*
X100347480Y-113749272D02*
X99340172Y-113881887D01*
X99207557Y-112874579D01*
X100214865Y-112741964D01*
X100347480Y-113749272D01*
G36*
X100347480Y-113749272D02*
G01*
X99340172Y-113881887D01*
X99207557Y-112874579D01*
X100214865Y-112741964D01*
X100347480Y-113749272D01*
G37*
X101702237Y-124039677D02*
X100694929Y-124172291D01*
X100562315Y-123164983D01*
X101569621Y-123032369D01*
X101702237Y-124039677D01*
G36*
X101702237Y-124039677D02*
G01*
X100694929Y-124172291D01*
X100562315Y-123164983D01*
X101569621Y-123032369D01*
X101702237Y-124039677D01*
G37*
X102865750Y-113417736D02*
X101858442Y-113550350D01*
X101725827Y-112543042D01*
X102733135Y-112410428D01*
X102865750Y-113417736D01*
G36*
X102865750Y-113417736D02*
G01*
X101858442Y-113550350D01*
X101725827Y-112543042D01*
X102733135Y-112410428D01*
X102865750Y-113417736D01*
G37*
X104220507Y-123708140D02*
X103213199Y-123840755D01*
X103080584Y-122833447D01*
X104087892Y-122700832D01*
X104220507Y-123708140D01*
G36*
X104220507Y-123708140D02*
G01*
X103213199Y-123840755D01*
X103080584Y-122833447D01*
X104087892Y-122700832D01*
X104220507Y-123708140D01*
G37*
D16*
X101996339Y-89208630D03*
X101996390Y-101208630D03*
D17*
X102546390Y-92458681D03*
D18*
X102546390Y-97958681D03*
D17*
X114146390Y-92458681D03*
D18*
X114146390Y-97958681D03*
D16*
X114696339Y-89208630D03*
X114696390Y-101208630D03*
D19*
X105846390Y-97858681D03*
X110846390Y-97858681D03*
D20*
X100822190Y-105995881D03*
D16*
X119996139Y-69408630D03*
X119996190Y-81408630D03*
D17*
X120546190Y-72658681D03*
D18*
X120546190Y-78158681D03*
D17*
X132146190Y-72658681D03*
D18*
X132146190Y-78158681D03*
D16*
X132696139Y-69408630D03*
X132696190Y-81408630D03*
D19*
X123846190Y-78058681D03*
X128846190Y-78058681D03*
D16*
X101996339Y-72208630D03*
X101996390Y-84208630D03*
D17*
X102546390Y-75458681D03*
D18*
X102546390Y-80958681D03*
D17*
X114146390Y-75458681D03*
D18*
X114146390Y-80958681D03*
D16*
X114696339Y-72208630D03*
X114696390Y-84208630D03*
D19*
X105846390Y-80858681D03*
X110846390Y-80858681D03*
D16*
X119996139Y-86408630D03*
X119996190Y-98408630D03*
D17*
X120546190Y-89658681D03*
D18*
X120546190Y-95158681D03*
D17*
X132146190Y-89658681D03*
D18*
X132146190Y-95158681D03*
D16*
X132696139Y-86408630D03*
X132696190Y-98408630D03*
D19*
X123846190Y-95058681D03*
X128846190Y-95058681D03*
D21*
X145164349Y-128682469D03*
X148138683Y-129074047D03*
D16*
X101996339Y-55208630D03*
X101996390Y-67208630D03*
D17*
X102546390Y-58458681D03*
D18*
X102546390Y-63958681D03*
D17*
X114146390Y-58458681D03*
D18*
X114146390Y-63958681D03*
D16*
X114696339Y-55208630D03*
X114696390Y-67208630D03*
D19*
X105846390Y-63858681D03*
X110846390Y-63858681D03*
D16*
X83996539Y-92208430D03*
X83996590Y-104208430D03*
D17*
X84546590Y-95458481D03*
D18*
X84546590Y-100958481D03*
D17*
X96146590Y-95458481D03*
D18*
X96146590Y-100958481D03*
D16*
X96696539Y-92208430D03*
X96696590Y-104208430D03*
D19*
X87846590Y-100858481D03*
X92846590Y-100858481D03*
D16*
X137995939Y-55208430D03*
X137995990Y-67208430D03*
D17*
X138545990Y-58458481D03*
D18*
X138545990Y-63958481D03*
D17*
X150145990Y-58458481D03*
D18*
X150145990Y-63958481D03*
D16*
X150695939Y-55208430D03*
X150695990Y-67208430D03*
D19*
X141845990Y-63858481D03*
X146845990Y-63858481D03*
D20*
X158937390Y-113057081D03*
D16*
X119996139Y-52408630D03*
X119996190Y-64408630D03*
D17*
X120546190Y-55658681D03*
D18*
X120546190Y-61158681D03*
D17*
X132146190Y-55658681D03*
D18*
X132146190Y-61158681D03*
D16*
X132696139Y-52408630D03*
X132696190Y-64408630D03*
D19*
X123846190Y-61058681D03*
X128846190Y-61058681D03*
D16*
X137995939Y-89208630D03*
X137995990Y-101208630D03*
D17*
X138545990Y-92458681D03*
D18*
X138545990Y-97958681D03*
D17*
X150145990Y-92458681D03*
D18*
X150145990Y-97958681D03*
D16*
X150695939Y-89208630D03*
X150695990Y-101208630D03*
D19*
X141845990Y-97858681D03*
X146845990Y-97858681D03*
D16*
X137995939Y-72208630D03*
X137995990Y-84208630D03*
D17*
X138545990Y-75458681D03*
D18*
X138545990Y-80958681D03*
D17*
X150145990Y-75458681D03*
D18*
X150145990Y-80958681D03*
D16*
X150695939Y-72208630D03*
X150695990Y-84208630D03*
D19*
X141845990Y-80858681D03*
X146845990Y-80858681D03*
D22*
X88850169Y-127608944D03*
X91368439Y-127277407D03*
X93886709Y-126945871D03*
X96404979Y-126614334D03*
X98923249Y-126282798D03*
X101441518Y-125951261D03*
X103959788Y-125619725D03*
D23*
X98647160Y-124185697D03*
X88574080Y-125511840D03*
X91092350Y-125180303D03*
X93610620Y-124848767D03*
X96128890Y-124517230D03*
X101165429Y-123854157D03*
X103683699Y-123522617D03*
D24*
X99744365Y-113060099D03*
X87153015Y-114717781D03*
X89671285Y-114386245D03*
X92189555Y-114054708D03*
X94707825Y-113723172D03*
X97226095Y-113391635D03*
X102262635Y-112728562D03*
D22*
X96951964Y-111309404D03*
X86878884Y-112635549D03*
X89397154Y-112304012D03*
X91915424Y-111972476D03*
X94433694Y-111640939D03*
X99470234Y-110977866D03*
X101988507Y-110646329D03*
D25*
X88441465Y-124504532D03*
X90959735Y-124172995D03*
X93478005Y-123841459D03*
X95996275Y-123509922D03*
X98514545Y-123178386D03*
X101032815Y-122846849D03*
X103551085Y-122515312D03*
D26*
X102395249Y-113735870D03*
X99876979Y-114067405D03*
X97358709Y-114398943D03*
X94840439Y-114730480D03*
X92322169Y-115062016D03*
X89803900Y-115393553D03*
X87285630Y-115725089D03*
D20*
X97332800Y-53543200D03*
D16*
X83996539Y-75208430D03*
X83996590Y-87208430D03*
D17*
X84546590Y-78458481D03*
D18*
X84546590Y-83958481D03*
D17*
X96146590Y-78458481D03*
D18*
X96146590Y-83958481D03*
D16*
X96696539Y-75208430D03*
X96696590Y-87208430D03*
D19*
X87846590Y-83858481D03*
X92846590Y-83858481D03*
D16*
X83996539Y-58208630D03*
X83996590Y-70208630D03*
D17*
X84546590Y-61458681D03*
D18*
X84546590Y-66958681D03*
D17*
X96146590Y-61458681D03*
D18*
X96146590Y-66958681D03*
D16*
X96696539Y-58208630D03*
X96696590Y-70208630D03*
D19*
X87846590Y-66858681D03*
X92846590Y-66858681D03*
D16*
X155995739Y-93498230D03*
X155995790Y-105498230D03*
D17*
X156545790Y-96748281D03*
D18*
X156545790Y-102248281D03*
D17*
X168145790Y-96748281D03*
D18*
X168145790Y-102248281D03*
D16*
X168695739Y-93498230D03*
X168695790Y-105498230D03*
D19*
X159845790Y-102148281D03*
X164845790Y-102148281D03*
D20*
X154894000Y-53848000D03*
D27*
X161988223Y-116285949D03*
X158882444Y-127877072D03*
D18*
X160254852Y-124880213D03*
D17*
X161678358Y-119567621D03*
D18*
X171459590Y-127882513D03*
D17*
X172883096Y-122569921D03*
D27*
X174255481Y-119572951D03*
X171149702Y-131164074D03*
D28*
X163468289Y-125637723D03*
X168297918Y-126931818D03*
D20*
X133604000Y-119888000D03*
D29*
X142281171Y-113287729D03*
X140714908Y-125185074D03*
D17*
X142402300Y-116581772D03*
D18*
X141684406Y-122034718D03*
D17*
X153903060Y-118095876D03*
D18*
X153185166Y-123548822D03*
D29*
X154872521Y-114945412D03*
X153306257Y-126842757D03*
D30*
X144969226Y-122366310D03*
X149926451Y-123018941D03*
D20*
X111363786Y-122815980D03*
D16*
X155995739Y-59498230D03*
X155995790Y-71498230D03*
D17*
X156545790Y-62748281D03*
D18*
X156545790Y-68248281D03*
D17*
X168145790Y-62748281D03*
D18*
X168145790Y-68248281D03*
D16*
X168695739Y-59498230D03*
X168695790Y-71498230D03*
D19*
X159845790Y-68148281D03*
X164845790Y-68148281D03*
D16*
X155995739Y-76498230D03*
X155995790Y-88498230D03*
D17*
X156545790Y-79748281D03*
D18*
X156545790Y-85248281D03*
D17*
X168145790Y-79748281D03*
D18*
X168145790Y-85248281D03*
D16*
X168695739Y-76498230D03*
X168695790Y-88498230D03*
D19*
X159845790Y-85148281D03*
X164845790Y-85148281D03*
D31*
X105952990Y-92508281D03*
X109352990Y-92508281D03*
X159925990Y-79798281D03*
X163325990Y-79798281D03*
X159925990Y-96742281D03*
X163325990Y-96742281D03*
X123943590Y-55709081D03*
X127343590Y-55709081D03*
X141930790Y-75508281D03*
X145330790Y-75508281D03*
X87934190Y-78665481D03*
X91334190Y-78665481D03*
D32*
X116419397Y-121589800D03*
D33*
X116078000Y-123561277D03*
D34*
X116078000Y-123190000D03*
D35*
X116072603Y-123901200D03*
D36*
X115829397Y-121589800D03*
D37*
X150126711Y-130445267D03*
X150415174Y-128254174D03*
D21*
X148138683Y-129074047D03*
X145164349Y-128682469D03*
D37*
X143177627Y-127301333D03*
X142889163Y-129492426D03*
D38*
X149111993Y-127426999D03*
X146137659Y-127035420D03*
X144650491Y-126839631D03*
D31*
X123943590Y-72708281D03*
X127343590Y-72708281D03*
X141930790Y-58508081D03*
X145330790Y-58508081D03*
X123943590Y-89708281D03*
X127343590Y-89708281D03*
X141930790Y-92508281D03*
X145330790Y-92508281D03*
D39*
X153309390Y-108195681D03*
X153309390Y-106945681D03*
D40*
X148434390Y-111045681D03*
X148434390Y-104095681D03*
D41*
X149049502Y-117539473D03*
X145678590Y-117095681D03*
D31*
X105952990Y-75508281D03*
X109352990Y-75508281D03*
X87934190Y-95632681D03*
X91334190Y-95632681D03*
X87934190Y-61509081D03*
X91334190Y-61509081D03*
X105952990Y-58509081D03*
X109352990Y-58509081D03*
D42*
X164830190Y-120448481D03*
X168114338Y-121328465D03*
D31*
X159925990Y-62798281D03*
X163325990Y-62798281D03*
%LPD*%
M02*
