  0
SECTION
  2
HEADER
  9
$ANGBASE
  50
0.0
  9
$ANGDIR
  70
1
  9
$MEASUREMENT
  70
1
  0
ENDSEC
  0
SECTION
  2
TABLES
  0
TABLE
  2
LTYPE
  70
4
  0
LTYPE
  5
40F
  2
CONTINUOUS
  70
0
  3
Solid line
  72
65
  73
0
  40
0.0
  0
LTYPE
  5
410
  2
DASHDOT
 70
0
  3
Dash Dot ____ _ ____ _
 72
65
 73
4
 40
2.0
 49
1.25
 49
-0.25
 49
0.25
 49
-0.25
  0
LTYPE
  5
411
  2
DASHED
 70
0
  3
Dashed __ __ __ __ __
 72
65
 73
2
 40
0.75
 49
0.5
 49
-0.25
  0
LTYPE
  5
43B
  2
DOTTED
 70
0
  3
Dotted .  .  .  .
 72
65
 73
2
 40
0.2
 49
0.0
 49
-0.2
  0
ENDTAB
  0
TABLE
  2
STYLE
  70
4
  0
STYLE
  2
KICAD
  70
0
  40
0
  41
1
  42
1
  50
0
  71
0
  3
isocp.shx
  0
STYLE
  2
KICADB
  70
0
  40
0
  41
1
  42
1
  50
0
  71
0
  3
isocp.shx
  0
STYLE
  2
KICADI
  70
0
  40
0
  41
1
  42
1
  50
15
  71
0
  3
isocp.shx
  0
STYLE
  2
KICADBI
  70
0
  40
0
  41
1
  42
1
  50
15
  71
0
  3
isocp.shx
  0
ENDTAB
  0
TABLE
  2
LAYER
  70
1
  0
LAYER
  2
BLACK
  70
0
  62
7
  6
CONTINUOUS
  0
ENDTAB
  0
ENDSEC
  0
SECTION
  2
ENTITIES
0
ARC
8
BLACK
10
107.0384999999999991
20
-125.7306999999999988
40
1.4000505091120818
50
-82.49790742
51
7.49557255
0
ARC
8
BLACK
10
134.8949999999999818
20
-121.195699999999988
40
1.0000424599645756
50
-82.49781011
51
-7.51007053
0
LINE
8
BLACK
6
CONTINUOUS
10
137.0575639999999851
20
-129.52276999999998
11
155.252728999999988
21
-131.9182089999999903
0
LINE
8
BLACK
6
CONTINUOUS
10
173.1281119999999873
20
-56.858590999999997
11
173.1281119999999873
21
-106.5020869999999888
0
LINE
8
BLACK
6
CONTINUOUS
10
80.8869189999999918
20
-109.9298280000000005
11
80.4871849999999966
21
-109.9824539999999899
0
LINE
8
BLACK
6
CONTINUOUS
10
155.4323389999999847
20
-131.9539359999999988
11
172.7734499999999969
21
-136.6004719999999963
0
ARC
8
BLACK
10
171.3536000000000001
20
-56.8451999999999984
40
1.7745227752835409
50
-0.43236294
51
73.54012594
0
LINE
8
BLACK
6
CONTINUOUS
10
107.2117689999999897
20
-104.6859999999999928
11
137.395717999999988
21
-104.6859999999999928
0
ARC
8
BLACK
10
155.0699999999999932
20
-133.3058999999999799
40
1.399670032158294
50
74.99678388
51
82.49853837
0
LINE
8
BLACK
6
CONTINUOUS
10
181.0431889999999839
20
-111.146569999999997
11
174.4880929999999921
21
-135.6105230000000006
0
LINE
8
BLACK
6
CONTINUOUS
10
82.0089449999999971
20
-110.7911649999999923
11
84.3610520000000008
21
-128.7156129999999905
0
LINE
8
BLACK
6
CONTINUOUS
10
110.2693839999999881
20
-125.4463760000000008
11
135.0255669999999952
21
-122.1871620000000007
0
ARC
8
BLACK
10
81.017399999999995
20
-110.9213999999999913
40
1.0001201540540017
50
7.48271081
51
97.49648243
0
ARC
8
BLACK
10
106.7171000000000021
20
-104.8859999999999957
40
0.9999872235683813
50
-270.00068755
51
-172.49991473
0
ARC
8
BLACK
10
126.1210699999999889
20
-188.0764199999999846
40
140.5806104763432245
50
71.01432751
51
109.08090272
0
LINE
8
BLACK
6
CONTINUOUS
10
109.1474130000000002
20
-124.585456999999991
11
106.6169019999999961
21
-105.3643160000000023
0
LINE
8
BLACK
6
CONTINUOUS
10
106.7171120000000002
20
-103.8859999999999957
11
137.880092999999988
21
-103.8885579999999891
0
LINE
8
BLACK
6
CONTINUOUS
10
137.990571999999986
20
-105.3644139999999965
11
135.8864639999999895
21
-121.3264059999999915
0
LINE
8
BLACK
6
CONTINUOUS
10
105.7256679999999989
20
-105.0165259999999989
11
108.4265869999999978
21
-125.5480639999999966
0
ARC
8
BLACK
10
174.5280999999999949
20
-106.5020999999999987
40
1.3999842728809491
50
-180.00053204
51
-104.99967830
0
ARC
8
BLACK
10
137.8799999999999955
20
-104.8885999999999967
40
1.0000420043243183
50
-7.49751996
51
89.99467172
0
ARC
8
BLACK
10
137.395700000000005
20
-105.2860000000000014
40
0.6000000002699999
50
-7.50924157
51
89.99828113
0
ARC
8
BLACK
10
137.2402999999999906
20
-128.1346999999999809
40
1.4000467030052961
50
-187.49811602
51
-97.49972076
0
LINE
8
BLACK
6
CONTINUOUS
10
78.9044480000000021
20
-56.858590999999997
11
78.9044480000000021
21
-108.5944310000000002
0
LINE
8
BLACK
6
CONTINUOUS
10
138.8714559999999949
20
-105.0190839999999923
11
135.8522789999999816
21
-127.9520099999999871
0
LINE
8
BLACK
6
CONTINUOUS
10
85.9318889999999982
20
-129.9214849999999899
11
107.2212829999999997
21
-127.1186829999999901
0
ARC
8
BLACK
10
110.1388999999999925
20
-124.454899999999995
40
1.0000253660942806
50
-172.49856515
51
-82.50262956
0
ARC
8
BLACK
10
80.3044000000000011
20
-108.5943999999999932
40
1.4000372363408766
50
-179.99873126
51
-82.49820564
0
ARC
8
BLACK
10
80.5900000000000034
20
-56.8506999999999962
40
1.6855704709637622
50
-255.39104388
51
-179.73176877
0
ARC
8
BLACK
10
173.135799999999989
20
-135.2481999999999971
40
1.3999908264620879
50
-105.00038779
51
-14.99909800
0
LINE
8
BLACK
6
CONTINUOUS
10
174.1657649999999933
20
-107.8543829999999986
11
180.0532399999999882
21
-109.43192599999999
0
ARC
8
BLACK
10
107.2117999999999967
20
-105.2860000000000014
40
0.6000308544233371
50
-269.99703972
51
-172.50036046
0
ARC
8
BLACK
10
85.7492000000000019
20
-128.533299999999997
40
1.4001545860889788
50
-172.51785845
51
-82.50280030
0
ARC
8
BLACK
10
179.6908999999999992
20
-110.7841999999999985
40
1.3999768736218465
50
-15.00099834
51
75.00002871
0
CIRCLE
8
BLACK
10
100.822189999999992
20
-105.9958809999999971
40
1.0999999999999999
0
LINE
8
BLACK
6
CONTINUOUS
10
142.0736339999999984
20
-129.9410159999999905
11
142.5112619999999879
21
-126.6169000000000011
0
LINE
8
BLACK
6
CONTINUOUS
10
143.7807080000000042
20
-126.7840259999999972
11
142.5112619999999879
21
-126.6169000000000011
0
LINE
8
BLACK
6
CONTINUOUS
10
143.7807080000000042
20
-126.7840259999999972
11
143.9199539999999899
21
-125.7263519999999914
0
LINE
8
BLACK
6
CONTINUOUS
10
143.9199539999999899
20
-125.7263519999999914
11
150.0554109999999923
21
-126.5341009999999926
0
LINE
8
BLACK
6
CONTINUOUS
10
149.916166000000004
20
-127.5917740000000009
11
150.0554109999999923
21
-126.5341009999999926
0
LINE
8
BLACK
6
CONTINUOUS
10
149.916166000000004
20
-127.5917740000000009
11
151.2359769999999912
21
-127.7655299999999983
0
LINE
8
BLACK
6
CONTINUOUS
10
150.7983490000000018
20
-131.0896469999999852
11
142.0736339999999984
21
-129.9410159999999905
0
LINE
8
BLACK
6
CONTINUOUS
10
151.2359769999999912
20
-127.7655299999999983
11
150.7983490000000018
21
-131.0896469999999852
0
CIRCLE
8
BLACK
10
158.9373899999999935
20
-113.0570809999999966
40
1.0999999999999999
0
CIRCLE
8
BLACK
10
86.8788839999999993
20
-112.6355489999999975
40
1.05
0
CIRCLE
8
BLACK
10
88.850168999999994
20
-127.6089439999999939
40
1.05
0
CIRCLE
8
BLACK
10
89.3971540000000005
20
-112.3040120000000002
40
1.05
0
CIRCLE
8
BLACK
10
91.3684389999999951
20
-127.2774069999999966
40
1.05
0
CIRCLE
8
BLACK
10
91.9154240000000016
20
-111.9724760000000003
40
1.0500019999999999
0
CIRCLE
8
BLACK
10
93.8867089999999962
20
-126.9458709999999968
40
1.05
0
CIRCLE
8
BLACK
10
94.4336940000000027
20
-111.6409389999999888
40
1.05
0
CIRCLE
8
BLACK
10
96.4049789999999973
20
-126.6143339999999995
40
1.05
0
CIRCLE
8
BLACK
10
96.9519639999999896
20
-111.3094040000000007
40
1.0500019999999999
0
CIRCLE
8
BLACK
10
98.9232489999999984
20
-126.2827979999999997
40
1.05
0
CIRCLE
8
BLACK
10
99.4702339999999907
20
-110.9778659999999917
40
1.05
0
CIRCLE
8
BLACK
10
101.4415180000000021
20
-125.9512609999999881
40
1.05
0
CIRCLE
8
BLACK
10
101.9885069999999985
20
-110.6463289999999944
40
1.05
0
CIRCLE
8
BLACK
10
103.959787999999989
20
-125.6197249999999883
40
1.05
0
LINE
8
BLACK
6
CONTINUOUS
10
88.0885269999999991
20
-116.0440179999999941
11
86.5775649999999928
21
-116.2429399999999902
0
LINE
8
BLACK
6
CONTINUOUS
10
86.5775649999999928
20
-116.2429399999999902
11
86.3189670000000007
21
-114.2786899999999974
0
LINE
8
BLACK
6
CONTINUOUS
10
86.3189670000000007
20
-114.2786899999999974
11
87.8299289999999928
21
-114.0797680000000014
0
LINE
8
BLACK
6
CONTINUOUS
10
87.8299289999999928
20
-114.0797680000000014
11
88.0885269999999991
21
-116.0440179999999941
0
LINE
8
BLACK
6
CONTINUOUS
10
89.3939199999999943
20
-125.9594599999999929
11
87.8829580000000021
21
-126.158379999999994
0
LINE
8
BLACK
6
CONTINUOUS
10
87.8829580000000021
20
-126.158379999999994
11
87.6243589999999983
21
-124.1941300000000012
0
LINE
8
BLACK
6
CONTINUOUS
10
87.6243589999999983
20
-124.1941300000000012
11
89.1353209999999905
21
-123.995207999999991
0
LINE
8
BLACK
6
CONTINUOUS
10
89.1353209999999905
20
-123.995207999999991
11
89.3939199999999943
21
-125.9594599999999929
0
LINE
8
BLACK
6
CONTINUOUS
10
90.6067970000000003
20
-115.7124819999999943
11
89.0958349999999939
21
-115.9114039999999903
0
LINE
8
BLACK
6
CONTINUOUS
10
89.0958349999999939
20
-115.9114039999999903
11
88.8372370000000018
21
-113.9471530000000001
0
LINE
8
BLACK
6
CONTINUOUS
10
88.8372370000000018
20
-113.9471530000000001
11
90.3481989999999939
21
-113.7482309999999899
0
LINE
8
BLACK
6
CONTINUOUS
10
90.3481989999999939
20
-113.7482309999999899
11
90.6067970000000003
21
-115.7124819999999943
0
LINE
8
BLACK
6
CONTINUOUS
10
91.9121889999999979
20
-125.6279219999999981
11
90.401227999999989
21
-125.8268439999999941
0
LINE
8
BLACK
6
CONTINUOUS
10
90.401227999999989
20
-125.8268439999999941
11
90.1426289999999995
21
-123.8625929999999897
0
LINE
8
BLACK
6
CONTINUOUS
10
90.1426289999999995
20
-123.8625929999999897
11
91.6535909999999916
21
-123.6636709999999937
0
LINE
8
BLACK
6
CONTINUOUS
10
91.6535909999999916
20
-123.6636709999999937
11
91.9121889999999979
21
-125.6279219999999981
0
LINE
8
BLACK
6
CONTINUOUS
10
93.1250670000000014
20
-115.380944999999997
11
91.614104999999995
21
-115.579866999999993
0
LINE
8
BLACK
6
CONTINUOUS
10
91.614104999999995
20
-115.579866999999993
11
91.3555070000000029
21
-113.6156170000000003
0
LINE
8
BLACK
6
CONTINUOUS
10
91.3555070000000029
20
-113.6156170000000003
11
92.8664679999999976
21
-113.41669499999999
0
LINE
8
BLACK
6
CONTINUOUS
10
92.8664679999999976
20
-113.41669499999999
11
93.1250670000000014
21
-115.380944999999997
0
LINE
8
BLACK
6
CONTINUOUS
10
94.430458999999999
20
-125.2963829999999916
11
92.9194969999999927
21
-125.4953069999999968
0
LINE
8
BLACK
6
CONTINUOUS
10
92.9194969999999927
20
-125.4953069999999968
11
92.6608990000000006
21
-123.5310569999999899
0
LINE
8
BLACK
6
CONTINUOUS
10
92.6608990000000006
20
-123.5310569999999899
11
94.1718609999999927
21
-123.3321349999999939
0
LINE
8
BLACK
6
CONTINUOUS
10
94.1718609999999927
20
-123.3321349999999939
11
94.430458999999999
21
-125.2963829999999916
0
LINE
8
BLACK
6
CONTINUOUS
10
95.6433370000000025
20
-115.0494089999999971
11
94.1323749999999961
21
-115.2483309999999932
0
LINE
8
BLACK
6
CONTINUOUS
10
94.1323749999999961
20
-115.2483309999999932
11
93.8737759999999923
21
-113.2840799999999888
0
LINE
8
BLACK
6
CONTINUOUS
10
93.8737759999999923
20
-113.2840799999999888
11
95.3847379999999987
21
-113.0851579999999927
0
LINE
8
BLACK
6
CONTINUOUS
10
95.3847379999999987
20
-113.0851579999999927
11
95.6433370000000025
21
-115.0494089999999971
0
LINE
8
BLACK
6
CONTINUOUS
10
96.9487290000000002
20
-124.964849000000001
11
95.4377669999999938
21
-125.163770999999997
0
LINE
8
BLACK
6
CONTINUOUS
10
95.4377669999999938
20
-125.163770999999997
11
95.1791690000000017
21
-123.1995199999999926
0
LINE
8
BLACK
6
CONTINUOUS
10
95.1791690000000017
20
-123.1995199999999926
11
96.6901309999999938
21
-123.0005979999999965
0
LINE
8
BLACK
6
CONTINUOUS
10
96.6901309999999938
20
-123.0005979999999965
11
96.9487290000000002
21
-124.964849000000001
0
LINE
8
BLACK
6
CONTINUOUS
10
98.1616069999999894
20
-114.7178719999999998
11
96.6506449999999973
21
-114.9167939999999959
0
LINE
8
BLACK
6
CONTINUOUS
10
96.6506449999999973
20
-114.9167939999999959
11
96.3920459999999935
21
-112.952543999999989
0
LINE
8
BLACK
6
CONTINUOUS
10
96.3920459999999935
20
-112.952543999999989
11
97.9030079999999998
21
-112.7536219999999929
0
LINE
8
BLACK
6
CONTINUOUS
10
97.9030079999999998
20
-112.7536219999999929
11
98.1616069999999894
21
-114.7178719999999998
0
LINE
8
BLACK
6
CONTINUOUS
10
99.4669990000000013
20
-124.6333119999999894
11
97.9560369999999949
21
-124.8322339999999997
0
LINE
8
BLACK
6
CONTINUOUS
10
97.9560369999999949
20
-124.8322339999999997
11
97.6974389999999886
21
-122.8679839999999928
0
LINE
8
BLACK
6
CONTINUOUS
10
97.6974389999999886
20
-122.8679839999999928
11
99.208400999999995
21
-122.6690619999999967
0
LINE
8
BLACK
6
CONTINUOUS
10
99.208400999999995
20
-122.6690619999999967
11
99.4669990000000013
21
-124.6333119999999894
0
LINE
8
BLACK
6
CONTINUOUS
10
100.6798769999999905
20
-114.386336
11
99.1689149999999984
21
-114.5852579999999961
0
LINE
8
BLACK
6
CONTINUOUS
10
99.1689149999999984
20
-114.5852579999999961
11
98.9103159999999946
21
-112.6210069999999916
0
LINE
8
BLACK
6
CONTINUOUS
10
98.9103159999999946
20
-112.6210069999999916
11
100.4212780000000009
21
-112.4220849999999956
0
LINE
8
BLACK
6
CONTINUOUS
10
100.4212780000000009
20
-112.4220849999999956
11
100.6798769999999905
21
-114.386336
0
LINE
8
BLACK
6
CONTINUOUS
10
101.9852690000000024
20
-124.3017759999999896
11
100.474306999999996
21
-124.5006979999999999
0
LINE
8
BLACK
6
CONTINUOUS
10
100.474306999999996
20
-124.5006979999999999
11
100.2157089999999897
21
-122.5364469999999955
0
LINE
8
BLACK
6
CONTINUOUS
10
100.2157089999999897
20
-122.5364469999999955
11
101.7266709999999961
21
-122.3375249999999994
0
LINE
8
BLACK
6
CONTINUOUS
10
101.7266709999999961
20
-122.3375249999999994
11
101.9852690000000024
21
-124.3017759999999896
0
LINE
8
BLACK
6
CONTINUOUS
10
103.1981469999999916
20
-114.0547989999999885
11
101.6871849999999995
21
-114.2537209999999988
0
LINE
8
BLACK
6
CONTINUOUS
10
101.6871849999999995
20
-114.2537209999999988
11
101.4285859999999957
21
-112.2894709999999918
0
LINE
8
BLACK
6
CONTINUOUS
10
101.4285859999999957
20
-112.2894709999999918
11
102.939548000000002
21
-112.0905489999999958
0
LINE
8
BLACK
6
CONTINUOUS
10
102.939548000000002
20
-112.0905489999999958
11
103.1981469999999916
21
-114.0547989999999885
0
LINE
8
BLACK
6
CONTINUOUS
10
104.5035389999999893
20
-123.9702389999999923
11
102.9925769999999972
21
-124.1691609999999883
0
LINE
8
BLACK
6
CONTINUOUS
10
102.9925769999999972
20
-124.1691609999999883
11
102.7339789999999908
21
-122.2049109999999956
0
LINE
8
BLACK
6
CONTINUOUS
10
102.7339789999999908
20
-122.2049109999999956
11
104.2449409999999972
21
-122.0059889999999996
0
LINE
8
BLACK
6
CONTINUOUS
10
104.2449409999999972
20
-122.0059889999999996
11
104.5035389999999893
21
-123.9702389999999923
0
CIRCLE
8
BLACK
10
97.3327999999999918
20
-53.5431999999999988
40
1.0999999999999999
0
LINE
8
BLACK
6
CONTINUOUS
10
154.2177899999999795
20
-103.7098809999999958
11
147.7407900000000041
21
-103.7098809999999958
0
LINE
8
BLACK
6
CONTINUOUS
10
147.7407900000000041
20
-103.7098809999999958
11
147.7407900000000041
21
-111.4314809999999909
0
LINE
8
BLACK
6
CONTINUOUS
10
147.7407900000000041
20
-111.4314809999999909
11
154.2177899999999795
21
-111.4314809999999909
0
LINE
8
BLACK
6
CONTINUOUS
10
154.2177899999999795
20
-111.4314809999999909
11
154.2177899999999795
21
-103.7098809999999958
0
CIRCLE
8
BLACK
10
154.8940000000000055
20
-53.847999999999999
40
1.0999999999999999
0
CIRCLE
8
BLACK
10
133.603999999999985
20
-119.887999999999991
40
1.0999999999999999
0
CIRCLE
8
BLACK
10
111.3637859999999904
20
-122.8159799999999962
40
1.0999999999999999
  0
ENDSEC
  0
EOF
