  0
SECTION
  2
HEADER
  9
$ANGBASE
  50
0.0
  9
$ANGDIR
  70
1
  9
$MEASUREMENT
  70
1
  0
ENDSEC
  0
SECTION
  2
TABLES
  0
TABLE
  2
LTYPE
  70
4
  0
LTYPE
  5
40F
  2
CONTINUOUS
  70
0
  3
Solid line
  72
65
  73
0
  40
0.0
  0
LTYPE
  5
410
  2
DASHDOT
 70
0
  3
Dash Dot ____ _ ____ _
 72
65
 73
4
 40
2.0
 49
1.25
 49
-0.25
 49
0.25
 49
-0.25
  0
LTYPE
  5
411
  2
DASHED
 70
0
  3
Dashed __ __ __ __ __
 72
65
 73
2
 40
0.75
 49
0.5
 49
-0.25
  0
LTYPE
  5
43B
  2
DOTTED
 70
0
  3
Dotted .  .  .  .
 72
65
 73
2
 40
0.2
 49
0.0
 49
-0.2
  0
ENDTAB
  0
TABLE
  2
STYLE
  70
4
  0
STYLE
  2
KICAD
  70
0
  40
0
  41
1
  42
1
  50
0
  71
0
  3
isocp.shx
  0
STYLE
  2
KICADB
  70
0
  40
0
  41
1
  42
1
  50
0
  71
0
  3
isocp.shx
  0
STYLE
  2
KICADI
  70
0
  40
0
  41
1
  42
1
  50
15
  71
0
  3
isocp.shx
  0
STYLE
  2
KICADBI
  70
0
  40
0
  41
1
  42
1
  50
15
  71
0
  3
isocp.shx
  0
ENDTAB
  0
TABLE
  2
LAYER
  70
1
  0
LAYER
  2
BLACK
  70
0
  62
7
  6
CONTINUOUS
  0
ENDTAB
  0
ENDSEC
  0
SECTION
  2
ENTITIES
0
LINE
8
BLACK
6
CONTINUOUS
10
57.8753
20
-118.007
11
42.457
21
-126.87
0
LINE
8
BLACK
6
CONTINUOUS
10
149.321
20
-110.697
11
149.321
21
-60.3492
0
LINE
8
BLACK
6
CONTINUOUS
10
58.6627
20
-116.636
11
58.6629
21
-95.3504
0
ARC
8
BLACK
10
82.2201
20
-168.161
40
37.0025
50
105.19
51
119.02
0
ARC
8
BLACK
10
51.0826
20
-141.68
40
1.49359
50
-146.246
51
-63.5611
0
ARC
8
BLACK
10
58.252
20
-58.3515
40
1.82479
50
-245.458
51
-179.481
0
ARC
8
BLACK
10
147.835
20
-110.74
40
1.48697
50
-73.6605
51
1.64846
0
ARC
8
BLACK
10
100.973
20
-159.185
40
111.334
50
64.9569
51
112.987
0
LINE
8
BLACK
6
CONTINUOUS
10
64.2698
20
-135.804
11
51.7476
21
-143.017
0
LINE
8
BLACK
6
CONTINUOUS
10
72.5248
20
-132.451
11
148.253
21
-112.167
0
ARC
8
BLACK
10
58.1057
20
-91.6562
40
1.67973
50
-182.217
51
-134.161
0
ARC
8
BLACK
10
147.15
20
-60.2704
40
2.17201
50
-2.08005
51
64.0587
0
LINE
8
BLACK
6
CONTINUOUS
10
56.4272
20
-91.5912
11
56.4272
21
-58.368
0
ARC
8
BLACK
10
56.9845
20
-95.2854
40
1.67973
50
-2.2172
51
45.8391
0
ARC
8
BLACK
10
43.3014
20
-128.133
40
1.51967
50
-236.246
51
-152.823
0
ARC
8
BLACK
10
57.1939
20
-116.704
40
1.47043
50
-62.3918
51
2.67371
0
LINE
8
BLACK
6
CONTINUOUS
10
58.1547
20
-94.0804
11
56.9355
21
-92.8612
0
LINE
8
BLACK
6
CONTINUOUS
10
41.9495
20
-128.828
11
49.8408
21
-142.51
0
ARC
8
BLACK
10
243.448
20
-116.704
40
1.47043
50
-182.674
51
-117.608
0
ARC
8
BLACK
10
243.657
20
-95.2854
40
1.67973
50
-225.839
51
-177.783
0
LINE
8
BLACK
6
CONTINUOUS
10
243.706
20
-92.8612
11
242.487
21
-94.0804
0
LINE
8
BLACK
6
CONTINUOUS
10
250.801
20
-142.51
11
258.692
21
-128.828
0
ARC
8
BLACK
10
257.34
20
-128.133
40
1.51967
50
-27.1772
51
56.2462
0
LINE
8
BLACK
6
CONTINUOUS
10
258.185
20
-126.87
11
242.767
21
-118.007
0
LINE
8
BLACK
6
CONTINUOUS
10
244.215
20
-58.368
11
244.215
21
-91.5912
0
ARC
8
BLACK
10
153.491
20
-60.2704
40
2.17199
50
-244.059
51
-177.92
0
ARC
8
BLACK
10
242.536
20
-91.6562
40
1.67973
50
-45.8391
51
2.2172
0
LINE
8
BLACK
6
CONTINUOUS
10
152.389
20
-112.167
11
228.117
21
-132.451
0
LINE
8
BLACK
6
CONTINUOUS
10
248.894
20
-143.017
11
236.372
21
-135.804
0
ARC
8
BLACK
10
199.669
20
-159.185
40
111.334
50
67.0127
51
115.043
0
ARC
8
BLACK
10
152.807
20
-110.74
40
1.48705
50
-181.648
51
-106.339
0
ARC
8
BLACK
10
242.39
20
-58.3515
40
1.82471
50
-0.519152
51
65.4581
0
ARC
8
BLACK
10
249.559
20
-141.68
40
1.49355
50
-116.439
51
-33.7536
0
ARC
8
BLACK
10
218.422
20
-168.161
40
37.0025
50
60.9803
51
74.8102
0
LINE
8
BLACK
6
CONTINUOUS
10
241.979
20
-95.3504
11
241.979
21
-116.636
0
LINE
8
BLACK
6
CONTINUOUS
10
151.321
20
-60.3492
11
151.321
21
-110.697
0
LINE
8
BLACK
6
CONTINUOUS
10
77.5944
20
-104.012
11
92.3944
21
-104.012
0
LINE
8
BLACK
6
CONTINUOUS
10
92.3944
20
-104.012
11
92.3944
21
-89.2119
0
LINE
8
BLACK
6
CONTINUOUS
10
92.3944
20
-89.2119
11
77.5944
21
-89.2119
0
LINE
8
BLACK
6
CONTINUOUS
10
77.5944
20
-89.2119
11
77.5944
21
-104.012
0
LINE
8
BLACK
6
CONTINUOUS
10
59.5096
20
-72.5155
11
74.3096
21
-72.5155
0
LINE
8
BLACK
6
CONTINUOUS
10
74.3096
20
-72.5155
11
74.3096
21
-57.7155
0
LINE
8
BLACK
6
CONTINUOUS
10
74.3096
20
-57.7155
11
59.5096
21
-57.7155
0
LINE
8
BLACK
6
CONTINUOUS
10
59.5096
20
-57.7155
11
59.5096
21
-72.5155
0
CIRCLE
8
BLACK
10
128.31
20
-108.854
40
1.6
0
LINE
8
BLACK
6
CONTINUOUS
10
131.849
20
-91.7639
11
146.649
21
-91.7639
0
LINE
8
BLACK
6
CONTINUOUS
10
146.649
20
-91.7639
11
146.649
21
-76.9639
0
LINE
8
BLACK
6
CONTINUOUS
10
146.649
20
-76.9639
11
131.849
21
-76.9639
0
LINE
8
BLACK
6
CONTINUOUS
10
131.849
20
-76.9639
11
131.849
21
-91.7639
0
LINE
8
BLACK
6
CONTINUOUS
10
59.5096
20
-106.552
11
74.3096
21
-106.552
0
LINE
8
BLACK
6
CONTINUOUS
10
74.3096
20
-106.552
11
74.3096
21
-91.7515
0
LINE
8
BLACK
6
CONTINUOUS
10
74.3096
20
-91.7515
11
59.5096
21
-91.7515
0
LINE
8
BLACK
6
CONTINUOUS
10
59.5096
20
-91.7515
11
59.5096
21
-106.552
0
LINE
8
BLACK
6
CONTINUOUS
10
131.849
20
-74.7459
11
146.649
21
-74.7459
0
LINE
8
BLACK
6
CONTINUOUS
10
146.649
20
-74.7459
11
146.649
21
-59.9459
0
LINE
8
BLACK
6
CONTINUOUS
10
146.649
20
-59.9459
11
131.849
21
-59.9459
0
LINE
8
BLACK
6
CONTINUOUS
10
131.849
20
-59.9459
11
131.849
21
-74.7459
0
LINE
8
BLACK
6
CONTINUOUS
10
113.764
20
-71.2459
11
128.564
21
-71.2459
0
LINE
8
BLACK
6
CONTINUOUS
10
128.564
20
-71.2459
11
128.564
21
-56.4459
0
LINE
8
BLACK
6
CONTINUOUS
10
128.564
20
-56.4459
11
113.764
21
-56.4459
0
LINE
8
BLACK
6
CONTINUOUS
10
113.764
20
-56.4459
11
113.764
21
-71.2459
0
LINE
8
BLACK
6
CONTINUOUS
10
77.5944
20
-69.9757
11
92.3944
21
-69.9757
0
LINE
8
BLACK
6
CONTINUOUS
10
92.3944
20
-69.9757
11
92.3944
21
-55.1757
0
LINE
8
BLACK
6
CONTINUOUS
10
92.3944
20
-55.1757
11
77.5944
21
-55.1757
0
LINE
8
BLACK
6
CONTINUOUS
10
77.5944
20
-55.1757
11
77.5944
21
-69.9757
0
LINE
8
BLACK
6
CONTINUOUS
10
131.849
20
-108.782
11
146.649
21
-108.782
0
LINE
8
BLACK
6
CONTINUOUS
10
146.649
20
-108.782
11
146.649
21
-93.9819
0
LINE
8
BLACK
6
CONTINUOUS
10
146.649
20
-93.9819
11
131.849
21
-93.9819
0
LINE
8
BLACK
6
CONTINUOUS
10
131.849
20
-93.9819
11
131.849
21
-108.782
0
CIRCLE
8
BLACK
10
77.2853
20
-108.693
40
1.6
0
LINE
8
BLACK
6
CONTINUOUS
10
59.5096
20
-89.5335
11
74.3096
21
-89.5335
0
LINE
8
BLACK
6
CONTINUOUS
10
74.3096
20
-89.5335
11
74.3096
21
-74.7335
0
LINE
8
BLACK
6
CONTINUOUS
10
74.3096
20
-74.7335
11
59.5096
21
-74.7335
0
LINE
8
BLACK
6
CONTINUOUS
10
59.5096
20
-74.7335
11
59.5096
21
-89.5335
0
LINE
8
BLACK
6
CONTINUOUS
10
113.764
20
-88.2639
11
128.564
21
-88.2639
0
LINE
8
BLACK
6
CONTINUOUS
10
128.564
20
-88.2639
11
128.564
21
-73.4639
0
LINE
8
BLACK
6
CONTINUOUS
10
128.564
20
-73.4639
11
113.764
21
-73.4639
0
LINE
8
BLACK
6
CONTINUOUS
10
113.764
20
-73.4639
11
113.764
21
-88.2639
0
LINE
8
BLACK
6
CONTINUOUS
10
95.6792
20
-84.1939
11
110.479
21
-84.1939
0
LINE
8
BLACK
6
CONTINUOUS
10
110.479
20
-84.1939
11
110.479
21
-69.3939
0
LINE
8
BLACK
6
CONTINUOUS
10
110.479
20
-69.3939
11
95.6792
21
-69.3939
0
LINE
8
BLACK
6
CONTINUOUS
10
95.6792
20
-69.3939
11
95.6792
21
-84.1939
0
LINE
8
BLACK
6
CONTINUOUS
10
95.6792
20
-101.212
11
110.479
21
-101.212
0
LINE
8
BLACK
6
CONTINUOUS
10
110.479
20
-101.212
11
110.479
21
-86.4119
0
LINE
8
BLACK
6
CONTINUOUS
10
110.479
20
-86.4119
11
95.6792
21
-86.4119
0
LINE
8
BLACK
6
CONTINUOUS
10
95.6792
20
-86.4119
11
95.6792
21
-101.212
0
LINE
8
BLACK
6
CONTINUOUS
10
80.1811
20
-112.711
11
65.8854
21
-116.542
0
LINE
8
BLACK
6
CONTINUOUS
10
65.8854
20
-116.542
11
69.7159
21
-130.837
0
LINE
8
BLACK
6
CONTINUOUS
10
69.7159
20
-130.837
11
84.0116
21
-127.007
0
LINE
8
BLACK
6
CONTINUOUS
10
84.0116
20
-127.007
11
80.1811
21
-112.711
0
LINE
8
BLACK
6
CONTINUOUS
10
77.5944
20
-86.9939
11
92.3944
21
-86.9939
0
LINE
8
BLACK
6
CONTINUOUS
10
92.3944
20
-86.9939
11
92.3944
21
-72.1939
0
LINE
8
BLACK
6
CONTINUOUS
10
92.3944
20
-72.1939
11
77.5944
21
-72.1939
0
LINE
8
BLACK
6
CONTINUOUS
10
77.5944
20
-72.1939
11
77.5944
21
-86.9939
0
LINE
8
BLACK
6
CONTINUOUS
10
57.8451
20
-119.794
11
45.0279
21
-127.194
0
LINE
8
BLACK
6
CONTINUOUS
10
45.0279
20
-127.194
11
52.4279
21
-140.011
0
LINE
8
BLACK
6
CONTINUOUS
10
52.4279
20
-140.011
11
65.2451
21
-132.611
0
LINE
8
BLACK
6
CONTINUOUS
10
65.2451
20
-132.611
11
57.8451
21
-119.794
0
LINE
8
BLACK
6
CONTINUOUS
10
95.6792
20
-67.1759
11
110.479
21
-67.1759
0
LINE
8
BLACK
6
CONTINUOUS
10
110.479
20
-67.1759
11
110.479
21
-52.3759
0
LINE
8
BLACK
6
CONTINUOUS
10
110.479
20
-52.3759
11
95.6792
21
-52.3759
0
LINE
8
BLACK
6
CONTINUOUS
10
95.6792
20
-52.3759
11
95.6792
21
-67.1759
0
LINE
8
BLACK
6
CONTINUOUS
10
113.764
20
-105.282
11
128.564
21
-105.282
0
LINE
8
BLACK
6
CONTINUOUS
10
128.564
20
-105.282
11
128.564
21
-90.4819
0
LINE
8
BLACK
6
CONTINUOUS
10
128.564
20
-90.4819
11
113.764
21
-90.4819
0
LINE
8
BLACK
6
CONTINUOUS
10
113.764
20
-90.4819
11
113.764
21
-105.282
0
CIRCLE
8
BLACK
10
74.1865
20
-54.1516
40
1.6
0
CIRCLE
8
BLACK
10
132.043
20
-55.6502
40
1.6
0
CIRCLE
8
BLACK
10
64.4075
20
-124.238
40
1.6
0
CIRCLE
8
BLACK
10
226.455
20
-54.1516
40
1.6
0
CIRCLE
8
BLACK
10
236.234
20
-124.238
40
1.6
0
CIRCLE
8
BLACK
10
168.599
20
-55.6502
40
1.6
0
CIRCLE
8
BLACK
10
223.357
20
-108.693
40
1.6
0
CIRCLE
8
BLACK
10
172.332
20
-108.854
40
1.6
0
LINE
8
BLACK
6
CONTINUOUS
10
168.793
20
-108.782
11
153.993
21
-108.782
0
LINE
8
BLACK
6
CONTINUOUS
10
153.993
20
-108.782
11
153.993
21
-93.9819
0
LINE
8
BLACK
6
CONTINUOUS
10
153.993
20
-93.9819
11
168.793
21
-93.9819
0
LINE
8
BLACK
6
CONTINUOUS
10
168.793
20
-93.9819
11
168.793
21
-108.782
0
LINE
8
BLACK
6
CONTINUOUS
10
186.878
20
-105.282
11
172.078
21
-105.282
0
LINE
8
BLACK
6
CONTINUOUS
10
172.078
20
-105.282
11
172.078
21
-90.4819
0
LINE
8
BLACK
6
CONTINUOUS
10
172.078
20
-90.4819
11
186.878
21
-90.4819
0
LINE
8
BLACK
6
CONTINUOUS
10
186.878
20
-90.4819
11
186.878
21
-105.282
0
LINE
8
BLACK
6
CONTINUOUS
10
204.963
20
-84.1939
11
190.163
21
-84.1939
0
LINE
8
BLACK
6
CONTINUOUS
10
190.163
20
-84.1939
11
190.163
21
-69.3939
0
LINE
8
BLACK
6
CONTINUOUS
10
190.163
20
-69.3939
11
204.963
21
-69.3939
0
LINE
8
BLACK
6
CONTINUOUS
10
204.963
20
-69.3939
11
204.963
21
-84.1939
0
LINE
8
BLACK
6
CONTINUOUS
10
186.878
20
-88.2639
11
172.078
21
-88.2639
0
LINE
8
BLACK
6
CONTINUOUS
10
172.078
20
-88.2639
11
172.078
21
-73.4639
0
LINE
8
BLACK
6
CONTINUOUS
10
172.078
20
-73.4639
11
186.878
21
-73.4639
0
LINE
8
BLACK
6
CONTINUOUS
10
186.878
20
-73.4639
11
186.878
21
-88.2639
0
LINE
8
BLACK
6
CONTINUOUS
10
204.963
20
-101.212
11
190.163
21
-101.212
0
LINE
8
BLACK
6
CONTINUOUS
10
190.163
20
-101.212
11
190.163
21
-86.4119
0
LINE
8
BLACK
6
CONTINUOUS
10
190.163
20
-86.4119
11
204.963
21
-86.4119
0
LINE
8
BLACK
6
CONTINUOUS
10
204.963
20
-86.4119
11
204.963
21
-101.212
0
LINE
8
BLACK
6
CONTINUOUS
10
186.878
20
-71.2459
11
172.078
21
-71.2459
0
LINE
8
BLACK
6
CONTINUOUS
10
172.078
20
-71.2459
11
172.078
21
-56.4459
0
LINE
8
BLACK
6
CONTINUOUS
10
172.078
20
-56.4459
11
186.878
21
-56.4459
0
LINE
8
BLACK
6
CONTINUOUS
10
186.878
20
-56.4459
11
186.878
21
-71.2459
0
LINE
8
BLACK
6
CONTINUOUS
10
223.047
20
-69.9757
11
208.247
21
-69.9757
0
LINE
8
BLACK
6
CONTINUOUS
10
208.247
20
-69.9757
11
208.247
21
-55.1757
0
LINE
8
BLACK
6
CONTINUOUS
10
208.247
20
-55.1757
11
223.047
21
-55.1757
0
LINE
8
BLACK
6
CONTINUOUS
10
223.047
20
-55.1757
11
223.047
21
-69.9757
0
LINE
8
BLACK
6
CONTINUOUS
10
242.797
20
-119.794
11
255.614
21
-127.194
0
LINE
8
BLACK
6
CONTINUOUS
10
255.614
20
-127.194
11
248.214
21
-140.011
0
LINE
8
BLACK
6
CONTINUOUS
10
248.214
20
-140.011
11
235.397
21
-132.611
0
LINE
8
BLACK
6
CONTINUOUS
10
235.397
20
-132.611
11
242.797
21
-119.794
0
LINE
8
BLACK
6
CONTINUOUS
10
204.963
20
-67.1759
11
190.163
21
-67.1759
0
LINE
8
BLACK
6
CONTINUOUS
10
190.163
20
-67.1759
11
190.163
21
-52.3759
0
LINE
8
BLACK
6
CONTINUOUS
10
190.163
20
-52.3759
11
204.963
21
-52.3759
0
LINE
8
BLACK
6
CONTINUOUS
10
204.963
20
-52.3759
11
204.963
21
-67.1759
0
LINE
8
BLACK
6
CONTINUOUS
10
223.047
20
-104.012
11
208.247
21
-104.012
0
LINE
8
BLACK
6
CONTINUOUS
10
208.247
20
-104.012
11
208.247
21
-89.2119
0
LINE
8
BLACK
6
CONTINUOUS
10
208.247
20
-89.2119
11
223.047
21
-89.2119
0
LINE
8
BLACK
6
CONTINUOUS
10
223.047
20
-89.2119
11
223.047
21
-104.012
0
LINE
8
BLACK
6
CONTINUOUS
10
223.047
20
-86.9939
11
208.247
21
-86.9939
0
LINE
8
BLACK
6
CONTINUOUS
10
208.247
20
-86.9939
11
208.247
21
-72.1939
0
LINE
8
BLACK
6
CONTINUOUS
10
208.247
20
-72.1939
11
223.047
21
-72.1939
0
LINE
8
BLACK
6
CONTINUOUS
10
223.047
20
-72.1939
11
223.047
21
-86.9939
0
LINE
8
BLACK
6
CONTINUOUS
10
168.793
20
-91.7639
11
153.993
21
-91.7639
0
LINE
8
BLACK
6
CONTINUOUS
10
153.993
20
-91.7639
11
153.993
21
-76.9639
0
LINE
8
BLACK
6
CONTINUOUS
10
153.993
20
-76.9639
11
168.793
21
-76.9639
0
LINE
8
BLACK
6
CONTINUOUS
10
168.793
20
-76.9639
11
168.793
21
-91.7639
0
LINE
8
BLACK
6
CONTINUOUS
10
168.793
20
-74.7459
11
153.993
21
-74.7459
0
LINE
8
BLACK
6
CONTINUOUS
10
153.993
20
-74.7459
11
153.993
21
-59.9459
0
LINE
8
BLACK
6
CONTINUOUS
10
153.993
20
-59.9459
11
168.793
21
-59.9459
0
LINE
8
BLACK
6
CONTINUOUS
10
168.793
20
-59.9459
11
168.793
21
-74.7459
0
LINE
8
BLACK
6
CONTINUOUS
10
241.132
20
-106.552
11
226.332
21
-106.552
0
LINE
8
BLACK
6
CONTINUOUS
10
226.332
20
-106.552
11
226.332
21
-91.7515
0
LINE
8
BLACK
6
CONTINUOUS
10
226.332
20
-91.7515
11
241.132
21
-91.7515
0
LINE
8
BLACK
6
CONTINUOUS
10
241.132
20
-91.7515
11
241.132
21
-106.552
0
LINE
8
BLACK
6
CONTINUOUS
10
220.461
20
-112.711
11
234.756
21
-116.542
0
LINE
8
BLACK
6
CONTINUOUS
10
234.756
20
-116.542
11
230.926
21
-130.837
0
LINE
8
BLACK
6
CONTINUOUS
10
230.926
20
-130.837
11
216.63
21
-127.007
0
LINE
8
BLACK
6
CONTINUOUS
10
216.63
20
-127.007
11
220.461
21
-112.711
0
LINE
8
BLACK
6
CONTINUOUS
10
241.132
20
-72.5155
11
226.332
21
-72.5155
0
LINE
8
BLACK
6
CONTINUOUS
10
226.332
20
-72.5155
11
226.332
21
-57.7155
0
LINE
8
BLACK
6
CONTINUOUS
10
226.332
20
-57.7155
11
241.132
21
-57.7155
0
LINE
8
BLACK
6
CONTINUOUS
10
241.132
20
-57.7155
11
241.132
21
-72.5155
0
LINE
8
BLACK
6
CONTINUOUS
10
241.132
20
-89.5335
11
226.332
21
-89.5335
0
LINE
8
BLACK
6
CONTINUOUS
10
226.332
20
-89.5335
11
226.332
21
-74.7335
0
LINE
8
BLACK
6
CONTINUOUS
10
226.332
20
-74.7335
11
241.132
21
-74.7335
0
LINE
8
BLACK
6
CONTINUOUS
10
241.132
20
-74.7335
11
241.132
21
-89.5335
  0
ENDSEC
  0
EOF
