  0
SECTION
  2
HEADER
  9
$ANGBASE
  50
0.0
  9
$ANGDIR
  70
1
  9
$MEASUREMENT
  70
1
  0
ENDSEC
  0
SECTION
  2
TABLES
  0
TABLE
  2
LTYPE
  70
4
  0
LTYPE
  5
40F
  2
CONTINUOUS
  70
0
  3
Solid line
  72
65
  73
0
  40
0.0
  0
LTYPE
  5
410
  2
DASHDOT
 70
0
  3
Dash Dot ____ _ ____ _
 72
65
 73
4
 40
2.0
 49
1.25
 49
-0.25
 49
0.25
 49
-0.25
  0
LTYPE
  5
411
  2
DASHED
 70
0
  3
Dashed __ __ __ __ __
 72
65
 73
2
 40
0.75
 49
0.5
 49
-0.25
  0
LTYPE
  5
43B
  2
DOTTED
 70
0
  3
Dotted .  .  .  .
 72
65
 73
2
 40
0.2
 49
0.0
 49
-0.2
  0
ENDTAB
  0
TABLE
  2
STYLE
  70
4
  0
STYLE
  2
KICAD
  70
0
  40
0
  41
1
  42
1
  50
0
  71
0
  3
isocp.shx
  0
STYLE
  2
KICADB
  70
0
  40
0
  41
1
  42
1
  50
0
  71
0
  3
isocp.shx
  0
STYLE
  2
KICADI
  70
0
  40
0
  41
1
  42
1
  50
15
  71
0
  3
isocp.shx
  0
STYLE
  2
KICADBI
  70
0
  40
0
  41
1
  42
1
  50
15
  71
0
  3
isocp.shx
  0
ENDTAB
  0
TABLE
  2
LAYER
  70
1
  0
LAYER
  2
BLACK
  70
0
  62
7
  6
CONTINUOUS
  0
ENDTAB
  0
ENDSEC
  0
SECTION
  2
ENTITIES
0
LINE
8
BLACK
6
CONTINUOUS
10
49.7025
20
-65.9278
11
32.7754
21
-65.917
0
ARC
8
BLACK
10
52.5938
20
-54.4773
40
1.82456
50
-245.464
51
-179.48
0
ARC
8
BLACK
10
49.6801
20
-64.8386
40
1.08945
50
-88.821
51
-1.17898
0
LINE
8
BLACK
6
CONTINUOUS
10
238.557
20
-54.4939
11
238.557
21
-64.861
0
ARC
8
BLACK
10
147.834
20
-56.3962
40
2.17204
50
-244.057
51
-177.919
0
ARC
8
BLACK
10
239.646
20
-64.8386
40
1.08944
50
-178.821
51
-91.175
0
LINE
8
BLACK
6
CONTINUOUS
10
146.731
20
-108.293
11
222.459
21
-128.577
0
ARC
8
BLACK
10
32.7803
20
-66.6219
40
0.704879
50
-269.6
51
-179.585
0
LINE
8
BLACK
6
CONTINUOUS
10
245.143
20
-138.636
11
256.459
21
-118.992
0
ARC
8
BLACK
10
251.759
20
-116.15
40
5.49212
50
-31.1613
51
-1.02973
0
ARC
8
BLACK
10
141.493
20
-56.3962
40
2.17196
50
-2.08065
51
64.0601
0
LINE
8
BLACK
6
CONTINUOUS
10
243.236
20
-139.143
11
230.714
21
-131.93
0
LINE
8
BLACK
6
CONTINUOUS
10
66.8668
20
-128.577
11
142.595
21
-108.293
0
ARC
8
BLACK
10
37.5668
20
-116.15
40
5.49224
50
-178.97
51
-148.839
0
ARC
8
BLACK
10
45.4246
20
-137.806
40
1.49353
50
-146.248
51
-63.5587
0
ARC
8
BLACK
10
194.011
20
-155.31
40
111.334
50
67.0127
51
115.043
0
LINE
8
BLACK
6
CONTINUOUS
10
256.551
20
-65.917
11
239.623
21
-65.9278
0
ARC
8
BLACK
10
147.149
20
-106.866
40
1.48684
50
-181.656
51
-106.336
0
LINE
8
BLACK
6
CONTINUOUS
10
58.6118
20
-131.93
11
46.0896
21
-139.143
0
ARC
8
BLACK
10
76.562
20
-164.286
40
37.0021
50
105.19
51
119.02
0
ARC
8
BLACK
10
236.732
20
-54.4775
40
1.82494
50
-0.513459
51
65.4562
0
ARC
8
BLACK
10
243.901
20
-137.806
40
1.49366
50
-116.435
51
-33.7564
0
LINE
8
BLACK
6
CONTINUOUS
10
143.663
20
-106.823
11
143.663
21
-56.4751
0
ARC
8
BLACK
10
95.3151
20
-155.31
40
111.334
50
64.957
51
112.987
0
ARC
8
BLACK
10
212.764
20
-164.287
40
37.0028
50
60.9803
51
74.8101
0
LINE
8
BLACK
6
CONTINUOUS
10
32.867
20
-118.992
11
44.1828
21
-138.636
0
LINE
8
BLACK
6
CONTINUOUS
10
50.7693
20
-64.861
11
50.7693
21
-54.4939
0
LINE
8
BLACK
6
CONTINUOUS
10
32.0754
20
-116.249
11
32.0754
21
-66.627
0
ARC
8
BLACK
10
256.546
20
-66.6219
40
0.704874
50
-0.41451
51
89.5938
0
LINE
8
BLACK
6
CONTINUOUS
10
257.251
20
-66.627
11
257.251
21
-116.249
0
LINE
8
BLACK
6
CONTINUOUS
10
145.663
20
-56.4751
11
145.663
21
-106.823
0
ARC
8
BLACK
10
142.176
20
-106.866
40
1.4872
50
-73.6523
51
1.64744
0
CIRCLE
8
BLACK
10
166.674
20
-104.979
40
1.1
0
CIRCLE
8
BLACK
10
217.699
20
-104.819
40
1.1
0
CIRCLE
8
BLACK
10
162.941
20
-51.7761
40
1.1
0
CIRCLE
8
BLACK
10
230.576
20
-120.364
40
1.1
0
CIRCLE
8
BLACK
10
220.797
20
-50.2775
40
1.1
0
CIRCLE
8
BLACK
10
68.5286
20
-50.2775
40
1.1
0
CIRCLE
8
BLACK
10
122.652
20
-104.979
40
1.1
0
CIRCLE
8
BLACK
10
126.385
20
-51.7761
40
1.1
0
CIRCLE
8
BLACK
10
58.7496
20
-120.364
40
1.1
0
CIRCLE
8
BLACK
10
254
20
-90.4736
40
2.15
0
CIRCLE
8
BLACK
10
253.055
20
-119.297
40
2.15
0
CIRCLE
8
BLACK
10
241.382
20
-90.4736
40
2.15
0
CIRCLE
8
BLACK
10
36.2706
20
-119.297
40
2.15
0
CIRCLE
8
BLACK
10
35.3261
20
-90.4736
40
2.15
0
CIRCLE
8
BLACK
10
47.9439
20
-90.4736
40
2.15
0
CIRCLE
8
BLACK
10
71.6274
20
-104.819
40
1.1
  0
ENDSEC
  0
EOF
