  0
SECTION
  2
HEADER
  9
$ANGBASE
  50
0.0
  9
$ANGDIR
  70
1
  9
$MEASUREMENT
  70
1
  0
ENDSEC
  0
SECTION
  2
TABLES
  0
TABLE
  2
LTYPE
  70
4
  0
LTYPE
  5
40F
  2
CONTINUOUS
  70
0
  3
Solid line
  72
65
  73
0
  40
0.0
  0
LTYPE
  5
410
  2
DASHDOT
 70
0
  3
Dash Dot ____ _ ____ _
 72
65
 73
4
 40
2.0
 49
1.25
 49
-0.25
 49
0.25
 49
-0.25
  0
LTYPE
  5
411
  2
DASHED
 70
0
  3
Dashed __ __ __ __ __
 72
65
 73
2
 40
0.75
 49
0.5
 49
-0.25
  0
LTYPE
  5
43B
  2
DOTTED
 70
0
  3
Dotted .  .  .  .
 72
65
 73
2
 40
0.2
 49
0.0
 49
-0.2
  0
ENDTAB
  0
TABLE
  2
STYLE
  70
4
  0
STYLE
  2
KICAD
  70
0
  40
0
  41
1
  42
1
  50
0
  71
0
  3
isocp.shx
  0
STYLE
  2
KICADB
  70
0
  40
0
  41
1
  42
1
  50
0
  71
0
  3
isocp.shx
  0
STYLE
  2
KICADI
  70
0
  40
0
  41
1
  42
1
  50
15
  71
0
  3
isocp.shx
  0
STYLE
  2
KICADBI
  70
0
  40
0
  41
1
  42
1
  50
15
  71
0
  3
isocp.shx
  0
ENDTAB
  0
TABLE
  2
LAYER
  70
1
  0
LAYER
  2
BLACK
  70
0
  62
7
  6
CONTINUOUS
  0
ENDTAB
  0
ENDSEC
  0
SECTION
  2
ENTITIES
0
LINE
8
BLACK
6
CONTINUOUS
10
145.3254809999999964
20
-112.1594569999999891
11
137.6599839999999801
21
-114.2134199999999993
0
LINE
8
BLACK
6
CONTINUOUS
10
210.7507919999999899
20
-131.7081759999999804
11
183.8370789999999886
21
-128.1649170000000026
0
LINE
8
BLACK
6
CONTINUOUS
10
234.7816569999999956
20
-135.1338619999999935
11
237.185828999999984
21
-116.8126460000000009
0
ARC
8
BLACK
10
239.2903739999999857
20
-115.0719809999999939
40
0.9999520009680465
50
-97.50238554
51
-0.00252114
0
ARC
8
BLACK
10
147.8411739999999952
20
-62.8666809999999998
40
1.7745625255327013
50
-253.54012594
51
-179.56763706
0
LINE
8
BLACK
6
CONTINUOUS
10
145.3437439999999867
20
-142.8896000000000015
11
163.6330250000000035
21
-137.9890019999999993
0
ARC
8
BLACK
10
183.7065739999999892
20
-129.1563809999999819
40
1.0000175710481292
50
-277.49865305
51
-172.38616845
0
LINE
8
BLACK
6
CONTINUOUS
10
239.15979999999999
20
-116.0634699999999953
11
238.3078549999999893
21
-115.9513089999999949
0
LINE
8
BLACK
6
CONTINUOUS
10
146.0666619999999796
20
-111.193530999999993
11
146.0666619999999796
21
-62.8800719999999984
0
LINE
8
BLACK
6
CONTINUOUS
10
163.7613179999999886
20
-137.9634829999999965
11
182.5337869999999896
21
-135.4920400000000029
0
CIRCLE
8
BLACK
10
236.1367740000000026
20
-64.6298809999999975
40
4.0999999999999996
0
LINE
8
BLACK
6
CONTINUOUS
10
183.3947059999999851
20
-134.3700690000000009
11
182.7153729999999996
21
-129.2888789999999801
0
ARC
8
BLACK
10
238.6047739999999919
20
-62.8721809999999977
40
1.6855957196682718
50
-0.26823123
51
75.39104388
0
LINE
8
BLACK
6
CONTINUOUS
10
211.5769540000000006
20
-133.0879589999999837
11
233.6595049999999958
21
-135.9951819999999998
0
CIRCLE
8
BLACK
10
150.1481839999999863
20
-64.5701619999999963
40
4.0999999999999996
0
LINE
8
BLACK
6
CONTINUOUS
10
144.1189990000000023
20
-142.1824929999999938
11
136.9528169999999818
21
-115.4379390000000001
0
ARC
8
BLACK
10
137.9187739999999849
20
-115.1793809999999922
40
0.999962581906443
50
-255.00212900
51
-165.01490998
0
ARC
8
BLACK
10
182.4032739999999819
20
-134.5005809999999826
40
0.9999853962773656
50
-82.50085512
51
7.49928998
0
LINE
8
BLACK
6
CONTINUOUS
10
240.2903259999999932
20
-115.0720249999999965
11
240.2903259999999932
21
-62.8800719999999984
0
CIRCLE
8
BLACK
10
236.1515739999999823
20
-112.2442810000000009
40
4.0999999999999996
0
LINE
8
BLACK
6
CONTINUOUS
10
210.7160219999999811
20
-131.966087999999985
11
210.7507919999999899
21
-131.7081759999999804
0
ARC
8
BLACK
10
163.8918740000000014
20
-138.9551809999999819
40
1.0002523005932054
50
97.49980018
51
104.99790396
0
ARC
8
BLACK
10
211.7075739999999939
20
-132.0964809999999829
40
1.0000451034248405
50
-187.49163343
51
-97.50508075
0
ARC
8
BLACK
10
145.084873999999985
20
-141.9237809999999911
40
0.9999100047809302
50
-165.00517093
51
-74.99559543
0
CIRCLE
8
BLACK
10
147.3235739999999794
20
-138.1014810000000068
40
4.0999999999999996
0
ARC
8
BLACK
10
145.066773999999981
20
-111.1935809999999947
40
0.99988800125014
50
-75.00546250
51
0.00286511
0
ARC
8
BLACK
10
193.0737039999999922
20
-194.0979009999999789
40
140.5806110974386911
50
70.91909728
51
108.98567249
0
ARC
8
BLACK
10
233.7902739999999824
20
-135.0038810000000069
40
0.999867647766443
50
-97.51487037
51
-7.46948862
0
ARC
8
BLACK
10
238.1773739999999862
20
-116.9428809999999999
40
1.000061319244975
50
82.50351757
51
172.51728919
0
CIRCLE
8
BLACK
10
31.3253319999999995
20
-64.6298809999999975
40
4.0999999999999996
0
LINE
8
BLACK
6
CONTINUOUS
10
84.9283190000000019
20
-135.4920400000000029
11
103.7007879999999886
21
-137.9634829999999965
0
LINE
8
BLACK
6
CONTINUOUS
10
121.3954439999999977
20
-62.8800719999999984
11
121.3954439999999977
21
-111.193530999999993
0
LINE
8
BLACK
6
CONTINUOUS
10
29.1542509999999986
20
-115.9513089999999949
11
28.302305999999998
21
-116.0634699999999953
0
ARC
8
BLACK
10
83.7555320000000023
20
-129.1563809999999819
40
1.0000162090291336
50
-7.61383155
51
97.49865305
0
LINE
8
BLACK
6
CONTINUOUS
10
103.8290810000000022
20
-137.9890019999999993
11
122.1183619999999905
21
-142.8896000000000015
0
ARC
8
BLACK
10
119.6209319999999963
20
-62.8666809999999998
40
1.7745227752835409
50
-0.43236294
51
73.54012594
0
ARC
8
BLACK
10
28.1717319999999987
20
-115.0719809999999939
40
1.0000500020483976
50
-179.99747886
51
-82.49761446
0
LINE
8
BLACK
6
CONTINUOUS
10
30.2762770000000003
20
-116.8126460000000009
11
32.6804489999999959
21
-135.1338619999999935
0
LINE
8
BLACK
6
CONTINUOUS
10
83.6250270000000029
20
-128.1649170000000026
11
56.7113139999999945
21
-131.7081759999999804
0
LINE
8
BLACK
6
CONTINUOUS
10
129.8021219999999971
20
-114.2134199999999993
11
122.1366249999999951
21
-112.1594569999999891
0
ARC
8
BLACK
10
29.2847319999999982
20
-116.9428809999999999
40
1.0001201540540017
50
7.48271081
51
97.49648243
0
ARC
8
BLACK
10
33.671832000000002
20
-135.0038810000000069
40
0.9998890958311326
50
-172.53051138
51
-82.48512963
0
ARC
8
BLACK
10
74.3884019999999992
20
-194.0979009999999789
40
140.5806104763432245
50
71.01432751
51
109.08090272
0
ARC
8
BLACK
10
122.3953319999999962
20
-111.1935809999999947
40
0.9999228766384934
50
-180.00286511
51
-104.99453750
0
CIRCLE
8
BLACK
10
120.1385319999999979
20
-138.1014810000000068
40
4.0999999999999996
0
ARC
8
BLACK
10
122.3772319999999922
20
-141.9237809999999911
40
0.9999232043357129
50
-105.00440457
51
-14.99482907
0
ARC
8
BLACK
10
55.7545319999999975
20
-132.0964809999999829
40
1.0000888476295493
50
-82.49491925
51
7.49163343
0
ARC
8
BLACK
10
103.5702319999999901
20
-138.9551809999999819
40
1.000254863692249
50
75.00209604
51
82.50019982
0
LINE
8
BLACK
6
CONTINUOUS
10
56.7113139999999945
20
-131.7081759999999804
11
56.7460839999999962
21
-131.966087999999985
0
CIRCLE
8
BLACK
10
31.3105319999999985
20
-112.2442810000000009
40
4.0999999999999996
0
LINE
8
BLACK
6
CONTINUOUS
10
27.1717799999999983
20
-62.8800719999999984
11
27.1717799999999983
21
-115.0720249999999965
0
ARC
8
BLACK
10
85.0588319999999953
20
-134.5005809999999826
40
1.000012295849406
50
-187.49928998
51
-97.49914488
0
ARC
8
BLACK
10
129.5433319999999924
20
-115.1793809999999922
40
1.000026458460475
50
-14.98509002
51
75.00212900
0
LINE
8
BLACK
6
CONTINUOUS
10
130.5092889999999954
20
-115.4379390000000001
11
123.3431069999999892
21
-142.1824929999999938
0
CIRCLE
8
BLACK
10
117.3139219999999909
20
-64.5701619999999963
40
4.0999999999999996
0
LINE
8
BLACK
6
CONTINUOUS
10
33.8026009999999957
20
-135.9951819999999998
11
55.8851519999999979
21
-133.0879589999999837
0
ARC
8
BLACK
10
28.8573319999999995
20
-62.8721809999999977
40
1.6855704709637622
50
-255.39104388
51
-179.73176877
0
LINE
8
BLACK
6
CONTINUOUS
10
84.7467329999999919
20
-129.2888789999999801
11
84.0673999999999921
21
-134.3700690000000009
0
CIRCLE
8
BLACK
10
180.3487839999999949
20
-84.2301619999999929
40
0.855
0
CIRCLE
8
BLACK
10
174.8487839999999949
20
-84.2301619999999929
40
1.75
0
CIRCLE
8
BLACK
10
169.3487839999999949
20
-84.2301619999999929
40
0.855
0
ARC
8
BLACK
10
177.6333839999999782
20
-77.2507619999999946
40
0.5
50
-180.00000000
51
-90.00000000
0
ARC
8
BLACK
10
175.7226540000000057
20
-82.2003819999999905
40
1.4439089435625778
50
-2.31720677
51
93.22658164
0
LINE
8
BLACK
6
CONTINUOUS
10
184.5821839999999838
20
-81.918762000000001
11
184.5821839999999838
21
-79.0231619999999992
0
LINE
8
BLACK
6
CONTINUOUS
10
182.1333839999999782
20
-82.958761999999993
11
182.1333839999999782
21
-81.918762000000001
0
LINE
8
BLACK
6
CONTINUOUS
10
182.1333839999999782
20
-81.918762000000001
11
184.5821839999999838
21
-81.918762000000001
0
LINE
8
BLACK
6
CONTINUOUS
10
182.1333839999999782
20
-79.0231619999999992
11
184.5821839999999838
21
-79.0231619999999992
0
LINE
8
BLACK
6
CONTINUOUS
10
182.1333839999999782
20
-79.0231619999999992
11
182.1333839999999782
21
-77.7507619999999946
0
LINE
8
BLACK
6
CONTINUOUS
10
182.1333839999999782
20
-77.7507619999999946
11
177.6333839999999782
21
-77.7507619999999946
0
LINE
8
BLACK
6
CONTINUOUS
10
177.1653839999999889
20
-82.958761999999993
11
182.1333839999999782
21
-82.958761999999993
0
LINE
8
BLACK
6
CONTINUOUS
10
177.1653839999999889
20
-82.2587619999999902
11
177.1653839999999889
21
-82.958761999999993
0
LINE
8
BLACK
6
CONTINUOUS
10
177.1333839999999782
20
-77.2507619999999946
11
177.1333839999999782
21
-76.2507619999999946
0
LINE
8
BLACK
6
CONTINUOUS
10
176.6333839999999782
20
-75.7507619999999946
11
177.1333839999999782
21
-76.2507619999999946
0
LINE
8
BLACK
6
CONTINUOUS
10
173.1253839999999968
20
-80.7587619999999902
11
175.641383999999988
21
-80.7587619999999902
0
LINE
8
BLACK
6
CONTINUOUS
10
173.1253839999999968
20
-75.7507619999999946
11
176.6333839999999782
21
-75.7507619999999946
0
LINE
8
BLACK
6
CONTINUOUS
10
172.6253839999999968
20
-80.2587619999999902
11
173.1253839999999968
21
-80.7587619999999902
0
LINE
8
BLACK
6
CONTINUOUS
10
172.6253839999999968
20
-80.2587619999999902
11
172.6253839999999968
21
-79.6835619999999949
0
LINE
8
BLACK
6
CONTINUOUS
10
172.6253839999999968
20
-79.6835619999999949
11
170.1765839999999912
21
-79.6835619999999949
0
LINE
8
BLACK
6
CONTINUOUS
10
172.6253839999999968
20
-76.7879619999999932
11
172.6253839999999968
21
-76.2507619999999946
0
LINE
8
BLACK
6
CONTINUOUS
10
172.6253839999999968
20
-76.7879619999999932
11
170.1765839999999912
21
-76.7879619999999932
0
LINE
8
BLACK
6
CONTINUOUS
10
172.6253839999999968
20
-76.2507619999999946
11
173.1253839999999968
21
-75.7507619999999946
0
LINE
8
BLACK
6
CONTINUOUS
10
170.1765839999999912
20
-76.7879619999999932
11
170.1765839999999912
21
-79.6835619999999949
0
CIRCLE
8
BLACK
10
180.3487839999999949
20
-101.2301619999999929
40
0.855
0
CIRCLE
8
BLACK
10
174.8487839999999949
20
-101.2301619999999929
40
1.75
0
CIRCLE
8
BLACK
10
169.3487839999999949
20
-101.2301619999999929
40
0.855
0
ARC
8
BLACK
10
177.6333839999999782
20
-94.2507619999999946
40
0.5
50
-180.00000000
51
-90.00000000
0
ARC
8
BLACK
10
175.7226540000000057
20
-99.2003819999999905
40
1.4439089435625778
50
-2.31720677
51
93.22658164
0
LINE
8
BLACK
6
CONTINUOUS
10
184.5821839999999838
20
-98.918762000000001
11
184.5821839999999838
21
-96.0231619999999992
0
LINE
8
BLACK
6
CONTINUOUS
10
182.1333839999999782
20
-99.958761999999993
11
182.1333839999999782
21
-98.918762000000001
0
LINE
8
BLACK
6
CONTINUOUS
10
182.1333839999999782
20
-98.918762000000001
11
184.5821839999999838
21
-98.918762000000001
0
LINE
8
BLACK
6
CONTINUOUS
10
182.1333839999999782
20
-96.0231619999999992
11
184.5821839999999838
21
-96.0231619999999992
0
LINE
8
BLACK
6
CONTINUOUS
10
182.1333839999999782
20
-96.0231619999999992
11
182.1333839999999782
21
-94.7507619999999946
0
LINE
8
BLACK
6
CONTINUOUS
10
182.1333839999999782
20
-94.7507619999999946
11
177.6333839999999782
21
-94.7507619999999946
0
LINE
8
BLACK
6
CONTINUOUS
10
177.1653839999999889
20
-99.958761999999993
11
182.1333839999999782
21
-99.958761999999993
0
LINE
8
BLACK
6
CONTINUOUS
10
177.1653839999999889
20
-99.2587619999999902
11
177.1653839999999889
21
-99.958761999999993
0
LINE
8
BLACK
6
CONTINUOUS
10
177.1333839999999782
20
-94.2507619999999946
11
177.1333839999999782
21
-93.2507619999999946
0
LINE
8
BLACK
6
CONTINUOUS
10
176.6333839999999782
20
-92.7507619999999946
11
177.1333839999999782
21
-93.2507619999999946
0
LINE
8
BLACK
6
CONTINUOUS
10
173.1253839999999968
20
-97.7587619999999902
11
175.641383999999988
21
-97.7587619999999902
0
LINE
8
BLACK
6
CONTINUOUS
10
173.1253839999999968
20
-92.7507619999999946
11
176.6333839999999782
21
-92.7507619999999946
0
LINE
8
BLACK
6
CONTINUOUS
10
172.6253839999999968
20
-97.2587619999999902
11
173.1253839999999968
21
-97.7587619999999902
0
LINE
8
BLACK
6
CONTINUOUS
10
172.6253839999999968
20
-97.2587619999999902
11
172.6253839999999968
21
-96.6835619999999949
0
LINE
8
BLACK
6
CONTINUOUS
10
172.6253839999999968
20
-96.6835619999999949
11
170.1765839999999912
21
-96.6835619999999949
0
LINE
8
BLACK
6
CONTINUOUS
10
172.6253839999999968
20
-93.7879619999999932
11
172.6253839999999968
21
-93.2507619999999946
0
LINE
8
BLACK
6
CONTINUOUS
10
172.6253839999999968
20
-93.7879619999999932
11
170.1765839999999912
21
-93.7879619999999932
0
LINE
8
BLACK
6
CONTINUOUS
10
172.6253839999999968
20
-93.2507619999999946
11
173.1253839999999968
21
-92.7507619999999946
0
LINE
8
BLACK
6
CONTINUOUS
10
170.1765839999999912
20
-93.7879619999999932
11
170.1765839999999912
21
-96.6835619999999949
0
LINE
8
BLACK
6
CONTINUOUS
10
223.2323839999999961
20
-111.1709619999999887
11
225.2643839999999784
21
-111.1709619999999887
0
LINE
8
BLACK
6
CONTINUOUS
10
225.2643839999999784
20
-111.1709619999999887
11
225.2643839999999784
21
-105.9893619999999999
0
LINE
8
BLACK
6
CONTINUOUS
10
225.2643839999999784
20
-105.9893619999999999
11
223.2323839999999961
21
-105.9893619999999999
0
LINE
8
BLACK
6
CONTINUOUS
10
223.2323839999999961
20
-105.9893619999999999
11
223.2323839999999961
21
-111.1709619999999887
0
LINE
8
BLACK
6
CONTINUOUS
10
163.3657739999999876
20
-122.7326809999999995
11
161.3337740000000053
21
-122.7326809999999995
0
LINE
8
BLACK
6
CONTINUOUS
10
161.3337740000000053
20
-122.7326809999999995
11
161.3337740000000053
21
-127.9142809999999884
0
LINE
8
BLACK
6
CONTINUOUS
10
161.3337740000000053
20
-127.9142809999999884
11
163.3657739999999876
21
-127.9142809999999884
0
LINE
8
BLACK
6
CONTINUOUS
10
163.3657739999999876
20
-127.9142809999999884
11
163.3657739999999876
21
-122.7326809999999995
0
CIRCLE
8
BLACK
10
198.6485839999999996
20
-64.4301619999999957
40
0.855
0
CIRCLE
8
BLACK
10
193.1485839999999996
20
-64.4301619999999957
40
1.75
0
CIRCLE
8
BLACK
10
187.6485839999999996
20
-64.4301619999999957
40
0.855
0
ARC
8
BLACK
10
195.9331839999999829
20
-57.4507619999999974
40
0.5
50
-180.00000000
51
-90.00000000
0
ARC
8
BLACK
10
194.022453999999982
20
-62.4003820000000005
40
1.4439089435625778
50
-2.31720677
51
93.22658164
0
LINE
8
BLACK
6
CONTINUOUS
10
202.8819839999999886
20
-62.1187619999999967
11
202.8819839999999886
21
-59.223161999999995
0
LINE
8
BLACK
6
CONTINUOUS
10
200.4331839999999829
20
-63.1587619999999959
11
200.4331839999999829
21
-62.1187619999999967
0
LINE
8
BLACK
6
CONTINUOUS
10
200.4331839999999829
20
-62.1187619999999967
11
202.8819839999999886
21
-62.1187619999999967
0
LINE
8
BLACK
6
CONTINUOUS
10
200.4331839999999829
20
-59.223161999999995
11
202.8819839999999886
21
-59.223161999999995
0
LINE
8
BLACK
6
CONTINUOUS
10
200.4331839999999829
20
-59.223161999999995
11
200.4331839999999829
21
-57.9507619999999974
0
LINE
8
BLACK
6
CONTINUOUS
10
200.4331839999999829
20
-57.9507619999999974
11
195.9331839999999829
21
-57.9507619999999974
0
LINE
8
BLACK
6
CONTINUOUS
10
195.4651839999999936
20
-63.1587619999999959
11
200.4331839999999829
21
-63.1587619999999959
0
LINE
8
BLACK
6
CONTINUOUS
10
195.4651839999999936
20
-62.4587620000000001
11
195.4651839999999936
21
-63.1587619999999959
0
LINE
8
BLACK
6
CONTINUOUS
10
195.4331839999999829
20
-57.4507619999999974
11
195.4331839999999829
21
-56.4507619999999974
0
LINE
8
BLACK
6
CONTINUOUS
10
194.9331839999999829
20
-55.9507619999999974
11
195.4331839999999829
21
-56.4507619999999974
0
LINE
8
BLACK
6
CONTINUOUS
10
191.4251840000000016
20
-60.9587620000000001
11
193.9411839999999927
21
-60.9587620000000001
0
LINE
8
BLACK
6
CONTINUOUS
10
191.4251840000000016
20
-55.9507619999999974
11
194.9331839999999829
21
-55.9507619999999974
0
LINE
8
BLACK
6
CONTINUOUS
10
190.9251840000000016
20
-60.4587620000000001
11
191.4251840000000016
21
-60.9587620000000001
0
LINE
8
BLACK
6
CONTINUOUS
10
190.9251840000000016
20
-60.4587620000000001
11
190.9251840000000016
21
-59.8835619999999977
0
LINE
8
BLACK
6
CONTINUOUS
10
190.9251840000000016
20
-59.8835619999999977
11
188.4763839999999959
21
-59.8835619999999977
0
LINE
8
BLACK
6
CONTINUOUS
10
190.9251840000000016
20
-56.987961999999996
11
190.9251840000000016
21
-56.4507619999999974
0
LINE
8
BLACK
6
CONTINUOUS
10
190.9251840000000016
20
-56.987961999999996
11
188.4763839999999959
21
-56.987961999999996
0
LINE
8
BLACK
6
CONTINUOUS
10
190.9251840000000016
20
-56.4507619999999974
11
191.4251840000000016
21
-55.9507619999999974
0
LINE
8
BLACK
6
CONTINUOUS
10
188.4763839999999959
20
-56.987961999999996
11
188.4763839999999959
21
-59.8835619999999977
0
LINE
8
BLACK
6
CONTINUOUS
10
166.9217739999999992
20
-119.811680999999993
11
164.8897739999999885
21
-119.811680999999993
0
LINE
8
BLACK
6
CONTINUOUS
10
164.8897739999999885
20
-119.811680999999993
11
164.8897739999999885
21
-124.9932809999999961
0
LINE
8
BLACK
6
CONTINUOUS
10
164.8897739999999885
20
-124.9932809999999961
11
166.9217739999999992
21
-124.9932809999999961
0
LINE
8
BLACK
6
CONTINUOUS
10
166.9217739999999992
20
-124.9932809999999961
11
166.9217739999999992
21
-119.811680999999993
0
LINE
8
BLACK
6
CONTINUOUS
10
145.558589999999981
20
-123.9472979999999893
11
146.3080280000000073
21
-126.7442329999999941
0
LINE
8
BLACK
6
CONTINUOUS
10
148.8222590000000025
20
-126.6660380000000004
11
148.6733859999999936
21
-126.1104369999999903
0
LINE
8
BLACK
6
CONTINUOUS
10
148.8222590000000025
20
-126.6660380000000004
11
149.4346319999999935
21
-127.0195899999999938
0
LINE
8
BLACK
6
CONTINUOUS
10
148.6733859999999936
20
-126.1104369999999903
11
146.3080280000000073
21
-126.7442329999999941
0
LINE
8
BLACK
6
CONTINUOUS
10
149.4346319999999935
20
-127.0195899999999938
11
151.8649010000000033
21
-126.368401999999989
0
LINE
8
BLACK
6
CONTINUOUS
10
147.9239509999999882
20
-123.3135019999999997
11
145.558589999999981
21
-123.9472979999999893
0
LINE
8
BLACK
6
CONTINUOUS
10
147.9239509999999882
20
-123.3135019999999997
11
147.7849129999999889
21
-122.7946069999999992
0
LINE
8
BLACK
6
CONTINUOUS
10
147.7849129999999889
20
-122.7946069999999992
11
148.1384669999999915
21
-122.182233999999994
0
LINE
8
BLACK
6
CONTINUOUS
10
148.1384669999999915
20
-122.182233999999994
11
151.5269339999999829
21
-121.27429699999999
0
LINE
8
BLACK
6
CONTINUOUS
10
153.9063739999999996
20
-128.0989989999999921
11
158.7050940000000026
21
-126.8131849999999901
0
LINE
8
BLACK
6
CONTINUOUS
10
153.7252009999999984
20
-127.4228499999999968
11
153.9063739999999996
21
-128.0989989999999921
0
LINE
8
BLACK
6
CONTINUOUS
10
151.5269339999999829
20
-121.27429699999999
11
152.1393060000000048
21
-121.6278499999999951
0
LINE
8
BLACK
6
CONTINUOUS
10
152.3981259999999907
20
-122.5937759999999912
11
152.1393060000000048
21
-121.6278499999999951
0
LINE
8
BLACK
6
CONTINUOUS
10
158.7050940000000026
20
-126.8131849999999901
11
158.435922000000005
21
-125.8086219999999997
0
LINE
8
BLACK
6
CONTINUOUS
10
158.435922000000005
20
-125.8086219999999997
11
160.8012809999999888
21
-125.1748259999999959
0
LINE
8
BLACK
6
CONTINUOUS
10
157.6864850000000047
20
-123.0116879999999924
11
157.3571639999999832
21
-121.7826439999999906
0
LINE
8
BLACK
6
CONTINUOUS
10
157.6864850000000047
20
-123.0116879999999924
11
160.0518449999999859
21
-122.3778919999999886
0
LINE
8
BLACK
6
CONTINUOUS
10
157.3571639999999832
20
-121.7826439999999906
11
153.0104979999999841
21
-122.9473299999999938
0
LINE
8
BLACK
6
CONTINUOUS
10
160.8012809999999888
20
-125.1748259999999959
11
160.0518449999999859
21
-122.3778919999999886
0
ARC
8
BLACK
10
152.316519999999997
20
-127.7398659999999921
40
1.4439090083717185
50
12.68281371
51
108.22655975
0
ARC
8
BLACK
10
152.8810890000000029
20
-122.4643669999999958
40
0.4999999486499974
50
-165.00006042
51
-75.00006042
0
CIRCLE
8
BLACK
10
146.685181
20
-131.3501619999999832
40
0.8550019999999999
0
CIRCLE
8
BLACK
10
151.9977729999999951
20
-129.9266570000000058
40
1.75
0
CIRCLE
8
BLACK
10
157.3103649999999902
20
-128.503152
40
0.855
0
CIRCLE
8
BLACK
10
160.1399739999999952
20
-120.1690809999999914
40
1.0999999999999999
0
LINE
8
BLACK
6
CONTINUOUS
10
163.0651839999999879
20
-63.8289619999999971
11
161.0331840000000057
21
-63.8289619999999971
0
LINE
8
BLACK
6
CONTINUOUS
10
161.0331840000000057
20
-63.8289619999999971
11
161.0331840000000057
21
-69.0105619999999931
0
LINE
8
BLACK
6
CONTINUOUS
10
161.0331840000000057
20
-69.0105619999999931
11
163.0651839999999879
21
-69.0105619999999931
0
LINE
8
BLACK
6
CONTINUOUS
10
163.0651839999999879
20
-69.0105619999999931
11
163.0651839999999879
21
-63.8289619999999971
0
CIRCLE
8
BLACK
10
180.3487839999999949
20
-67.2299620000000004
40
0.855
0
CIRCLE
8
BLACK
10
174.8487839999999949
20
-67.2299620000000004
40
1.75
0
CIRCLE
8
BLACK
10
169.3487839999999949
20
-67.2299620000000004
40
0.855
0
ARC
8
BLACK
10
177.6333839999999782
20
-60.2505619999999951
40
0.5
50
-180.00000000
51
-90.00000000
0
ARC
8
BLACK
10
175.7226540000000057
20
-65.2001819999999981
40
1.4439089435625778
50
-2.31720677
51
93.22658164
0
LINE
8
BLACK
6
CONTINUOUS
10
184.5821839999999838
20
-64.9185619999999943
11
184.5821839999999838
21
-62.0229619999999997
0
LINE
8
BLACK
6
CONTINUOUS
10
182.1333839999999782
20
-65.9585620000000006
11
182.1333839999999782
21
-64.9185619999999943
0
LINE
8
BLACK
6
CONTINUOUS
10
182.1333839999999782
20
-64.9185619999999943
11
184.5821839999999838
21
-64.9185619999999943
0
LINE
8
BLACK
6
CONTINUOUS
10
182.1333839999999782
20
-62.0229619999999997
11
184.5821839999999838
21
-62.0229619999999997
0
LINE
8
BLACK
6
CONTINUOUS
10
182.1333839999999782
20
-62.0229619999999997
11
182.1333839999999782
21
-60.7505619999999951
0
LINE
8
BLACK
6
CONTINUOUS
10
182.1333839999999782
20
-60.7505619999999951
11
177.6333839999999782
21
-60.7505619999999951
0
LINE
8
BLACK
6
CONTINUOUS
10
177.1653839999999889
20
-65.9585620000000006
11
182.1333839999999782
21
-65.9585620000000006
0
LINE
8
BLACK
6
CONTINUOUS
10
177.1653839999999889
20
-65.2585619999999977
11
177.1653839999999889
21
-65.9585620000000006
0
LINE
8
BLACK
6
CONTINUOUS
10
177.1333839999999782
20
-60.2505619999999951
11
177.1333839999999782
21
-59.2505619999999951
0
LINE
8
BLACK
6
CONTINUOUS
10
176.6333839999999782
20
-58.7505619999999951
11
177.1333839999999782
21
-59.2505619999999951
0
LINE
8
BLACK
6
CONTINUOUS
10
173.1253839999999968
20
-63.7585619999999977
11
175.641383999999988
21
-63.7585619999999977
0
LINE
8
BLACK
6
CONTINUOUS
10
173.1253839999999968
20
-58.7505619999999951
11
176.6333839999999782
21
-58.7505619999999951
0
LINE
8
BLACK
6
CONTINUOUS
10
172.6253839999999968
20
-63.2585619999999977
11
173.1253839999999968
21
-63.7585619999999977
0
LINE
8
BLACK
6
CONTINUOUS
10
172.6253839999999968
20
-63.2585619999999977
11
172.6253839999999968
21
-62.6833619999999954
0
LINE
8
BLACK
6
CONTINUOUS
10
172.6253839999999968
20
-62.6833619999999954
11
170.1765839999999912
21
-62.6833619999999954
0
LINE
8
BLACK
6
CONTINUOUS
10
172.6253839999999968
20
-59.7877620000000007
11
172.6253839999999968
21
-59.2505619999999951
0
LINE
8
BLACK
6
CONTINUOUS
10
172.6253839999999968
20
-59.7877620000000007
11
170.1765839999999912
21
-59.7877620000000007
0
LINE
8
BLACK
6
CONTINUOUS
10
172.6253839999999968
20
-59.2505619999999951
11
173.1253839999999968
21
-58.7505619999999951
0
LINE
8
BLACK
6
CONTINUOUS
10
170.1765839999999912
20
-59.7877620000000007
11
170.1765839999999912
21
-62.6833619999999954
0
CIRCLE
8
BLACK
10
235.2481839999999806
20
-104.2299620000000004
40
0.855
0
CIRCLE
8
BLACK
10
229.7481839999999806
20
-104.2299620000000004
40
1.75
0
CIRCLE
8
BLACK
10
224.2481839999999806
20
-104.2299620000000004
40
0.855
0
ARC
8
BLACK
10
232.5327839999999924
20
-97.2505620000000022
40
0.5
50
-180.00000000
51
-90.00000000
0
ARC
8
BLACK
10
230.6220539999999914
20
-102.2001819999999981
40
1.4439089435625778
50
-2.31720677
51
93.22658164
0
LINE
8
BLACK
6
CONTINUOUS
10
239.481583999999998
20
-101.9185619999999943
11
239.481583999999998
21
-99.0229619999999926
0
LINE
8
BLACK
6
CONTINUOUS
10
237.0327839999999924
20
-102.9585620000000006
11
237.0327839999999924
21
-101.9185619999999943
0
LINE
8
BLACK
6
CONTINUOUS
10
237.0327839999999924
20
-101.9185619999999943
11
239.481583999999998
21
-101.9185619999999943
0
LINE
8
BLACK
6
CONTINUOUS
10
237.0327839999999924
20
-99.0229619999999926
11
239.481583999999998
21
-99.0229619999999926
0
LINE
8
BLACK
6
CONTINUOUS
10
237.0327839999999924
20
-99.0229619999999926
11
237.0327839999999924
21
-97.7505620000000022
0
LINE
8
BLACK
6
CONTINUOUS
10
237.0327839999999924
20
-97.7505620000000022
11
232.5327839999999924
21
-97.7505620000000022
0
LINE
8
BLACK
6
CONTINUOUS
10
232.0647840000000031
20
-102.9585620000000006
11
237.0327839999999924
21
-102.9585620000000006
0
LINE
8
BLACK
6
CONTINUOUS
10
232.0647840000000031
20
-102.2585619999999977
11
232.0647840000000031
21
-102.9585620000000006
0
LINE
8
BLACK
6
CONTINUOUS
10
232.0327839999999924
20
-97.2505620000000022
11
232.0327839999999924
21
-96.2505620000000022
0
LINE
8
BLACK
6
CONTINUOUS
10
231.5327839999999924
20
-95.7505620000000022
11
232.0327839999999924
21
-96.2505620000000022
0
LINE
8
BLACK
6
CONTINUOUS
10
228.0247839999999826
20
-100.7585619999999977
11
230.5407840000000022
21
-100.7585619999999977
0
LINE
8
BLACK
6
CONTINUOUS
10
228.0247839999999826
20
-95.7505620000000022
11
231.5327839999999924
21
-95.7505620000000022
0
LINE
8
BLACK
6
CONTINUOUS
10
227.5247839999999826
20
-100.2585619999999977
11
228.0247839999999826
21
-100.7585619999999977
0
LINE
8
BLACK
6
CONTINUOUS
10
227.5247839999999826
20
-100.2585619999999977
11
227.5247839999999826
21
-99.6833620000000025
0
LINE
8
BLACK
6
CONTINUOUS
10
227.5247839999999826
20
-99.6833620000000025
11
225.075983999999977
21
-99.6833620000000025
0
LINE
8
BLACK
6
CONTINUOUS
10
227.5247839999999826
20
-96.7877620000000007
11
227.5247839999999826
21
-96.2505620000000022
0
LINE
8
BLACK
6
CONTINUOUS
10
227.5247839999999826
20
-96.7877620000000007
11
225.075983999999977
21
-96.7877620000000007
0
LINE
8
BLACK
6
CONTINUOUS
10
227.5247839999999826
20
-96.2505620000000022
11
228.0247839999999826
21
-95.7505620000000022
0
LINE
8
BLACK
6
CONTINUOUS
10
225.075983999999977
20
-96.7877620000000007
11
225.075983999999977
21
-99.6833620000000025
0
LINE
8
BLACK
6
CONTINUOUS
10
168.3327840000000037
20
-91.1709620000000029
11
170.364783999999986
21
-91.1709620000000029
0
LINE
8
BLACK
6
CONTINUOUS
10
170.364783999999986
20
-91.1709620000000029
11
170.364783999999986
21
-85.9893619999999999
0
LINE
8
BLACK
6
CONTINUOUS
10
170.364783999999986
20
-85.9893619999999999
11
168.3327840000000037
21
-85.9893619999999999
0
LINE
8
BLACK
6
CONTINUOUS
10
168.3327840000000037
20
-85.9893619999999999
11
168.3327840000000037
21
-91.1709620000000029
0
CIRCLE
8
BLACK
10
216.9483840000000043
20
-67.2301619999999929
40
0.855
0
CIRCLE
8
BLACK
10
211.4483840000000043
20
-67.2301619999999929
40
1.75
0
CIRCLE
8
BLACK
10
205.9483840000000043
20
-67.2301619999999929
40
0.855
0
ARC
8
BLACK
10
214.2329839999999876
20
-60.2507619999999946
40
0.5
50
-180.00000000
51
-90.00000000
0
ARC
8
BLACK
10
212.3222539999999867
20
-65.2003819999999905
40
1.4439089435625778
50
-2.31720677
51
93.22658164
0
LINE
8
BLACK
6
CONTINUOUS
10
221.1817839999999933
20
-64.918762000000001
11
221.1817839999999933
21
-62.0231619999999992
0
LINE
8
BLACK
6
CONTINUOUS
10
218.7329839999999876
20
-65.958761999999993
11
218.7329839999999876
21
-64.918762000000001
0
LINE
8
BLACK
6
CONTINUOUS
10
218.7329839999999876
20
-64.918762000000001
11
221.1817839999999933
21
-64.918762000000001
0
LINE
8
BLACK
6
CONTINUOUS
10
218.7329839999999876
20
-62.0231619999999992
11
221.1817839999999933
21
-62.0231619999999992
0
LINE
8
BLACK
6
CONTINUOUS
10
218.7329839999999876
20
-62.0231619999999992
11
218.7329839999999876
21
-60.7507619999999946
0
LINE
8
BLACK
6
CONTINUOUS
10
218.7329839999999876
20
-60.7507619999999946
11
214.2329839999999876
21
-60.7507619999999946
0
LINE
8
BLACK
6
CONTINUOUS
10
213.7649839999999983
20
-65.958761999999993
11
218.7329839999999876
21
-65.958761999999993
0
LINE
8
BLACK
6
CONTINUOUS
10
213.7649839999999983
20
-65.2587619999999902
11
213.7649839999999983
21
-65.958761999999993
0
LINE
8
BLACK
6
CONTINUOUS
10
213.7329839999999876
20
-60.2507619999999946
11
213.7329839999999876
21
-59.2507619999999946
0
LINE
8
BLACK
6
CONTINUOUS
10
213.2329839999999876
20
-58.7507619999999946
11
213.7329839999999876
21
-59.2507619999999946
0
LINE
8
BLACK
6
CONTINUOUS
10
209.7249839999999779
20
-63.7587619999999973
11
212.2409839999999974
21
-63.7587619999999973
0
LINE
8
BLACK
6
CONTINUOUS
10
209.7249839999999779
20
-58.7507619999999946
11
213.2329839999999876
21
-58.7507619999999946
0
LINE
8
BLACK
6
CONTINUOUS
10
209.2249839999999779
20
-63.2587619999999973
11
209.7249839999999779
21
-63.7587619999999973
0
LINE
8
BLACK
6
CONTINUOUS
10
209.2249839999999779
20
-63.2587619999999973
11
209.2249839999999779
21
-62.6835619999999949
0
LINE
8
BLACK
6
CONTINUOUS
10
209.2249839999999779
20
-62.6835619999999949
11
206.7761840000000007
21
-62.6835619999999949
0
LINE
8
BLACK
6
CONTINUOUS
10
209.2249839999999779
20
-59.7879620000000003
11
209.2249839999999779
21
-59.2507619999999946
0
LINE
8
BLACK
6
CONTINUOUS
10
209.2249839999999779
20
-59.7879620000000003
11
206.7761840000000007
21
-59.7879620000000003
0
LINE
8
BLACK
6
CONTINUOUS
10
209.2249839999999779
20
-59.2507619999999946
11
209.7249839999999779
21
-58.7507619999999946
0
LINE
8
BLACK
6
CONTINUOUS
10
206.7761840000000007
20
-59.7879620000000003
11
206.7761840000000007
21
-62.6835619999999949
0
LINE
8
BLACK
6
CONTINUOUS
10
140.5182859999999891
20
-127.5735269999999986
11
138.2406780000000026
21
-119.0733800000000002
0
LINE
8
BLACK
6
CONTINUOUS
10
143.756842000000006
20
-126.7057579999999888
11
140.5182859999999891
21
-127.5735269999999986
0
LINE
8
BLACK
6
CONTINUOUS
10
138.2406780000000026
20
-119.0733800000000002
11
141.4792339999999911
21
-118.2056109999999904
0
LINE
8
BLACK
6
CONTINUOUS
10
141.4792339999999911
20
-118.2056109999999904
11
141.823773999999986
21
-119.4914519999999953
0
LINE
8
BLACK
6
CONTINUOUS
10
142.8542239999999879
20
-119.2153429999999901
11
141.823773999999986
21
-119.4914519999999953
0
LINE
8
BLACK
6
CONTINUOUS
10
143.756842000000006
20
-126.7057579999999888
11
143.4254499999999837
21
-125.4689869999999985
0
LINE
8
BLACK
6
CONTINUOUS
10
144.4558989999999881
20
-125.1928789999999907
11
143.4254499999999837
21
-125.4689869999999985
0
LINE
8
BLACK
6
CONTINUOUS
10
142.8542239999999879
20
-119.2153429999999901
11
144.4558989999999881
21
-125.1928789999999907
0
LINE
8
BLACK
6
CONTINUOUS
10
204.9325839999999914
20
-91.1709620000000029
11
206.9645840000000021
21
-91.1709620000000029
0
LINE
8
BLACK
6
CONTINUOUS
10
206.9645840000000021
20
-91.1709620000000029
11
206.9645840000000021
21
-85.9893619999999999
0
LINE
8
BLACK
6
CONTINUOUS
10
206.9645840000000021
20
-85.9893619999999999
11
204.9325839999999914
21
-85.9893619999999999
0
LINE
8
BLACK
6
CONTINUOUS
10
204.9325839999999914
20
-85.9893619999999999
11
204.9325839999999914
21
-91.1709620000000029
0
LINE
8
BLACK
6
CONTINUOUS
10
204.9325839999999914
20
-108.1709619999999887
11
206.9645840000000021
21
-108.1709619999999887
0
LINE
8
BLACK
6
CONTINUOUS
10
206.9645840000000021
20
-108.1709619999999887
11
206.9645840000000021
21
-102.9893619999999999
0
LINE
8
BLACK
6
CONTINUOUS
10
206.9645840000000021
20
-102.9893619999999999
11
204.9325839999999914
21
-102.9893619999999999
0
LINE
8
BLACK
6
CONTINUOUS
10
204.9325839999999914
20
-102.9893619999999999
11
204.9325839999999914
21
-108.1709619999999887
0
CIRCLE
8
BLACK
10
198.6485839999999996
20
-98.4301619999999957
40
0.855
0
CIRCLE
8
BLACK
10
193.1485839999999996
20
-98.4301619999999957
40
1.75
0
CIRCLE
8
BLACK
10
187.6485839999999996
20
-98.4301619999999957
40
0.855
0
ARC
8
BLACK
10
195.9331839999999829
20
-91.4507619999999974
40
0.5
50
-180.00000000
51
-90.00000000
0
ARC
8
BLACK
10
194.022453999999982
20
-96.4003819999999934
40
1.4439089435625778
50
-2.31720677
51
93.22658164
0
LINE
8
BLACK
6
CONTINUOUS
10
202.8819839999999886
20
-96.1187619999999896
11
202.8819839999999886
21
-93.2231620000000021
0
LINE
8
BLACK
6
CONTINUOUS
10
200.4331839999999829
20
-97.1587619999999959
11
200.4331839999999829
21
-96.1187619999999896
0
LINE
8
BLACK
6
CONTINUOUS
10
200.4331839999999829
20
-96.1187619999999896
11
202.8819839999999886
21
-96.1187619999999896
0
LINE
8
BLACK
6
CONTINUOUS
10
200.4331839999999829
20
-93.2231620000000021
11
202.8819839999999886
21
-93.2231620000000021
0
LINE
8
BLACK
6
CONTINUOUS
10
200.4331839999999829
20
-93.2231620000000021
11
200.4331839999999829
21
-91.9507619999999974
0
LINE
8
BLACK
6
CONTINUOUS
10
200.4331839999999829
20
-91.9507619999999974
11
195.9331839999999829
21
-91.9507619999999974
0
LINE
8
BLACK
6
CONTINUOUS
10
195.4651839999999936
20
-97.1587619999999959
11
200.4331839999999829
21
-97.1587619999999959
0
LINE
8
BLACK
6
CONTINUOUS
10
195.4651839999999936
20
-96.458761999999993
11
195.4651839999999936
21
-97.1587619999999959
0
LINE
8
BLACK
6
CONTINUOUS
10
195.4331839999999829
20
-91.4507619999999974
11
195.4331839999999829
21
-90.4507619999999974
0
LINE
8
BLACK
6
CONTINUOUS
10
194.9331839999999829
20
-89.9507619999999974
11
195.4331839999999829
21
-90.4507619999999974
0
LINE
8
BLACK
6
CONTINUOUS
10
191.4251840000000016
20
-94.958761999999993
11
193.9411839999999927
21
-94.958761999999993
0
LINE
8
BLACK
6
CONTINUOUS
10
191.4251840000000016
20
-89.9507619999999974
11
194.9331839999999829
21
-89.9507619999999974
0
LINE
8
BLACK
6
CONTINUOUS
10
190.9251840000000016
20
-94.458761999999993
11
191.4251840000000016
21
-94.958761999999993
0
LINE
8
BLACK
6
CONTINUOUS
10
190.9251840000000016
20
-94.458761999999993
11
190.9251840000000016
21
-93.8835619999999977
0
LINE
8
BLACK
6
CONTINUOUS
10
190.9251840000000016
20
-93.8835619999999977
11
188.4763839999999959
21
-93.8835619999999977
0
LINE
8
BLACK
6
CONTINUOUS
10
190.9251840000000016
20
-90.987961999999996
11
190.9251840000000016
21
-90.4507619999999974
0
LINE
8
BLACK
6
CONTINUOUS
10
190.9251840000000016
20
-90.987961999999996
11
188.4763839999999959
21
-90.987961999999996
0
LINE
8
BLACK
6
CONTINUOUS
10
190.9251840000000016
20
-90.4507619999999974
11
191.4251840000000016
21
-89.9507619999999974
0
LINE
8
BLACK
6
CONTINUOUS
10
188.4763839999999959
20
-90.987961999999996
11
188.4763839999999959
21
-93.8835619999999977
0
LINE
8
BLACK
6
CONTINUOUS
10
150.0331840000000057
20
-94.7105619999999959
11
152.0651839999999879
21
-94.7105619999999959
0
LINE
8
BLACK
6
CONTINUOUS
10
152.0651839999999879
20
-94.7105619999999959
11
152.0651839999999879
21
-89.5289619999999928
0
LINE
8
BLACK
6
CONTINUOUS
10
152.0651839999999879
20
-89.5289619999999928
11
150.0331840000000057
21
-89.5289619999999928
0
LINE
8
BLACK
6
CONTINUOUS
10
150.0331840000000057
20
-89.5289619999999928
11
150.0331840000000057
21
-94.7105619999999959
0
CIRCLE
8
BLACK
10
162.0489839999999901
20
-87.7697620000000001
40
0.855
0
CIRCLE
8
BLACK
10
156.5489839999999901
20
-87.7697620000000001
40
1.75
0
CIRCLE
8
BLACK
10
151.0489839999999901
20
-87.7697620000000001
40
0.855
0
ARC
8
BLACK
10
159.3335840000000019
20
-80.7903620000000018
40
0.5
50
-180.00000000
51
-90.00000000
0
ARC
8
BLACK
10
157.422854000000001
20
-85.7399819999999977
40
1.4439089435625778
50
-2.31720677
51
93.22658164
0
LINE
8
BLACK
6
CONTINUOUS
10
166.2823839999999791
20
-85.4583619999999939
11
166.2823839999999791
21
-82.5627619999999922
0
LINE
8
BLACK
6
CONTINUOUS
10
163.8335840000000019
20
-86.4983620000000002
11
163.8335840000000019
21
-85.4583619999999939
0
LINE
8
BLACK
6
CONTINUOUS
10
163.8335840000000019
20
-85.4583619999999939
11
166.2823839999999791
21
-85.4583619999999939
0
LINE
8
BLACK
6
CONTINUOUS
10
163.8335840000000019
20
-82.5627619999999922
11
166.2823839999999791
21
-82.5627619999999922
0
LINE
8
BLACK
6
CONTINUOUS
10
163.8335840000000019
20
-82.5627619999999922
11
163.8335840000000019
21
-81.2903620000000018
0
LINE
8
BLACK
6
CONTINUOUS
10
163.8335840000000019
20
-81.2903620000000018
11
159.3335840000000019
21
-81.2903620000000018
0
LINE
8
BLACK
6
CONTINUOUS
10
158.8655839999999841
20
-86.4983620000000002
11
163.8335840000000019
21
-86.4983620000000002
0
LINE
8
BLACK
6
CONTINUOUS
10
158.8655839999999841
20
-85.7983619999999974
11
158.8655839999999841
21
-86.4983620000000002
0
LINE
8
BLACK
6
CONTINUOUS
10
158.8335840000000019
20
-80.7903620000000018
11
158.8335840000000019
21
-79.7903620000000018
0
LINE
8
BLACK
6
CONTINUOUS
10
158.3335840000000019
20
-79.2903620000000018
11
158.8335840000000019
21
-79.7903620000000018
0
LINE
8
BLACK
6
CONTINUOUS
10
154.8255839999999921
20
-84.2983619999999974
11
157.3415839999999832
21
-84.2983619999999974
0
LINE
8
BLACK
6
CONTINUOUS
10
154.8255839999999921
20
-79.2903620000000018
11
158.3335840000000019
21
-79.2903620000000018
0
LINE
8
BLACK
6
CONTINUOUS
10
154.3255839999999921
20
-83.7983619999999974
11
154.8255839999999921
21
-84.2983619999999974
0
LINE
8
BLACK
6
CONTINUOUS
10
154.3255839999999921
20
-83.7983619999999974
11
154.3255839999999921
21
-83.2231620000000021
0
LINE
8
BLACK
6
CONTINUOUS
10
154.3255839999999921
20
-83.2231620000000021
11
151.8767839999999865
21
-83.2231620000000021
0
LINE
8
BLACK
6
CONTINUOUS
10
154.3255839999999921
20
-80.3275620000000004
11
154.3255839999999921
21
-79.7903620000000018
0
LINE
8
BLACK
6
CONTINUOUS
10
154.3255839999999921
20
-80.3275620000000004
11
151.8767839999999865
21
-80.3275620000000004
0
LINE
8
BLACK
6
CONTINUOUS
10
154.3255839999999921
20
-79.7903620000000018
11
154.8255839999999921
21
-79.2903620000000018
0
LINE
8
BLACK
6
CONTINUOUS
10
151.8767839999999865
20
-80.3275620000000004
11
151.8767839999999865
21
-83.2231620000000021
0
CIRCLE
8
BLACK
10
162.0489839999999901
20
-70.7697620000000001
40
0.855
0
CIRCLE
8
BLACK
10
156.5489839999999901
20
-70.7697620000000001
40
1.75
0
CIRCLE
8
BLACK
10
151.0489839999999901
20
-70.7697620000000001
40
0.855
0
ARC
8
BLACK
10
155.6751139999999793
20
-72.7995420000000024
40
1.4439089435625778
50
-182.31720677
51
-86.77341836
0
ARC
8
BLACK
10
153.7643840000000068
20
-77.7491619999999983
40
0.5
50
0.00000000
51
90.00000000
0
LINE
8
BLACK
6
CONTINUOUS
10
161.2211839999999938
20
-78.2119619999999998
11
161.2211839999999938
21
-75.316361999999998
0
LINE
8
BLACK
6
CONTINUOUS
10
158.7723839999999882
20
-78.7491619999999983
11
158.2723839999999882
21
-79.2491619999999983
0
LINE
8
BLACK
6
CONTINUOUS
10
158.7723839999999882
20
-78.2119619999999998
11
161.2211839999999938
21
-78.2119619999999998
0
LINE
8
BLACK
6
CONTINUOUS
10
158.7723839999999882
20
-78.2119619999999998
11
158.7723839999999882
21
-78.7491619999999983
0
LINE
8
BLACK
6
CONTINUOUS
10
158.7723839999999882
20
-75.316361999999998
11
161.2211839999999938
21
-75.316361999999998
0
LINE
8
BLACK
6
CONTINUOUS
10
158.7723839999999882
20
-74.7411620000000028
11
158.7723839999999882
21
-75.316361999999998
0
LINE
8
BLACK
6
CONTINUOUS
10
158.7723839999999882
20
-74.7411620000000028
11
158.2723839999999882
21
-74.2411620000000028
0
LINE
8
BLACK
6
CONTINUOUS
10
158.2723839999999882
20
-79.2491619999999983
11
154.7643840000000068
21
-79.2491619999999983
0
LINE
8
BLACK
6
CONTINUOUS
10
158.2723839999999882
20
-74.2411620000000028
11
155.7563839999999971
21
-74.2411620000000028
0
LINE
8
BLACK
6
CONTINUOUS
10
154.7643840000000068
20
-79.2491619999999983
11
154.2643840000000068
21
-78.7491619999999983
0
LINE
8
BLACK
6
CONTINUOUS
10
154.2643840000000068
20
-77.7491619999999983
11
154.2643840000000068
21
-78.7491619999999983
0
LINE
8
BLACK
6
CONTINUOUS
10
154.2323839999999961
20
-72.7411620000000028
11
154.2323839999999961
21
-72.0411619999999999
0
LINE
8
BLACK
6
CONTINUOUS
10
154.2323839999999961
20
-72.0411619999999999
11
149.2643840000000068
21
-72.0411619999999999
0
LINE
8
BLACK
6
CONTINUOUS
10
149.2643840000000068
20
-77.2491619999999983
11
153.7643840000000068
21
-77.2491619999999983
0
LINE
8
BLACK
6
CONTINUOUS
10
149.2643840000000068
20
-75.9767619999999937
11
149.2643840000000068
21
-77.2491619999999983
0
LINE
8
BLACK
6
CONTINUOUS
10
149.2643840000000068
20
-75.9767619999999937
11
146.8155840000000012
21
-75.9767619999999937
0
LINE
8
BLACK
6
CONTINUOUS
10
149.2643840000000068
20
-73.081161999999992
11
146.8155840000000012
21
-73.081161999999992
0
LINE
8
BLACK
6
CONTINUOUS
10
149.2643840000000068
20
-72.0411619999999999
11
149.2643840000000068
21
-73.081161999999992
0
LINE
8
BLACK
6
CONTINUOUS
10
146.8155840000000012
20
-73.081161999999992
11
146.8155840000000012
21
-75.9767619999999937
0
LINE
8
BLACK
6
CONTINUOUS
10
225.2643839999999784
20
-63.2896809999999945
11
223.2323839999999961
21
-63.2896809999999945
0
LINE
8
BLACK
6
CONTINUOUS
10
223.2323839999999961
20
-63.2896809999999945
11
223.2323839999999961
21
-68.4712809999999905
0
LINE
8
BLACK
6
CONTINUOUS
10
223.2323839999999961
20
-68.4712809999999905
11
225.2643839999999784
21
-68.4712809999999905
0
LINE
8
BLACK
6
CONTINUOUS
10
225.2643839999999784
20
-68.4712809999999905
11
225.2643839999999784
21
-63.2896809999999945
0
LINE
8
BLACK
6
CONTINUOUS
10
150.0331840000000057
20
-111.7105619999999959
11
152.0651839999999879
21
-111.7105619999999959
0
LINE
8
BLACK
6
CONTINUOUS
10
152.0651839999999879
20
-111.7105619999999959
11
152.0651839999999879
21
-106.5289619999999928
0
LINE
8
BLACK
6
CONTINUOUS
10
152.0651839999999879
20
-106.5289619999999928
11
150.0331840000000057
21
-106.5289619999999928
0
LINE
8
BLACK
6
CONTINUOUS
10
150.0331840000000057
20
-106.5289619999999928
11
150.0331840000000057
21
-111.7105619999999959
0
CIRCLE
8
BLACK
10
207.8309879999999907
20
-128.8374609999999905
40
1.0999999999999999
0
LINE
8
BLACK
6
CONTINUOUS
10
168.3327840000000037
20
-108.1709619999999887
11
170.364783999999986
21
-108.1709619999999887
0
LINE
8
BLACK
6
CONTINUOUS
10
170.364783999999986
20
-108.1709619999999887
11
170.364783999999986
21
-102.9893619999999999
0
LINE
8
BLACK
6
CONTINUOUS
10
170.364783999999986
20
-102.9893619999999999
11
168.3327840000000037
21
-102.9893619999999999
0
LINE
8
BLACK
6
CONTINUOUS
10
168.3327840000000037
20
-102.9893619999999999
11
168.3327840000000037
21
-108.1709619999999887
0
LINE
8
BLACK
6
CONTINUOUS
10
168.3327840000000037
20
-74.1707619999999963
11
170.364783999999986
21
-74.1707619999999963
0
LINE
8
BLACK
6
CONTINUOUS
10
170.364783999999986
20
-74.1707619999999963
11
170.364783999999986
21
-68.9891619999999932
0
LINE
8
BLACK
6
CONTINUOUS
10
170.364783999999986
20
-68.9891619999999932
11
168.3327840000000037
21
-68.9891619999999932
0
LINE
8
BLACK
6
CONTINUOUS
10
168.3327840000000037
20
-68.9891619999999932
11
168.3327840000000037
21
-74.1707619999999963
0
LINE
8
BLACK
6
CONTINUOUS
10
162.0526089999999897
20
-129.6488669999999956
11
162.4305619999999806
21
-132.5196949999999845
0
LINE
8
BLACK
6
CONTINUOUS
10
165.0244929999999783
20
-133.4615770000000055
11
169.4859950000000026
21
-132.874210000000005
0
LINE
8
BLACK
6
CONTINUOUS
10
164.8584119999999871
20
-132.2000620000000026
11
162.4305619999999806
21
-132.5196949999999845
0
LINE
8
BLACK
6
CONTINUOUS
10
164.8584119999999871
20
-132.2000620000000026
11
165.0244929999999783
21
-133.4615770000000055
0
LINE
8
BLACK
6
CONTINUOUS
10
164.4804629999999861
20
-129.3292349999999828
11
162.0526089999999897
21
-129.6488669999999956
0
LINE
8
BLACK
6
CONTINUOUS
10
164.3447129999999845
20
-128.2981319999999812
11
164.4804629999999861
21
-129.3292349999999828
0
LINE
8
BLACK
6
CONTINUOUS
10
170.0469809999999882
20
-133.3046679999999924
11
170.1775059999999939
21
-134.2961129999999912
0
LINE
8
BLACK
6
CONTINUOUS
10
170.7384930000000054
20
-134.7265730000000019
11
170.1775059999999939
21
-134.2961129999999912
0
LINE
8
BLACK
6
CONTINUOUS
10
169.3615790000000061
20
-128.3436889999999835
11
169.2702109999999891
21
-127.6496779999999944
0
LINE
8
BLACK
6
CONTINUOUS
10
169.2702109999999891
20
-127.6496779999999944
11
164.3447129999999845
21
-128.2981319999999812
0
LINE
8
BLACK
6
CONTINUOUS
10
174.21647999999999
20
-134.2686860000000024
11
170.7384930000000054
21
-134.7265730000000019
0
LINE
8
BLACK
6
CONTINUOUS
10
174.6469400000000007
20
-133.7077009999999859
11
174.21647999999999
21
-134.2686860000000024
0
LINE
8
BLACK
6
CONTINUOUS
10
174.5768209999999954
20
-133.1750969999999938
11
174.6469400000000007
21
-133.7077009999999859
0
LINE
8
BLACK
6
CONTINUOUS
10
174.5768209999999954
20
-133.1750969999999938
11
177.0046719999999993
21
-132.8554639999999836
0
LINE
8
BLACK
6
CONTINUOUS
10
173.5628059999999948
20
-129.3035329999999874
11
171.0683300000000031
21
-129.6319349999999986
0
LINE
8
BLACK
6
CONTINUOUS
10
174.1988699999999994
20
-130.304269000000005
11
176.6267200000000059
21
-129.9846369999999922
0
LINE
8
BLACK
6
CONTINUOUS
10
174.1237909999999829
20
-129.7339900000000057
11
173.5628059999999948
21
-129.3035329999999874
0
LINE
8
BLACK
6
CONTINUOUS
10
174.1237909999999829
20
-129.7339900000000057
11
174.1988699999999994
21
-130.304269000000005
0
LINE
8
BLACK
6
CONTINUOUS
10
177.0046719999999993
20
-132.8554639999999836
11
176.6267200000000059
21
-129.9846369999999922
0
ARC
8
BLACK
10
169.55125799999999
20
-133.3699320000000057
40
0.4999995604528068
50
7.50009418
51
97.49999552
0
ARC
8
BLACK
10
170.7995870000000025
20
-128.2132560000000012
40
1.4439088977806043
50
-174.81722890
51
-79.27345409
0
CIRCLE
8
BLACK
10
165.9480939999999975
20
-126.8046719999999965
40
0.855
0
CIRCLE
8
BLACK
10
171.4010409999999922
20
-126.0867779999999954
40
1.7500009999999999
0
CIRCLE
8
BLACK
10
176.8539879999999869
20
-125.3688839999999942
40
0.855001
0
CIRCLE
8
BLACK
10
185.5907739999999819
20
-125.9094809999999995
40
1.0999999999999999
0
CIRCLE
8
BLACK
10
164.0007739999999785
20
-59.8694810000000004
40
1.0999999999999999
0
CIRCLE
8
BLACK
10
162.0489839999999901
20
-104.7697620000000001
40
0.855
0
CIRCLE
8
BLACK
10
156.5489839999999901
20
-104.7697620000000001
40
1.75
0
CIRCLE
8
BLACK
10
151.0489839999999901
20
-104.7697620000000001
40
0.855
0
ARC
8
BLACK
10
159.3335840000000019
20
-97.7903620000000018
40
0.5
50
-180.00000000
51
-90.00000000
0
ARC
8
BLACK
10
157.422854000000001
20
-102.7399819999999977
40
1.4439089435625778
50
-2.31720677
51
93.22658164
0
LINE
8
BLACK
6
CONTINUOUS
10
166.2823839999999791
20
-102.4583619999999939
11
166.2823839999999791
21
-99.5627619999999922
0
LINE
8
BLACK
6
CONTINUOUS
10
163.8335840000000019
20
-103.4983620000000002
11
163.8335840000000019
21
-102.4583619999999939
0
LINE
8
BLACK
6
CONTINUOUS
10
163.8335840000000019
20
-102.4583619999999939
11
166.2823839999999791
21
-102.4583619999999939
0
LINE
8
BLACK
6
CONTINUOUS
10
163.8335840000000019
20
-99.5627619999999922
11
166.2823839999999791
21
-99.5627619999999922
0
LINE
8
BLACK
6
CONTINUOUS
10
163.8335840000000019
20
-99.5627619999999922
11
163.8335840000000019
21
-98.2903620000000018
0
LINE
8
BLACK
6
CONTINUOUS
10
163.8335840000000019
20
-98.2903620000000018
11
159.3335840000000019
21
-98.2903620000000018
0
LINE
8
BLACK
6
CONTINUOUS
10
158.8655839999999841
20
-103.4983620000000002
11
163.8335840000000019
21
-103.4983620000000002
0
LINE
8
BLACK
6
CONTINUOUS
10
158.8655839999999841
20
-102.7983619999999974
11
158.8655839999999841
21
-103.4983620000000002
0
LINE
8
BLACK
6
CONTINUOUS
10
158.8335840000000019
20
-97.7903620000000018
11
158.8335840000000019
21
-96.7903620000000018
0
LINE
8
BLACK
6
CONTINUOUS
10
158.3335840000000019
20
-96.2903620000000018
11
158.8335840000000019
21
-96.7903620000000018
0
LINE
8
BLACK
6
CONTINUOUS
10
154.8255839999999921
20
-101.2983619999999974
11
157.3415839999999832
21
-101.2983619999999974
0
LINE
8
BLACK
6
CONTINUOUS
10
154.8255839999999921
20
-96.2903620000000018
11
158.3335840000000019
21
-96.2903620000000018
0
LINE
8
BLACK
6
CONTINUOUS
10
154.3255839999999921
20
-100.7983619999999974
11
154.8255839999999921
21
-101.2983619999999974
0
LINE
8
BLACK
6
CONTINUOUS
10
154.3255839999999921
20
-100.7983619999999974
11
154.3255839999999921
21
-100.2231620000000021
0
LINE
8
BLACK
6
CONTINUOUS
10
154.3255839999999921
20
-100.2231620000000021
11
151.8767839999999865
21
-100.2231620000000021
0
LINE
8
BLACK
6
CONTINUOUS
10
154.3255839999999921
20
-97.3275620000000004
11
154.3255839999999921
21
-96.7903620000000018
0
LINE
8
BLACK
6
CONTINUOUS
10
154.3255839999999921
20
-97.3275620000000004
11
151.8767839999999865
21
-97.3275620000000004
0
LINE
8
BLACK
6
CONTINUOUS
10
154.3255839999999921
20
-96.7903620000000018
11
154.8255839999999921
21
-96.2903620000000018
0
LINE
8
BLACK
6
CONTINUOUS
10
151.8767839999999865
20
-97.3275620000000004
11
151.8767839999999865
21
-100.2231620000000021
0
LINE
8
BLACK
6
CONTINUOUS
10
186.6327839999999867
20
-71.3709619999999916
11
188.6647839999999974
21
-71.3709619999999916
0
LINE
8
BLACK
6
CONTINUOUS
10
188.6647839999999974
20
-71.3709619999999916
11
188.6647839999999974
21
-66.1893620000000027
0
LINE
8
BLACK
6
CONTINUOUS
10
188.6647839999999974
20
-66.1893620000000027
11
186.6327839999999867
21
-66.1893620000000027
0
LINE
8
BLACK
6
CONTINUOUS
10
186.6327839999999867
20
-66.1893620000000027
11
186.6327839999999867
21
-71.3709619999999916
0
CIRCLE
8
BLACK
10
235.2481839999999806
20
-70.2301619999999929
40
0.855
0
CIRCLE
8
BLACK
10
229.7481839999999806
20
-70.2301619999999929
40
1.75
0
CIRCLE
8
BLACK
10
224.2481839999999806
20
-70.2301619999999929
40
0.855
0
ARC
8
BLACK
10
228.8743139999999983
20
-72.2599419999999952
40
1.4439089435625778
50
-182.31720677
51
-86.77341836
0
ARC
8
BLACK
10
226.9635839999999973
20
-77.2095619999999911
40
0.5
50
0.00000000
51
90.00000000
0
LINE
8
BLACK
6
CONTINUOUS
10
234.4203839999999843
20
-77.6723619999999926
11
234.4203839999999843
21
-74.7767619999999908
0
LINE
8
BLACK
6
CONTINUOUS
10
231.9715839999999787
20
-78.2095619999999911
11
231.4715839999999787
21
-78.7095619999999911
0
LINE
8
BLACK
6
CONTINUOUS
10
231.9715839999999787
20
-77.6723619999999926
11
234.4203839999999843
21
-77.6723619999999926
0
LINE
8
BLACK
6
CONTINUOUS
10
231.9715839999999787
20
-77.6723619999999926
11
231.9715839999999787
21
-78.2095619999999911
0
LINE
8
BLACK
6
CONTINUOUS
10
231.9715839999999787
20
-74.7767619999999908
11
234.4203839999999843
21
-74.7767619999999908
0
LINE
8
BLACK
6
CONTINUOUS
10
231.9715839999999787
20
-74.2015619999999956
11
231.9715839999999787
21
-74.7767619999999908
0
LINE
8
BLACK
6
CONTINUOUS
10
231.9715839999999787
20
-74.2015619999999956
11
231.4715839999999787
21
-73.7015619999999956
0
LINE
8
BLACK
6
CONTINUOUS
10
231.4715839999999787
20
-78.7095619999999911
11
227.9635839999999973
21
-78.7095619999999911
0
LINE
8
BLACK
6
CONTINUOUS
10
231.4715839999999787
20
-73.7015619999999956
11
228.9555839999999876
21
-73.7015619999999956
0
LINE
8
BLACK
6
CONTINUOUS
10
227.9635839999999973
20
-78.7095619999999911
11
227.4635839999999973
21
-78.2095619999999911
0
LINE
8
BLACK
6
CONTINUOUS
10
227.4635839999999973
20
-77.2095619999999911
11
227.4635839999999973
21
-78.2095619999999911
0
LINE
8
BLACK
6
CONTINUOUS
10
227.4315839999999866
20
-72.2015619999999956
11
227.4315839999999866
21
-71.5015619999999927
0
LINE
8
BLACK
6
CONTINUOUS
10
227.4315839999999866
20
-71.5015619999999927
11
222.4635839999999973
21
-71.5015619999999927
0
LINE
8
BLACK
6
CONTINUOUS
10
222.4635839999999973
20
-76.7095619999999911
11
226.9635839999999973
21
-76.7095619999999911
0
LINE
8
BLACK
6
CONTINUOUS
10
222.4635839999999973
20
-75.4371620000000007
11
222.4635839999999973
21
-76.7095619999999911
0
LINE
8
BLACK
6
CONTINUOUS
10
222.4635839999999973
20
-75.4371620000000007
11
220.0147839999999917
21
-75.4371620000000007
0
LINE
8
BLACK
6
CONTINUOUS
10
222.4635839999999973
20
-72.541561999999999
11
220.0147839999999917
21
-72.541561999999999
0
LINE
8
BLACK
6
CONTINUOUS
10
222.4635839999999973
20
-71.5015619999999927
11
222.4635839999999973
21
-72.541561999999999
0
LINE
8
BLACK
6
CONTINUOUS
10
220.0147839999999917
20
-72.541561999999999
11
220.0147839999999917
21
-75.4371620000000007
0
LINE
8
BLACK
6
CONTINUOUS
10
186.6327839999999867
20
-105.3709619999999916
11
188.6647839999999974
21
-105.3709619999999916
0
LINE
8
BLACK
6
CONTINUOUS
10
188.6647839999999974
20
-105.3709619999999916
11
188.6647839999999974
21
-100.1893619999999885
0
LINE
8
BLACK
6
CONTINUOUS
10
188.6647839999999974
20
-100.1893619999999885
11
186.6327839999999867
21
-100.1893619999999885
0
LINE
8
BLACK
6
CONTINUOUS
10
186.6327839999999867
20
-100.1893619999999885
11
186.6327839999999867
21
-105.3709619999999916
0
CIRCLE
8
BLACK
10
235.2481839999999806
20
-87.2299620000000004
40
0.855
0
CIRCLE
8
BLACK
10
229.7481839999999806
20
-87.2299620000000004
40
1.75
0
CIRCLE
8
BLACK
10
224.2481839999999806
20
-87.2299620000000004
40
0.855
0
ARC
8
BLACK
10
232.5327839999999924
20
-80.2505620000000022
40
0.5
50
-180.00000000
51
-90.00000000
0
ARC
8
BLACK
10
230.6220539999999914
20
-85.2001819999999981
40
1.4439089435625778
50
-2.31720677
51
93.22658164
0
LINE
8
BLACK
6
CONTINUOUS
10
239.481583999999998
20
-84.9185619999999943
11
239.481583999999998
21
-82.0229619999999926
0
LINE
8
BLACK
6
CONTINUOUS
10
237.0327839999999924
20
-85.9585620000000006
11
237.0327839999999924
21
-84.9185619999999943
0
LINE
8
BLACK
6
CONTINUOUS
10
237.0327839999999924
20
-84.9185619999999943
11
239.481583999999998
21
-84.9185619999999943
0
LINE
8
BLACK
6
CONTINUOUS
10
237.0327839999999924
20
-82.0229619999999926
11
239.481583999999998
21
-82.0229619999999926
0
LINE
8
BLACK
6
CONTINUOUS
10
237.0327839999999924
20
-82.0229619999999926
11
237.0327839999999924
21
-80.7505620000000022
0
LINE
8
BLACK
6
CONTINUOUS
10
237.0327839999999924
20
-80.7505620000000022
11
232.5327839999999924
21
-80.7505620000000022
0
LINE
8
BLACK
6
CONTINUOUS
10
232.0647840000000031
20
-85.9585620000000006
11
237.0327839999999924
21
-85.9585620000000006
0
LINE
8
BLACK
6
CONTINUOUS
10
232.0647840000000031
20
-85.2585619999999977
11
232.0647840000000031
21
-85.9585620000000006
0
LINE
8
BLACK
6
CONTINUOUS
10
232.0327839999999924
20
-80.2505620000000022
11
232.0327839999999924
21
-79.2505620000000022
0
LINE
8
BLACK
6
CONTINUOUS
10
231.5327839999999924
20
-78.7505620000000022
11
232.0327839999999924
21
-79.2505620000000022
0
LINE
8
BLACK
6
CONTINUOUS
10
228.0247839999999826
20
-83.7585619999999977
11
230.5407840000000022
21
-83.7585619999999977
0
LINE
8
BLACK
6
CONTINUOUS
10
228.0247839999999826
20
-78.7505620000000022
11
231.5327839999999924
21
-78.7505620000000022
0
LINE
8
BLACK
6
CONTINUOUS
10
227.5247839999999826
20
-83.2585619999999977
11
228.0247839999999826
21
-83.7585619999999977
0
LINE
8
BLACK
6
CONTINUOUS
10
227.5247839999999826
20
-83.2585619999999977
11
227.5247839999999826
21
-82.6833620000000025
0
LINE
8
BLACK
6
CONTINUOUS
10
227.5247839999999826
20
-82.6833620000000025
11
225.075983999999977
21
-82.6833620000000025
0
LINE
8
BLACK
6
CONTINUOUS
10
227.5247839999999826
20
-79.7877620000000007
11
227.5247839999999826
21
-79.2505620000000022
0
LINE
8
BLACK
6
CONTINUOUS
10
227.5247839999999826
20
-79.7877620000000007
11
225.075983999999977
21
-79.7877620000000007
0
LINE
8
BLACK
6
CONTINUOUS
10
227.5247839999999826
20
-79.2505620000000022
11
228.0247839999999826
21
-78.7505620000000022
0
LINE
8
BLACK
6
CONTINUOUS
10
225.075983999999977
20
-79.7877620000000007
11
225.075983999999977
21
-82.6833620000000025
0
LINE
8
BLACK
6
CONTINUOUS
10
204.9325839999999914
20
-74.1709620000000029
11
206.9645840000000021
21
-74.1709620000000029
0
LINE
8
BLACK
6
CONTINUOUS
10
206.9645840000000021
20
-74.1709620000000029
11
206.9645840000000021
21
-68.9893619999999999
0
LINE
8
BLACK
6
CONTINUOUS
10
206.9645840000000021
20
-68.9893619999999999
11
204.9325839999999914
21
-68.9893619999999999
0
LINE
8
BLACK
6
CONTINUOUS
10
204.9325839999999914
20
-68.9893619999999999
11
204.9325839999999914
21
-74.1709620000000029
0
CIRCLE
8
BLACK
10
221.8619740000000036
20
-59.5646810000000002
40
1.0999999999999999
0
ARC
8
BLACK
10
213.9663369999999816
20
-132.4134209999999996
40
0.3999990012850032
50
-187.50009195
51
-97.49994993
0
ARC
8
BLACK
10
214.2578560000000039
20
-130.2005769999999814
40
0.4001903531183629
50
162.49494645
51
172.49816935
0
ARC
8
BLACK
10
214.8057179999999846
20
-128.4631849999999815
40
0.3999973323823547
50
82.49974734
51
162.49226761
0
ARC
8
BLACK
10
215.8887849999999844
20
-117.8063849999999917
40
0.3994051147957422
50
-187.50344816
51
-177.48044389
0
ARC
8
BLACK
10
215.9691079999999772
20
-119.6264399999999881
40
0.4000001761124612
50
-177.49227320
51
-97.50122806
0
ARC
8
BLACK
10
216.1807149999999922
20
-115.5935580000000016
40
0.3999999927299999
50
82.50006876
51
172.50006876
0
ARC
8
BLACK
10
231.3701619999999934
20
-134.7046780000000012
40
0.3999990012850032
50
-97.50009195
51
-7.49994993
0
ARC
8
BLACK
10
231.5817779999999857
20
-130.671795000000003
40
0.3999977487936651
50
2.50779574
51
82.50031540
0
ARC
8
BLACK
10
231.6615639999999985
20
-132.4917959999999937
40
0.3999291951395896
50
-7.50127761
51
2.50836513
0
ARC
8
BLACK
10
232.7451480000000004
20
-121.8350469999999888
40
0.4000090261606605
50
-97.49891844
51
-17.50780480
0
ARC
8
BLACK
10
233.292225000000002
20
-120.0974899999999934
40
0.4009996263963346
50
-17.49391523
51
-7.51095948
0
ARC
8
BLACK
10
233.5845379999999807
20
-117.884814999999989
40
0.3999999927299999
50
-7.49993124
51
82.50006876
0
LINE
8
BLACK
6
CONTINUOUS
10
213.5697600000000023
20
-132.3612099999999998
11
213.8610909999999876
21
-130.1483289999999897
0
LINE
8
BLACK
6
CONTINUOUS
10
213.8761989999999855
20
-130.0802039999999806
11
214.4242500000000007
21
-128.3428519999999935
0
LINE
8
BLACK
6
CONTINUOUS
10
215.5694829999999911
20
-119.6439419999999956
11
215.489766000000003
21
-117.8239429999999999
0
LINE
8
BLACK
6
CONTINUOUS
10
215.4928050000000042
20
-117.7542289999999952
11
215.784136999999987
21
-115.5413479999999993
0
LINE
8
BLACK
6
CONTINUOUS
10
224.304916999999989
20
-121.1273219999999924
11
215.9168889999999976
21
-120.0230169999999958
0
LINE
8
BLACK
6
CONTINUOUS
10
224.9348369999999875
20
-116.3426089999999959
11
216.2329249999999945
21
-115.1969799999999964
0
LINE
8
BLACK
6
CONTINUOUS
10
213.9141269999999793
20
-132.8099980000000073
11
222.6160390000000007
21
-133.9556269999999927
0
LINE
8
BLACK
6
CONTINUOUS
10
214.8579299999999819
20
-128.0666089999999997
11
223.2459580000000017
21
-129.170913999999982
0
LINE
8
BLACK
6
CONTINUOUS
10
232.6929449999999804
20
-122.2316259999999914
11
224.304916999999989
21
-121.1273219999999924
0
LINE
8
BLACK
6
CONTINUOUS
10
233.636747999999983
20
-117.488236999999998
11
224.9348369999999875
21
-116.3426089999999959
0
LINE
8
BLACK
6
CONTINUOUS
10
222.6160390000000007
20
-133.9556269999999927
11
231.3179509999999937
21
-135.1012549999999806
0
LINE
8
BLACK
6
CONTINUOUS
10
223.2459580000000017
20
-129.170913999999982
11
231.6339859999999931
21
-130.2752189999999928
0
LINE
8
BLACK
6
CONTINUOUS
10
232.0580699999999865
20
-132.544005999999996
11
231.7667390000000012
21
-134.7568880000000036
0
LINE
8
BLACK
6
CONTINUOUS
10
231.9813919999999996
20
-130.6542929999999956
11
232.0611099999999851
21
-132.4742929999999888
0
LINE
8
BLACK
6
CONTINUOUS
10
233.6746770000000026
20
-120.2180319999999938
11
233.1266269999999849
21
-121.9553839999999951
0
LINE
8
BLACK
6
CONTINUOUS
10
233.9811159999999859
20
-117.9370249999999913
11
233.6897840000000031
21
-120.1499069999999989
0
CIRCLE
8
BLACK
10
216.9483840000000043
20
-84.2301619999999929
40
0.855
0
CIRCLE
8
BLACK
10
211.4483840000000043
20
-84.2301619999999929
40
1.75
0
CIRCLE
8
BLACK
10
205.9483840000000043
20
-84.2301619999999929
40
0.855
0
ARC
8
BLACK
10
214.2329839999999876
20
-77.2507619999999946
40
0.5
50
-180.00000000
51
-90.00000000
0
ARC
8
BLACK
10
212.3222539999999867
20
-82.2003819999999905
40
1.4439089435625778
50
-2.31720677
51
93.22658164
0
LINE
8
BLACK
6
CONTINUOUS
10
221.1817839999999933
20
-81.918762000000001
11
221.1817839999999933
21
-79.0231619999999992
0
LINE
8
BLACK
6
CONTINUOUS
10
218.7329839999999876
20
-82.958761999999993
11
218.7329839999999876
21
-81.918762000000001
0
LINE
8
BLACK
6
CONTINUOUS
10
218.7329839999999876
20
-81.918762000000001
11
221.1817839999999933
21
-81.918762000000001
0
LINE
8
BLACK
6
CONTINUOUS
10
218.7329839999999876
20
-79.0231619999999992
11
221.1817839999999933
21
-79.0231619999999992
0
LINE
8
BLACK
6
CONTINUOUS
10
218.7329839999999876
20
-79.0231619999999992
11
218.7329839999999876
21
-77.7507619999999946
0
LINE
8
BLACK
6
CONTINUOUS
10
218.7329839999999876
20
-77.7507619999999946
11
214.2329839999999876
21
-77.7507619999999946
0
LINE
8
BLACK
6
CONTINUOUS
10
213.7649839999999983
20
-82.958761999999993
11
218.7329839999999876
21
-82.958761999999993
0
LINE
8
BLACK
6
CONTINUOUS
10
213.7649839999999983
20
-82.2587619999999902
11
213.7649839999999983
21
-82.958761999999993
0
LINE
8
BLACK
6
CONTINUOUS
10
213.7329839999999876
20
-77.2507619999999946
11
213.7329839999999876
21
-76.2507619999999946
0
LINE
8
BLACK
6
CONTINUOUS
10
213.2329839999999876
20
-75.7507619999999946
11
213.7329839999999876
21
-76.2507619999999946
0
LINE
8
BLACK
6
CONTINUOUS
10
209.7249839999999779
20
-80.7587619999999902
11
212.2409839999999974
21
-80.7587619999999902
0
LINE
8
BLACK
6
CONTINUOUS
10
209.7249839999999779
20
-75.7507619999999946
11
213.2329839999999876
21
-75.7507619999999946
0
LINE
8
BLACK
6
CONTINUOUS
10
209.2249839999999779
20
-80.2587619999999902
11
209.7249839999999779
21
-80.7587619999999902
0
LINE
8
BLACK
6
CONTINUOUS
10
209.2249839999999779
20
-80.2587619999999902
11
209.2249839999999779
21
-79.6835619999999949
0
LINE
8
BLACK
6
CONTINUOUS
10
209.2249839999999779
20
-79.6835619999999949
11
206.7761840000000007
21
-79.6835619999999949
0
LINE
8
BLACK
6
CONTINUOUS
10
209.2249839999999779
20
-76.7879619999999932
11
209.2249839999999779
21
-76.2507619999999946
0
LINE
8
BLACK
6
CONTINUOUS
10
209.2249839999999779
20
-76.7879619999999932
11
206.7761840000000007
21
-76.7879619999999932
0
LINE
8
BLACK
6
CONTINUOUS
10
209.2249839999999779
20
-76.2507619999999946
11
209.7249839999999779
21
-75.7507619999999946
0
LINE
8
BLACK
6
CONTINUOUS
10
206.7761840000000007
20
-76.7879619999999932
11
206.7761840000000007
21
-79.6835619999999949
0
CIRCLE
8
BLACK
10
216.9483840000000043
20
-101.2301619999999929
40
0.855
0
CIRCLE
8
BLACK
10
211.4483840000000043
20
-101.2301619999999929
40
1.75
0
CIRCLE
8
BLACK
10
205.9483840000000043
20
-101.2301619999999929
40
0.855
0
ARC
8
BLACK
10
214.2329839999999876
20
-94.2507619999999946
40
0.5
50
-180.00000000
51
-90.00000000
0
ARC
8
BLACK
10
212.3222539999999867
20
-99.2003819999999905
40
1.4439089435625778
50
-2.31720677
51
93.22658164
0
LINE
8
BLACK
6
CONTINUOUS
10
221.1817839999999933
20
-98.918762000000001
11
221.1817839999999933
21
-96.0231619999999992
0
LINE
8
BLACK
6
CONTINUOUS
10
218.7329839999999876
20
-99.958761999999993
11
218.7329839999999876
21
-98.918762000000001
0
LINE
8
BLACK
6
CONTINUOUS
10
218.7329839999999876
20
-98.918762000000001
11
221.1817839999999933
21
-98.918762000000001
0
LINE
8
BLACK
6
CONTINUOUS
10
218.7329839999999876
20
-96.0231619999999992
11
221.1817839999999933
21
-96.0231619999999992
0
LINE
8
BLACK
6
CONTINUOUS
10
218.7329839999999876
20
-96.0231619999999992
11
218.7329839999999876
21
-94.7507619999999946
0
LINE
8
BLACK
6
CONTINUOUS
10
218.7329839999999876
20
-94.7507619999999946
11
214.2329839999999876
21
-94.7507619999999946
0
LINE
8
BLACK
6
CONTINUOUS
10
213.7649839999999983
20
-99.958761999999993
11
218.7329839999999876
21
-99.958761999999993
0
LINE
8
BLACK
6
CONTINUOUS
10
213.7649839999999983
20
-99.2587619999999902
11
213.7649839999999983
21
-99.958761999999993
0
LINE
8
BLACK
6
CONTINUOUS
10
213.7329839999999876
20
-94.2507619999999946
11
213.7329839999999876
21
-93.2507619999999946
0
LINE
8
BLACK
6
CONTINUOUS
10
213.2329839999999876
20
-92.7507619999999946
11
213.7329839999999876
21
-93.2507619999999946
0
LINE
8
BLACK
6
CONTINUOUS
10
209.7249839999999779
20
-97.7587619999999902
11
212.2409839999999974
21
-97.7587619999999902
0
LINE
8
BLACK
6
CONTINUOUS
10
209.7249839999999779
20
-92.7507619999999946
11
213.2329839999999876
21
-92.7507619999999946
0
LINE
8
BLACK
6
CONTINUOUS
10
209.2249839999999779
20
-97.2587619999999902
11
209.7249839999999779
21
-97.7587619999999902
0
LINE
8
BLACK
6
CONTINUOUS
10
209.2249839999999779
20
-97.2587619999999902
11
209.2249839999999779
21
-96.6835619999999949
0
LINE
8
BLACK
6
CONTINUOUS
10
209.2249839999999779
20
-96.6835619999999949
11
206.7761840000000007
21
-96.6835619999999949
0
LINE
8
BLACK
6
CONTINUOUS
10
209.2249839999999779
20
-93.7879619999999932
11
209.2249839999999779
21
-93.2507619999999946
0
LINE
8
BLACK
6
CONTINUOUS
10
209.2249839999999779
20
-93.7879619999999932
11
206.7761840000000007
21
-93.7879619999999932
0
LINE
8
BLACK
6
CONTINUOUS
10
209.2249839999999779
20
-93.2507619999999946
11
209.7249839999999779
21
-92.7507619999999946
0
LINE
8
BLACK
6
CONTINUOUS
10
206.7761840000000007
20
-93.7879619999999932
11
206.7761840000000007
21
-96.6835619999999949
0
CIRCLE
8
BLACK
10
198.6485839999999996
20
-81.4301619999999957
40
0.855
0
CIRCLE
8
BLACK
10
193.1485839999999996
20
-81.4301619999999957
40
1.75
0
CIRCLE
8
BLACK
10
187.6485839999999996
20
-81.4301619999999957
40
0.855
0
ARC
8
BLACK
10
195.9331839999999829
20
-74.4507619999999974
40
0.5
50
-180.00000000
51
-90.00000000
0
ARC
8
BLACK
10
194.022453999999982
20
-79.4003819999999934
40
1.4439089435625778
50
-2.31720677
51
93.22658164
0
LINE
8
BLACK
6
CONTINUOUS
10
202.8819839999999886
20
-79.1187619999999896
11
202.8819839999999886
21
-76.2231620000000021
0
LINE
8
BLACK
6
CONTINUOUS
10
200.4331839999999829
20
-80.1587619999999959
11
200.4331839999999829
21
-79.1187619999999896
0
LINE
8
BLACK
6
CONTINUOUS
10
200.4331839999999829
20
-79.1187619999999896
11
202.8819839999999886
21
-79.1187619999999896
0
LINE
8
BLACK
6
CONTINUOUS
10
200.4331839999999829
20
-76.2231620000000021
11
202.8819839999999886
21
-76.2231620000000021
0
LINE
8
BLACK
6
CONTINUOUS
10
200.4331839999999829
20
-76.2231620000000021
11
200.4331839999999829
21
-74.9507619999999974
0
LINE
8
BLACK
6
CONTINUOUS
10
200.4331839999999829
20
-74.9507619999999974
11
195.9331839999999829
21
-74.9507619999999974
0
LINE
8
BLACK
6
CONTINUOUS
10
195.4651839999999936
20
-80.1587619999999959
11
200.4331839999999829
21
-80.1587619999999959
0
LINE
8
BLACK
6
CONTINUOUS
10
195.4651839999999936
20
-79.458761999999993
11
195.4651839999999936
21
-80.1587619999999959
0
LINE
8
BLACK
6
CONTINUOUS
10
195.4331839999999829
20
-74.4507619999999974
11
195.4331839999999829
21
-73.4507619999999974
0
LINE
8
BLACK
6
CONTINUOUS
10
194.9331839999999829
20
-72.9507619999999974
11
195.4331839999999829
21
-73.4507619999999974
0
LINE
8
BLACK
6
CONTINUOUS
10
191.4251840000000016
20
-77.958761999999993
11
193.9411839999999927
21
-77.958761999999993
0
LINE
8
BLACK
6
CONTINUOUS
10
191.4251840000000016
20
-72.9507619999999974
11
194.9331839999999829
21
-72.9507619999999974
0
LINE
8
BLACK
6
CONTINUOUS
10
190.9251840000000016
20
-77.458761999999993
11
191.4251840000000016
21
-77.958761999999993
0
LINE
8
BLACK
6
CONTINUOUS
10
190.9251840000000016
20
-77.458761999999993
11
190.9251840000000016
21
-76.8835619999999977
0
LINE
8
BLACK
6
CONTINUOUS
10
190.9251840000000016
20
-76.8835619999999977
11
188.4763839999999959
21
-76.8835619999999977
0
LINE
8
BLACK
6
CONTINUOUS
10
190.9251840000000016
20
-73.987961999999996
11
190.9251840000000016
21
-73.4507619999999974
0
LINE
8
BLACK
6
CONTINUOUS
10
190.9251840000000016
20
-73.987961999999996
11
188.4763839999999959
21
-73.987961999999996
0
LINE
8
BLACK
6
CONTINUOUS
10
190.9251840000000016
20
-73.4507619999999974
11
191.4251840000000016
21
-72.9507619999999974
0
LINE
8
BLACK
6
CONTINUOUS
10
188.4763839999999959
20
-73.987961999999996
11
188.4763839999999959
21
-76.8835619999999977
0
LINE
8
BLACK
6
CONTINUOUS
10
223.2323839999999961
20
-94.1709619999999887
11
225.2643839999999784
21
-94.1709619999999887
0
LINE
8
BLACK
6
CONTINUOUS
10
225.2643839999999784
20
-94.1709619999999887
11
225.2643839999999784
21
-88.9893619999999999
0
LINE
8
BLACK
6
CONTINUOUS
10
225.2643839999999784
20
-88.9893619999999999
11
223.2323839999999961
21
-88.9893619999999999
0
LINE
8
BLACK
6
CONTINUOUS
10
223.2323839999999961
20
-88.9893619999999999
11
223.2323839999999961
21
-94.1709619999999887
0
LINE
8
BLACK
6
CONTINUOUS
10
186.6327839999999867
20
-88.3709619999999916
11
188.6647839999999974
21
-88.3709619999999916
0
LINE
8
BLACK
6
CONTINUOUS
10
188.6647839999999974
20
-88.3709619999999916
11
188.6647839999999974
21
-83.1893620000000027
0
LINE
8
BLACK
6
CONTINUOUS
10
188.6647839999999974
20
-83.1893620000000027
11
186.6327839999999867
21
-83.1893620000000027
0
LINE
8
BLACK
6
CONTINUOUS
10
186.6327839999999867
20
-83.1893620000000027
11
186.6327839999999867
21
-88.3709619999999916
0
CIRCLE
8
BLACK
10
218.9663740000000018
20
-112.0410809999999913
40
1.0999999999999999
0
LINE
8
BLACK
6
CONTINUOUS
10
115.3969219999999893
20
-89.5289619999999928
11
117.428922
21
-89.5289619999999928
0
LINE
8
BLACK
6
CONTINUOUS
10
117.428922
20
-89.5289619999999928
11
117.428922
21
-94.7105619999999959
0
LINE
8
BLACK
6
CONTINUOUS
10
117.428922
20
-94.7105619999999959
11
115.3969219999999893
21
-94.7105619999999959
0
LINE
8
BLACK
6
CONTINUOUS
10
115.3969219999999893
20
-94.7105619999999959
11
115.3969219999999893
21
-89.5289619999999928
0
CIRCLE
8
BLACK
10
61.5137219999999942
20
-101.2301619999999929
40
0.855
0
CIRCLE
8
BLACK
10
56.0137219999999942
20
-101.2301619999999929
40
1.75
0
CIRCLE
8
BLACK
10
50.5137219999999942
20
-101.2301619999999929
40
0.855
0
ARC
8
BLACK
10
58.7983219999999989
20
-94.2507619999999946
40
0.5
50
-180.00000000
51
-90.00000000
0
ARC
8
BLACK
10
56.8875919999999979
20
-99.2003819999999905
40
1.4439089435625778
50
-2.31720677
51
93.22658164
0
LINE
8
BLACK
6
CONTINUOUS
10
65.7471219999999903
20
-98.918762000000001
11
65.7471219999999903
21
-96.0231619999999992
0
LINE
8
BLACK
6
CONTINUOUS
10
63.2983219999999989
20
-99.958761999999993
11
63.2983219999999989
21
-98.918762000000001
0
LINE
8
BLACK
6
CONTINUOUS
10
63.2983219999999989
20
-98.918762000000001
11
65.7471219999999903
21
-98.918762000000001
0
LINE
8
BLACK
6
CONTINUOUS
10
63.2983219999999989
20
-96.0231619999999992
11
65.7471219999999903
21
-96.0231619999999992
0
LINE
8
BLACK
6
CONTINUOUS
10
63.2983219999999989
20
-96.0231619999999992
11
63.2983219999999989
21
-94.7507619999999946
0
LINE
8
BLACK
6
CONTINUOUS
10
63.2983219999999989
20
-94.7507619999999946
11
58.7983219999999989
21
-94.7507619999999946
0
LINE
8
BLACK
6
CONTINUOUS
10
58.3303219999999953
20
-99.958761999999993
11
63.2983219999999989
21
-99.958761999999993
0
LINE
8
BLACK
6
CONTINUOUS
10
58.3303219999999953
20
-99.2587619999999902
11
58.3303219999999953
21
-99.958761999999993
0
LINE
8
BLACK
6
CONTINUOUS
10
58.2983219999999989
20
-94.2507619999999946
11
58.2983219999999989
21
-93.2507619999999946
0
LINE
8
BLACK
6
CONTINUOUS
10
57.7983219999999989
20
-92.7507619999999946
11
58.2983219999999989
21
-93.2507619999999946
0
LINE
8
BLACK
6
CONTINUOUS
10
54.2903219999999962
20
-97.7587619999999902
11
56.8063219999999944
21
-97.7587619999999902
0
LINE
8
BLACK
6
CONTINUOUS
10
54.2903219999999962
20
-92.7507619999999946
11
57.7983219999999989
21
-92.7507619999999946
0
LINE
8
BLACK
6
CONTINUOUS
10
53.7903219999999962
20
-97.2587619999999902
11
54.2903219999999962
21
-97.7587619999999902
0
LINE
8
BLACK
6
CONTINUOUS
10
53.7903219999999962
20
-97.2587619999999902
11
53.7903219999999962
21
-96.6835619999999949
0
LINE
8
BLACK
6
CONTINUOUS
10
53.7903219999999962
20
-96.6835619999999949
11
51.3415219999999977
21
-96.6835619999999949
0
LINE
8
BLACK
6
CONTINUOUS
10
53.7903219999999962
20
-93.7879619999999932
11
53.7903219999999962
21
-93.2507619999999946
0
LINE
8
BLACK
6
CONTINUOUS
10
53.7903219999999962
20
-93.7879619999999932
11
51.3415219999999977
21
-93.7879619999999932
0
LINE
8
BLACK
6
CONTINUOUS
10
53.7903219999999962
20
-93.2507619999999946
11
54.2903219999999962
21
-92.7507619999999946
0
LINE
8
BLACK
6
CONTINUOUS
10
51.3415219999999977
20
-93.7879619999999932
11
51.3415219999999977
21
-96.6835619999999949
0
LINE
8
BLACK
6
CONTINUOUS
10
78.7973219999999941
20
-83.1893620000000027
11
80.8293219999999906
21
-83.1893620000000027
0
LINE
8
BLACK
6
CONTINUOUS
10
80.8293219999999906
20
-83.1893620000000027
11
80.8293219999999906
21
-88.3709619999999916
0
LINE
8
BLACK
6
CONTINUOUS
10
80.8293219999999906
20
-88.3709619999999916
11
78.7973219999999941
21
-88.3709619999999916
0
LINE
8
BLACK
6
CONTINUOUS
10
78.7973219999999941
20
-88.3709619999999916
11
78.7973219999999941
21
-83.1893620000000027
0
CIRCLE
8
BLACK
10
48.4957319999999967
20
-112.0410809999999913
40
1.0999999999999999
0
LINE
8
BLACK
6
CONTINUOUS
10
42.1977219999999988
20
-88.9893619999999999
11
44.2297219999999953
21
-88.9893619999999999
0
LINE
8
BLACK
6
CONTINUOUS
10
44.2297219999999953
20
-88.9893619999999999
11
44.2297219999999953
21
-94.1709619999999887
0
LINE
8
BLACK
6
CONTINUOUS
10
44.2297219999999953
20
-94.1709619999999887
11
42.1977219999999988
21
-94.1709619999999887
0
LINE
8
BLACK
6
CONTINUOUS
10
42.1977219999999988
20
-94.1709619999999887
11
42.1977219999999988
21
-88.9893619999999999
0
CIRCLE
8
BLACK
10
79.8135219999999919
20
-81.4301619999999957
40
0.855
0
CIRCLE
8
BLACK
10
74.3135219999999919
20
-81.4301619999999957
40
1.75
0
CIRCLE
8
BLACK
10
68.8135219999999919
20
-81.4301619999999957
40
0.855
0
ARC
8
BLACK
10
77.0981220000000036
20
-74.4507619999999974
40
0.5
50
-180.00000000
51
-90.00000000
0
ARC
8
BLACK
10
75.1873920000000027
20
-79.4003819999999934
40
1.4439089435625778
50
-2.31720677
51
93.22658164
0
LINE
8
BLACK
6
CONTINUOUS
10
84.046921999999995
20
-79.1187619999999896
11
84.046921999999995
21
-76.2231620000000021
0
LINE
8
BLACK
6
CONTINUOUS
10
81.5981219999999894
20
-80.1587619999999959
11
81.5981219999999894
21
-79.1187619999999896
0
LINE
8
BLACK
6
CONTINUOUS
10
81.5981219999999894
20
-79.1187619999999896
11
84.046921999999995
21
-79.1187619999999896
0
LINE
8
BLACK
6
CONTINUOUS
10
81.5981219999999894
20
-76.2231620000000021
11
84.046921999999995
21
-76.2231620000000021
0
LINE
8
BLACK
6
CONTINUOUS
10
81.5981219999999894
20
-76.2231620000000021
11
81.5981219999999894
21
-74.9507619999999974
0
LINE
8
BLACK
6
CONTINUOUS
10
81.5981219999999894
20
-74.9507619999999974
11
77.0981220000000036
21
-74.9507619999999974
0
LINE
8
BLACK
6
CONTINUOUS
10
76.6301220000000001
20
-80.1587619999999959
11
81.5981219999999894
21
-80.1587619999999959
0
LINE
8
BLACK
6
CONTINUOUS
10
76.6301220000000001
20
-79.458761999999993
11
76.6301220000000001
21
-80.1587619999999959
0
LINE
8
BLACK
6
CONTINUOUS
10
76.5981220000000036
20
-74.4507619999999974
11
76.5981220000000036
21
-73.4507619999999974
0
LINE
8
BLACK
6
CONTINUOUS
10
76.0981220000000036
20
-72.9507619999999974
11
76.5981220000000036
21
-73.4507619999999974
0
LINE
8
BLACK
6
CONTINUOUS
10
72.5901219999999938
20
-77.958761999999993
11
75.1061219999999992
21
-77.958761999999993
0
LINE
8
BLACK
6
CONTINUOUS
10
72.5901219999999938
20
-72.9507619999999974
11
76.0981220000000036
21
-72.9507619999999974
0
LINE
8
BLACK
6
CONTINUOUS
10
72.0901219999999938
20
-77.458761999999993
11
72.5901219999999938
21
-77.958761999999993
0
LINE
8
BLACK
6
CONTINUOUS
10
72.0901219999999938
20
-77.458761999999993
11
72.0901219999999938
21
-76.8835619999999977
0
LINE
8
BLACK
6
CONTINUOUS
10
72.0901219999999938
20
-76.8835619999999977
11
69.6413220000000024
21
-76.8835619999999977
0
LINE
8
BLACK
6
CONTINUOUS
10
72.0901219999999938
20
-73.987961999999996
11
72.0901219999999938
21
-73.4507619999999974
0
LINE
8
BLACK
6
CONTINUOUS
10
72.0901219999999938
20
-73.987961999999996
11
69.6413220000000024
21
-73.987961999999996
0
LINE
8
BLACK
6
CONTINUOUS
10
72.0901219999999938
20
-73.4507619999999974
11
72.5901219999999938
21
-72.9507619999999974
0
LINE
8
BLACK
6
CONTINUOUS
10
69.6413220000000024
20
-73.987961999999996
11
69.6413220000000024
21
-76.8835619999999977
0
CIRCLE
8
BLACK
10
61.5137219999999942
20
-84.2301619999999929
40
0.855
0
CIRCLE
8
BLACK
10
56.0137219999999942
20
-84.2301619999999929
40
1.75
0
CIRCLE
8
BLACK
10
50.5137219999999942
20
-84.2301619999999929
40
0.855
0
ARC
8
BLACK
10
58.7983219999999989
20
-77.2507619999999946
40
0.5
50
-180.00000000
51
-90.00000000
0
ARC
8
BLACK
10
56.8875919999999979
20
-82.2003819999999905
40
1.4439089435625778
50
-2.31720677
51
93.22658164
0
LINE
8
BLACK
6
CONTINUOUS
10
65.7471219999999903
20
-81.918762000000001
11
65.7471219999999903
21
-79.0231619999999992
0
LINE
8
BLACK
6
CONTINUOUS
10
63.2983219999999989
20
-82.958761999999993
11
63.2983219999999989
21
-81.918762000000001
0
LINE
8
BLACK
6
CONTINUOUS
10
63.2983219999999989
20
-81.918762000000001
11
65.7471219999999903
21
-81.918762000000001
0
LINE
8
BLACK
6
CONTINUOUS
10
63.2983219999999989
20
-79.0231619999999992
11
65.7471219999999903
21
-79.0231619999999992
0
LINE
8
BLACK
6
CONTINUOUS
10
63.2983219999999989
20
-79.0231619999999992
11
63.2983219999999989
21
-77.7507619999999946
0
LINE
8
BLACK
6
CONTINUOUS
10
63.2983219999999989
20
-77.7507619999999946
11
58.7983219999999989
21
-77.7507619999999946
0
LINE
8
BLACK
6
CONTINUOUS
10
58.3303219999999953
20
-82.958761999999993
11
63.2983219999999989
21
-82.958761999999993
0
LINE
8
BLACK
6
CONTINUOUS
10
58.3303219999999953
20
-82.2587619999999902
11
58.3303219999999953
21
-82.958761999999993
0
LINE
8
BLACK
6
CONTINUOUS
10
58.2983219999999989
20
-77.2507619999999946
11
58.2983219999999989
21
-76.2507619999999946
0
LINE
8
BLACK
6
CONTINUOUS
10
57.7983219999999989
20
-75.7507619999999946
11
58.2983219999999989
21
-76.2507619999999946
0
LINE
8
BLACK
6
CONTINUOUS
10
54.2903219999999962
20
-80.7587619999999902
11
56.8063219999999944
21
-80.7587619999999902
0
LINE
8
BLACK
6
CONTINUOUS
10
54.2903219999999962
20
-75.7507619999999946
11
57.7983219999999989
21
-75.7507619999999946
0
LINE
8
BLACK
6
CONTINUOUS
10
53.7903219999999962
20
-80.2587619999999902
11
54.2903219999999962
21
-80.7587619999999902
0
LINE
8
BLACK
6
CONTINUOUS
10
53.7903219999999962
20
-80.2587619999999902
11
53.7903219999999962
21
-79.6835619999999949
0
LINE
8
BLACK
6
CONTINUOUS
10
53.7903219999999962
20
-79.6835619999999949
11
51.3415219999999977
21
-79.6835619999999949
0
LINE
8
BLACK
6
CONTINUOUS
10
53.7903219999999962
20
-76.7879619999999932
11
53.7903219999999962
21
-76.2507619999999946
0
LINE
8
BLACK
6
CONTINUOUS
10
53.7903219999999962
20
-76.7879619999999932
11
51.3415219999999977
21
-76.7879619999999932
0
LINE
8
BLACK
6
CONTINUOUS
10
53.7903219999999962
20
-76.2507619999999946
11
54.2903219999999962
21
-75.7507619999999946
0
LINE
8
BLACK
6
CONTINUOUS
10
51.3415219999999977
20
-76.7879619999999932
11
51.3415219999999977
21
-79.6835619999999949
0
CIRCLE
8
BLACK
10
79.8135219999999919
20
-98.4301619999999957
40
0.855
0
CIRCLE
8
BLACK
10
74.3135219999999919
20
-98.4301619999999957
40
1.75
0
CIRCLE
8
BLACK
10
68.8135219999999919
20
-98.4301619999999957
40
0.855
0
ARC
8
BLACK
10
77.0981220000000036
20
-91.4507619999999974
40
0.5
50
-180.00000000
51
-90.00000000
0
ARC
8
BLACK
10
75.1873920000000027
20
-96.4003819999999934
40
1.4439089435625778
50
-2.31720677
51
93.22658164
0
LINE
8
BLACK
6
CONTINUOUS
10
84.046921999999995
20
-96.1187619999999896
11
84.046921999999995
21
-93.2231620000000021
0
LINE
8
BLACK
6
CONTINUOUS
10
81.5981219999999894
20
-97.1587619999999959
11
81.5981219999999894
21
-96.1187619999999896
0
LINE
8
BLACK
6
CONTINUOUS
10
81.5981219999999894
20
-96.1187619999999896
11
84.046921999999995
21
-96.1187619999999896
0
LINE
8
BLACK
6
CONTINUOUS
10
81.5981219999999894
20
-93.2231620000000021
11
84.046921999999995
21
-93.2231620000000021
0
LINE
8
BLACK
6
CONTINUOUS
10
81.5981219999999894
20
-93.2231620000000021
11
81.5981219999999894
21
-91.9507619999999974
0
LINE
8
BLACK
6
CONTINUOUS
10
81.5981219999999894
20
-91.9507619999999974
11
77.0981220000000036
21
-91.9507619999999974
0
LINE
8
BLACK
6
CONTINUOUS
10
76.6301220000000001
20
-97.1587619999999959
11
81.5981219999999894
21
-97.1587619999999959
0
LINE
8
BLACK
6
CONTINUOUS
10
76.6301220000000001
20
-96.458761999999993
11
76.6301220000000001
21
-97.1587619999999959
0
LINE
8
BLACK
6
CONTINUOUS
10
76.5981220000000036
20
-91.4507619999999974
11
76.5981220000000036
21
-90.4507619999999974
0
LINE
8
BLACK
6
CONTINUOUS
10
76.0981220000000036
20
-89.9507619999999974
11
76.5981220000000036
21
-90.4507619999999974
0
LINE
8
BLACK
6
CONTINUOUS
10
72.5901219999999938
20
-94.958761999999993
11
75.1061219999999992
21
-94.958761999999993
0
LINE
8
BLACK
6
CONTINUOUS
10
72.5901219999999938
20
-89.9507619999999974
11
76.0981220000000036
21
-89.9507619999999974
0
LINE
8
BLACK
6
CONTINUOUS
10
72.0901219999999938
20
-94.458761999999993
11
72.5901219999999938
21
-94.958761999999993
0
LINE
8
BLACK
6
CONTINUOUS
10
72.0901219999999938
20
-94.458761999999993
11
72.0901219999999938
21
-93.8835619999999977
0
LINE
8
BLACK
6
CONTINUOUS
10
72.0901219999999938
20
-93.8835619999999977
11
69.6413220000000024
21
-93.8835619999999977
0
LINE
8
BLACK
6
CONTINUOUS
10
72.0901219999999938
20
-90.987961999999996
11
72.0901219999999938
21
-90.4507619999999974
0
LINE
8
BLACK
6
CONTINUOUS
10
72.0901219999999938
20
-90.987961999999996
11
69.6413220000000024
21
-90.987961999999996
0
LINE
8
BLACK
6
CONTINUOUS
10
72.0901219999999938
20
-90.4507619999999974
11
72.5901219999999938
21
-89.9507619999999974
0
LINE
8
BLACK
6
CONTINUOUS
10
69.6413220000000024
20
-90.987961999999996
11
69.6413220000000024
21
-93.8835619999999977
0
LINE
8
BLACK
6
CONTINUOUS
10
60.4975219999999965
20
-102.9893619999999999
11
62.529522
21
-102.9893619999999999
0
LINE
8
BLACK
6
CONTINUOUS
10
62.529522
20
-102.9893619999999999
11
62.529522
21
-108.1709619999999887
0
LINE
8
BLACK
6
CONTINUOUS
10
62.529522
20
-108.1709619999999887
11
60.4975219999999965
21
-108.1709619999999887
0
LINE
8
BLACK
6
CONTINUOUS
10
60.4975219999999965
20
-108.1709619999999887
11
60.4975219999999965
21
-102.9893619999999999
0
LINE
8
BLACK
6
CONTINUOUS
10
60.4975219999999965
20
-85.9893619999999999
11
62.529522
21
-85.9893619999999999
0
LINE
8
BLACK
6
CONTINUOUS
10
62.529522
20
-85.9893619999999999
11
62.529522
21
-91.1709620000000029
0
LINE
8
BLACK
6
CONTINUOUS
10
62.529522
20
-91.1709620000000029
11
60.4975219999999965
21
-91.1709620000000029
0
LINE
8
BLACK
6
CONTINUOUS
10
60.4975219999999965
20
-91.1709620000000029
11
60.4975219999999965
21
-85.9893619999999999
0
LINE
8
BLACK
6
CONTINUOUS
10
129.2214280000000031
20
-119.0733800000000002
11
126.9438199999999881
21
-127.5735269999999986
0
LINE
8
BLACK
6
CONTINUOUS
10
126.9438199999999881
20
-127.5735269999999986
11
123.7052639999999997
21
-126.7057579999999888
0
LINE
8
BLACK
6
CONTINUOUS
10
125.9828720000000004
20
-118.2056109999999904
11
129.2214280000000031
21
-119.0733800000000002
0
LINE
8
BLACK
6
CONTINUOUS
10
125.6383319999999912
20
-119.4914519999999953
11
125.9828720000000004
21
-118.2056109999999904
0
LINE
8
BLACK
6
CONTINUOUS
10
125.6383319999999912
20
-119.4914519999999953
11
124.6078819999999894
21
-119.2153429999999901
0
LINE
8
BLACK
6
CONTINUOUS
10
124.0366559999999936
20
-125.4689869999999985
11
123.7052639999999997
21
-126.7057579999999888
0
LINE
8
BLACK
6
CONTINUOUS
10
124.0366559999999936
20
-125.4689869999999985
11
123.0062069999999892
21
-125.1928789999999907
0
LINE
8
BLACK
6
CONTINUOUS
10
123.0062069999999892
20
-125.1928789999999907
11
124.6078819999999894
21
-119.2153429999999901
0
CIRCLE
8
BLACK
10
61.5137219999999942
20
-67.2301619999999929
40
0.855
0
CIRCLE
8
BLACK
10
56.0137219999999942
20
-67.2301619999999929
40
1.75
0
CIRCLE
8
BLACK
10
50.5137219999999942
20
-67.2301619999999929
40
0.855
0
ARC
8
BLACK
10
58.7983219999999989
20
-60.2507619999999946
40
0.5
50
-180.00000000
51
-90.00000000
0
ARC
8
BLACK
10
56.8875919999999979
20
-65.2003819999999905
40
1.4439089435625778
50
-2.31720677
51
93.22658164
0
LINE
8
BLACK
6
CONTINUOUS
10
65.7471219999999903
20
-64.918762000000001
11
65.7471219999999903
21
-62.0231619999999992
0
LINE
8
BLACK
6
CONTINUOUS
10
63.2983219999999989
20
-65.958761999999993
11
63.2983219999999989
21
-64.918762000000001
0
LINE
8
BLACK
6
CONTINUOUS
10
63.2983219999999989
20
-64.918762000000001
11
65.7471219999999903
21
-64.918762000000001
0
LINE
8
BLACK
6
CONTINUOUS
10
63.2983219999999989
20
-62.0231619999999992
11
65.7471219999999903
21
-62.0231619999999992
0
LINE
8
BLACK
6
CONTINUOUS
10
63.2983219999999989
20
-62.0231619999999992
11
63.2983219999999989
21
-60.7507619999999946
0
LINE
8
BLACK
6
CONTINUOUS
10
63.2983219999999989
20
-60.7507619999999946
11
58.7983219999999989
21
-60.7507619999999946
0
LINE
8
BLACK
6
CONTINUOUS
10
58.3303219999999953
20
-65.958761999999993
11
63.2983219999999989
21
-65.958761999999993
0
LINE
8
BLACK
6
CONTINUOUS
10
58.3303219999999953
20
-65.2587619999999902
11
58.3303219999999953
21
-65.958761999999993
0
LINE
8
BLACK
6
CONTINUOUS
10
58.2983219999999989
20
-60.2507619999999946
11
58.2983219999999989
21
-59.2507619999999946
0
LINE
8
BLACK
6
CONTINUOUS
10
57.7983219999999989
20
-58.7507619999999946
11
58.2983219999999989
21
-59.2507619999999946
0
LINE
8
BLACK
6
CONTINUOUS
10
54.2903219999999962
20
-63.7587619999999973
11
56.8063219999999944
21
-63.7587619999999973
0
LINE
8
BLACK
6
CONTINUOUS
10
54.2903219999999962
20
-58.7507619999999946
11
57.7983219999999989
21
-58.7507619999999946
0
LINE
8
BLACK
6
CONTINUOUS
10
53.7903219999999962
20
-63.2587619999999973
11
54.2903219999999962
21
-63.7587619999999973
0
LINE
8
BLACK
6
CONTINUOUS
10
53.7903219999999962
20
-63.2587619999999973
11
53.7903219999999962
21
-62.6835619999999949
0
LINE
8
BLACK
6
CONTINUOUS
10
53.7903219999999962
20
-62.6835619999999949
11
51.3415219999999977
21
-62.6835619999999949
0
LINE
8
BLACK
6
CONTINUOUS
10
53.7903219999999962
20
-59.7879620000000003
11
53.7903219999999962
21
-59.2507619999999946
0
LINE
8
BLACK
6
CONTINUOUS
10
53.7903219999999962
20
-59.7879620000000003
11
51.3415219999999977
21
-59.7879620000000003
0
LINE
8
BLACK
6
CONTINUOUS
10
53.7903219999999962
20
-59.2507619999999946
11
54.2903219999999962
21
-58.7507619999999946
0
LINE
8
BLACK
6
CONTINUOUS
10
51.3415219999999977
20
-59.7879620000000003
11
51.3415219999999977
21
-62.6835619999999949
0
LINE
8
BLACK
6
CONTINUOUS
10
97.0973219999999912
20
-85.9893619999999999
11
99.1293220000000019
21
-85.9893619999999999
0
LINE
8
BLACK
6
CONTINUOUS
10
99.1293220000000019
20
-85.9893619999999999
11
99.1293220000000019
21
-91.1709620000000029
0
LINE
8
BLACK
6
CONTINUOUS
10
99.1293220000000019
20
-91.1709620000000029
11
97.0973219999999912
21
-91.1709620000000029
0
LINE
8
BLACK
6
CONTINUOUS
10
97.0973219999999912
20
-91.1709620000000029
11
97.0973219999999912
21
-85.9893619999999999
0
CIRCLE
8
BLACK
10
43.2139219999999966
20
-104.2299620000000004
40
0.855
0
CIRCLE
8
BLACK
10
37.7139219999999966
20
-104.2299620000000004
40
1.75
0
CIRCLE
8
BLACK
10
32.2139219999999966
20
-104.2299620000000004
40
0.855
0
ARC
8
BLACK
10
40.4985220000000012
20
-97.2505620000000022
40
0.5
50
-180.00000000
51
-90.00000000
0
ARC
8
BLACK
10
38.5877920000000003
20
-102.2001819999999981
40
1.4439089435625778
50
-2.31720677
51
93.22658164
0
LINE
8
BLACK
6
CONTINUOUS
10
47.4473219999999998
20
-101.9185619999999943
11
47.4473219999999998
21
-99.0229619999999926
0
LINE
8
BLACK
6
CONTINUOUS
10
44.9985220000000012
20
-102.9585620000000006
11
44.9985220000000012
21
-101.9185619999999943
0
LINE
8
BLACK
6
CONTINUOUS
10
44.9985220000000012
20
-101.9185619999999943
11
47.4473219999999998
21
-101.9185619999999943
0
LINE
8
BLACK
6
CONTINUOUS
10
44.9985220000000012
20
-99.0229619999999926
11
47.4473219999999998
21
-99.0229619999999926
0
LINE
8
BLACK
6
CONTINUOUS
10
44.9985220000000012
20
-99.0229619999999926
11
44.9985220000000012
21
-97.7505620000000022
0
LINE
8
BLACK
6
CONTINUOUS
10
44.9985220000000012
20
-97.7505620000000022
11
40.4985220000000012
21
-97.7505620000000022
0
LINE
8
BLACK
6
CONTINUOUS
10
40.0305219999999977
20
-102.9585620000000006
11
44.9985220000000012
21
-102.9585620000000006
0
LINE
8
BLACK
6
CONTINUOUS
10
40.0305219999999977
20
-102.2585619999999977
11
40.0305219999999977
21
-102.9585620000000006
0
LINE
8
BLACK
6
CONTINUOUS
10
39.9985220000000012
20
-97.2505620000000022
11
39.9985220000000012
21
-96.2505620000000022
0
LINE
8
BLACK
6
CONTINUOUS
10
39.4985220000000012
20
-95.7505620000000022
11
39.9985220000000012
21
-96.2505620000000022
0
LINE
8
BLACK
6
CONTINUOUS
10
35.9905219999999986
20
-100.7585619999999977
11
38.5065219999999968
21
-100.7585619999999977
0
LINE
8
BLACK
6
CONTINUOUS
10
35.9905219999999986
20
-95.7505620000000022
11
39.4985220000000012
21
-95.7505620000000022
0
LINE
8
BLACK
6
CONTINUOUS
10
35.4905219999999986
20
-100.2585619999999977
11
35.9905219999999986
21
-100.7585619999999977
0
LINE
8
BLACK
6
CONTINUOUS
10
35.4905219999999986
20
-100.2585619999999977
11
35.4905219999999986
21
-99.6833620000000025
0
LINE
8
BLACK
6
CONTINUOUS
10
35.4905219999999986
20
-99.6833620000000025
11
33.041722
21
-99.6833620000000025
0
LINE
8
BLACK
6
CONTINUOUS
10
35.4905219999999986
20
-96.7877620000000007
11
35.4905219999999986
21
-96.2505620000000022
0
LINE
8
BLACK
6
CONTINUOUS
10
35.4905219999999986
20
-96.7877620000000007
11
33.041722
21
-96.7877620000000007
0
LINE
8
BLACK
6
CONTINUOUS
10
35.4905219999999986
20
-96.2505620000000022
11
35.9905219999999986
21
-95.7505620000000022
0
LINE
8
BLACK
6
CONTINUOUS
10
33.041722
20
-96.7877620000000007
11
33.041722
21
-99.6833620000000025
0
CIRCLE
8
BLACK
10
98.1133219999999966
20
-67.2299620000000004
40
0.855
0
CIRCLE
8
BLACK
10
92.6133219999999966
20
-67.2299620000000004
40
1.75
0
CIRCLE
8
BLACK
10
87.1133219999999966
20
-67.2299620000000004
40
0.855
0
ARC
8
BLACK
10
95.3979219999999941
20
-60.2505619999999951
40
0.5
50
-180.00000000
51
-90.00000000
0
ARC
8
BLACK
10
93.4871919999999932
20
-65.2001819999999981
40
1.4439089435625778
50
-2.31720677
51
93.22658164
0
LINE
8
BLACK
6
CONTINUOUS
10
102.3467219999999998
20
-64.9185619999999943
11
102.3467219999999998
21
-62.0229619999999997
0
LINE
8
BLACK
6
CONTINUOUS
10
99.8979219999999941
20
-65.9585620000000006
11
99.8979219999999941
21
-64.9185619999999943
0
LINE
8
BLACK
6
CONTINUOUS
10
99.8979219999999941
20
-64.9185619999999943
11
102.3467219999999998
21
-64.9185619999999943
0
LINE
8
BLACK
6
CONTINUOUS
10
99.8979219999999941
20
-62.0229619999999997
11
102.3467219999999998
21
-62.0229619999999997
0
LINE
8
BLACK
6
CONTINUOUS
10
99.8979219999999941
20
-62.0229619999999997
11
99.8979219999999941
21
-60.7505619999999951
0
LINE
8
BLACK
6
CONTINUOUS
10
99.8979219999999941
20
-60.7505619999999951
11
95.3979219999999941
21
-60.7505619999999951
0
LINE
8
BLACK
6
CONTINUOUS
10
94.9299219999999906
20
-65.9585620000000006
11
99.8979219999999941
21
-65.9585620000000006
0
LINE
8
BLACK
6
CONTINUOUS
10
94.9299219999999906
20
-65.2585619999999977
11
94.9299219999999906
21
-65.9585620000000006
0
LINE
8
BLACK
6
CONTINUOUS
10
94.8979219999999941
20
-60.2505619999999951
11
94.8979219999999941
21
-59.2505619999999951
0
LINE
8
BLACK
6
CONTINUOUS
10
94.3979219999999941
20
-58.7505619999999951
11
94.8979219999999941
21
-59.2505619999999951
0
LINE
8
BLACK
6
CONTINUOUS
10
90.8899219999999985
20
-63.7585619999999977
11
93.4059219999999897
21
-63.7585619999999977
0
LINE
8
BLACK
6
CONTINUOUS
10
90.8899219999999985
20
-58.7505619999999951
11
94.3979219999999941
21
-58.7505619999999951
0
LINE
8
BLACK
6
CONTINUOUS
10
90.3899219999999985
20
-63.2585619999999977
11
90.8899219999999985
21
-63.7585619999999977
0
LINE
8
BLACK
6
CONTINUOUS
10
90.3899219999999985
20
-63.2585619999999977
11
90.3899219999999985
21
-62.6833619999999954
0
LINE
8
BLACK
6
CONTINUOUS
10
90.3899219999999985
20
-62.6833619999999954
11
87.9411219999999929
21
-62.6833619999999954
0
LINE
8
BLACK
6
CONTINUOUS
10
90.3899219999999985
20
-59.7877620000000007
11
90.3899219999999985
21
-59.2505619999999951
0
LINE
8
BLACK
6
CONTINUOUS
10
90.3899219999999985
20
-59.7877620000000007
11
87.9411219999999929
21
-59.7877620000000007
0
LINE
8
BLACK
6
CONTINUOUS
10
90.3899219999999985
20
-59.2505619999999951
11
90.8899219999999985
21
-58.7505619999999951
0
LINE
8
BLACK
6
CONTINUOUS
10
87.9411219999999929
20
-59.7877620000000007
11
87.9411219999999929
21
-62.6833619999999954
0
LINE
8
BLACK
6
CONTINUOUS
10
106.428922
20
-69.0105619999999931
11
104.3969219999999893
21
-69.0105619999999931
0
LINE
8
BLACK
6
CONTINUOUS
10
104.3969219999999893
20
-69.0105619999999931
11
104.3969219999999893
21
-63.8289619999999971
0
LINE
8
BLACK
6
CONTINUOUS
10
104.3969219999999893
20
-63.8289619999999971
11
106.428922
21
-63.8289619999999971
0
LINE
8
BLACK
6
CONTINUOUS
10
106.428922
20
-63.8289619999999971
11
106.428922
21
-69.0105619999999931
0
CIRCLE
8
BLACK
10
107.3221319999999963
20
-120.1690809999999914
40
1.0999999999999999
0
CIRCLE
8
BLACK
10
120.7769249999999914
20
-131.3501619999999832
40
0.855
0
CIRCLE
8
BLACK
10
115.4643329999999963
20
-129.9266570000000058
40
1.75
0
CIRCLE
8
BLACK
10
110.1517410000000012
20
-128.503152
40
0.8550019999999999
0
ARC
8
BLACK
10
119.9604519999999894
20
-123.9057819999999879
40
0.5000002074689569
50
-195.00005027
51
-105.00005027
0
ARC
8
BLACK
10
116.8337719999999962
20
-128.192214000000007
40
1.4439087509077573
50
-17.31720808
51
78.22657680
0
LINE
8
BLACK
6
CONTINUOUS
10
125.4643099999999976
20
-130.2132049999999879
11
126.2137460000000004
21
-127.4162709999999947
0
LINE
8
BLACK
6
CONTINUOUS
10
124.1777079999999955
20
-125.5534299999999917
11
119.8310419999999965
21
-124.3887450000000001
0
LINE
8
BLACK
6
CONTINUOUS
10
123.8483869999999882
20
-126.7824739999999935
11
126.2137460000000004
21
-127.4162709999999947
0
LINE
8
BLACK
6
CONTINUOUS
10
123.8483869999999882
20
-126.7824739999999935
11
124.1777079999999955
21
-125.5534299999999917
0
LINE
8
BLACK
6
CONTINUOUS
10
123.0989509999999996
20
-129.5794089999999983
11
125.4643099999999976
21
-130.2132049999999879
0
LINE
8
BLACK
6
CONTINUOUS
10
122.8297789999999878
20
-130.5839719999999886
11
123.0989509999999996
21
-129.5794089999999983
0
LINE
8
BLACK
6
CONTINUOUS
10
119.4774889999999914
20
-123.776371999999995
11
119.736307999999994
21
-122.8104459999999989
0
LINE
8
BLACK
6
CONTINUOUS
10
119.3827539999999914
20
-122.1980739999999912
11
119.736307999999994
21
-122.8104459999999989
0
LINE
8
BLACK
6
CONTINUOUS
10
118.2122329999999977
20
-128.6220109999999863
11
118.0310589999999991
21
-129.2981589999999983
0
LINE
8
BLACK
6
CONTINUOUS
10
118.0310589999999991
20
-129.2981589999999983
11
122.8297789999999878
21
-130.5839719999999886
0
LINE
8
BLACK
6
CONTINUOUS
10
115.9942869999999999
20
-121.2901370000000014
11
119.3827539999999914
21
-122.1980739999999912
0
LINE
8
BLACK
6
CONTINUOUS
10
115.3819139999999948
20
-121.6436899999999923
11
115.9942869999999999
21
-121.2901370000000014
0
LINE
8
BLACK
6
CONTINUOUS
10
115.2428769999999929
20
-122.1625859999999903
11
115.3819139999999948
21
-121.6436899999999923
0
LINE
8
BLACK
6
CONTINUOUS
10
115.2428769999999929
20
-122.1625859999999903
11
112.877516
21
-121.5287889999999891
0
LINE
8
BLACK
6
CONTINUOUS
10
114.6981210000000004
20
-126.1274930000000012
11
117.128389999999996
21
-126.7786819999999892
0
LINE
8
BLACK
6
CONTINUOUS
10
114.4934399999999926
20
-124.9595199999999977
11
112.1280809999999946
21
-124.3257239999999939
0
LINE
8
BLACK
6
CONTINUOUS
10
114.3445669999999978
20
-125.5151209999999935
11
114.6981210000000004
21
-126.1274930000000012
0
LINE
8
BLACK
6
CONTINUOUS
10
114.3445669999999978
20
-125.5151209999999935
11
114.4934399999999926
21
-124.9595199999999977
0
LINE
8
BLACK
6
CONTINUOUS
10
112.877516
20
-121.5287889999999891
11
112.1280809999999946
21
-124.3257239999999939
0
LINE
8
BLACK
6
CONTINUOUS
10
102.5723319999999887
20
-124.9932809999999961
11
100.5403319999999923
21
-124.9932809999999961
0
LINE
8
BLACK
6
CONTINUOUS
10
100.5403319999999923
20
-124.9932809999999961
11
100.5403319999999923
21
-119.811680999999993
0
LINE
8
BLACK
6
CONTINUOUS
10
100.5403319999999923
20
-119.811680999999993
11
102.5723319999999887
21
-119.811680999999993
0
LINE
8
BLACK
6
CONTINUOUS
10
102.5723319999999887
20
-119.811680999999993
11
102.5723319999999887
21
-124.9932809999999961
0
CIRCLE
8
BLACK
10
79.8135219999999919
20
-64.4301619999999957
40
0.855
0
CIRCLE
8
BLACK
10
74.3135219999999919
20
-64.4301619999999957
40
1.75
0
CIRCLE
8
BLACK
10
68.8135219999999919
20
-64.4301619999999957
40
0.855
0
ARC
8
BLACK
10
77.0981220000000036
20
-57.4507619999999974
40
0.5
50
-180.00000000
51
-90.00000000
0
ARC
8
BLACK
10
75.1873920000000027
20
-62.4003820000000005
40
1.4439089435625778
50
-2.31720677
51
93.22658164
0
LINE
8
BLACK
6
CONTINUOUS
10
84.046921999999995
20
-62.1187619999999967
11
84.046921999999995
21
-59.223161999999995
0
LINE
8
BLACK
6
CONTINUOUS
10
81.5981219999999894
20
-63.1587619999999959
11
81.5981219999999894
21
-62.1187619999999967
0
LINE
8
BLACK
6
CONTINUOUS
10
81.5981219999999894
20
-62.1187619999999967
11
84.046921999999995
21
-62.1187619999999967
0
LINE
8
BLACK
6
CONTINUOUS
10
81.5981219999999894
20
-59.223161999999995
11
84.046921999999995
21
-59.223161999999995
0
LINE
8
BLACK
6
CONTINUOUS
10
81.5981219999999894
20
-59.223161999999995
11
81.5981219999999894
21
-57.9507619999999974
0
LINE
8
BLACK
6
CONTINUOUS
10
81.5981219999999894
20
-57.9507619999999974
11
77.0981220000000036
21
-57.9507619999999974
0
LINE
8
BLACK
6
CONTINUOUS
10
76.6301220000000001
20
-63.1587619999999959
11
81.5981219999999894
21
-63.1587619999999959
0
LINE
8
BLACK
6
CONTINUOUS
10
76.6301220000000001
20
-62.4587620000000001
11
76.6301220000000001
21
-63.1587619999999959
0
LINE
8
BLACK
6
CONTINUOUS
10
76.5981220000000036
20
-57.4507619999999974
11
76.5981220000000036
21
-56.4507619999999974
0
LINE
8
BLACK
6
CONTINUOUS
10
76.0981220000000036
20
-55.9507619999999974
11
76.5981220000000036
21
-56.4507619999999974
0
LINE
8
BLACK
6
CONTINUOUS
10
72.5901219999999938
20
-60.9587620000000001
11
75.1061219999999992
21
-60.9587620000000001
0
LINE
8
BLACK
6
CONTINUOUS
10
72.5901219999999938
20
-55.9507619999999974
11
76.0981220000000036
21
-55.9507619999999974
0
LINE
8
BLACK
6
CONTINUOUS
10
72.0901219999999938
20
-60.4587620000000001
11
72.5901219999999938
21
-60.9587620000000001
0
LINE
8
BLACK
6
CONTINUOUS
10
72.0901219999999938
20
-60.4587620000000001
11
72.0901219999999938
21
-59.8835619999999977
0
LINE
8
BLACK
6
CONTINUOUS
10
72.0901219999999938
20
-59.8835619999999977
11
69.6413220000000024
21
-59.8835619999999977
0
LINE
8
BLACK
6
CONTINUOUS
10
72.0901219999999938
20
-56.987961999999996
11
72.0901219999999938
21
-56.4507619999999974
0
LINE
8
BLACK
6
CONTINUOUS
10
72.0901219999999938
20
-56.987961999999996
11
69.6413220000000024
21
-56.987961999999996
0
LINE
8
BLACK
6
CONTINUOUS
10
72.0901219999999938
20
-56.4507619999999974
11
72.5901219999999938
21
-55.9507619999999974
0
LINE
8
BLACK
6
CONTINUOUS
10
69.6413220000000024
20
-56.987961999999996
11
69.6413220000000024
21
-59.8835619999999977
0
LINE
8
BLACK
6
CONTINUOUS
10
106.1283320000000003
20
-127.9142809999999884
11
104.0963319999999896
21
-127.9142809999999884
0
LINE
8
BLACK
6
CONTINUOUS
10
104.0963319999999896
20
-127.9142809999999884
11
104.0963319999999896
21
-122.7326809999999995
0
LINE
8
BLACK
6
CONTINUOUS
10
104.0963319999999896
20
-122.7326809999999995
11
106.1283320000000003
21
-122.7326809999999995
0
LINE
8
BLACK
6
CONTINUOUS
10
106.1283320000000003
20
-122.7326809999999995
11
106.1283320000000003
21
-127.9142809999999884
0
LINE
8
BLACK
6
CONTINUOUS
10
42.1977219999999988
20
-105.9893619999999999
11
44.2297219999999953
21
-105.9893619999999999
0
LINE
8
BLACK
6
CONTINUOUS
10
44.2297219999999953
20
-105.9893619999999999
11
44.2297219999999953
21
-111.1709619999999887
0
LINE
8
BLACK
6
CONTINUOUS
10
44.2297219999999953
20
-111.1709619999999887
11
42.1977219999999988
21
-111.1709619999999887
0
LINE
8
BLACK
6
CONTINUOUS
10
42.1977219999999988
20
-111.1709619999999887
11
42.1977219999999988
21
-105.9893619999999999
0
CIRCLE
8
BLACK
10
98.1133219999999966
20
-101.2301619999999929
40
0.855
0
CIRCLE
8
BLACK
10
92.6133219999999966
20
-101.2301619999999929
40
1.75
0
CIRCLE
8
BLACK
10
87.1133219999999966
20
-101.2301619999999929
40
0.855
0
ARC
8
BLACK
10
95.3979219999999941
20
-94.2507619999999946
40
0.5
50
-180.00000000
51
-90.00000000
0
ARC
8
BLACK
10
93.4871919999999932
20
-99.2003819999999905
40
1.4439089435625778
50
-2.31720677
51
93.22658164
0
LINE
8
BLACK
6
CONTINUOUS
10
102.3467219999999998
20
-98.918762000000001
11
102.3467219999999998
21
-96.0231619999999992
0
LINE
8
BLACK
6
CONTINUOUS
10
99.8979219999999941
20
-99.958761999999993
11
99.8979219999999941
21
-98.918762000000001
0
LINE
8
BLACK
6
CONTINUOUS
10
99.8979219999999941
20
-98.918762000000001
11
102.3467219999999998
21
-98.918762000000001
0
LINE
8
BLACK
6
CONTINUOUS
10
99.8979219999999941
20
-96.0231619999999992
11
102.3467219999999998
21
-96.0231619999999992
0
LINE
8
BLACK
6
CONTINUOUS
10
99.8979219999999941
20
-96.0231619999999992
11
99.8979219999999941
21
-94.7507619999999946
0
LINE
8
BLACK
6
CONTINUOUS
10
99.8979219999999941
20
-94.7507619999999946
11
95.3979219999999941
21
-94.7507619999999946
0
LINE
8
BLACK
6
CONTINUOUS
10
94.9299219999999906
20
-99.958761999999993
11
99.8979219999999941
21
-99.958761999999993
0
LINE
8
BLACK
6
CONTINUOUS
10
94.9299219999999906
20
-99.2587619999999902
11
94.9299219999999906
21
-99.958761999999993
0
LINE
8
BLACK
6
CONTINUOUS
10
94.8979219999999941
20
-94.2507619999999946
11
94.8979219999999941
21
-93.2507619999999946
0
LINE
8
BLACK
6
CONTINUOUS
10
94.3979219999999941
20
-92.7507619999999946
11
94.8979219999999941
21
-93.2507619999999946
0
LINE
8
BLACK
6
CONTINUOUS
10
90.8899219999999985
20
-97.7587619999999902
11
93.4059219999999897
21
-97.7587619999999902
0
LINE
8
BLACK
6
CONTINUOUS
10
90.8899219999999985
20
-92.7507619999999946
11
94.3979219999999941
21
-92.7507619999999946
0
LINE
8
BLACK
6
CONTINUOUS
10
90.3899219999999985
20
-97.2587619999999902
11
90.8899219999999985
21
-97.7587619999999902
0
LINE
8
BLACK
6
CONTINUOUS
10
90.3899219999999985
20
-97.2587619999999902
11
90.3899219999999985
21
-96.6835619999999949
0
LINE
8
BLACK
6
CONTINUOUS
10
90.3899219999999985
20
-96.6835619999999949
11
87.9411219999999929
21
-96.6835619999999949
0
LINE
8
BLACK
6
CONTINUOUS
10
90.3899219999999985
20
-93.7879619999999932
11
90.3899219999999985
21
-93.2507619999999946
0
LINE
8
BLACK
6
CONTINUOUS
10
90.3899219999999985
20
-93.7879619999999932
11
87.9411219999999929
21
-93.7879619999999932
0
LINE
8
BLACK
6
CONTINUOUS
10
90.3899219999999985
20
-93.2507619999999946
11
90.8899219999999985
21
-92.7507619999999946
0
LINE
8
BLACK
6
CONTINUOUS
10
87.9411219999999929
20
-93.7879619999999932
11
87.9411219999999929
21
-96.6835619999999949
0
CIRCLE
8
BLACK
10
98.1133219999999966
20
-84.2301619999999929
40
0.855
0
CIRCLE
8
BLACK
10
92.6133219999999966
20
-84.2301619999999929
40
1.75
0
CIRCLE
8
BLACK
10
87.1133219999999966
20
-84.2301619999999929
40
0.855
0
ARC
8
BLACK
10
95.3979219999999941
20
-77.2507619999999946
40
0.5
50
-180.00000000
51
-90.00000000
0
ARC
8
BLACK
10
93.4871919999999932
20
-82.2003819999999905
40
1.4439089435625778
50
-2.31720677
51
93.22658164
0
LINE
8
BLACK
6
CONTINUOUS
10
102.3467219999999998
20
-81.918762000000001
11
102.3467219999999998
21
-79.0231619999999992
0
LINE
8
BLACK
6
CONTINUOUS
10
99.8979219999999941
20
-82.958761999999993
11
99.8979219999999941
21
-81.918762000000001
0
LINE
8
BLACK
6
CONTINUOUS
10
99.8979219999999941
20
-81.918762000000001
11
102.3467219999999998
21
-81.918762000000001
0
LINE
8
BLACK
6
CONTINUOUS
10
99.8979219999999941
20
-79.0231619999999992
11
102.3467219999999998
21
-79.0231619999999992
0
LINE
8
BLACK
6
CONTINUOUS
10
99.8979219999999941
20
-79.0231619999999992
11
99.8979219999999941
21
-77.7507619999999946
0
LINE
8
BLACK
6
CONTINUOUS
10
99.8979219999999941
20
-77.7507619999999946
11
95.3979219999999941
21
-77.7507619999999946
0
LINE
8
BLACK
6
CONTINUOUS
10
94.9299219999999906
20
-82.958761999999993
11
99.8979219999999941
21
-82.958761999999993
0
LINE
8
BLACK
6
CONTINUOUS
10
94.9299219999999906
20
-82.2587619999999902
11
94.9299219999999906
21
-82.958761999999993
0
LINE
8
BLACK
6
CONTINUOUS
10
94.8979219999999941
20
-77.2507619999999946
11
94.8979219999999941
21
-76.2507619999999946
0
LINE
8
BLACK
6
CONTINUOUS
10
94.3979219999999941
20
-75.7507619999999946
11
94.8979219999999941
21
-76.2507619999999946
0
LINE
8
BLACK
6
CONTINUOUS
10
90.8899219999999985
20
-80.7587619999999902
11
93.4059219999999897
21
-80.7587619999999902
0
LINE
8
BLACK
6
CONTINUOUS
10
90.8899219999999985
20
-75.7507619999999946
11
94.3979219999999941
21
-75.7507619999999946
0
LINE
8
BLACK
6
CONTINUOUS
10
90.3899219999999985
20
-80.2587619999999902
11
90.8899219999999985
21
-80.7587619999999902
0
LINE
8
BLACK
6
CONTINUOUS
10
90.3899219999999985
20
-80.2587619999999902
11
90.3899219999999985
21
-79.6835619999999949
0
LINE
8
BLACK
6
CONTINUOUS
10
90.3899219999999985
20
-79.6835619999999949
11
87.9411219999999929
21
-79.6835619999999949
0
LINE
8
BLACK
6
CONTINUOUS
10
90.3899219999999985
20
-76.7879619999999932
11
90.3899219999999985
21
-76.2507619999999946
0
LINE
8
BLACK
6
CONTINUOUS
10
90.3899219999999985
20
-76.7879619999999932
11
87.9411219999999929
21
-76.7879619999999932
0
LINE
8
BLACK
6
CONTINUOUS
10
90.3899219999999985
20
-76.2507619999999946
11
90.8899219999999985
21
-75.7507619999999946
0
LINE
8
BLACK
6
CONTINUOUS
10
87.9411219999999929
20
-76.7879619999999932
11
87.9411219999999929
21
-79.6835619999999949
0
ARC
8
BLACK
10
53.4957689999999957
20
-132.4134209999999996
40
0.3999991318115578
50
-82.50005007
51
7.50009195
0
ARC
8
BLACK
10
53.2042499999999947
20
-130.2005769999999814
40
0.4001896110320706
50
7.50183065
51
17.50505355
0
ARC
8
BLACK
10
52.6563879999999997
20
-128.4631849999999815
40
0.3999982708962627
50
17.50773239
51
97.50025266
0
ARC
8
BLACK
10
51.573321
20
-117.8063849999999917
40
0.3994000610115126
50
-2.51955611
51
7.50344816
0
ARC
8
BLACK
10
51.492998
20
-119.6264399999999881
40
0.4000080757047287
50
-82.49877194
51
-2.50772680
0
ARC
8
BLACK
10
51.2813909999999993
20
-115.5935580000000016
40
0.3999999927299999
50
7.49993124
51
97.49993124
0
ARC
8
BLACK
10
36.091943999999998
20
-134.7046780000000012
40
0.3999991318115578
50
-172.50005007
51
-82.49990805
0
ARC
8
BLACK
10
35.8803279999999987
20
-130.671795000000003
40
0.3999970862393875
50
97.49968460
51
177.49220426
0
ARC
8
BLACK
10
35.8005420000000001
20
-132.4917959999999937
40
0.3999286087991205
50
-182.50836513
51
-172.49872239
0
ARC
8
BLACK
10
34.7169579999999982
20
-121.8350469999999888
40
0.4000000705624938
50
-162.49219520
51
-82.50108156
0
ARC
8
BLACK
10
34.1698809999999966
20
-120.0974899999999934
40
0.4009986359926926
50
-172.48904052
51
-162.50608477
0
ARC
8
BLACK
10
33.8775679999999966
20
-117.884814999999989
40
0.3999999927299999
50
-262.50006876
51
-172.50006876
0
LINE
8
BLACK
6
CONTINUOUS
10
53.6010149999999967
20
-130.1483289999999897
11
53.8923459999999963
21
-132.3612099999999998
0
LINE
8
BLACK
6
CONTINUOUS
10
53.0378559999999979
20
-128.3428519999999935
11
53.5859069999999988
21
-130.0802039999999806
0
LINE
8
BLACK
6
CONTINUOUS
10
51.9723399999999955
20
-117.8239429999999999
11
51.8926230000000004
21
-119.6439419999999956
0
LINE
8
BLACK
6
CONTINUOUS
10
51.6779689999999974
20
-115.5413479999999993
11
51.9693009999999944
21
-117.7542289999999952
0
LINE
8
BLACK
6
CONTINUOUS
10
51.545217000000001
20
-120.0230169999999958
11
43.1571889999999954
21
-121.1273219999999924
0
LINE
8
BLACK
6
CONTINUOUS
10
51.229180999999997
20
-115.1969799999999964
11
42.5272689999999969
21
-116.3426089999999959
0
LINE
8
BLACK
6
CONTINUOUS
10
44.8460669999999979
20
-133.9556269999999927
11
53.547978999999998
21
-132.8099980000000073
0
LINE
8
BLACK
6
CONTINUOUS
10
44.2161479999999969
20
-129.170913999999982
11
52.6041759999999954
21
-128.0666089999999997
0
LINE
8
BLACK
6
CONTINUOUS
10
43.1571889999999954
20
-121.1273219999999924
11
34.7691609999999969
21
-122.2316259999999914
0
LINE
8
BLACK
6
CONTINUOUS
10
42.5272689999999969
20
-116.3426089999999959
11
33.8253580000000014
21
-117.488236999999998
0
LINE
8
BLACK
6
CONTINUOUS
10
36.1441549999999978
20
-135.1012549999999806
11
44.8460669999999979
21
-133.9556269999999927
0
LINE
8
BLACK
6
CONTINUOUS
10
35.8281199999999984
20
-130.2752189999999928
11
44.2161479999999969
21
-129.170913999999982
0
LINE
8
BLACK
6
CONTINUOUS
10
35.6953669999999974
20
-134.7568880000000036
11
35.4040359999999978
21
-132.544005999999996
0
LINE
8
BLACK
6
CONTINUOUS
10
35.4009959999999992
20
-132.4742929999999888
11
35.480713999999999
21
-130.6542929999999956
0
LINE
8
BLACK
6
CONTINUOUS
10
34.3354789999999994
20
-121.9553839999999951
11
33.7874289999999959
21
-120.2180319999999938
0
LINE
8
BLACK
6
CONTINUOUS
10
33.7723219999999955
20
-120.1499069999999989
11
33.4809899999999985
21
-117.9370249999999913
0
CIRCLE
8
BLACK
10
45.600131999999995
20
-59.5646810000000002
40
1.0999999999999999
0
LINE
8
BLACK
6
CONTINUOUS
10
60.4975219999999965
20
-68.9893619999999999
11
62.529522
21
-68.9893619999999999
0
LINE
8
BLACK
6
CONTINUOUS
10
62.529522
20
-68.9893619999999999
11
62.529522
21
-74.1709620000000029
0
LINE
8
BLACK
6
CONTINUOUS
10
62.529522
20
-74.1709620000000029
11
60.4975219999999965
21
-74.1709620000000029
0
LINE
8
BLACK
6
CONTINUOUS
10
60.4975219999999965
20
-74.1709620000000029
11
60.4975219999999965
21
-68.9893619999999999
0
CIRCLE
8
BLACK
10
43.2139219999999966
20
-87.2299620000000004
40
0.855
0
CIRCLE
8
BLACK
10
37.7139219999999966
20
-87.2299620000000004
40
1.75
0
CIRCLE
8
BLACK
10
32.2139219999999966
20
-87.2299620000000004
40
0.855
0
ARC
8
BLACK
10
40.4985220000000012
20
-80.2505620000000022
40
0.5
50
-180.00000000
51
-90.00000000
0
ARC
8
BLACK
10
38.5877920000000003
20
-85.2001819999999981
40
1.4439089435625778
50
-2.31720677
51
93.22658164
0
LINE
8
BLACK
6
CONTINUOUS
10
47.4473219999999998
20
-84.9185619999999943
11
47.4473219999999998
21
-82.0229619999999926
0
LINE
8
BLACK
6
CONTINUOUS
10
44.9985220000000012
20
-85.9585620000000006
11
44.9985220000000012
21
-84.9185619999999943
0
LINE
8
BLACK
6
CONTINUOUS
10
44.9985220000000012
20
-84.9185619999999943
11
47.4473219999999998
21
-84.9185619999999943
0
LINE
8
BLACK
6
CONTINUOUS
10
44.9985220000000012
20
-82.0229619999999926
11
47.4473219999999998
21
-82.0229619999999926
0
LINE
8
BLACK
6
CONTINUOUS
10
44.9985220000000012
20
-82.0229619999999926
11
44.9985220000000012
21
-80.7505620000000022
0
LINE
8
BLACK
6
CONTINUOUS
10
44.9985220000000012
20
-80.7505620000000022
11
40.4985220000000012
21
-80.7505620000000022
0
LINE
8
BLACK
6
CONTINUOUS
10
40.0305219999999977
20
-85.9585620000000006
11
44.9985220000000012
21
-85.9585620000000006
0
LINE
8
BLACK
6
CONTINUOUS
10
40.0305219999999977
20
-85.2585619999999977
11
40.0305219999999977
21
-85.9585620000000006
0
LINE
8
BLACK
6
CONTINUOUS
10
39.9985220000000012
20
-80.2505620000000022
11
39.9985220000000012
21
-79.2505620000000022
0
LINE
8
BLACK
6
CONTINUOUS
10
39.4985220000000012
20
-78.7505620000000022
11
39.9985220000000012
21
-79.2505620000000022
0
LINE
8
BLACK
6
CONTINUOUS
10
35.9905219999999986
20
-83.7585619999999977
11
38.5065219999999968
21
-83.7585619999999977
0
LINE
8
BLACK
6
CONTINUOUS
10
35.9905219999999986
20
-78.7505620000000022
11
39.4985220000000012
21
-78.7505620000000022
0
LINE
8
BLACK
6
CONTINUOUS
10
35.4905219999999986
20
-83.2585619999999977
11
35.9905219999999986
21
-83.7585619999999977
0
LINE
8
BLACK
6
CONTINUOUS
10
35.4905219999999986
20
-83.2585619999999977
11
35.4905219999999986
21
-82.6833620000000025
0
LINE
8
BLACK
6
CONTINUOUS
10
35.4905219999999986
20
-82.6833620000000025
11
33.041722
21
-82.6833620000000025
0
LINE
8
BLACK
6
CONTINUOUS
10
35.4905219999999986
20
-79.7877620000000007
11
35.4905219999999986
21
-79.2505620000000022
0
LINE
8
BLACK
6
CONTINUOUS
10
35.4905219999999986
20
-79.7877620000000007
11
33.041722
21
-79.7877620000000007
0
LINE
8
BLACK
6
CONTINUOUS
10
35.4905219999999986
20
-79.2505620000000022
11
35.9905219999999986
21
-78.7505620000000022
0
LINE
8
BLACK
6
CONTINUOUS
10
33.041722
20
-79.7877620000000007
11
33.041722
21
-82.6833620000000025
0
LINE
8
BLACK
6
CONTINUOUS
10
78.7973219999999941
20
-100.1893619999999885
11
80.8293219999999906
21
-100.1893619999999885
0
LINE
8
BLACK
6
CONTINUOUS
10
80.8293219999999906
20
-100.1893619999999885
11
80.8293219999999906
21
-105.3709619999999916
0
LINE
8
BLACK
6
CONTINUOUS
10
80.8293219999999906
20
-105.3709619999999916
11
78.7973219999999941
21
-105.3709619999999916
0
LINE
8
BLACK
6
CONTINUOUS
10
78.7973219999999941
20
-105.3709619999999916
11
78.7973219999999941
21
-100.1893619999999885
0
CIRCLE
8
BLACK
10
43.2139219999999966
20
-70.2301619999999929
40
0.855
0
CIRCLE
8
BLACK
10
37.7139219999999966
20
-70.2301619999999929
40
1.75
0
CIRCLE
8
BLACK
10
32.2139219999999966
20
-70.2301619999999929
40
0.855
0
ARC
8
BLACK
10
36.840052
20
-72.2599419999999952
40
1.4439089435625778
50
-182.31720677
51
-86.77341836
0
ARC
8
BLACK
10
34.9293219999999991
20
-77.2095619999999911
40
0.5
50
0.00000000
51
90.00000000
0
LINE
8
BLACK
6
CONTINUOUS
10
42.3861220000000003
20
-77.6723619999999926
11
42.3861220000000003
21
-74.7767619999999908
0
LINE
8
BLACK
6
CONTINUOUS
10
39.9373219999999947
20
-78.2095619999999911
11
39.4373220000000018
21
-78.7095619999999911
0
LINE
8
BLACK
6
CONTINUOUS
10
39.9373219999999947
20
-77.6723619999999926
11
42.3861220000000003
21
-77.6723619999999926
0
LINE
8
BLACK
6
CONTINUOUS
10
39.9373219999999947
20
-77.6723619999999926
11
39.9373219999999947
21
-78.2095619999999911
0
LINE
8
BLACK
6
CONTINUOUS
10
39.9373219999999947
20
-74.7767619999999908
11
42.3861220000000003
21
-74.7767619999999908
0
LINE
8
BLACK
6
CONTINUOUS
10
39.9373219999999947
20
-74.2015619999999956
11
39.9373219999999947
21
-74.7767619999999908
0
LINE
8
BLACK
6
CONTINUOUS
10
39.9373219999999947
20
-74.2015619999999956
11
39.4373220000000018
21
-73.7015619999999956
0
LINE
8
BLACK
6
CONTINUOUS
10
39.4373220000000018
20
-78.7095619999999911
11
35.9293219999999991
21
-78.7095619999999911
0
LINE
8
BLACK
6
CONTINUOUS
10
39.4373220000000018
20
-73.7015619999999956
11
36.9213219999999964
21
-73.7015619999999956
0
LINE
8
BLACK
6
CONTINUOUS
10
35.9293219999999991
20
-78.7095619999999911
11
35.4293219999999991
21
-78.2095619999999911
0
LINE
8
BLACK
6
CONTINUOUS
10
35.4293219999999991
20
-77.2095619999999911
11
35.4293219999999991
21
-78.2095619999999911
0
LINE
8
BLACK
6
CONTINUOUS
10
35.3973219999999955
20
-72.2015619999999956
11
35.3973219999999955
21
-71.5015619999999927
0
LINE
8
BLACK
6
CONTINUOUS
10
35.3973219999999955
20
-71.5015619999999927
11
30.4293219999999991
21
-71.5015619999999927
0
LINE
8
BLACK
6
CONTINUOUS
10
30.4293219999999991
20
-76.7095619999999911
11
34.9293219999999991
21
-76.7095619999999911
0
LINE
8
BLACK
6
CONTINUOUS
10
30.4293219999999991
20
-75.4371620000000007
11
30.4293219999999991
21
-76.7095619999999911
0
LINE
8
BLACK
6
CONTINUOUS
10
30.4293219999999991
20
-75.4371620000000007
11
27.980521999999997
21
-75.4371620000000007
0
LINE
8
BLACK
6
CONTINUOUS
10
30.4293219999999991
20
-72.541561999999999
11
27.980521999999997
21
-72.541561999999999
0
LINE
8
BLACK
6
CONTINUOUS
10
30.4293219999999991
20
-71.5015619999999927
11
30.4293219999999991
21
-72.541561999999999
0
LINE
8
BLACK
6
CONTINUOUS
10
27.980521999999997
20
-72.541561999999999
11
27.980521999999997
21
-75.4371620000000007
0
LINE
8
BLACK
6
CONTINUOUS
10
78.7973219999999941
20
-66.1893620000000027
11
80.8293219999999906
21
-66.1893620000000027
0
LINE
8
BLACK
6
CONTINUOUS
10
80.8293219999999906
20
-66.1893620000000027
11
80.8293219999999906
21
-71.3709619999999916
0
LINE
8
BLACK
6
CONTINUOUS
10
80.8293219999999906
20
-71.3709619999999916
11
78.7973219999999941
21
-71.3709619999999916
0
LINE
8
BLACK
6
CONTINUOUS
10
78.7973219999999941
20
-71.3709619999999916
11
78.7973219999999941
21
-66.1893620000000027
0
CIRCLE
8
BLACK
10
116.4131220000000013
20
-104.7697620000000001
40
0.855
0
CIRCLE
8
BLACK
10
110.9131220000000013
20
-104.7697620000000001
40
1.75
0
CIRCLE
8
BLACK
10
105.4131220000000013
20
-104.7697620000000001
40
0.855
0
ARC
8
BLACK
10
113.6977219999999988
20
-97.7903620000000018
40
0.5
50
-180.00000000
51
-90.00000000
0
ARC
8
BLACK
10
111.7869919999999979
20
-102.7399819999999977
40
1.4439089435625778
50
-2.31720677
51
93.22658164
0
LINE
8
BLACK
6
CONTINUOUS
10
120.6465219999999903
20
-102.4583619999999939
11
120.6465219999999903
21
-99.5627619999999922
0
LINE
8
BLACK
6
CONTINUOUS
10
118.1977219999999988
20
-103.4983620000000002
11
118.1977219999999988
21
-102.4583619999999939
0
LINE
8
BLACK
6
CONTINUOUS
10
118.1977219999999988
20
-102.4583619999999939
11
120.6465219999999903
21
-102.4583619999999939
0
LINE
8
BLACK
6
CONTINUOUS
10
118.1977219999999988
20
-99.5627619999999922
11
120.6465219999999903
21
-99.5627619999999922
0
LINE
8
BLACK
6
CONTINUOUS
10
118.1977219999999988
20
-99.5627619999999922
11
118.1977219999999988
21
-98.2903620000000018
0
LINE
8
BLACK
6
CONTINUOUS
10
118.1977219999999988
20
-98.2903620000000018
11
113.6977219999999988
21
-98.2903620000000018
0
LINE
8
BLACK
6
CONTINUOUS
10
113.2297219999999953
20
-103.4983620000000002
11
118.1977219999999988
21
-103.4983620000000002
0
LINE
8
BLACK
6
CONTINUOUS
10
113.2297219999999953
20
-102.7983619999999974
11
113.2297219999999953
21
-103.4983620000000002
0
LINE
8
BLACK
6
CONTINUOUS
10
113.1977219999999988
20
-97.7903620000000018
11
113.1977219999999988
21
-96.7903620000000018
0
LINE
8
BLACK
6
CONTINUOUS
10
112.6977219999999988
20
-96.2903620000000018
11
113.1977219999999988
21
-96.7903620000000018
0
LINE
8
BLACK
6
CONTINUOUS
10
109.1897219999999891
20
-101.2983619999999974
11
111.7057219999999944
21
-101.2983619999999974
0
LINE
8
BLACK
6
CONTINUOUS
10
109.1897219999999891
20
-96.2903620000000018
11
112.6977219999999988
21
-96.2903620000000018
0
LINE
8
BLACK
6
CONTINUOUS
10
108.6897219999999891
20
-100.7983619999999974
11
109.1897219999999891
21
-101.2983619999999974
0
LINE
8
BLACK
6
CONTINUOUS
10
108.6897219999999891
20
-100.7983619999999974
11
108.6897219999999891
21
-100.2231620000000021
0
LINE
8
BLACK
6
CONTINUOUS
10
108.6897219999999891
20
-100.2231620000000021
11
106.2409219999999976
21
-100.2231620000000021
0
LINE
8
BLACK
6
CONTINUOUS
10
108.6897219999999891
20
-97.3275620000000004
11
108.6897219999999891
21
-96.7903620000000018
0
LINE
8
BLACK
6
CONTINUOUS
10
108.6897219999999891
20
-97.3275620000000004
11
106.2409219999999976
21
-97.3275620000000004
0
LINE
8
BLACK
6
CONTINUOUS
10
108.6897219999999891
20
-96.7903620000000018
11
109.1897219999999891
21
-96.2903620000000018
0
LINE
8
BLACK
6
CONTINUOUS
10
106.2409219999999976
20
-97.3275620000000004
11
106.2409219999999976
21
-100.2231620000000021
0
CIRCLE
8
BLACK
10
103.4613319999999987
20
-59.8694810000000004
40
1.0999999999999999
0
CIRCLE
8
BLACK
10
81.8713319999999953
20
-125.9094809999999995
40
1.0999999999999999
0
CIRCLE
8
BLACK
10
101.5140119999999939
20
-126.8046719999999965
40
0.855001
0
CIRCLE
8
BLACK
10
96.0610649999999993
20
-126.0867779999999954
40
1.7500009999999999
0
CIRCLE
8
BLACK
10
90.6081179999999904
20
-125.3688839999999942
40
0.855
0
ARC
8
BLACK
10
94.9297320000000013
20
-127.9851299999999981
40
1.4439093790989792
50
-189.81721633
51
-94.27343914
0
ARC
8
BLACK
10
92.389292999999995
20
-132.6430049999999881
40
0.4999995604528068
50
-7.49998057
51
82.50000448
0
LINE
8
BLACK
6
CONTINUOUS
10
99.7218919999999969
20
-134.0751530000000002
11
100.0998429999999928
21
-131.2043259999999805
0
LINE
8
BLACK
6
CONTINUOUS
10
97.7470719999999886
20
-130.3144139999999993
11
97.6719930000000005
21
-130.8846929999999986
0
LINE
8
BLACK
6
CONTINUOUS
10
97.7470719999999886
20
-130.3144139999999993
11
97.3166119999999921
21
-129.7534310000000062
0
LINE
8
BLACK
6
CONTINUOUS
10
97.6719930000000005
20
-130.8846929999999986
11
100.0998429999999928
21
-131.2043259999999805
0
LINE
8
BLACK
6
CONTINUOUS
10
97.3166119999999921
20
-129.7534310000000062
11
94.8221369999999979
21
-129.4250250000000051
0
LINE
8
BLACK
6
CONTINUOUS
10
97.2940409999999929
20
-133.7555209999999875
11
99.7218919999999969
21
-134.0751530000000002
0
LINE
8
BLACK
6
CONTINUOUS
10
97.2940409999999929
20
-133.7555209999999875
11
97.2239229999999992
21
-134.288125000000008
0
LINE
8
BLACK
6
CONTINUOUS
10
97.2239229999999992
20
-134.288125000000008
11
96.6629369999999994
21
-134.7185839999999928
0
LINE
8
BLACK
6
CONTINUOUS
10
96.6629369999999994
20
-134.7185839999999928
11
93.1849489999999889
21
-134.2606989999999882
0
LINE
8
BLACK
6
CONTINUOUS
10
93.5983329999999967
20
-127.0449239999999946
11
88.6728349999999921
21
-126.3964699999999937
0
LINE
8
BLACK
6
CONTINUOUS
10
93.5069639999999964
20
-127.7389349999999979
11
93.5983329999999967
21
-127.0449239999999946
0
LINE
8
BLACK
6
CONTINUOUS
10
93.1849489999999889
20
-134.2606989999999882
11
92.7544889999999924
21
-133.6997130000000027
0
LINE
8
BLACK
6
CONTINUOUS
10
92.8850159999999931
20
-132.7082680000000039
11
92.7544889999999924
21
-133.6997130000000027
0
LINE
8
BLACK
6
CONTINUOUS
10
88.6728349999999921
20
-126.3964699999999937
11
88.5370899999999921
21
-127.4275729999999953
0
LINE
8
BLACK
6
CONTINUOUS
10
88.5370899999999921
20
-127.4275729999999953
11
86.1092369999999931
21
-127.1079399999999993
0
LINE
8
BLACK
6
CONTINUOUS
10
88.1591359999999895
20
-130.2983999999999867
11
87.9930540000000008
21
-131.5599149999999895
0
LINE
8
BLACK
6
CONTINUOUS
10
88.1591359999999895
20
-130.2983999999999867
11
85.7312859999999972
21
-129.9787680000000023
0
LINE
8
BLACK
6
CONTINUOUS
10
87.9930540000000008
20
-131.5599149999999895
11
92.4545559999999966
21
-132.1472829999999874
0
LINE
8
BLACK
6
CONTINUOUS
10
86.1092369999999931
20
-127.1079399999999993
11
85.7312859999999972
21
-129.9787680000000023
0
LINE
8
BLACK
6
CONTINUOUS
10
97.0973219999999912
20
-68.9891619999999932
11
99.1293220000000019
21
-68.9891619999999932
0
LINE
8
BLACK
6
CONTINUOUS
10
99.1293220000000019
20
-68.9891619999999932
11
99.1293220000000019
21
-74.1707619999999963
0
LINE
8
BLACK
6
CONTINUOUS
10
99.1293220000000019
20
-74.1707619999999963
11
97.0973219999999912
21
-74.1707619999999963
0
LINE
8
BLACK
6
CONTINUOUS
10
97.0973219999999912
20
-74.1707619999999963
11
97.0973219999999912
21
-68.9891619999999932
0
LINE
8
BLACK
6
CONTINUOUS
10
97.0973219999999912
20
-102.9893619999999999
11
99.1293220000000019
21
-102.9893619999999999
0
LINE
8
BLACK
6
CONTINUOUS
10
99.1293220000000019
20
-102.9893619999999999
11
99.1293220000000019
21
-108.1709619999999887
0
LINE
8
BLACK
6
CONTINUOUS
10
99.1293220000000019
20
-108.1709619999999887
11
97.0973219999999912
21
-108.1709619999999887
0
LINE
8
BLACK
6
CONTINUOUS
10
97.0973219999999912
20
-108.1709619999999887
11
97.0973219999999912
21
-102.9893619999999999
0
CIRCLE
8
BLACK
10
59.6311180000000007
20
-128.8374609999999905
40
1.0999999999999999
0
LINE
8
BLACK
6
CONTINUOUS
10
115.3969219999999893
20
-106.5289619999999928
11
117.428922
21
-106.5289619999999928
0
LINE
8
BLACK
6
CONTINUOUS
10
117.428922
20
-106.5289619999999928
11
117.428922
21
-111.7105619999999959
0
LINE
8
BLACK
6
CONTINUOUS
10
117.428922
20
-111.7105619999999959
11
115.3969219999999893
21
-111.7105619999999959
0
LINE
8
BLACK
6
CONTINUOUS
10
115.3969219999999893
20
-111.7105619999999959
11
115.3969219999999893
21
-106.5289619999999928
0
LINE
8
BLACK
6
CONTINUOUS
10
44.2297219999999953
20
-68.4712809999999905
11
42.1977219999999988
21
-68.4712809999999905
0
LINE
8
BLACK
6
CONTINUOUS
10
42.1977219999999988
20
-68.4712809999999905
11
42.1977219999999988
21
-63.2896809999999945
0
LINE
8
BLACK
6
CONTINUOUS
10
42.1977219999999988
20
-63.2896809999999945
11
44.2297219999999953
21
-63.2896809999999945
0
LINE
8
BLACK
6
CONTINUOUS
10
44.2297219999999953
20
-63.2896809999999945
11
44.2297219999999953
21
-68.4712809999999905
0
CIRCLE
8
BLACK
10
116.4131220000000013
20
-70.7697620000000001
40
0.855
0
CIRCLE
8
BLACK
10
110.9131220000000013
20
-70.7697620000000001
40
1.75
0
CIRCLE
8
BLACK
10
105.4131220000000013
20
-70.7697620000000001
40
0.855
0
ARC
8
BLACK
10
110.0392519999999905
20
-72.7995420000000024
40
1.4439089435625778
50
-182.31720677
51
-86.77341836
0
ARC
8
BLACK
10
108.1285219999999896
20
-77.7491619999999983
40
0.5
50
0.00000000
51
90.00000000
0
LINE
8
BLACK
6
CONTINUOUS
10
115.5853219999999908
20
-78.2119619999999998
11
115.5853219999999908
21
-75.316361999999998
0
LINE
8
BLACK
6
CONTINUOUS
10
113.1365219999999994
20
-78.7491619999999983
11
112.6365219999999994
21
-79.2491619999999983
0
LINE
8
BLACK
6
CONTINUOUS
10
113.1365219999999994
20
-78.2119619999999998
11
115.5853219999999908
21
-78.2119619999999998
0
LINE
8
BLACK
6
CONTINUOUS
10
113.1365219999999994
20
-78.2119619999999998
11
113.1365219999999994
21
-78.7491619999999983
0
LINE
8
BLACK
6
CONTINUOUS
10
113.1365219999999994
20
-75.316361999999998
11
115.5853219999999908
21
-75.316361999999998
0
LINE
8
BLACK
6
CONTINUOUS
10
113.1365219999999994
20
-74.7411620000000028
11
113.1365219999999994
21
-75.316361999999998
0
LINE
8
BLACK
6
CONTINUOUS
10
113.1365219999999994
20
-74.7411620000000028
11
112.6365219999999994
21
-74.2411620000000028
0
LINE
8
BLACK
6
CONTINUOUS
10
112.6365219999999994
20
-79.2491619999999983
11
109.1285219999999896
21
-79.2491619999999983
0
LINE
8
BLACK
6
CONTINUOUS
10
112.6365219999999994
20
-74.2411620000000028
11
110.120521999999994
21
-74.2411620000000028
0
LINE
8
BLACK
6
CONTINUOUS
10
109.1285219999999896
20
-79.2491619999999983
11
108.6285219999999896
21
-78.7491619999999983
0
LINE
8
BLACK
6
CONTINUOUS
10
108.6285219999999896
20
-77.7491619999999983
11
108.6285219999999896
21
-78.7491619999999983
0
LINE
8
BLACK
6
CONTINUOUS
10
108.5965219999999931
20
-72.7411620000000028
11
108.5965219999999931
21
-72.0411619999999999
0
LINE
8
BLACK
6
CONTINUOUS
10
108.5965219999999931
20
-72.0411619999999999
11
103.6285219999999896
21
-72.0411619999999999
0
LINE
8
BLACK
6
CONTINUOUS
10
103.6285219999999896
20
-77.2491619999999983
11
108.1285219999999896
21
-77.2491619999999983
0
LINE
8
BLACK
6
CONTINUOUS
10
103.6285219999999896
20
-75.9767619999999937
11
103.6285219999999896
21
-77.2491619999999983
0
LINE
8
BLACK
6
CONTINUOUS
10
103.6285219999999896
20
-75.9767619999999937
11
101.1797219999999982
21
-75.9767619999999937
0
LINE
8
BLACK
6
CONTINUOUS
10
103.6285219999999896
20
-73.081161999999992
11
101.1797219999999982
21
-73.081161999999992
0
LINE
8
BLACK
6
CONTINUOUS
10
103.6285219999999896
20
-72.0411619999999999
11
103.6285219999999896
21
-73.081161999999992
0
LINE
8
BLACK
6
CONTINUOUS
10
101.1797219999999982
20
-73.081161999999992
11
101.1797219999999982
21
-75.9767619999999937
0
CIRCLE
8
BLACK
10
116.4131220000000013
20
-87.7697620000000001
40
0.855
0
CIRCLE
8
BLACK
10
110.9131220000000013
20
-87.7697620000000001
40
1.75
0
CIRCLE
8
BLACK
10
105.4131220000000013
20
-87.7697620000000001
40
0.855
0
ARC
8
BLACK
10
113.6977219999999988
20
-80.7903620000000018
40
0.5
50
-180.00000000
51
-90.00000000
0
ARC
8
BLACK
10
111.7869919999999979
20
-85.7399819999999977
40
1.4439089435625778
50
-2.31720677
51
93.22658164
0
LINE
8
BLACK
6
CONTINUOUS
10
120.6465219999999903
20
-85.4583619999999939
11
120.6465219999999903
21
-82.5627619999999922
0
LINE
8
BLACK
6
CONTINUOUS
10
118.1977219999999988
20
-86.4983620000000002
11
118.1977219999999988
21
-85.4583619999999939
0
LINE
8
BLACK
6
CONTINUOUS
10
118.1977219999999988
20
-85.4583619999999939
11
120.6465219999999903
21
-85.4583619999999939
0
LINE
8
BLACK
6
CONTINUOUS
10
118.1977219999999988
20
-82.5627619999999922
11
120.6465219999999903
21
-82.5627619999999922
0
LINE
8
BLACK
6
CONTINUOUS
10
118.1977219999999988
20
-82.5627619999999922
11
118.1977219999999988
21
-81.2903620000000018
0
LINE
8
BLACK
6
CONTINUOUS
10
118.1977219999999988
20
-81.2903620000000018
11
113.6977219999999988
21
-81.2903620000000018
0
LINE
8
BLACK
6
CONTINUOUS
10
113.2297219999999953
20
-86.4983620000000002
11
118.1977219999999988
21
-86.4983620000000002
0
LINE
8
BLACK
6
CONTINUOUS
10
113.2297219999999953
20
-85.7983619999999974
11
113.2297219999999953
21
-86.4983620000000002
0
LINE
8
BLACK
6
CONTINUOUS
10
113.1977219999999988
20
-80.7903620000000018
11
113.1977219999999988
21
-79.7903620000000018
0
LINE
8
BLACK
6
CONTINUOUS
10
112.6977219999999988
20
-79.2903620000000018
11
113.1977219999999988
21
-79.7903620000000018
0
LINE
8
BLACK
6
CONTINUOUS
10
109.1897219999999891
20
-84.2983619999999974
11
111.7057219999999944
21
-84.2983619999999974
0
LINE
8
BLACK
6
CONTINUOUS
10
109.1897219999999891
20
-79.2903620000000018
11
112.6977219999999988
21
-79.2903620000000018
0
LINE
8
BLACK
6
CONTINUOUS
10
108.6897219999999891
20
-83.7983619999999974
11
109.1897219999999891
21
-84.2983619999999974
0
LINE
8
BLACK
6
CONTINUOUS
10
108.6897219999999891
20
-83.7983619999999974
11
108.6897219999999891
21
-83.2231620000000021
0
LINE
8
BLACK
6
CONTINUOUS
10
108.6897219999999891
20
-83.2231620000000021
11
106.2409219999999976
21
-83.2231620000000021
0
LINE
8
BLACK
6
CONTINUOUS
10
108.6897219999999891
20
-80.3275620000000004
11
108.6897219999999891
21
-79.7903620000000018
0
LINE
8
BLACK
6
CONTINUOUS
10
108.6897219999999891
20
-80.3275620000000004
11
106.2409219999999976
21
-80.3275620000000004
0
LINE
8
BLACK
6
CONTINUOUS
10
108.6897219999999891
20
-79.7903620000000018
11
109.1897219999999891
21
-79.2903620000000018
0
LINE
8
BLACK
6
CONTINUOUS
10
106.2409219999999976
20
-80.3275620000000004
11
106.2409219999999976
21
-83.2231620000000021
  0
ENDSEC
  0
EOF
