M48
; DRILL file {KiCad (6.0.6)} date Tue Jul 19 13:35:39 2022
; FORMAT={-:-/ absolute / inch / decimal}
; #@! TF.CreationDate,2022-07-19T13:35:39+08:00
; #@! TF.GenerationSoftware,Kicad,Pcbnew,(6.0.6)
; #@! TF.FileFunction,NonPlated,1,2,NPTH
FMAT,2
INCH
; #@! TA.AperFunction,NonPlated,NPTH,ComponentDrill
T1C0.0354
; #@! TA.AperFunction,NonPlated,NPTH,ComponentDrill
T2C0.0670
; #@! TA.AperFunction,NonPlated,NPTH,ComponentDrill
T3C0.1181
; #@! TA.AperFunction,NonPlated,NPTH,ComponentDrill
T4C0.1260
; #@! TA.AperFunction,NonPlated,NPTH,ComponentDrill
T5C0.1350
%
G90
G05
T1
X7.2081Y-5.182
X7.2081Y-5.182
X7.2672Y-5.0797
X7.2672Y-5.0797
T2
X3.3044Y-2.6207
X3.3044Y-3.2927
X3.3044Y-3.9607
X3.7375Y-2.6207
X3.7375Y-3.2927
X3.7375Y-3.9607
X4.0164Y-2.5207
X4.0164Y-3.1907
X4.0164Y-3.8607
X4.4495Y-2.5207
X4.4495Y-3.1907
X4.4495Y-3.8607
X4.7284Y-2.3604
X4.7284Y-3.0304
X4.7284Y-3.7004
X5.1615Y-2.3604
X5.1615Y-3.0304
X5.1615Y-3.7004
X5.4404Y-2.4707
X5.4404Y-3.1407
X5.4404Y-3.8107
X5.8433Y-4.7453
X5.8735Y-2.4707
X5.8735Y-3.1407
X5.8735Y-3.8107
X6.1524Y-2.5707
X6.1524Y-3.2407
X6.1524Y-3.9107
X6.2616Y-4.8574
X6.5855Y-2.5707
X6.5855Y-3.2407
X6.5855Y-3.9107
X6.6449Y-5.013
X7.0199Y-5.2296
T3
X3.3241Y-2.473
X3.3241Y-3.145
X3.3241Y-3.813
X3.5209Y-2.3864
X3.5209Y-3.0584
X3.5209Y-3.7264
X3.7178Y-2.473
X3.7178Y-3.145
X3.7178Y-3.813
X4.0361Y-2.373
X4.0361Y-3.043
X4.0361Y-3.713
X4.2329Y-2.2864
X4.2329Y-2.9564
X4.2329Y-3.6264
X4.4298Y-2.373
X4.4298Y-3.043
X4.4298Y-3.713
X4.7481Y-2.2128
X4.7481Y-2.8828
X4.7481Y-3.5528
X4.9449Y-2.1262
X4.9449Y-2.7962
X4.9449Y-3.4662
X5.1418Y-2.2128
X5.1418Y-2.8828
X5.1418Y-3.5528
X5.4601Y-2.323
X5.4601Y-2.993
X5.4601Y-3.663
X5.6569Y-2.2364
X5.6569Y-2.9064
X5.6569Y-3.5764
X5.8241Y-4.893
X5.8538Y-2.323
X5.8538Y-2.993
X5.8538Y-3.663
X5.9918Y-5.0276
X6.1721Y-2.423
X6.1721Y-3.093
X6.1721Y-3.763
X6.2044Y-4.9949
X6.3689Y-2.3364
X6.3689Y-3.0064
X6.3689Y-3.6764
X6.5658Y-2.423
X6.5658Y-3.093
X6.5658Y-3.763
X6.5881Y-5.1507
X6.7153Y-5.3242
X6.9291Y-5.3476
T4
X3.8084Y-2.1913
X3.9444Y-4.2903
X5.9604Y-4.2863
X6.0824Y-2.1423
X6.4674Y-4.8983
T5
X3.5209Y-2.6207
X3.5209Y-3.2927
X3.5209Y-3.9607
X4.2329Y-2.5207
X4.2329Y-3.1907
X4.2329Y-3.8607
X4.9449Y-2.3604
X4.9449Y-3.0304
X4.9449Y-3.7004
X5.6569Y-2.4707
X5.6569Y-3.1407
X5.6569Y-3.8107
X6.0524Y-4.8013
X6.3689Y-2.5707
X6.3689Y-3.2407
X6.3689Y-3.9107
X6.8324Y-5.1213
T0
M30
