M48
; DRILL file {KiCad 9.0.2} date 2025-07-12T22:53:37+0800
; FORMAT={-:-/ absolute / metric / decimal}
; #@! TF.CreationDate,2025-07-12T22:53:37+08:00
; #@! TF.GenerationSoftware,Kicad,Pcbnew,9.0.2
; #@! TF.FileFunction,NonPlated,1,2,NPTH
FMAT,2
METRIC
; #@! TA.AperFunction,NonPlated,NPTH,ComponentDrill
T1C0.900
; #@! TA.AperFunction,NonPlated,NPTH,ComponentDrill
T2C1.600
; #@! TA.AperFunction,NonPlated,NPTH,ComponentDrill
T3C1.900
; #@! TA.AperFunction,NonPlated,NPTH,ComponentDrill
T4C3.000
; #@! TA.AperFunction,NonPlated,NPTH,ComponentDrill
T5C3.200
; #@! TA.AperFunction,NonPlated,NPTH,ComponentDrill
T6C4.880
%
G90
G05
T1
X145.192Y-128.594
X145.192Y-128.594
X148.167Y-128.986
X148.167Y-128.986
T2
X83.508Y-86.984
X83.829Y-104.33
X84.447Y-58.759
X93.502Y-86.635
X93.823Y-103.981
X94.447Y-58.759
X102.746Y-65.714
X102.746Y-83.359
X102.746Y-100.359
X112.746Y-65.714
X112.746Y-83.359
X112.746Y-100.359
X121.046Y-63.559
X121.046Y-80.559
X121.046Y-97.559
X131.046Y-63.559
X131.046Y-80.559
X131.046Y-97.559
X139.824Y-99.128
X140.264Y-82.127
X140.705Y-65.127
X142.164Y-124.519
X149.81Y-99.651
X150.251Y-82.651
X150.691Y-65.65
X152.079Y-125.824
X157.739Y-105.118
X158.525Y-88.131
X159.654Y-60.852
X161.034Y-127.586
X167.725Y-105.641
X168.511Y-88.654
X169.64Y-61.376
X170.694Y-130.174
T3
X82.829Y-81.855
X83.15Y-99.2
X83.947Y-63.909
X93.822Y-81.471
X94.143Y-98.817
X94.947Y-63.909
X102.246Y-60.564
X102.246Y-78.209
X102.246Y-95.209
X113.246Y-60.564
X113.246Y-78.209
X113.246Y-95.209
X120.546Y-58.409
X120.546Y-75.409
X120.546Y-92.409
X131.546Y-58.409
X131.546Y-75.409
X131.546Y-92.409
X139.594Y-93.958
X140.035Y-76.958
X140.475Y-59.958
X142.341Y-119.347
X150.579Y-94.534
X151.019Y-77.534
X151.46Y-60.533
X153.247Y-120.783
X157.509Y-99.949
X158.295Y-82.962
X158.885Y-65.969
X161.884Y-122.482
X168.494Y-100.525
X169.28Y-83.537
X169.87Y-66.545
X172.51Y-125.329
T4
X83.196Y-78.039
X83.517Y-95.385
X84.447Y-67.709
X88.119Y-75.766
X88.441Y-93.112
X89.447Y-69.809
X93.19Y-77.69
X93.511Y-95.036
X94.447Y-67.709
X102.746Y-56.764
X102.746Y-74.409
X102.746Y-91.409
X107.746Y-54.664
X107.746Y-72.309
X107.746Y-89.309
X112.746Y-56.764
X112.746Y-74.409
X112.746Y-91.409
X121.046Y-54.609
X121.046Y-71.609
X121.046Y-88.609
X126.046Y-52.509
X126.046Y-69.509
X126.046Y-86.509
X131.046Y-54.609
X131.046Y-71.609
X131.046Y-88.609
X140.292Y-90.19
X140.733Y-73.19
X141.173Y-56.189
X143.333Y-115.645
X145.395Y-88.354
X145.836Y-71.354
X146.276Y-54.354
X148.564Y-114.216
X150.279Y-90.713
X150.719Y-73.713
X151.159Y-56.712
X153.247Y-116.95
X158.207Y-96.18
X158.993Y-79.193
X159.186Y-69.79
X163.31Y-94.345
X163.351Y-118.941
X164.069Y-72.149
X164.096Y-77.358
X168.193Y-96.704
X168.724Y-118.206
X168.98Y-79.716
X169.172Y-70.314
X173.01Y-121.529
T5
X96.961Y-53.469
X100.721Y-106.204
X157.21Y-55.348
X159.055Y-114.148
T6
X88.325Y-81.663
X88.647Y-99.008
X89.447Y-63.909
X107.746Y-60.564
X107.746Y-78.209
X107.746Y-95.209
X126.046Y-58.409
X126.046Y-75.409
X126.046Y-92.409
X145.087Y-94.246
X145.527Y-77.246
X145.967Y-60.246
X147.794Y-120.065
X163.001Y-100.237
X163.788Y-83.25
X164.378Y-66.257
X167.197Y-123.905
M30
