G04 #@! TF.GenerationSoftware,KiCad,Pcbnew,(6.0.6)*
G04 #@! TF.CreationDate,2022-07-19T13:35:42+08:00*
G04 #@! TF.ProjectId,Kretstr_d,4b726574-7374-472e-9464-2e6b69636164,rev?*
G04 #@! TF.SameCoordinates,Original*
G04 #@! TF.FileFunction,Legend,Bot*
G04 #@! TF.FilePolarity,Positive*
%FSLAX46Y46*%
G04 Gerber Fmt 4.6, Leading zero omitted, Abs format (unit mm)*
G04 Created by KiCad (PCBNEW (6.0.6)) date 2022-07-19 13:35:42*
%MOMM*%
%LPD*%
G01*
G04 APERTURE LIST*
G04 Aperture macros list*
%AMRoundRect*
0 Rectangle with rounded corners*
0 $1 Rounding radius*
0 $2 $3 $4 $5 $6 $7 $8 $9 X,Y pos of 4 corners*
0 Add a 4 corners polygon primitive as box body*
4,1,4,$2,$3,$4,$5,$6,$7,$8,$9,$2,$3,0*
0 Add four circle primitives for the rounded corners*
1,1,$1+$1,$2,$3*
1,1,$1+$1,$4,$5*
1,1,$1+$1,$6,$7*
1,1,$1+$1,$8,$9*
0 Add four rect primitives between the rounded corners*
20,1,$1+$1,$2,$3,$4,$5,0*
20,1,$1+$1,$4,$5,$6,$7,0*
20,1,$1+$1,$6,$7,$8,$9,0*
20,1,$1+$1,$8,$9,$2,$3,0*%
%AMFreePoly0*
4,1,41,0.586777,0.930194,0.656366,0.874698,0.694986,0.794504,0.700000,0.750000,0.700000,-0.750000,0.680194,-0.836777,0.624698,-0.906366,0.544504,-0.944986,0.500000,-0.950000,0.000000,-0.950000,-0.023504,-0.944635,-0.083606,-0.943534,-0.139582,-0.934468,-0.274897,-0.892193,-0.326080,-0.867780,-0.444090,-0.789225,-0.486362,-0.751429,-0.577582,-0.642910,-0.607548,-0.594768,-0.664643,-0.465009,
-0.679893,-0.410393,-0.697476,-0.275933,-0.697084,-0.275882,-0.700000,-0.250000,-0.700000,0.250000,-0.697921,0.259109,-0.697582,0.286880,-0.675771,0.426957,-0.659192,0.481183,-0.598944,0.609508,-0.567811,0.656904,-0.473967,0.763162,-0.430783,0.799915,-0.310888,0.875563,-0.259125,0.898717,-0.122818,0.937674,-0.066635,0.945370,-0.042411,0.945222,0.000000,0.950000,0.500000,0.950000,
0.586777,0.930194,0.586777,0.930194,$1*%
%AMFreePoly1*
4,1,41,0.022678,0.944824,0.075125,0.944504,0.131210,0.936123,0.267031,0.895504,0.318507,0.871718,0.437469,0.794611,0.480202,0.757333,0.572740,0.649936,0.603290,0.602165,0.661967,0.473113,0.677883,0.418686,0.697980,0.278353,0.700000,0.250000,0.700000,-0.250000,0.699985,-0.252439,0.699836,-0.264655,0.697079,-0.295398,0.673559,-0.435199,0.656318,-0.489221,0.594506,-0.616800,
0.562797,-0.663810,0.467662,-0.768914,0.424032,-0.805137,0.303222,-0.879314,0.251181,-0.901834,0.114408,-0.939123,0.058135,-0.946132,0.037663,-0.945757,0.000000,-0.950000,-0.500000,-0.950000,-0.586777,-0.930194,-0.656366,-0.874698,-0.694986,-0.794504,-0.700000,-0.750000,-0.700000,0.750000,-0.680194,0.836777,-0.624698,0.906366,-0.544504,0.944986,-0.500000,0.950000,0.000000,0.950000,
0.022678,0.944824,0.022678,0.944824,$1*%
%AMFreePoly2*
4,1,22,0.686777,0.580194,0.756366,0.524698,0.794986,0.444504,0.800000,0.400000,0.800000,0.200000,0.780194,0.113223,0.741421,0.058579,0.141421,-0.541421,0.066056,-0.588777,-0.022393,-0.598742,-0.106406,-0.569345,-0.141421,-0.541421,-0.741421,0.058579,-0.788777,0.133944,-0.800000,0.200000,-0.800000,0.400000,-0.780194,0.486777,-0.724698,0.556366,-0.644504,0.594986,-0.600000,0.600000,
0.600000,0.600000,0.686777,0.580194,0.686777,0.580194,$1*%
%AMFreePoly3*
4,1,26,0.706406,1.169345,0.769345,1.106406,0.798742,1.022393,0.800000,1.000000,0.800000,-0.250000,0.780194,-0.336777,0.724698,-0.406366,0.644504,-0.444986,0.600000,-0.450000,-0.600000,-0.450000,-0.686777,-0.430194,-0.756366,-0.374698,-0.794986,-0.294504,-0.800000,-0.250000,-0.800000,1.000000,-0.780194,1.086777,-0.724698,1.156366,-0.644504,1.194986,-0.555496,1.194986,-0.475302,1.156366,
-0.458579,1.141421,0.000000,0.682842,0.458579,1.141421,0.533944,1.188777,0.622393,1.198742,0.706406,1.169345,0.706406,1.169345,$1*%
%AMFreePoly4*
4,1,321,0.216903,1.226394,0.286492,1.170898,0.325112,1.090704,0.330126,1.046200,0.330126,0.053880,0.332333,0.034041,0.330446,-0.641486,0.333256,-0.817120,0.341853,-0.991009,0.354077,-1.119625,0.362644,-1.162576,0.397195,-1.217295,0.480044,-1.321263,0.585726,-1.436349,0.661975,-1.511306,0.745305,-1.581782,0.780352,-1.600629,0.816227,-1.606237,0.855709,-1.608367,0.916305,-1.621245,
1.018029,-1.660105,1.092024,-1.709574,1.121528,-1.749879,1.172534,-1.841779,1.197479,-1.930252,1.204078,-2.083860,1.203745,-2.106820,1.191281,-2.279776,1.165288,-2.364904,1.129225,-2.403994,1.173666,-2.405392,1.223573,-2.405255,1.373672,-2.401395,1.448172,-2.392643,1.465324,-2.386622,1.490349,-2.367250,1.499144,-2.360816,1.558427,-2.319886,1.616268,-2.292409,1.736039,-2.257617,
1.795103,-2.249705,1.918049,-2.251717,1.998400,-2.270011,2.089018,-2.311721,2.159564,-2.365996,2.168233,-2.377282,2.179017,-2.392405,2.207229,-2.449366,2.233861,-2.535376,2.241991,-2.576456,2.252651,-2.693916,2.253382,-2.717931,2.251655,-2.776071,2.247065,-2.813135,2.225093,-2.912935,2.195462,-2.975696,2.212494,-2.958198,2.289490,-2.904783,2.362073,-2.873447,2.477989,-2.848910,
2.531369,-2.844932,2.650838,-2.852090,2.724742,-2.871102,2.812396,-2.912770,2.882265,-2.967914,2.907895,-3.009099,2.941835,-3.082118,2.959271,-3.144555,2.971968,-3.260006,2.972232,-3.301190,2.960919,-3.417757,2.944419,-3.480107,2.909095,-3.559070,2.855580,-3.630194,2.824642,-3.651681,2.776780,-3.678625,2.716103,-3.700809,2.613675,-3.720326,2.575255,-3.723859,2.458923,-3.723286,
2.420925,-3.719452,2.321391,-3.699672,2.242209,-3.664868,2.226679,-3.653495,2.249568,-3.708190,2.262483,-3.753325,2.275714,-3.834758,2.276340,-3.894786,2.255370,-4.043353,2.251016,-4.059844,2.261336,-4.057503,2.405029,-4.053550,2.423479,-4.053894,2.607272,-4.065820,2.692585,-4.091203,2.758435,-4.151089,2.791780,-4.233615,2.793805,-4.251024,2.806269,-4.423981,2.806736,-4.433904,
2.808688,-4.521554,2.803411,-4.571859,2.775606,-4.689911,2.736433,-4.769835,2.707599,-4.798835,2.630832,-4.861660,2.551134,-4.901291,2.531391,-4.905022,2.396634,-4.923538,2.367519,-4.925391,2.352493,-4.925249,2.321484,-4.922534,2.294547,-4.918042,2.345556,-4.977430,2.387072,-5.056163,2.391784,-5.079151,2.411668,-5.216808,2.413676,-5.249681,2.412978,-5.282286,2.408266,-5.321372,
2.380906,-5.444549,2.342754,-5.524966,2.315925,-5.552945,2.240017,-5.618098,2.161269,-5.659587,2.137440,-5.664410,2.001028,-5.683476,1.971455,-5.685392,1.956951,-5.685255,1.923948,-5.682197,1.791737,-5.658772,1.709746,-5.624130,1.687090,-5.605118,1.615161,-5.535067,1.566814,-5.460335,1.557616,-5.425814,1.535881,-5.299923,1.533999,-5.280958,1.533091,-5.277311,1.533100,-5.278990,
1.537976,-5.407924,1.546049,-5.464506,1.546949,-5.466700,1.560605,-5.481756,1.576426,-5.501596,1.634693,-5.585018,1.668563,-5.670193,1.688071,-5.801698,1.682547,-5.885969,1.643425,-6.022953,1.596826,-6.105026,1.561415,-6.142690,1.486564,-6.192720,1.387509,-6.230250,1.326898,-6.242961,1.205437,-6.249194,1.151442,-6.244614,1.082920,-6.229255,1.081676,-6.301771,1.060958,-6.387044,
1.004589,-6.500955,0.948350,-6.569945,0.933901,-6.580220,0.857650,-6.629504,0.787543,-6.657803,0.665751,-6.681668,0.584915,-6.680859,0.473708,-6.656748,0.415474,-6.628223,0.394933,-6.665026,0.359522,-6.702690,0.284671,-6.752720,0.185616,-6.790250,0.125005,-6.802961,0.003544,-6.809194,-0.050452,-6.804614,-0.162271,-6.779549,-0.243814,-6.740285,-0.268267,-6.720632,-0.316275,-6.752720,
-0.415330,-6.790250,-0.475941,-6.802961,-0.597402,-6.809194,-0.651397,-6.804614,-0.763217,-6.779549,-0.844763,-6.740284,-0.914891,-6.683922,-0.970122,-6.614122,-0.978575,-6.593515,-1.013000,-6.494172,-1.023868,-6.420766,-1.018162,-6.276806,-0.992477,-6.186396,-0.925104,-6.067069,-0.903724,-6.036331,-0.891370,-6.021708,-0.890072,-6.018941,-0.882527,-5.981614,-0.875398,-5.887739,-0.871719,-5.731182,
-0.870818,-5.503325,-0.870817,-5.503105,-0.869927,-5.326988,-0.869827,-5.321581,-0.862543,-5.094702,-0.861499,-5.079727,-0.853873,-5.008842,-0.260881,-5.008842,-0.250757,-5.118082,-0.182665,-5.265028,-0.032771,-5.461496,0.009168,-5.510153,0.014500,-5.516608,0.119025,-5.648672,0.127203,-5.659770,0.205250,-5.773710,0.219630,-5.798292,0.256978,-5.874043,0.259707,-5.879806,0.280044,-5.924602,
0.283266,-5.919104,0.302558,-5.891727,0.305210,-5.888563,0.317208,-5.858522,0.310755,-5.815816,0.250423,-5.704381,0.110971,-5.530277,0.036442,-5.444592,0.027944,-5.434129,-0.099383,-5.266107,-0.111658,-5.246753,0.652054,-5.246753,0.732842,-5.349046,0.752387,-5.378939,0.849803,-5.561724,0.882643,-5.509562,0.905761,-5.479570,0.917107,-5.467427,0.924826,-5.420679,0.930496,-5.304719,
0.931638,-5.161960,0.885617,-5.192720,0.786563,-5.230250,0.725952,-5.242961,0.652054,-5.246753,-0.111658,-5.246753,-0.117198,-5.238019,-0.195936,-5.087503,-0.212368,-5.044802,-0.239091,-4.941314,-0.260881,-5.008842,-0.853873,-5.008842,-0.842699,-4.904973,-0.837775,-4.877464,-0.810044,-4.767493,1.929029,-4.767493,1.940400,-4.777363,1.980580,-4.800139,2.016790,-4.806378,2.048565,-4.809884,
2.049055,-4.809988,2.034161,-4.797214,2.013963,-4.774566,2.013402,-4.774390,1.934563,-4.767567,1.929029,-4.767493,-0.810044,-4.767493,-0.802541,-4.737737,-0.789993,-4.702371,-0.733407,-4.580574,-0.717030,-4.551821,-0.634173,-4.430855,-0.622986,-4.416047,-0.508940,-4.278815,-0.506152,-4.275532,-0.504541,-4.273676,-0.406101,-4.155775,-0.327937,-4.054618,-0.302888,-4.017163,-0.302099,-4.013563,
-0.294032,-3.925579,-0.286465,-3.770786,-0.280305,-3.552504,-0.275624,-3.268476,-0.272373,-2.915350,-0.271993,-2.829729,0.332030,-2.829729,0.339270,-2.984437,0.352077,-3.112267,0.360925,-3.154360,0.378419,-3.181798,0.458433,-3.279847,0.578495,-3.414759,0.722334,-3.568543,0.876663,-3.727342,1.028514,-3.877809,1.164669,-4.006494,1.268831,-4.097556,1.310593,-4.127531,1.364957,-4.143570,
1.451146,-4.154833,1.444522,-4.147382,1.401669,-4.069368,1.396370,-4.045227,1.377902,-3.926443,1.353356,-3.888439,1.272875,-3.790853,1.139773,-3.645237,0.953129,-3.451558,0.710039,-3.206706,0.332030,-2.829729,-0.271993,-2.829729,-0.270486,-2.489955,-0.269874,-1.987786,-0.269874,1.046200,-0.250068,1.132977,-0.194572,1.202566,-0.114378,1.241186,-0.069874,1.246200,0.130126,1.246200,
0.216903,1.226394,0.216903,1.226394,$1*%
%AMFreePoly5*
4,1,284,0.206777,1.229994,0.276366,1.174498,0.314986,1.094304,0.320000,1.049800,0.320000,0.008200,0.319495,0.005987,0.319495,-1.866709,0.319486,-1.942235,0.319486,-1.942460,0.318928,-2.390763,0.318926,-2.391335,0.317383,-2.767014,0.317377,-2.767939,0.314675,-3.077389,0.314657,-3.078876,0.310622,-3.328489,0.310568,-3.330901,0.305029,-3.527071,0.304875,-3.531095,0.297657,-3.680215,
0.297195,-3.687212,0.288125,-3.795676,0.286622,-3.808584,0.275528,-3.882784,0.269972,-3.908365,0.256680,-3.954695,0.246330,-3.982691,0.240139,-3.996234,0.229057,-4.017117,0.167561,-4.118087,0.157692,-4.132784,0.062026,-4.262462,0.054482,-4.272060,-0.057455,-4.405866,-0.061018,-4.410009,-0.070961,-4.421255,-0.171727,-4.547476,-0.239381,-4.651469,-0.261423,-4.702807,-0.268448,-4.790209,
-0.275186,-4.947663,-0.279770,-5.144580,-0.281451,-5.361537,-0.281447,-5.385011,-0.280528,-5.604860,-0.277008,-5.754080,-0.270393,-5.838888,-0.268291,-5.848462,-0.224488,-5.894056,-0.171049,-5.977321,-0.142171,-6.051967,-0.122143,-6.170287,-0.120852,-6.228231,-0.135594,-6.347346,-0.162124,-6.424914,-0.212996,-6.510565,-0.274338,-6.575059,-0.308050,-6.593056,-0.393200,-6.628524,-0.459529,-6.643620,
-0.582275,-6.650118,-0.631318,-6.646663,-0.750780,-6.623247,-0.819367,-6.595916,-0.898997,-6.545453,-0.952252,-6.496101,-0.953444,-6.494503,-0.980620,-6.444550,-1.025271,-6.324319,-1.037078,-6.237909,-1.034554,-6.207929,-1.095319,-6.245365,-1.119612,-6.251953,-1.263243,-6.281341,-1.334401,-6.282972,-1.441733,-6.266095,-1.524379,-6.233050,-1.535526,-6.224760,-1.625648,-6.152737,-1.674999,-6.094737,
-1.708800,-6.034795,-1.731134,-5.973572,-1.756230,-5.840310,-1.751357,-5.746183,-1.721748,-5.646814,-1.786435,-5.670245,-1.797570,-5.671308,-1.925994,-5.679949,-2.017213,-5.664651,-2.152853,-5.607383,-2.223422,-5.557256,-2.286363,-5.487634,-2.329864,-5.409980,-2.331418,-5.403739,-1.483158,-5.403739,-1.355185,-5.371470,-1.321520,-5.365981,-1.296753,-5.364089,-1.271926,-5.355039,-1.217782,-5.314195,
-1.113600,-5.210504,-0.992406,-5.073003,-0.922095,-4.967193,-0.891919,-4.883182,-0.881172,-4.765871,-0.875626,-4.680694,-0.868608,-4.639640,-0.821297,-4.471082,-0.802138,-4.425469,-0.700510,-4.248647,-0.682044,-4.221835,-0.562810,-4.075770,-0.603069,-4.078811,-0.695126,-4.063965,-0.829973,-4.007718,-0.882942,-3.970059,-0.884544,-4.105830,-0.885000,-4.117175,-0.898888,-4.319380,-0.902711,-4.346893,
-0.935986,-4.504891,-0.949035,-4.545136,-1.009063,-4.679733,-1.028893,-4.714405,-1.123042,-4.846409,-1.137428,-4.864308,-1.273065,-5.014526,-1.276513,-5.018249,-1.287870,-5.030203,-1.395730,-5.154077,-1.436036,-5.218316,-1.445698,-5.259361,-1.451178,-5.311568,-1.471682,-5.381092,-1.483158,-5.403739,-2.331418,-5.403739,-2.333940,-5.393612,-2.360039,-5.266091,-2.360039,-5.185886,-2.330712,-5.042597,
-2.293908,-4.961554,-2.277054,-4.942143,-2.201589,-4.865752,-2.261402,-4.879975,-2.348652,-4.881156,-2.489497,-4.851669,-2.570374,-4.814501,-2.590504,-4.796763,-2.603049,-4.784116,-2.016632,-4.784116,-1.947691,-4.769658,-1.921784,-4.765974,-1.897997,-4.764168,-1.873069,-4.755114,-1.818842,-4.714263,-1.712136,-4.608103,-1.710532,-4.606403,-1.610735,-4.492472,-1.536348,-4.394540,-1.509620,-4.348678,
-1.496775,-4.253933,-1.486630,-4.104764,-1.484943,-4.030087,-1.521729,-4.066662,-1.663873,-4.210426,-1.771561,-4.327147,-1.827486,-4.398953,-1.841739,-4.426218,-1.846868,-4.455718,-1.849044,-4.466476,-1.880833,-4.604089,-1.919662,-4.684181,-1.933210,-4.699418,-2.016632,-4.784116,-2.603049,-4.784116,-2.677271,-4.709294,-2.724322,-4.633739,-2.731172,-4.608776,-2.760623,-4.465732,-2.760769,-4.385781,
-2.732270,-4.244767,-2.695666,-4.163633,-2.680108,-4.145462,-2.594432,-4.056733,-2.519907,-4.008065,-2.492843,-4.000178,-2.352971,-3.969921,-2.326052,-3.966766,-2.302642,-3.962427,-2.276550,-3.949146,-2.210815,-3.898611,-2.101881,-3.798679,-1.944546,-3.643570,-1.907850,-3.606778,-1.998585,-3.608266,-2.086362,-3.615506,-2.113472,-3.640814,-2.195993,-3.687200,-2.285285,-3.712217,-2.328694,-3.719355,
-2.443408,-3.725413,-2.478949,-3.724123,-2.588384,-3.710339,-2.648428,-3.692928,-2.721883,-3.658421,-2.794591,-3.600348,-2.808469,-3.582542,-2.842246,-3.517205,-2.871896,-3.418636,-2.880342,-3.357508,-2.878149,-3.232815,-2.869435,-3.177839,-2.834704,-3.064278,-2.812088,-3.015249,-2.804020,-3.002595,-2.744226,-2.942329,-2.663376,-2.889881,-2.579901,-2.859285,-2.464107,-2.844477,-2.401736,-2.846314,
-2.281469,-2.868955,-2.211215,-2.896693,-2.116941,-2.956591,-2.095419,-2.974395,-2.075455,-2.989291,-2.056639,-2.994995,-2.046633,-2.995905,-2.070904,-2.959695,-2.108494,-2.860796,-2.121279,-2.800020,-2.127521,-2.678750,-2.122913,-2.624593,-2.097809,-2.512950,-2.058380,-2.431296,-2.001929,-2.361278,-1.932045,-2.306154,-1.911531,-2.297769,-1.812031,-2.263398,-1.738834,-2.252593,-1.594647,-2.258290,
-1.504448,-2.283843,-1.384933,-2.351109,-1.358738,-2.368710,-1.337152,-2.385832,-1.317487,-2.393167,-1.240752,-2.402224,-1.085473,-2.405351,-1.078233,-2.405171,-1.107077,-2.378573,-1.139850,-2.295818,-1.141775,-2.278081,-1.154236,-2.081951,-1.154606,-2.072859,-1.156502,-1.967207,-1.150610,-1.915302,-1.126324,-1.817749,-1.086141,-1.738328,-1.046755,-1.702089,-0.979056,-1.654814,-0.896569,-1.621370,
-0.885058,-1.619844,-0.761116,-1.607067,-0.757791,-1.606753,-0.746558,-1.605784,-0.717431,-1.594755,-0.653274,-1.547006,-0.535915,-1.433821,-0.518656,-1.415993,-0.412859,-1.301079,-0.333107,-1.206107,-0.309940,-1.172922,-0.306469,-1.159606,-0.293711,-1.047354,-0.284313,-0.875423,-0.280824,-0.666620,-0.282712,0.034061,-0.280000,0.046093,-0.280000,1.049800,-0.260194,1.136577,-0.204698,1.206166,
-0.124504,1.244786,-0.080000,1.249800,0.120000,1.249800,0.206777,1.229994,0.206777,1.229994,$1*%
%AMFreePoly6*
4,1,27,0.076538,0.248275,0.121439,0.229676,0.194030,0.178169,0.229676,0.121439,0.248275,0.076538,0.263185,-0.011213,0.248275,-0.076538,0.229676,-0.121439,0.178169,-0.194030,0.121439,-0.229676,0.076538,-0.248275,0.000000,-0.263500,-2.184400,-0.263500,-2.260938,-0.248275,-2.305839,-0.229676,-2.378430,-0.178169,-2.414076,-0.121439,-2.432675,-0.076538,-2.447585,0.011213,-2.432675,0.076538,
-2.414076,0.121439,-2.362569,0.194030,-2.305839,0.229676,-2.260938,0.248275,-2.184400,0.263500,0.000000,0.263500,0.076538,0.248275,0.076538,0.248275,$1*%
%AMFreePoly7*
4,1,27,0.648038,0.248275,0.692939,0.229676,0.765530,0.178169,0.801176,0.121439,0.819775,0.076538,0.834685,-0.011213,0.819775,-0.076538,0.801176,-0.121439,0.749669,-0.194030,0.692939,-0.229676,0.648038,-0.248275,0.571500,-0.263500,-0.571500,-0.263500,-0.648038,-0.248275,-0.692939,-0.229676,-0.765530,-0.178169,-0.801176,-0.121439,-0.819775,-0.076538,-0.834685,0.011213,-0.819775,0.076538,
-0.801176,0.121439,-0.749669,0.194030,-0.692939,0.229676,-0.648038,0.248275,-0.571500,0.263500,0.571500,0.263500,0.648038,0.248275,0.648038,0.248275,$1*%
%AMFreePoly8*
4,1,27,0.248941,0.248275,0.293842,0.229676,0.366433,0.178169,0.402079,0.121439,0.420678,0.076538,0.435588,-0.011213,0.420678,-0.076538,0.402079,-0.121439,0.350572,-0.194030,0.293842,-0.229676,0.248941,-0.248275,0.172403,-0.263500,-0.183197,-0.263500,-0.259735,-0.248275,-0.304636,-0.229676,-0.377227,-0.178169,-0.412873,-0.121439,-0.431472,-0.076538,-0.446382,0.011213,-0.431472,0.076538,
-0.412873,0.121439,-0.361366,0.194030,-0.304636,0.229676,-0.259735,0.248275,-0.183197,0.263500,0.172403,0.263500,0.248941,0.248275,0.248941,0.248275,$1*%
G04 Aperture macros list end*
%ADD10C,0.150000*%
%ADD11C,0.200000*%
%ADD12C,0.120000*%
%ADD13C,0.178000*%
%ADD14C,0.100000*%
%ADD15C,2.101800*%
%ADD16C,3.400000*%
%ADD17C,3.829000*%
%ADD18RoundRect,0.200000X-1.592168X-0.919239X0.919239X-1.592168X1.592168X0.919239X-0.919239X1.592168X0*%
%ADD19RoundRect,0.400000X0.200000X0.450000X-0.200000X0.450000X-0.200000X-0.450000X0.200000X-0.450000X0*%
%ADD20O,1.200000X1.700000*%
%ADD21RoundRect,0.200000X1.300000X1.300000X-1.300000X1.300000X-1.300000X-1.300000X1.300000X-1.300000X0*%
%ADD22RoundRect,0.200000X0.700000X-0.600000X0.700000X0.600000X-0.700000X0.600000X-0.700000X-0.600000X0*%
%ADD23C,3.600000*%
%ADD24FreePoly0,90.000000*%
%ADD25FreePoly1,90.000000*%
%ADD26RoundRect,0.200000X-0.700000X0.600000X-0.700000X-0.600000X0.700000X-0.600000X0.700000X0.600000X0*%
%ADD27RoundRect,0.200000X2.540000X-0.768600X2.540000X0.768600X-2.540000X0.768600X-2.540000X-0.768600X0*%
%ADD28C,16.400000*%
%ADD29RoundRect,0.200000X-1.775833X-0.475833X0.475833X-1.775833X1.775833X0.475833X-0.475833X1.775833X0*%
%ADD30C,2.000000*%
%ADD31FreePoly2,90.000000*%
%ADD32FreePoly2,270.000000*%
%ADD33FreePoly3,270.000000*%
%ADD34FreePoly3,90.000000*%
%ADD35RoundRect,0.200000X-0.850000X0.850000X-0.850000X-0.850000X0.850000X-0.850000X0.850000X0.850000X0*%
%ADD36O,2.100000X2.100000*%
%ADD37C,4.800000*%
%ADD38C,1.300000*%
%ADD39RoundRect,0.200000X-0.096410X0.633013X-0.596410X-0.233013X0.096410X-0.633013X0.596410X0.233013X0*%
%ADD40RoundRect,0.200000X-0.474519X0.678109X-0.824519X0.071891X0.474519X-0.678109X0.824519X-0.071891X0*%
%ADD41FreePoly4,180.000000*%
%ADD42FreePoly5,180.000000*%
%ADD43FreePoly6,180.000000*%
%ADD44FreePoly7,180.000000*%
%ADD45FreePoly8,180.000000*%
%ADD46RoundRect,0.400000X-0.773173X-0.068577X-0.636365X-0.444454X0.773173X0.068577X0.636365X0.444454X0*%
%ADD47RoundRect,0.450000X-1.475870X-0.111502X-1.202254X-0.863256X1.475870X0.111502X1.202254X0.863256X0*%
G04 APERTURE END LIST*
D10*
X125462855Y-121348052D02*
X125721674Y-120382126D01*
X124910897Y-121200155D02*
X125472762Y-120759120D01*
X125169716Y-120234229D02*
X125573777Y-120934083D01*
X124496929Y-121089232D02*
X124669475Y-120445282D01*
X124620176Y-120629268D02*
X124598829Y-120524950D01*
X124565157Y-120466629D01*
X124485489Y-120395983D01*
X124393496Y-120371334D01*
X123543328Y-120784417D02*
X123622996Y-120855063D01*
X123806982Y-120904362D01*
X123911299Y-120883015D01*
X123981945Y-120803346D01*
X124080543Y-120435375D01*
X124059196Y-120331057D01*
X123979528Y-120260411D01*
X123795542Y-120211112D01*
X123691224Y-120232459D01*
X123620578Y-120312128D01*
X123595929Y-120404120D01*
X124031244Y-120619361D01*
X123381574Y-120100190D02*
X123013602Y-120001592D01*
X123329857Y-119741240D02*
X123108012Y-120569177D01*
X123037367Y-120648845D01*
X122933049Y-120670192D01*
X122841056Y-120645543D01*
X122577402Y-120525598D02*
X122473084Y-120546945D01*
X122289098Y-120497646D01*
X122209430Y-120427000D01*
X122188083Y-120322683D01*
X122200408Y-120276686D01*
X122271054Y-120197018D01*
X122375371Y-120175671D01*
X122513361Y-120212645D01*
X122617678Y-120191298D01*
X122688324Y-120111630D01*
X122700649Y-120065633D01*
X122679302Y-119961316D01*
X122599634Y-119890670D01*
X122461644Y-119853696D01*
X122357327Y-119875043D01*
X122047676Y-119742773D02*
X121679704Y-119644175D01*
X121995960Y-119383824D02*
X121774115Y-120211760D01*
X121703469Y-120291428D01*
X121599151Y-120312775D01*
X121507158Y-120288126D01*
X121185183Y-120201853D02*
X121357729Y-119557902D01*
X121308430Y-119741888D02*
X121287083Y-119637571D01*
X121253411Y-119579249D01*
X121173743Y-119508603D01*
X121081750Y-119483954D01*
X120173261Y-119930709D02*
X120308833Y-119424748D01*
X120379479Y-119345080D01*
X120483796Y-119323733D01*
X120667782Y-119373032D01*
X120747450Y-119443677D01*
X120185585Y-119884713D02*
X120265254Y-119955359D01*
X120495236Y-120016982D01*
X120599554Y-119995635D01*
X120670200Y-119915967D01*
X120694849Y-119823974D01*
X120673502Y-119719656D01*
X120593834Y-119649010D01*
X120363851Y-119587387D01*
X120284183Y-119516741D01*
X120846048Y-119075706D02*
X120787727Y-119109377D01*
X120821399Y-119167699D01*
X120879720Y-119134027D01*
X120846048Y-119075706D01*
X120821399Y-119167699D01*
X120478076Y-118977108D02*
X120419755Y-119010780D01*
X120453427Y-119069101D01*
X120511748Y-119035429D01*
X120478076Y-118977108D01*
X120453427Y-119069101D01*
X119299328Y-119696540D02*
X119558147Y-118730614D01*
X119311653Y-119650543D02*
X119391321Y-119721189D01*
X119575307Y-119770488D01*
X119679624Y-119749141D01*
X119737946Y-119715469D01*
X119808591Y-119635801D01*
X119882540Y-119359822D01*
X119861193Y-119255504D01*
X119827521Y-119197183D01*
X119747853Y-119126537D01*
X119563867Y-119077238D01*
X119459549Y-119098585D01*
X125046156Y-122903193D02*
X125304975Y-121937267D01*
X124937003Y-121838669D01*
X124832685Y-121860016D01*
X124774364Y-121893688D01*
X124703718Y-121973356D01*
X124666744Y-122111345D01*
X124688091Y-122215663D01*
X124721763Y-122273984D01*
X124801431Y-122344630D01*
X125169403Y-122443228D01*
X123552922Y-122404484D02*
X123586593Y-122462805D01*
X123712258Y-122545776D01*
X123804251Y-122570425D01*
X123954565Y-122561403D01*
X124071207Y-122494059D01*
X124141853Y-122414391D01*
X124237149Y-122242730D01*
X124274123Y-122104741D01*
X124277425Y-121908430D01*
X124256078Y-121804112D01*
X124188735Y-121687470D01*
X124063070Y-121604499D01*
X123971077Y-121579850D01*
X123820763Y-121588872D01*
X123762442Y-121622544D01*
X122927901Y-121793320D02*
X122777586Y-121802343D01*
X122719265Y-121836014D01*
X122648619Y-121915683D01*
X122611645Y-122053672D01*
X122632992Y-122157990D01*
X122666664Y-122216311D01*
X122746332Y-122286957D01*
X123114304Y-122385554D01*
X123373123Y-121419629D01*
X123051148Y-121333356D01*
X122946830Y-121354703D01*
X122888509Y-121388374D01*
X122817863Y-121468043D01*
X122793214Y-121560036D01*
X122814561Y-121664353D01*
X122848232Y-121722674D01*
X122927901Y-121793320D01*
X123249876Y-121879593D01*
X120998466Y-121818617D02*
X121257285Y-120852692D01*
X121010791Y-121772621D02*
X121090459Y-121843267D01*
X121274445Y-121892566D01*
X121378763Y-121871219D01*
X121437084Y-121837547D01*
X121507730Y-121757879D01*
X121581678Y-121481900D01*
X121560331Y-121377582D01*
X121526659Y-121319261D01*
X121446991Y-121248615D01*
X121263005Y-121199316D01*
X121158688Y-121220663D01*
X120182855Y-121550776D02*
X120262523Y-121621422D01*
X120446509Y-121670721D01*
X120550826Y-121649374D01*
X120621472Y-121569706D01*
X120720070Y-121201734D01*
X120698723Y-121097416D01*
X120619055Y-121026770D01*
X120435069Y-120977471D01*
X120330751Y-120998818D01*
X120260105Y-121078487D01*
X120235456Y-121170480D01*
X120670771Y-121385720D01*
X119768886Y-121439854D02*
X119664569Y-121461201D01*
X119480583Y-121411902D01*
X119400915Y-121341256D01*
X119379568Y-121236938D01*
X119391892Y-121190942D01*
X119462538Y-121111274D01*
X119566856Y-121089927D01*
X119704845Y-121126901D01*
X119809163Y-121105554D01*
X119879809Y-121025885D01*
X119892134Y-120979889D01*
X119870787Y-120875571D01*
X119791118Y-120804925D01*
X119653129Y-120767951D01*
X119548811Y-120789298D01*
X118928625Y-121264005D02*
X119101171Y-120620055D01*
X119187444Y-120298079D02*
X119221116Y-120356401D01*
X119162795Y-120390072D01*
X119129123Y-120331751D01*
X119187444Y-120298079D01*
X119162795Y-120390072D01*
X118227238Y-120385885D02*
X118017718Y-121167825D01*
X118039065Y-121272143D01*
X118072737Y-121330464D01*
X118152405Y-121401110D01*
X118290395Y-121438084D01*
X118394712Y-121416737D01*
X118067017Y-120983839D02*
X118146685Y-121054485D01*
X118330671Y-121103784D01*
X118434989Y-121082437D01*
X118493310Y-121048765D01*
X118563956Y-120969097D01*
X118637904Y-120693118D01*
X118616557Y-120588800D01*
X118582886Y-120530479D01*
X118503217Y-120459833D01*
X118319231Y-120410534D01*
X118214914Y-120431882D01*
X117767274Y-120262638D02*
X117594728Y-120906588D01*
X117742624Y-120354631D02*
X117708953Y-120296310D01*
X117629284Y-120225664D01*
X117491295Y-120188690D01*
X117386977Y-120210037D01*
X117316331Y-120289705D01*
X117180760Y-120795666D01*
X116365148Y-120527825D02*
X116444816Y-120598471D01*
X116628802Y-120647769D01*
X116733120Y-120626422D01*
X116803766Y-120546754D01*
X116902363Y-120178782D01*
X116881016Y-120074465D01*
X116801348Y-120003819D01*
X116617362Y-119954520D01*
X116513044Y-119975867D01*
X116442399Y-120055535D01*
X116417749Y-120147528D01*
X116853064Y-120362768D01*
X115478890Y-120339651D02*
X115737709Y-119373726D01*
X115491215Y-120293655D02*
X115570883Y-120364301D01*
X115754869Y-120413600D01*
X115859187Y-120392253D01*
X115917508Y-120358581D01*
X115988154Y-120278913D01*
X116062102Y-120002934D01*
X116040755Y-119898616D01*
X116007083Y-119840295D01*
X115927415Y-119769649D01*
X115743429Y-119720350D01*
X115639112Y-119741697D01*
X114282982Y-120019209D02*
X114541801Y-119053283D01*
X114443203Y-119421255D02*
X114363535Y-119350609D01*
X114179549Y-119301310D01*
X114075232Y-119322657D01*
X114016910Y-119356329D01*
X113946265Y-119435997D01*
X113872316Y-119711976D01*
X113893663Y-119816293D01*
X113927335Y-119874615D01*
X114007003Y-119945261D01*
X114190989Y-119994559D01*
X114295307Y-119973212D01*
X113673588Y-119165738D02*
X113271060Y-119748065D01*
X113213623Y-119042491D02*
X113271060Y-119748065D01*
X113301429Y-120002697D01*
X113335101Y-120061018D01*
X113414769Y-120131664D01*
X112109708Y-118746698D02*
X111887863Y-119574634D01*
X111909210Y-119678952D01*
X111988879Y-119749598D01*
X112034875Y-119761922D01*
X112195981Y-118424722D02*
X112229653Y-118483044D01*
X112171332Y-118516715D01*
X112137660Y-118458394D01*
X112195981Y-118424722D01*
X112171332Y-118516715D01*
X111741737Y-118648100D02*
X111385205Y-119242752D01*
X111324466Y-118733488D01*
X111017233Y-119144154D01*
X111005793Y-118450905D01*
X165274336Y-117298144D02*
X165731479Y-117298144D01*
X179472441Y-95271620D02*
X178710536Y-95271620D01*
X185619241Y-95271620D02*
X184857336Y-95271620D01*
X185238289Y-94890668D02*
X185238289Y-95652572D01*
X164131336Y-113742144D02*
X164588479Y-113742144D01*
X164359907Y-113513573D02*
X164359907Y-113970716D01*
X170547879Y-71142296D02*
X170547879Y-70342296D01*
X170357403Y-70342296D01*
X170243117Y-70380392D01*
X170166926Y-70456582D01*
X170128831Y-70532772D01*
X170090736Y-70685153D01*
X170090736Y-70799439D01*
X170128831Y-70951820D01*
X170166926Y-71028011D01*
X170243117Y-71104201D01*
X170357403Y-71142296D01*
X170547879Y-71142296D01*
X169366926Y-70342296D02*
X169747879Y-70342296D01*
X169785974Y-70723249D01*
X169747879Y-70685153D01*
X169671688Y-70647058D01*
X169481212Y-70647058D01*
X169405022Y-70685153D01*
X169366926Y-70723249D01*
X169328831Y-70799439D01*
X169328831Y-70989915D01*
X169366926Y-71066106D01*
X169405022Y-71104201D01*
X169481212Y-71142296D01*
X169671688Y-71142296D01*
X169747879Y-71104201D01*
X169785974Y-71066106D01*
X116344218Y-86744297D02*
X116344218Y-85944297D01*
X116153742Y-85944297D01*
X116039456Y-85982393D01*
X115963265Y-86058583D01*
X115925170Y-86134773D01*
X115887075Y-86287154D01*
X115887075Y-86401440D01*
X115925170Y-86553821D01*
X115963265Y-86630012D01*
X116039456Y-86706202D01*
X116153742Y-86744297D01*
X116344218Y-86744297D01*
X115620408Y-85944297D02*
X115087075Y-85944297D01*
X115429932Y-86744297D01*
X98640370Y-106350097D02*
X98640370Y-105550097D01*
X98449894Y-105550097D01*
X98335608Y-105588193D01*
X98259418Y-105664383D01*
X98221322Y-105740573D01*
X98183227Y-105892954D01*
X98183227Y-106007240D01*
X98221322Y-106159621D01*
X98259418Y-106235812D01*
X98335608Y-106312002D01*
X98449894Y-106350097D01*
X98640370Y-106350097D01*
X97421322Y-106350097D02*
X97878465Y-106350097D01*
X97649894Y-106350097D02*
X97649894Y-105550097D01*
X97726084Y-105664383D01*
X97802275Y-105740573D01*
X97878465Y-105778669D01*
X96659418Y-106350097D02*
X97116561Y-106350097D01*
X96887989Y-106350097D02*
X96887989Y-105550097D01*
X96964180Y-105664383D01*
X97040370Y-105740573D01*
X97116561Y-105778669D01*
X98259418Y-89335097D02*
X98259418Y-88535097D01*
X98068942Y-88535097D01*
X97954656Y-88573193D01*
X97878465Y-88649383D01*
X97840370Y-88725573D01*
X97802275Y-88877954D01*
X97802275Y-88992240D01*
X97840370Y-89144621D01*
X97878465Y-89220812D01*
X97954656Y-89297002D01*
X98068942Y-89335097D01*
X98259418Y-89335097D01*
X97116561Y-88535097D02*
X97268942Y-88535097D01*
X97345132Y-88573193D01*
X97383227Y-88611288D01*
X97459418Y-88725573D01*
X97497513Y-88877954D01*
X97497513Y-89182716D01*
X97459418Y-89258907D01*
X97421322Y-89297002D01*
X97345132Y-89335097D01*
X97192751Y-89335097D01*
X97116561Y-89297002D01*
X97078465Y-89258907D01*
X97040370Y-89182716D01*
X97040370Y-88992240D01*
X97078465Y-88916050D01*
X97116561Y-88877954D01*
X97192751Y-88839859D01*
X97345132Y-88839859D01*
X97421322Y-88877954D01*
X97459418Y-88916050D01*
X97497513Y-88992240D01*
X164974451Y-110578963D02*
X164174451Y-110578963D01*
X164174451Y-110769439D01*
X164212547Y-110883725D01*
X164288737Y-110959915D01*
X164364927Y-110998011D01*
X164517308Y-111036106D01*
X164631594Y-111036106D01*
X164783975Y-110998011D01*
X164860166Y-110959915D01*
X164936356Y-110883725D01*
X164974451Y-110769439D01*
X164974451Y-110578963D01*
X164974451Y-111798011D02*
X164974451Y-111340868D01*
X164974451Y-111569439D02*
X164174451Y-111569439D01*
X164288737Y-111493249D01*
X164364927Y-111417058D01*
X164403023Y-111340868D01*
X164174451Y-112064677D02*
X164174451Y-112598011D01*
X164974451Y-112255153D01*
X158297051Y-110578963D02*
X157497051Y-110578963D01*
X157497051Y-110769439D01*
X157535147Y-110883725D01*
X157611337Y-110959915D01*
X157687527Y-110998011D01*
X157839908Y-111036106D01*
X157954194Y-111036106D01*
X158106575Y-110998011D01*
X158182766Y-110959915D01*
X158258956Y-110883725D01*
X158297051Y-110769439D01*
X158297051Y-110578963D01*
X158297051Y-111798011D02*
X158297051Y-111340868D01*
X158297051Y-111569439D02*
X157497051Y-111569439D01*
X157611337Y-111493249D01*
X157687527Y-111417058D01*
X157725623Y-111340868D01*
X157497051Y-112483725D02*
X157497051Y-112331344D01*
X157535147Y-112255153D01*
X157573242Y-112217058D01*
X157687527Y-112140868D01*
X157839908Y-112102772D01*
X158144670Y-112102772D01*
X158220861Y-112140868D01*
X158258956Y-112178963D01*
X158297051Y-112255153D01*
X158297051Y-112407534D01*
X158258956Y-112483725D01*
X158220861Y-112521820D01*
X158144670Y-112559915D01*
X157954194Y-112559915D01*
X157878004Y-112521820D01*
X157839908Y-112483725D01*
X157801813Y-112407534D01*
X157801813Y-112255153D01*
X157839908Y-112178963D01*
X157878004Y-112140868D01*
X157954194Y-112102772D01*
X134429018Y-68101795D02*
X134429018Y-67301795D01*
X134238542Y-67301795D01*
X134124256Y-67339891D01*
X134048065Y-67416081D01*
X134009970Y-67492271D01*
X133971875Y-67644652D01*
X133971875Y-67758938D01*
X134009970Y-67911319D01*
X134048065Y-67987510D01*
X134124256Y-68063700D01*
X134238542Y-68101795D01*
X134429018Y-68101795D01*
X133705208Y-67301795D02*
X133209970Y-67301795D01*
X133476637Y-67606557D01*
X133362351Y-67606557D01*
X133286161Y-67644652D01*
X133248065Y-67682748D01*
X133209970Y-67758938D01*
X133209970Y-67949414D01*
X133248065Y-68025605D01*
X133286161Y-68063700D01*
X133362351Y-68101795D01*
X133590922Y-68101795D01*
X133667113Y-68063700D01*
X133705208Y-68025605D01*
X152463018Y-70371896D02*
X152463018Y-69571896D01*
X152272542Y-69571896D01*
X152158256Y-69609992D01*
X152082065Y-69686182D01*
X152043970Y-69762372D01*
X152005875Y-69914753D01*
X152005875Y-70029039D01*
X152043970Y-70181420D01*
X152082065Y-70257611D01*
X152158256Y-70333801D01*
X152272542Y-70371896D01*
X152463018Y-70371896D01*
X151320161Y-69838563D02*
X151320161Y-70371896D01*
X151510637Y-69533801D02*
X151701113Y-70105230D01*
X151205875Y-70105230D01*
X98259418Y-72252396D02*
X98259418Y-71452396D01*
X98068942Y-71452396D01*
X97954656Y-71490492D01*
X97878465Y-71566682D01*
X97840370Y-71642872D01*
X97802275Y-71795253D01*
X97802275Y-71909539D01*
X97840370Y-72061920D01*
X97878465Y-72138111D01*
X97954656Y-72214301D01*
X98068942Y-72252396D01*
X98259418Y-72252396D01*
X97040370Y-72252396D02*
X97497513Y-72252396D01*
X97268942Y-72252396D02*
X97268942Y-71452396D01*
X97345132Y-71566682D01*
X97421322Y-71642872D01*
X97497513Y-71680968D01*
X182906194Y-71147295D02*
X182906194Y-71956819D01*
X182858575Y-72052057D01*
X182810956Y-72099676D01*
X182715718Y-72147295D01*
X182525242Y-72147295D01*
X182430004Y-72099676D01*
X182382385Y-72052057D01*
X182334766Y-71956819D01*
X182334766Y-71147295D01*
X181334766Y-72147295D02*
X181906194Y-72147295D01*
X181620480Y-72147295D02*
X181620480Y-71147295D01*
X181715718Y-71290153D01*
X181810956Y-71385391D01*
X181906194Y-71433010D01*
X170945170Y-88163468D02*
X170945170Y-87363468D01*
X170754694Y-87363468D01*
X170640408Y-87401564D01*
X170564218Y-87477754D01*
X170526122Y-87553944D01*
X170488027Y-87706325D01*
X170488027Y-87820611D01*
X170526122Y-87972992D01*
X170564218Y-88049183D01*
X170640408Y-88125373D01*
X170754694Y-88163468D01*
X170945170Y-88163468D01*
X169726122Y-88163468D02*
X170183265Y-88163468D01*
X169954694Y-88163468D02*
X169954694Y-87363468D01*
X170030884Y-87477754D01*
X170107075Y-87553944D01*
X170183265Y-87592040D01*
X169230884Y-87363468D02*
X169154694Y-87363468D01*
X169078503Y-87401564D01*
X169040408Y-87439659D01*
X169002313Y-87515849D01*
X168964218Y-87668230D01*
X168964218Y-87858706D01*
X169002313Y-88011087D01*
X169040408Y-88087278D01*
X169078503Y-88125373D01*
X169154694Y-88163468D01*
X169230884Y-88163468D01*
X169307075Y-88125373D01*
X169345170Y-88087278D01*
X169383265Y-88011087D01*
X169421361Y-87858706D01*
X169421361Y-87668230D01*
X169383265Y-87515849D01*
X169345170Y-87439659D01*
X169307075Y-87401564D01*
X169230884Y-87363468D01*
X170877970Y-105014996D02*
X170877970Y-104214996D01*
X170687494Y-104214996D01*
X170573208Y-104253092D01*
X170497018Y-104329282D01*
X170458922Y-104405472D01*
X170420827Y-104557853D01*
X170420827Y-104672139D01*
X170458922Y-104824520D01*
X170497018Y-104900711D01*
X170573208Y-104976901D01*
X170687494Y-105014996D01*
X170877970Y-105014996D01*
X169658922Y-105014996D02*
X170116065Y-105014996D01*
X169887494Y-105014996D02*
X169887494Y-104214996D01*
X169963684Y-104329282D01*
X170039875Y-104405472D01*
X170116065Y-104443568D01*
X168935113Y-104214996D02*
X169316065Y-104214996D01*
X169354161Y-104595949D01*
X169316065Y-104557853D01*
X169239875Y-104519758D01*
X169049399Y-104519758D01*
X168973208Y-104557853D01*
X168935113Y-104595949D01*
X168897018Y-104672139D01*
X168897018Y-104862615D01*
X168935113Y-104938806D01*
X168973208Y-104976901D01*
X169049399Y-105014996D01*
X169239875Y-105014996D01*
X169316065Y-104976901D01*
X169354161Y-104938806D01*
X152894770Y-104408096D02*
X152894770Y-103608096D01*
X152704294Y-103608096D01*
X152590008Y-103646192D01*
X152513818Y-103722382D01*
X152475722Y-103798572D01*
X152437627Y-103950953D01*
X152437627Y-104065239D01*
X152475722Y-104217620D01*
X152513818Y-104293811D01*
X152590008Y-104370001D01*
X152704294Y-104408096D01*
X152894770Y-104408096D01*
X151675722Y-104408096D02*
X152132865Y-104408096D01*
X151904294Y-104408096D02*
X151904294Y-103608096D01*
X151980484Y-103722382D01*
X152056675Y-103798572D01*
X152132865Y-103836668D01*
X150990008Y-103874763D02*
X150990008Y-104408096D01*
X151180484Y-103570001D02*
X151370961Y-104141430D01*
X150875722Y-104141430D01*
X116344218Y-69712396D02*
X116344218Y-68912396D01*
X116153742Y-68912396D01*
X116039456Y-68950492D01*
X115963265Y-69026682D01*
X115925170Y-69102872D01*
X115887075Y-69255253D01*
X115887075Y-69369539D01*
X115925170Y-69521920D01*
X115963265Y-69598111D01*
X116039456Y-69674301D01*
X116153742Y-69712396D01*
X116344218Y-69712396D01*
X115582313Y-68988587D02*
X115544218Y-68950492D01*
X115468027Y-68912396D01*
X115277551Y-68912396D01*
X115201361Y-68950492D01*
X115163265Y-68988587D01*
X115125170Y-69064777D01*
X115125170Y-69140968D01*
X115163265Y-69255253D01*
X115620408Y-69712396D01*
X115125170Y-69712396D01*
X134429018Y-85133696D02*
X134429018Y-84333696D01*
X134238542Y-84333696D01*
X134124256Y-84371792D01*
X134048065Y-84447982D01*
X134009970Y-84524172D01*
X133971875Y-84676553D01*
X133971875Y-84790839D01*
X134009970Y-84943220D01*
X134048065Y-85019411D01*
X134124256Y-85095601D01*
X134238542Y-85133696D01*
X134429018Y-85133696D01*
X133514732Y-84676553D02*
X133590922Y-84638458D01*
X133629018Y-84600363D01*
X133667113Y-84524172D01*
X133667113Y-84486077D01*
X133629018Y-84409887D01*
X133590922Y-84371792D01*
X133514732Y-84333696D01*
X133362351Y-84333696D01*
X133286161Y-84371792D01*
X133248065Y-84409887D01*
X133209970Y-84486077D01*
X133209970Y-84524172D01*
X133248065Y-84600363D01*
X133286161Y-84638458D01*
X133362351Y-84676553D01*
X133514732Y-84676553D01*
X133590922Y-84714649D01*
X133629018Y-84752744D01*
X133667113Y-84828934D01*
X133667113Y-84981315D01*
X133629018Y-85057506D01*
X133590922Y-85095601D01*
X133514732Y-85133696D01*
X133362351Y-85133696D01*
X133286161Y-85095601D01*
X133248065Y-85057506D01*
X133209970Y-84981315D01*
X133209970Y-84828934D01*
X133248065Y-84752744D01*
X133286161Y-84714649D01*
X133362351Y-84676553D01*
X152513818Y-87342296D02*
X152513818Y-86542296D01*
X152323342Y-86542296D01*
X152209056Y-86580392D01*
X152132865Y-86656582D01*
X152094770Y-86732772D01*
X152056675Y-86885153D01*
X152056675Y-86999439D01*
X152094770Y-87151820D01*
X152132865Y-87228011D01*
X152209056Y-87304201D01*
X152323342Y-87342296D01*
X152513818Y-87342296D01*
X151675722Y-87342296D02*
X151523342Y-87342296D01*
X151447151Y-87304201D01*
X151409056Y-87266106D01*
X151332865Y-87151820D01*
X151294770Y-86999439D01*
X151294770Y-86694677D01*
X151332865Y-86618487D01*
X151370961Y-86580392D01*
X151447151Y-86542296D01*
X151599532Y-86542296D01*
X151675722Y-86580392D01*
X151713818Y-86618487D01*
X151751913Y-86694677D01*
X151751913Y-86885153D01*
X151713818Y-86961344D01*
X151675722Y-86999439D01*
X151599532Y-87037534D01*
X151447151Y-87037534D01*
X151370961Y-86999439D01*
X151332865Y-86961344D01*
X151294770Y-86885153D01*
X134809970Y-102199496D02*
X134809970Y-101399496D01*
X134619494Y-101399496D01*
X134505208Y-101437592D01*
X134429018Y-101513782D01*
X134390922Y-101589972D01*
X134352827Y-101742353D01*
X134352827Y-101856639D01*
X134390922Y-102009020D01*
X134429018Y-102085211D01*
X134505208Y-102161401D01*
X134619494Y-102199496D01*
X134809970Y-102199496D01*
X133590922Y-102199496D02*
X134048065Y-102199496D01*
X133819494Y-102199496D02*
X133819494Y-101399496D01*
X133895684Y-101513782D01*
X133971875Y-101589972D01*
X134048065Y-101628068D01*
X133324256Y-101399496D02*
X132829018Y-101399496D01*
X133095684Y-101704258D01*
X132981399Y-101704258D01*
X132905208Y-101742353D01*
X132867113Y-101780449D01*
X132829018Y-101856639D01*
X132829018Y-102047115D01*
X132867113Y-102123306D01*
X132905208Y-102161401D01*
X132981399Y-102199496D01*
X133209970Y-102199496D01*
X133286161Y-102161401D01*
X133324256Y-102123306D01*
X116725170Y-103810097D02*
X116725170Y-103010097D01*
X116534694Y-103010097D01*
X116420408Y-103048193D01*
X116344218Y-103124383D01*
X116306122Y-103200573D01*
X116268027Y-103352954D01*
X116268027Y-103467240D01*
X116306122Y-103619621D01*
X116344218Y-103695812D01*
X116420408Y-103772002D01*
X116534694Y-103810097D01*
X116725170Y-103810097D01*
X115506122Y-103810097D02*
X115963265Y-103810097D01*
X115734694Y-103810097D02*
X115734694Y-103010097D01*
X115810884Y-103124383D01*
X115887075Y-103200573D01*
X115963265Y-103238669D01*
X115201361Y-103086288D02*
X115163265Y-103048193D01*
X115087075Y-103010097D01*
X114896599Y-103010097D01*
X114820408Y-103048193D01*
X114782313Y-103086288D01*
X114744218Y-103162478D01*
X114744218Y-103238669D01*
X114782313Y-103352954D01*
X115239456Y-103810097D01*
X114744218Y-103810097D01*
X182981167Y-125649517D02*
X182115141Y-125149517D01*
X181924665Y-125479431D01*
X181918285Y-125585719D01*
X181935715Y-125650768D01*
X181994384Y-125739627D01*
X182118102Y-125811055D01*
X182224390Y-125817435D01*
X182289439Y-125800005D01*
X182378297Y-125741336D01*
X182568774Y-125411422D01*
X181662760Y-125933064D02*
X182409738Y-126639260D01*
X181695910Y-126447074D01*
X182219262Y-126969175D01*
X181234189Y-126675371D01*
X181624024Y-128000157D02*
X181378297Y-127473387D01*
X181909738Y-127505286D02*
X181043713Y-127005286D01*
X180853237Y-127335200D01*
X180846857Y-127441488D01*
X180864287Y-127506537D01*
X180922956Y-127595395D01*
X181046674Y-127666824D01*
X181152962Y-127673204D01*
X181218011Y-127655774D01*
X181306869Y-127597105D01*
X181497345Y-127267190D01*
X181611264Y-128212733D02*
X181230312Y-128872562D01*
X181011356Y-128966091D02*
X180981167Y-129113618D01*
X180862119Y-129319815D01*
X180773261Y-129378484D01*
X180708212Y-129395914D01*
X180601924Y-129389534D01*
X180519445Y-129341915D01*
X180460776Y-129253057D01*
X180443346Y-129188008D01*
X180449726Y-129081720D01*
X180503725Y-128892953D01*
X180510105Y-128786665D01*
X180492675Y-128721616D01*
X180434006Y-128632758D01*
X180351527Y-128585139D01*
X180245239Y-128578759D01*
X180180190Y-128596189D01*
X180091332Y-128654858D01*
X179972284Y-128861054D01*
X179942095Y-129008582D01*
X179734189Y-129273447D02*
X180481167Y-129979644D01*
X179767339Y-129787458D01*
X180290691Y-130309558D01*
X179305617Y-130015755D01*
X180182693Y-130687092D02*
X179801741Y-131346921D01*
X178840477Y-131011878D02*
X178775428Y-131029308D01*
X178686570Y-131087977D01*
X178567522Y-131294173D01*
X178561143Y-131400461D01*
X178578572Y-131465510D01*
X178637241Y-131554369D01*
X178719720Y-131601988D01*
X178867247Y-131632177D01*
X179647833Y-131423019D01*
X179338310Y-131959130D01*
X150928508Y-122755155D02*
X146581842Y-121590469D01*
X162304765Y-117003567D02*
X162045946Y-117969492D01*
X146581842Y-121590469D02*
X146452432Y-122073432D01*
X150065612Y-127907379D02*
X149806793Y-128873305D01*
X148781804Y-113380100D02*
X149747729Y-113638919D01*
X145158337Y-126903061D02*
X145417156Y-125937136D01*
X153058124Y-130262134D02*
X150160346Y-129485677D01*
X154576363Y-126527841D02*
X154222809Y-125915468D01*
X145365392Y-126130321D02*
X149712058Y-127295007D01*
X158940118Y-129560602D02*
X158681298Y-130526528D01*
X146124263Y-127161881D02*
X145158337Y-126903061D01*
X161338839Y-116744747D02*
X162304765Y-117003567D01*
X150160346Y-129485677D02*
X149806793Y-128873305D01*
X154222809Y-125915468D02*
X151807995Y-125268421D01*
X153670496Y-129908581D02*
X153058124Y-130262134D01*
X145520684Y-125550765D02*
X145365392Y-126130321D01*
X148522984Y-114346026D02*
X148781804Y-113380100D01*
X150747335Y-123431303D02*
X150928508Y-122755155D01*
X158681298Y-130526528D02*
X157715373Y-130267709D01*
X150747334Y-123431303D02*
G75*
G03*
X151807995Y-125268421I1448890J-388228D01*
G01*
X150065611Y-127907379D02*
G75*
G03*
X149712058Y-127295007I-482963J129409D01*
G01*
X127600890Y-53255115D02*
X127600890Y-52255115D01*
X131600890Y-52955115D02*
X132600890Y-52955115D01*
X132600890Y-65955115D02*
X132600890Y-66955115D01*
X132600890Y-52955115D02*
X132600890Y-53955115D01*
X127100890Y-51755115D02*
X127600890Y-52255115D01*
X119600890Y-66955115D02*
X118600890Y-66955115D01*
X132600890Y-66955115D02*
X131600890Y-66955115D01*
X124100890Y-56255115D02*
X126600890Y-56255115D01*
X128100890Y-57755115D02*
X128100890Y-58455115D01*
X118600890Y-53955115D02*
X118600890Y-52955115D01*
X132600890Y-58455115D02*
X132600890Y-57955115D01*
X118600890Y-52955115D02*
X119600890Y-52955115D01*
X123600890Y-52255115D02*
X124100890Y-51755115D01*
X118600890Y-66955115D02*
X118600890Y-65955115D01*
X124100890Y-51755115D02*
X127100890Y-51755115D01*
X128100890Y-58455115D02*
X132600890Y-58455115D01*
X132600890Y-54355115D02*
X132600890Y-53755115D01*
X123600890Y-55755115D02*
X124100890Y-56255115D01*
X132600890Y-53755115D02*
X128100890Y-53755115D01*
X128100890Y-57755115D02*
G75*
G03*
X126600890Y-56255115I-1500001J-1D01*
G01*
X127600890Y-53255115D02*
G75*
G03*
X128100890Y-53755115I500001J1D01*
G01*
D11*
X171220551Y-63795114D02*
X168820551Y-63795114D01*
X168820551Y-63795114D02*
X168820551Y-69795114D01*
X168820551Y-69795114D02*
X171220551Y-69795114D01*
X171220551Y-69795114D02*
X171220551Y-63795114D01*
G36*
X171220551Y-69795114D02*
G01*
X168820551Y-69795114D01*
X168820551Y-69236714D01*
X171220551Y-69236714D01*
X171220551Y-69795114D01*
G37*
X171220551Y-69795114D02*
X168820551Y-69795114D01*
X168820551Y-69236714D01*
X171220551Y-69236714D01*
X171220551Y-69795114D01*
X116966090Y-79543515D02*
X114566090Y-79543515D01*
X114566090Y-79543515D02*
X114566090Y-85543515D01*
X114566090Y-85543515D02*
X116966090Y-85543515D01*
X116966090Y-85543515D02*
X116966090Y-79543515D01*
G36*
X116966090Y-85543515D02*
G01*
X114566090Y-85543515D01*
X114566090Y-84985115D01*
X116966090Y-84985115D01*
X116966090Y-85543515D01*
G37*
X116966090Y-85543515D02*
X114566090Y-85543515D01*
X114566090Y-84985115D01*
X116966090Y-84985115D01*
X116966090Y-85543515D01*
X98881290Y-99101515D02*
X96481290Y-99101515D01*
X96481290Y-99101515D02*
X96481290Y-105101515D01*
X96481290Y-105101515D02*
X98881290Y-105101515D01*
X98881290Y-105101515D02*
X98881290Y-99101515D01*
G36*
X98881290Y-105101515D02*
G01*
X96481290Y-105101515D01*
X96481290Y-104543115D01*
X98881290Y-104543115D01*
X98881290Y-105101515D01*
G37*
X98881290Y-105101515D02*
X96481290Y-105101515D01*
X96481290Y-104543115D01*
X98881290Y-104543115D01*
X98881290Y-105101515D01*
D10*
X106016090Y-94361115D02*
X108516090Y-94361115D01*
X105516090Y-93861115D02*
X106016090Y-94361115D01*
X110016090Y-95861115D02*
X110016090Y-96561115D01*
X114516090Y-96561115D02*
X114516090Y-96061115D01*
X100516090Y-92061115D02*
X100516090Y-91061115D01*
X109016090Y-89861115D02*
X109516090Y-90361115D01*
X100516090Y-91061115D02*
X101516090Y-91061115D01*
X101516090Y-105061115D02*
X100516090Y-105061115D01*
X114516090Y-104061115D02*
X114516090Y-105061115D01*
X110016090Y-96561115D02*
X114516090Y-96561115D01*
X106016090Y-89861115D02*
X109016090Y-89861115D01*
X109516090Y-91361115D02*
X109516090Y-90361115D01*
X114516090Y-92461115D02*
X114516090Y-91861115D01*
X114516090Y-91061115D02*
X114516090Y-92061115D01*
X114516090Y-91861115D02*
X110016090Y-91861115D01*
X113516090Y-91061115D02*
X114516090Y-91061115D01*
X105516090Y-90361115D02*
X106016090Y-89861115D01*
X100516090Y-105061115D02*
X100516090Y-104061115D01*
X114516090Y-105061115D02*
X113516090Y-105061115D01*
X110016090Y-95861115D02*
G75*
G03*
X108516090Y-94361115I-1500001J-1D01*
G01*
X109516090Y-91361115D02*
G75*
G03*
X110016090Y-91861115I500001J1D01*
G01*
D11*
X98881290Y-82134315D02*
X96481290Y-82134315D01*
X96481290Y-82134315D02*
X96481290Y-88134315D01*
X96481290Y-88134315D02*
X98881290Y-88134315D01*
X98881290Y-88134315D02*
X98881290Y-82134315D01*
G36*
X98881290Y-88134315D02*
G01*
X96481290Y-88134315D01*
X96481290Y-87575915D01*
X98881290Y-87575915D01*
X98881290Y-88134315D01*
G37*
X98881290Y-88134315D02*
X96481290Y-88134315D01*
X96481290Y-87575915D01*
X98881290Y-87575915D01*
X98881290Y-88134315D01*
D10*
X164270490Y-97830715D02*
X168770490Y-97830715D01*
X168770490Y-97830715D02*
X168770490Y-97330715D01*
X160270490Y-91130715D02*
X163270490Y-91130715D01*
X154770490Y-92330715D02*
X155770490Y-92330715D01*
X168770490Y-105330715D02*
X168770490Y-106330715D01*
X154770490Y-106330715D02*
X154770490Y-105330715D01*
X163270490Y-91130715D02*
X163770490Y-91630715D01*
X168770490Y-92330715D02*
X168770490Y-93330715D01*
X168770490Y-106330715D02*
X167770490Y-106330715D01*
X168770490Y-93130715D02*
X164270490Y-93130715D01*
X168770490Y-93730715D02*
X168770490Y-93130715D01*
X155770490Y-106330715D02*
X154770490Y-106330715D01*
X164270490Y-97130715D02*
X164270490Y-97830715D01*
X159770490Y-91630715D02*
X160270490Y-91130715D01*
X159770490Y-95130715D02*
X160270490Y-95630715D01*
X163770490Y-92630715D02*
X163770490Y-91630715D01*
X154770490Y-93330715D02*
X154770490Y-92330715D01*
X160270490Y-95630715D02*
X162770490Y-95630715D01*
X167770490Y-92330715D02*
X168770490Y-92330715D01*
X164270490Y-97130715D02*
G75*
G03*
X162770490Y-95630715I-1500001J-1D01*
G01*
X163770490Y-92630715D02*
G75*
G03*
X164270490Y-93130715I500001J1D01*
G01*
D11*
X161370751Y-114313514D02*
X163770751Y-114313514D01*
X163770751Y-114313514D02*
X163770751Y-108313514D01*
X163770751Y-108313514D02*
X161370751Y-108313514D01*
X161370751Y-108313514D02*
X161370751Y-114313514D01*
G36*
X163770751Y-108871914D02*
G01*
X161370751Y-108871914D01*
X161370751Y-108313514D01*
X163770751Y-108313514D01*
X163770751Y-108871914D01*
G37*
X163770751Y-108871914D02*
X161370751Y-108871914D01*
X161370751Y-108313514D01*
X163770751Y-108313514D01*
X163770751Y-108871914D01*
D12*
X173195890Y-118563314D02*
X175275890Y-120643314D01*
X184365890Y-99083314D02*
X188315890Y-100523314D01*
X173195890Y-101163314D02*
X175275890Y-99083314D01*
X173195890Y-104663314D02*
X173195890Y-101163314D01*
X175275890Y-120643314D02*
X177735890Y-120643314D01*
X184365890Y-120643314D02*
X188315890Y-119203314D01*
X183735890Y-120643314D02*
X184365890Y-120643314D01*
X173195890Y-118563314D02*
X173195890Y-115063314D01*
X183735890Y-99083314D02*
X184365890Y-99083314D01*
X175275890Y-99083314D02*
X177735890Y-99083314D01*
X189302420Y-103859960D02*
G75*
G03*
X188315890Y-100523314I-1716530J1306646D01*
G01*
X188324059Y-119188557D02*
G75*
G03*
X189285890Y-115863314I-738168J2015243D01*
G01*
D11*
X158678351Y-114313514D02*
X161078351Y-114313514D01*
X161078351Y-114313514D02*
X161078351Y-108313514D01*
X161078351Y-108313514D02*
X158678351Y-108313514D01*
X158678351Y-108313514D02*
X158678351Y-114313514D01*
G36*
X161078351Y-108871914D02*
G01*
X158678351Y-108871914D01*
X158678351Y-108313514D01*
X161078351Y-108313514D01*
X161078351Y-108871914D01*
G37*
X161078351Y-108871914D02*
X158678351Y-108871914D01*
X158678351Y-108313514D01*
X161078351Y-108313514D01*
X161078351Y-108871914D01*
D10*
X87431290Y-79433915D02*
X87931290Y-79933915D01*
X96431290Y-90633915D02*
X95431290Y-90633915D01*
X83431290Y-90633915D02*
X82431290Y-90633915D01*
X90931290Y-75433915D02*
X91431290Y-75933915D01*
X82431290Y-77633915D02*
X82431290Y-76633915D01*
X96431290Y-77433915D02*
X91931290Y-77433915D01*
X87431290Y-75933915D02*
X87931290Y-75433915D01*
X96431290Y-82133915D02*
X96431290Y-81633915D01*
X82431290Y-90633915D02*
X82431290Y-89633915D01*
X91931290Y-82133915D02*
X96431290Y-82133915D01*
X91431290Y-76933915D02*
X91431290Y-75933915D01*
X95431290Y-76633915D02*
X96431290Y-76633915D01*
X87931290Y-79933915D02*
X90431290Y-79933915D01*
X82431290Y-76633915D02*
X83431290Y-76633915D01*
X91931290Y-81433915D02*
X91931290Y-82133915D01*
X96431290Y-76633915D02*
X96431290Y-77633915D01*
X96431290Y-89633915D02*
X96431290Y-90633915D01*
X87931290Y-75433915D02*
X90931290Y-75433915D01*
X96431290Y-78033915D02*
X96431290Y-77433915D01*
X91931290Y-81433915D02*
G75*
G03*
X90431290Y-79933915I-1500001J-1D01*
G01*
X91431290Y-76933915D02*
G75*
G03*
X91931290Y-77433915I500001J1D01*
G01*
X163770490Y-58594715D02*
X163770490Y-57594715D01*
X167770490Y-58294715D02*
X168770490Y-58294715D01*
X154770490Y-59294715D02*
X154770490Y-58294715D01*
X154770490Y-58294715D02*
X155770490Y-58294715D01*
X154770490Y-72294715D02*
X154770490Y-71294715D01*
X168770490Y-58294715D02*
X168770490Y-59294715D01*
X164270490Y-63094715D02*
X164270490Y-63794715D01*
X155770490Y-72294715D02*
X154770490Y-72294715D01*
X168770490Y-63794715D02*
X168770490Y-63294715D01*
X168770490Y-72294715D02*
X167770490Y-72294715D01*
X159770490Y-61094715D02*
X160270490Y-61594715D01*
X164270490Y-63794715D02*
X168770490Y-63794715D01*
X160270490Y-57094715D02*
X163270490Y-57094715D01*
X159770490Y-57594715D02*
X160270490Y-57094715D01*
X160270490Y-61594715D02*
X162770490Y-61594715D01*
X168770490Y-59094715D02*
X164270490Y-59094715D01*
X163270490Y-57094715D02*
X163770490Y-57594715D01*
X168770490Y-59694715D02*
X168770490Y-59094715D01*
X168770490Y-71294715D02*
X168770490Y-72294715D01*
X164270490Y-63094715D02*
G75*
G03*
X162770490Y-61594715I-1500001J-1D01*
G01*
X163770490Y-58594715D02*
G75*
G03*
X164270490Y-59094715I500001J1D01*
G01*
X183105729Y-127519136D02*
X182605729Y-128385162D01*
X166731373Y-127880352D02*
X166481373Y-128313365D01*
X164847399Y-133143492D02*
X163981373Y-132643492D01*
X164381373Y-131950672D02*
X168278487Y-134200672D01*
X170278487Y-130736570D02*
X170628487Y-130130352D01*
X176605729Y-138777466D02*
X176105729Y-139643492D01*
X164681373Y-131431056D02*
X164381373Y-131950672D01*
X176105729Y-139643492D02*
X175239703Y-139143492D01*
X170481373Y-121385162D02*
X170981373Y-120519136D01*
X170742589Y-137932722D02*
X168144513Y-136432722D01*
X173175602Y-134718621D02*
X172992589Y-134035608D01*
X163981373Y-132643492D02*
X164481373Y-131777466D01*
X172992589Y-134035608D02*
X170827526Y-132785608D01*
X182239703Y-127019136D02*
X183105729Y-127519136D01*
X170628487Y-130130352D02*
X166731373Y-127880352D01*
X168144513Y-136432722D02*
X167961500Y-135749710D01*
X171425602Y-137749710D02*
X170742589Y-137932722D01*
X170981373Y-120519136D02*
X171847399Y-121019136D01*
X168461500Y-134883684D02*
X167961500Y-135749710D01*
X170278488Y-130736571D02*
G75*
G03*
X170827526Y-132785608I1299039J-749999D01*
G01*
X168461500Y-134883684D02*
G75*
G03*
X168278487Y-134200672I-433014J249999D01*
G01*
X87931290Y-92401115D02*
X90931290Y-92401115D01*
X82431290Y-107601115D02*
X82431290Y-106601115D01*
X87931290Y-96901115D02*
X90431290Y-96901115D01*
X91431290Y-93901115D02*
X91431290Y-92901115D01*
X96431290Y-94401115D02*
X91931290Y-94401115D01*
X96431290Y-93601115D02*
X96431290Y-94601115D01*
X96431290Y-106601115D02*
X96431290Y-107601115D01*
X95431290Y-93601115D02*
X96431290Y-93601115D01*
X83431290Y-107601115D02*
X82431290Y-107601115D01*
X82431290Y-94601115D02*
X82431290Y-93601115D01*
X96431290Y-107601115D02*
X95431290Y-107601115D01*
X87431290Y-92901115D02*
X87931290Y-92401115D01*
X82431290Y-93601115D02*
X83431290Y-93601115D01*
X96431290Y-95001115D02*
X96431290Y-94401115D01*
X90931290Y-92401115D02*
X91431290Y-92901115D01*
X91931290Y-99101115D02*
X96431290Y-99101115D01*
X91931290Y-98401115D02*
X91931290Y-99101115D01*
X96431290Y-99101115D02*
X96431290Y-98601115D01*
X87431290Y-96401115D02*
X87931290Y-96901115D01*
X91931290Y-98401115D02*
G75*
G03*
X90431290Y-96901115I-1500001J-1D01*
G01*
X91431290Y-93901115D02*
G75*
G03*
X91931290Y-94401115I500001J1D01*
G01*
X106016090Y-72843115D02*
X109016090Y-72843115D01*
X100516090Y-75043115D02*
X100516090Y-74043115D01*
X114516090Y-87043115D02*
X114516090Y-88043115D01*
X114516090Y-75443115D02*
X114516090Y-74843115D01*
X105516090Y-73343115D02*
X106016090Y-72843115D01*
X101516090Y-88043115D02*
X100516090Y-88043115D01*
X100516090Y-74043115D02*
X101516090Y-74043115D01*
X109016090Y-72843115D02*
X109516090Y-73343115D01*
X106016090Y-77343115D02*
X108516090Y-77343115D01*
X114516090Y-74843115D02*
X110016090Y-74843115D01*
X100516090Y-88043115D02*
X100516090Y-87043115D01*
X114516090Y-79543115D02*
X114516090Y-79043115D01*
X109516090Y-74343115D02*
X109516090Y-73343115D01*
X114516090Y-88043115D02*
X113516090Y-88043115D01*
X110016090Y-79543115D02*
X114516090Y-79543115D01*
X113516090Y-74043115D02*
X114516090Y-74043115D01*
X105516090Y-76843115D02*
X106016090Y-77343115D01*
X114516090Y-74043115D02*
X114516090Y-75043115D01*
X110016090Y-78843115D02*
X110016090Y-79543115D01*
X109516090Y-74343115D02*
G75*
G03*
X110016090Y-74843115I500001J1D01*
G01*
X110016090Y-78843115D02*
G75*
G03*
X108516090Y-77343115I-1500001J-1D01*
G01*
D11*
X135050890Y-60914914D02*
X132650890Y-60914914D01*
X132650890Y-60914914D02*
X132650890Y-66914914D01*
X132650890Y-66914914D02*
X135050890Y-66914914D01*
X135050890Y-66914914D02*
X135050890Y-60914914D01*
G36*
X135050890Y-66914914D02*
G01*
X132650890Y-66914914D01*
X132650890Y-66356514D01*
X135050890Y-66356514D01*
X135050890Y-66914914D01*
G37*
X135050890Y-66914914D02*
X132650890Y-66914914D01*
X132650890Y-66356514D01*
X135050890Y-66356514D01*
X135050890Y-66914914D01*
D10*
X150685690Y-89791115D02*
X150685690Y-90791115D01*
X141685690Y-92591115D02*
X142185690Y-93091115D01*
X149685690Y-89791115D02*
X150685690Y-89791115D01*
X150685690Y-102791115D02*
X150685690Y-103791115D01*
X142185690Y-88591115D02*
X145185690Y-88591115D01*
X150685690Y-90591115D02*
X146185690Y-90591115D01*
X136685690Y-103791115D02*
X136685690Y-102791115D01*
X150685690Y-91191115D02*
X150685690Y-90591115D01*
X136685690Y-89791115D02*
X137685690Y-89791115D01*
X146185690Y-95291115D02*
X150685690Y-95291115D01*
X141685690Y-89091115D02*
X142185690Y-88591115D01*
X145685690Y-90091115D02*
X145685690Y-89091115D01*
X146185690Y-94591115D02*
X146185690Y-95291115D01*
X136685690Y-90791115D02*
X136685690Y-89791115D01*
X142185690Y-93091115D02*
X144685690Y-93091115D01*
X150685690Y-95291115D02*
X150685690Y-94791115D01*
X145185690Y-88591115D02*
X145685690Y-89091115D01*
X150685690Y-103791115D02*
X149685690Y-103791115D01*
X137685690Y-103791115D02*
X136685690Y-103791115D01*
X146185690Y-94591115D02*
G75*
G03*
X144685690Y-93091115I-1500001J-1D01*
G01*
X145685690Y-90091115D02*
G75*
G03*
X146185690Y-90591115I500001J1D01*
G01*
X128100890Y-75473115D02*
X132600890Y-75473115D01*
X123600890Y-72773115D02*
X124100890Y-73273115D01*
X132600890Y-75473115D02*
X132600890Y-74973115D01*
X118600890Y-83973115D02*
X118600890Y-82973115D01*
X132600890Y-71373115D02*
X132600890Y-70773115D01*
X132600890Y-83973115D02*
X131600890Y-83973115D01*
X124100890Y-68773115D02*
X127100890Y-68773115D01*
X132600890Y-70773115D02*
X128100890Y-70773115D01*
X132600890Y-69973115D02*
X132600890Y-70973115D01*
X127600890Y-70273115D02*
X127600890Y-69273115D01*
X118600890Y-69973115D02*
X119600890Y-69973115D01*
X118600890Y-70973115D02*
X118600890Y-69973115D01*
X119600890Y-83973115D02*
X118600890Y-83973115D01*
X127100890Y-68773115D02*
X127600890Y-69273115D01*
X124100890Y-73273115D02*
X126600890Y-73273115D01*
X123600890Y-69273115D02*
X124100890Y-68773115D01*
X128100890Y-74773115D02*
X128100890Y-75473115D01*
X132600890Y-82973115D02*
X132600890Y-83973115D01*
X131600890Y-69973115D02*
X132600890Y-69973115D01*
X127600890Y-70273115D02*
G75*
G03*
X128100890Y-70773115I500001J1D01*
G01*
X128100890Y-74773115D02*
G75*
G03*
X126600890Y-73273115I-1500001J-1D01*
G01*
D11*
X153135690Y-63123314D02*
X150735690Y-63123314D01*
X150735690Y-63123314D02*
X150735690Y-69123314D01*
X150735690Y-69123314D02*
X153135690Y-69123314D01*
X153135690Y-69123314D02*
X153135690Y-63123314D01*
G36*
X153135690Y-69123314D02*
G01*
X150735690Y-69123314D01*
X150735690Y-68564914D01*
X153135690Y-68564914D01*
X153135690Y-69123314D01*
G37*
X153135690Y-69123314D02*
X150735690Y-69123314D01*
X150735690Y-68564914D01*
X153135690Y-68564914D01*
X153135690Y-69123314D01*
X98881290Y-65065515D02*
X96481290Y-65065515D01*
X96481290Y-65065515D02*
X96481290Y-71065515D01*
X96481290Y-71065515D02*
X98881290Y-71065515D01*
X98881290Y-71065515D02*
X98881290Y-65065515D01*
G36*
X98881290Y-71065515D02*
G01*
X96481290Y-71065515D01*
X96481290Y-70507115D01*
X98881290Y-70507115D01*
X98881290Y-71065515D01*
G37*
X98881290Y-71065515D02*
X96481290Y-71065515D01*
X96481290Y-70507115D01*
X98881290Y-70507115D01*
X98881290Y-71065515D01*
D10*
X137685690Y-86773115D02*
X136685690Y-86773115D01*
X141685690Y-75573115D02*
X142185690Y-76073115D01*
X141685690Y-72073115D02*
X142185690Y-71573115D01*
X136685690Y-73773115D02*
X136685690Y-72773115D01*
X150685690Y-78273115D02*
X150685690Y-77773115D01*
X150685690Y-73573115D02*
X146185690Y-73573115D01*
X145685690Y-73073115D02*
X145685690Y-72073115D01*
X142185690Y-71573115D02*
X145185690Y-71573115D01*
X136685690Y-72773115D02*
X137685690Y-72773115D01*
X150685690Y-74173115D02*
X150685690Y-73573115D01*
X142185690Y-76073115D02*
X144685690Y-76073115D01*
X150685690Y-85773115D02*
X150685690Y-86773115D01*
X146185690Y-77573115D02*
X146185690Y-78273115D01*
X150685690Y-72773115D02*
X150685690Y-73773115D01*
X146185690Y-78273115D02*
X150685690Y-78273115D01*
X150685690Y-86773115D02*
X149685690Y-86773115D01*
X145185690Y-71573115D02*
X145685690Y-72073115D01*
X149685690Y-72773115D02*
X150685690Y-72773115D01*
X136685690Y-86773115D02*
X136685690Y-85773115D01*
X146185690Y-77573115D02*
G75*
G03*
X144685690Y-76073115I-1500001J-1D01*
G01*
X145685690Y-73073115D02*
G75*
G03*
X146185690Y-73573115I500001J1D01*
G01*
X191044290Y-71423915D02*
X190044290Y-71423915D01*
X191044290Y-92312115D02*
X190044290Y-92312115D01*
X173244290Y-91312115D02*
X173244290Y-92312115D01*
X191044290Y-91262115D02*
X191044290Y-92312115D01*
X191044290Y-71423915D02*
X191044290Y-72423915D01*
X173244290Y-71423915D02*
X174194290Y-71423915D01*
X173244290Y-71423915D02*
X173244290Y-72423915D01*
X173244290Y-92312115D02*
X174254290Y-92312115D01*
X87431290Y-58865115D02*
X87931290Y-58365115D01*
X91931290Y-64365115D02*
X91931290Y-65065115D01*
X82431290Y-60565115D02*
X82431290Y-59565115D01*
X91931290Y-65065115D02*
X96431290Y-65065115D01*
X87931290Y-58365115D02*
X90931290Y-58365115D01*
X95431290Y-59565115D02*
X96431290Y-59565115D01*
X87931290Y-62865115D02*
X90431290Y-62865115D01*
X96431290Y-59565115D02*
X96431290Y-60565115D01*
X83431290Y-73565115D02*
X82431290Y-73565115D01*
X96431290Y-73565115D02*
X95431290Y-73565115D01*
X96431290Y-65065115D02*
X96431290Y-64565115D01*
X87431290Y-62365115D02*
X87931290Y-62865115D01*
X82431290Y-73565115D02*
X82431290Y-72565115D01*
X96431290Y-72565115D02*
X96431290Y-73565115D01*
X96431290Y-60365115D02*
X91931290Y-60365115D01*
X90931290Y-58365115D02*
X91431290Y-58865115D01*
X82431290Y-59565115D02*
X83431290Y-59565115D01*
X91431290Y-59865115D02*
X91431290Y-58865115D01*
X96431290Y-60965115D02*
X96431290Y-60365115D01*
X91431290Y-59865115D02*
G75*
G03*
X91931290Y-60365115I500001J1D01*
G01*
X91931290Y-64365115D02*
G75*
G03*
X90431290Y-62865115I-1500001J-1D01*
G01*
D11*
X171220490Y-80813115D02*
X168820490Y-80813115D01*
X168820490Y-80813115D02*
X168820490Y-86813115D01*
X168820490Y-86813115D02*
X171220490Y-86813115D01*
X171220490Y-86813115D02*
X171220490Y-80813115D01*
G36*
X171220490Y-86813115D02*
G01*
X168820490Y-86813115D01*
X168820490Y-86254715D01*
X171220490Y-86254715D01*
X171220490Y-86813115D01*
G37*
X171220490Y-86813115D02*
X168820490Y-86813115D01*
X168820490Y-86254715D01*
X171220490Y-86254715D01*
X171220490Y-86813115D01*
X171220490Y-97831115D02*
X168820490Y-97831115D01*
X168820490Y-97831115D02*
X168820490Y-103831115D01*
X168820490Y-103831115D02*
X171220490Y-103831115D01*
X171220490Y-103831115D02*
X171220490Y-97831115D01*
G36*
X171220490Y-103831115D02*
G01*
X168820490Y-103831115D01*
X168820490Y-103272715D01*
X171220490Y-103272715D01*
X171220490Y-103831115D01*
G37*
X171220490Y-103831115D02*
X168820490Y-103831115D01*
X168820490Y-103272715D01*
X171220490Y-103272715D01*
X171220490Y-103831115D01*
X153135690Y-97159514D02*
X150735690Y-97159514D01*
X150735690Y-97159514D02*
X150735690Y-103159514D01*
X150735690Y-103159514D02*
X153135690Y-103159514D01*
X153135690Y-103159514D02*
X153135690Y-97159514D01*
G36*
X153135690Y-103159514D02*
G01*
X150735690Y-103159514D01*
X150735690Y-102601114D01*
X153135690Y-102601114D01*
X153135690Y-103159514D01*
G37*
X153135690Y-103159514D02*
X150735690Y-103159514D01*
X150735690Y-102601114D01*
X153135690Y-102601114D01*
X153135690Y-103159514D01*
D10*
X118600890Y-87991115D02*
X118600890Y-86991115D01*
X124100890Y-85791115D02*
X127100890Y-85791115D01*
X132600890Y-87791115D02*
X128100890Y-87791115D01*
X118600890Y-86991115D02*
X119600890Y-86991115D01*
X132600890Y-88391115D02*
X132600890Y-87791115D01*
X131600890Y-86991115D02*
X132600890Y-86991115D01*
X132600890Y-100991115D02*
X131600890Y-100991115D01*
X128100890Y-92491115D02*
X132600890Y-92491115D01*
X132600890Y-92491115D02*
X132600890Y-91991115D01*
X127600890Y-87291115D02*
X127600890Y-86291115D01*
X119600890Y-100991115D02*
X118600890Y-100991115D01*
X123600890Y-86291115D02*
X124100890Y-85791115D01*
X123600890Y-89791115D02*
X124100890Y-90291115D01*
X118600890Y-100991115D02*
X118600890Y-99991115D01*
X132600890Y-86991115D02*
X132600890Y-87991115D01*
X132600890Y-99991115D02*
X132600890Y-100991115D01*
X128100890Y-91791115D02*
X128100890Y-92491115D01*
X124100890Y-90291115D02*
X126600890Y-90291115D01*
X127100890Y-85791115D02*
X127600890Y-86291115D01*
X128100890Y-91791115D02*
G75*
G03*
X126600890Y-90291115I-1500001J-1D01*
G01*
X127600890Y-87291115D02*
G75*
G03*
X128100890Y-87791115I500001J1D01*
G01*
D11*
X116966090Y-62525515D02*
X114566090Y-62525515D01*
X114566090Y-62525515D02*
X114566090Y-68525515D01*
X114566090Y-68525515D02*
X116966090Y-68525515D01*
X116966090Y-68525515D02*
X116966090Y-62525515D01*
G36*
X116966090Y-68525515D02*
G01*
X114566090Y-68525515D01*
X114566090Y-67967115D01*
X116966090Y-67967115D01*
X116966090Y-68525515D01*
G37*
X116966090Y-68525515D02*
X114566090Y-68525515D01*
X114566090Y-67967115D01*
X116966090Y-67967115D01*
X116966090Y-68525515D01*
X135050890Y-77932914D02*
X132650890Y-77932914D01*
X132650890Y-77932914D02*
X132650890Y-83932914D01*
X132650890Y-83932914D02*
X135050890Y-83932914D01*
X135050890Y-83932914D02*
X135050890Y-77932914D01*
G36*
X135050890Y-83932914D02*
G01*
X132650890Y-83932914D01*
X132650890Y-83374514D01*
X135050890Y-83374514D01*
X135050890Y-83932914D01*
G37*
X135050890Y-83932914D02*
X132650890Y-83932914D01*
X132650890Y-83374514D01*
X135050890Y-83374514D01*
X135050890Y-83932914D01*
X153135690Y-80141514D02*
X150735690Y-80141514D01*
X150735690Y-80141514D02*
X150735690Y-86141514D01*
X150735690Y-86141514D02*
X153135690Y-86141514D01*
X153135690Y-86141514D02*
X153135690Y-80141514D01*
G36*
X153135690Y-86141514D02*
G01*
X150735690Y-86141514D01*
X150735690Y-85583114D01*
X153135690Y-85583114D01*
X153135690Y-86141514D01*
G37*
X153135690Y-86141514D02*
X150735690Y-86141514D01*
X150735690Y-85583114D01*
X153135690Y-85583114D01*
X153135690Y-86141514D01*
D10*
X113516090Y-57025115D02*
X114516090Y-57025115D01*
X110016090Y-62525115D02*
X114516090Y-62525115D01*
X114516090Y-57025115D02*
X114516090Y-58025115D01*
X106016090Y-60325115D02*
X108516090Y-60325115D01*
X114516090Y-58425115D02*
X114516090Y-57825115D01*
X114516090Y-71025115D02*
X113516090Y-71025115D01*
X101516090Y-71025115D02*
X100516090Y-71025115D01*
X100516090Y-57025115D02*
X101516090Y-57025115D01*
X109016090Y-55825115D02*
X109516090Y-56325115D01*
X105516090Y-56325115D02*
X106016090Y-55825115D01*
X106016090Y-55825115D02*
X109016090Y-55825115D01*
X110016090Y-61825115D02*
X110016090Y-62525115D01*
X105516090Y-59825115D02*
X106016090Y-60325115D01*
X114516090Y-62525115D02*
X114516090Y-62025115D01*
X100516090Y-71025115D02*
X100516090Y-70025115D01*
X100516090Y-58025115D02*
X100516090Y-57025115D01*
X109516090Y-57325115D02*
X109516090Y-56325115D01*
X114516090Y-57825115D02*
X110016090Y-57825115D01*
X114516090Y-70025115D02*
X114516090Y-71025115D01*
X109516090Y-57325115D02*
G75*
G03*
X110016090Y-57825115I500001J1D01*
G01*
X110016090Y-61825115D02*
G75*
G03*
X108516090Y-60325115I-1500001J-1D01*
G01*
X160270490Y-74112715D02*
X163270490Y-74112715D01*
X163270490Y-74112715D02*
X163770490Y-74612715D01*
X159770490Y-74612715D02*
X160270490Y-74112715D01*
X164270490Y-80112715D02*
X164270490Y-80812715D01*
X168770490Y-76112715D02*
X164270490Y-76112715D01*
X164270490Y-80812715D02*
X168770490Y-80812715D01*
X159770490Y-78112715D02*
X160270490Y-78612715D01*
X155770490Y-89312715D02*
X154770490Y-89312715D01*
X168770490Y-88312715D02*
X168770490Y-89312715D01*
X168770490Y-75312715D02*
X168770490Y-76312715D01*
X154770490Y-76312715D02*
X154770490Y-75312715D01*
X163770490Y-75612715D02*
X163770490Y-74612715D01*
X168770490Y-89312715D02*
X167770490Y-89312715D01*
X154770490Y-89312715D02*
X154770490Y-88312715D01*
X168770490Y-80812715D02*
X168770490Y-80312715D01*
X154770490Y-75312715D02*
X155770490Y-75312715D01*
X168770490Y-76712715D02*
X168770490Y-76112715D01*
X167770490Y-75312715D02*
X168770490Y-75312715D01*
X160270490Y-78612715D02*
X162770490Y-78612715D01*
X163770490Y-75612715D02*
G75*
G03*
X164270490Y-76112715I500001J1D01*
G01*
X164270490Y-80112715D02*
G75*
G03*
X162770490Y-78612715I-1500001J-1D01*
G01*
D11*
X135050890Y-94950914D02*
X132650890Y-94950914D01*
X132650890Y-94950914D02*
X132650890Y-100950914D01*
X132650890Y-100950914D02*
X135050890Y-100950914D01*
X135050890Y-100950914D02*
X135050890Y-94950914D01*
G36*
X135050890Y-100950914D02*
G01*
X132650890Y-100950914D01*
X132650890Y-100392514D01*
X135050890Y-100392514D01*
X135050890Y-100950914D01*
G37*
X135050890Y-100950914D02*
X132650890Y-100950914D01*
X132650890Y-100392514D01*
X135050890Y-100392514D01*
X135050890Y-100950914D01*
X116966090Y-96561515D02*
X114566090Y-96561515D01*
X114566090Y-96561515D02*
X114566090Y-102561515D01*
X114566090Y-102561515D02*
X116966090Y-102561515D01*
X116966090Y-102561515D02*
X116966090Y-96561515D01*
G36*
X116966090Y-102561515D02*
G01*
X114566090Y-102561515D01*
X114566090Y-102003115D01*
X116966090Y-102003115D01*
X116966090Y-102561515D01*
G37*
X116966090Y-102561515D02*
X114566090Y-102561515D01*
X114566090Y-102003115D01*
X116966090Y-102003115D01*
X116966090Y-102561515D01*
D10*
X149685690Y-55754915D02*
X150685690Y-55754915D01*
X150685690Y-61254915D02*
X150685690Y-60754915D01*
X146185690Y-61254915D02*
X150685690Y-61254915D01*
X145685690Y-56054915D02*
X145685690Y-55054915D01*
X136685690Y-55754915D02*
X137685690Y-55754915D01*
X150685690Y-69754915D02*
X149685690Y-69754915D01*
X150685690Y-68754915D02*
X150685690Y-69754915D01*
X150685690Y-56554915D02*
X146185690Y-56554915D01*
X142185690Y-59054915D02*
X144685690Y-59054915D01*
X136685690Y-56754915D02*
X136685690Y-55754915D01*
X141685690Y-55054915D02*
X142185690Y-54554915D01*
X136685690Y-69754915D02*
X136685690Y-68754915D01*
X137685690Y-69754915D02*
X136685690Y-69754915D01*
X141685690Y-58554915D02*
X142185690Y-59054915D01*
X146185690Y-60554915D02*
X146185690Y-61254915D01*
X150685690Y-55754915D02*
X150685690Y-56754915D01*
X142185690Y-54554915D02*
X145185690Y-54554915D01*
X150685690Y-57154915D02*
X150685690Y-56554915D01*
X145185690Y-54554915D02*
X145685690Y-55054915D01*
X146185690Y-60554915D02*
G75*
G03*
X144685690Y-59054915I-1500001J-1D01*
G01*
X145685690Y-56054915D02*
G75*
G03*
X146185690Y-56554915I500001J1D01*
G01*
D12*
X186216548Y-131580911D02*
X185099375Y-130935911D01*
X186216548Y-131580911D02*
X186498413Y-131512706D01*
X183381203Y-128211873D02*
X182531203Y-129684117D01*
X186474375Y-128554342D02*
X183624375Y-133490686D01*
X186948413Y-130733284D02*
X186498413Y-131512706D01*
X185215529Y-127134726D02*
X185899689Y-127529726D01*
X185749375Y-129810078D02*
X186866548Y-130455078D01*
X186866548Y-130455078D02*
X186948413Y-130733284D01*
X181881203Y-130809950D02*
X181781203Y-130983155D01*
X182449689Y-133505302D02*
X181765529Y-133110302D01*
D13*
X110190151Y-116847914D02*
X109312151Y-116848314D01*
X107167551Y-115425514D02*
X107167551Y-116847914D01*
X110190151Y-115374714D02*
X110190151Y-116847914D01*
X107167551Y-116847914D02*
X108062151Y-116847914D01*
G36*
X107189990Y-108386661D02*
G01*
X107236763Y-108403745D01*
X107352671Y-108445031D01*
X107524866Y-108505898D01*
X107742947Y-108582702D01*
X107996514Y-108671802D01*
X108275167Y-108769553D01*
X108568505Y-108872314D01*
X108866128Y-108976439D01*
X109157635Y-109078288D01*
X109432627Y-109174216D01*
X109680702Y-109260580D01*
X109891460Y-109333738D01*
X110054501Y-109390046D01*
X110284864Y-109469261D01*
X110284864Y-110454917D01*
X110084549Y-110454917D01*
X110084233Y-109601917D01*
X109393303Y-109362119D01*
X109268690Y-109318889D01*
X108957037Y-109210887D01*
X108618096Y-109093552D01*
X108285092Y-108978384D01*
X107991252Y-108876882D01*
X107280132Y-108631442D01*
X107280132Y-110454917D01*
X107079817Y-110454917D01*
X107079817Y-108343897D01*
X107189990Y-108386661D01*
G37*
D12*
X170779061Y-114973003D02*
X171855562Y-115006860D01*
X166829726Y-119092172D02*
X165923372Y-116601987D01*
X169811144Y-112313673D02*
X170779061Y-114973003D01*
X169178957Y-118237122D02*
X166829726Y-119092172D01*
X171855562Y-115006860D02*
X172112077Y-115711630D01*
X164138027Y-111696791D02*
X165044381Y-114186977D01*
X165044381Y-114186977D02*
X163738208Y-114662385D01*
X170614029Y-111595776D02*
X169811144Y-112313673D01*
X170357514Y-110891007D02*
X170614029Y-111595776D01*
X166487259Y-110841741D02*
X164138027Y-111696791D01*
%LPC*%
G36*
X176962690Y-89957115D02*
G01*
X175946690Y-89957115D01*
X175946690Y-88941115D01*
X176962690Y-88941115D01*
X176962690Y-89957115D01*
G37*
D14*
X176962690Y-89957115D02*
X175946690Y-89957115D01*
X175946690Y-88941115D01*
X176962690Y-88941115D01*
X176962690Y-89957115D01*
G36*
X188341890Y-82337115D02*
G01*
X187325890Y-82337115D01*
X187325890Y-81321115D01*
X188341890Y-81321115D01*
X188341890Y-82337115D01*
G37*
X188341890Y-82337115D02*
X187325890Y-82337115D01*
X187325890Y-81321115D01*
X188341890Y-81321115D01*
X188341890Y-82337115D01*
G36*
X188341890Y-74717115D02*
G01*
X187325890Y-74717115D01*
X187325890Y-73701115D01*
X188341890Y-73701115D01*
X188341890Y-74717115D01*
G37*
X188341890Y-74717115D02*
X187325890Y-74717115D01*
X187325890Y-73701115D01*
X188341890Y-73701115D01*
X188341890Y-74717115D01*
G36*
X176962690Y-82337115D02*
G01*
X175946690Y-82337115D01*
X175946690Y-81321115D01*
X176962690Y-81321115D01*
X176962690Y-82337115D01*
G37*
X176962690Y-82337115D02*
X175946690Y-82337115D01*
X175946690Y-81321115D01*
X176962690Y-81321115D01*
X176962690Y-82337115D01*
G36*
X176962690Y-79797115D02*
G01*
X175946690Y-79797115D01*
X175946690Y-78781115D01*
X176962690Y-78781115D01*
X176962690Y-79797115D01*
G37*
X176962690Y-79797115D02*
X175946690Y-79797115D01*
X175946690Y-78781115D01*
X176962690Y-78781115D01*
X176962690Y-79797115D01*
G36*
X188341890Y-84877115D02*
G01*
X187325890Y-84877115D01*
X187325890Y-83861115D01*
X188341890Y-83861115D01*
X188341890Y-84877115D01*
G37*
X188341890Y-84877115D02*
X187325890Y-84877115D01*
X187325890Y-83861115D01*
X188341890Y-83861115D01*
X188341890Y-84877115D01*
G36*
X188341890Y-87417115D02*
G01*
X187325890Y-87417115D01*
X187325890Y-86401115D01*
X188341890Y-86401115D01*
X188341890Y-87417115D01*
G37*
X188341890Y-87417115D02*
X187325890Y-87417115D01*
X187325890Y-86401115D01*
X188341890Y-86401115D01*
X188341890Y-87417115D01*
G36*
X188341890Y-79797115D02*
G01*
X187325890Y-79797115D01*
X187325890Y-78781115D01*
X188341890Y-78781115D01*
X188341890Y-79797115D01*
G37*
X188341890Y-79797115D02*
X187325890Y-79797115D01*
X187325890Y-78781115D01*
X188341890Y-78781115D01*
X188341890Y-79797115D01*
G36*
X176962690Y-84877115D02*
G01*
X175946690Y-84877115D01*
X175946690Y-83861115D01*
X176962690Y-83861115D01*
X176962690Y-84877115D01*
G37*
X176962690Y-84877115D02*
X175946690Y-84877115D01*
X175946690Y-83861115D01*
X176962690Y-83861115D01*
X176962690Y-84877115D01*
G36*
X188341890Y-77257115D02*
G01*
X187325890Y-77257115D01*
X187325890Y-76241115D01*
X188341890Y-76241115D01*
X188341890Y-77257115D01*
G37*
X188341890Y-77257115D02*
X187325890Y-77257115D01*
X187325890Y-76241115D01*
X188341890Y-76241115D01*
X188341890Y-77257115D01*
G36*
X176962690Y-74717115D02*
G01*
X175946690Y-74717115D01*
X175946690Y-73701115D01*
X176962690Y-73701115D01*
X176962690Y-74717115D01*
G37*
X176962690Y-74717115D02*
X175946690Y-74717115D01*
X175946690Y-73701115D01*
X176962690Y-73701115D01*
X176962690Y-74717115D01*
G36*
X176962690Y-87417115D02*
G01*
X175946690Y-87417115D01*
X175946690Y-86401115D01*
X176962690Y-86401115D01*
X176962690Y-87417115D01*
G37*
X176962690Y-87417115D02*
X175946690Y-87417115D01*
X175946690Y-86401115D01*
X176962690Y-86401115D01*
X176962690Y-87417115D01*
G36*
X176962690Y-77257115D02*
G01*
X175946690Y-77257115D01*
X175946690Y-76241115D01*
X176962690Y-76241115D01*
X176962690Y-77257115D01*
G37*
X176962690Y-77257115D02*
X175946690Y-77257115D01*
X175946690Y-76241115D01*
X176962690Y-76241115D01*
X176962690Y-77257115D01*
G36*
X188341890Y-89957115D02*
G01*
X187325890Y-89957115D01*
X187325890Y-88941115D01*
X188341890Y-88941115D01*
X188341890Y-89957115D01*
G37*
X188341890Y-89957115D02*
X187325890Y-89957115D01*
X187325890Y-88941115D01*
X188341890Y-88941115D01*
X188341890Y-89957115D01*
D15*
X148418959Y-120529809D03*
D16*
X152191578Y-127700573D03*
X157590609Y-126869631D03*
X147931350Y-124281441D03*
D15*
X159044143Y-123376819D03*
D17*
X153731551Y-121953314D03*
D18*
X155354985Y-128548205D03*
X144767943Y-123433808D03*
D19*
X182769290Y-94570649D03*
D20*
X181519290Y-94570649D03*
D15*
X120100890Y-59955115D03*
X131100890Y-59955115D03*
D16*
X130600890Y-56205115D03*
X120600890Y-56205115D03*
D17*
X125600890Y-59955115D03*
D16*
X125600890Y-54005115D03*
D21*
X122325890Y-54005115D03*
X133875890Y-56205115D03*
D22*
X170020551Y-68294714D03*
X170020551Y-64894714D03*
X115766090Y-84043115D03*
X115766090Y-80643115D03*
D23*
X154493551Y-54414714D03*
D24*
X182144290Y-91897710D03*
D25*
X182144290Y-90597710D03*
D22*
X97681290Y-103601115D03*
X97681290Y-100201115D03*
D16*
X107516090Y-92111115D03*
D17*
X107516090Y-98061115D03*
D15*
X102016090Y-98061115D03*
D16*
X112516090Y-94311115D03*
D15*
X113016090Y-98061115D03*
D16*
X102516090Y-94311115D03*
D21*
X104241090Y-92111115D03*
X115791090Y-94311115D03*
D22*
X97681290Y-86633915D03*
X97681290Y-83233915D03*
D16*
X156770490Y-95580715D03*
D15*
X167270490Y-99330715D03*
D16*
X161770490Y-93380715D03*
D15*
X156270490Y-99330715D03*
D16*
X166770490Y-95580715D03*
D17*
X161770490Y-99330715D03*
D21*
X158495490Y-93380715D03*
X170045490Y-95580715D03*
D26*
X162570751Y-109813914D03*
X162570751Y-113213914D03*
D23*
X96733951Y-55659314D03*
D27*
X180735890Y-120981914D03*
X180735890Y-98744714D03*
D28*
X180735890Y-109863314D03*
D26*
X159878351Y-109813914D03*
X159878351Y-113213914D03*
D16*
X94431290Y-79883915D03*
X89431290Y-77683915D03*
D17*
X89431290Y-83633915D03*
D15*
X83931290Y-83633915D03*
X94931290Y-83633915D03*
D16*
X84431290Y-79883915D03*
D21*
X86156290Y-77683915D03*
X97706290Y-79883915D03*
D23*
X100188351Y-108974314D03*
D15*
X167270490Y-65294715D03*
D16*
X161770490Y-59344715D03*
D17*
X161770490Y-65294715D03*
D16*
X156770490Y-61544715D03*
D15*
X156270490Y-65294715D03*
D16*
X166770490Y-61544715D03*
D21*
X158495490Y-59344715D03*
X170045490Y-61544715D03*
D23*
X164272551Y-124417114D03*
D16*
X175998678Y-135828909D03*
D15*
X168780411Y-127331314D03*
D16*
X170568551Y-135234165D03*
D17*
X173543551Y-130081314D03*
D16*
X167338424Y-130828909D03*
D15*
X178306691Y-132831314D03*
D29*
X173404784Y-136871665D03*
X164502191Y-129191409D03*
D16*
X94431290Y-96851115D03*
X84431290Y-96851115D03*
D17*
X89431290Y-100601115D03*
D16*
X89431290Y-94651115D03*
D15*
X83931290Y-100601115D03*
X94931290Y-100601115D03*
D21*
X86156290Y-94651115D03*
X97706290Y-96851115D03*
D15*
X113016090Y-81043115D03*
D17*
X107516090Y-81043115D03*
D15*
X102016090Y-81043115D03*
D16*
X112516090Y-77293115D03*
X102516090Y-77293115D03*
X107516090Y-75093115D03*
D21*
X104241090Y-75093115D03*
X115791090Y-77293115D03*
D22*
X133850890Y-65414514D03*
X133850890Y-62014514D03*
D16*
X138685690Y-93041115D03*
X143685690Y-90841115D03*
D15*
X138185690Y-96791115D03*
D16*
X148685690Y-93041115D03*
D15*
X149185690Y-96791115D03*
D17*
X143685690Y-96791115D03*
D21*
X140410690Y-90841115D03*
X151960690Y-93041115D03*
D16*
X130600890Y-73223115D03*
X125600890Y-71023115D03*
X120600890Y-73223115D03*
D15*
X120100890Y-76973115D03*
X131100890Y-76973115D03*
D17*
X125600890Y-76973115D03*
D21*
X122325890Y-71023115D03*
X133875890Y-73223115D03*
D22*
X151935690Y-67622914D03*
X151935690Y-64222914D03*
X97681290Y-69565115D03*
X97681290Y-66165115D03*
D16*
X143685690Y-73823115D03*
D17*
X143685690Y-79773115D03*
D15*
X149185690Y-79773115D03*
X138185690Y-79773115D03*
D16*
X148685690Y-76023115D03*
X138685690Y-76023115D03*
D21*
X140410690Y-73823115D03*
X151960690Y-76023115D03*
D30*
X174585490Y-76749115D03*
X189688090Y-84369115D03*
X174585490Y-79289115D03*
D31*
X176200690Y-76749115D03*
D30*
X189688090Y-79289115D03*
D32*
X188087890Y-76749115D03*
D30*
X174585490Y-84369115D03*
D32*
X188087890Y-86909115D03*
D30*
X174585490Y-74209115D03*
D31*
X176200690Y-81829115D03*
D32*
X188087890Y-81829115D03*
D30*
X189688090Y-76749115D03*
X174585490Y-89449115D03*
D32*
X188087890Y-89449115D03*
D31*
X176200690Y-84369115D03*
D32*
X188087890Y-79289115D03*
D30*
X189688090Y-81829115D03*
X174585490Y-81829115D03*
X189688090Y-86909115D03*
X174585490Y-86909115D03*
D31*
X176200690Y-74209115D03*
D30*
X189688090Y-89449115D03*
D32*
X188087890Y-74209115D03*
D31*
X176200690Y-86909115D03*
D32*
X188087890Y-84369115D03*
D31*
X176200690Y-79289115D03*
D30*
X189688090Y-74209115D03*
D31*
X176200690Y-89449115D03*
D33*
X187071890Y-74209115D03*
X187071890Y-76749115D03*
X187071890Y-79289115D03*
X187071890Y-81829115D03*
X187071890Y-84369115D03*
X187071890Y-86909115D03*
X187071890Y-89449115D03*
D34*
X177216690Y-89449115D03*
X177216690Y-86909115D03*
X177216690Y-84369115D03*
X177216690Y-81829115D03*
X177216690Y-79289115D03*
X177216690Y-76749115D03*
X177216690Y-74209115D03*
D16*
X84431290Y-62815115D03*
X94431290Y-62815115D03*
D15*
X83931290Y-66565115D03*
D16*
X89431290Y-60615115D03*
D17*
X89431290Y-66565115D03*
D15*
X94931290Y-66565115D03*
D21*
X86156290Y-60615115D03*
X97706290Y-62815115D03*
D22*
X170020490Y-85312715D03*
X170020490Y-81912715D03*
D23*
X151394751Y-108872314D03*
D22*
X170020490Y-102330715D03*
X170020490Y-98930715D03*
D35*
X183394290Y-95380453D03*
D36*
X180854290Y-95380453D03*
D22*
X151935690Y-101659114D03*
X151935690Y-98259114D03*
D37*
X188275551Y-95626915D03*
D38*
X184586939Y-129023476D03*
X183086939Y-131621552D03*
D37*
X187208751Y-122588314D03*
D16*
X130600890Y-90241115D03*
D17*
X125600890Y-93991115D03*
D15*
X131100890Y-93991115D03*
D16*
X125600890Y-88041115D03*
D15*
X120100890Y-93991115D03*
D16*
X120600890Y-90241115D03*
D21*
X122325890Y-88041115D03*
X133875890Y-90241115D03*
D22*
X115766090Y-67025115D03*
X115766090Y-63625115D03*
X133850890Y-82432514D03*
X133850890Y-79032514D03*
X151935690Y-84641114D03*
X151935690Y-81241114D03*
D17*
X107516090Y-64025115D03*
D15*
X102016090Y-64025115D03*
X113016090Y-64025115D03*
D16*
X102516090Y-60275115D03*
X112516090Y-60275115D03*
X107516090Y-58075115D03*
D21*
X104241090Y-58075115D03*
X115791090Y-60275115D03*
D37*
X175078265Y-95626915D03*
D15*
X167270490Y-82312715D03*
D16*
X156770490Y-78562715D03*
D15*
X156270490Y-82312715D03*
D17*
X161770490Y-82312715D03*
D16*
X161770490Y-76362715D03*
X166770490Y-78562715D03*
D21*
X158495490Y-76362715D03*
X170045490Y-78562715D03*
D22*
X133850890Y-99450514D03*
X133850890Y-96050514D03*
X115766090Y-101061115D03*
X115766090Y-97661115D03*
D15*
X138185690Y-62754915D03*
D16*
X148685690Y-59004915D03*
X143685690Y-56804915D03*
D17*
X143685690Y-62754915D03*
D16*
X138685690Y-59004915D03*
D15*
X149185690Y-62754915D03*
D21*
X140410690Y-56804915D03*
X151960690Y-59004915D03*
D38*
X184586939Y-129023476D03*
D39*
X181050651Y-132928507D03*
X186614567Y-127711521D03*
X184700651Y-126606521D03*
X182964567Y-134033507D03*
D38*
X183086939Y-131621552D03*
D40*
X183437735Y-127493957D03*
X181937735Y-130092033D03*
X181187735Y-131391071D03*
D41*
X108412151Y-116898714D03*
D42*
X109002151Y-116898714D03*
D43*
X107568554Y-118530269D03*
D44*
X108660754Y-118870191D03*
D45*
X108655357Y-119210114D03*
D46*
X164856649Y-114957663D03*
X165284174Y-116132278D03*
D47*
X168462893Y-110612190D03*
X170839933Y-117143054D03*
M02*
