G04 #@! TF.GenerationSoftware,KiCad,Pcbnew,(6.0.6-0)*
G04 #@! TF.CreationDate,2022-07-10T15:08:16+08:00*
G04 #@! TF.ProjectId,Kretstr_d,4b726574-7374-472e-9464-2e6b69636164,rev?*
G04 #@! TF.SameCoordinates,Original*
G04 #@! TF.FileFunction,Legend,Top*
G04 #@! TF.FilePolarity,Positive*
%FSLAX46Y46*%
G04 Gerber Fmt 4.6, Leading zero omitted, Abs format (unit mm)*
G04 Created by KiCad (PCBNEW (6.0.6-0)) date 2022-07-10 15:08:16*
%MOMM*%
%LPD*%
G01*
G04 APERTURE LIST*
%ADD10C,0.150000*%
%ADD11C,0.120000*%
%ADD12C,0.200000*%
G04 APERTURE END LIST*
D10*
X179484137Y-94780396D02*
X178722232Y-94780396D01*
X164508816Y-114993737D02*
X164051674Y-114993737D01*
X166490016Y-118498937D02*
X166032874Y-118498937D01*
X166261445Y-118270366D02*
X166261445Y-118727509D01*
X185630937Y-94780396D02*
X184869032Y-94780396D01*
X185249985Y-95161348D02*
X185249985Y-94399444D01*
D11*
X108209555Y-109650816D02*
X108423346Y-108879912D01*
X108650072Y-109772982D02*
X108441851Y-109240841D01*
X108863863Y-109002078D02*
X108301180Y-109320429D01*
X108980460Y-109864607D02*
X109122987Y-109350671D01*
X109082265Y-109497509D02*
X109139336Y-109434271D01*
X109186226Y-109407741D01*
X109269826Y-109391393D01*
X109343245Y-109411754D01*
X109761545Y-110041688D02*
X109677945Y-110058036D01*
X109531106Y-110017314D01*
X109467867Y-109960244D01*
X109451518Y-109876644D01*
X109532962Y-109582966D01*
X109590033Y-109519727D01*
X109673633Y-109503378D01*
X109820472Y-109544100D01*
X109883711Y-109601171D01*
X109900060Y-109684771D01*
X109879699Y-109758190D01*
X109492240Y-109729805D01*
X110150859Y-109635725D02*
X110444537Y-109717169D01*
X110332252Y-109409298D02*
X110149003Y-110070073D01*
X110165352Y-110153673D01*
X110228591Y-110210744D01*
X110302010Y-110231105D01*
X110532449Y-110255478D02*
X110595688Y-110312549D01*
X110742527Y-110353271D01*
X110826127Y-110336923D01*
X110883198Y-110273684D01*
X110893378Y-110236974D01*
X110877029Y-110153374D01*
X110813791Y-110096303D01*
X110703661Y-110065762D01*
X110640422Y-110008691D01*
X110624074Y-109925091D01*
X110634254Y-109888381D01*
X110691325Y-109825142D01*
X110774925Y-109808793D01*
X110885054Y-109839335D01*
X110948293Y-109896406D01*
X111215442Y-109930960D02*
X111509120Y-110012404D01*
X111396834Y-109704533D02*
X111213585Y-110365308D01*
X111229934Y-110448908D01*
X111293173Y-110505979D01*
X111366592Y-110526340D01*
X111623561Y-110597603D02*
X111766088Y-110083667D01*
X111725366Y-110230506D02*
X111782436Y-110167267D01*
X111829327Y-110140738D01*
X111912927Y-110124389D01*
X111986346Y-110144750D01*
X112431175Y-110821575D02*
X112543160Y-110417768D01*
X112526812Y-110334168D01*
X112463573Y-110277097D01*
X112316734Y-110236375D01*
X112233134Y-110252724D01*
X112441355Y-110784865D02*
X112357755Y-110801214D01*
X112174206Y-110750311D01*
X112110968Y-110693240D01*
X112094619Y-110609640D01*
X112114980Y-110536221D01*
X112172051Y-110472982D01*
X112255651Y-110456633D01*
X112439199Y-110507536D01*
X112522799Y-110491187D01*
X112314578Y-109959046D02*
X112341107Y-110005936D01*
X112294217Y-110032465D01*
X112267687Y-109985575D01*
X112314578Y-109959046D01*
X112294217Y-110032465D01*
X112608256Y-110040490D02*
X112634785Y-110087380D01*
X112587895Y-110113909D01*
X112561365Y-110067019D01*
X112608256Y-110040490D01*
X112587895Y-110113909D01*
X113128660Y-111015004D02*
X113342450Y-110244100D01*
X113138840Y-110978295D02*
X113055240Y-110994643D01*
X112908401Y-110953921D01*
X112845162Y-110896851D01*
X112818633Y-110849960D01*
X112802284Y-110766360D01*
X112863367Y-110546102D01*
X112920438Y-110482863D01*
X112967328Y-110456334D01*
X113050928Y-110439985D01*
X113197767Y-110480707D01*
X113261006Y-110537778D01*
X113542647Y-111090280D02*
X113532467Y-111126990D01*
X113475396Y-111190229D01*
X113428506Y-111216758D01*
X114911088Y-111430249D02*
X114864197Y-111456779D01*
X114743888Y-111462947D01*
X114670468Y-111442586D01*
X114570520Y-111375335D01*
X114517461Y-111281554D01*
X114501112Y-111197954D01*
X114505125Y-111040935D01*
X114535666Y-110930805D01*
X114613098Y-110794147D01*
X114670169Y-110730908D01*
X114763949Y-110677850D01*
X114884259Y-110671681D01*
X114957678Y-110692042D01*
X115057627Y-110759294D01*
X115084156Y-110806184D01*
X115221114Y-111595293D02*
X115363641Y-111081357D01*
X115434905Y-110824389D02*
X115388015Y-110850918D01*
X115414544Y-110897809D01*
X115461434Y-110871279D01*
X115434905Y-110824389D01*
X115414544Y-110897809D01*
X115588212Y-111697099D02*
X115730739Y-111183162D01*
X115690017Y-111330001D02*
X115747087Y-111266762D01*
X115793978Y-111240233D01*
X115877578Y-111223884D01*
X115950997Y-111244245D01*
X116406006Y-111884360D02*
X116322406Y-111900709D01*
X116175567Y-111859987D01*
X116112328Y-111802916D01*
X116085799Y-111756026D01*
X116069450Y-111672426D01*
X116130533Y-111452167D01*
X116187604Y-111388928D01*
X116234494Y-111362399D01*
X116318094Y-111346050D01*
X116464933Y-111386772D01*
X116528172Y-111443843D01*
X117199128Y-111590383D02*
X117056601Y-112104319D01*
X116868740Y-111498758D02*
X116756755Y-111902565D01*
X116773103Y-111986165D01*
X116836342Y-112043236D01*
X116946472Y-112073777D01*
X117030072Y-112057429D01*
X117076962Y-112030899D01*
X117423698Y-112206124D02*
X117566225Y-111692188D01*
X117637489Y-111435220D02*
X117590599Y-111461749D01*
X117617128Y-111508639D01*
X117664018Y-111482110D01*
X117637489Y-111435220D01*
X117617128Y-111508639D01*
X117823193Y-111763451D02*
X118116871Y-111844895D01*
X118004586Y-111537025D02*
X117821337Y-112197800D01*
X117837686Y-112281400D01*
X117900925Y-112338471D01*
X117974344Y-112358832D01*
X118922329Y-111791537D02*
X119362846Y-111913704D01*
X118928797Y-112623525D02*
X119142588Y-111852621D01*
X119406024Y-112755872D02*
X119548551Y-112241935D01*
X119507829Y-112388774D02*
X119564899Y-112325535D01*
X119611790Y-112299006D01*
X119695390Y-112282657D01*
X119768809Y-112303018D01*
X120187108Y-112932952D02*
X120103509Y-112949301D01*
X119956670Y-112908579D01*
X119893431Y-112851508D01*
X119877082Y-112767908D01*
X119958526Y-112474231D01*
X120015597Y-112410992D01*
X120099197Y-112394643D01*
X120246036Y-112435365D01*
X120309275Y-112492436D01*
X120325623Y-112576036D01*
X120305262Y-112649455D01*
X119917804Y-112621070D01*
X120847884Y-113116202D02*
X120764284Y-113132550D01*
X120617445Y-113091828D01*
X120554206Y-113034758D01*
X120537857Y-112951158D01*
X120619301Y-112657480D01*
X120676372Y-112594241D01*
X120759972Y-112577892D01*
X120906811Y-112618614D01*
X120970050Y-112675685D01*
X120986398Y-112759285D01*
X120966037Y-112832704D01*
X120578579Y-112804319D01*
X121251691Y-113228187D02*
X121241510Y-113264897D01*
X121184439Y-113328136D01*
X121137549Y-113354665D01*
X122620131Y-113568156D02*
X122573241Y-113594686D01*
X122452931Y-113600854D01*
X122379512Y-113580493D01*
X122279563Y-113513242D01*
X122226505Y-113419461D01*
X122210156Y-113335861D01*
X122214168Y-113178842D01*
X122244710Y-113068712D01*
X122322142Y-112932054D01*
X122379212Y-112868815D01*
X122472993Y-112815757D01*
X122593303Y-112809588D01*
X122666722Y-112829949D01*
X122766671Y-112897201D01*
X122793200Y-112944091D01*
X122930158Y-113733200D02*
X123072685Y-113219264D01*
X123143949Y-112962296D02*
X123097058Y-112988825D01*
X123123588Y-113035716D01*
X123170478Y-113009186D01*
X123143949Y-112962296D01*
X123123588Y-113035716D01*
X123297255Y-113835006D02*
X123439782Y-113321069D01*
X123399060Y-113467908D02*
X123456131Y-113404669D01*
X123503021Y-113378140D01*
X123586621Y-113361791D01*
X123660041Y-113382152D01*
X124115050Y-114022267D02*
X124031450Y-114038616D01*
X123884611Y-113997894D01*
X123821372Y-113940823D01*
X123794843Y-113893933D01*
X123778494Y-113810333D01*
X123839577Y-113590074D01*
X123896648Y-113526835D01*
X123943538Y-113500306D01*
X124027138Y-113483957D01*
X124173977Y-113524679D01*
X124237216Y-113581750D01*
X124908172Y-113728290D02*
X124765644Y-114242226D01*
X124577784Y-113636665D02*
X124465798Y-114040472D01*
X124482147Y-114124072D01*
X124545386Y-114181143D01*
X124655515Y-114211684D01*
X124739115Y-114195336D01*
X124786005Y-114168806D01*
X125132742Y-114344031D02*
X125275269Y-113830095D01*
X125346532Y-113573127D02*
X125299642Y-113599656D01*
X125326171Y-113646546D01*
X125373062Y-113620017D01*
X125346532Y-113573127D01*
X125326171Y-113646546D01*
X125532237Y-113901358D02*
X125825915Y-113982802D01*
X125713630Y-113674932D02*
X125530381Y-114335707D01*
X125546729Y-114419307D01*
X125609968Y-114476378D01*
X125683388Y-114496739D01*
X125940356Y-114568002D02*
X126082883Y-114054066D01*
X126042161Y-114200905D02*
X126099232Y-114137666D01*
X126146122Y-114111137D01*
X126229722Y-114094788D01*
X126303141Y-114115149D01*
X126486690Y-114166052D02*
X126527712Y-114730890D01*
X126853787Y-114267857D02*
X126527712Y-114730890D01*
X126403390Y-114894078D01*
X126356499Y-114920607D01*
X126272899Y-114936956D01*
X107521149Y-112133128D02*
X107734940Y-111362224D01*
X107961666Y-112255294D01*
X108175457Y-111484390D01*
X108689393Y-111626917D02*
X108836232Y-111667639D01*
X108899471Y-111724710D01*
X108952530Y-111818490D01*
X108948517Y-111975510D01*
X108877254Y-112232478D01*
X108799822Y-112369136D01*
X108706041Y-112422195D01*
X108622441Y-112438543D01*
X108475603Y-112397821D01*
X108412364Y-112340751D01*
X108359305Y-112246970D01*
X108363317Y-112089951D01*
X108434581Y-111832983D01*
X108512013Y-111696324D01*
X108605793Y-111643266D01*
X108689393Y-111626917D01*
X109350168Y-111810166D02*
X109177100Y-112434232D01*
X109193448Y-112517832D01*
X109219978Y-112564722D01*
X109283217Y-112621793D01*
X109430056Y-112662515D01*
X109513656Y-112646166D01*
X109560546Y-112619637D01*
X109617616Y-112556398D01*
X109790685Y-111932332D01*
X109943992Y-112805042D02*
X110157782Y-112034137D01*
X110384509Y-112927208D01*
X110598299Y-112156303D01*
X107580754Y-113486270D02*
X107140237Y-113364104D01*
X107360495Y-113425187D02*
X107574286Y-112654282D01*
X107470325Y-112744050D01*
X107376544Y-112797109D01*
X107292944Y-112813458D01*
X107931502Y-113504475D02*
X107958031Y-113551365D01*
X107911141Y-113577894D01*
X107884612Y-113531004D01*
X107931502Y-113504475D01*
X107911141Y-113577894D01*
X108897992Y-113298110D02*
X109191670Y-113379554D01*
X109079385Y-113071683D02*
X108896136Y-113732458D01*
X108912484Y-113816058D01*
X108975723Y-113873129D01*
X109049143Y-113893490D01*
X109306111Y-113964754D02*
X109519902Y-113193849D01*
X109636499Y-114056378D02*
X109748484Y-113652571D01*
X109732135Y-113568971D01*
X109668896Y-113511900D01*
X109558767Y-113481359D01*
X109475167Y-113497708D01*
X109428277Y-113524237D01*
X110307454Y-114202918D02*
X110223854Y-114219266D01*
X110077015Y-114178544D01*
X110013776Y-114121474D01*
X109997428Y-114037874D01*
X110078872Y-113744196D01*
X110135942Y-113680957D01*
X110219542Y-113664608D01*
X110366381Y-113705330D01*
X110429620Y-113762401D01*
X110445969Y-113846001D01*
X110425608Y-113919420D01*
X110038150Y-113891035D01*
X111225197Y-114457430D02*
X111288436Y-114514501D01*
X111435275Y-114555223D01*
X111518875Y-114538874D01*
X111575946Y-114475636D01*
X111586127Y-114438926D01*
X111569778Y-114355326D01*
X111506539Y-114298255D01*
X111396410Y-114267714D01*
X111333171Y-114210643D01*
X111316822Y-114127043D01*
X111327003Y-114090333D01*
X111384073Y-114027094D01*
X111467673Y-114010745D01*
X111577802Y-114041287D01*
X111641041Y-114098358D01*
X112216360Y-114732304D02*
X112132760Y-114748653D01*
X111985921Y-114707931D01*
X111922682Y-114650860D01*
X111896153Y-114603970D01*
X111879804Y-114520370D01*
X111940887Y-114300111D01*
X111997958Y-114236873D01*
X112044848Y-114210343D01*
X112128448Y-114193995D01*
X112275287Y-114234717D01*
X112338526Y-114291787D01*
X112536567Y-114860638D02*
X112679094Y-114346702D01*
X112750358Y-114089734D02*
X112703468Y-114116263D01*
X112729997Y-114163154D01*
X112776887Y-114136624D01*
X112750358Y-114089734D01*
X112729997Y-114163154D01*
X113207523Y-115007178D02*
X113123923Y-115023527D01*
X112977084Y-114982805D01*
X112913845Y-114925734D01*
X112897496Y-114842134D01*
X112978940Y-114548456D01*
X113036011Y-114485217D01*
X113119611Y-114468868D01*
X113266450Y-114509590D01*
X113329689Y-114566661D01*
X113346038Y-114650261D01*
X113325677Y-114723681D01*
X112938218Y-114695295D01*
X113706967Y-114631757D02*
X113564440Y-115145693D01*
X113686606Y-114705176D02*
X113733496Y-114678647D01*
X113817096Y-114662298D01*
X113927225Y-114692840D01*
X113990464Y-114749910D01*
X114006813Y-114833510D01*
X113894827Y-115237317D01*
X114602493Y-115394037D02*
X114518893Y-115410386D01*
X114372054Y-115369664D01*
X114308815Y-115312593D01*
X114282286Y-115265703D01*
X114265937Y-115182103D01*
X114327020Y-114961845D01*
X114384091Y-114898606D01*
X114430981Y-114872076D01*
X114514581Y-114855728D01*
X114661420Y-114896450D01*
X114724659Y-114953521D01*
X115226558Y-115567106D02*
X115142958Y-115583455D01*
X114996119Y-115542733D01*
X114932880Y-115485662D01*
X114916532Y-115402062D01*
X114997976Y-115108384D01*
X115055046Y-115045145D01*
X115138646Y-115028796D01*
X115285485Y-115069518D01*
X115348724Y-115126589D01*
X115365073Y-115210189D01*
X115344712Y-115283609D01*
X114957254Y-115255223D01*
X116280960Y-115899050D02*
X116217721Y-115841980D01*
X116191192Y-115795089D01*
X116174843Y-115711489D01*
X116235926Y-115491231D01*
X116292997Y-115427992D01*
X116339887Y-115401463D01*
X116423487Y-115385114D01*
X116533616Y-115415656D01*
X116596855Y-115472727D01*
X116623384Y-115519617D01*
X116639733Y-115603217D01*
X116578650Y-115823475D01*
X116521579Y-115886714D01*
X116474689Y-115913243D01*
X116391089Y-115929592D01*
X116280960Y-115899050D01*
X116900714Y-115517461D02*
X117194391Y-115598905D01*
X116868316Y-116061939D02*
X117051565Y-115401163D01*
X117108636Y-115337924D01*
X117192236Y-115321576D01*
X117265655Y-115341937D01*
X118226576Y-116438617D02*
X118440366Y-115667713D01*
X118236756Y-116401908D02*
X118153156Y-116418256D01*
X118006317Y-116377534D01*
X117943078Y-116320464D01*
X117916549Y-116273573D01*
X117900200Y-116189973D01*
X117961283Y-115969715D01*
X118018354Y-115906476D01*
X118065244Y-115879947D01*
X118148844Y-115863598D01*
X118295683Y-115904320D01*
X118358922Y-115961391D01*
X118897531Y-116585157D02*
X118813931Y-116601506D01*
X118667092Y-116560784D01*
X118603854Y-116503713D01*
X118587505Y-116420113D01*
X118668949Y-116126435D01*
X118726020Y-116063196D01*
X118809620Y-116046847D01*
X118956459Y-116087569D01*
X119019697Y-116144640D01*
X119036046Y-116228240D01*
X119015685Y-116301660D01*
X118628227Y-116273274D01*
X119227919Y-116676781D02*
X119291158Y-116733852D01*
X119437997Y-116774574D01*
X119521597Y-116758226D01*
X119578668Y-116694987D01*
X119588848Y-116658277D01*
X119572499Y-116574677D01*
X119509260Y-116517606D01*
X119399131Y-116487065D01*
X119335892Y-116429994D01*
X119319544Y-116346394D01*
X119329724Y-116309684D01*
X119386795Y-116246445D01*
X119470395Y-116230097D01*
X119580524Y-116260638D01*
X119643763Y-116317709D01*
X119878514Y-116896740D02*
X120021041Y-116382804D01*
X120092304Y-116125836D02*
X120045414Y-116152365D01*
X120071943Y-116199256D01*
X120118834Y-116172726D01*
X120092304Y-116125836D01*
X120071943Y-116199256D01*
X120718526Y-116576234D02*
X120545457Y-117200299D01*
X120488386Y-117263538D01*
X120441496Y-117290067D01*
X120357896Y-117306416D01*
X120247767Y-117275875D01*
X120184528Y-117218804D01*
X120586179Y-117053460D02*
X120502579Y-117069809D01*
X120355740Y-117029087D01*
X120292501Y-116972016D01*
X120265972Y-116925126D01*
X120249623Y-116841526D01*
X120310706Y-116621268D01*
X120367777Y-116558029D01*
X120414667Y-116531499D01*
X120498267Y-116515151D01*
X120645106Y-116555873D01*
X120708345Y-116612944D01*
X121085623Y-116678039D02*
X120943096Y-117191975D01*
X121065262Y-116751458D02*
X121112152Y-116724929D01*
X121195752Y-116708580D01*
X121305881Y-116739122D01*
X121369120Y-116796193D01*
X121385469Y-116879793D01*
X121273483Y-117283600D01*
X121640581Y-117385405D02*
X121783108Y-116871469D01*
X121854371Y-116614500D02*
X121807481Y-116641030D01*
X121834010Y-116687920D01*
X121880901Y-116661391D01*
X121854371Y-116614500D01*
X121834010Y-116687920D01*
X122150205Y-116973274D02*
X122007678Y-117487210D01*
X122129844Y-117046693D02*
X122176734Y-117020164D01*
X122260334Y-117003815D01*
X122370464Y-117034357D01*
X122433703Y-117091428D01*
X122450051Y-117175027D01*
X122338066Y-117578835D01*
X123178078Y-117258328D02*
X123005009Y-117882393D01*
X122947938Y-117945632D01*
X122901048Y-117972162D01*
X122817448Y-117988510D01*
X122707319Y-117957969D01*
X122644080Y-117900898D01*
X123045731Y-117735554D02*
X122962131Y-117751903D01*
X122815292Y-117711181D01*
X122752053Y-117654110D01*
X122725524Y-117607220D01*
X122709175Y-117523620D01*
X122770258Y-117303362D01*
X122827329Y-117240123D01*
X122874219Y-117213594D01*
X122957819Y-117197245D01*
X123104658Y-117237967D01*
X123167897Y-117295038D01*
X124293862Y-118081692D02*
X124210262Y-118098041D01*
X124063423Y-118057318D01*
X124000184Y-118000248D01*
X123983835Y-117916648D01*
X124065279Y-117622970D01*
X124122350Y-117559731D01*
X124205950Y-117543382D01*
X124352789Y-117584104D01*
X124416028Y-117641175D01*
X124432377Y-117724775D01*
X124412016Y-117798194D01*
X124024557Y-117769809D01*
X124760908Y-118250748D02*
X124697669Y-118193677D01*
X124681320Y-118110077D01*
X124864569Y-117449302D01*
X125358444Y-118376927D02*
X125274844Y-118393275D01*
X125128005Y-118352553D01*
X125064766Y-118295483D01*
X125048418Y-118211883D01*
X125129862Y-117918205D01*
X125186932Y-117854966D01*
X125270532Y-117838617D01*
X125417371Y-117879339D01*
X125480610Y-117936410D01*
X125496959Y-118020010D01*
X125476598Y-118093429D01*
X125089140Y-118065044D01*
X126055929Y-118570356D02*
X125972329Y-118586705D01*
X125825490Y-118545983D01*
X125762251Y-118488912D01*
X125735722Y-118442022D01*
X125719373Y-118358422D01*
X125780456Y-118138164D01*
X125837527Y-118074925D01*
X125884417Y-118048395D01*
X125968017Y-118032047D01*
X126114856Y-118072769D01*
X126178095Y-118129839D01*
X126408534Y-118154213D02*
X126702212Y-118235657D01*
X126589927Y-117927786D02*
X126406678Y-118588561D01*
X126423026Y-118672161D01*
X126486265Y-118729232D01*
X126559685Y-118749593D01*
X126816653Y-118820857D02*
X126959180Y-118306920D01*
X126918458Y-118453759D02*
X126975529Y-118390520D01*
X127022419Y-118363991D01*
X127106019Y-118347643D01*
X127179438Y-118368004D01*
X127293879Y-118953203D02*
X127436407Y-118439267D01*
X127507670Y-118182299D02*
X127460780Y-118208828D01*
X127487309Y-118255718D01*
X127534199Y-118229189D01*
X127507670Y-118182299D01*
X127487309Y-118255718D01*
X128001545Y-119109923D02*
X127917945Y-119126272D01*
X127771106Y-119085550D01*
X127707867Y-119028479D01*
X127681338Y-118981589D01*
X127664989Y-118897989D01*
X127726072Y-118677731D01*
X127783143Y-118614492D01*
X127830033Y-118587962D01*
X127913633Y-118571614D01*
X128060472Y-118612336D01*
X128123711Y-118669407D01*
X108704940Y-115134646D02*
X108641701Y-115077575D01*
X108615172Y-115030685D01*
X108598823Y-114947085D01*
X108659906Y-114726827D01*
X108716977Y-114663588D01*
X108763867Y-114637059D01*
X108847467Y-114620710D01*
X108957596Y-114651251D01*
X109020835Y-114708322D01*
X109047364Y-114755212D01*
X109063713Y-114838812D01*
X109002630Y-115059071D01*
X108945559Y-115122310D01*
X108898669Y-115148839D01*
X108815069Y-115165188D01*
X108704940Y-115134646D01*
X109292296Y-115297534D02*
X109434823Y-114783598D01*
X109394101Y-114930437D02*
X109451171Y-114867198D01*
X109498062Y-114840669D01*
X109581662Y-114824320D01*
X109655081Y-114844681D01*
X110660736Y-115637503D02*
X110577136Y-115653852D01*
X110430297Y-115613130D01*
X110367058Y-115556059D01*
X110350710Y-115472459D01*
X110432154Y-115178781D01*
X110489224Y-115115542D01*
X110572824Y-115099194D01*
X110719663Y-115139916D01*
X110782902Y-115196987D01*
X110799251Y-115280587D01*
X110778890Y-115354006D01*
X110391432Y-115325620D01*
X111127782Y-115806560D02*
X111064543Y-115749489D01*
X111048194Y-115665889D01*
X111231444Y-115005114D01*
X111725318Y-115932738D02*
X111641718Y-115949087D01*
X111494879Y-115908365D01*
X111431640Y-115851294D01*
X111415292Y-115767694D01*
X111496736Y-115474016D01*
X111553807Y-115410777D01*
X111637407Y-115394429D01*
X111784245Y-115435151D01*
X111847484Y-115492221D01*
X111863833Y-115575821D01*
X111843472Y-115649241D01*
X111456014Y-115620855D01*
X112422803Y-116126168D02*
X112339203Y-116142517D01*
X112192364Y-116101794D01*
X112129125Y-116044724D01*
X112102596Y-115997833D01*
X112086247Y-115914234D01*
X112147330Y-115693975D01*
X112204401Y-115630736D01*
X112251291Y-115604207D01*
X112334891Y-115587858D01*
X112481730Y-115628580D01*
X112544969Y-115685651D01*
X112775408Y-115710024D02*
X113069086Y-115791468D01*
X112956801Y-115483598D02*
X112773552Y-116144373D01*
X112789901Y-116227973D01*
X112853139Y-116285044D01*
X112926559Y-116305405D01*
X113183527Y-116376668D02*
X113326054Y-115862732D01*
X113285332Y-116009571D02*
X113342403Y-115946332D01*
X113389293Y-115919803D01*
X113472893Y-115903454D01*
X113546313Y-115923815D01*
X113770883Y-116539556D02*
X113707644Y-116482486D01*
X113681115Y-116435595D01*
X113664766Y-116351995D01*
X113725849Y-116131737D01*
X113782920Y-116068498D01*
X113829810Y-116041969D01*
X113913410Y-116025620D01*
X114023539Y-116056162D01*
X114086778Y-116113232D01*
X114113307Y-116160123D01*
X114129656Y-116243723D01*
X114068573Y-116463981D01*
X114011502Y-116527220D01*
X113964612Y-116553749D01*
X113881012Y-116570098D01*
X113770883Y-116539556D01*
X114500766Y-116188508D02*
X114358238Y-116702445D01*
X114480405Y-116261928D02*
X114527295Y-116235399D01*
X114610895Y-116219050D01*
X114721024Y-116249591D01*
X114784263Y-116306662D01*
X114800612Y-116390262D01*
X114688626Y-116794069D01*
X115055723Y-116895874D02*
X115198250Y-116381938D01*
X115269514Y-116124970D02*
X115222624Y-116151499D01*
X115249153Y-116198389D01*
X115296043Y-116171860D01*
X115269514Y-116124970D01*
X115249153Y-116198389D01*
X115763389Y-117052594D02*
X115679789Y-117068943D01*
X115532950Y-117028221D01*
X115469711Y-116971150D01*
X115443182Y-116924260D01*
X115426833Y-116840660D01*
X115487916Y-116620402D01*
X115544987Y-116557163D01*
X115591877Y-116530633D01*
X115675477Y-116514285D01*
X115822316Y-116555007D01*
X115885555Y-116612077D01*
X117011520Y-117398732D02*
X116927920Y-117415080D01*
X116781081Y-117374358D01*
X116717842Y-117317287D01*
X116691313Y-117270397D01*
X116674964Y-117186797D01*
X116736047Y-116966539D01*
X116793118Y-116903300D01*
X116840008Y-116876771D01*
X116923608Y-116860422D01*
X117070447Y-116901144D01*
X117133686Y-116958215D01*
X117331727Y-117527066D02*
X117474254Y-117013130D01*
X117545517Y-116756161D02*
X117498627Y-116782691D01*
X117525156Y-116829581D01*
X117572047Y-116803052D01*
X117545517Y-116756161D01*
X117525156Y-116829581D01*
X117698824Y-117628871D02*
X117841351Y-117114935D01*
X117800629Y-117261774D02*
X117857700Y-117198535D01*
X117904590Y-117172005D01*
X117988190Y-117155657D01*
X118061610Y-117176018D01*
X118516619Y-117816132D02*
X118433019Y-117832481D01*
X118286180Y-117791759D01*
X118222941Y-117734688D01*
X118196412Y-117687798D01*
X118180063Y-117604198D01*
X118241146Y-117383940D01*
X118298217Y-117320701D01*
X118345107Y-117294172D01*
X118428707Y-117277823D01*
X118575546Y-117318545D01*
X118638785Y-117375616D01*
X119309740Y-117522155D02*
X119167213Y-118036091D01*
X118979353Y-117430530D02*
X118867367Y-117834338D01*
X118883716Y-117917937D01*
X118946955Y-117975008D01*
X119057084Y-118005550D01*
X119140684Y-117989201D01*
X119187574Y-117962672D01*
X119534311Y-118137896D02*
X119676838Y-117623960D01*
X119748101Y-117366992D02*
X119701211Y-117393521D01*
X119727740Y-117440412D01*
X119774631Y-117413882D01*
X119748101Y-117366992D01*
X119727740Y-117440412D01*
X119933806Y-117695224D02*
X120227484Y-117776668D01*
X120115199Y-117468797D02*
X119931949Y-118129572D01*
X119948298Y-118213172D01*
X120011537Y-118270243D01*
X120084957Y-118290604D01*
X120315395Y-118314977D02*
X120378634Y-118372048D01*
X120525473Y-118412770D01*
X120609073Y-118396421D01*
X120666144Y-118333182D01*
X120676325Y-118296473D01*
X120659976Y-118212873D01*
X120596737Y-118155802D01*
X120486608Y-118125261D01*
X120423369Y-118068190D01*
X120407020Y-117984590D01*
X120417201Y-117947880D01*
X120474271Y-117884641D01*
X120557871Y-117868292D01*
X120668000Y-117898834D01*
X120731239Y-117955905D01*
X120986351Y-118461517D02*
X121012880Y-118508407D01*
X120965990Y-118534936D01*
X120939461Y-118488046D01*
X120986351Y-118461517D01*
X120965990Y-118534936D01*
X106645260Y-115148931D02*
X106692151Y-115122401D01*
X106775751Y-115106053D01*
X106959299Y-115156955D01*
X107022538Y-115214026D01*
X107049067Y-115260916D01*
X107065416Y-115344516D01*
X107045055Y-115417936D01*
X106977804Y-115517884D01*
X106415121Y-115836235D01*
X106892348Y-115968582D01*
X107243096Y-115986787D02*
X107269625Y-116033677D01*
X107222735Y-116060206D01*
X107196206Y-116013316D01*
X107243096Y-115986787D01*
X107222735Y-116060206D01*
X108209586Y-115780422D02*
X108503264Y-115861866D01*
X108390979Y-115553995D02*
X108207730Y-116214770D01*
X108224078Y-116298370D01*
X108287317Y-116355441D01*
X108360737Y-116375802D01*
X108617705Y-116447066D02*
X108831496Y-115676161D01*
X108948093Y-116538690D02*
X109060078Y-116134883D01*
X109043729Y-116051283D01*
X108980490Y-115994212D01*
X108870361Y-115963671D01*
X108786761Y-115980020D01*
X108739871Y-116006549D01*
X109619048Y-116685230D02*
X109535448Y-116701578D01*
X109388609Y-116660856D01*
X109325370Y-116603786D01*
X109309022Y-116520186D01*
X109390466Y-116226508D01*
X109447536Y-116163269D01*
X109531136Y-116146920D01*
X109677975Y-116187642D01*
X109741214Y-116244713D01*
X109757563Y-116328313D01*
X109737202Y-116401732D01*
X109349744Y-116373347D01*
X110903889Y-117041548D02*
X110820289Y-117057896D01*
X110673450Y-117017174D01*
X110610211Y-116960103D01*
X110583682Y-116913213D01*
X110567333Y-116829613D01*
X110628416Y-116609355D01*
X110685487Y-116546116D01*
X110732377Y-116519587D01*
X110815977Y-116503238D01*
X110962816Y-116543960D01*
X111026055Y-116601031D01*
X111224096Y-117169882D02*
X111366623Y-116655946D01*
X111437887Y-116398977D02*
X111390996Y-116425507D01*
X111417526Y-116472397D01*
X111464416Y-116445868D01*
X111437887Y-116398977D01*
X111417526Y-116472397D01*
X111591193Y-117271687D02*
X111733720Y-116757751D01*
X111692998Y-116904590D02*
X111750069Y-116841351D01*
X111796959Y-116814821D01*
X111880559Y-116798473D01*
X111953979Y-116818834D01*
X112408988Y-117458948D02*
X112325388Y-117475297D01*
X112178549Y-117434575D01*
X112115310Y-117377504D01*
X112088781Y-117330614D01*
X112072432Y-117247014D01*
X112133515Y-117026756D01*
X112190586Y-116963517D01*
X112237476Y-116936988D01*
X112321076Y-116920639D01*
X112467915Y-116961361D01*
X112531154Y-117018432D01*
X113202110Y-117164971D02*
X113059582Y-117678907D01*
X112871722Y-117073346D02*
X112759736Y-117477154D01*
X112776085Y-117560753D01*
X112839324Y-117617824D01*
X112949453Y-117648366D01*
X113033053Y-117632017D01*
X113079943Y-117605488D01*
X113426680Y-117780712D02*
X113569207Y-117266776D01*
X113640470Y-117009808D02*
X113593580Y-117036337D01*
X113620109Y-117083227D01*
X113667000Y-117056698D01*
X113640470Y-117009808D01*
X113620109Y-117083227D01*
X113826175Y-117338040D02*
X114119853Y-117419484D01*
X114007568Y-117111613D02*
X113824319Y-117772388D01*
X113840667Y-117855988D01*
X113903906Y-117913059D01*
X113977326Y-117933420D01*
X114207765Y-117957793D02*
X114271004Y-118014864D01*
X114417843Y-118055586D01*
X114501442Y-118039237D01*
X114558513Y-117975998D01*
X114568694Y-117939289D01*
X114552345Y-117855689D01*
X114489106Y-117798618D01*
X114378977Y-117768077D01*
X114315738Y-117711006D01*
X114299389Y-117627406D01*
X114309570Y-117590696D01*
X114366640Y-117527457D01*
X114450240Y-117511108D01*
X114560370Y-117541650D01*
X114623609Y-117598721D01*
X115478113Y-117796163D02*
X115771791Y-117877607D01*
X115659506Y-117569736D02*
X115476257Y-118230511D01*
X115492605Y-118314111D01*
X115555844Y-118371182D01*
X115629264Y-118391543D01*
X115886232Y-118462807D02*
X116100022Y-117691902D01*
X116216619Y-118554431D02*
X116328605Y-118150624D01*
X116312256Y-118067024D01*
X116249017Y-118009953D01*
X116138888Y-117979412D01*
X116055288Y-117995761D01*
X116008398Y-118022290D01*
X116887575Y-118700971D02*
X116803975Y-118717319D01*
X116657136Y-118676597D01*
X116593897Y-118619526D01*
X116577548Y-118535927D01*
X116658993Y-118242249D01*
X116716063Y-118179010D01*
X116799663Y-118162661D01*
X116946502Y-118203383D01*
X117009741Y-118260454D01*
X117026090Y-118344054D01*
X117005729Y-118417473D01*
X116618271Y-118389088D01*
X117244492Y-118839485D02*
X117387019Y-118325549D01*
X117366658Y-118398969D02*
X117413548Y-118372439D01*
X117497148Y-118356091D01*
X117607277Y-118386632D01*
X117670516Y-118443703D01*
X117686865Y-118527303D01*
X117574879Y-118931110D01*
X117686865Y-118527303D02*
X117743936Y-118464064D01*
X117827536Y-118447715D01*
X117937665Y-118478257D01*
X118000904Y-118535328D01*
X118017253Y-118618928D01*
X117905267Y-119022735D01*
X118245835Y-119077649D02*
X118309074Y-119134720D01*
X118455913Y-119175442D01*
X118539513Y-119159093D01*
X118596584Y-119095855D01*
X118606764Y-119059145D01*
X118590415Y-118975545D01*
X118527177Y-118918474D01*
X118417047Y-118887933D01*
X118353808Y-118830862D01*
X118337460Y-118747262D01*
X118347640Y-118710552D01*
X118404711Y-118647313D01*
X118488311Y-118630964D01*
X118598440Y-118661506D01*
X118661679Y-118718577D01*
X119200288Y-119342343D02*
X119116688Y-119358691D01*
X118969849Y-119317969D01*
X118906610Y-119260899D01*
X118890262Y-119177299D01*
X118971706Y-118883621D01*
X119028776Y-118820382D01*
X119112376Y-118804033D01*
X119259215Y-118844755D01*
X119322454Y-118901826D01*
X119338803Y-118985426D01*
X119318442Y-119058845D01*
X118930984Y-119030460D01*
X119667334Y-119511399D02*
X119604095Y-119454328D01*
X119587746Y-119370728D01*
X119770996Y-118709953D01*
X120030120Y-119058546D02*
X120071141Y-119623385D01*
X120397217Y-119160351D01*
X120852226Y-119800466D02*
X120768626Y-119816814D01*
X120621787Y-119776092D01*
X120558548Y-119719022D01*
X120542199Y-119635422D01*
X120623644Y-119341744D01*
X120680714Y-119278505D01*
X120764314Y-119262156D01*
X120911153Y-119302878D01*
X120974392Y-119359949D01*
X120990741Y-119443549D01*
X120970380Y-119516968D01*
X120582922Y-119488583D01*
X121182614Y-119892090D02*
X121245853Y-119949161D01*
X121392692Y-119989883D01*
X121476291Y-119973534D01*
X121533362Y-119910295D01*
X121543543Y-119873586D01*
X121527194Y-119789986D01*
X121463955Y-119732915D01*
X121353826Y-119702373D01*
X121290587Y-119645303D01*
X121274238Y-119561703D01*
X121284419Y-119524993D01*
X121341489Y-119461754D01*
X121425089Y-119445405D01*
X121535219Y-119475947D01*
X121598458Y-119533017D01*
X121853569Y-120038630D02*
X121880099Y-120085520D01*
X121833208Y-120112049D01*
X121806679Y-120065159D01*
X121853569Y-120038630D01*
X121833208Y-120112049D01*
X106284709Y-116306487D02*
X106761935Y-116438833D01*
X106423523Y-116661248D01*
X106533652Y-116691789D01*
X106596891Y-116748860D01*
X106623420Y-116795750D01*
X106639769Y-116879350D01*
X106588867Y-117062899D01*
X106531796Y-117126138D01*
X106484906Y-117152667D01*
X106401306Y-117169016D01*
X106181047Y-117107933D01*
X106117808Y-117050862D01*
X106091279Y-117003972D01*
X106898893Y-117227943D02*
X106925422Y-117274833D01*
X106878532Y-117301362D01*
X106852003Y-117254472D01*
X106898893Y-117227943D01*
X106878532Y-117301362D01*
X107865383Y-117021578D02*
X108159061Y-117103022D01*
X108046776Y-116795151D02*
X107863527Y-117455926D01*
X107879875Y-117539526D01*
X107943114Y-117596597D01*
X108016534Y-117616958D01*
X108273502Y-117688222D02*
X108487293Y-116917317D01*
X108603890Y-117779846D02*
X108715875Y-117376039D01*
X108699526Y-117292439D01*
X108636287Y-117235368D01*
X108526158Y-117204827D01*
X108442558Y-117221176D01*
X108395668Y-117247705D01*
X109274845Y-117926386D02*
X109191245Y-117942734D01*
X109044406Y-117902012D01*
X108981167Y-117844942D01*
X108964819Y-117761342D01*
X109046263Y-117467664D01*
X109103333Y-117404425D01*
X109186933Y-117388076D01*
X109333772Y-117428798D01*
X109397011Y-117485869D01*
X109413360Y-117569469D01*
X109392999Y-117642888D01*
X109005541Y-117614503D01*
X110559686Y-118282704D02*
X110476086Y-118299052D01*
X110329247Y-118258330D01*
X110266008Y-118201259D01*
X110239479Y-118154369D01*
X110223130Y-118070769D01*
X110284213Y-117850511D01*
X110341284Y-117787272D01*
X110388174Y-117760743D01*
X110471774Y-117744394D01*
X110618613Y-117785116D01*
X110681852Y-117842187D01*
X110990022Y-118441579D02*
X110926783Y-118384509D01*
X110900254Y-118337618D01*
X110883905Y-118254018D01*
X110944988Y-118033760D01*
X111002059Y-117970521D01*
X111048949Y-117943992D01*
X111132549Y-117927643D01*
X111242678Y-117958185D01*
X111305917Y-118015255D01*
X111332447Y-118062146D01*
X111348795Y-118145746D01*
X111287712Y-118366004D01*
X111230641Y-118429243D01*
X111183751Y-118455772D01*
X111100151Y-118472121D01*
X110990022Y-118441579D01*
X111577378Y-118604468D02*
X111719905Y-118090531D01*
X111699544Y-118163951D02*
X111746434Y-118137422D01*
X111830034Y-118121073D01*
X111940163Y-118151614D01*
X112003402Y-118208685D01*
X112019751Y-118292285D01*
X111907765Y-118696092D01*
X112019751Y-118292285D02*
X112076822Y-118229046D01*
X112160422Y-118212697D01*
X112270551Y-118243239D01*
X112333790Y-118300310D01*
X112350139Y-118383910D01*
X112238153Y-118787717D01*
X112747777Y-118375586D02*
X112533987Y-119146490D01*
X112737597Y-118412295D02*
X112821197Y-118395947D01*
X112968036Y-118436669D01*
X113031275Y-118493739D01*
X113057804Y-118540630D01*
X113074153Y-118624230D01*
X113013070Y-118844488D01*
X112955999Y-118907727D01*
X112909109Y-118934256D01*
X112825509Y-118950605D01*
X112678670Y-118909883D01*
X112615431Y-118852812D01*
X113412864Y-119113493D02*
X113349625Y-119056422D01*
X113323096Y-119009532D01*
X113306747Y-118925932D01*
X113367831Y-118705674D01*
X113424901Y-118642435D01*
X113471792Y-118615905D01*
X113555391Y-118599557D01*
X113665521Y-118630098D01*
X113728760Y-118687169D01*
X113755289Y-118734059D01*
X113771638Y-118817659D01*
X113710554Y-119037918D01*
X113653484Y-119101157D01*
X113606594Y-119127686D01*
X113522994Y-119144035D01*
X113412864Y-119113493D01*
X114142747Y-118762445D02*
X114000220Y-119276381D01*
X114122386Y-118835864D02*
X114169276Y-118809335D01*
X114252876Y-118792986D01*
X114363006Y-118823528D01*
X114426245Y-118880599D01*
X114442593Y-118964199D01*
X114330608Y-119368006D01*
X115001563Y-119514545D02*
X114917963Y-119530894D01*
X114771124Y-119490172D01*
X114707885Y-119433101D01*
X114691537Y-119349501D01*
X114772981Y-119055823D01*
X114830052Y-118992584D01*
X114913652Y-118976236D01*
X115060490Y-119016958D01*
X115123729Y-119074028D01*
X115140078Y-119157628D01*
X115119717Y-119231048D01*
X114732259Y-119202662D01*
X115501007Y-119139124D02*
X115358480Y-119653060D01*
X115480646Y-119212543D02*
X115527536Y-119186014D01*
X115611136Y-119169665D01*
X115721266Y-119200207D01*
X115784505Y-119257278D01*
X115800853Y-119340878D01*
X115688868Y-119744685D01*
X116088363Y-119302012D02*
X116382041Y-119383456D01*
X116269756Y-119075585D02*
X116086507Y-119736360D01*
X116102855Y-119819960D01*
X116166094Y-119877031D01*
X116239514Y-119897392D01*
X116469953Y-119921766D02*
X116533192Y-119978836D01*
X116680030Y-120019558D01*
X116763630Y-120003210D01*
X116820701Y-119939971D01*
X116830882Y-119903261D01*
X116814533Y-119819661D01*
X116751294Y-119762590D01*
X116641165Y-119732049D01*
X116577926Y-119674978D01*
X116561577Y-119591378D01*
X116571758Y-119554668D01*
X116628828Y-119491429D01*
X116712428Y-119475081D01*
X116822558Y-119505622D01*
X116885797Y-119562693D01*
X117818032Y-120335154D02*
X117754793Y-120278083D01*
X117728264Y-120231193D01*
X117711915Y-120147593D01*
X117772998Y-119927335D01*
X117830069Y-119864096D01*
X117876959Y-119837567D01*
X117960559Y-119821218D01*
X118070688Y-119851759D01*
X118133927Y-119908830D01*
X118160457Y-119955720D01*
X118176805Y-120039320D01*
X118115722Y-120259579D01*
X118058652Y-120322818D01*
X118011761Y-120349347D01*
X117928161Y-120365696D01*
X117818032Y-120335154D01*
X118437786Y-119953565D02*
X118731464Y-120035009D01*
X118405388Y-120498042D02*
X118588637Y-119837267D01*
X118645708Y-119774028D01*
X118729308Y-119757679D01*
X118802727Y-119778040D01*
X119406731Y-120736206D02*
X119469970Y-120793277D01*
X119616809Y-120833999D01*
X119700409Y-120817650D01*
X119757480Y-120754411D01*
X119767660Y-120717702D01*
X119751311Y-120634102D01*
X119688073Y-120577031D01*
X119577943Y-120546489D01*
X119514704Y-120489419D01*
X119498356Y-120405819D01*
X119508536Y-120369109D01*
X119565607Y-120305870D01*
X119649207Y-120289521D01*
X119759336Y-120320063D01*
X119822575Y-120377134D01*
X120530240Y-120533854D02*
X120387713Y-121047790D01*
X120199853Y-120442229D02*
X120087867Y-120846036D01*
X120104216Y-120929636D01*
X120167455Y-120986707D01*
X120277584Y-121017248D01*
X120361184Y-121000900D01*
X120408074Y-120974370D01*
X121095379Y-121204510D02*
X121011779Y-121220858D01*
X120864940Y-121180136D01*
X120801701Y-121123066D01*
X120775172Y-121076175D01*
X120758823Y-120992575D01*
X120819906Y-120772317D01*
X120876977Y-120709078D01*
X120923867Y-120682549D01*
X121007467Y-120666200D01*
X121154306Y-120706922D01*
X121217545Y-120763993D01*
X121415586Y-121332844D02*
X121629377Y-120561940D01*
X121745973Y-121424469D02*
X121857959Y-121020662D01*
X121841610Y-120937062D01*
X121778371Y-120879991D01*
X121668242Y-120849449D01*
X121584642Y-120865798D01*
X121537752Y-120892327D01*
X123040995Y-121744077D02*
X122957395Y-121760425D01*
X122810556Y-121719703D01*
X122747317Y-121662633D01*
X122720787Y-121615742D01*
X122704439Y-121532142D01*
X122765522Y-121311884D01*
X122822593Y-121248645D01*
X122869483Y-121222116D01*
X122953083Y-121205767D01*
X123099922Y-121246489D01*
X123163161Y-121303560D01*
X123361202Y-121872411D02*
X123503729Y-121358475D01*
X123574992Y-121101507D02*
X123528102Y-121128036D01*
X123554631Y-121174926D01*
X123601522Y-121148397D01*
X123574992Y-121101507D01*
X123554631Y-121174926D01*
X123728299Y-121974216D02*
X123870826Y-121460280D01*
X123830104Y-121607119D02*
X123887175Y-121543880D01*
X123934065Y-121517351D01*
X124017665Y-121501002D01*
X124091084Y-121521363D01*
X124546094Y-122161478D02*
X124462494Y-122177826D01*
X124315655Y-122137104D01*
X124252416Y-122080034D01*
X124225886Y-122033143D01*
X124209538Y-121949543D01*
X124270621Y-121729285D01*
X124327692Y-121666046D01*
X124374582Y-121639517D01*
X124458182Y-121623168D01*
X124605021Y-121663890D01*
X124668260Y-121720961D01*
X125339215Y-121867500D02*
X125196688Y-122381437D01*
X125008828Y-121775876D02*
X124896842Y-122179683D01*
X124913191Y-122263283D01*
X124976430Y-122320353D01*
X125086559Y-122350895D01*
X125170159Y-122334546D01*
X125217049Y-122308017D01*
X125563785Y-122483242D02*
X125706313Y-121969305D01*
X125777576Y-121712337D02*
X125730686Y-121738867D01*
X125757215Y-121785757D01*
X125804105Y-121759228D01*
X125777576Y-121712337D01*
X125757215Y-121785757D01*
X125963281Y-122040569D02*
X126256959Y-122122013D01*
X126144673Y-121814142D02*
X125961424Y-122474918D01*
X125977773Y-122558518D01*
X126041012Y-122615588D01*
X126114431Y-122635949D01*
X126344870Y-122660323D02*
X126408109Y-122717393D01*
X126554948Y-122758115D01*
X126638548Y-122741767D01*
X126695619Y-122678528D01*
X126705799Y-122641818D01*
X126689451Y-122558218D01*
X126626212Y-122501147D01*
X126516083Y-122470606D01*
X126452844Y-122413535D01*
X126436495Y-122329935D01*
X126446675Y-122293225D01*
X126503746Y-122229986D01*
X126587346Y-122213638D01*
X126697475Y-122244179D01*
X126760714Y-122301250D01*
X127015826Y-122806862D02*
X127042355Y-122853752D01*
X126995465Y-122880282D01*
X126968936Y-122833391D01*
X127015826Y-122806862D01*
X126995465Y-122880282D01*
D10*
X115440504Y-103229126D02*
X115440504Y-102429126D01*
X115630980Y-102429126D01*
X115745266Y-102467222D01*
X115821456Y-102543412D01*
X115859552Y-102619602D01*
X115897647Y-102771983D01*
X115897647Y-102886269D01*
X115859552Y-103038650D01*
X115821456Y-103114841D01*
X115745266Y-103191031D01*
X115630980Y-103229126D01*
X115440504Y-103229126D01*
X116659552Y-103229126D02*
X116202409Y-103229126D01*
X116430980Y-103229126D02*
X116430980Y-102429126D01*
X116354790Y-102543412D01*
X116278599Y-102619602D01*
X116202409Y-102657698D01*
X116964313Y-102505317D02*
X117002409Y-102467222D01*
X117078599Y-102429126D01*
X117269075Y-102429126D01*
X117345266Y-102467222D01*
X117383361Y-102505317D01*
X117421456Y-102581507D01*
X117421456Y-102657698D01*
X117383361Y-102771983D01*
X116926218Y-103229126D01*
X117421456Y-103229126D01*
X169101704Y-87989297D02*
X169101704Y-87189297D01*
X169292180Y-87189297D01*
X169406466Y-87227393D01*
X169482656Y-87303583D01*
X169520752Y-87379773D01*
X169558847Y-87532154D01*
X169558847Y-87646440D01*
X169520752Y-87798821D01*
X169482656Y-87875012D01*
X169406466Y-87951202D01*
X169292180Y-87989297D01*
X169101704Y-87989297D01*
X170320752Y-87989297D02*
X169863609Y-87989297D01*
X170092180Y-87989297D02*
X170092180Y-87189297D01*
X170015990Y-87303583D01*
X169939799Y-87379773D01*
X169863609Y-87417869D01*
X170815990Y-87189297D02*
X170892180Y-87189297D01*
X170968371Y-87227393D01*
X171006466Y-87265488D01*
X171044561Y-87341678D01*
X171082656Y-87494059D01*
X171082656Y-87684535D01*
X171044561Y-87836916D01*
X171006466Y-87913107D01*
X170968371Y-87951202D01*
X170892180Y-87989297D01*
X170815990Y-87989297D01*
X170739799Y-87951202D01*
X170701704Y-87913107D01*
X170663609Y-87836916D01*
X170625513Y-87684535D01*
X170625513Y-87494059D01*
X170663609Y-87341678D01*
X170701704Y-87265488D01*
X170739799Y-87227393D01*
X170815990Y-87189297D01*
X159918314Y-114836393D02*
X159918314Y-114036393D01*
X160108790Y-114036393D01*
X160223076Y-114074489D01*
X160299266Y-114150679D01*
X160337362Y-114226869D01*
X160375457Y-114379250D01*
X160375457Y-114493536D01*
X160337362Y-114645917D01*
X160299266Y-114722108D01*
X160223076Y-114798298D01*
X160108790Y-114836393D01*
X159918314Y-114836393D01*
X161137362Y-114836393D02*
X160680219Y-114836393D01*
X160908790Y-114836393D02*
X160908790Y-114036393D01*
X160832600Y-114150679D01*
X160756409Y-114226869D01*
X160680219Y-114264965D01*
X161404028Y-114036393D02*
X161937362Y-114036393D01*
X161594504Y-114836393D01*
X151889456Y-87735126D02*
X151889456Y-86935126D01*
X152079933Y-86935126D01*
X152194218Y-86973222D01*
X152270409Y-87049412D01*
X152308504Y-87125602D01*
X152346599Y-87277983D01*
X152346599Y-87392269D01*
X152308504Y-87544650D01*
X152270409Y-87620841D01*
X152194218Y-87697031D01*
X152079933Y-87735126D01*
X151889456Y-87735126D01*
X152727552Y-87735126D02*
X152879933Y-87735126D01*
X152956123Y-87697031D01*
X152994218Y-87658936D01*
X153070409Y-87544650D01*
X153108504Y-87392269D01*
X153108504Y-87087507D01*
X153070409Y-87011317D01*
X153032313Y-86973222D01*
X152956123Y-86935126D01*
X152803742Y-86935126D01*
X152727552Y-86973222D01*
X152689456Y-87011317D01*
X152651361Y-87087507D01*
X152651361Y-87277983D01*
X152689456Y-87354174D01*
X152727552Y-87392269D01*
X152803742Y-87430364D01*
X152956123Y-87430364D01*
X153032313Y-87392269D01*
X153070409Y-87354174D01*
X153108504Y-87277983D01*
X179619354Y-91719128D02*
X180333640Y-91719128D01*
X180476497Y-91766747D01*
X180571735Y-91861985D01*
X180619354Y-92004842D01*
X180619354Y-92100080D01*
X180619354Y-91242937D02*
X179619354Y-91242937D01*
X179619354Y-90861985D01*
X179666974Y-90766747D01*
X179714593Y-90719128D01*
X179809831Y-90671509D01*
X179952688Y-90671509D01*
X180047926Y-90719128D01*
X180095545Y-90766747D01*
X180143164Y-90861985D01*
X180143164Y-91242937D01*
X180619354Y-89719128D02*
X180619354Y-90290556D01*
X180619354Y-90004842D02*
X179619354Y-90004842D01*
X179762212Y-90100080D01*
X179857450Y-90195318D01*
X179905069Y-90290556D01*
X151838656Y-70615326D02*
X151838656Y-69815326D01*
X152029133Y-69815326D01*
X152143418Y-69853422D01*
X152219609Y-69929612D01*
X152257704Y-70005802D01*
X152295799Y-70158183D01*
X152295799Y-70272469D01*
X152257704Y-70424850D01*
X152219609Y-70501041D01*
X152143418Y-70577231D01*
X152029133Y-70615326D01*
X151838656Y-70615326D01*
X152981513Y-70081993D02*
X152981513Y-70615326D01*
X152791037Y-69777231D02*
X152600561Y-70348660D01*
X153095799Y-70348660D01*
X169173146Y-109957509D02*
X169220765Y-109814652D01*
X169268384Y-109767033D01*
X169363622Y-109719414D01*
X169506479Y-109719414D01*
X169601717Y-109767033D01*
X169649336Y-109814652D01*
X169696955Y-109909890D01*
X169696955Y-110290842D01*
X168696955Y-110290842D01*
X168696955Y-109957509D01*
X168744575Y-109862271D01*
X168792194Y-109814652D01*
X168887432Y-109767033D01*
X168982670Y-109767033D01*
X169077908Y-109814652D01*
X169125527Y-109862271D01*
X169173146Y-109957509D01*
X169173146Y-110290842D01*
X168696955Y-109433699D02*
X168696955Y-108862271D01*
X169696955Y-109147985D02*
X168696955Y-109147985D01*
X169696955Y-108005128D02*
X169696955Y-108576556D01*
X169696955Y-108290842D02*
X168696955Y-108290842D01*
X168839813Y-108386080D01*
X168935051Y-108481318D01*
X168982670Y-108576556D01*
X151508504Y-104753126D02*
X151508504Y-103953126D01*
X151698980Y-103953126D01*
X151813266Y-103991222D01*
X151889456Y-104067412D01*
X151927552Y-104143602D01*
X151965647Y-104295983D01*
X151965647Y-104410269D01*
X151927552Y-104562650D01*
X151889456Y-104638841D01*
X151813266Y-104715031D01*
X151698980Y-104753126D01*
X151508504Y-104753126D01*
X152727552Y-104753126D02*
X152270409Y-104753126D01*
X152498980Y-104753126D02*
X152498980Y-103953126D01*
X152422790Y-104067412D01*
X152346599Y-104143602D01*
X152270409Y-104181698D01*
X153413266Y-104219793D02*
X153413266Y-104753126D01*
X153222790Y-103915031D02*
X153032313Y-104486460D01*
X153527552Y-104486460D01*
X97787456Y-72128625D02*
X97787456Y-71328625D01*
X97977933Y-71328625D01*
X98092218Y-71366721D01*
X98168409Y-71442911D01*
X98206504Y-71519101D01*
X98244599Y-71671482D01*
X98244599Y-71785768D01*
X98206504Y-71938149D01*
X98168409Y-72014340D01*
X98092218Y-72090530D01*
X97977933Y-72128625D01*
X97787456Y-72128625D01*
X99006504Y-72128625D02*
X98549361Y-72128625D01*
X98777933Y-72128625D02*
X98777933Y-71328625D01*
X98701742Y-71442911D01*
X98625552Y-71519101D01*
X98549361Y-71557197D01*
X115821456Y-86211126D02*
X115821456Y-85411126D01*
X116011933Y-85411126D01*
X116126218Y-85449222D01*
X116202409Y-85525412D01*
X116240504Y-85601602D01*
X116278599Y-85753983D01*
X116278599Y-85868269D01*
X116240504Y-86020650D01*
X116202409Y-86096841D01*
X116126218Y-86173031D01*
X116011933Y-86211126D01*
X115821456Y-86211126D01*
X116545266Y-85411126D02*
X117078599Y-85411126D01*
X116735742Y-86211126D01*
X133474504Y-101953126D02*
X133474504Y-101153126D01*
X133664980Y-101153126D01*
X133779266Y-101191222D01*
X133855456Y-101267412D01*
X133893552Y-101343602D01*
X133931647Y-101495983D01*
X133931647Y-101610269D01*
X133893552Y-101762650D01*
X133855456Y-101838841D01*
X133779266Y-101915031D01*
X133664980Y-101953126D01*
X133474504Y-101953126D01*
X134693552Y-101953126D02*
X134236409Y-101953126D01*
X134464980Y-101953126D02*
X134464980Y-101153126D01*
X134388790Y-101267412D01*
X134312599Y-101343602D01*
X134236409Y-101381698D01*
X134960218Y-101153126D02*
X135455456Y-101153126D01*
X135188790Y-101457888D01*
X135303075Y-101457888D01*
X135379266Y-101495983D01*
X135417361Y-101534079D01*
X135455456Y-101610269D01*
X135455456Y-101800745D01*
X135417361Y-101876936D01*
X135379266Y-101915031D01*
X135303075Y-101953126D01*
X135074504Y-101953126D01*
X134998313Y-101915031D01*
X134960218Y-101876936D01*
X133855456Y-67804625D02*
X133855456Y-67004625D01*
X134045933Y-67004625D01*
X134160218Y-67042721D01*
X134236409Y-67118911D01*
X134274504Y-67195101D01*
X134312599Y-67347482D01*
X134312599Y-67461768D01*
X134274504Y-67614149D01*
X134236409Y-67690340D01*
X134160218Y-67766530D01*
X134045933Y-67804625D01*
X133855456Y-67804625D01*
X134579266Y-67004625D02*
X135074504Y-67004625D01*
X134807837Y-67309387D01*
X134922123Y-67309387D01*
X134998313Y-67347482D01*
X135036409Y-67385578D01*
X135074504Y-67461768D01*
X135074504Y-67652244D01*
X135036409Y-67728435D01*
X134998313Y-67766530D01*
X134922123Y-67804625D01*
X134693552Y-67804625D01*
X134617361Y-67766530D01*
X134579266Y-67728435D01*
X133855456Y-84935126D02*
X133855456Y-84135126D01*
X134045933Y-84135126D01*
X134160218Y-84173222D01*
X134236409Y-84249412D01*
X134274504Y-84325602D01*
X134312599Y-84477983D01*
X134312599Y-84592269D01*
X134274504Y-84744650D01*
X134236409Y-84820841D01*
X134160218Y-84897031D01*
X134045933Y-84935126D01*
X133855456Y-84935126D01*
X134769742Y-84477983D02*
X134693552Y-84439888D01*
X134655456Y-84401793D01*
X134617361Y-84325602D01*
X134617361Y-84287507D01*
X134655456Y-84211317D01*
X134693552Y-84173222D01*
X134769742Y-84135126D01*
X134922123Y-84135126D01*
X134998313Y-84173222D01*
X135036409Y-84211317D01*
X135074504Y-84287507D01*
X135074504Y-84325602D01*
X135036409Y-84401793D01*
X134998313Y-84439888D01*
X134922123Y-84477983D01*
X134769742Y-84477983D01*
X134693552Y-84516079D01*
X134655456Y-84554174D01*
X134617361Y-84630364D01*
X134617361Y-84782745D01*
X134655456Y-84858936D01*
X134693552Y-84897031D01*
X134769742Y-84935126D01*
X134922123Y-84935126D01*
X134998313Y-84897031D01*
X135036409Y-84858936D01*
X135074504Y-84782745D01*
X135074504Y-84630364D01*
X135036409Y-84554174D01*
X134998313Y-84516079D01*
X134922123Y-84477983D01*
X97787456Y-89259126D02*
X97787456Y-88459126D01*
X97977933Y-88459126D01*
X98092218Y-88497222D01*
X98168409Y-88573412D01*
X98206504Y-88649602D01*
X98244599Y-88801983D01*
X98244599Y-88916269D01*
X98206504Y-89068650D01*
X98168409Y-89144841D01*
X98092218Y-89221031D01*
X97977933Y-89259126D01*
X97787456Y-89259126D01*
X98930313Y-88459126D02*
X98777933Y-88459126D01*
X98701742Y-88497222D01*
X98663647Y-88535317D01*
X98587456Y-88649602D01*
X98549361Y-88801983D01*
X98549361Y-89106745D01*
X98587456Y-89182936D01*
X98625552Y-89221031D01*
X98701742Y-89259126D01*
X98854123Y-89259126D01*
X98930313Y-89221031D01*
X98968409Y-89182936D01*
X99006504Y-89106745D01*
X99006504Y-88916269D01*
X98968409Y-88840079D01*
X98930313Y-88801983D01*
X98854123Y-88763888D01*
X98701742Y-88763888D01*
X98625552Y-88801983D01*
X98587456Y-88840079D01*
X98549361Y-88916269D01*
X115821456Y-69080625D02*
X115821456Y-68280625D01*
X116011933Y-68280625D01*
X116126218Y-68318721D01*
X116202409Y-68394911D01*
X116240504Y-68471101D01*
X116278599Y-68623482D01*
X116278599Y-68737768D01*
X116240504Y-68890149D01*
X116202409Y-68966340D01*
X116126218Y-69042530D01*
X116011933Y-69080625D01*
X115821456Y-69080625D01*
X116583361Y-68356816D02*
X116621456Y-68318721D01*
X116697647Y-68280625D01*
X116888123Y-68280625D01*
X116964313Y-68318721D01*
X117002409Y-68356816D01*
X117040504Y-68433006D01*
X117040504Y-68509197D01*
X117002409Y-68623482D01*
X116545266Y-69080625D01*
X117040504Y-69080625D01*
X182139436Y-126846593D02*
X181273411Y-126346593D01*
X181463887Y-126016679D01*
X181552745Y-125958010D01*
X181617794Y-125940580D01*
X181724082Y-125946960D01*
X181847800Y-126018388D01*
X181906469Y-126107247D01*
X181923899Y-126172295D01*
X181917519Y-126278583D01*
X181727043Y-126608498D01*
X181725792Y-125563046D02*
X182710865Y-125856850D01*
X182187513Y-125334750D01*
X182901341Y-125526935D01*
X182154363Y-124820739D01*
X183496579Y-124495953D02*
X182917519Y-124546533D01*
X183210865Y-124990824D02*
X182344839Y-124490824D01*
X182535315Y-124160910D01*
X182624174Y-124102241D01*
X182689223Y-124084811D01*
X182795511Y-124091191D01*
X182919229Y-124162619D01*
X182977898Y-124251478D01*
X182995328Y-124316527D01*
X182988948Y-124422815D01*
X182798472Y-124752729D01*
X183674296Y-124378615D02*
X184055248Y-123718786D01*
X184026768Y-123482400D02*
X184139436Y-123382492D01*
X184258484Y-123176295D01*
X184264863Y-123070007D01*
X184247434Y-123004958D01*
X184188765Y-122916100D01*
X184106286Y-122868481D01*
X183999998Y-122862101D01*
X183934949Y-122879531D01*
X183846091Y-122938200D01*
X183709613Y-123079347D01*
X183620755Y-123138017D01*
X183555706Y-123155446D01*
X183449418Y-123149067D01*
X183366939Y-123101448D01*
X183308270Y-123012589D01*
X183290840Y-122947540D01*
X183297220Y-122841252D01*
X183416268Y-122635056D01*
X183528936Y-122535147D01*
X183654363Y-122222663D02*
X184639436Y-122516466D01*
X184116085Y-121994366D01*
X184829912Y-122186552D01*
X184082934Y-121480355D01*
X185102867Y-121904256D02*
X185483819Y-121244427D01*
X185782293Y-120536979D02*
X185496579Y-121031851D01*
X185639436Y-120784415D02*
X184773411Y-120284415D01*
X184849510Y-120438323D01*
X184884369Y-120568420D01*
X184877989Y-120674708D01*
X159918314Y-108158993D02*
X159918314Y-107358993D01*
X160108790Y-107358993D01*
X160223076Y-107397089D01*
X160299266Y-107473279D01*
X160337362Y-107549469D01*
X160375457Y-107701850D01*
X160375457Y-107816136D01*
X160337362Y-107968517D01*
X160299266Y-108044708D01*
X160223076Y-108120898D01*
X160108790Y-108158993D01*
X159918314Y-108158993D01*
X161137362Y-108158993D02*
X160680219Y-108158993D01*
X160908790Y-108158993D02*
X160908790Y-107358993D01*
X160832600Y-107473279D01*
X160756409Y-107549469D01*
X160680219Y-107587565D01*
X161823076Y-107358993D02*
X161670695Y-107358993D01*
X161594504Y-107397089D01*
X161556409Y-107435184D01*
X161480219Y-107549469D01*
X161442123Y-107701850D01*
X161442123Y-108006612D01*
X161480219Y-108082803D01*
X161518314Y-108120898D01*
X161594504Y-108158993D01*
X161746885Y-108158993D01*
X161823076Y-108120898D01*
X161861171Y-108082803D01*
X161899266Y-108006612D01*
X161899266Y-107816136D01*
X161861171Y-107739946D01*
X161823076Y-107701850D01*
X161746885Y-107663755D01*
X161594504Y-107663755D01*
X161518314Y-107701850D01*
X161480219Y-107739946D01*
X161442123Y-107816136D01*
X97406504Y-106277126D02*
X97406504Y-105477126D01*
X97596980Y-105477126D01*
X97711266Y-105515222D01*
X97787456Y-105591412D01*
X97825552Y-105667602D01*
X97863647Y-105819983D01*
X97863647Y-105934269D01*
X97825552Y-106086650D01*
X97787456Y-106162841D01*
X97711266Y-106239031D01*
X97596980Y-106277126D01*
X97406504Y-106277126D01*
X98625552Y-106277126D02*
X98168409Y-106277126D01*
X98396980Y-106277126D02*
X98396980Y-105477126D01*
X98320790Y-105591412D01*
X98244599Y-105667602D01*
X98168409Y-105705698D01*
X99387456Y-106277126D02*
X98930313Y-106277126D01*
X99158885Y-106277126D02*
X99158885Y-105477126D01*
X99082694Y-105591412D01*
X99006504Y-105667602D01*
X98930313Y-105705698D01*
X169034504Y-104793025D02*
X169034504Y-103993025D01*
X169224980Y-103993025D01*
X169339266Y-104031121D01*
X169415456Y-104107311D01*
X169453552Y-104183501D01*
X169491647Y-104335882D01*
X169491647Y-104450168D01*
X169453552Y-104602549D01*
X169415456Y-104678740D01*
X169339266Y-104754930D01*
X169224980Y-104793025D01*
X169034504Y-104793025D01*
X170253552Y-104793025D02*
X169796409Y-104793025D01*
X170024980Y-104793025D02*
X170024980Y-103993025D01*
X169948790Y-104107311D01*
X169872599Y-104183501D01*
X169796409Y-104221597D01*
X170977361Y-103993025D02*
X170596409Y-103993025D01*
X170558313Y-104373978D01*
X170596409Y-104335882D01*
X170672599Y-104297787D01*
X170863075Y-104297787D01*
X170939266Y-104335882D01*
X170977361Y-104373978D01*
X171015456Y-104450168D01*
X171015456Y-104640644D01*
X170977361Y-104716835D01*
X170939266Y-104754930D01*
X170863075Y-104793025D01*
X170672599Y-104793025D01*
X170596409Y-104754930D01*
X170558313Y-104716835D01*
X169470308Y-70870973D02*
X169470308Y-70070973D01*
X169660785Y-70070973D01*
X169775070Y-70109069D01*
X169851261Y-70185259D01*
X169889356Y-70261449D01*
X169927451Y-70413830D01*
X169927451Y-70528116D01*
X169889356Y-70680497D01*
X169851261Y-70756688D01*
X169775070Y-70832878D01*
X169660785Y-70870973D01*
X169470308Y-70870973D01*
X170651261Y-70070973D02*
X170270308Y-70070973D01*
X170232213Y-70451926D01*
X170270308Y-70413830D01*
X170346499Y-70375735D01*
X170536975Y-70375735D01*
X170613165Y-70413830D01*
X170651261Y-70451926D01*
X170689356Y-70528116D01*
X170689356Y-70718592D01*
X170651261Y-70794783D01*
X170613165Y-70832878D01*
X170536975Y-70870973D01*
X170346499Y-70870973D01*
X170270308Y-70832878D01*
X170232213Y-70794783D01*
X148557641Y-114014023D02*
X148816461Y-113048097D01*
X156172727Y-118435614D02*
X153757913Y-117788566D01*
X157690966Y-114701320D02*
X157337413Y-114088948D01*
X148454114Y-114400393D02*
X148609405Y-113820838D01*
X146158920Y-126829878D02*
X145192994Y-126571058D01*
X158974775Y-129228599D02*
X158715955Y-130194525D01*
X147392956Y-118360689D02*
X147522365Y-117877726D01*
X148609405Y-113820838D02*
X152956072Y-114985523D01*
X157337413Y-114088948D02*
X154439635Y-113312491D01*
X145192994Y-126571058D02*
X145451813Y-125605133D01*
X148816461Y-113048097D02*
X149782386Y-113306916D01*
X161373496Y-116412744D02*
X162339422Y-116671564D01*
X162339422Y-116671564D02*
X162080603Y-117637489D01*
X158715955Y-130194525D02*
X157750030Y-129935706D01*
X154439635Y-113312491D02*
X153827263Y-113666044D01*
X153568444Y-114631970D02*
X153827263Y-113666044D01*
X156785100Y-118082061D02*
X156172727Y-118435614D01*
X151739622Y-119525375D02*
X147392956Y-118360689D01*
X151920795Y-118849227D02*
X151739622Y-119525375D01*
X152956072Y-114985523D02*
G75*
G03*
X153568444Y-114631970I129409J482963D01*
G01*
X153757913Y-117788566D02*
G75*
G03*
X151920795Y-118849227I-388229J-1448889D01*
G01*
X132609575Y-52988800D02*
X132609575Y-53988800D01*
X123109575Y-57788800D02*
X123109575Y-58488800D01*
X127109575Y-56288800D02*
X124609575Y-56288800D01*
X118609575Y-52988800D02*
X119609575Y-52988800D01*
X123109575Y-58488800D02*
X118609575Y-58488800D01*
X127609575Y-55788800D02*
X127109575Y-56288800D01*
X132609575Y-65988800D02*
X132609575Y-66988800D01*
X118609575Y-53988800D02*
X118609575Y-52988800D01*
X131609575Y-52988800D02*
X132609575Y-52988800D01*
X118609575Y-53788800D02*
X123109575Y-53788800D01*
X119609575Y-66988800D02*
X118609575Y-66988800D01*
X123609575Y-53288800D02*
X123609575Y-52288800D01*
X127609575Y-52288800D02*
X127109575Y-51788800D01*
X118609575Y-58488800D02*
X118609575Y-57988800D01*
X132609575Y-66988800D02*
X131609575Y-66988800D01*
X124109575Y-51788800D02*
X123609575Y-52288800D01*
X118609575Y-54388800D02*
X118609575Y-53788800D01*
X127109575Y-51788800D02*
X124109575Y-51788800D01*
X118609575Y-66988800D02*
X118609575Y-65988800D01*
X124609575Y-56288800D02*
G75*
G03*
X123109575Y-57788800I0J-1500000D01*
G01*
X123109575Y-53788800D02*
G75*
G03*
X123609575Y-53288800I0J500000D01*
G01*
D12*
X115228333Y-95981591D02*
X117628333Y-95981591D01*
X117628333Y-95981591D02*
X117628333Y-101981591D01*
X117628333Y-101981591D02*
X115228333Y-101981591D01*
X115228333Y-101981591D02*
X115228333Y-95981591D01*
G36*
X117628333Y-101981591D02*
G01*
X115228333Y-101981591D01*
X115228333Y-101423191D01*
X117628333Y-101423191D01*
X117628333Y-101981591D01*
G37*
X117628333Y-101981591D02*
X115228333Y-101981591D01*
X115228333Y-101423191D01*
X117628333Y-101423191D01*
X117628333Y-101981591D01*
D10*
X87939975Y-92180800D02*
X87439975Y-92680800D01*
X86939975Y-98880800D02*
X82439975Y-98880800D01*
X82439975Y-98880800D02*
X82439975Y-98380800D01*
X96439975Y-106380800D02*
X96439975Y-107380800D01*
X91439975Y-96180800D02*
X90939975Y-96680800D01*
X82439975Y-107380800D02*
X82439975Y-106380800D01*
X83439975Y-107380800D02*
X82439975Y-107380800D01*
X90939975Y-96680800D02*
X88439975Y-96680800D01*
X82439975Y-94180800D02*
X86939975Y-94180800D01*
X90939975Y-92180800D02*
X87939975Y-92180800D01*
X82439975Y-94380800D02*
X82439975Y-93380800D01*
X95439975Y-93380800D02*
X96439975Y-93380800D01*
X87439975Y-93680800D02*
X87439975Y-92680800D01*
X96439975Y-93380800D02*
X96439975Y-94380800D01*
X96439975Y-107380800D02*
X95439975Y-107380800D01*
X82439975Y-93380800D02*
X83439975Y-93380800D01*
X91439975Y-92680800D02*
X90939975Y-92180800D01*
X82439975Y-94780800D02*
X82439975Y-94180800D01*
X86939975Y-98180800D02*
X86939975Y-98880800D01*
X86939975Y-94180800D02*
G75*
G03*
X87439975Y-93680800I0J500000D01*
G01*
X88439975Y-96680800D02*
G75*
G03*
X86939975Y-98180800I0J-1500000D01*
G01*
D12*
X168923933Y-80639991D02*
X171323933Y-80639991D01*
X171323933Y-80639991D02*
X171323933Y-86639991D01*
X171323933Y-86639991D02*
X168923933Y-86639991D01*
X168923933Y-86639991D02*
X168923933Y-80639991D01*
G36*
X171323933Y-86639991D02*
G01*
X168923933Y-86639991D01*
X168923933Y-86081591D01*
X171323933Y-86081591D01*
X171323933Y-86639991D01*
G37*
X171323933Y-86639991D02*
X168923933Y-86639991D01*
X168923933Y-86081591D01*
X171323933Y-86081591D01*
X171323933Y-86639991D01*
D10*
X191052975Y-91964800D02*
X190042975Y-91964800D01*
X173252975Y-91964800D02*
X174252975Y-91964800D01*
X191052975Y-71076600D02*
X191052975Y-72076600D01*
X173252975Y-71076600D02*
X174252975Y-71076600D01*
X191052975Y-90964800D02*
X191052975Y-91964800D01*
X191052975Y-71076600D02*
X190102975Y-71076600D01*
X173252975Y-71076600D02*
X173252975Y-72076600D01*
X173252975Y-90914800D02*
X173252975Y-91964800D01*
D11*
X179532975Y-92999795D02*
X179532975Y-95659795D01*
X182132975Y-92999795D02*
X182132975Y-95659795D01*
X182132975Y-92999795D02*
X179532975Y-92999795D01*
X184732975Y-94329795D02*
X184732975Y-95659795D01*
X184732975Y-95659795D02*
X183402975Y-95659795D01*
X182132975Y-95659795D02*
X179532975Y-95659795D01*
D10*
X145694375Y-72106800D02*
X145194375Y-71606800D01*
X142194375Y-71606800D02*
X141694375Y-72106800D01*
X141194375Y-78306800D02*
X136694375Y-78306800D01*
X136694375Y-74206800D02*
X136694375Y-73606800D01*
X149694375Y-72806800D02*
X150694375Y-72806800D01*
X141694375Y-73106800D02*
X141694375Y-72106800D01*
X136694375Y-72806800D02*
X137694375Y-72806800D01*
X150694375Y-85806800D02*
X150694375Y-86806800D01*
X145194375Y-71606800D02*
X142194375Y-71606800D01*
X136694375Y-73606800D02*
X141194375Y-73606800D01*
X136694375Y-78306800D02*
X136694375Y-77806800D01*
X136694375Y-86806800D02*
X136694375Y-85806800D01*
X137694375Y-86806800D02*
X136694375Y-86806800D01*
X136694375Y-73806800D02*
X136694375Y-72806800D01*
X141194375Y-77606800D02*
X141194375Y-78306800D01*
X150694375Y-72806800D02*
X150694375Y-73806800D01*
X145694375Y-75606800D02*
X145194375Y-76106800D01*
X145194375Y-76106800D02*
X142694375Y-76106800D01*
X150694375Y-86806800D02*
X149694375Y-86806800D01*
X142694375Y-76106800D02*
G75*
G03*
X141194375Y-77606800I0J-1500000D01*
G01*
X141194375Y-73606800D02*
G75*
G03*
X141694375Y-73106800I0J500000D01*
G01*
D12*
X158170585Y-113608168D02*
X164170585Y-113608168D01*
X164170585Y-113608168D02*
X164170585Y-111208168D01*
X164170585Y-111208168D02*
X158170585Y-111208168D01*
X158170585Y-111208168D02*
X158170585Y-113608168D01*
G36*
X164170585Y-113608168D02*
G01*
X163612185Y-113608168D01*
X163612185Y-111208168D01*
X164170585Y-111208168D01*
X164170585Y-113608168D01*
G37*
X164170585Y-113608168D02*
X163612185Y-113608168D01*
X163612185Y-111208168D01*
X164170585Y-111208168D01*
X164170585Y-113608168D01*
X151296333Y-80535391D02*
X153696333Y-80535391D01*
X153696333Y-80535391D02*
X153696333Y-86535391D01*
X153696333Y-86535391D02*
X151296333Y-86535391D01*
X151296333Y-86535391D02*
X151296333Y-80535391D01*
G36*
X153696333Y-86535391D02*
G01*
X151296333Y-86535391D01*
X151296333Y-85976991D01*
X153696333Y-85976991D01*
X153696333Y-86535391D01*
G37*
X153696333Y-86535391D02*
X151296333Y-86535391D01*
X151296333Y-85976991D01*
X153696333Y-85976991D01*
X153696333Y-86535391D01*
D10*
X163779175Y-77740400D02*
X163279175Y-78240400D01*
X168779175Y-74940400D02*
X168779175Y-75940400D01*
X163279175Y-78240400D02*
X160779175Y-78240400D01*
X159279175Y-80440400D02*
X154779175Y-80440400D01*
X163279175Y-73740400D02*
X160279175Y-73740400D01*
X159779175Y-75240400D02*
X159779175Y-74240400D01*
X154779175Y-88940400D02*
X154779175Y-87940400D01*
X154779175Y-80440400D02*
X154779175Y-79940400D01*
X154779175Y-74940400D02*
X155779175Y-74940400D01*
X160279175Y-73740400D02*
X159779175Y-74240400D01*
X168779175Y-87940400D02*
X168779175Y-88940400D01*
X167779175Y-74940400D02*
X168779175Y-74940400D01*
X155779175Y-88940400D02*
X154779175Y-88940400D01*
X159279175Y-79740400D02*
X159279175Y-80440400D01*
X154779175Y-76340400D02*
X154779175Y-75740400D01*
X154779175Y-75740400D02*
X159279175Y-75740400D01*
X163779175Y-74240400D02*
X163279175Y-73740400D01*
X154779175Y-75940400D02*
X154779175Y-74940400D01*
X168779175Y-88940400D02*
X167779175Y-88940400D01*
X159279175Y-75740400D02*
G75*
G03*
X159779175Y-75240400I0J500000D01*
G01*
X160779175Y-78240400D02*
G75*
G03*
X159279175Y-79740400I0J-1500000D01*
G01*
D11*
X182452975Y-92275395D02*
X181852975Y-92275395D01*
X181852975Y-89475395D02*
X182452975Y-89475395D01*
X183152975Y-90175395D02*
X183152975Y-91575395D01*
X181152975Y-91575395D02*
X181152975Y-90175395D01*
X181152975Y-91575395D02*
G75*
G03*
X181852975Y-92275395I699999J-1D01*
G01*
X181852975Y-89475395D02*
G75*
G03*
X181152975Y-90175395I0J-700000D01*
G01*
X183152975Y-90175395D02*
G75*
G03*
X182452975Y-89475395I-700000J0D01*
G01*
X182452975Y-92275395D02*
G75*
G03*
X183152975Y-91575395I1J699999D01*
G01*
D12*
X151296333Y-63367791D02*
X153696333Y-63367791D01*
X153696333Y-63367791D02*
X153696333Y-69367791D01*
X153696333Y-69367791D02*
X151296333Y-69367791D01*
X151296333Y-69367791D02*
X151296333Y-63367791D01*
G36*
X153696333Y-69367791D02*
G01*
X151296333Y-69367791D01*
X151296333Y-68809391D01*
X153696333Y-68809391D01*
X153696333Y-69367791D01*
G37*
X153696333Y-69367791D02*
X151296333Y-69367791D01*
X151296333Y-68809391D01*
X153696333Y-68809391D01*
X153696333Y-69367791D01*
D11*
X169603001Y-112669031D02*
X170269027Y-111822621D01*
X170009015Y-118612267D02*
X167843951Y-119862267D01*
X171018001Y-115119883D02*
X169603001Y-112669031D01*
X167843951Y-119862267D02*
X166518951Y-117567300D01*
X166518951Y-117567300D02*
X165315176Y-118262300D01*
X163908951Y-113046647D02*
X165233951Y-115341614D01*
X166074015Y-111796647D02*
X163908951Y-113046647D01*
X172459027Y-115615812D02*
X172084027Y-114966293D01*
X170269027Y-111822621D02*
X169894027Y-111173102D01*
X172084027Y-114966293D02*
X171018001Y-115119883D01*
X183744575Y-119951795D02*
X184374575Y-119951795D01*
X184374575Y-98391795D02*
X188324575Y-99831795D01*
X173204575Y-100471795D02*
X175284575Y-98391795D01*
X173204575Y-100471795D02*
X173204575Y-103971795D01*
X175284575Y-119951795D02*
X177744575Y-119951795D01*
X175284575Y-98391795D02*
X177744575Y-98391795D01*
X173204575Y-114371795D02*
X173204575Y-117871795D01*
X184374575Y-119951795D02*
X188324575Y-118511795D01*
X173204575Y-117871795D02*
X175284575Y-119951795D01*
X183744575Y-98391795D02*
X184374575Y-98391795D01*
X188324575Y-118511795D02*
G75*
G03*
X189311105Y-115175149I-730001J2030000D01*
G01*
X189294574Y-103171795D02*
G75*
G03*
X188332744Y-99846552I-1699999J1310000D01*
G01*
X179917975Y-92764995D02*
X179917975Y-96184995D01*
X183877975Y-93274995D02*
X183877975Y-94024995D01*
X184677975Y-92474995D02*
X184677975Y-93474995D01*
X184077975Y-94824995D02*
X183877975Y-94824995D01*
X180427975Y-94824995D02*
X180427975Y-95674995D01*
X180427975Y-93274995D02*
X180427975Y-94024995D01*
X184387975Y-96184995D02*
X184387975Y-92764995D01*
X184387975Y-92764995D02*
X179917975Y-92764995D01*
X179917975Y-96184995D02*
X184387975Y-96184995D01*
X180427975Y-95674995D02*
X182152975Y-95674995D01*
X184677975Y-92474995D02*
X183677975Y-92474995D01*
X180227975Y-94024995D02*
X180227975Y-94824995D01*
X183877975Y-94824995D02*
X183877975Y-95674995D01*
X180227975Y-94824995D02*
X180427975Y-94824995D01*
X180427975Y-94024995D02*
X180227975Y-94024995D01*
X183877975Y-94024995D02*
X184077975Y-94024995D01*
X183877975Y-95674995D02*
X182152975Y-95674995D01*
X182152975Y-93274995D02*
X183877975Y-93274995D01*
X182152975Y-93274995D02*
X180427975Y-93274995D01*
X184077975Y-94024995D02*
X184077975Y-94824995D01*
D12*
X151296333Y-97505591D02*
X153696333Y-97505591D01*
X153696333Y-97505591D02*
X153696333Y-103505591D01*
X153696333Y-103505591D02*
X151296333Y-103505591D01*
X151296333Y-103505591D02*
X151296333Y-97505591D01*
G36*
X153696333Y-103505591D02*
G01*
X151296333Y-103505591D01*
X151296333Y-102947191D01*
X153696333Y-102947191D01*
X153696333Y-103505591D01*
G37*
X153696333Y-103505591D02*
X151296333Y-103505591D01*
X151296333Y-102947191D01*
X153696333Y-102947191D01*
X153696333Y-103505591D01*
X97194333Y-64942791D02*
X99594333Y-64942791D01*
X99594333Y-64942791D02*
X99594333Y-70942791D01*
X99594333Y-70942791D02*
X97194333Y-70942791D01*
X97194333Y-70942791D02*
X97194333Y-64942791D01*
G36*
X99594333Y-70942791D02*
G01*
X97194333Y-70942791D01*
X97194333Y-70384391D01*
X99594333Y-70384391D01*
X99594333Y-70942791D01*
G37*
X99594333Y-70942791D02*
X97194333Y-70942791D01*
X97194333Y-70384391D01*
X99594333Y-70384391D01*
X99594333Y-70942791D01*
D10*
X113524775Y-56296800D02*
X114524775Y-56296800D01*
X100524775Y-70296800D02*
X100524775Y-69296800D01*
X100524775Y-61796800D02*
X100524775Y-61296800D01*
X105524775Y-56596800D02*
X105524775Y-55596800D01*
X100524775Y-57696800D02*
X100524775Y-57096800D01*
X109024775Y-55096800D02*
X106024775Y-55096800D01*
X101524775Y-70296800D02*
X100524775Y-70296800D01*
X114524775Y-56296800D02*
X114524775Y-57296800D01*
X100524775Y-57096800D02*
X105024775Y-57096800D01*
X100524775Y-56296800D02*
X101524775Y-56296800D01*
X109524775Y-55596800D02*
X109024775Y-55096800D01*
X105024775Y-61096800D02*
X105024775Y-61796800D01*
X109524775Y-59096800D02*
X109024775Y-59596800D01*
X114524775Y-70296800D02*
X113524775Y-70296800D01*
X105024775Y-61796800D02*
X100524775Y-61796800D01*
X106024775Y-55096800D02*
X105524775Y-55596800D01*
X109024775Y-59596800D02*
X106524775Y-59596800D01*
X114524775Y-69296800D02*
X114524775Y-70296800D01*
X100524775Y-57296800D02*
X100524775Y-56296800D01*
X106524775Y-59596800D02*
G75*
G03*
X105024775Y-61096800I0J-1500000D01*
G01*
X105024775Y-57096800D02*
G75*
G03*
X105524775Y-56596800I0J500000D01*
G01*
D12*
X115228333Y-79011391D02*
X117628333Y-79011391D01*
X117628333Y-79011391D02*
X117628333Y-85011391D01*
X117628333Y-85011391D02*
X115228333Y-85011391D01*
X115228333Y-85011391D02*
X115228333Y-79011391D01*
G36*
X117628333Y-85011391D02*
G01*
X115228333Y-85011391D01*
X115228333Y-84452991D01*
X117628333Y-84452991D01*
X117628333Y-85011391D01*
G37*
X117628333Y-85011391D02*
X115228333Y-85011391D01*
X115228333Y-84452991D01*
X117628333Y-84452991D01*
X117628333Y-85011391D01*
D10*
X154779175Y-92958400D02*
X154779175Y-91958400D01*
X167779175Y-91958400D02*
X168779175Y-91958400D01*
X154779175Y-92758400D02*
X159279175Y-92758400D01*
X154779175Y-97458400D02*
X154779175Y-96958400D01*
X163779175Y-91258400D02*
X163279175Y-90758400D01*
X159779175Y-92258400D02*
X159779175Y-91258400D01*
X160279175Y-90758400D02*
X159779175Y-91258400D01*
X163279175Y-95258400D02*
X160779175Y-95258400D01*
X155779175Y-105958400D02*
X154779175Y-105958400D01*
X163279175Y-90758400D02*
X160279175Y-90758400D01*
X168779175Y-105958400D02*
X167779175Y-105958400D01*
X163779175Y-94758400D02*
X163279175Y-95258400D01*
X168779175Y-91958400D02*
X168779175Y-92958400D01*
X159279175Y-97458400D02*
X154779175Y-97458400D01*
X154779175Y-93358400D02*
X154779175Y-92758400D01*
X154779175Y-105958400D02*
X154779175Y-104958400D01*
X159279175Y-96758400D02*
X159279175Y-97458400D01*
X168779175Y-104958400D02*
X168779175Y-105958400D01*
X154779175Y-91958400D02*
X155779175Y-91958400D01*
X159279175Y-92758400D02*
G75*
G03*
X159779175Y-92258400I0J500000D01*
G01*
X160779175Y-95258400D02*
G75*
G03*
X159279175Y-96758400I0J-1500000D01*
G01*
X118609575Y-71006800D02*
X118609575Y-70006800D01*
X118609575Y-70806800D02*
X123109575Y-70806800D01*
X119609575Y-84006800D02*
X118609575Y-84006800D01*
X123109575Y-74806800D02*
X123109575Y-75506800D01*
X127109575Y-68806800D02*
X124109575Y-68806800D01*
X127609575Y-69306800D02*
X127109575Y-68806800D01*
X118609575Y-70006800D02*
X119609575Y-70006800D01*
X124109575Y-68806800D02*
X123609575Y-69306800D01*
X132609575Y-83006800D02*
X132609575Y-84006800D01*
X123609575Y-70306800D02*
X123609575Y-69306800D01*
X118609575Y-75506800D02*
X118609575Y-75006800D01*
X131609575Y-70006800D02*
X132609575Y-70006800D01*
X127109575Y-73306800D02*
X124609575Y-73306800D01*
X118609575Y-84006800D02*
X118609575Y-83006800D01*
X118609575Y-71406800D02*
X118609575Y-70806800D01*
X132609575Y-84006800D02*
X131609575Y-84006800D01*
X132609575Y-70006800D02*
X132609575Y-71006800D01*
X123109575Y-75506800D02*
X118609575Y-75506800D01*
X127609575Y-72806800D02*
X127109575Y-73306800D01*
X123109575Y-70806800D02*
G75*
G03*
X123609575Y-70306800I0J500000D01*
G01*
X124609575Y-73306800D02*
G75*
G03*
X123109575Y-74806800I0J-1500000D01*
G01*
D12*
X133262333Y-94705591D02*
X135662333Y-94705591D01*
X135662333Y-94705591D02*
X135662333Y-100705591D01*
X135662333Y-100705591D02*
X133262333Y-100705591D01*
X133262333Y-100705591D02*
X133262333Y-94705591D01*
G36*
X135662333Y-100705591D02*
G01*
X133262333Y-100705591D01*
X133262333Y-100147191D01*
X135662333Y-100147191D01*
X135662333Y-100705591D01*
G37*
X135662333Y-100705591D02*
X133262333Y-100705591D01*
X133262333Y-100147191D01*
X135662333Y-100147191D01*
X135662333Y-100705591D01*
X133262333Y-60618791D02*
X135662333Y-60618791D01*
X135662333Y-60618791D02*
X135662333Y-66618791D01*
X135662333Y-66618791D02*
X133262333Y-66618791D01*
X133262333Y-66618791D02*
X133262333Y-60618791D01*
G36*
X135662333Y-66618791D02*
G01*
X133262333Y-66618791D01*
X133262333Y-66060391D01*
X135662333Y-66060391D01*
X135662333Y-66618791D01*
G37*
X135662333Y-66618791D02*
X133262333Y-66618791D01*
X133262333Y-66060391D01*
X135662333Y-66060391D01*
X135662333Y-66618791D01*
D10*
X170516030Y-121053159D02*
X171016030Y-120187133D01*
X171016030Y-120187133D02*
X171882056Y-120687133D01*
X176379170Y-121897903D02*
X175696157Y-122080915D01*
X179160259Y-124080915D02*
X178977246Y-123397903D01*
X164016030Y-132311489D02*
X164516030Y-131445463D01*
X176140386Y-139311489D02*
X175274360Y-138811489D01*
X177410259Y-127112004D02*
X176727246Y-127295017D01*
X176727246Y-127295017D02*
X174562183Y-126045017D01*
X178977246Y-123397903D02*
X176379170Y-121897903D01*
X168266030Y-124950273D02*
X168516030Y-124517260D01*
X172163144Y-127200273D02*
X168266030Y-124950273D01*
X164882056Y-132811489D02*
X164016030Y-132311489D01*
X172513144Y-126594055D02*
X172163144Y-127200273D01*
X175196157Y-122946941D02*
X175696157Y-122080915D01*
X170316030Y-121399569D02*
X170616030Y-120879953D01*
X176640386Y-138445463D02*
X176140386Y-139311489D01*
X170616030Y-120879953D02*
X174513144Y-123129953D01*
X182274360Y-126687133D02*
X183140386Y-127187133D01*
X183140386Y-127187133D02*
X182640386Y-128053159D01*
X174513144Y-123129954D02*
G75*
G03*
X175196157Y-122946941I250000J433013D01*
G01*
X174562184Y-126045016D02*
G75*
G03*
X172513144Y-126594055I-750001J-1299039D01*
G01*
X82439975Y-76413600D02*
X83439975Y-76413600D01*
X82439975Y-77413600D02*
X82439975Y-76413600D01*
X96439975Y-90413600D02*
X95439975Y-90413600D01*
X87439975Y-76713600D02*
X87439975Y-75713600D01*
X83439975Y-90413600D02*
X82439975Y-90413600D01*
X96439975Y-76413600D02*
X96439975Y-77413600D01*
X82439975Y-81913600D02*
X82439975Y-81413600D01*
X86939975Y-81213600D02*
X86939975Y-81913600D01*
X82439975Y-77213600D02*
X86939975Y-77213600D01*
X87939975Y-75213600D02*
X87439975Y-75713600D01*
X91439975Y-75713600D02*
X90939975Y-75213600D01*
X90939975Y-79713600D02*
X88439975Y-79713600D01*
X86939975Y-81913600D02*
X82439975Y-81913600D01*
X82439975Y-77813600D02*
X82439975Y-77213600D01*
X82439975Y-90413600D02*
X82439975Y-89413600D01*
X95439975Y-76413600D02*
X96439975Y-76413600D01*
X96439975Y-89413600D02*
X96439975Y-90413600D01*
X90939975Y-75213600D02*
X87939975Y-75213600D01*
X91439975Y-79213600D02*
X90939975Y-79713600D01*
X86939975Y-77213600D02*
G75*
G03*
X87439975Y-76713600I0J500000D01*
G01*
X88439975Y-79713600D02*
G75*
G03*
X86939975Y-81213600I0J-1500000D01*
G01*
D12*
X133262333Y-77735391D02*
X135662333Y-77735391D01*
X135662333Y-77735391D02*
X135662333Y-83735391D01*
X135662333Y-83735391D02*
X133262333Y-83735391D01*
X133262333Y-83735391D02*
X133262333Y-77735391D01*
G36*
X135662333Y-83735391D02*
G01*
X133262333Y-83735391D01*
X133262333Y-83176991D01*
X135662333Y-83176991D01*
X135662333Y-83735391D01*
G37*
X135662333Y-83735391D02*
X133262333Y-83735391D01*
X133262333Y-83176991D01*
X135662333Y-83176991D01*
X135662333Y-83735391D01*
X97194333Y-82059391D02*
X99594333Y-82059391D01*
X99594333Y-82059391D02*
X99594333Y-88059391D01*
X99594333Y-88059391D02*
X97194333Y-88059391D01*
X97194333Y-88059391D02*
X97194333Y-82059391D01*
G36*
X99594333Y-88059391D02*
G01*
X97194333Y-88059391D01*
X97194333Y-87500991D01*
X99594333Y-87500991D01*
X99594333Y-88059391D01*
G37*
X99594333Y-88059391D02*
X97194333Y-88059391D01*
X97194333Y-87500991D01*
X99594333Y-87500991D01*
X99594333Y-88059391D01*
X115228333Y-61894791D02*
X117628333Y-61894791D01*
X117628333Y-61894791D02*
X117628333Y-67894791D01*
X117628333Y-67894791D02*
X115228333Y-67894791D01*
X115228333Y-67894791D02*
X115228333Y-61894791D01*
G36*
X117628333Y-67894791D02*
G01*
X115228333Y-67894791D01*
X115228333Y-67336391D01*
X117628333Y-67336391D01*
X117628333Y-67894791D01*
G37*
X117628333Y-67894791D02*
X115228333Y-67894791D01*
X115228333Y-67336391D01*
X117628333Y-67336391D01*
X117628333Y-67894791D01*
D10*
X100524775Y-87314800D02*
X100524775Y-86314800D01*
X101524775Y-87314800D02*
X100524775Y-87314800D01*
X100524775Y-74714800D02*
X100524775Y-74114800D01*
X105524775Y-73614800D02*
X105524775Y-72614800D01*
X109524775Y-72614800D02*
X109024775Y-72114800D01*
X109024775Y-76614800D02*
X106524775Y-76614800D01*
X106024775Y-72114800D02*
X105524775Y-72614800D01*
X100524775Y-74314800D02*
X100524775Y-73314800D01*
X105024775Y-78114800D02*
X105024775Y-78814800D01*
X114524775Y-73314800D02*
X114524775Y-74314800D01*
X100524775Y-73314800D02*
X101524775Y-73314800D01*
X100524775Y-74114800D02*
X105024775Y-74114800D01*
X109524775Y-76114800D02*
X109024775Y-76614800D01*
X109024775Y-72114800D02*
X106024775Y-72114800D01*
X114524775Y-86314800D02*
X114524775Y-87314800D01*
X105024775Y-78814800D02*
X100524775Y-78814800D01*
X113524775Y-73314800D02*
X114524775Y-73314800D01*
X100524775Y-78814800D02*
X100524775Y-78314800D01*
X114524775Y-87314800D02*
X113524775Y-87314800D01*
X105024775Y-74114800D02*
G75*
G03*
X105524775Y-73614800I0J500000D01*
G01*
X106524775Y-76614800D02*
G75*
G03*
X105024775Y-78114800I0J-1500000D01*
G01*
X127609575Y-89824800D02*
X127109575Y-90324800D01*
X127109575Y-90324800D02*
X124609575Y-90324800D01*
X132609575Y-100024800D02*
X132609575Y-101024800D01*
X131609575Y-87024800D02*
X132609575Y-87024800D01*
X132609575Y-87024800D02*
X132609575Y-88024800D01*
X118609575Y-88424800D02*
X118609575Y-87824800D01*
X118609575Y-87824800D02*
X123109575Y-87824800D01*
X118609575Y-88024800D02*
X118609575Y-87024800D01*
X123109575Y-92524800D02*
X118609575Y-92524800D01*
X123609575Y-87324800D02*
X123609575Y-86324800D01*
X127109575Y-85824800D02*
X124109575Y-85824800D01*
X118609575Y-92524800D02*
X118609575Y-92024800D01*
X132609575Y-101024800D02*
X131609575Y-101024800D01*
X127609575Y-86324800D02*
X127109575Y-85824800D01*
X118609575Y-87024800D02*
X119609575Y-87024800D01*
X124109575Y-85824800D02*
X123609575Y-86324800D01*
X118609575Y-101024800D02*
X118609575Y-100024800D01*
X123109575Y-91824800D02*
X123109575Y-92524800D01*
X119609575Y-101024800D02*
X118609575Y-101024800D01*
X123109575Y-87824800D02*
G75*
G03*
X123609575Y-87324800I0J500000D01*
G01*
X124609575Y-90324800D02*
G75*
G03*
X123109575Y-91824800I0J-1500000D01*
G01*
X145694375Y-89124800D02*
X145194375Y-88624800D01*
X150694375Y-102824800D02*
X150694375Y-103824800D01*
X141694375Y-90124800D02*
X141694375Y-89124800D01*
X136694375Y-95324800D02*
X136694375Y-94824800D01*
X136694375Y-103824800D02*
X136694375Y-102824800D01*
X145194375Y-88624800D02*
X142194375Y-88624800D01*
X136694375Y-89824800D02*
X137694375Y-89824800D01*
X137694375Y-103824800D02*
X136694375Y-103824800D01*
X141194375Y-95324800D02*
X136694375Y-95324800D01*
X136694375Y-90824800D02*
X136694375Y-89824800D01*
X136694375Y-91224800D02*
X136694375Y-90624800D01*
X145194375Y-93124800D02*
X142694375Y-93124800D01*
X141194375Y-94624800D02*
X141194375Y-95324800D01*
X150694375Y-103824800D02*
X149694375Y-103824800D01*
X150694375Y-89824800D02*
X150694375Y-90824800D01*
X149694375Y-89824800D02*
X150694375Y-89824800D01*
X145694375Y-92624800D02*
X145194375Y-93124800D01*
X136694375Y-90624800D02*
X141194375Y-90624800D01*
X142194375Y-88624800D02*
X141694375Y-89124800D01*
X142694375Y-93124800D02*
G75*
G03*
X141194375Y-94624800I0J-1500000D01*
G01*
X141194375Y-90624800D02*
G75*
G03*
X141694375Y-90124800I0J500000D01*
G01*
X82439975Y-60144800D02*
X86939975Y-60144800D01*
X83439975Y-73344800D02*
X82439975Y-73344800D01*
X82439975Y-60744800D02*
X82439975Y-60144800D01*
X86939975Y-64144800D02*
X86939975Y-64844800D01*
X96439975Y-72344800D02*
X96439975Y-73344800D01*
X91439975Y-62144800D02*
X90939975Y-62644800D01*
X96439975Y-73344800D02*
X95439975Y-73344800D01*
X82439975Y-59344800D02*
X83439975Y-59344800D01*
X82439975Y-60344800D02*
X82439975Y-59344800D01*
X87439975Y-59644800D02*
X87439975Y-58644800D01*
X90939975Y-62644800D02*
X88439975Y-62644800D01*
X82439975Y-73344800D02*
X82439975Y-72344800D01*
X90939975Y-58144800D02*
X87939975Y-58144800D01*
X95439975Y-59344800D02*
X96439975Y-59344800D01*
X87939975Y-58144800D02*
X87439975Y-58644800D01*
X86939975Y-64844800D02*
X82439975Y-64844800D01*
X96439975Y-59344800D02*
X96439975Y-60344800D01*
X82439975Y-64844800D02*
X82439975Y-64344800D01*
X91439975Y-58644800D02*
X90939975Y-58144800D01*
X88439975Y-62644800D02*
G75*
G03*
X86939975Y-64144800I0J-1500000D01*
G01*
X86939975Y-60144800D02*
G75*
G03*
X87439975Y-59644800I0J500000D01*
G01*
D11*
X187126692Y-127163652D02*
X188243865Y-127808652D01*
X188893865Y-126682819D02*
X187776692Y-126037819D01*
X186058520Y-123313780D02*
X186158520Y-123140575D01*
X188893865Y-126682819D02*
X188975730Y-126961024D01*
X188243865Y-127808652D02*
X188525730Y-127740446D01*
X186401692Y-128419388D02*
X189251692Y-123483044D01*
X188677006Y-122458428D02*
X187992846Y-122063428D01*
X184542846Y-128039004D02*
X185227006Y-128434004D01*
X184558520Y-125911857D02*
X185408520Y-124439613D01*
X188525730Y-127740446D02*
X188975730Y-126961024D01*
D10*
X141194375Y-60588600D02*
X141194375Y-61288600D01*
X145194375Y-59088600D02*
X142694375Y-59088600D01*
X150694375Y-55788600D02*
X150694375Y-56788600D01*
X149694375Y-55788600D02*
X150694375Y-55788600D01*
X145694375Y-58588600D02*
X145194375Y-59088600D01*
X145194375Y-54588600D02*
X142194375Y-54588600D01*
X136694375Y-57188600D02*
X136694375Y-56588600D01*
X136694375Y-69788600D02*
X136694375Y-68788600D01*
X150694375Y-68788600D02*
X150694375Y-69788600D01*
X150694375Y-69788600D02*
X149694375Y-69788600D01*
X136694375Y-61288600D02*
X136694375Y-60788600D01*
X136694375Y-55788600D02*
X137694375Y-55788600D01*
X141194375Y-61288600D02*
X136694375Y-61288600D01*
X136694375Y-56788600D02*
X136694375Y-55788600D01*
X145694375Y-55088600D02*
X145194375Y-54588600D01*
X136694375Y-56588600D02*
X141194375Y-56588600D01*
X137694375Y-69788600D02*
X136694375Y-69788600D01*
X141694375Y-56088600D02*
X141694375Y-55088600D01*
X142194375Y-54588600D02*
X141694375Y-55088600D01*
X142694375Y-59088600D02*
G75*
G03*
X141194375Y-60588600I0J-1500000D01*
G01*
X141194375Y-56588600D02*
G75*
G03*
X141694375Y-56088600I0J500000D01*
G01*
X114524775Y-90332800D02*
X114524775Y-91332800D01*
X100524775Y-104332800D02*
X100524775Y-103332800D01*
X113524775Y-90332800D02*
X114524775Y-90332800D01*
X105024775Y-95132800D02*
X105024775Y-95832800D01*
X100524775Y-91132800D02*
X105024775Y-91132800D01*
X100524775Y-90332800D02*
X101524775Y-90332800D01*
X114524775Y-104332800D02*
X113524775Y-104332800D01*
X114524775Y-103332800D02*
X114524775Y-104332800D01*
X101524775Y-104332800D02*
X100524775Y-104332800D01*
X109024775Y-93632800D02*
X106524775Y-93632800D01*
X109524775Y-89632800D02*
X109024775Y-89132800D01*
X100524775Y-91732800D02*
X100524775Y-91132800D01*
X105524775Y-90632800D02*
X105524775Y-89632800D01*
X100524775Y-91332800D02*
X100524775Y-90332800D01*
X109024775Y-89132800D02*
X106024775Y-89132800D01*
X105024775Y-95832800D02*
X100524775Y-95832800D01*
X109524775Y-93132800D02*
X109024775Y-93632800D01*
X106024775Y-89132800D02*
X105524775Y-89632800D01*
X100524775Y-95832800D02*
X100524775Y-95332800D01*
X105024775Y-91132800D02*
G75*
G03*
X105524775Y-90632800I0J500000D01*
G01*
X106524775Y-93632800D02*
G75*
G03*
X105024775Y-95132800I0J-1500000D01*
G01*
D12*
X158170585Y-110915768D02*
X164170585Y-110915768D01*
X164170585Y-110915768D02*
X164170585Y-108515768D01*
X164170585Y-108515768D02*
X158170585Y-108515768D01*
X158170585Y-108515768D02*
X158170585Y-110915768D01*
G36*
X164170585Y-110915768D02*
G01*
X163612185Y-110915768D01*
X163612185Y-108515768D01*
X164170585Y-108515768D01*
X164170585Y-110915768D01*
G37*
X164170585Y-110915768D02*
X163612185Y-110915768D01*
X163612185Y-108515768D01*
X164170585Y-108515768D01*
X164170585Y-110915768D01*
X97194333Y-99029591D02*
X99594333Y-99029591D01*
X99594333Y-99029591D02*
X99594333Y-105029591D01*
X99594333Y-105029591D02*
X97194333Y-105029591D01*
X97194333Y-105029591D02*
X97194333Y-99029591D01*
G36*
X99594333Y-105029591D02*
G01*
X97194333Y-105029591D01*
X97194333Y-104471191D01*
X99594333Y-104471191D01*
X99594333Y-105029591D01*
G37*
X99594333Y-105029591D02*
X97194333Y-105029591D01*
X97194333Y-104471191D01*
X99594333Y-104471191D01*
X99594333Y-105029591D01*
X168923933Y-97610191D02*
X171323933Y-97610191D01*
X171323933Y-97610191D02*
X171323933Y-103610191D01*
X171323933Y-103610191D02*
X168923933Y-103610191D01*
X168923933Y-103610191D02*
X168923933Y-97610191D01*
G36*
X171323933Y-103610191D02*
G01*
X168923933Y-103610191D01*
X168923933Y-103051791D01*
X171323933Y-103051791D01*
X171323933Y-103610191D01*
G37*
X171323933Y-103610191D02*
X168923933Y-103610191D01*
X168923933Y-103051791D01*
X171323933Y-103051791D01*
X171323933Y-103610191D01*
D10*
X163279175Y-61222400D02*
X160779175Y-61222400D01*
X168779175Y-71922400D02*
X167779175Y-71922400D01*
X159279175Y-63422400D02*
X154779175Y-63422400D01*
X168779175Y-70922400D02*
X168779175Y-71922400D01*
X163279175Y-56722400D02*
X160279175Y-56722400D01*
X167779175Y-57922400D02*
X168779175Y-57922400D01*
X163779175Y-60722400D02*
X163279175Y-61222400D01*
X154779175Y-59322400D02*
X154779175Y-58722400D01*
X159279175Y-62722400D02*
X159279175Y-63422400D01*
X168779175Y-57922400D02*
X168779175Y-58922400D01*
X159779175Y-58222400D02*
X159779175Y-57222400D01*
X154779175Y-57922400D02*
X155779175Y-57922400D01*
X160279175Y-56722400D02*
X159779175Y-57222400D01*
X154779175Y-63422400D02*
X154779175Y-62922400D01*
X154779175Y-58922400D02*
X154779175Y-57922400D01*
X154779175Y-71922400D02*
X154779175Y-70922400D01*
X163779175Y-57222400D02*
X163279175Y-56722400D01*
X155779175Y-71922400D02*
X154779175Y-71922400D01*
X154779175Y-58722400D02*
X159279175Y-58722400D01*
X159279175Y-58722400D02*
G75*
G03*
X159779175Y-58222400I0J500000D01*
G01*
X160779175Y-61222400D02*
G75*
G03*
X159279175Y-62722400I0J-1500000D01*
G01*
D12*
X168923933Y-63523391D02*
X171323933Y-63523391D01*
X171323933Y-63523391D02*
X171323933Y-69523391D01*
X171323933Y-69523391D02*
X168923933Y-69523391D01*
X168923933Y-69523391D02*
X168923933Y-63523391D01*
G36*
X171323933Y-69523391D02*
G01*
X168923933Y-69523391D01*
X168923933Y-68964991D01*
X171323933Y-68964991D01*
X171323933Y-69523391D01*
G37*
X171323933Y-69523391D02*
X168923933Y-69523391D01*
X168923933Y-68964991D01*
X171323933Y-68964991D01*
X171323933Y-69523391D01*
M02*
