M48
; DRILL file {KiCad (6.0.6)} date Wed Jul 13 21:04:52 2022
; FORMAT={-:-/ absolute / inch / decimal}
; #@! TF.CreationDate,2022-07-13T21:04:52+08:00
; #@! TF.GenerationSoftware,Kicad,Pcbnew,(6.0.6)
; #@! TF.FileFunction,Plated,1,2,PTH
FMAT,2
INCH
; #@! TA.AperFunction,Plated,PTH,ViaDrill
T1C0.0118
; #@! TA.AperFunction,Plated,PTH,ComponentDrill
T2C0.0118
; #@! TA.AperFunction,Plated,PTH,ComponentDrill
T3C0.0138
; #@! TA.AperFunction,Plated,PTH,ViaDrill
T4C0.0157
; #@! TA.AperFunction,Plated,PTH,ComponentDrill
T5C0.0197
; #@! TA.AperFunction,Plated,PTH,ComponentDrill
T6C0.0394
; #@! TA.AperFunction,Plated,PTH,ComponentDrill
T7C0.0433
; #@! TA.AperFunction,Plated,PTH,ComponentDrill
T8C0.0866
%
G90
G05
T1
X3.5608Y-2.5257
X3.5608Y-3.1947
X3.5608Y-3.8617
X3.6384Y-2.8763
X3.7968Y-3.0237
X3.8474Y-3.1913
X3.8474Y-3.8613
X3.8524Y-2.5263
X3.9064Y-3.7323
X3.9071Y-2.389
X3.9074Y-3.0563
X4.2728Y-2.3897
X4.2808Y-3.7257
X4.4724Y-2.9163
X4.5587Y-2.389
X4.6191Y-2.2288
X4.6191Y-3.5688
X4.6224Y-2.8963
X4.9828Y-2.2357
X4.9868Y-3.5704
X4.9888Y-2.8997
X5.2707Y-2.2288
X5.3311Y-3.679
X5.3564Y-2.8303
X5.6908Y-2.3487
X5.6978Y-3.6807
X5.7038Y-3.0057
X5.7664Y-3.8763
X5.9448Y-2.9217
X5.9835Y-2.3397
X5.9895Y-4.5433
X6.0664Y-3.9683
X6.4028Y-2.4327
X6.4044Y-3.7707
X6.4063Y-4.7446
X6.4068Y-3.0971
X6.4864Y-3.9743
X6.5188Y-4.7807
X6.6124Y-4.6213
X6.6954Y-3.6743
X6.6975Y-2.423
X6.7225Y-3.0076
X6.7644Y-3.6743
X6.7644Y-3.9743
X6.8064Y-3.0983
X6.8424Y-4.8363
X6.9784Y-5.1143
X7.0274Y-2.8863
X7.0294Y-3.1893
X7.0294Y-3.2883
X7.0324Y-3.4893
X7.0334Y-3.3913
X7.0444Y-3.0723
X7.0464Y-2.9703
X7.2964Y-3.3203
X7.2964Y-3.4223
X7.2964Y-3.5223
X7.2984Y-3.1218
X7.2984Y-3.2218
X7.3029Y-2.9218
T2
X3.8735Y-2.6568
X3.8735Y-2.7906
X3.8735Y-3.3307
X3.8735Y-3.4645
X3.8735Y-3.9988
X3.8735Y-4.1326
X4.5835Y-2.5248
X4.5835Y-2.6586
X4.5835Y-3.1986
X4.5835Y-3.3325
X4.5835Y-3.8668
X4.5835Y-4.0006
X5.2935Y-2.4445
X5.2935Y-2.5784
X5.2935Y-3.1184
X5.2935Y-3.2523
X5.2935Y-3.7865
X5.2935Y-3.9204
X6.0035Y-2.5528
X6.0035Y-2.6866
X6.0035Y-3.2286
X6.0035Y-3.3625
X6.0035Y-3.8968
X6.0035Y-4.0306
X6.2702Y-4.3342
X6.2702Y-4.4402
X6.404Y-4.3342
X6.404Y-4.4402
X6.6975Y-2.5589
X6.6975Y-2.6927
X6.6975Y-3.2328
X6.6975Y-3.3666
X6.6975Y-3.9009
X6.6975Y-4.0347
T3
X7.1156Y-3.8876
X7.1156Y-4.3253
X7.1156Y-4.7631
X7.171Y-3.5668
X7.171Y-3.618
T4
X3.1951Y-2.521
X3.1951Y-3.193
X3.1951Y-3.861
X4.107Y-3.2562
X4.113Y-3.8342
X4.2788Y-3.0597
X4.4824Y-2.2163
X4.5587Y-3.059
X4.5587Y-3.729
X4.817Y-3.1419
X4.835Y-3.8019
X5.2707Y-2.8988
X5.2707Y-3.5688
X5.3311Y-2.339
X5.3311Y-3.009
X5.539Y-3.1882
X5.541Y-3.7842
X5.7764Y-4.5763
X5.9624Y-2.1863
X5.9827Y-3.009
X5.9827Y-3.679
X6.0431Y-2.423
X6.0431Y-3.093
X6.0431Y-3.763
X6.243Y-3.2782
X6.251Y-3.8842
X6.6107Y-4.553
X6.6465Y-3.3077
X6.6474Y-2.8163
X6.6951Y-3.7634
X6.6968Y-3.0937
X7.1124Y-3.0208
X7.1808Y-2.8248
X7.2976Y-3.0208
X7.3114Y-4.7593
X7.3324Y-4.9343
X7.3968Y-3.6068
T5
X7.1464Y-3.7233
X7.1956Y-3.7233
T6
X7.1202Y-3.7551
X7.2202Y-3.7551
T7
X6.8734Y-2.9216
X6.8734Y-3.0216
X6.8734Y-3.1216
X6.8734Y-3.2216
X6.8734Y-3.3216
X6.8734Y-3.4216
X6.8734Y-3.5216
X7.468Y-2.9216
X7.468Y-3.0216
X7.468Y-3.1216
X7.468Y-3.2216
X7.468Y-3.3216
X7.468Y-3.4216
X7.468Y-3.5216
T8
X6.8928Y-3.7628
X7.4278Y-3.7648
X7.4278Y-4.6763
T0
M30
