M48
; DRILL file {KiCad (6.0.6)} date Thu Jul  7 14:04:18 2022
; FORMAT={-:-/ absolute / inch / decimal}
; #@! TF.CreationDate,2022-07-07T14:04:18+08:00
; #@! TF.GenerationSoftware,Kicad,Pcbnew,(6.0.6)
; #@! TF.FileFunction,NonPlated,1,2,NPTH
FMAT,2
INCH
; #@! TA.AperFunction,NonPlated,NPTH,ComponentDrill
T1C0.0354
; #@! TA.AperFunction,NonPlated,NPTH,ComponentDrill
T2C0.0670
; #@! TA.AperFunction,NonPlated,NPTH,ComponentDrill
T3C0.1181
; #@! TA.AperFunction,NonPlated,NPTH,ComponentDrill
T4C0.1260
; #@! TA.AperFunction,NonPlated,NPTH,ComponentDrill
T5C0.1350
%
G90
G05
T1
X7.3249Y-4.9646
X7.3249Y-4.9646
X7.384Y-4.8624
X7.384Y-4.8624
T2
X3.3047Y-2.612
X3.3047Y-3.284
X3.3047Y-3.952
X3.7378Y-2.612
X3.7378Y-3.284
X3.7378Y-3.952
X4.0167Y-2.492
X4.0167Y-3.162
X4.0167Y-3.832
X4.4498Y-2.492
X4.4498Y-3.162
X4.4498Y-3.832
X4.7287Y-2.3618
X4.7287Y-3.0318
X4.7287Y-3.7018
X5.1618Y-2.3618
X5.1618Y-3.0318
X5.1618Y-3.7018
X5.4407Y-2.472
X5.4407Y-3.142
X5.4407Y-3.812
X5.8641Y-4.743
X5.8738Y-2.472
X5.8738Y-3.142
X5.8738Y-3.812
X6.1527Y-2.556
X6.1527Y-3.226
X6.1527Y-3.896
X6.2824Y-4.8551
X6.5858Y-2.556
X6.5858Y-3.226
X6.5858Y-3.896
X6.6657Y-5.0108
X7.0408Y-5.2273
T3
X3.3244Y-2.4644
X3.3244Y-3.1364
X3.3244Y-3.8044
X3.5213Y-2.3777
X3.5213Y-3.0497
X3.5213Y-3.7177
X3.7181Y-2.4644
X3.7181Y-3.1364
X3.7181Y-3.8044
X4.0364Y-2.3444
X4.0364Y-3.0144
X4.0364Y-3.6844
X4.2333Y-2.2577
X4.2333Y-2.9277
X4.2333Y-3.5977
X4.4301Y-2.3444
X4.4301Y-3.0144
X4.4301Y-3.6844
X4.7484Y-2.2141
X4.7484Y-2.8841
X4.7484Y-3.5541
X4.9453Y-2.1275
X4.9453Y-2.7975
X4.9453Y-3.4675
X5.1421Y-2.2141
X5.1421Y-2.8841
X5.1421Y-3.5541
X5.4604Y-2.3244
X5.4604Y-2.9944
X5.4604Y-3.6644
X5.6573Y-2.2377
X5.6573Y-2.9077
X5.6573Y-3.5777
X5.8541Y-2.3244
X5.8541Y-2.9944
X5.8541Y-3.6644
X5.9213Y-4.6055
X6.1339Y-4.5727
X6.1724Y-2.4084
X6.1724Y-3.0784
X6.1724Y-3.7484
X6.3016Y-4.7074
X6.3693Y-2.3217
X6.3693Y-2.9917
X6.3693Y-3.6617
X6.5661Y-2.4084
X6.5661Y-3.0784
X6.5661Y-3.7484
X6.7566Y-4.8927
X6.9704Y-4.9162
X7.0976Y-5.0896
T4
X3.8063Y-2.176
X3.9529Y-4.261
X5.9532Y-4.261
X6.0833Y-2.132
X6.4739Y-4.934
T5
X3.5213Y-2.612
X3.5213Y-3.284
X3.5213Y-3.952
X4.2333Y-2.492
X4.2333Y-3.162
X4.2333Y-3.832
X4.9453Y-2.3618
X4.9453Y-3.0318
X4.9453Y-3.7018
X5.6573Y-2.472
X5.6573Y-3.142
X5.6573Y-3.812
X6.0733Y-4.799
X6.3693Y-2.556
X6.3693Y-3.226
X6.3693Y-3.896
X6.8533Y-5.119
T0
M30
