G04 #@! TF.GenerationSoftware,KiCad,Pcbnew,(6.0.6)*
G04 #@! TF.CreationDate,2022-07-19T13:35:42+08:00*
G04 #@! TF.ProjectId,Kretstr_d,4b726574-7374-472e-9464-2e6b69636164,rev?*
G04 #@! TF.SameCoordinates,Original*
G04 #@! TF.FileFunction,Soldermask,Top*
G04 #@! TF.FilePolarity,Negative*
%FSLAX46Y46*%
G04 Gerber Fmt 4.6, Leading zero omitted, Abs format (unit mm)*
G04 Created by KiCad (PCBNEW (6.0.6)) date 2022-07-19 13:35:42*
%MOMM*%
%LPD*%
G01*
G04 APERTURE LIST*
G04 Aperture macros list*
%AMRoundRect*
0 Rectangle with rounded corners*
0 $1 Rounding radius*
0 $2 $3 $4 $5 $6 $7 $8 $9 X,Y pos of 4 corners*
0 Add a 4 corners polygon primitive as box body*
4,1,4,$2,$3,$4,$5,$6,$7,$8,$9,$2,$3,0*
0 Add four circle primitives for the rounded corners*
1,1,$1+$1,$2,$3*
1,1,$1+$1,$4,$5*
1,1,$1+$1,$6,$7*
1,1,$1+$1,$8,$9*
0 Add four rect primitives between the rounded corners*
20,1,$1+$1,$2,$3,$4,$5,0*
20,1,$1+$1,$4,$5,$6,$7,0*
20,1,$1+$1,$6,$7,$8,$9,0*
20,1,$1+$1,$8,$9,$2,$3,0*%
%AMFreePoly0*
4,1,41,0.586777,0.930194,0.656366,0.874698,0.694986,0.794504,0.700000,0.750000,0.700000,-0.750000,0.680194,-0.836777,0.624698,-0.906366,0.544504,-0.944986,0.500000,-0.950000,0.000000,-0.950000,-0.023504,-0.944635,-0.083606,-0.943534,-0.139582,-0.934468,-0.274897,-0.892193,-0.326080,-0.867780,-0.444090,-0.789225,-0.486362,-0.751429,-0.577582,-0.642910,-0.607548,-0.594768,-0.664643,-0.465009,
-0.679893,-0.410393,-0.697476,-0.275933,-0.697084,-0.275882,-0.700000,-0.250000,-0.700000,0.250000,-0.697921,0.259109,-0.697582,0.286880,-0.675771,0.426957,-0.659192,0.481183,-0.598944,0.609508,-0.567811,0.656904,-0.473967,0.763162,-0.430783,0.799915,-0.310888,0.875563,-0.259125,0.898717,-0.122818,0.937674,-0.066635,0.945370,-0.042411,0.945222,0.000000,0.950000,0.500000,0.950000,
0.586777,0.930194,0.586777,0.930194,$1*%
%AMFreePoly1*
4,1,41,0.022678,0.944824,0.075125,0.944504,0.131210,0.936123,0.267031,0.895504,0.318507,0.871718,0.437469,0.794611,0.480202,0.757333,0.572740,0.649936,0.603290,0.602165,0.661967,0.473113,0.677883,0.418686,0.697980,0.278353,0.700000,0.250000,0.700000,-0.250000,0.699985,-0.252439,0.699836,-0.264655,0.697079,-0.295398,0.673559,-0.435199,0.656318,-0.489221,0.594506,-0.616800,
0.562797,-0.663810,0.467662,-0.768914,0.424032,-0.805137,0.303222,-0.879314,0.251181,-0.901834,0.114408,-0.939123,0.058135,-0.946132,0.037663,-0.945757,0.000000,-0.950000,-0.500000,-0.950000,-0.586777,-0.930194,-0.656366,-0.874698,-0.694986,-0.794504,-0.700000,-0.750000,-0.700000,0.750000,-0.680194,0.836777,-0.624698,0.906366,-0.544504,0.944986,-0.500000,0.950000,0.000000,0.950000,
0.022678,0.944824,0.022678,0.944824,$1*%
%AMFreePoly2*
4,1,22,0.686777,0.580194,0.756366,0.524698,0.794986,0.444504,0.800000,0.400000,0.800000,0.200000,0.780194,0.113223,0.741421,0.058579,0.141421,-0.541421,0.066056,-0.588777,-0.022393,-0.598742,-0.106406,-0.569345,-0.141421,-0.541421,-0.741421,0.058579,-0.788777,0.133944,-0.800000,0.200000,-0.800000,0.400000,-0.780194,0.486777,-0.724698,0.556366,-0.644504,0.594986,-0.600000,0.600000,
0.600000,0.600000,0.686777,0.580194,0.686777,0.580194,$1*%
%AMFreePoly3*
4,1,26,0.706406,1.169345,0.769345,1.106406,0.798742,1.022393,0.800000,1.000000,0.800000,-0.250000,0.780194,-0.336777,0.724698,-0.406366,0.644504,-0.444986,0.600000,-0.450000,-0.600000,-0.450000,-0.686777,-0.430194,-0.756366,-0.374698,-0.794986,-0.294504,-0.800000,-0.250000,-0.800000,1.000000,-0.780194,1.086777,-0.724698,1.156366,-0.644504,1.194986,-0.555496,1.194986,-0.475302,1.156366,
-0.458579,1.141421,0.000000,0.682842,0.458579,1.141421,0.533944,1.188777,0.622393,1.198742,0.706406,1.169345,0.706406,1.169345,$1*%
G04 Aperture macros list end*
%ADD10C,0.100000*%
%ADD11C,2.101800*%
%ADD12C,3.400000*%
%ADD13C,3.829000*%
%ADD14RoundRect,0.200000X-1.592168X-0.919239X0.919239X-1.592168X1.592168X0.919239X-0.919239X1.592168X0*%
%ADD15RoundRect,0.400000X0.200000X0.450000X-0.200000X0.450000X-0.200000X-0.450000X0.200000X-0.450000X0*%
%ADD16O,1.200000X1.700000*%
%ADD17RoundRect,0.200000X1.300000X1.300000X-1.300000X1.300000X-1.300000X-1.300000X1.300000X-1.300000X0*%
%ADD18RoundRect,0.200000X0.700000X-0.600000X0.700000X0.600000X-0.700000X0.600000X-0.700000X-0.600000X0*%
%ADD19C,3.600000*%
%ADD20FreePoly0,90.000000*%
%ADD21FreePoly1,90.000000*%
%ADD22RoundRect,0.200000X-0.700000X0.600000X-0.700000X-0.600000X0.700000X-0.600000X0.700000X0.600000X0*%
%ADD23RoundRect,0.200000X2.540000X-0.768600X2.540000X0.768600X-2.540000X0.768600X-2.540000X-0.768600X0*%
%ADD24C,16.400000*%
%ADD25RoundRect,0.200000X-1.775833X-0.475833X0.475833X-1.775833X1.775833X0.475833X-0.475833X1.775833X0*%
%ADD26RoundRect,0.400000X0.773173X0.068577X0.636365X0.444454X-0.773173X-0.068577X-0.636365X-0.444454X0*%
%ADD27RoundRect,0.450000X1.475870X0.111502X1.202254X0.863256X-1.475870X-0.111502X-1.202254X-0.863256X0*%
%ADD28C,2.000000*%
%ADD29FreePoly2,270.000000*%
%ADD30FreePoly2,90.000000*%
%ADD31FreePoly3,90.000000*%
%ADD32FreePoly3,270.000000*%
%ADD33RoundRect,0.200000X-0.850000X0.850000X-0.850000X-0.850000X0.850000X-0.850000X0.850000X0.850000X0*%
%ADD34O,2.100000X2.100000*%
%ADD35C,4.800000*%
%ADD36RoundRect,0.200000X0.096410X-0.633013X0.596410X0.233013X-0.096410X0.633013X-0.596410X-0.233013X0*%
%ADD37C,1.300000*%
%ADD38RoundRect,0.200000X0.474519X-0.678109X0.824519X-0.071891X-0.474519X0.678109X-0.824519X0.071891X0*%
G04 APERTURE END LIST*
G36*
X188341890Y-82337115D02*
G01*
X187325890Y-82337115D01*
X187325890Y-81321115D01*
X188341890Y-81321115D01*
X188341890Y-82337115D01*
G37*
D10*
X188341890Y-82337115D02*
X187325890Y-82337115D01*
X187325890Y-81321115D01*
X188341890Y-81321115D01*
X188341890Y-82337115D01*
G36*
X188341890Y-84877115D02*
G01*
X187325890Y-84877115D01*
X187325890Y-83861115D01*
X188341890Y-83861115D01*
X188341890Y-84877115D01*
G37*
X188341890Y-84877115D02*
X187325890Y-84877115D01*
X187325890Y-83861115D01*
X188341890Y-83861115D01*
X188341890Y-84877115D01*
G36*
X176962690Y-89957115D02*
G01*
X175946690Y-89957115D01*
X175946690Y-88941115D01*
X176962690Y-88941115D01*
X176962690Y-89957115D01*
G37*
X176962690Y-89957115D02*
X175946690Y-89957115D01*
X175946690Y-88941115D01*
X176962690Y-88941115D01*
X176962690Y-89957115D01*
G36*
X188341890Y-87417115D02*
G01*
X187325890Y-87417115D01*
X187325890Y-86401115D01*
X188341890Y-86401115D01*
X188341890Y-87417115D01*
G37*
X188341890Y-87417115D02*
X187325890Y-87417115D01*
X187325890Y-86401115D01*
X188341890Y-86401115D01*
X188341890Y-87417115D01*
G36*
X188341890Y-89957115D02*
G01*
X187325890Y-89957115D01*
X187325890Y-88941115D01*
X188341890Y-88941115D01*
X188341890Y-89957115D01*
G37*
X188341890Y-89957115D02*
X187325890Y-89957115D01*
X187325890Y-88941115D01*
X188341890Y-88941115D01*
X188341890Y-89957115D01*
G36*
X188341890Y-79797115D02*
G01*
X187325890Y-79797115D01*
X187325890Y-78781115D01*
X188341890Y-78781115D01*
X188341890Y-79797115D01*
G37*
X188341890Y-79797115D02*
X187325890Y-79797115D01*
X187325890Y-78781115D01*
X188341890Y-78781115D01*
X188341890Y-79797115D01*
G36*
X176962690Y-84877115D02*
G01*
X175946690Y-84877115D01*
X175946690Y-83861115D01*
X176962690Y-83861115D01*
X176962690Y-84877115D01*
G37*
X176962690Y-84877115D02*
X175946690Y-84877115D01*
X175946690Y-83861115D01*
X176962690Y-83861115D01*
X176962690Y-84877115D01*
G36*
X176962690Y-82337115D02*
G01*
X175946690Y-82337115D01*
X175946690Y-81321115D01*
X176962690Y-81321115D01*
X176962690Y-82337115D01*
G37*
X176962690Y-82337115D02*
X175946690Y-82337115D01*
X175946690Y-81321115D01*
X176962690Y-81321115D01*
X176962690Y-82337115D01*
G36*
X188341890Y-77257115D02*
G01*
X187325890Y-77257115D01*
X187325890Y-76241115D01*
X188341890Y-76241115D01*
X188341890Y-77257115D01*
G37*
X188341890Y-77257115D02*
X187325890Y-77257115D01*
X187325890Y-76241115D01*
X188341890Y-76241115D01*
X188341890Y-77257115D01*
G36*
X176962690Y-79797115D02*
G01*
X175946690Y-79797115D01*
X175946690Y-78781115D01*
X176962690Y-78781115D01*
X176962690Y-79797115D01*
G37*
X176962690Y-79797115D02*
X175946690Y-79797115D01*
X175946690Y-78781115D01*
X176962690Y-78781115D01*
X176962690Y-79797115D01*
G36*
X176962690Y-87417115D02*
G01*
X175946690Y-87417115D01*
X175946690Y-86401115D01*
X176962690Y-86401115D01*
X176962690Y-87417115D01*
G37*
X176962690Y-87417115D02*
X175946690Y-87417115D01*
X175946690Y-86401115D01*
X176962690Y-86401115D01*
X176962690Y-87417115D01*
G36*
X176962690Y-74717115D02*
G01*
X175946690Y-74717115D01*
X175946690Y-73701115D01*
X176962690Y-73701115D01*
X176962690Y-74717115D01*
G37*
X176962690Y-74717115D02*
X175946690Y-74717115D01*
X175946690Y-73701115D01*
X176962690Y-73701115D01*
X176962690Y-74717115D01*
G36*
X176962690Y-77257115D02*
G01*
X175946690Y-77257115D01*
X175946690Y-76241115D01*
X176962690Y-76241115D01*
X176962690Y-77257115D01*
G37*
X176962690Y-77257115D02*
X175946690Y-77257115D01*
X175946690Y-76241115D01*
X176962690Y-76241115D01*
X176962690Y-77257115D01*
G36*
X188341890Y-74717115D02*
G01*
X187325890Y-74717115D01*
X187325890Y-73701115D01*
X188341890Y-73701115D01*
X188341890Y-74717115D01*
G37*
X188341890Y-74717115D02*
X187325890Y-74717115D01*
X187325890Y-73701115D01*
X188341890Y-73701115D01*
X188341890Y-74717115D01*
D11*
X148418959Y-120529809D03*
D12*
X152191578Y-127700573D03*
X157590609Y-126869631D03*
X147931350Y-124281441D03*
D11*
X159044143Y-123376819D03*
D13*
X153731551Y-121953314D03*
D14*
X149028171Y-126852940D03*
X160754016Y-127717263D03*
D15*
X182769290Y-94570649D03*
D16*
X181519290Y-94570649D03*
D11*
X120100890Y-59955115D03*
X131100890Y-59955115D03*
D12*
X130600890Y-56205115D03*
X120600890Y-56205115D03*
D13*
X125600890Y-59955115D03*
D12*
X125600890Y-54005115D03*
D17*
X128875890Y-54005115D03*
X117325890Y-56205115D03*
D18*
X170020551Y-68294714D03*
X170020551Y-64894714D03*
X115766090Y-84043115D03*
X115766090Y-80643115D03*
D19*
X154493551Y-54414714D03*
D20*
X182144290Y-91897710D03*
D21*
X182144290Y-90597710D03*
D18*
X97681290Y-103601115D03*
X97681290Y-100201115D03*
D12*
X107516090Y-92111115D03*
D13*
X107516090Y-98061115D03*
D11*
X102016090Y-98061115D03*
D12*
X112516090Y-94311115D03*
D11*
X113016090Y-98061115D03*
D12*
X102516090Y-94311115D03*
D17*
X110791090Y-92111115D03*
X99241090Y-94311115D03*
D18*
X97681290Y-86633915D03*
X97681290Y-83233915D03*
D12*
X156770490Y-95580715D03*
D11*
X167270490Y-99330715D03*
D12*
X161770490Y-93380715D03*
D11*
X156270490Y-99330715D03*
D12*
X166770490Y-95580715D03*
D13*
X161770490Y-99330715D03*
D17*
X165045490Y-93380715D03*
X153495490Y-95580715D03*
D22*
X162570751Y-109813914D03*
X162570751Y-113213914D03*
D19*
X96733951Y-55659314D03*
D23*
X180735890Y-120981914D03*
X180735890Y-98744714D03*
D24*
X180735890Y-109863314D03*
D22*
X159878351Y-109813914D03*
X159878351Y-113213914D03*
D12*
X94431290Y-79883915D03*
X89431290Y-77683915D03*
D13*
X89431290Y-83633915D03*
D11*
X83931290Y-83633915D03*
X94931290Y-83633915D03*
D12*
X84431290Y-79883915D03*
D17*
X92706290Y-77683915D03*
X81156290Y-79883915D03*
D19*
X100188351Y-108974314D03*
D11*
X167270490Y-65294715D03*
D12*
X161770490Y-59344715D03*
D13*
X161770490Y-65294715D03*
D12*
X156770490Y-61544715D03*
D11*
X156270490Y-65294715D03*
D12*
X166770490Y-61544715D03*
D17*
X165045490Y-59344715D03*
X153495490Y-61544715D03*
D19*
X164272551Y-124417114D03*
D12*
X175998678Y-135828909D03*
D11*
X168780411Y-127331314D03*
D12*
X170568551Y-135234165D03*
D13*
X173543551Y-130081314D03*
D12*
X167338424Y-130828909D03*
D11*
X178306691Y-132831314D03*
D25*
X167732318Y-133596665D03*
X178834911Y-137466409D03*
D12*
X94431290Y-96851115D03*
X84431290Y-96851115D03*
D13*
X89431290Y-100601115D03*
D12*
X89431290Y-94651115D03*
D11*
X83931290Y-100601115D03*
X94931290Y-100601115D03*
D17*
X92706290Y-94651115D03*
X81156290Y-96851115D03*
D11*
X113016090Y-81043115D03*
D13*
X107516090Y-81043115D03*
D11*
X102016090Y-81043115D03*
D12*
X112516090Y-77293115D03*
X102516090Y-77293115D03*
X107516090Y-75093115D03*
D17*
X110791090Y-75093115D03*
X99241090Y-77293115D03*
D18*
X133850890Y-65414514D03*
X133850890Y-62014514D03*
D12*
X138685690Y-93041115D03*
X143685690Y-90841115D03*
D11*
X138185690Y-96791115D03*
D12*
X148685690Y-93041115D03*
D11*
X149185690Y-96791115D03*
D13*
X143685690Y-96791115D03*
D17*
X146960690Y-90841115D03*
X135410690Y-93041115D03*
D12*
X130600890Y-73223115D03*
X125600890Y-71023115D03*
X120600890Y-73223115D03*
D11*
X120100890Y-76973115D03*
X131100890Y-76973115D03*
D13*
X125600890Y-76973115D03*
D17*
X128875890Y-71023115D03*
X117325890Y-73223115D03*
D26*
X165284174Y-116132278D03*
X164856649Y-114957663D03*
D27*
X168462893Y-110612190D03*
X170839933Y-117143054D03*
D18*
X151935690Y-67622914D03*
X151935690Y-64222914D03*
X97681290Y-69565115D03*
X97681290Y-66165115D03*
D12*
X143685690Y-73823115D03*
D13*
X143685690Y-79773115D03*
D11*
X149185690Y-79773115D03*
X138185690Y-79773115D03*
D12*
X148685690Y-76023115D03*
X138685690Y-76023115D03*
D17*
X146960690Y-73823115D03*
X135410690Y-76023115D03*
D28*
X174585490Y-76749115D03*
D29*
X188087890Y-74209115D03*
D28*
X189688090Y-84369115D03*
X174585490Y-79289115D03*
X189688090Y-79289115D03*
X174585490Y-84369115D03*
D29*
X188087890Y-84369115D03*
D30*
X176200690Y-84369115D03*
D28*
X174585490Y-74209115D03*
X189688090Y-76749115D03*
X174585490Y-89449115D03*
D29*
X188087890Y-86909115D03*
X188087890Y-79289115D03*
X188087890Y-76749115D03*
D28*
X189688090Y-81829115D03*
X174585490Y-81829115D03*
X189688090Y-86909115D03*
X174585490Y-86909115D03*
D30*
X176200690Y-81829115D03*
X176200690Y-86909115D03*
X176200690Y-76749115D03*
D28*
X189688090Y-89449115D03*
D29*
X188087890Y-89449115D03*
D30*
X176200690Y-79289115D03*
X176200690Y-74209115D03*
D28*
X189688090Y-74209115D03*
D30*
X176200690Y-89449115D03*
D29*
X188087890Y-81829115D03*
D31*
X177216690Y-74209115D03*
X177216690Y-76749115D03*
X177216690Y-79289115D03*
X177216690Y-81829115D03*
X177216690Y-84369115D03*
X177216690Y-86909115D03*
X177216690Y-89449115D03*
D32*
X187071890Y-89449115D03*
X187071890Y-86909115D03*
X187071890Y-84369115D03*
X187071890Y-81829115D03*
X187071890Y-79289115D03*
X187071890Y-76749115D03*
X187071890Y-74209115D03*
D12*
X84431290Y-62815115D03*
X94431290Y-62815115D03*
D11*
X83931290Y-66565115D03*
D12*
X89431290Y-60615115D03*
D13*
X89431290Y-66565115D03*
D11*
X94931290Y-66565115D03*
D17*
X92706290Y-60615115D03*
X81156290Y-62815115D03*
D18*
X170020490Y-85312715D03*
X170020490Y-81912715D03*
D19*
X151394751Y-108872314D03*
D18*
X170020490Y-102330715D03*
X170020490Y-98930715D03*
D33*
X183394290Y-95380453D03*
D34*
X180854290Y-95380453D03*
D18*
X151935690Y-101659114D03*
X151935690Y-98259114D03*
D35*
X188275551Y-95626915D03*
D36*
X182964567Y-134033507D03*
D37*
X184586939Y-129023476D03*
D36*
X186614567Y-127711521D03*
X181050651Y-132928507D03*
D37*
X183086939Y-131621552D03*
D36*
X184700651Y-126606521D03*
D38*
X181187735Y-131391071D03*
X182687735Y-128792995D03*
X183437735Y-127493957D03*
D35*
X187208751Y-122588314D03*
D12*
X130600890Y-90241115D03*
D13*
X125600890Y-93991115D03*
D11*
X131100890Y-93991115D03*
D12*
X125600890Y-88041115D03*
D11*
X120100890Y-93991115D03*
D12*
X120600890Y-90241115D03*
D17*
X128875890Y-88041115D03*
X117325890Y-90241115D03*
D18*
X115766090Y-67025115D03*
X115766090Y-63625115D03*
X133850890Y-82432514D03*
X133850890Y-79032514D03*
X151935690Y-84641114D03*
X151935690Y-81241114D03*
D13*
X107516090Y-64025115D03*
D11*
X102016090Y-64025115D03*
X113016090Y-64025115D03*
D12*
X102516090Y-60275115D03*
X112516090Y-60275115D03*
X107516090Y-58075115D03*
D17*
X110791090Y-58075115D03*
X99241090Y-60275115D03*
D35*
X175078265Y-95626915D03*
D11*
X167270490Y-82312715D03*
D12*
X156770490Y-78562715D03*
D11*
X156270490Y-82312715D03*
D13*
X161770490Y-82312715D03*
D12*
X161770490Y-76362715D03*
X166770490Y-78562715D03*
D17*
X165045490Y-76362715D03*
X153495490Y-78562715D03*
D18*
X133850890Y-99450514D03*
X133850890Y-96050514D03*
X115766090Y-101061115D03*
X115766090Y-97661115D03*
D11*
X138185690Y-62754915D03*
D12*
X148685690Y-59004915D03*
X143685690Y-56804915D03*
D13*
X143685690Y-62754915D03*
D12*
X138685690Y-59004915D03*
D11*
X149185690Y-62754915D03*
D17*
X146960690Y-56804915D03*
X135410690Y-59004915D03*
D37*
X184586939Y-129023476D03*
X183086939Y-131621552D03*
M02*
