M48
; DRILL file {KiCad (6.0.6)} date Thu Jul  7 14:04:18 2022
; FORMAT={-:-/ absolute / inch / decimal}
; #@! TF.CreationDate,2022-07-07T14:04:18+08:00
; #@! TF.GenerationSoftware,Kicad,Pcbnew,(6.0.6)
; #@! TF.FileFunction,Plated,1,2,PTH
FMAT,2
INCH
; #@! TA.AperFunction,Plated,PTH,ViaDrill
T1C0.0118
; #@! TA.AperFunction,Plated,PTH,ComponentDrill
T2C0.0118
; #@! TA.AperFunction,Plated,PTH,ComponentDrill
T3C0.0138
; #@! TA.AperFunction,Plated,PTH,ViaDrill
T4C0.0157
; #@! TA.AperFunction,Plated,PTH,ComponentDrill
T5C0.0197
; #@! TA.AperFunction,Plated,PTH,ComponentDrill
T6C0.0320
; #@! TA.AperFunction,Plated,PTH,ComponentDrill
T7C0.0433
; #@! TA.AperFunction,Plated,PTH,ComponentDrill
T8C0.0866
%
G90
G05
T1
X3.5753Y-3.138
X3.5793Y-3.806
X3.5833Y-2.466
X3.6378Y-2.609
X3.8273Y-3.0
X3.847Y-2.4644
X4.2913Y-2.346
X4.2913Y-3.684
X4.559Y-2.3444
X5.0053Y-2.8858
X5.0073Y-3.5558
X5.0113Y-2.2198
X5.271Y-2.2141
X5.7133Y-3.666
X5.7173Y-2.33
X5.7233Y-2.994
X5.9838Y-2.325
X6.4253Y-3.082
X6.4293Y-2.416
X6.4333Y-3.754
X6.6082Y-4.607
X6.6438Y-2.614
X6.6978Y-2.4084
X7.0139Y-2.819
X7.0232Y-3.109
X7.0319Y-3.201
X7.0399Y-3.291
X7.0812Y-3.352
X7.1018Y-2.905
X7.1019Y-3.007
X7.2092Y-5.1541
X7.2492Y-3.385
X7.3033Y-2.856
X7.3113Y-3.056
X7.3113Y-3.156
X7.3116Y-3.2555
X7.3153Y-3.3575
T2
X3.8738Y-2.6001
X3.8738Y-2.734
X3.8738Y-3.274
X3.8738Y-3.4079
X3.8738Y-3.9421
X3.8738Y-4.076
X4.5838Y-2.4801
X4.5838Y-2.614
X4.5838Y-3.154
X4.5838Y-3.2879
X4.5838Y-3.8221
X4.5838Y-3.956
X5.2938Y-2.4299
X5.2938Y-2.5637
X5.2938Y-3.1038
X5.2938Y-3.2376
X5.2938Y-3.7719
X5.2938Y-3.9057
X6.0038Y-2.5381
X6.0038Y-2.672
X6.0038Y-3.214
X6.0038Y-3.3479
X6.0038Y-3.8821
X6.0038Y-4.016
X6.2705Y-4.3195
X6.2705Y-4.4255
X6.4044Y-4.3195
X6.4044Y-4.4255
X6.6978Y-2.5442
X6.6978Y-2.6781
X6.6978Y-3.2181
X6.6978Y-3.352
X6.6978Y-3.8862
X6.6978Y-4.0201
T3
X7.1159Y-3.7783
X7.1159Y-4.216
X7.1159Y-4.6537
T4
X3.1955Y-2.4644
X3.1955Y-3.1364
X3.1955Y-3.8044
X3.847Y-3.1364
X3.847Y-3.8044
X3.9075Y-2.3444
X3.9075Y-3.0144
X3.9075Y-3.6844
X4.1073Y-3.2115
X4.1133Y-3.7895
X4.2919Y-3.017
X4.3607Y-2.9295
X4.5092Y-2.161
X4.559Y-3.0144
X4.559Y-3.6844
X4.5833Y-2.7995
X4.6195Y-2.2141
X4.6195Y-2.9044
X4.6195Y-3.5744
X4.8173Y-3.1273
X4.8353Y-3.7873
X5.0742Y-2.7975
X5.271Y-2.8841
X5.271Y-3.5541
X5.3315Y-2.3244
X5.3315Y-2.9944
X5.3315Y-3.6441
X5.4078Y-2.8548
X5.5393Y-3.1735
X5.5413Y-3.7695
X5.7862Y-2.9077
X5.7968Y-4.5721
X5.8978Y-2.73
X5.983Y-2.9944
X5.983Y-3.6644
X6.0093Y-4.5394
X6.0435Y-2.4084
X6.0435Y-3.0784
X6.0435Y-3.7484
X6.1182Y-2.952
X6.2433Y-3.2635
X6.2513Y-3.8695
X6.5582Y-4.772
X6.611Y-4.5384
X6.6232Y-2.807
X6.6452Y-2.961
X6.6468Y-3.293
X6.695Y-3.0784
X6.6954Y-3.7487
X6.7092Y-2.271
X6.7178Y-3.651
X6.7813Y-3.5415
X6.7933Y-3.1055
X6.8058Y-3.017
X6.8587Y-4.8517
X7.0672Y-3.5275
X7.1172Y-3.421
X7.1432Y-2.955
X7.1692Y-3.527
X7.1812Y-2.759
X7.2852Y-3.473
X7.2852Y-3.525
X7.2979Y-2.955
X7.2983Y-4.727
X7.3432Y-4.902
X7.3972Y-3.541
X7.4512Y-3.893
X7.4932Y-4.477
T5
X7.1468Y-3.629
X7.196Y-3.629
T6
X7.1216Y-3.639
X7.2216Y-3.639
T7
X6.8738Y-2.8558
X6.8738Y-2.9558
X6.8738Y-3.0558
X6.8738Y-3.1558
X6.8738Y-3.2558
X6.8738Y-3.3558
X6.8738Y-3.4558
X7.4684Y-2.8558
X7.4684Y-2.9558
X7.4684Y-3.0558
X7.4684Y-3.1558
X7.4684Y-3.2558
X7.4684Y-3.3558
X7.4684Y-3.4558
T8
X6.8932Y-3.697
X7.4282Y-3.699
X7.4282Y-4.632
T0
M30
