M48
; DRILL file {KiCad (6.0.6)} date Wed Jul 13 21:04:52 2022
; FORMAT={-:-/ absolute / inch / decimal}
; #@! TF.CreationDate,2022-07-13T21:04:52+08:00
; #@! TF.GenerationSoftware,Kicad,Pcbnew,(6.0.6)
; #@! TF.FileFunction,NonPlated,1,2,NPTH
FMAT,2
INCH
; #@! TA.AperFunction,NonPlated,NPTH,ComponentDrill
T1C0.0354
; #@! TA.AperFunction,NonPlated,NPTH,ComponentDrill
T2C0.0670
; #@! TA.AperFunction,NonPlated,NPTH,ComponentDrill
T3C0.1181
; #@! TA.AperFunction,NonPlated,NPTH,ComponentDrill
T4C0.1260
; #@! TA.AperFunction,NonPlated,NPTH,ComponentDrill
T5C0.1350
%
G90
G05
T1
X7.3171Y-4.997
X7.3171Y-4.997
X7.3762Y-4.8947
X7.3762Y-4.8947
T2
X3.3044Y-2.6687
X3.3044Y-3.3407
X3.3044Y-4.0087
X3.7375Y-2.6687
X3.7375Y-3.3407
X3.7375Y-4.0087
X4.0164Y-2.5367
X4.0164Y-3.2067
X4.0164Y-3.8767
X4.4495Y-2.5367
X4.4495Y-3.2067
X4.4495Y-3.8767
X4.7284Y-2.3764
X4.7284Y-3.0464
X4.7284Y-3.7164
X5.1615Y-2.3764
X5.1615Y-3.0464
X5.1615Y-3.7164
X5.4404Y-2.4867
X5.4404Y-3.1567
X5.4404Y-3.8267
X5.8443Y-4.7469
X5.8735Y-2.4867
X5.8735Y-3.1567
X5.8735Y-3.8267
X6.1524Y-2.5707
X6.1524Y-3.2407
X6.1524Y-3.9107
X6.2626Y-4.8589
X6.5855Y-2.5707
X6.5855Y-3.2407
X6.5855Y-3.9107
X6.6459Y-5.0146
X7.021Y-5.2312
T3
X3.3241Y-2.521
X3.3241Y-3.193
X3.3241Y-3.861
X3.5209Y-2.4344
X3.5209Y-3.1064
X3.5209Y-3.7744
X3.7178Y-2.521
X3.7178Y-3.193
X3.7178Y-3.861
X4.0361Y-2.389
X4.0361Y-3.059
X4.0361Y-3.729
X4.2329Y-2.3024
X4.2329Y-2.9724
X4.2329Y-3.6424
X4.4298Y-2.389
X4.4298Y-3.059
X4.4298Y-3.729
X4.7481Y-2.2288
X4.7481Y-2.8988
X4.7481Y-3.5688
X4.9449Y-2.1422
X4.9449Y-2.8122
X4.9449Y-3.4822
X5.1418Y-2.2288
X5.1418Y-2.8988
X5.1418Y-3.5688
X5.4601Y-2.339
X5.4601Y-3.009
X5.4601Y-3.679
X5.6569Y-2.2524
X5.6569Y-2.9224
X5.6569Y-3.5924
X5.8538Y-2.339
X5.8538Y-3.009
X5.8538Y-3.679
X5.9015Y-4.6093
X6.1141Y-4.5766
X6.1721Y-2.423
X6.1721Y-3.093
X6.1721Y-3.763
X6.2818Y-4.7112
X6.3689Y-2.3364
X6.3689Y-3.0064
X6.3689Y-3.6764
X6.5658Y-2.423
X6.5658Y-3.093
X6.5658Y-3.763
X6.7368Y-4.8966
X6.9506Y-4.92
X7.0777Y-5.0935
T4
X3.8124Y-2.2463
X3.9524Y-4.3063
X5.9728Y-4.2987
X6.0724Y-2.1513
X6.4541Y-4.9379
T5
X3.5209Y-2.6687
X3.5209Y-3.3407
X3.5209Y-4.0087
X4.2329Y-2.5367
X4.2329Y-3.2067
X4.2329Y-3.8767
X4.9449Y-2.3764
X4.9449Y-3.0464
X4.9449Y-3.7164
X5.6569Y-2.4867
X5.6569Y-3.1567
X5.6569Y-3.8267
X6.0534Y-4.8029
X6.3689Y-2.5707
X6.3689Y-3.2407
X6.3689Y-3.9107
X6.8334Y-5.1229
T0
M30
