M48
; DRILL file {KiCad (6.0.6-0)} date Sunday, 10 July 2022 at 15:08:13
; FORMAT={-:-/ absolute / inch / decimal}
; #@! TF.CreationDate,2022-07-10T15:08:13+08:00
; #@! TF.GenerationSoftware,Kicad,Pcbnew,(6.0.6-0)
; #@! TF.FileFunction,Plated,1,2,PTH
FMAT,2
INCH
; #@! TA.AperFunction,Plated,PTH,ViaDrill
T1C0.0118
; #@! TA.AperFunction,Plated,PTH,ComponentDrill
T2C0.0118
; #@! TA.AperFunction,Plated,PTH,ComponentDrill
T3C0.0138
; #@! TA.AperFunction,Plated,PTH,ViaDrill
T4C0.0157
; #@! TA.AperFunction,Plated,PTH,ComponentDrill
T5C0.0197
; #@! TA.AperFunction,Plated,PTH,ComponentDrill
T6C0.0394
; #@! TA.AperFunction,Plated,PTH,ComponentDrill
T7C0.0433
; #@! TA.AperFunction,Plated,PTH,ComponentDrill
T8C0.0866
%
G90
G05
T1
X3.5612Y-2.469
X3.5612Y-3.138
X3.5612Y-3.805
X3.6378Y-2.671
X3.7972Y-2.967
X3.847Y-2.4644
X4.2732Y-2.345
X4.2812Y-3.681
X4.5132Y-2.927
X4.559Y-2.3444
X4.6195Y-2.8841
X4.6195Y-3.5541
X4.9832Y-2.221
X4.9872Y-3.5558
X4.9892Y-2.885
X5.2292Y-2.807
X5.271Y-2.2141
X5.3315Y-3.6644
X5.6912Y-2.334
X5.6982Y-3.666
X5.7042Y-2.991
X5.9452Y-2.907
X5.9838Y-2.325
X5.9899Y-4.5286
X6.4032Y-2.418
X6.4048Y-3.756
X6.4067Y-4.73
X6.4072Y-3.0825
X6.4832Y-3.961
X6.5192Y-4.766
X6.5888Y-2.6534
X6.6128Y-4.6067
X6.6978Y-2.4084
X6.7178Y-3.6617
X6.7229Y-2.993
X6.7528Y-3.6617
X6.7528Y-3.9477
X6.7822Y-2.8437
X6.8068Y-3.0837
X6.8393Y-4.8409
X6.9788Y-5.0997
X7.0139Y-2.8702
X7.0172Y-3.1662
X7.0172Y-3.2662
X7.0172Y-3.3662
X7.0252Y-3.0562
X7.0272Y-2.9562
X7.0512Y-3.4362
X7.2945Y-3.4709
X7.3033Y-2.9072
X7.3113Y-3.1072
X7.3113Y-3.2072
X7.3116Y-3.3067
X7.3172Y-3.3942
T2
X3.8738Y-2.6001
X3.8738Y-2.734
X3.8738Y-3.274
X3.8738Y-3.4079
X3.8738Y-3.9421
X3.8738Y-4.076
X4.5838Y-2.4801
X4.5838Y-2.614
X4.5838Y-3.154
X4.5838Y-3.2879
X4.5838Y-3.8221
X4.5838Y-3.956
X5.2938Y-2.4299
X5.2938Y-2.5637
X5.2938Y-3.1038
X5.2938Y-3.2376
X5.2938Y-3.7719
X5.2938Y-3.9057
X6.0038Y-2.5381
X6.0038Y-2.672
X6.0038Y-3.214
X6.0038Y-3.3479
X6.0038Y-3.8821
X6.0038Y-4.016
X6.2705Y-4.3195
X6.2705Y-4.4255
X6.4044Y-4.3195
X6.4044Y-4.4255
X6.6978Y-2.5442
X6.6978Y-2.6781
X6.6978Y-3.2181
X6.6978Y-3.352
X6.6978Y-3.8862
X6.6978Y-4.0201
T3
X7.1159Y-3.8604
X7.1159Y-4.2981
X7.1159Y-4.7358
X7.1714Y-3.5522
X7.1714Y-3.6034
T4
X3.1955Y-2.4644
X3.1955Y-3.1364
X3.1955Y-3.8044
X3.847Y-3.1364
X3.847Y-3.8044
X3.9075Y-2.3444
X3.9075Y-3.0144
X3.9075Y-3.6844
X4.1073Y-3.2115
X4.1133Y-3.7895
X4.2792Y-3.015
X4.5092Y-2.161
X4.559Y-3.0144
X4.559Y-3.6844
X4.6195Y-2.2141
X4.8173Y-3.1273
X4.8353Y-3.7873
X5.271Y-2.8841
X5.271Y-3.5541
X5.3315Y-2.3244
X5.3315Y-2.9944
X5.5393Y-3.1735
X5.5413Y-3.7695
X5.8548Y-4.4737
X5.8978Y-2.73
X5.983Y-2.9944
X5.983Y-3.6644
X6.0435Y-2.4084
X6.0435Y-3.0784
X6.0435Y-3.7484
X6.2433Y-3.2635
X6.2513Y-3.8695
X6.611Y-4.5384
X6.6468Y-3.293
X6.6954Y-3.7487
X6.6972Y-3.079
X6.7092Y-2.271
X6.7188Y-2.8737
X7.0752Y-3.0062
X7.1812Y-2.8102
X7.2728Y-4.9217
X7.2979Y-3.0062
X7.3088Y-4.7557
X7.3972Y-3.5922
T5
X7.1468Y-3.7018
X7.196Y-3.7018
T6
X7.1206Y-3.7138
X7.2206Y-3.7138
T7
X6.8738Y-2.907
X6.8738Y-3.007
X6.8738Y-3.107
X6.8738Y-3.207
X6.8738Y-3.307
X6.8738Y-3.407
X6.8738Y-3.507
X7.4684Y-2.907
X7.4684Y-3.007
X7.4684Y-3.107
X7.4684Y-3.207
X7.4684Y-3.307
X7.4684Y-3.407
X7.4684Y-3.507
T8
X6.8932Y-3.7482
X7.4282Y-3.7502
X7.4282Y-4.6617
T0
M30
