G04 #@! TF.GenerationSoftware,KiCad,Pcbnew,(6.0.6-0)*
G04 #@! TF.CreationDate,2022-07-14T21:01:01+08:00*
G04 #@! TF.ProjectId,Kretstr_d,4b726574-7374-472e-9464-2e6b69636164,rev?*
G04 #@! TF.SameCoordinates,Original*
G04 #@! TF.FileFunction,Legend,Top*
G04 #@! TF.FilePolarity,Positive*
%FSLAX46Y46*%
G04 Gerber Fmt 4.6, Leading zero omitted, Abs format (unit mm)*
G04 Created by KiCad (PCBNEW (6.0.6-0)) date 2022-07-14 21:01:01*
%MOMM*%
%LPD*%
G01*
G04 APERTURE LIST*
G04 Aperture macros list*
%AMRoundRect*
0 Rectangle with rounded corners*
0 $1 Rounding radius*
0 $2 $3 $4 $5 $6 $7 $8 $9 X,Y pos of 4 corners*
0 Add a 4 corners polygon primitive as box body*
4,1,4,$2,$3,$4,$5,$6,$7,$8,$9,$2,$3,0*
0 Add four circle primitives for the rounded corners*
1,1,$1+$1,$2,$3*
1,1,$1+$1,$4,$5*
1,1,$1+$1,$6,$7*
1,1,$1+$1,$8,$9*
0 Add four rect primitives between the rounded corners*
20,1,$1+$1,$2,$3,$4,$5,0*
20,1,$1+$1,$4,$5,$6,$7,0*
20,1,$1+$1,$6,$7,$8,$9,0*
20,1,$1+$1,$8,$9,$2,$3,0*%
%AMFreePoly0*
4,1,33,1.386777,1.480194,1.456366,1.424698,1.494986,1.344504,1.500000,1.300000,1.500000,-1.300000,1.480194,-1.386777,1.424698,-1.456366,1.344504,-1.494986,1.300000,-1.500000,-1.300000,-1.500000,-1.386777,-1.480194,-1.456366,-1.424698,-1.494986,-1.344504,-1.500000,-1.300000,-1.500000,-0.850000,-1.947000,-0.850000,-2.033777,-0.830194,-2.103366,-0.774698,-2.141986,-0.694504,-2.147000,-0.650000,
-2.147000,0.650000,-2.127194,0.736777,-2.071698,0.806366,-1.991504,0.844986,-1.947000,0.850000,-1.500000,0.850000,-1.500000,1.300000,-1.480194,1.386777,-1.424698,1.456366,-1.344504,1.494986,-1.300000,1.500000,1.300000,1.500000,1.386777,1.480194,1.386777,1.480194,$1*%
%AMFreePoly1*
4,1,33,1.386777,1.480194,1.456366,1.424698,1.494986,1.344504,1.500000,1.300000,1.500000,0.850000,1.976200,0.850000,2.062977,0.830194,2.132566,0.774698,2.171186,0.694504,2.176200,0.650000,2.176200,-0.650000,2.156394,-0.736777,2.100898,-0.806366,2.020704,-0.844986,1.976200,-0.850000,1.500000,-0.850000,1.500000,-1.300000,1.480194,-1.386777,1.424698,-1.456366,1.344504,-1.494986,
1.300000,-1.500000,-1.300000,-1.500000,-1.386777,-1.480194,-1.456366,-1.424698,-1.494986,-1.344504,-1.500000,-1.300000,-1.500000,1.300000,-1.480194,1.386777,-1.424698,1.456366,-1.344504,1.494986,-1.300000,1.500000,1.300000,1.500000,1.386777,1.480194,1.386777,1.480194,$1*%
%AMFreePoly2*
4,1,41,0.586777,0.930194,0.656366,0.874698,0.694986,0.794504,0.700000,0.750000,0.700000,-0.750000,0.680194,-0.836777,0.624698,-0.906366,0.544504,-0.944986,0.500000,-0.950000,0.000000,-0.950000,-0.023504,-0.944635,-0.083606,-0.943534,-0.139582,-0.934468,-0.274897,-0.892193,-0.326080,-0.867780,-0.444090,-0.789225,-0.486362,-0.751429,-0.577582,-0.642910,-0.607548,-0.594768,-0.664643,-0.465009,
-0.679893,-0.410393,-0.697476,-0.275933,-0.697084,-0.275882,-0.700000,-0.250000,-0.700000,0.250000,-0.697921,0.259109,-0.697582,0.286880,-0.675771,0.426957,-0.659192,0.481183,-0.598944,0.609508,-0.567811,0.656904,-0.473967,0.763162,-0.430783,0.799915,-0.310888,0.875563,-0.259125,0.898717,-0.122818,0.937674,-0.066635,0.945370,-0.042411,0.945222,0.000000,0.950000,0.500000,0.950000,
0.586777,0.930194,0.586777,0.930194,$1*%
%AMFreePoly3*
4,1,41,0.022678,0.944824,0.075125,0.944504,0.131210,0.936123,0.267031,0.895504,0.318507,0.871718,0.437469,0.794611,0.480202,0.757333,0.572740,0.649936,0.603290,0.602165,0.661967,0.473113,0.677883,0.418686,0.697980,0.278353,0.700000,0.250000,0.700000,-0.250000,0.699985,-0.252439,0.699836,-0.264655,0.697079,-0.295398,0.673559,-0.435199,0.656318,-0.489221,0.594506,-0.616800,
0.562797,-0.663810,0.467662,-0.768914,0.424032,-0.805137,0.303222,-0.879314,0.251181,-0.901834,0.114408,-0.939123,0.058135,-0.946132,0.037663,-0.945757,0.000000,-0.950000,-0.500000,-0.950000,-0.586777,-0.930194,-0.656366,-0.874698,-0.694986,-0.794504,-0.700000,-0.750000,-0.700000,0.750000,-0.680194,0.836777,-0.624698,0.906366,-0.544504,0.944986,-0.500000,0.950000,0.000000,0.950000,
0.022678,0.944824,0.022678,0.944824,$1*%
%AMFreePoly4*
4,1,22,0.686777,0.580194,0.756366,0.524698,0.794986,0.444504,0.800000,0.400000,0.800000,0.200000,0.780194,0.113223,0.741421,0.058579,0.141421,-0.541421,0.066056,-0.588777,-0.022393,-0.598742,-0.106406,-0.569345,-0.141421,-0.541421,-0.741421,0.058579,-0.788777,0.133944,-0.800000,0.200000,-0.800000,0.400000,-0.780194,0.486777,-0.724698,0.556366,-0.644504,0.594986,-0.600000,0.600000,
0.600000,0.600000,0.686777,0.580194,0.686777,0.580194,$1*%
%AMFreePoly5*
4,1,26,0.706406,1.169345,0.769345,1.106406,0.798742,1.022393,0.800000,1.000000,0.800000,-0.250000,0.780194,-0.336777,0.724698,-0.406366,0.644504,-0.444986,0.600000,-0.450000,-0.600000,-0.450000,-0.686777,-0.430194,-0.756366,-0.374698,-0.794986,-0.294504,-0.800000,-0.250000,-0.800000,1.000000,-0.780194,1.086777,-0.724698,1.156366,-0.644504,1.194986,-0.555496,1.194986,-0.475302,1.156366,
-0.458579,1.141421,0.000000,0.682842,0.458579,1.141421,0.533944,1.188777,0.622393,1.198742,0.706406,1.169345,0.706406,1.169345,$1*%
G04 Aperture macros list end*
%ADD10C,0.150000*%
%ADD11C,0.200000*%
%ADD12C,0.120000*%
%ADD13C,0.100000*%
%ADD14RoundRect,0.200000X0.700000X-0.600000X0.700000X0.600000X-0.700000X0.600000X-0.700000X-0.600000X0*%
%ADD15C,3.400000*%
%ADD16C,2.101800*%
%ADD17C,3.829000*%
%ADD18FreePoly0,180.000000*%
%ADD19FreePoly1,180.000000*%
%ADD20FreePoly0,165.000000*%
%ADD21FreePoly1,165.000000*%
%ADD22RoundRect,0.400000X0.200000X0.450000X-0.200000X0.450000X-0.200000X-0.450000X0.200000X-0.450000X0*%
%ADD23O,1.200000X1.700000*%
%ADD24C,3.600000*%
%ADD25FreePoly2,90.000000*%
%ADD26FreePoly3,90.000000*%
%ADD27RoundRect,0.200000X0.600000X0.700000X-0.600000X0.700000X-0.600000X-0.700000X0.600000X-0.700000X0*%
%ADD28RoundRect,0.200000X2.540000X-0.768600X2.540000X0.768600X-2.540000X0.768600X-2.540000X-0.768600X0*%
%ADD29C,16.400000*%
%ADD30FreePoly0,150.000000*%
%ADD31FreePoly1,150.000000*%
%ADD32RoundRect,0.400000X0.749519X0.201795X0.549519X0.548205X-0.749519X-0.201795X-0.549519X-0.548205X0*%
%ADD33RoundRect,0.450000X1.434086X0.366090X1.034086X1.058910X-1.434086X-0.366090X-1.034086X-1.058910X0*%
%ADD34C,2.000000*%
%ADD35FreePoly4,270.000000*%
%ADD36FreePoly4,90.000000*%
%ADD37FreePoly5,90.000000*%
%ADD38FreePoly5,270.000000*%
%ADD39RoundRect,0.200000X-0.850000X0.850000X-0.850000X-0.850000X0.850000X-0.850000X0.850000X0.850000X0*%
%ADD40O,2.100000X2.100000*%
%ADD41C,4.800000*%
%ADD42RoundRect,0.200000X0.096410X-0.633013X0.596410X0.233013X-0.096410X0.633013X-0.596410X-0.233013X0*%
%ADD43C,1.300000*%
%ADD44RoundRect,0.200000X0.474519X-0.678109X0.824519X-0.071891X-0.474519X0.678109X-0.824519X0.071891X0*%
G04 APERTURE END LIST*
D10*
X110104723Y-110694878D02*
X110311779Y-109922138D01*
X110546289Y-110813196D02*
X110333432Y-110282892D01*
X110753345Y-110040455D02*
X110193461Y-110363704D01*
X110877464Y-110901934D02*
X111015501Y-110386773D01*
X110976062Y-110533962D02*
X111032578Y-110470227D01*
X111079235Y-110443290D01*
X111162689Y-110426212D01*
X111236284Y-110445932D01*
X111660064Y-111072192D02*
X111576610Y-111089269D01*
X111429422Y-111049830D01*
X111365687Y-110993313D01*
X111348609Y-110909859D01*
X111427488Y-110615482D01*
X111484004Y-110551747D01*
X111567458Y-110534670D01*
X111714647Y-110574109D01*
X111778382Y-110630626D01*
X111795459Y-110714080D01*
X111775740Y-110787674D01*
X111388048Y-110762671D01*
X112045822Y-110662847D02*
X112340199Y-110741725D01*
X112225232Y-110434846D02*
X112047756Y-111097195D01*
X112064833Y-111180649D01*
X112128568Y-111237166D01*
X112202162Y-111256885D01*
X112432805Y-111279247D02*
X112496540Y-111335764D01*
X112643728Y-111375203D01*
X112727182Y-111358125D01*
X112783699Y-111294391D01*
X112793559Y-111257593D01*
X112776481Y-111174139D01*
X112712747Y-111117623D01*
X112602355Y-111088043D01*
X112538621Y-111031526D01*
X112521543Y-110948072D01*
X112531403Y-110911275D01*
X112587920Y-110847541D01*
X112671374Y-110830463D01*
X112781765Y-110860042D01*
X112845500Y-110916559D01*
X113112940Y-110948780D02*
X113407317Y-111027658D01*
X113292350Y-110720779D02*
X113114874Y-111383128D01*
X113131951Y-111466583D01*
X113195686Y-111523099D01*
X113269280Y-111542819D01*
X113526861Y-111611837D02*
X113664897Y-111096677D01*
X113625458Y-111243866D02*
X113681975Y-111180131D01*
X113728632Y-111153194D01*
X113812086Y-111136116D01*
X113885680Y-111155835D01*
X114336398Y-111828752D02*
X114444856Y-111423983D01*
X114427778Y-111340529D01*
X114364044Y-111284013D01*
X114216855Y-111244573D01*
X114133401Y-111261651D01*
X114346258Y-111791955D02*
X114262804Y-111809033D01*
X114078818Y-111759734D01*
X114015084Y-111703217D01*
X113998006Y-111619763D01*
X114017725Y-111546169D01*
X114074242Y-111482434D01*
X114157696Y-111465356D01*
X114341682Y-111514655D01*
X114425136Y-111497578D01*
X114212279Y-110967274D02*
X114239216Y-111013931D01*
X114192559Y-111040868D01*
X114165622Y-110994211D01*
X114212279Y-110967274D01*
X114192559Y-111040868D01*
X114506656Y-111046152D02*
X114533594Y-111092809D01*
X114486937Y-111119746D01*
X114459999Y-111073089D01*
X114506656Y-111046152D01*
X114486937Y-111119746D01*
X115035545Y-112016088D02*
X115242600Y-111243347D01*
X115045404Y-111979291D02*
X114961950Y-111996368D01*
X114814762Y-111956929D01*
X114751027Y-111900413D01*
X114724090Y-111853756D01*
X114707012Y-111770302D01*
X114766171Y-111549519D01*
X114822687Y-111485784D01*
X114869344Y-111458847D01*
X114952798Y-111441769D01*
X115099987Y-111481208D01*
X115163722Y-111537725D01*
X115450173Y-112087748D02*
X115440314Y-112124545D01*
X115383797Y-112188280D01*
X115337140Y-112215217D01*
X116821529Y-112415763D02*
X116774872Y-112442700D01*
X116654620Y-112449918D01*
X116581026Y-112430198D01*
X116480494Y-112363822D01*
X116426619Y-112270508D01*
X116409542Y-112187054D01*
X116412184Y-112030005D01*
X116441763Y-111919614D01*
X116517999Y-111782285D01*
X116574516Y-111718550D01*
X116667830Y-111664676D01*
X116788081Y-111657458D01*
X116861676Y-111677177D01*
X116962207Y-111743554D01*
X116989145Y-111790211D01*
X117132984Y-112578095D02*
X117271020Y-112062935D01*
X117340039Y-111805354D02*
X117293382Y-111832292D01*
X117320319Y-111878949D01*
X117366976Y-111852011D01*
X117340039Y-111805354D01*
X117320319Y-111878949D01*
X117500955Y-112676693D02*
X117638992Y-112161532D01*
X117599553Y-112308721D02*
X117656070Y-112244986D01*
X117702727Y-112218049D01*
X117786181Y-112200971D01*
X117859775Y-112220691D01*
X118320353Y-112856811D02*
X118236899Y-112873888D01*
X118089710Y-112834449D01*
X118025976Y-112777932D01*
X117999038Y-112731275D01*
X117981961Y-112647821D01*
X118041119Y-112427038D01*
X118097636Y-112363304D01*
X118144293Y-112336366D01*
X118227747Y-112319289D01*
X118374936Y-112358728D01*
X118438670Y-112415245D01*
X119110879Y-112555923D02*
X118972842Y-113071084D01*
X118779705Y-112467185D02*
X118671247Y-112871954D01*
X118688325Y-112955408D01*
X118752059Y-113011925D01*
X118862451Y-113041504D01*
X118945905Y-113024427D01*
X118992562Y-112997489D01*
X119340814Y-113169681D02*
X119478851Y-112654521D01*
X119547869Y-112396941D02*
X119501212Y-112423878D01*
X119528150Y-112470535D01*
X119574807Y-112443598D01*
X119547869Y-112396941D01*
X119528150Y-112470535D01*
X119736431Y-112723539D02*
X120030808Y-112802418D01*
X119915841Y-112495539D02*
X119738365Y-113157888D01*
X119755443Y-113241342D01*
X119819177Y-113297858D01*
X119892772Y-113317578D01*
X120835770Y-112742033D02*
X121277336Y-112860350D01*
X120849498Y-113573932D02*
X121056553Y-112801191D01*
X121327861Y-113702109D02*
X121465898Y-113186949D01*
X121426459Y-113334137D02*
X121482976Y-113270403D01*
X121529633Y-113243465D01*
X121613087Y-113226388D01*
X121686681Y-113246107D01*
X122110462Y-113872367D02*
X122027008Y-113889445D01*
X121879819Y-113850006D01*
X121816085Y-113793489D01*
X121799007Y-113710035D01*
X121877885Y-113415658D01*
X121934402Y-113351923D01*
X122017856Y-113334845D01*
X122165045Y-113374284D01*
X122228779Y-113430801D01*
X122245857Y-113514255D01*
X122226137Y-113587850D01*
X121838446Y-113562846D01*
X122772811Y-114049843D02*
X122689357Y-114066921D01*
X122542168Y-114027482D01*
X122478434Y-113970965D01*
X122461356Y-113887511D01*
X122540234Y-113593133D01*
X122596751Y-113529399D01*
X122680205Y-113512321D01*
X122827394Y-113551760D01*
X122891128Y-113608277D01*
X122908206Y-113691731D01*
X122888486Y-113765326D01*
X122500795Y-113740322D01*
X123177580Y-114158301D02*
X123167720Y-114195098D01*
X123111203Y-114258832D01*
X123064547Y-114285770D01*
X124548935Y-114486315D02*
X124502278Y-114513253D01*
X124382027Y-114520470D01*
X124308433Y-114500751D01*
X124207901Y-114434374D01*
X124154026Y-114341060D01*
X124136948Y-114257606D01*
X124139590Y-114100558D01*
X124169170Y-113990166D01*
X124245406Y-113852837D01*
X124301923Y-113789103D01*
X124395237Y-113735228D01*
X124515488Y-113728010D01*
X124589082Y-113747730D01*
X124689614Y-113814106D01*
X124716551Y-113860763D01*
X124860390Y-114648647D02*
X124998427Y-114133487D01*
X125067445Y-113875907D02*
X125020788Y-113902844D01*
X125047726Y-113949501D01*
X125094383Y-113922564D01*
X125067445Y-113875907D01*
X125047726Y-113949501D01*
X125228362Y-114747245D02*
X125366399Y-114232085D01*
X125326960Y-114379273D02*
X125383476Y-114315539D01*
X125430133Y-114288601D01*
X125513587Y-114271524D01*
X125587182Y-114291243D01*
X126047760Y-114927363D02*
X125964305Y-114944441D01*
X125817117Y-114905002D01*
X125753382Y-114848485D01*
X125726445Y-114801828D01*
X125709367Y-114718374D01*
X125768526Y-114497591D01*
X125825042Y-114433856D01*
X125871699Y-114406919D01*
X125955154Y-114389841D01*
X126102342Y-114429280D01*
X126166077Y-114485797D01*
X126838286Y-114626476D02*
X126700249Y-115141636D01*
X126507111Y-114537738D02*
X126398654Y-114942507D01*
X126415731Y-115025961D01*
X126479466Y-115082477D01*
X126589857Y-115112057D01*
X126673312Y-115094979D01*
X126719968Y-115068042D01*
X127068221Y-115240234D02*
X127206257Y-114725073D01*
X127275276Y-114467493D02*
X127228619Y-114494431D01*
X127255556Y-114541087D01*
X127302213Y-114514150D01*
X127275276Y-114467493D01*
X127255556Y-114541087D01*
X127463838Y-114794092D02*
X127758215Y-114872970D01*
X127643248Y-114566091D02*
X127465772Y-115228440D01*
X127482849Y-115311894D01*
X127546584Y-115368411D01*
X127620178Y-115388130D01*
X127877758Y-115457149D02*
X128015795Y-114941988D01*
X127976356Y-115089177D02*
X128032873Y-115025442D01*
X128079530Y-114998505D01*
X128162984Y-114981427D01*
X128236578Y-115001147D01*
X128420564Y-115050446D02*
X128466513Y-115614905D01*
X128788536Y-115149044D02*
X128466513Y-115614905D01*
X128343620Y-115779172D01*
X128296963Y-115806109D01*
X128213509Y-115823187D01*
X109438005Y-113183102D02*
X109645061Y-112410362D01*
X109879571Y-113301420D01*
X110086627Y-112528679D01*
X110601787Y-112666716D02*
X110748976Y-112706155D01*
X110812710Y-112762672D01*
X110866585Y-112855986D01*
X110863943Y-113013034D01*
X110794925Y-113270614D01*
X110718689Y-113407943D01*
X110625375Y-113461818D01*
X110541921Y-113478896D01*
X110394732Y-113439456D01*
X110330997Y-113382940D01*
X110277122Y-113289626D01*
X110279764Y-113132577D01*
X110348783Y-112874997D01*
X110425019Y-112737668D01*
X110518333Y-112683793D01*
X110601787Y-112666716D01*
X111264136Y-112844192D02*
X111096520Y-113469744D01*
X111113598Y-113553198D01*
X111140535Y-113599855D01*
X111204270Y-113656371D01*
X111351458Y-113695811D01*
X111434912Y-113678733D01*
X111481569Y-113651796D01*
X111538086Y-113588061D01*
X111705702Y-112962509D01*
X111866619Y-113833847D02*
X112073674Y-113061107D01*
X112308185Y-113952165D01*
X112515240Y-113179424D01*
X109509415Y-114535672D02*
X109067849Y-114417355D01*
X109288632Y-114476513D02*
X109495687Y-113703773D01*
X109392514Y-113794445D01*
X109299200Y-113848319D01*
X109215746Y-113865397D01*
X109860309Y-114550815D02*
X109887247Y-114597472D01*
X109840590Y-114624410D01*
X109813652Y-114577753D01*
X109860309Y-114550815D01*
X109840590Y-114624410D01*
X110824962Y-114336024D02*
X111119339Y-114414902D01*
X111004372Y-114108023D02*
X110826896Y-114770372D01*
X110843973Y-114853827D01*
X110907708Y-114910343D01*
X110981302Y-114930063D01*
X111238882Y-114999081D02*
X111445938Y-114226341D01*
X111570057Y-115087819D02*
X111678514Y-114683050D01*
X111661437Y-114599596D01*
X111597702Y-114543079D01*
X111487311Y-114513500D01*
X111403857Y-114530578D01*
X111357200Y-114557515D01*
X112242266Y-115228498D02*
X112158812Y-115245576D01*
X112011623Y-115206136D01*
X111947888Y-115149620D01*
X111930811Y-115066166D01*
X112009689Y-114771788D01*
X112066206Y-114708054D01*
X112149660Y-114690976D01*
X112296849Y-114730415D01*
X112360583Y-114786932D01*
X112377661Y-114870386D01*
X112357941Y-114943980D01*
X111970250Y-114918977D01*
X113162195Y-115474992D02*
X113225930Y-115531509D01*
X113373119Y-115570948D01*
X113456573Y-115553870D01*
X113513089Y-115490136D01*
X113522949Y-115453339D01*
X113505872Y-115369885D01*
X113442137Y-115313368D01*
X113331745Y-115283789D01*
X113268011Y-115227272D01*
X113250933Y-115143818D01*
X113260793Y-115107021D01*
X113317310Y-115043286D01*
X113400764Y-115026208D01*
X113511155Y-115055788D01*
X113574890Y-115112304D01*
X114155719Y-115741206D02*
X114072265Y-115758284D01*
X113925076Y-115718845D01*
X113861342Y-115662328D01*
X113834404Y-115615671D01*
X113817327Y-115532217D01*
X113876485Y-115311434D01*
X113933002Y-115247699D01*
X113979659Y-115220762D01*
X114063113Y-115203684D01*
X114210302Y-115243123D01*
X114274036Y-115299640D01*
X114477034Y-115866741D02*
X114615071Y-115351581D01*
X114684089Y-115094001D02*
X114637432Y-115120938D01*
X114664369Y-115167595D01*
X114711026Y-115140658D01*
X114684089Y-115094001D01*
X114664369Y-115167595D01*
X115149243Y-116007420D02*
X115065789Y-116024498D01*
X114918600Y-115985059D01*
X114854865Y-115928542D01*
X114837788Y-115845088D01*
X114916666Y-115550710D01*
X114973183Y-115486976D01*
X115056637Y-115469898D01*
X115203825Y-115509337D01*
X115267560Y-115565854D01*
X115284638Y-115649308D01*
X115264918Y-115722902D01*
X114877227Y-115697899D01*
X115645391Y-115627654D02*
X115507355Y-116142815D01*
X115625672Y-115701249D02*
X115672329Y-115674311D01*
X115755783Y-115657234D01*
X115866174Y-115686813D01*
X115929909Y-115743330D01*
X115946987Y-115826784D01*
X115838529Y-116231553D01*
X116547535Y-116382091D02*
X116464081Y-116399169D01*
X116316892Y-116359730D01*
X116253158Y-116303213D01*
X116226220Y-116256556D01*
X116209143Y-116173102D01*
X116268301Y-115952319D01*
X116324818Y-115888585D01*
X116371475Y-115861647D01*
X116454929Y-115844569D01*
X116602118Y-115884009D01*
X116665853Y-115940525D01*
X117173087Y-116549708D02*
X117089633Y-116566785D01*
X116942444Y-116527346D01*
X116878710Y-116470829D01*
X116861632Y-116387375D01*
X116940510Y-116092998D01*
X116997027Y-116029263D01*
X117080481Y-116012186D01*
X117227670Y-116051625D01*
X117291405Y-116108141D01*
X117308482Y-116191596D01*
X117288763Y-116265190D01*
X116901071Y-116240187D01*
X118230346Y-116872438D02*
X118166611Y-116815921D01*
X118139674Y-116769264D01*
X118122596Y-116685810D01*
X118181755Y-116465027D01*
X118238271Y-116401293D01*
X118284928Y-116374355D01*
X118368382Y-116357278D01*
X118478774Y-116386857D01*
X118542508Y-116443374D01*
X118569446Y-116490031D01*
X118586523Y-116573485D01*
X118527365Y-116794268D01*
X118470848Y-116858002D01*
X118424191Y-116884940D01*
X118340737Y-116902017D01*
X118230346Y-116872438D01*
X118846746Y-116485455D02*
X119141123Y-116564333D01*
X118819100Y-117030194D02*
X118996576Y-116367845D01*
X119053093Y-116304111D01*
X119136547Y-116287033D01*
X119210141Y-116306753D01*
X120180596Y-117395006D02*
X120387651Y-116622265D01*
X120190456Y-117358209D02*
X120107001Y-117375287D01*
X119959813Y-117335847D01*
X119896078Y-117279331D01*
X119869141Y-117232674D01*
X119852063Y-117149220D01*
X119911222Y-116928437D01*
X119967738Y-116864702D01*
X120014395Y-116837765D01*
X120097850Y-116820687D01*
X120245038Y-116860126D01*
X120308773Y-116916643D01*
X120852805Y-117535685D02*
X120769351Y-117552762D01*
X120622162Y-117513323D01*
X120558427Y-117456807D01*
X120541350Y-117373353D01*
X120620228Y-117078975D01*
X120676745Y-117015241D01*
X120760199Y-116998163D01*
X120907387Y-117037602D01*
X120971122Y-117094119D01*
X120988200Y-117177573D01*
X120968480Y-117251167D01*
X120580789Y-117226164D01*
X121183979Y-117624423D02*
X121247714Y-117680940D01*
X121394903Y-117720379D01*
X121478357Y-117703301D01*
X121534873Y-117639566D01*
X121544733Y-117602769D01*
X121527656Y-117519315D01*
X121463921Y-117462798D01*
X121353529Y-117433219D01*
X121289795Y-117376702D01*
X121272717Y-117293248D01*
X121282577Y-117256451D01*
X121339094Y-117192716D01*
X121422548Y-117175639D01*
X121532939Y-117205218D01*
X121596674Y-117261735D01*
X121836469Y-117838696D02*
X121974505Y-117323535D01*
X122043524Y-117065955D02*
X121996867Y-117092893D01*
X122023804Y-117139550D01*
X122070461Y-117112612D01*
X122043524Y-117065955D01*
X122023804Y-117139550D01*
X122673652Y-117510871D02*
X122506036Y-118136423D01*
X122449519Y-118200158D01*
X122402862Y-118227095D01*
X122319408Y-118244173D01*
X122209016Y-118214593D01*
X122145282Y-118158077D01*
X122545475Y-117989234D02*
X122462021Y-118006312D01*
X122314832Y-117966873D01*
X122251097Y-117910356D01*
X122224160Y-117863699D01*
X122207082Y-117780245D01*
X122266241Y-117559462D01*
X122322758Y-117495728D01*
X122369415Y-117468790D01*
X122452869Y-117451712D01*
X122600057Y-117491152D01*
X122663792Y-117547668D01*
X123041623Y-117609469D02*
X122903587Y-118124629D01*
X123021904Y-117683063D02*
X123068561Y-117656126D01*
X123152015Y-117639048D01*
X123262407Y-117668628D01*
X123326141Y-117725144D01*
X123343219Y-117808598D01*
X123234761Y-118213367D01*
X123602733Y-118311965D02*
X123740770Y-117796805D01*
X123809788Y-117539224D02*
X123763131Y-117566162D01*
X123790069Y-117612819D01*
X123836726Y-117585881D01*
X123809788Y-117539224D01*
X123790069Y-117612819D01*
X124108742Y-117895402D02*
X123970705Y-118410563D01*
X124089022Y-117968997D02*
X124135679Y-117942059D01*
X124219133Y-117924982D01*
X124329525Y-117954561D01*
X124393259Y-118011078D01*
X124410337Y-118094532D01*
X124301879Y-118499301D01*
X125139062Y-118171476D02*
X124971446Y-118797028D01*
X124914930Y-118860762D01*
X124868273Y-118887700D01*
X124784818Y-118904778D01*
X124674427Y-118875198D01*
X124610692Y-118818681D01*
X125010885Y-118649839D02*
X124927431Y-118666917D01*
X124780243Y-118627478D01*
X124716508Y-118570961D01*
X124689571Y-118524304D01*
X124672493Y-118440850D01*
X124731652Y-118220067D01*
X124788168Y-118156332D01*
X124834825Y-118129395D01*
X124918279Y-118112317D01*
X125065468Y-118151756D01*
X125129203Y-118208273D01*
X126261989Y-118985071D02*
X126178535Y-119002149D01*
X126031346Y-118962710D01*
X125967612Y-118906193D01*
X125950534Y-118822739D01*
X126029412Y-118528362D01*
X126085929Y-118464627D01*
X126169383Y-118447550D01*
X126316572Y-118486989D01*
X126380307Y-118543505D01*
X126397384Y-118626960D01*
X126377665Y-118700554D01*
X125989973Y-118675550D01*
X126730493Y-119150046D02*
X126666758Y-119093529D01*
X126649681Y-119010075D01*
X126827157Y-118347726D01*
X127329107Y-119271005D02*
X127245653Y-119288083D01*
X127098465Y-119248643D01*
X127034730Y-119192127D01*
X127017652Y-119108673D01*
X127096531Y-118814295D01*
X127153047Y-118750561D01*
X127236501Y-118733483D01*
X127383690Y-118772922D01*
X127447425Y-118829439D01*
X127464502Y-118912893D01*
X127444783Y-118986487D01*
X127057091Y-118961484D01*
X128028254Y-119458341D02*
X127944800Y-119475418D01*
X127797611Y-119435979D01*
X127733876Y-119379462D01*
X127706939Y-119332805D01*
X127689861Y-119249351D01*
X127749020Y-119028568D01*
X127805537Y-118964834D01*
X127852194Y-118937896D01*
X127935648Y-118920819D01*
X128082836Y-118960258D01*
X128146571Y-119016775D01*
X128377214Y-119039136D02*
X128671591Y-119118014D01*
X128556624Y-118811135D02*
X128379148Y-119473484D01*
X128396225Y-119556938D01*
X128459960Y-119613455D01*
X128533554Y-119633175D01*
X128791135Y-119702193D02*
X128929171Y-119187033D01*
X128889732Y-119334221D02*
X128946249Y-119270487D01*
X128992906Y-119243549D01*
X129076360Y-119226472D01*
X129149954Y-119246191D01*
X129269498Y-119830370D02*
X129407535Y-119315210D01*
X129476553Y-119057629D02*
X129429896Y-119084567D01*
X129456834Y-119131224D01*
X129503490Y-119104286D01*
X129476553Y-119057629D01*
X129456834Y-119131224D01*
X129978504Y-119980909D02*
X129895050Y-119997986D01*
X129747861Y-119958547D01*
X129684127Y-119902030D01*
X129657189Y-119855373D01*
X129640111Y-119771919D01*
X129699270Y-119551136D01*
X129755787Y-119487402D01*
X129802444Y-119460464D01*
X129885898Y-119443387D01*
X130033087Y-119482826D01*
X130096821Y-119539342D01*
X110647943Y-116174175D02*
X110584209Y-116117658D01*
X110557271Y-116071001D01*
X110540194Y-115987547D01*
X110599352Y-115766764D01*
X110655869Y-115703029D01*
X110702526Y-115676092D01*
X110785980Y-115659014D01*
X110896372Y-115688594D01*
X110960106Y-115745110D01*
X110987044Y-115791767D01*
X111004121Y-115875221D01*
X110944962Y-116096005D01*
X110888446Y-116159739D01*
X110841789Y-116186677D01*
X110758335Y-116203754D01*
X110647943Y-116174175D01*
X111236698Y-116331931D02*
X111374735Y-115816771D01*
X111335296Y-115963959D02*
X111391812Y-115900225D01*
X111438469Y-115873287D01*
X111521923Y-115856210D01*
X111595518Y-115875929D01*
X112608053Y-116659946D02*
X112524599Y-116677023D01*
X112377410Y-116637584D01*
X112313676Y-116581067D01*
X112296598Y-116497613D01*
X112375476Y-116203236D01*
X112431993Y-116139501D01*
X112515447Y-116122424D01*
X112662636Y-116161863D01*
X112726370Y-116218380D01*
X112743448Y-116301834D01*
X112723729Y-116375428D01*
X112336037Y-116350425D01*
X113076557Y-116824920D02*
X113012822Y-116768403D01*
X112995744Y-116684949D01*
X113173220Y-116022600D01*
X113675171Y-116945879D02*
X113591717Y-116962957D01*
X113444528Y-116923518D01*
X113380794Y-116867001D01*
X113363716Y-116783547D01*
X113442594Y-116489169D01*
X113499111Y-116425435D01*
X113582565Y-116408357D01*
X113729754Y-116447796D01*
X113793489Y-116504313D01*
X113810566Y-116587767D01*
X113790847Y-116661361D01*
X113403155Y-116636358D01*
X114374318Y-117133215D02*
X114290863Y-117150292D01*
X114143675Y-117110853D01*
X114079940Y-117054337D01*
X114053003Y-117007680D01*
X114035925Y-116924225D01*
X114095084Y-116703442D01*
X114151601Y-116639708D01*
X114198257Y-116612770D01*
X114281712Y-116595693D01*
X114428900Y-116635132D01*
X114492635Y-116691649D01*
X114723278Y-116714010D02*
X115017655Y-116792888D01*
X114902688Y-116486009D02*
X114725212Y-117148358D01*
X114742289Y-117231812D01*
X114806024Y-117288329D01*
X114879618Y-117308049D01*
X115137198Y-117377067D02*
X115275235Y-116861907D01*
X115235796Y-117009095D02*
X115292313Y-116945361D01*
X115338970Y-116918423D01*
X115422424Y-116901346D01*
X115496018Y-116921065D01*
X115725953Y-117534824D02*
X115662219Y-117478307D01*
X115635281Y-117431650D01*
X115618204Y-117348196D01*
X115677362Y-117127413D01*
X115733879Y-117063678D01*
X115780536Y-117036741D01*
X115863990Y-117019663D01*
X115974382Y-117049242D01*
X116038116Y-117105759D01*
X116065054Y-117152416D01*
X116082131Y-117235870D01*
X116022973Y-117456653D01*
X115966456Y-117520388D01*
X115919799Y-117547325D01*
X115836345Y-117564403D01*
X115725953Y-117534824D01*
X116452745Y-117177419D02*
X116314708Y-117692580D01*
X116433025Y-117251014D02*
X116479682Y-117224076D01*
X116563136Y-117206999D01*
X116673528Y-117236578D01*
X116737262Y-117293095D01*
X116754340Y-117376549D01*
X116645883Y-117781318D01*
X117013854Y-117879916D02*
X117151891Y-117364755D01*
X117220910Y-117107175D02*
X117174253Y-117134112D01*
X117201190Y-117180769D01*
X117247847Y-117153832D01*
X117220910Y-117107175D01*
X117201190Y-117180769D01*
X117722860Y-118030454D02*
X117639406Y-118047532D01*
X117492218Y-118008093D01*
X117428483Y-117951576D01*
X117401546Y-117904919D01*
X117384468Y-117821465D01*
X117443627Y-117600682D01*
X117500143Y-117536947D01*
X117546800Y-117510010D01*
X117630254Y-117492932D01*
X117777443Y-117532371D01*
X117841178Y-117588888D01*
X118973964Y-118365686D02*
X118890510Y-118382764D01*
X118743322Y-118343325D01*
X118679587Y-118286808D01*
X118652650Y-118240151D01*
X118635572Y-118156697D01*
X118694731Y-117935914D01*
X118751247Y-117872179D01*
X118797904Y-117845242D01*
X118881358Y-117828164D01*
X119028547Y-117867604D01*
X119092282Y-117924120D01*
X119295279Y-118491221D02*
X119433316Y-117976061D01*
X119502334Y-117718481D02*
X119455677Y-117745418D01*
X119482615Y-117792075D01*
X119529272Y-117765138D01*
X119502334Y-117718481D01*
X119482615Y-117792075D01*
X119663251Y-118589819D02*
X119801288Y-118074659D01*
X119761849Y-118221847D02*
X119818365Y-118158113D01*
X119865022Y-118131176D01*
X119948476Y-118114098D01*
X120022071Y-118133817D01*
X120482649Y-118769937D02*
X120399194Y-118787015D01*
X120252006Y-118747576D01*
X120188271Y-118691059D01*
X120161334Y-118644402D01*
X120144256Y-118560948D01*
X120203415Y-118340165D01*
X120259931Y-118276430D01*
X120306588Y-118249493D01*
X120390043Y-118232415D01*
X120537231Y-118271854D01*
X120600966Y-118328371D01*
X121273175Y-118469050D02*
X121135138Y-118984210D01*
X120942000Y-118380312D02*
X120833543Y-118785081D01*
X120850620Y-118868535D01*
X120914355Y-118925052D01*
X121024746Y-118954631D01*
X121108200Y-118937553D01*
X121154857Y-118910616D01*
X121503110Y-119082808D02*
X121641146Y-118567647D01*
X121710165Y-118310067D02*
X121663508Y-118337005D01*
X121690445Y-118383662D01*
X121737102Y-118356724D01*
X121710165Y-118310067D01*
X121690445Y-118383662D01*
X121898727Y-118636666D02*
X122193104Y-118715544D01*
X122078137Y-118408665D02*
X121900661Y-119071014D01*
X121917738Y-119154468D01*
X121981473Y-119210985D01*
X122055067Y-119230704D01*
X122285710Y-119253066D02*
X122349445Y-119309583D01*
X122496633Y-119349022D01*
X122580087Y-119331944D01*
X122636604Y-119268210D01*
X122646464Y-119231412D01*
X122629386Y-119147958D01*
X122565652Y-119091442D01*
X122455260Y-119061862D01*
X122391526Y-119005346D01*
X122374448Y-118921891D01*
X122384308Y-118885094D01*
X122440825Y-118821360D01*
X122524279Y-118804282D01*
X122634670Y-118833861D01*
X122698405Y-118890378D01*
X122957919Y-119393745D02*
X122984856Y-119440402D01*
X122938199Y-119467339D01*
X122911262Y-119420682D01*
X122957919Y-119393745D01*
X122938199Y-119467339D01*
X108588467Y-116206432D02*
X108635124Y-116179495D01*
X108718578Y-116162417D01*
X108902564Y-116211716D01*
X108966298Y-116268233D01*
X108993236Y-116314890D01*
X109010313Y-116398344D01*
X108990594Y-116471938D01*
X108924217Y-116572470D01*
X108364334Y-116895719D01*
X108842697Y-117023896D01*
X109193591Y-117039039D02*
X109220529Y-117085696D01*
X109173872Y-117112634D01*
X109146934Y-117065977D01*
X109193591Y-117039039D01*
X109173872Y-117112634D01*
X110158244Y-116824248D02*
X110452621Y-116903126D01*
X110337654Y-116596247D02*
X110160178Y-117258596D01*
X110177255Y-117342051D01*
X110240990Y-117398567D01*
X110314584Y-117418287D01*
X110572164Y-117487305D02*
X110779220Y-116714565D01*
X110903339Y-117576043D02*
X111011796Y-117171274D01*
X110994719Y-117087820D01*
X110930984Y-117031303D01*
X110820593Y-117001724D01*
X110737139Y-117018802D01*
X110690482Y-117045739D01*
X111575548Y-117716722D02*
X111492094Y-117733800D01*
X111344905Y-117694360D01*
X111281170Y-117637844D01*
X111264093Y-117554390D01*
X111342971Y-117260012D01*
X111399488Y-117196278D01*
X111482942Y-117179200D01*
X111630131Y-117218639D01*
X111693865Y-117275156D01*
X111710943Y-117358610D01*
X111691223Y-117432204D01*
X111303532Y-117407201D01*
X112863449Y-118061814D02*
X112779995Y-118078892D01*
X112632806Y-118039453D01*
X112569072Y-117982936D01*
X112542134Y-117936279D01*
X112525057Y-117852825D01*
X112584215Y-117632042D01*
X112640732Y-117568307D01*
X112687389Y-117541370D01*
X112770843Y-117524292D01*
X112918032Y-117563731D01*
X112981766Y-117620248D01*
X113184764Y-118187349D02*
X113322801Y-117672189D01*
X113391819Y-117414608D02*
X113345162Y-117441546D01*
X113372099Y-117488203D01*
X113418756Y-117461265D01*
X113391819Y-117414608D01*
X113372099Y-117488203D01*
X113552736Y-118285947D02*
X113690772Y-117770786D01*
X113651333Y-117917975D02*
X113707850Y-117854241D01*
X113754507Y-117827303D01*
X113837961Y-117810225D01*
X113911555Y-117829945D01*
X114372133Y-118466065D02*
X114288679Y-118483142D01*
X114141490Y-118443703D01*
X114077756Y-118387186D01*
X114050818Y-118340530D01*
X114033741Y-118257075D01*
X114092899Y-118036292D01*
X114149416Y-117972558D01*
X114196073Y-117945620D01*
X114279527Y-117928543D01*
X114426716Y-117967982D01*
X114490450Y-118024499D01*
X115162659Y-118165177D02*
X115024623Y-118680338D01*
X114831485Y-118076439D02*
X114723027Y-118481208D01*
X114740105Y-118564662D01*
X114803839Y-118621179D01*
X114914231Y-118650758D01*
X114997685Y-118633681D01*
X115044342Y-118606743D01*
X115392594Y-118778936D02*
X115530631Y-118263775D01*
X115599649Y-118006195D02*
X115552993Y-118033132D01*
X115579930Y-118079789D01*
X115626587Y-118052852D01*
X115599649Y-118006195D01*
X115579930Y-118079789D01*
X115788211Y-118332793D02*
X116082589Y-118411672D01*
X115967621Y-118104793D02*
X115790145Y-118767142D01*
X115807223Y-118850596D01*
X115870958Y-118907113D01*
X115944552Y-118926832D01*
X116175195Y-118949194D02*
X116238929Y-119005710D01*
X116386118Y-119045149D01*
X116469572Y-119028072D01*
X116526089Y-118964337D01*
X116535949Y-118927540D01*
X116518871Y-118844086D01*
X116455136Y-118787569D01*
X116344745Y-118757990D01*
X116281010Y-118701473D01*
X116263933Y-118618019D01*
X116273792Y-118581222D01*
X116330309Y-118517487D01*
X116413763Y-118500410D01*
X116524155Y-118529989D01*
X116587889Y-118586506D01*
X117444084Y-118776483D02*
X117738462Y-118855361D01*
X117623494Y-118548482D02*
X117446018Y-119210832D01*
X117463096Y-119294286D01*
X117526830Y-119350802D01*
X117600425Y-119370522D01*
X117858005Y-119439540D02*
X118065060Y-118666800D01*
X118189179Y-119528278D02*
X118297637Y-119123509D01*
X118280559Y-119040055D01*
X118216825Y-118983539D01*
X118106433Y-118953959D01*
X118022979Y-118971037D01*
X117976322Y-118997974D01*
X118861388Y-119668957D02*
X118777934Y-119686035D01*
X118630746Y-119646596D01*
X118567011Y-119590079D01*
X118549933Y-119506625D01*
X118628812Y-119212247D01*
X118685328Y-119148513D01*
X118768782Y-119131435D01*
X118915971Y-119170874D01*
X118979706Y-119227391D01*
X118996783Y-119310845D01*
X118977064Y-119384439D01*
X118589372Y-119359436D01*
X119219500Y-119804352D02*
X119357537Y-119289191D01*
X119337818Y-119362786D02*
X119384475Y-119335848D01*
X119467929Y-119318771D01*
X119578320Y-119348350D01*
X119642055Y-119404867D01*
X119659132Y-119488321D01*
X119550675Y-119893090D01*
X119659132Y-119488321D02*
X119715649Y-119424586D01*
X119799103Y-119407509D01*
X119909495Y-119437088D01*
X119973229Y-119493605D01*
X119990307Y-119577059D01*
X119881850Y-119981828D01*
X120222884Y-120033769D02*
X120286618Y-120090285D01*
X120433807Y-120129724D01*
X120517261Y-120112647D01*
X120573778Y-120048912D01*
X120583638Y-120012115D01*
X120566560Y-119928661D01*
X120502826Y-119872144D01*
X120392434Y-119842565D01*
X120328699Y-119786048D01*
X120311622Y-119702594D01*
X120321482Y-119665797D01*
X120377998Y-119602062D01*
X120461452Y-119584985D01*
X120571844Y-119614564D01*
X120635579Y-119671081D01*
X121179610Y-120290123D02*
X121096156Y-120307200D01*
X120948968Y-120267761D01*
X120885233Y-120211245D01*
X120868155Y-120127790D01*
X120947034Y-119833413D01*
X121003550Y-119769678D01*
X121087004Y-119752601D01*
X121234193Y-119792040D01*
X121297928Y-119848557D01*
X121315005Y-119932011D01*
X121295286Y-120005605D01*
X120907594Y-119980602D01*
X121648114Y-120455097D02*
X121584379Y-120398580D01*
X121567302Y-120315126D01*
X121744778Y-119652777D01*
X122006934Y-119999095D02*
X122052883Y-120563554D01*
X122374905Y-120097693D01*
X122835483Y-120733813D02*
X122752029Y-120750890D01*
X122604840Y-120711451D01*
X122541106Y-120654934D01*
X122524028Y-120571480D01*
X122602906Y-120277103D01*
X122659423Y-120213368D01*
X122742877Y-120196291D01*
X122890066Y-120235730D01*
X122953801Y-120292246D01*
X122970878Y-120375701D01*
X122951159Y-120449295D01*
X122563467Y-120424292D01*
X123166658Y-120822550D02*
X123230392Y-120879067D01*
X123377581Y-120918506D01*
X123461035Y-120901429D01*
X123517552Y-120837694D01*
X123527412Y-120800897D01*
X123510334Y-120717443D01*
X123446599Y-120660926D01*
X123336208Y-120631347D01*
X123272473Y-120574830D01*
X123255396Y-120491376D01*
X123265256Y-120454579D01*
X123321772Y-120390844D01*
X123405226Y-120373767D01*
X123515618Y-120403346D01*
X123579352Y-120459863D01*
X123838867Y-120963229D02*
X123865804Y-121009886D01*
X123819147Y-121036824D01*
X123792210Y-120990167D01*
X123838867Y-120963229D01*
X123819147Y-121036824D01*
X108238030Y-117367090D02*
X108716393Y-117495267D01*
X108379935Y-117720626D01*
X108490327Y-117750206D01*
X108554061Y-117806722D01*
X108580999Y-117853379D01*
X108598076Y-117936833D01*
X108548777Y-118120819D01*
X108492261Y-118184554D01*
X108445604Y-118211491D01*
X108362150Y-118228569D01*
X108141366Y-118169410D01*
X108077632Y-118112893D01*
X108050694Y-118066236D01*
X108860232Y-118283151D02*
X108887170Y-118329808D01*
X108840513Y-118356746D01*
X108813575Y-118310089D01*
X108860232Y-118283151D01*
X108840513Y-118356746D01*
X109824885Y-118068360D02*
X110119262Y-118147238D01*
X110004295Y-117840359D02*
X109826819Y-118502708D01*
X109843896Y-118586163D01*
X109907631Y-118642679D01*
X109981225Y-118662399D01*
X110238805Y-118731417D02*
X110445861Y-117958677D01*
X110569980Y-118820155D02*
X110678437Y-118415386D01*
X110661360Y-118331932D01*
X110597625Y-118275415D01*
X110487234Y-118245836D01*
X110403780Y-118262914D01*
X110357123Y-118289851D01*
X111242189Y-118960834D02*
X111158735Y-118977912D01*
X111011546Y-118938472D01*
X110947811Y-118881956D01*
X110930734Y-118798502D01*
X111009612Y-118504124D01*
X111066129Y-118440390D01*
X111149583Y-118423312D01*
X111296772Y-118462751D01*
X111360506Y-118519268D01*
X111377584Y-118602722D01*
X111357864Y-118676316D01*
X110970173Y-118651313D01*
X112530090Y-119305926D02*
X112446636Y-119323004D01*
X112299447Y-119283565D01*
X112235713Y-119227048D01*
X112208775Y-119180391D01*
X112191698Y-119096937D01*
X112250856Y-118876154D01*
X112307373Y-118812419D01*
X112354030Y-118785482D01*
X112437484Y-118768404D01*
X112584673Y-118807843D01*
X112648407Y-118864360D01*
X112961796Y-119461040D02*
X112898062Y-119404524D01*
X112871124Y-119357867D01*
X112854047Y-119274413D01*
X112913205Y-119053630D01*
X112969722Y-118989895D01*
X113016379Y-118962958D01*
X113099833Y-118945880D01*
X113210225Y-118975459D01*
X113273959Y-119031976D01*
X113300897Y-119078633D01*
X113317974Y-119162087D01*
X113258816Y-119382870D01*
X113202299Y-119446605D01*
X113155642Y-119473542D01*
X113072188Y-119490620D01*
X112961796Y-119461040D01*
X113550551Y-119618797D02*
X113688588Y-119103636D01*
X113668868Y-119177231D02*
X113715525Y-119150293D01*
X113798979Y-119133216D01*
X113909371Y-119162795D01*
X113973106Y-119219312D01*
X113990183Y-119302766D01*
X113881726Y-119707535D01*
X113990183Y-119302766D02*
X114046700Y-119239031D01*
X114130154Y-119221954D01*
X114240546Y-119251533D01*
X114304280Y-119308050D01*
X114321358Y-119391504D01*
X114212900Y-119796273D01*
X114718909Y-119379710D02*
X114511854Y-120152451D01*
X114709049Y-119416507D02*
X114792503Y-119399430D01*
X114939692Y-119438869D01*
X115003426Y-119495385D01*
X115030364Y-119542042D01*
X115047441Y-119625496D01*
X114988283Y-119846279D01*
X114931766Y-119910014D01*
X114885109Y-119936951D01*
X114801655Y-119954029D01*
X114654466Y-119914590D01*
X114590732Y-119858073D01*
X115390410Y-120111785D02*
X115326675Y-120055269D01*
X115299738Y-120008612D01*
X115282660Y-119925158D01*
X115341819Y-119704375D01*
X115398336Y-119640640D01*
X115444993Y-119613703D01*
X115528447Y-119596625D01*
X115638838Y-119626204D01*
X115702573Y-119682721D01*
X115729510Y-119729378D01*
X115746588Y-119812832D01*
X115687429Y-120033615D01*
X115630912Y-120097350D01*
X115584255Y-120124287D01*
X115500801Y-120141365D01*
X115390410Y-120111785D01*
X116117201Y-119754381D02*
X115979165Y-120269542D01*
X116097482Y-119827976D02*
X116144139Y-119801038D01*
X116227593Y-119783961D01*
X116337984Y-119813540D01*
X116401719Y-119870057D01*
X116418797Y-119953511D01*
X116310339Y-120358280D01*
X116982548Y-120498959D02*
X116899094Y-120516036D01*
X116751905Y-120476597D01*
X116688171Y-120420080D01*
X116671093Y-120336626D01*
X116749971Y-120042249D01*
X116806488Y-119978514D01*
X116889942Y-119961437D01*
X117037131Y-120000876D01*
X117100865Y-120057392D01*
X117117943Y-120140847D01*
X117098223Y-120214441D01*
X116710532Y-120189438D01*
X117478697Y-120119193D02*
X117340660Y-120634353D01*
X117458977Y-120192787D02*
X117505634Y-120165850D01*
X117589088Y-120148772D01*
X117699480Y-120178352D01*
X117763214Y-120234868D01*
X117780292Y-120318322D01*
X117671835Y-120723091D01*
X118067452Y-120276949D02*
X118361829Y-120355828D01*
X118246862Y-120048948D02*
X118069386Y-120711298D01*
X118086463Y-120794752D01*
X118150198Y-120851268D01*
X118223792Y-120870988D01*
X118454435Y-120893349D02*
X118518170Y-120949866D01*
X118665358Y-120989305D01*
X118748812Y-120972228D01*
X118805329Y-120908493D01*
X118815189Y-120871696D01*
X118798111Y-120788242D01*
X118734377Y-120731725D01*
X118623985Y-120702146D01*
X118560251Y-120645629D01*
X118543173Y-120562175D01*
X118553033Y-120525378D01*
X118609550Y-120461643D01*
X118693004Y-120444566D01*
X118803395Y-120474145D01*
X118867130Y-120530662D01*
X119806071Y-121294958D02*
X119742336Y-121238442D01*
X119715399Y-121191785D01*
X119698321Y-121108330D01*
X119757480Y-120887547D01*
X119813996Y-120823813D01*
X119860653Y-120796875D01*
X119944108Y-120779798D01*
X120054499Y-120809377D01*
X120118234Y-120865894D01*
X120145171Y-120912551D01*
X120162249Y-120996005D01*
X120103090Y-121216788D01*
X120046573Y-121280523D01*
X119999916Y-121307460D01*
X119916462Y-121324538D01*
X119806071Y-121294958D01*
X120422471Y-120907975D02*
X120716848Y-120986853D01*
X120394826Y-121452715D02*
X120572301Y-120790365D01*
X120628818Y-120726631D01*
X120712272Y-120709553D01*
X120785867Y-120729273D01*
X121398209Y-121682131D02*
X121461944Y-121738648D01*
X121609132Y-121778087D01*
X121692586Y-121761009D01*
X121749103Y-121697275D01*
X121758963Y-121660478D01*
X121741885Y-121577024D01*
X121678151Y-121520507D01*
X121567759Y-121490928D01*
X121504025Y-121434411D01*
X121486947Y-121350957D01*
X121496807Y-121314160D01*
X121553323Y-121250425D01*
X121636778Y-121233347D01*
X121747169Y-121262927D01*
X121810904Y-121319443D01*
X122519910Y-121469982D02*
X122381873Y-121985142D01*
X122188735Y-121381244D02*
X122080278Y-121786013D01*
X122097355Y-121869467D01*
X122161090Y-121925984D01*
X122271481Y-121955563D01*
X122354936Y-121938485D01*
X122401592Y-121911548D01*
X123090879Y-122135681D02*
X123007425Y-122152759D01*
X122860236Y-122113319D01*
X122796502Y-122056803D01*
X122769564Y-122010146D01*
X122752487Y-121926692D01*
X122811645Y-121705909D01*
X122868162Y-121642174D01*
X122914819Y-121615237D01*
X122998273Y-121598159D01*
X123145462Y-121637598D01*
X123209196Y-121694115D01*
X123412194Y-122261216D02*
X123619249Y-121488475D01*
X123743368Y-122349954D02*
X123851826Y-121945185D01*
X123834748Y-121861731D01*
X123771014Y-121805214D01*
X123660622Y-121775635D01*
X123577168Y-121792713D01*
X123530511Y-121819650D01*
X125041129Y-122658249D02*
X124957675Y-122675326D01*
X124810486Y-122635887D01*
X124746752Y-122579371D01*
X124719814Y-122532714D01*
X124702737Y-122449260D01*
X124761895Y-122228477D01*
X124818412Y-122164742D01*
X124865069Y-122137805D01*
X124948523Y-122120727D01*
X125095712Y-122160166D01*
X125159447Y-122216683D01*
X125362444Y-122783784D02*
X125500481Y-122268624D01*
X125569499Y-122011043D02*
X125522842Y-122037981D01*
X125549780Y-122084638D01*
X125596437Y-122057700D01*
X125569499Y-122011043D01*
X125549780Y-122084638D01*
X125730416Y-122882382D02*
X125868453Y-122367221D01*
X125829014Y-122514410D02*
X125885530Y-122450675D01*
X125932187Y-122423738D01*
X126015641Y-122406660D01*
X126089236Y-122426380D01*
X126549813Y-123062500D02*
X126466359Y-123079577D01*
X126319171Y-123040138D01*
X126255436Y-122983621D01*
X126228499Y-122936964D01*
X126211421Y-122853510D01*
X126270580Y-122632727D01*
X126327096Y-122568993D01*
X126373753Y-122542055D01*
X126457207Y-122524978D01*
X126604396Y-122564417D01*
X126668131Y-122620933D01*
X127340340Y-122761612D02*
X127202303Y-123276773D01*
X127009165Y-122672874D02*
X126900708Y-123077643D01*
X126917785Y-123161097D01*
X126981520Y-123217614D01*
X127091911Y-123247193D01*
X127175365Y-123230116D01*
X127222022Y-123203178D01*
X127570275Y-123375370D02*
X127708311Y-122860210D01*
X127777330Y-122602630D02*
X127730673Y-122629567D01*
X127757610Y-122676224D01*
X127804267Y-122649287D01*
X127777330Y-122602630D01*
X127757610Y-122676224D01*
X127965892Y-122929228D02*
X128260269Y-123008107D01*
X128145301Y-122701227D02*
X127967826Y-123363577D01*
X127984903Y-123447031D01*
X128048638Y-123503547D01*
X128122232Y-123523267D01*
X128352875Y-123545628D02*
X128416610Y-123602145D01*
X128563798Y-123641584D01*
X128647252Y-123624507D01*
X128703769Y-123560772D01*
X128713629Y-123523975D01*
X128696551Y-123440521D01*
X128632817Y-123384004D01*
X128522425Y-123354425D01*
X128458691Y-123297908D01*
X128441613Y-123214454D01*
X128451473Y-123177657D01*
X128507989Y-123113922D01*
X128591444Y-123096844D01*
X128701835Y-123126424D01*
X128765570Y-123182941D01*
X129025084Y-123686307D02*
X129052021Y-123732964D01*
X129005364Y-123759902D01*
X128978427Y-123713245D01*
X129025084Y-123686307D01*
X129005364Y-123759902D01*
X164500131Y-115366052D02*
X164042989Y-115366052D01*
X185622252Y-95326050D02*
X184860347Y-95326050D01*
X185241300Y-95707002D02*
X185241300Y-94945098D01*
X179475452Y-95326050D02*
X178713547Y-95326050D01*
X166481331Y-118871252D02*
X166024189Y-118871252D01*
X166252760Y-118642681D02*
X166252760Y-119099824D01*
X168998261Y-88162021D02*
X168998261Y-87362021D01*
X169188737Y-87362021D01*
X169303023Y-87400117D01*
X169379213Y-87476307D01*
X169417309Y-87552497D01*
X169455404Y-87704878D01*
X169455404Y-87819164D01*
X169417309Y-87971545D01*
X169379213Y-88047736D01*
X169303023Y-88123926D01*
X169188737Y-88162021D01*
X168998261Y-88162021D01*
X170217309Y-88162021D02*
X169760166Y-88162021D01*
X169988737Y-88162021D02*
X169988737Y-87362021D01*
X169912547Y-87476307D01*
X169836356Y-87552497D01*
X169760166Y-87590593D01*
X170712547Y-87362021D02*
X170788737Y-87362021D01*
X170864928Y-87400117D01*
X170903023Y-87438212D01*
X170941118Y-87514402D01*
X170979213Y-87666783D01*
X170979213Y-87857259D01*
X170941118Y-88009640D01*
X170903023Y-88085831D01*
X170864928Y-88123926D01*
X170788737Y-88162021D01*
X170712547Y-88162021D01*
X170636356Y-88123926D01*
X170598261Y-88085831D01*
X170560166Y-88009640D01*
X170522070Y-87857259D01*
X170522070Y-87666783D01*
X170560166Y-87514402D01*
X170598261Y-87438212D01*
X170636356Y-87400117D01*
X170712547Y-87362021D01*
X181815956Y-97273029D02*
X181815956Y-97987315D01*
X181768337Y-98130172D01*
X181673099Y-98225410D01*
X181530242Y-98273029D01*
X181435004Y-98273029D01*
X182196909Y-97273029D02*
X182815956Y-97273029D01*
X182482623Y-97653982D01*
X182625480Y-97653982D01*
X182720718Y-97701601D01*
X182768337Y-97749220D01*
X182815956Y-97844458D01*
X182815956Y-98082553D01*
X182768337Y-98177791D01*
X182720718Y-98225410D01*
X182625480Y-98273029D01*
X182339766Y-98273029D01*
X182244528Y-98225410D01*
X182196909Y-98177791D01*
X169366926Y-71142296D02*
X169366926Y-70342296D01*
X169557403Y-70342296D01*
X169671688Y-70380392D01*
X169747879Y-70456582D01*
X169785974Y-70532772D01*
X169824069Y-70685153D01*
X169824069Y-70799439D01*
X169785974Y-70951820D01*
X169747879Y-71028011D01*
X169671688Y-71104201D01*
X169557403Y-71142296D01*
X169366926Y-71142296D01*
X170547879Y-70342296D02*
X170166926Y-70342296D01*
X170128831Y-70723249D01*
X170166926Y-70685153D01*
X170243117Y-70647058D01*
X170433593Y-70647058D01*
X170509783Y-70685153D01*
X170547879Y-70723249D01*
X170585974Y-70799439D01*
X170585974Y-70989915D01*
X170547879Y-71066106D01*
X170509783Y-71104201D01*
X170433593Y-71142296D01*
X170243117Y-71142296D01*
X170166926Y-71104201D01*
X170128831Y-71066106D01*
X115159213Y-87148850D02*
X115159213Y-86348850D01*
X115349690Y-86348850D01*
X115463975Y-86386946D01*
X115540166Y-86463136D01*
X115578261Y-86539326D01*
X115616356Y-86691707D01*
X115616356Y-86805993D01*
X115578261Y-86958374D01*
X115540166Y-87034565D01*
X115463975Y-87110755D01*
X115349690Y-87148850D01*
X115159213Y-87148850D01*
X115883023Y-86348850D02*
X116416356Y-86348850D01*
X116073499Y-87148850D01*
X179610669Y-92091443D02*
X180324955Y-92091443D01*
X180467812Y-92139062D01*
X180563050Y-92234300D01*
X180610669Y-92377157D01*
X180610669Y-92472395D01*
X180610669Y-91615252D02*
X179610669Y-91615252D01*
X179610669Y-91234300D01*
X179658289Y-91139062D01*
X179705908Y-91091443D01*
X179801146Y-91043824D01*
X179944003Y-91043824D01*
X180039241Y-91091443D01*
X180086860Y-91139062D01*
X180134479Y-91234300D01*
X180134479Y-91615252D01*
X180610669Y-90091443D02*
X180610669Y-90662871D01*
X180610669Y-90377157D02*
X179610669Y-90377157D01*
X179753527Y-90472395D01*
X179848765Y-90567633D01*
X179896384Y-90662871D01*
X96693461Y-107567650D02*
X96693461Y-106767650D01*
X96883937Y-106767650D01*
X96998223Y-106805746D01*
X97074413Y-106881936D01*
X97112509Y-106958126D01*
X97150604Y-107110507D01*
X97150604Y-107224793D01*
X97112509Y-107377174D01*
X97074413Y-107453365D01*
X96998223Y-107529555D01*
X96883937Y-107567650D01*
X96693461Y-107567650D01*
X97912509Y-107567650D02*
X97455366Y-107567650D01*
X97683937Y-107567650D02*
X97683937Y-106767650D01*
X97607747Y-106881936D01*
X97531556Y-106958126D01*
X97455366Y-106996222D01*
X98674413Y-107567650D02*
X98217270Y-107567650D01*
X98445842Y-107567650D02*
X98445842Y-106767650D01*
X98369651Y-106881936D01*
X98293461Y-106958126D01*
X98217270Y-106996222D01*
X97074413Y-90552650D02*
X97074413Y-89752650D01*
X97264890Y-89752650D01*
X97379175Y-89790746D01*
X97455366Y-89866936D01*
X97493461Y-89943126D01*
X97531556Y-90095507D01*
X97531556Y-90209793D01*
X97493461Y-90362174D01*
X97455366Y-90438365D01*
X97379175Y-90514555D01*
X97264890Y-90552650D01*
X97074413Y-90552650D01*
X98217270Y-89752650D02*
X98064890Y-89752650D01*
X97988699Y-89790746D01*
X97950604Y-89828841D01*
X97874413Y-89943126D01*
X97836318Y-90095507D01*
X97836318Y-90400269D01*
X97874413Y-90476460D01*
X97912509Y-90514555D01*
X97988699Y-90552650D01*
X98141080Y-90552650D01*
X98217270Y-90514555D01*
X98255366Y-90476460D01*
X98293461Y-90400269D01*
X98293461Y-90209793D01*
X98255366Y-90133603D01*
X98217270Y-90095507D01*
X98141080Y-90057412D01*
X97988699Y-90057412D01*
X97912509Y-90095507D01*
X97874413Y-90133603D01*
X97836318Y-90209793D01*
X159909629Y-115208708D02*
X159909629Y-114408708D01*
X160100105Y-114408708D01*
X160214391Y-114446804D01*
X160290581Y-114522994D01*
X160328677Y-114599184D01*
X160366772Y-114751565D01*
X160366772Y-114865851D01*
X160328677Y-115018232D01*
X160290581Y-115094423D01*
X160214391Y-115170613D01*
X160100105Y-115208708D01*
X159909629Y-115208708D01*
X161128677Y-115208708D02*
X160671534Y-115208708D01*
X160900105Y-115208708D02*
X160900105Y-114408708D01*
X160823915Y-114522994D01*
X160747724Y-114599184D01*
X160671534Y-114637280D01*
X161395343Y-114408708D02*
X161928677Y-114408708D01*
X161585819Y-115208708D01*
X169164461Y-110649028D02*
X169212080Y-110506171D01*
X169259699Y-110458552D01*
X169354937Y-110410933D01*
X169497794Y-110410933D01*
X169593032Y-110458552D01*
X169640651Y-110506171D01*
X169688270Y-110601409D01*
X169688270Y-110982361D01*
X168688270Y-110982361D01*
X168688270Y-110649028D01*
X168735890Y-110553790D01*
X168783509Y-110506171D01*
X168878747Y-110458552D01*
X168973985Y-110458552D01*
X169069223Y-110506171D01*
X169116842Y-110553790D01*
X169164461Y-110649028D01*
X169164461Y-110982361D01*
X168688270Y-110125218D02*
X168688270Y-109553790D01*
X169688270Y-109839504D02*
X168688270Y-109839504D01*
X169688270Y-108696647D02*
X169688270Y-109268075D01*
X169688270Y-108982361D02*
X168688270Y-108982361D01*
X168831128Y-109077599D01*
X168926366Y-109172837D01*
X168973985Y-109268075D01*
X159909629Y-108531308D02*
X159909629Y-107731308D01*
X160100105Y-107731308D01*
X160214391Y-107769404D01*
X160290581Y-107845594D01*
X160328677Y-107921784D01*
X160366772Y-108074165D01*
X160366772Y-108188451D01*
X160328677Y-108340832D01*
X160290581Y-108417023D01*
X160214391Y-108493213D01*
X160100105Y-108531308D01*
X159909629Y-108531308D01*
X161128677Y-108531308D02*
X160671534Y-108531308D01*
X160900105Y-108531308D02*
X160900105Y-107731308D01*
X160823915Y-107845594D01*
X160747724Y-107921784D01*
X160671534Y-107959880D01*
X161814391Y-107731308D02*
X161662010Y-107731308D01*
X161585819Y-107769404D01*
X161547724Y-107807499D01*
X161471534Y-107921784D01*
X161433438Y-108074165D01*
X161433438Y-108378927D01*
X161471534Y-108455118D01*
X161509629Y-108493213D01*
X161585819Y-108531308D01*
X161738200Y-108531308D01*
X161814391Y-108493213D01*
X161852486Y-108455118D01*
X161890581Y-108378927D01*
X161890581Y-108188451D01*
X161852486Y-108112261D01*
X161814391Y-108074165D01*
X161738200Y-108036070D01*
X161585819Y-108036070D01*
X161509629Y-108074165D01*
X161471534Y-108112261D01*
X161433438Y-108188451D01*
X133244013Y-68506348D02*
X133244013Y-67706348D01*
X133434490Y-67706348D01*
X133548775Y-67744444D01*
X133624966Y-67820634D01*
X133663061Y-67896824D01*
X133701156Y-68049205D01*
X133701156Y-68163491D01*
X133663061Y-68315872D01*
X133624966Y-68392063D01*
X133548775Y-68468253D01*
X133434490Y-68506348D01*
X133244013Y-68506348D01*
X133967823Y-67706348D02*
X134463061Y-67706348D01*
X134196394Y-68011110D01*
X134310680Y-68011110D01*
X134386870Y-68049205D01*
X134424966Y-68087301D01*
X134463061Y-68163491D01*
X134463061Y-68353967D01*
X134424966Y-68430158D01*
X134386870Y-68468253D01*
X134310680Y-68506348D01*
X134082109Y-68506348D01*
X134005918Y-68468253D01*
X133967823Y-68430158D01*
X151278013Y-70776449D02*
X151278013Y-69976449D01*
X151468490Y-69976449D01*
X151582775Y-70014545D01*
X151658966Y-70090735D01*
X151697061Y-70166925D01*
X151735156Y-70319306D01*
X151735156Y-70433592D01*
X151697061Y-70585973D01*
X151658966Y-70662164D01*
X151582775Y-70738354D01*
X151468490Y-70776449D01*
X151278013Y-70776449D01*
X152420870Y-70243116D02*
X152420870Y-70776449D01*
X152230394Y-69938354D02*
X152039918Y-70509783D01*
X152535156Y-70509783D01*
X97074413Y-73469949D02*
X97074413Y-72669949D01*
X97264890Y-72669949D01*
X97379175Y-72708045D01*
X97455366Y-72784235D01*
X97493461Y-72860425D01*
X97531556Y-73012806D01*
X97531556Y-73127092D01*
X97493461Y-73279473D01*
X97455366Y-73355664D01*
X97379175Y-73431854D01*
X97264890Y-73469949D01*
X97074413Y-73469949D01*
X98293461Y-73469949D02*
X97836318Y-73469949D01*
X98064890Y-73469949D02*
X98064890Y-72669949D01*
X97988699Y-72784235D01*
X97912509Y-72860425D01*
X97836318Y-72898521D01*
X168931061Y-105013549D02*
X168931061Y-104213549D01*
X169121537Y-104213549D01*
X169235823Y-104251645D01*
X169312013Y-104327835D01*
X169350109Y-104404025D01*
X169388204Y-104556406D01*
X169388204Y-104670692D01*
X169350109Y-104823073D01*
X169312013Y-104899264D01*
X169235823Y-104975454D01*
X169121537Y-105013549D01*
X168931061Y-105013549D01*
X170150109Y-105013549D02*
X169692966Y-105013549D01*
X169921537Y-105013549D02*
X169921537Y-104213549D01*
X169845347Y-104327835D01*
X169769156Y-104404025D01*
X169692966Y-104442121D01*
X170873918Y-104213549D02*
X170492966Y-104213549D01*
X170454870Y-104594502D01*
X170492966Y-104556406D01*
X170569156Y-104518311D01*
X170759632Y-104518311D01*
X170835823Y-104556406D01*
X170873918Y-104594502D01*
X170912013Y-104670692D01*
X170912013Y-104861168D01*
X170873918Y-104937359D01*
X170835823Y-104975454D01*
X170759632Y-105013549D01*
X170569156Y-105013549D01*
X170492966Y-104975454D01*
X170454870Y-104937359D01*
X150947861Y-104812649D02*
X150947861Y-104012649D01*
X151138337Y-104012649D01*
X151252623Y-104050745D01*
X151328813Y-104126935D01*
X151366909Y-104203125D01*
X151405004Y-104355506D01*
X151405004Y-104469792D01*
X151366909Y-104622173D01*
X151328813Y-104698364D01*
X151252623Y-104774554D01*
X151138337Y-104812649D01*
X150947861Y-104812649D01*
X152166909Y-104812649D02*
X151709766Y-104812649D01*
X151938337Y-104812649D02*
X151938337Y-104012649D01*
X151862147Y-104126935D01*
X151785956Y-104203125D01*
X151709766Y-104241221D01*
X152852623Y-104279316D02*
X152852623Y-104812649D01*
X152662147Y-103974554D02*
X152471670Y-104545983D01*
X152966909Y-104545983D01*
X182130751Y-127218908D02*
X181264726Y-126718908D01*
X181455202Y-126388994D01*
X181544060Y-126330325D01*
X181609109Y-126312895D01*
X181715397Y-126319275D01*
X181839115Y-126390703D01*
X181897784Y-126479562D01*
X181915214Y-126544610D01*
X181908834Y-126650898D01*
X181718358Y-126980813D01*
X181717107Y-125935361D02*
X182702180Y-126229165D01*
X182178828Y-125707065D01*
X182892656Y-125899250D01*
X182145678Y-125193054D01*
X183487894Y-124868268D02*
X182908834Y-124918848D01*
X183202180Y-125363139D02*
X182336154Y-124863139D01*
X182526630Y-124533225D01*
X182615489Y-124474556D01*
X182680538Y-124457126D01*
X182786826Y-124463506D01*
X182910544Y-124534934D01*
X182969213Y-124623793D01*
X182986643Y-124688842D01*
X182980263Y-124795130D01*
X182789787Y-125125044D01*
X183665611Y-124750930D02*
X184046563Y-124091101D01*
X184018083Y-123854715D02*
X184130751Y-123754807D01*
X184249799Y-123548610D01*
X184256178Y-123442322D01*
X184238749Y-123377273D01*
X184180080Y-123288415D01*
X184097601Y-123240796D01*
X183991313Y-123234416D01*
X183926264Y-123251846D01*
X183837406Y-123310515D01*
X183700928Y-123451662D01*
X183612070Y-123510332D01*
X183547021Y-123527761D01*
X183440733Y-123521382D01*
X183358254Y-123473763D01*
X183299585Y-123384904D01*
X183282155Y-123319855D01*
X183288535Y-123213567D01*
X183407583Y-123007371D01*
X183520251Y-122907462D01*
X183645678Y-122594978D02*
X184630751Y-122888781D01*
X184107400Y-122366681D01*
X184821227Y-122558867D01*
X184074249Y-121852670D01*
X185094182Y-122276571D02*
X185475134Y-121616742D01*
X185773608Y-120909294D02*
X185487894Y-121404166D01*
X185630751Y-121156730D02*
X184764726Y-120656730D01*
X184840825Y-120810638D01*
X184875684Y-120940735D01*
X184869304Y-121047023D01*
X115159213Y-70116949D02*
X115159213Y-69316949D01*
X115349690Y-69316949D01*
X115463975Y-69355045D01*
X115540166Y-69431235D01*
X115578261Y-69507425D01*
X115616356Y-69659806D01*
X115616356Y-69774092D01*
X115578261Y-69926473D01*
X115540166Y-70002664D01*
X115463975Y-70078854D01*
X115349690Y-70116949D01*
X115159213Y-70116949D01*
X115921118Y-69393140D02*
X115959213Y-69355045D01*
X116035404Y-69316949D01*
X116225880Y-69316949D01*
X116302070Y-69355045D01*
X116340166Y-69393140D01*
X116378261Y-69469330D01*
X116378261Y-69545521D01*
X116340166Y-69659806D01*
X115883023Y-70116949D01*
X116378261Y-70116949D01*
X133244013Y-85538249D02*
X133244013Y-84738249D01*
X133434490Y-84738249D01*
X133548775Y-84776345D01*
X133624966Y-84852535D01*
X133663061Y-84928725D01*
X133701156Y-85081106D01*
X133701156Y-85195392D01*
X133663061Y-85347773D01*
X133624966Y-85423964D01*
X133548775Y-85500154D01*
X133434490Y-85538249D01*
X133244013Y-85538249D01*
X134158299Y-85081106D02*
X134082109Y-85043011D01*
X134044013Y-85004916D01*
X134005918Y-84928725D01*
X134005918Y-84890630D01*
X134044013Y-84814440D01*
X134082109Y-84776345D01*
X134158299Y-84738249D01*
X134310680Y-84738249D01*
X134386870Y-84776345D01*
X134424966Y-84814440D01*
X134463061Y-84890630D01*
X134463061Y-84928725D01*
X134424966Y-85004916D01*
X134386870Y-85043011D01*
X134310680Y-85081106D01*
X134158299Y-85081106D01*
X134082109Y-85119202D01*
X134044013Y-85157297D01*
X134005918Y-85233487D01*
X134005918Y-85385868D01*
X134044013Y-85462059D01*
X134082109Y-85500154D01*
X134158299Y-85538249D01*
X134310680Y-85538249D01*
X134386870Y-85500154D01*
X134424966Y-85462059D01*
X134463061Y-85385868D01*
X134463061Y-85233487D01*
X134424966Y-85157297D01*
X134386870Y-85119202D01*
X134310680Y-85081106D01*
X151328813Y-87746849D02*
X151328813Y-86946849D01*
X151519290Y-86946849D01*
X151633575Y-86984945D01*
X151709766Y-87061135D01*
X151747861Y-87137325D01*
X151785956Y-87289706D01*
X151785956Y-87403992D01*
X151747861Y-87556373D01*
X151709766Y-87632564D01*
X151633575Y-87708754D01*
X151519290Y-87746849D01*
X151328813Y-87746849D01*
X152166909Y-87746849D02*
X152319290Y-87746849D01*
X152395480Y-87708754D01*
X152433575Y-87670659D01*
X152509766Y-87556373D01*
X152547861Y-87403992D01*
X152547861Y-87099230D01*
X152509766Y-87023040D01*
X152471670Y-86984945D01*
X152395480Y-86946849D01*
X152243099Y-86946849D01*
X152166909Y-86984945D01*
X152128813Y-87023040D01*
X152090718Y-87099230D01*
X152090718Y-87289706D01*
X152128813Y-87365897D01*
X152166909Y-87403992D01*
X152243099Y-87442087D01*
X152395480Y-87442087D01*
X152471670Y-87403992D01*
X152509766Y-87365897D01*
X152547861Y-87289706D01*
X132863061Y-102604049D02*
X132863061Y-101804049D01*
X133053537Y-101804049D01*
X133167823Y-101842145D01*
X133244013Y-101918335D01*
X133282109Y-101994525D01*
X133320204Y-102146906D01*
X133320204Y-102261192D01*
X133282109Y-102413573D01*
X133244013Y-102489764D01*
X133167823Y-102565954D01*
X133053537Y-102604049D01*
X132863061Y-102604049D01*
X134082109Y-102604049D02*
X133624966Y-102604049D01*
X133853537Y-102604049D02*
X133853537Y-101804049D01*
X133777347Y-101918335D01*
X133701156Y-101994525D01*
X133624966Y-102032621D01*
X134348775Y-101804049D02*
X134844013Y-101804049D01*
X134577347Y-102108811D01*
X134691632Y-102108811D01*
X134767823Y-102146906D01*
X134805918Y-102185002D01*
X134844013Y-102261192D01*
X134844013Y-102451668D01*
X134805918Y-102527859D01*
X134767823Y-102565954D01*
X134691632Y-102604049D01*
X134463061Y-102604049D01*
X134386870Y-102565954D01*
X134348775Y-102527859D01*
X114778261Y-104214650D02*
X114778261Y-103414650D01*
X114968737Y-103414650D01*
X115083023Y-103452746D01*
X115159213Y-103528936D01*
X115197309Y-103605126D01*
X115235404Y-103757507D01*
X115235404Y-103871793D01*
X115197309Y-104024174D01*
X115159213Y-104100365D01*
X115083023Y-104176555D01*
X114968737Y-104214650D01*
X114778261Y-104214650D01*
X115997309Y-104214650D02*
X115540166Y-104214650D01*
X115768737Y-104214650D02*
X115768737Y-103414650D01*
X115692547Y-103528936D01*
X115616356Y-103605126D01*
X115540166Y-103643222D01*
X116302070Y-103490841D02*
X116340166Y-103452746D01*
X116416356Y-103414650D01*
X116606832Y-103414650D01*
X116683023Y-103452746D01*
X116721118Y-103490841D01*
X116759213Y-103567031D01*
X116759213Y-103643222D01*
X116721118Y-103757507D01*
X116263975Y-104214650D01*
X116759213Y-104214650D01*
D11*
X168820490Y-80812715D02*
X171220490Y-80812715D01*
X171220490Y-80812715D02*
X171220490Y-86812715D01*
X171220490Y-86812715D02*
X168820490Y-86812715D01*
X168820490Y-86812715D02*
X168820490Y-80812715D01*
G36*
X171220490Y-86812715D02*
G01*
X168820490Y-86812715D01*
X168820490Y-86254315D01*
X171220490Y-86254315D01*
X171220490Y-86812715D01*
G37*
X171220490Y-86812715D02*
X168820490Y-86812715D01*
X168820490Y-86254315D01*
X171220490Y-86254315D01*
X171220490Y-86812715D01*
D10*
X160270490Y-74112715D02*
X159770490Y-74612715D01*
X163770490Y-74612715D02*
X163270490Y-74112715D01*
X168770490Y-88312715D02*
X168770490Y-89312715D01*
X167770490Y-75312715D02*
X168770490Y-75312715D01*
X159270490Y-80112715D02*
X159270490Y-80812715D01*
X163270490Y-78612715D02*
X160770490Y-78612715D01*
X154770490Y-89312715D02*
X154770490Y-88312715D01*
X154770490Y-80812715D02*
X154770490Y-80312715D01*
X168770490Y-75312715D02*
X168770490Y-76312715D01*
X154770490Y-75312715D02*
X155770490Y-75312715D01*
X168770490Y-89312715D02*
X167770490Y-89312715D01*
X154770490Y-76312715D02*
X154770490Y-75312715D01*
X159770490Y-75612715D02*
X159770490Y-74612715D01*
X163770490Y-78112715D02*
X163270490Y-78612715D01*
X155770490Y-89312715D02*
X154770490Y-89312715D01*
X154770490Y-76712715D02*
X154770490Y-76112715D01*
X154770490Y-76112715D02*
X159270490Y-76112715D01*
X159270490Y-80812715D02*
X154770490Y-80812715D01*
X163270490Y-74112715D02*
X160270490Y-74112715D01*
X159270490Y-76112715D02*
G75*
G03*
X159770490Y-75612715I0J500000D01*
G01*
X160770490Y-78612715D02*
G75*
G03*
X159270490Y-80112715I0J-1500000D01*
G01*
X148807776Y-113420412D02*
X149773701Y-113679231D01*
X158966090Y-129600914D02*
X158707270Y-130566840D01*
X153559759Y-115004285D02*
X153818578Y-114038359D01*
X148548956Y-114386338D02*
X148807776Y-113420412D01*
X146150235Y-127202193D02*
X145184309Y-126943373D01*
X161364811Y-116785059D02*
X162330737Y-117043879D01*
X147384271Y-118733004D02*
X147513680Y-118250041D01*
X148600720Y-114193153D02*
X152947387Y-115357838D01*
X157682281Y-115073635D02*
X157328728Y-114461263D01*
X151730937Y-119897690D02*
X147384271Y-118733004D01*
X162330737Y-117043879D02*
X162071918Y-118009804D01*
X148445429Y-114772708D02*
X148600720Y-114193153D01*
X158707270Y-130566840D02*
X157741345Y-130308021D01*
X157328728Y-114461263D02*
X154430950Y-113684806D01*
X156776415Y-118454376D02*
X156164042Y-118807929D01*
X156164042Y-118807929D02*
X153749228Y-118160881D01*
X151912110Y-119221542D02*
X151730937Y-119897690D01*
X145184309Y-126943373D02*
X145443128Y-125977448D01*
X154430950Y-113684806D02*
X153818578Y-114038359D01*
X152947387Y-115357838D02*
G75*
G03*
X153559759Y-115004285I129409J482963D01*
G01*
X153749228Y-118160881D02*
G75*
G03*
X151912110Y-119221542I-388229J-1448889D01*
G01*
D12*
X179909290Y-93310649D02*
X179909290Y-96730649D01*
X183869290Y-95370649D02*
X183869290Y-96220649D01*
X180219290Y-94570649D02*
X180219290Y-95370649D01*
X182144290Y-93820649D02*
X180419290Y-93820649D01*
X183869290Y-96220649D02*
X182144290Y-96220649D01*
X179909290Y-96730649D02*
X184379290Y-96730649D01*
X184379290Y-96730649D02*
X184379290Y-93310649D01*
X184069290Y-95370649D02*
X183869290Y-95370649D01*
X182144290Y-93820649D02*
X183869290Y-93820649D01*
X180219290Y-95370649D02*
X180419290Y-95370649D01*
X180419290Y-93820649D02*
X180419290Y-94570649D01*
X184379290Y-93310649D02*
X179909290Y-93310649D01*
X183869290Y-94570649D02*
X184069290Y-94570649D01*
X183869290Y-93820649D02*
X183869290Y-94570649D01*
X184669290Y-93020649D02*
X183669290Y-93020649D01*
X180419290Y-94570649D02*
X180219290Y-94570649D01*
X184069290Y-94570649D02*
X184069290Y-95370649D01*
X184669290Y-93020649D02*
X184669290Y-94020649D01*
X180419290Y-96220649D02*
X182144290Y-96220649D01*
X180419290Y-95370649D02*
X180419290Y-96220649D01*
D10*
X132600890Y-66361115D02*
X132600890Y-67361115D01*
X118600890Y-58861115D02*
X118600890Y-58361115D01*
X127600890Y-52661115D02*
X127100890Y-52161115D01*
X131600890Y-53361115D02*
X132600890Y-53361115D01*
X127600890Y-56161115D02*
X127100890Y-56661115D01*
X127100890Y-56661115D02*
X124600890Y-56661115D01*
X127100890Y-52161115D02*
X124100890Y-52161115D01*
X118600890Y-54361115D02*
X118600890Y-53361115D01*
X123100890Y-58161115D02*
X123100890Y-58861115D01*
X123100890Y-58861115D02*
X118600890Y-58861115D01*
X118600890Y-54761115D02*
X118600890Y-54161115D01*
X123600890Y-53661115D02*
X123600890Y-52661115D01*
X132600890Y-67361115D02*
X131600890Y-67361115D01*
X132600890Y-53361115D02*
X132600890Y-54361115D01*
X124100890Y-52161115D02*
X123600890Y-52661115D01*
X118600890Y-67361115D02*
X118600890Y-66361115D01*
X118600890Y-54161115D02*
X123100890Y-54161115D01*
X118600890Y-53361115D02*
X119600890Y-53361115D01*
X119600890Y-67361115D02*
X118600890Y-67361115D01*
X123100890Y-54161115D02*
G75*
G03*
X123600890Y-53661115I0J500000D01*
G01*
X124600890Y-56661115D02*
G75*
G03*
X123100890Y-58161115I0J-1500000D01*
G01*
D11*
X168820551Y-63794714D02*
X171220551Y-63794714D01*
X171220551Y-63794714D02*
X171220551Y-69794714D01*
X171220551Y-69794714D02*
X168820551Y-69794714D01*
X168820551Y-69794714D02*
X168820551Y-63794714D01*
G36*
X171220551Y-69794714D02*
G01*
X168820551Y-69794714D01*
X168820551Y-69236314D01*
X171220551Y-69236314D01*
X171220551Y-69794714D01*
G37*
X171220551Y-69794714D02*
X168820551Y-69794714D01*
X168820551Y-69236314D01*
X171220551Y-69236314D01*
X171220551Y-69794714D01*
X114566090Y-79949115D02*
X116966090Y-79949115D01*
X116966090Y-79949115D02*
X116966090Y-85949115D01*
X116966090Y-85949115D02*
X114566090Y-85949115D01*
X114566090Y-85949115D02*
X114566090Y-79949115D01*
G36*
X116966090Y-85949115D02*
G01*
X114566090Y-85949115D01*
X114566090Y-85390715D01*
X116966090Y-85390715D01*
X116966090Y-85949115D01*
G37*
X116966090Y-85949115D02*
X114566090Y-85949115D01*
X114566090Y-85390715D01*
X116966090Y-85390715D01*
X116966090Y-85949115D01*
D12*
X182444290Y-92647710D02*
X181844290Y-92647710D01*
X181844290Y-89847710D02*
X182444290Y-89847710D01*
X183144290Y-90547710D02*
X183144290Y-91947710D01*
X181144290Y-91947710D02*
X181144290Y-90547710D01*
X181144290Y-91947710D02*
G75*
G03*
X181844290Y-92647710I699999J-1D01*
G01*
X181844290Y-89847710D02*
G75*
G03*
X181144290Y-90547710I0J-700000D01*
G01*
X183144290Y-90547710D02*
G75*
G03*
X182444290Y-89847710I-700000J0D01*
G01*
X182444290Y-92647710D02*
G75*
G03*
X183144290Y-91947710I1J699999D01*
G01*
D11*
X96481290Y-100320115D02*
X98881290Y-100320115D01*
X98881290Y-100320115D02*
X98881290Y-106320115D01*
X98881290Y-106320115D02*
X96481290Y-106320115D01*
X96481290Y-106320115D02*
X96481290Y-100320115D01*
G36*
X98881290Y-106320115D02*
G01*
X96481290Y-106320115D01*
X96481290Y-105761715D01*
X98881290Y-105761715D01*
X98881290Y-106320115D01*
G37*
X98881290Y-106320115D02*
X96481290Y-106320115D01*
X96481290Y-105761715D01*
X98881290Y-105761715D01*
X98881290Y-106320115D01*
D10*
X100516090Y-92867115D02*
X100516090Y-92267115D01*
X106016090Y-90267115D02*
X105516090Y-90767115D01*
X109016090Y-94767115D02*
X106516090Y-94767115D01*
X114516090Y-104467115D02*
X114516090Y-105467115D01*
X109016090Y-90267115D02*
X106016090Y-90267115D01*
X101516090Y-105467115D02*
X100516090Y-105467115D01*
X114516090Y-105467115D02*
X113516090Y-105467115D01*
X100516090Y-92467115D02*
X100516090Y-91467115D01*
X109516090Y-90767115D02*
X109016090Y-90267115D01*
X105516090Y-91767115D02*
X105516090Y-90767115D01*
X105016090Y-96967115D02*
X100516090Y-96967115D01*
X114516090Y-91467115D02*
X114516090Y-92467115D01*
X100516090Y-96967115D02*
X100516090Y-96467115D01*
X105016090Y-96267115D02*
X105016090Y-96967115D01*
X100516090Y-91467115D02*
X101516090Y-91467115D01*
X109516090Y-94267115D02*
X109016090Y-94767115D01*
X100516090Y-92267115D02*
X105016090Y-92267115D01*
X113516090Y-91467115D02*
X114516090Y-91467115D01*
X100516090Y-105467115D02*
X100516090Y-104467115D01*
X105016090Y-92267115D02*
G75*
G03*
X105516090Y-91767115I0J500000D01*
G01*
X106516090Y-94767115D02*
G75*
G03*
X105016090Y-96267115I0J-1500000D01*
G01*
D11*
X96481290Y-83352915D02*
X98881290Y-83352915D01*
X98881290Y-83352915D02*
X98881290Y-89352915D01*
X98881290Y-89352915D02*
X96481290Y-89352915D01*
X96481290Y-89352915D02*
X96481290Y-83352915D01*
G36*
X98881290Y-89352915D02*
G01*
X96481290Y-89352915D01*
X96481290Y-88794515D01*
X98881290Y-88794515D01*
X98881290Y-89352915D01*
G37*
X98881290Y-89352915D02*
X96481290Y-89352915D01*
X96481290Y-88794515D01*
X98881290Y-88794515D01*
X98881290Y-89352915D01*
D10*
X163270490Y-95630715D02*
X160770490Y-95630715D01*
X168770490Y-105330715D02*
X168770490Y-106330715D01*
X154770490Y-106330715D02*
X154770490Y-105330715D01*
X160270490Y-91130715D02*
X159770490Y-91630715D01*
X155770490Y-106330715D02*
X154770490Y-106330715D01*
X159770490Y-92630715D02*
X159770490Y-91630715D01*
X163770490Y-91630715D02*
X163270490Y-91130715D01*
X154770490Y-97830715D02*
X154770490Y-97330715D01*
X168770490Y-106330715D02*
X167770490Y-106330715D01*
X163770490Y-95130715D02*
X163270490Y-95630715D01*
X159270490Y-97130715D02*
X159270490Y-97830715D01*
X167770490Y-92330715D02*
X168770490Y-92330715D01*
X168770490Y-92330715D02*
X168770490Y-93330715D01*
X154770490Y-92330715D02*
X155770490Y-92330715D01*
X163270490Y-91130715D02*
X160270490Y-91130715D01*
X159270490Y-97830715D02*
X154770490Y-97830715D01*
X154770490Y-93130715D02*
X159270490Y-93130715D01*
X154770490Y-93330715D02*
X154770490Y-92330715D01*
X154770490Y-93730715D02*
X154770490Y-93130715D01*
X159270490Y-93130715D02*
G75*
G03*
X159770490Y-92630715I0J500000D01*
G01*
X160770490Y-95630715D02*
G75*
G03*
X159270490Y-97130715I0J-1500000D01*
G01*
D11*
X158161900Y-113980483D02*
X164161900Y-113980483D01*
X164161900Y-113980483D02*
X164161900Y-111580483D01*
X164161900Y-111580483D02*
X158161900Y-111580483D01*
X158161900Y-111580483D02*
X158161900Y-113980483D01*
G36*
X164161900Y-113980483D02*
G01*
X163603500Y-113980483D01*
X163603500Y-111580483D01*
X164161900Y-111580483D01*
X164161900Y-113980483D01*
G37*
X164161900Y-113980483D02*
X163603500Y-113980483D01*
X163603500Y-111580483D01*
X164161900Y-111580483D01*
X164161900Y-113980483D01*
D12*
X183735890Y-120643314D02*
X184365890Y-120643314D01*
X184365890Y-99083314D02*
X188315890Y-100523314D01*
X173195890Y-101163314D02*
X175275890Y-99083314D01*
X173195890Y-101163314D02*
X173195890Y-104663314D01*
X175275890Y-120643314D02*
X177735890Y-120643314D01*
X175275890Y-99083314D02*
X177735890Y-99083314D01*
X173195890Y-115063314D02*
X173195890Y-118563314D01*
X184365890Y-120643314D02*
X188315890Y-119203314D01*
X173195890Y-118563314D02*
X175275890Y-120643314D01*
X183735890Y-99083314D02*
X184365890Y-99083314D01*
X188315890Y-119203314D02*
G75*
G03*
X189302420Y-115866668I-730001J2030000D01*
G01*
X189285889Y-103863314D02*
G75*
G03*
X188324059Y-100538071I-1699999J1310000D01*
G01*
D11*
X158161900Y-111288083D02*
X164161900Y-111288083D01*
X164161900Y-111288083D02*
X164161900Y-108888083D01*
X164161900Y-108888083D02*
X158161900Y-108888083D01*
X158161900Y-108888083D02*
X158161900Y-111288083D01*
G36*
X164161900Y-111288083D02*
G01*
X163603500Y-111288083D01*
X163603500Y-108888083D01*
X164161900Y-108888083D01*
X164161900Y-111288083D01*
G37*
X164161900Y-111288083D02*
X163603500Y-111288083D01*
X163603500Y-108888083D01*
X164161900Y-108888083D01*
X164161900Y-111288083D01*
D10*
X90931290Y-76652915D02*
X87931290Y-76652915D01*
X82431290Y-79252915D02*
X82431290Y-78652915D01*
X82431290Y-91852915D02*
X82431290Y-90852915D01*
X86931290Y-82652915D02*
X86931290Y-83352915D01*
X82431290Y-78652915D02*
X86931290Y-78652915D01*
X91431290Y-77152915D02*
X90931290Y-76652915D01*
X82431290Y-77852915D02*
X83431290Y-77852915D01*
X91431290Y-80652915D02*
X90931290Y-81152915D01*
X87931290Y-76652915D02*
X87431290Y-77152915D01*
X96431290Y-91852915D02*
X95431290Y-91852915D01*
X86931290Y-83352915D02*
X82431290Y-83352915D01*
X96431290Y-90852915D02*
X96431290Y-91852915D01*
X90931290Y-81152915D02*
X88431290Y-81152915D01*
X83431290Y-91852915D02*
X82431290Y-91852915D01*
X82431290Y-78852915D02*
X82431290Y-77852915D01*
X95431290Y-77852915D02*
X96431290Y-77852915D01*
X82431290Y-83352915D02*
X82431290Y-82852915D01*
X96431290Y-77852915D02*
X96431290Y-78852915D01*
X87431290Y-78152915D02*
X87431290Y-77152915D01*
X86931290Y-78652915D02*
G75*
G03*
X87431290Y-78152915I0J500000D01*
G01*
X88431290Y-81152915D02*
G75*
G03*
X86931290Y-82652915I0J-1500000D01*
G01*
X159270490Y-59094715D02*
G75*
G03*
X159770490Y-58594715I0J500000D01*
G01*
X160770490Y-61594715D02*
G75*
G03*
X159270490Y-63094715I0J-1500000D01*
G01*
X159770490Y-58594715D02*
X159770490Y-57594715D01*
X154770490Y-72294715D02*
X154770490Y-71294715D01*
X163770490Y-61094715D02*
X163270490Y-61594715D01*
X154770490Y-59094715D02*
X159270490Y-59094715D01*
X159270490Y-63794715D02*
X154770490Y-63794715D01*
X168770490Y-72294715D02*
X167770490Y-72294715D01*
X160270490Y-57094715D02*
X159770490Y-57594715D01*
X155770490Y-72294715D02*
X154770490Y-72294715D01*
X154770490Y-58294715D02*
X155770490Y-58294715D01*
X154770490Y-59694715D02*
X154770490Y-59094715D01*
X167770490Y-58294715D02*
X168770490Y-58294715D01*
X159270490Y-63094715D02*
X159270490Y-63794715D01*
X163270490Y-57094715D02*
X160270490Y-57094715D01*
X154770490Y-63794715D02*
X154770490Y-63294715D01*
X168770490Y-58294715D02*
X168770490Y-59294715D01*
X163270490Y-61594715D02*
X160770490Y-61594715D01*
X163770490Y-57594715D02*
X163270490Y-57094715D01*
X154770490Y-59294715D02*
X154770490Y-58294715D01*
X168770490Y-71294715D02*
X168770490Y-72294715D01*
X176131701Y-139683804D02*
X175265675Y-139183804D01*
X179151574Y-124453230D02*
X178968561Y-123770218D01*
X176631701Y-138817778D02*
X176131701Y-139683804D01*
X176718561Y-127667332D02*
X174553498Y-126417332D01*
X172504459Y-126966370D02*
X172154459Y-127572588D01*
X171007345Y-120559448D02*
X171873371Y-121059448D01*
X183131701Y-127559448D02*
X182631701Y-128425474D01*
X177401574Y-127484319D02*
X176718561Y-127667332D01*
X170507345Y-121425474D02*
X171007345Y-120559448D01*
X175187472Y-123319256D02*
X175687472Y-122453230D01*
X164007345Y-132683804D02*
X164507345Y-131817778D01*
X170607345Y-121252268D02*
X174504459Y-123502268D01*
X164873371Y-133183804D02*
X164007345Y-132683804D01*
X182265675Y-127059448D02*
X183131701Y-127559448D01*
X172154459Y-127572588D02*
X168257345Y-125322588D01*
X168257345Y-125322588D02*
X168507345Y-124889575D01*
X178968561Y-123770218D02*
X176370485Y-122270218D01*
X170307345Y-121771884D02*
X170607345Y-121252268D01*
X176370485Y-122270218D02*
X175687472Y-122453230D01*
X174553499Y-126417331D02*
G75*
G03*
X172504459Y-126966370I-750001J-1299039D01*
G01*
X174504459Y-123502269D02*
G75*
G03*
X175187472Y-123319256I250000J433013D01*
G01*
X82431290Y-100320115D02*
X82431290Y-99820115D01*
X87431290Y-95120115D02*
X87431290Y-94120115D01*
X82431290Y-96220115D02*
X82431290Y-95620115D01*
X96431290Y-107820115D02*
X96431290Y-108820115D01*
X86931290Y-100320115D02*
X82431290Y-100320115D01*
X91431290Y-97620115D02*
X90931290Y-98120115D01*
X82431290Y-95820115D02*
X82431290Y-94820115D01*
X96431290Y-108820115D02*
X95431290Y-108820115D01*
X95431290Y-94820115D02*
X96431290Y-94820115D01*
X96431290Y-94820115D02*
X96431290Y-95820115D01*
X82431290Y-95620115D02*
X86931290Y-95620115D01*
X90931290Y-93620115D02*
X87931290Y-93620115D01*
X82431290Y-94820115D02*
X83431290Y-94820115D01*
X82431290Y-108820115D02*
X82431290Y-107820115D01*
X90931290Y-98120115D02*
X88431290Y-98120115D01*
X87931290Y-93620115D02*
X87431290Y-94120115D01*
X83431290Y-108820115D02*
X82431290Y-108820115D01*
X91431290Y-94120115D02*
X90931290Y-93620115D01*
X86931290Y-99620115D02*
X86931290Y-100320115D01*
X88431290Y-98120115D02*
G75*
G03*
X86931290Y-99620115I0J-1500000D01*
G01*
X86931290Y-95620115D02*
G75*
G03*
X87431290Y-95120115I0J500000D01*
G01*
X100516090Y-88449115D02*
X100516090Y-87449115D01*
X109016090Y-77749115D02*
X106516090Y-77749115D01*
X105516090Y-74749115D02*
X105516090Y-73749115D01*
X114516090Y-74449115D02*
X114516090Y-75449115D01*
X114516090Y-88449115D02*
X113516090Y-88449115D01*
X100516090Y-75449115D02*
X100516090Y-74449115D01*
X105016090Y-79949115D02*
X100516090Y-79949115D01*
X114516090Y-87449115D02*
X114516090Y-88449115D01*
X100516090Y-75849115D02*
X100516090Y-75249115D01*
X113516090Y-74449115D02*
X114516090Y-74449115D01*
X101516090Y-88449115D02*
X100516090Y-88449115D01*
X100516090Y-79949115D02*
X100516090Y-79449115D01*
X109016090Y-73249115D02*
X106016090Y-73249115D01*
X106016090Y-73249115D02*
X105516090Y-73749115D01*
X100516090Y-75249115D02*
X105016090Y-75249115D01*
X100516090Y-74449115D02*
X101516090Y-74449115D01*
X109516090Y-77249115D02*
X109016090Y-77749115D01*
X105016090Y-79249115D02*
X105016090Y-79949115D01*
X109516090Y-73749115D02*
X109016090Y-73249115D01*
X106516090Y-77749115D02*
G75*
G03*
X105016090Y-79249115I0J-1500000D01*
G01*
X105016090Y-75249115D02*
G75*
G03*
X105516090Y-74749115I0J500000D01*
G01*
D11*
X132650890Y-61320514D02*
X135050890Y-61320514D01*
X135050890Y-61320514D02*
X135050890Y-67320514D01*
X135050890Y-67320514D02*
X132650890Y-67320514D01*
X132650890Y-67320514D02*
X132650890Y-61320514D01*
G36*
X135050890Y-67320514D02*
G01*
X132650890Y-67320514D01*
X132650890Y-66762114D01*
X135050890Y-66762114D01*
X135050890Y-67320514D01*
G37*
X135050890Y-67320514D02*
X132650890Y-67320514D01*
X132650890Y-66762114D01*
X135050890Y-66762114D01*
X135050890Y-67320514D01*
D10*
X141685690Y-90497115D02*
X141685690Y-89497115D01*
X150685690Y-103197115D02*
X150685690Y-104197115D01*
X142185690Y-88997115D02*
X141685690Y-89497115D01*
X141185690Y-95697115D02*
X136685690Y-95697115D01*
X136685690Y-91597115D02*
X136685690Y-90997115D01*
X136685690Y-91197115D02*
X136685690Y-90197115D01*
X136685690Y-90997115D02*
X141185690Y-90997115D01*
X136685690Y-104197115D02*
X136685690Y-103197115D01*
X145185690Y-88997115D02*
X142185690Y-88997115D01*
X136685690Y-90197115D02*
X137685690Y-90197115D01*
X150685690Y-90197115D02*
X150685690Y-91197115D01*
X150685690Y-104197115D02*
X149685690Y-104197115D01*
X136685690Y-95697115D02*
X136685690Y-95197115D01*
X145685690Y-92997115D02*
X145185690Y-93497115D01*
X141185690Y-94997115D02*
X141185690Y-95697115D01*
X145185690Y-93497115D02*
X142685690Y-93497115D01*
X149685690Y-90197115D02*
X150685690Y-90197115D01*
X145685690Y-89497115D02*
X145185690Y-88997115D01*
X137685690Y-104197115D02*
X136685690Y-104197115D01*
X141185690Y-90997115D02*
G75*
G03*
X141685690Y-90497115I0J500000D01*
G01*
X142685690Y-93497115D02*
G75*
G03*
X141185690Y-94997115I0J-1500000D01*
G01*
X132600890Y-83379115D02*
X132600890Y-84379115D01*
X118600890Y-70379115D02*
X119600890Y-70379115D01*
X118600890Y-75879115D02*
X118600890Y-75379115D01*
X124100890Y-69179115D02*
X123600890Y-69679115D01*
X118600890Y-71179115D02*
X123100890Y-71179115D01*
X123100890Y-75179115D02*
X123100890Y-75879115D01*
X131600890Y-70379115D02*
X132600890Y-70379115D01*
X127600890Y-69679115D02*
X127100890Y-69179115D01*
X132600890Y-84379115D02*
X131600890Y-84379115D01*
X118600890Y-71379115D02*
X118600890Y-70379115D01*
X123100890Y-75879115D02*
X118600890Y-75879115D01*
X127100890Y-69179115D02*
X124100890Y-69179115D01*
X119600890Y-84379115D02*
X118600890Y-84379115D01*
X127100890Y-73679115D02*
X124600890Y-73679115D01*
X118600890Y-71779115D02*
X118600890Y-71179115D01*
X123600890Y-70679115D02*
X123600890Y-69679115D01*
X127600890Y-73179115D02*
X127100890Y-73679115D01*
X118600890Y-84379115D02*
X118600890Y-83379115D01*
X132600890Y-70379115D02*
X132600890Y-71379115D01*
X123100890Y-71179115D02*
G75*
G03*
X123600890Y-70679115I0J500000D01*
G01*
X124600890Y-73679115D02*
G75*
G03*
X123100890Y-75179115I0J-1500000D01*
G01*
D12*
X169594316Y-113041346D02*
X170260342Y-112194936D01*
X170000330Y-118984582D02*
X167835266Y-120234582D01*
X171009316Y-115492198D02*
X169594316Y-113041346D01*
X167835266Y-120234582D02*
X166510266Y-117939615D01*
X166510266Y-117939615D02*
X165306491Y-118634615D01*
X163900266Y-113418962D02*
X165225266Y-115713929D01*
X166065330Y-112168962D02*
X163900266Y-113418962D01*
X172450342Y-115988127D02*
X172075342Y-115338608D01*
X170260342Y-112194936D02*
X169885342Y-111545417D01*
X172075342Y-115338608D02*
X171009316Y-115492198D01*
D11*
X150735690Y-63528914D02*
X153135690Y-63528914D01*
X153135690Y-63528914D02*
X153135690Y-69528914D01*
X153135690Y-69528914D02*
X150735690Y-69528914D01*
X150735690Y-69528914D02*
X150735690Y-63528914D01*
G36*
X153135690Y-69528914D02*
G01*
X150735690Y-69528914D01*
X150735690Y-68970514D01*
X153135690Y-68970514D01*
X153135690Y-69528914D01*
G37*
X153135690Y-69528914D02*
X150735690Y-69528914D01*
X150735690Y-68970514D01*
X153135690Y-68970514D01*
X153135690Y-69528914D01*
X96481290Y-66284115D02*
X98881290Y-66284115D01*
X98881290Y-66284115D02*
X98881290Y-72284115D01*
X98881290Y-72284115D02*
X96481290Y-72284115D01*
X96481290Y-72284115D02*
X96481290Y-66284115D01*
G36*
X98881290Y-72284115D02*
G01*
X96481290Y-72284115D01*
X96481290Y-71725715D01*
X98881290Y-71725715D01*
X98881290Y-72284115D01*
G37*
X98881290Y-72284115D02*
X96481290Y-72284115D01*
X96481290Y-71725715D01*
X98881290Y-71725715D01*
X98881290Y-72284115D01*
D10*
X136685690Y-74579115D02*
X136685690Y-73979115D01*
X136685690Y-73979115D02*
X141185690Y-73979115D01*
X136685690Y-74179115D02*
X136685690Y-73179115D01*
X142185690Y-71979115D02*
X141685690Y-72479115D01*
X141685690Y-73479115D02*
X141685690Y-72479115D01*
X137685690Y-87179115D02*
X136685690Y-87179115D01*
X145685690Y-72479115D02*
X145185690Y-71979115D01*
X136685690Y-73179115D02*
X137685690Y-73179115D01*
X150685690Y-86179115D02*
X150685690Y-87179115D01*
X145685690Y-75979115D02*
X145185690Y-76479115D01*
X141185690Y-78679115D02*
X136685690Y-78679115D01*
X141185690Y-77979115D02*
X141185690Y-78679115D01*
X150685690Y-73179115D02*
X150685690Y-74179115D01*
X150685690Y-87179115D02*
X149685690Y-87179115D01*
X136685690Y-87179115D02*
X136685690Y-86179115D01*
X136685690Y-78679115D02*
X136685690Y-78179115D01*
X149685690Y-73179115D02*
X150685690Y-73179115D01*
X145185690Y-76479115D02*
X142685690Y-76479115D01*
X145185690Y-71979115D02*
X142185690Y-71979115D01*
X141185690Y-73979115D02*
G75*
G03*
X141685690Y-73479115I0J500000D01*
G01*
X142685690Y-76479115D02*
G75*
G03*
X141185690Y-77979115I0J-1500000D01*
G01*
X191044290Y-92337115D02*
X190034290Y-92337115D01*
X173244290Y-92337115D02*
X174244290Y-92337115D01*
X191044290Y-71448915D02*
X191044290Y-72448915D01*
X173244290Y-71448915D02*
X174244290Y-71448915D01*
X191044290Y-91337115D02*
X191044290Y-92337115D01*
X191044290Y-71448915D02*
X190094290Y-71448915D01*
X173244290Y-71448915D02*
X173244290Y-72448915D01*
X173244290Y-91287115D02*
X173244290Y-92337115D01*
X83431290Y-74784115D02*
X82431290Y-74784115D01*
X87931290Y-59584115D02*
X87431290Y-60084115D01*
X82431290Y-66284115D02*
X82431290Y-65784115D01*
X82431290Y-60784115D02*
X83431290Y-60784115D01*
X95431290Y-60784115D02*
X96431290Y-60784115D01*
X87431290Y-61084115D02*
X87431290Y-60084115D01*
X86931290Y-65584115D02*
X86931290Y-66284115D01*
X82431290Y-61584115D02*
X86931290Y-61584115D01*
X96431290Y-60784115D02*
X96431290Y-61784115D01*
X82431290Y-62184115D02*
X82431290Y-61584115D01*
X96431290Y-73784115D02*
X96431290Y-74784115D01*
X90931290Y-59584115D02*
X87931290Y-59584115D01*
X82431290Y-74784115D02*
X82431290Y-73784115D01*
X90931290Y-64084115D02*
X88431290Y-64084115D01*
X82431290Y-61784115D02*
X82431290Y-60784115D01*
X91431290Y-60084115D02*
X90931290Y-59584115D01*
X91431290Y-63584115D02*
X90931290Y-64084115D01*
X96431290Y-74784115D02*
X95431290Y-74784115D01*
X86931290Y-66284115D02*
X82431290Y-66284115D01*
X86931290Y-61584115D02*
G75*
G03*
X87431290Y-61084115I0J500000D01*
G01*
X88431290Y-64084115D02*
G75*
G03*
X86931290Y-65584115I0J-1500000D01*
G01*
D11*
X168820490Y-97830715D02*
X171220490Y-97830715D01*
X171220490Y-97830715D02*
X171220490Y-103830715D01*
X171220490Y-103830715D02*
X168820490Y-103830715D01*
X168820490Y-103830715D02*
X168820490Y-97830715D01*
G36*
X171220490Y-103830715D02*
G01*
X168820490Y-103830715D01*
X168820490Y-103272315D01*
X171220490Y-103272315D01*
X171220490Y-103830715D01*
G37*
X171220490Y-103830715D02*
X168820490Y-103830715D01*
X168820490Y-103272315D01*
X171220490Y-103272315D01*
X171220490Y-103830715D01*
D12*
X179524290Y-94050453D02*
X179524290Y-96710453D01*
X182124290Y-94050453D02*
X182124290Y-96710453D01*
X182124290Y-94050453D02*
X179524290Y-94050453D01*
X184724290Y-95380453D02*
X184724290Y-96710453D01*
X184724290Y-96710453D02*
X183394290Y-96710453D01*
X182124290Y-96710453D02*
X179524290Y-96710453D01*
D11*
X150735690Y-97565114D02*
X153135690Y-97565114D01*
X153135690Y-97565114D02*
X153135690Y-103565114D01*
X153135690Y-103565114D02*
X150735690Y-103565114D01*
X150735690Y-103565114D02*
X150735690Y-97565114D01*
G36*
X153135690Y-103565114D02*
G01*
X150735690Y-103565114D01*
X150735690Y-103006714D01*
X153135690Y-103006714D01*
X153135690Y-103565114D01*
G37*
X153135690Y-103565114D02*
X150735690Y-103565114D01*
X150735690Y-103006714D01*
X153135690Y-103006714D01*
X153135690Y-103565114D01*
D12*
X187118007Y-127535967D02*
X188235180Y-128180967D01*
X188885180Y-127055134D02*
X187768007Y-126410134D01*
X186049835Y-123686095D02*
X186149835Y-123512890D01*
X188885180Y-127055134D02*
X188967045Y-127333339D01*
X188235180Y-128180967D02*
X188517045Y-128112761D01*
X186393007Y-128791703D02*
X189243007Y-123855359D01*
X188668321Y-122830743D02*
X187984161Y-122435743D01*
X184534161Y-128411319D02*
X185218321Y-128806319D01*
X184549835Y-126284172D02*
X185399835Y-124811928D01*
X188517045Y-128112761D02*
X188967045Y-127333339D01*
D10*
X132600890Y-100397115D02*
X132600890Y-101397115D01*
X123100890Y-92897115D02*
X118600890Y-92897115D01*
X118600890Y-101397115D02*
X118600890Y-100397115D01*
X118600890Y-88397115D02*
X118600890Y-87397115D01*
X127600890Y-90197115D02*
X127100890Y-90697115D01*
X131600890Y-87397115D02*
X132600890Y-87397115D01*
X132600890Y-87397115D02*
X132600890Y-88397115D01*
X127600890Y-86697115D02*
X127100890Y-86197115D01*
X127100890Y-90697115D02*
X124600890Y-90697115D01*
X123100890Y-92197115D02*
X123100890Y-92897115D01*
X123600890Y-87697115D02*
X123600890Y-86697115D01*
X118600890Y-92897115D02*
X118600890Y-92397115D01*
X118600890Y-88797115D02*
X118600890Y-88197115D01*
X119600890Y-101397115D02*
X118600890Y-101397115D01*
X124100890Y-86197115D02*
X123600890Y-86697115D01*
X118600890Y-87397115D02*
X119600890Y-87397115D01*
X127100890Y-86197115D02*
X124100890Y-86197115D01*
X132600890Y-101397115D02*
X131600890Y-101397115D01*
X118600890Y-88197115D02*
X123100890Y-88197115D01*
X124600890Y-90697115D02*
G75*
G03*
X123100890Y-92197115I0J-1500000D01*
G01*
X123100890Y-88197115D02*
G75*
G03*
X123600890Y-87697115I0J500000D01*
G01*
D11*
X114566090Y-62931115D02*
X116966090Y-62931115D01*
X116966090Y-62931115D02*
X116966090Y-68931115D01*
X116966090Y-68931115D02*
X114566090Y-68931115D01*
X114566090Y-68931115D02*
X114566090Y-62931115D01*
G36*
X116966090Y-68931115D02*
G01*
X114566090Y-68931115D01*
X114566090Y-68372715D01*
X116966090Y-68372715D01*
X116966090Y-68931115D01*
G37*
X116966090Y-68931115D02*
X114566090Y-68931115D01*
X114566090Y-68372715D01*
X116966090Y-68372715D01*
X116966090Y-68931115D01*
X132650890Y-78338514D02*
X135050890Y-78338514D01*
X135050890Y-78338514D02*
X135050890Y-84338514D01*
X135050890Y-84338514D02*
X132650890Y-84338514D01*
X132650890Y-84338514D02*
X132650890Y-78338514D01*
G36*
X135050890Y-84338514D02*
G01*
X132650890Y-84338514D01*
X132650890Y-83780114D01*
X135050890Y-83780114D01*
X135050890Y-84338514D01*
G37*
X135050890Y-84338514D02*
X132650890Y-84338514D01*
X132650890Y-83780114D01*
X135050890Y-83780114D01*
X135050890Y-84338514D01*
X150735690Y-80547114D02*
X153135690Y-80547114D01*
X153135690Y-80547114D02*
X153135690Y-86547114D01*
X153135690Y-86547114D02*
X150735690Y-86547114D01*
X150735690Y-86547114D02*
X150735690Y-80547114D01*
G36*
X153135690Y-86547114D02*
G01*
X150735690Y-86547114D01*
X150735690Y-85988714D01*
X153135690Y-85988714D01*
X153135690Y-86547114D01*
G37*
X153135690Y-86547114D02*
X150735690Y-86547114D01*
X150735690Y-85988714D01*
X153135690Y-85988714D01*
X153135690Y-86547114D01*
D10*
X113516090Y-57431115D02*
X114516090Y-57431115D01*
X114516090Y-71431115D02*
X113516090Y-71431115D01*
X100516090Y-58431115D02*
X100516090Y-57431115D01*
X101516090Y-71431115D02*
X100516090Y-71431115D01*
X114516090Y-70431115D02*
X114516090Y-71431115D01*
X109016090Y-60731115D02*
X106516090Y-60731115D01*
X109516090Y-56731115D02*
X109016090Y-56231115D01*
X105016090Y-62931115D02*
X100516090Y-62931115D01*
X100516090Y-58831115D02*
X100516090Y-58231115D01*
X100516090Y-57431115D02*
X101516090Y-57431115D01*
X100516090Y-62931115D02*
X100516090Y-62431115D01*
X105516090Y-57731115D02*
X105516090Y-56731115D01*
X106016090Y-56231115D02*
X105516090Y-56731115D01*
X109016090Y-56231115D02*
X106016090Y-56231115D01*
X105016090Y-62231115D02*
X105016090Y-62931115D01*
X100516090Y-58231115D02*
X105016090Y-58231115D01*
X114516090Y-57431115D02*
X114516090Y-58431115D01*
X100516090Y-71431115D02*
X100516090Y-70431115D01*
X109516090Y-60231115D02*
X109016090Y-60731115D01*
X105016090Y-58231115D02*
G75*
G03*
X105516090Y-57731115I0J500000D01*
G01*
X106516090Y-60731115D02*
G75*
G03*
X105016090Y-62231115I0J-1500000D01*
G01*
G36*
X135050890Y-101356514D02*
G01*
X132650890Y-101356514D01*
X132650890Y-100798114D01*
X135050890Y-100798114D01*
X135050890Y-101356514D01*
G37*
D11*
X135050890Y-101356514D02*
X132650890Y-101356514D01*
X132650890Y-100798114D01*
X135050890Y-100798114D01*
X135050890Y-101356514D01*
X132650890Y-95356514D02*
X135050890Y-95356514D01*
X135050890Y-95356514D02*
X135050890Y-101356514D01*
X135050890Y-101356514D02*
X132650890Y-101356514D01*
X132650890Y-101356514D02*
X132650890Y-95356514D01*
X114566090Y-96967115D02*
X116966090Y-96967115D01*
X116966090Y-96967115D02*
X116966090Y-102967115D01*
X116966090Y-102967115D02*
X114566090Y-102967115D01*
X114566090Y-102967115D02*
X114566090Y-96967115D01*
G36*
X116966090Y-102967115D02*
G01*
X114566090Y-102967115D01*
X114566090Y-102408715D01*
X116966090Y-102408715D01*
X116966090Y-102967115D01*
G37*
X116966090Y-102967115D02*
X114566090Y-102967115D01*
X114566090Y-102408715D01*
X116966090Y-102408715D01*
X116966090Y-102967115D01*
D10*
X136685690Y-57560915D02*
X136685690Y-56960915D01*
X142185690Y-54960915D02*
X141685690Y-55460915D01*
X141185690Y-61660915D02*
X136685690Y-61660915D01*
X136685690Y-56160915D02*
X137685690Y-56160915D01*
X141685690Y-56460915D02*
X141685690Y-55460915D01*
X145185690Y-59460915D02*
X142685690Y-59460915D01*
X145685690Y-55460915D02*
X145185690Y-54960915D01*
X150685690Y-70160915D02*
X149685690Y-70160915D01*
X136685690Y-57160915D02*
X136685690Y-56160915D01*
X145185690Y-54960915D02*
X142185690Y-54960915D01*
X137685690Y-70160915D02*
X136685690Y-70160915D01*
X136685690Y-56960915D02*
X141185690Y-56960915D01*
X150685690Y-69160915D02*
X150685690Y-70160915D01*
X141185690Y-60960915D02*
X141185690Y-61660915D01*
X145685690Y-58960915D02*
X145185690Y-59460915D01*
X136685690Y-61660915D02*
X136685690Y-61160915D01*
X136685690Y-70160915D02*
X136685690Y-69160915D01*
X150685690Y-56160915D02*
X150685690Y-57160915D01*
X149685690Y-56160915D02*
X150685690Y-56160915D01*
X142685690Y-59460915D02*
G75*
G03*
X141185690Y-60960915I0J-1500000D01*
G01*
X141185690Y-56960915D02*
G75*
G03*
X141685690Y-56460915I0J500000D01*
G01*
%LPC*%
G36*
X188341890Y-82337115D02*
G01*
X187325890Y-82337115D01*
X187325890Y-81321115D01*
X188341890Y-81321115D01*
X188341890Y-82337115D01*
G37*
D13*
X188341890Y-82337115D02*
X187325890Y-82337115D01*
X187325890Y-81321115D01*
X188341890Y-81321115D01*
X188341890Y-82337115D01*
G36*
X188341890Y-84877115D02*
G01*
X187325890Y-84877115D01*
X187325890Y-83861115D01*
X188341890Y-83861115D01*
X188341890Y-84877115D01*
G37*
X188341890Y-84877115D02*
X187325890Y-84877115D01*
X187325890Y-83861115D01*
X188341890Y-83861115D01*
X188341890Y-84877115D01*
G36*
X176962690Y-89957115D02*
G01*
X175946690Y-89957115D01*
X175946690Y-88941115D01*
X176962690Y-88941115D01*
X176962690Y-89957115D01*
G37*
X176962690Y-89957115D02*
X175946690Y-89957115D01*
X175946690Y-88941115D01*
X176962690Y-88941115D01*
X176962690Y-89957115D01*
G36*
X188341890Y-87417115D02*
G01*
X187325890Y-87417115D01*
X187325890Y-86401115D01*
X188341890Y-86401115D01*
X188341890Y-87417115D01*
G37*
X188341890Y-87417115D02*
X187325890Y-87417115D01*
X187325890Y-86401115D01*
X188341890Y-86401115D01*
X188341890Y-87417115D01*
G36*
X188341890Y-89957115D02*
G01*
X187325890Y-89957115D01*
X187325890Y-88941115D01*
X188341890Y-88941115D01*
X188341890Y-89957115D01*
G37*
X188341890Y-89957115D02*
X187325890Y-89957115D01*
X187325890Y-88941115D01*
X188341890Y-88941115D01*
X188341890Y-89957115D01*
G36*
X188341890Y-79797115D02*
G01*
X187325890Y-79797115D01*
X187325890Y-78781115D01*
X188341890Y-78781115D01*
X188341890Y-79797115D01*
G37*
X188341890Y-79797115D02*
X187325890Y-79797115D01*
X187325890Y-78781115D01*
X188341890Y-78781115D01*
X188341890Y-79797115D01*
G36*
X176962690Y-84877115D02*
G01*
X175946690Y-84877115D01*
X175946690Y-83861115D01*
X176962690Y-83861115D01*
X176962690Y-84877115D01*
G37*
X176962690Y-84877115D02*
X175946690Y-84877115D01*
X175946690Y-83861115D01*
X176962690Y-83861115D01*
X176962690Y-84877115D01*
G36*
X176962690Y-82337115D02*
G01*
X175946690Y-82337115D01*
X175946690Y-81321115D01*
X176962690Y-81321115D01*
X176962690Y-82337115D01*
G37*
X176962690Y-82337115D02*
X175946690Y-82337115D01*
X175946690Y-81321115D01*
X176962690Y-81321115D01*
X176962690Y-82337115D01*
G36*
X188341890Y-77257115D02*
G01*
X187325890Y-77257115D01*
X187325890Y-76241115D01*
X188341890Y-76241115D01*
X188341890Y-77257115D01*
G37*
X188341890Y-77257115D02*
X187325890Y-77257115D01*
X187325890Y-76241115D01*
X188341890Y-76241115D01*
X188341890Y-77257115D01*
G36*
X176962690Y-79797115D02*
G01*
X175946690Y-79797115D01*
X175946690Y-78781115D01*
X176962690Y-78781115D01*
X176962690Y-79797115D01*
G37*
X176962690Y-79797115D02*
X175946690Y-79797115D01*
X175946690Y-78781115D01*
X176962690Y-78781115D01*
X176962690Y-79797115D01*
G36*
X176962690Y-87417115D02*
G01*
X175946690Y-87417115D01*
X175946690Y-86401115D01*
X176962690Y-86401115D01*
X176962690Y-87417115D01*
G37*
X176962690Y-87417115D02*
X175946690Y-87417115D01*
X175946690Y-86401115D01*
X176962690Y-86401115D01*
X176962690Y-87417115D01*
G36*
X176962690Y-74717115D02*
G01*
X175946690Y-74717115D01*
X175946690Y-73701115D01*
X176962690Y-73701115D01*
X176962690Y-74717115D01*
G37*
X176962690Y-74717115D02*
X175946690Y-74717115D01*
X175946690Y-73701115D01*
X176962690Y-73701115D01*
X176962690Y-74717115D01*
G36*
X176962690Y-77257115D02*
G01*
X175946690Y-77257115D01*
X175946690Y-76241115D01*
X176962690Y-76241115D01*
X176962690Y-77257115D01*
G37*
X176962690Y-77257115D02*
X175946690Y-77257115D01*
X175946690Y-76241115D01*
X176962690Y-76241115D01*
X176962690Y-77257115D01*
G36*
X188341890Y-74717115D02*
G01*
X187325890Y-74717115D01*
X187325890Y-73701115D01*
X188341890Y-73701115D01*
X188341890Y-74717115D01*
G37*
X188341890Y-74717115D02*
X187325890Y-74717115D01*
X187325890Y-73701115D01*
X188341890Y-73701115D01*
X188341890Y-74717115D01*
D14*
X170020490Y-85312715D03*
X170020490Y-81912715D03*
D15*
X161770490Y-76362715D03*
D16*
X167270490Y-82312715D03*
D15*
X156770490Y-78562715D03*
X166770490Y-78562715D03*
D17*
X161770490Y-82312715D03*
D16*
X156270490Y-82312715D03*
D18*
X165045490Y-76362715D03*
D19*
X153495490Y-78562715D03*
D15*
X159557724Y-119665499D03*
D16*
X148444931Y-120570121D03*
D15*
X149898465Y-117077309D03*
D16*
X159070115Y-123417131D03*
D17*
X153757523Y-121993626D03*
D15*
X155297496Y-116246367D03*
D20*
X158460903Y-117094000D03*
D21*
X146735058Y-116229677D03*
D22*
X182769290Y-94570649D03*
D23*
X181519290Y-94570649D03*
D15*
X120600890Y-56611115D03*
X130600890Y-56611115D03*
D17*
X125600890Y-60361115D03*
D16*
X120100890Y-60361115D03*
D15*
X125600890Y-54411115D03*
D16*
X131100890Y-60361115D03*
D18*
X128875890Y-54411115D03*
D19*
X117325890Y-56611115D03*
D14*
X170020551Y-68294714D03*
X170020551Y-64894714D03*
X115766090Y-84449115D03*
X115766090Y-81049115D03*
D24*
X154239551Y-54643314D03*
D25*
X182144290Y-91897710D03*
D26*
X182144290Y-90597710D03*
D14*
X97681290Y-104820115D03*
X97681290Y-101420115D03*
D16*
X102016090Y-98467115D03*
D15*
X107516090Y-92517115D03*
X112516090Y-94717115D03*
D17*
X107516090Y-98467115D03*
D15*
X102516090Y-94717115D03*
D16*
X113016090Y-98467115D03*
D18*
X110791090Y-92517115D03*
D19*
X99241090Y-94717115D03*
D14*
X97681290Y-87852915D03*
X97681290Y-84452915D03*
D16*
X156270490Y-99330715D03*
X167270490Y-99330715D03*
D15*
X166770490Y-95580715D03*
X156770490Y-95580715D03*
X161770490Y-93380715D03*
D17*
X161770490Y-99330715D03*
D18*
X165045490Y-93380715D03*
D19*
X153495490Y-95580715D03*
D27*
X162661900Y-112780483D03*
X159261900Y-112780483D03*
D24*
X96835551Y-57056314D03*
D28*
X180735890Y-120981914D03*
X180735890Y-98744714D03*
D29*
X180735890Y-109863314D03*
D27*
X162661900Y-110088083D03*
X159261900Y-110088083D03*
D15*
X89431290Y-78902915D03*
D16*
X94931290Y-84852915D03*
D15*
X94431290Y-81102915D03*
X84431290Y-81102915D03*
D17*
X89431290Y-84852915D03*
D16*
X83931290Y-84852915D03*
D18*
X92706290Y-78902915D03*
D19*
X81156290Y-81102915D03*
D24*
X100391551Y-109380314D03*
D19*
X153495490Y-61544715D03*
D18*
X165045490Y-59344715D03*
D16*
X156270490Y-65294715D03*
D15*
X161770490Y-59344715D03*
X156770490Y-61544715D03*
D17*
X161770490Y-65294715D03*
D16*
X167270490Y-65294715D03*
D15*
X166770490Y-61544715D03*
D24*
X163934523Y-125422626D03*
D17*
X173569523Y-130121626D03*
D15*
X171114396Y-124374031D03*
X176544523Y-124968775D03*
X179774650Y-129374031D03*
D16*
X168806383Y-127371626D03*
X178332663Y-132871626D03*
D30*
X179380756Y-126606275D03*
D31*
X168278163Y-122736531D03*
D15*
X89431290Y-95870115D03*
D17*
X89431290Y-101820115D03*
D16*
X94931290Y-101820115D03*
X83931290Y-101820115D03*
D15*
X84431290Y-98070115D03*
X94431290Y-98070115D03*
D18*
X92706290Y-95870115D03*
D19*
X81156290Y-98070115D03*
D15*
X107516090Y-75499115D03*
X112516090Y-77699115D03*
D16*
X102016090Y-81449115D03*
X113016090Y-81449115D03*
D17*
X107516090Y-81449115D03*
D15*
X102516090Y-77699115D03*
D18*
X110791090Y-75499115D03*
D19*
X99241090Y-77699115D03*
D14*
X133850890Y-65820514D03*
X133850890Y-62420514D03*
D17*
X143685690Y-97197115D03*
D16*
X149185690Y-97197115D03*
D15*
X148685690Y-93447115D03*
X138685690Y-93447115D03*
D16*
X138185690Y-97197115D03*
D15*
X143685690Y-91247115D03*
D18*
X146960690Y-91247115D03*
D19*
X135410690Y-93447115D03*
D16*
X131100890Y-77379115D03*
D15*
X120600890Y-73629115D03*
X130600890Y-73629115D03*
X125600890Y-71429115D03*
D17*
X125600890Y-77379115D03*
D16*
X120100890Y-77379115D03*
D18*
X128875890Y-71429115D03*
D19*
X117325890Y-73629115D03*
D32*
X165799215Y-117588038D03*
X165174215Y-116505506D03*
D33*
X167971089Y-111599834D03*
X171446089Y-117618710D03*
D14*
X151935690Y-68028914D03*
X151935690Y-64628914D03*
X97681290Y-70784115D03*
X97681290Y-67384115D03*
D15*
X138685690Y-76429115D03*
D16*
X149185690Y-80179115D03*
D17*
X143685690Y-80179115D03*
D15*
X148685690Y-76429115D03*
D16*
X138185690Y-80179115D03*
D15*
X143685690Y-74229115D03*
D18*
X146960690Y-74229115D03*
D19*
X135410690Y-76429115D03*
D34*
X174585490Y-76749115D03*
D35*
X188087890Y-74209115D03*
D34*
X189688090Y-84369115D03*
X174585490Y-79289115D03*
X189688090Y-79289115D03*
X174585490Y-84369115D03*
D35*
X188087890Y-84369115D03*
D36*
X176200690Y-84369115D03*
D34*
X174585490Y-74209115D03*
X189688090Y-76749115D03*
X174585490Y-89449115D03*
D35*
X188087890Y-86909115D03*
X188087890Y-79289115D03*
X188087890Y-76749115D03*
D34*
X189688090Y-81829115D03*
X174585490Y-81829115D03*
X189688090Y-86909115D03*
X174585490Y-86909115D03*
D36*
X176200690Y-81829115D03*
X176200690Y-86909115D03*
X176200690Y-76749115D03*
D34*
X189688090Y-89449115D03*
D35*
X188087890Y-89449115D03*
D36*
X176200690Y-79289115D03*
X176200690Y-74209115D03*
D34*
X189688090Y-74209115D03*
D36*
X176200690Y-89449115D03*
D35*
X188087890Y-81829115D03*
D37*
X177216690Y-74209115D03*
X177216690Y-76749115D03*
X177216690Y-79289115D03*
X177216690Y-81829115D03*
X177216690Y-84369115D03*
X177216690Y-86909115D03*
X177216690Y-89449115D03*
D38*
X187071890Y-89449115D03*
X187071890Y-86909115D03*
X187071890Y-84369115D03*
X187071890Y-81829115D03*
X187071890Y-79289115D03*
X187071890Y-76749115D03*
X187071890Y-74209115D03*
D17*
X89431290Y-67784115D03*
D16*
X94931290Y-67784115D03*
D15*
X94431290Y-64034115D03*
D16*
X83931290Y-67784115D03*
D15*
X84431290Y-64034115D03*
X89431290Y-61834115D03*
D18*
X92706290Y-61834115D03*
D19*
X81156290Y-64034115D03*
D24*
X151710289Y-109185910D03*
D14*
X170020490Y-102330715D03*
X170020490Y-98930715D03*
D39*
X183394290Y-95380453D03*
D40*
X180854290Y-95380453D03*
D14*
X151935690Y-102065114D03*
X151935690Y-98665114D03*
D41*
X188667265Y-95626915D03*
D42*
X185733199Y-129334524D03*
D43*
X187355571Y-124324493D03*
D42*
X189383199Y-123012538D03*
X183819283Y-128229524D03*
D43*
X185855571Y-126922569D03*
D42*
X187469283Y-121907538D03*
D44*
X183956367Y-126692088D03*
X185456367Y-124094012D03*
X186206367Y-122794974D03*
D41*
X188667265Y-118778325D03*
D16*
X131100890Y-94397115D03*
X120100890Y-94397115D03*
D17*
X125600890Y-94397115D03*
D15*
X130600890Y-90647115D03*
X120600890Y-90647115D03*
X125600890Y-88447115D03*
D18*
X128875890Y-88447115D03*
D19*
X117325890Y-90647115D03*
D14*
X115766090Y-67431115D03*
X115766090Y-64031115D03*
X133850890Y-82838514D03*
X133850890Y-79438514D03*
X151935690Y-85047114D03*
X151935690Y-81647114D03*
D15*
X102516090Y-60681115D03*
D16*
X102016090Y-64431115D03*
D15*
X112516090Y-60681115D03*
D16*
X113016090Y-64431115D03*
D17*
X107516090Y-64431115D03*
D15*
X107516090Y-58481115D03*
D18*
X110791090Y-58481115D03*
D19*
X99241090Y-60681115D03*
D41*
X175078265Y-95576115D03*
D14*
X133850890Y-96456514D03*
X133850890Y-99856514D03*
X115766090Y-101467115D03*
X115766090Y-98067115D03*
D17*
X143685690Y-63160915D03*
D16*
X149185690Y-63160915D03*
D15*
X148685690Y-59410915D03*
X143685690Y-57210915D03*
X138685690Y-59410915D03*
D16*
X138185690Y-63160915D03*
D18*
X146960690Y-57210915D03*
D19*
X135410690Y-59410915D03*
D43*
X187355571Y-124324493D03*
X185855571Y-126922569D03*
M02*
