M48
; DRILL file {KiCad (6.0.6)} date Tue Jul 19 13:35:39 2022
; FORMAT={-:-/ absolute / inch / decimal}
; #@! TF.CreationDate,2022-07-19T13:35:39+08:00
; #@! TF.GenerationSoftware,Kicad,Pcbnew,(6.0.6)
; #@! TF.FileFunction,Plated,1,2,PTH
FMAT,2
INCH
; #@! TA.AperFunction,Plated,PTH,ViaDrill
T1C0.0118
; #@! TA.AperFunction,Plated,PTH,ComponentDrill
T2C0.0118
; #@! TA.AperFunction,Plated,PTH,ComponentDrill
T3C0.0138
; #@! TA.AperFunction,Plated,PTH,ViaDrill
T4C0.0157
; #@! TA.AperFunction,Plated,PTH,ComponentDrill
T5C0.0197
; #@! TA.AperFunction,Plated,PTH,ComponentDrill
T6C0.0394
; #@! TA.AperFunction,Plated,PTH,ComponentDrill
T7C0.0433
; #@! TA.AperFunction,Plated,PTH,ComponentDrill
T8C0.0866
%
G90
G05
T1
X3.5608Y-2.4777
X3.5608Y-3.1467
X3.5608Y-3.8137
X3.6364Y-2.8603
X3.7968Y-2.9757
X3.8454Y-3.1433
X3.8474Y-3.8133
X3.8524Y-2.4783
X3.9064Y-3.7163
X3.9071Y-2.373
X3.9074Y-3.0403
X4.2728Y-2.3737
X4.2808Y-3.7097
X4.5042Y-2.9545
X4.5574Y-2.3733
X4.5574Y-3.0453
X4.5574Y-3.7153
X4.6191Y-2.2128
X4.6191Y-3.5528
X4.6224Y-2.8803
X4.9828Y-2.2197
X4.9868Y-3.5544
X4.9888Y-2.8837
X5.2724Y-2.2153
X5.2724Y-2.8853
X5.2724Y-3.5553
X5.3311Y-3.663
X5.3564Y-2.8183
X5.6908Y-2.3327
X5.6978Y-3.6647
X5.7038Y-2.9897
X5.7464Y-3.8887
X5.9824Y-2.3253
X5.9824Y-2.9953
X5.9824Y-3.6653
X6.0584Y-2.9243
X6.1164Y-4.9423
X6.1974Y-4.9063
X6.2424Y-4.0022
X6.4028Y-2.4327
X6.4044Y-3.7707
X6.4068Y-3.0971
X6.6484Y-3.6623
X6.6924Y-2.4263
X6.6924Y-3.0913
X6.6924Y-3.7613
X6.7124Y-5.2023
X6.7284Y-3.0202
X6.7391Y-5.1673
X6.7524Y-3.6263
X6.8074Y-3.1373
X7.0274Y-2.8863
X7.0294Y-3.1893
X7.0294Y-3.2883
X7.0324Y-3.4893
X7.0334Y-3.3913
X7.0444Y-3.0723
X7.0464Y-2.9703
X7.2964Y-3.3203
X7.2964Y-3.4223
X7.2964Y-3.5223
X7.2984Y-3.1218
X7.2984Y-3.2218
X7.3029Y-2.9218
T2
X3.8457Y-2.6049
X3.8457Y-2.7388
X3.8457Y-3.2769
X3.8457Y-3.4108
X3.8457Y-3.9449
X3.8457Y-4.0788
X4.5577Y-2.5049
X4.5577Y-2.6388
X4.5577Y-3.1749
X4.5577Y-3.3088
X4.5577Y-3.8449
X4.5577Y-3.9788
X5.2697Y-2.4415
X5.2697Y-2.5754
X5.2697Y-3.1115
X5.2697Y-3.2454
X5.2697Y-3.7815
X5.2697Y-3.9154
X5.9817Y-2.5285
X5.9817Y-2.6623
X5.9817Y-3.1985
X5.9817Y-3.3323
X5.9817Y-3.8685
X5.9817Y-4.0023
X6.2944Y-4.3234
X6.2944Y-4.4572
X6.4004Y-4.3234
X6.4004Y-4.4572
X6.6937Y-3.2249
X6.6937Y-3.3588
X6.6937Y-3.8949
X6.6937Y-4.0288
X6.6937Y-2.5549
X6.6937Y-2.6888
T3
X7.1156Y-3.8876
X7.1156Y-4.3253
X7.1156Y-4.7631
X7.171Y-3.5668
X7.171Y-3.618
T4
X3.1951Y-2.473
X3.1951Y-3.145
X3.1951Y-3.813
X4.107Y-3.2402
X4.113Y-3.8182
X4.2788Y-3.0437
X4.4824Y-2.2003
X4.817Y-3.126
X4.835Y-3.786
X5.3311Y-2.323
X5.3311Y-2.993
X5.539Y-3.1722
X5.541Y-3.7682
X5.9944Y-2.2103
X6.0431Y-2.423
X6.0431Y-3.093
X6.0431Y-3.763
X6.243Y-3.2782
X6.251Y-3.8842
X6.5764Y-4.5227
X6.6284Y-2.8003
X6.6324Y-3.3063
X7.1124Y-3.0208
X7.1808Y-2.8248
X7.1844Y-4.9583
X7.2234Y-5.1193
X7.2976Y-3.0208
X7.3968Y-3.6068
X7.4604Y-4.6583
T5
X7.1464Y-3.7233
X7.1956Y-3.7233
T6
X7.1202Y-3.7551
X7.2202Y-3.7551
T7
X6.8734Y-2.9216
X6.8734Y-3.0216
X6.8734Y-3.1216
X6.8734Y-3.2216
X6.8734Y-3.3216
X6.8734Y-3.4216
X6.8734Y-3.5216
X7.468Y-2.9216
X7.468Y-3.0216
X7.468Y-3.1216
X7.468Y-3.2216
X7.468Y-3.3216
X7.468Y-3.4216
X7.468Y-3.5216
T8
X6.8928Y-3.7648
X7.3704Y-4.8263
X7.4124Y-3.7648
T0
M30
