G04 #@! TF.GenerationSoftware,KiCad,Pcbnew,9.0.2*
G04 #@! TF.CreationDate,2025-07-12T22:53:39+08:00*
G04 #@! TF.ProjectId,Kretstr_d_v2,4b726574-7374-472e-9464-5f76322e6b69,rev?*
G04 #@! TF.SameCoordinates,Original*
G04 #@! TF.FileFunction,Soldermask,Top*
G04 #@! TF.FilePolarity,Negative*
%FSLAX46Y46*%
G04 Gerber Fmt 4.6, Leading zero omitted, Abs format (unit mm)*
G04 Created by KiCad (PCBNEW 9.0.2) date 2025-07-12 22:53:39*
%MOMM*%
%LPD*%
G01*
G04 APERTURE LIST*
G04 Aperture macros list*
%AMRoundRect*
0 Rectangle with rounded corners*
0 $1 Rounding radius*
0 $2 $3 $4 $5 $6 $7 $8 $9 X,Y pos of 4 corners*
0 Add a 4 corners polygon primitive as box body*
4,1,4,$2,$3,$4,$5,$6,$7,$8,$9,$2,$3,0*
0 Add four circle primitives for the rounded corners*
1,1,$1+$1,$2,$3*
1,1,$1+$1,$4,$5*
1,1,$1+$1,$6,$7*
1,1,$1+$1,$8,$9*
0 Add four rect primitives between the rounded corners*
20,1,$1+$1,$2,$3,$4,$5,0*
20,1,$1+$1,$4,$5,$6,$7,0*
20,1,$1+$1,$6,$7,$8,$9,0*
20,1,$1+$1,$8,$9,$2,$3,0*%
%AMFreePoly0*
4,1,22,0.886777,1.280194,0.956366,1.224698,0.994986,1.144504,1.000000,1.100000,1.000000,-0.780000,0.980194,-0.866777,0.941421,-0.921421,0.621421,-1.241421,0.546056,-1.288777,0.480000,-1.300000,-0.800000,-1.300000,-0.886777,-1.280194,-0.956366,-1.224698,-0.994986,-1.144504,-1.000000,-1.100000,-1.000000,1.100000,-0.980194,1.186777,-0.924698,1.256366,-0.844504,1.294986,-0.800000,1.300000,
0.800000,1.300000,0.886777,1.280194,0.886777,1.280194,$1*%
%AMFreePoly1*
4,1,22,0.686777,0.580194,0.756366,0.524698,0.794986,0.444504,0.800000,0.400000,0.800000,0.200000,0.780194,0.113223,0.741421,0.058579,0.141421,-0.541421,0.066056,-0.588777,-0.022393,-0.598742,-0.106406,-0.569345,-0.141421,-0.541421,-0.741421,0.058579,-0.788777,0.133944,-0.800000,0.200000,-0.800000,0.400000,-0.780193,0.486777,-0.724698,0.556366,-0.644504,0.594986,-0.600000,0.600000,
0.600000,0.600000,0.686777,0.580194,0.686777,0.580194,$1*%
%AMFreePoly2*
4,1,26,0.706406,1.169345,0.769345,1.106406,0.798742,1.022393,0.800000,1.000000,0.800000,-0.250000,0.780194,-0.336777,0.724699,-0.406366,0.644505,-0.444986,0.600000,-0.450000,-0.600000,-0.450000,-0.686777,-0.430194,-0.756366,-0.374698,-0.794986,-0.294504,-0.800000,-0.250000,-0.800000,1.000000,-0.780194,1.086777,-0.724698,1.156366,-0.644504,1.194986,-0.555496,1.194986,-0.475302,1.156366,
-0.458579,1.141421,0.000000,0.682842,0.458579,1.141421,0.533944,1.188778,0.622393,1.198742,0.706406,1.169345,0.706406,1.169345,$1*%
G04 Aperture macros list end*
%ADD10C,0.100000*%
%ADD11C,1.600000*%
%ADD12RoundRect,0.200000X-0.700000X0.600000X-0.700000X-0.600000X0.700000X-0.600000X0.700000X0.600000X0*%
%ADD13RoundRect,0.200000X0.700000X-0.600000X0.700000X0.600000X-0.700000X0.600000X-0.700000X-0.600000X0*%
%ADD14C,2.300000*%
%ADD15C,3.400000*%
%ADD16C,2.000000*%
%ADD17C,5.280000*%
%ADD18RoundRect,0.200000X-0.800000X-1.100000X0.800000X-1.100000X0.800000X1.100000X-0.800000X1.100000X0*%
%ADD19FreePoly0,0.000000*%
%ADD20C,3.600000*%
%ADD21RoundRect,0.200000X-0.547933X-0.331315X0.443512X-0.461841X0.547933X0.331315X-0.443512X0.461841X0*%
%ADD22C,1.300000*%
%ADD23RoundRect,0.200000X-0.444900X-0.697899X0.249111X-0.789268X0.444900X0.697899X-0.249111X0.789268X0*%
%ADD24RoundRect,0.200000X-0.761123X-1.127250X0.837902X-1.071410X0.761123X1.127250X-0.837902X1.071410X0*%
%ADD25FreePoly0,2.000000*%
%ADD26RoundRect,0.200000X-0.856473X-1.056624X0.741334X-1.140361X0.856473X1.056624X-0.741334X1.140361X0*%
%ADD27FreePoly0,357.000000*%
%ADD28RoundRect,0.200000X-1.057442X-0.855463X0.488040X-1.269574X1.057442X0.855463X-0.488040X1.269574X0*%
%ADD29FreePoly0,345.000000*%
%ADD30C,2.500000*%
%ADD31FreePoly1,187.500000*%
%ADD32FreePoly1,7.500000*%
%ADD33FreePoly2,7.500000*%
%ADD34FreePoly2,187.500000*%
%ADD35RoundRect,0.300000X-0.850000X0.300000X-0.850000X-0.300000X0.850000X-0.300000X0.850000X0.300000X0*%
%ADD36RoundRect,0.326924X-1.548076X0.523076X-1.548076X-0.523076X1.548076X-0.523076X1.548076X0.523076X0*%
%ADD37RoundRect,0.200000X0.800000X1.100000X-0.800000X1.100000X-0.800000X-1.100000X0.800000X-1.100000X0*%
%ADD38FreePoly0,180.000000*%
%ADD39C,4.200000*%
%ADD40RoundRect,0.200000X-0.936735X-0.986168X0.649577X-1.195010X0.936735X0.986168X-0.649577X1.195010X0*%
%ADD41FreePoly0,352.500000*%
%ADD42RoundRect,0.200000X0.856473X1.056624X-0.741334X1.140361X-0.856473X-1.056624X0.741334X-1.140361X0*%
%ADD43FreePoly0,177.000000*%
G04 APERTURE END LIST*
D10*
X87756130Y-115406955D02*
X86748822Y-115539569D01*
X86616207Y-114532261D01*
X87623515Y-114399647D01*
X87756130Y-115406955D01*
G36*
X87756130Y-115406955D02*
G01*
X86748822Y-115539569D01*
X86616207Y-114532261D01*
X87623515Y-114399647D01*
X87756130Y-115406955D01*
G37*
X89112845Y-125712231D02*
X88105537Y-125844846D01*
X87972923Y-124837538D01*
X88980231Y-124704923D01*
X89112845Y-125712231D01*
G36*
X89112845Y-125712231D02*
G01*
X88105537Y-125844846D01*
X87972923Y-124837538D01*
X88980231Y-124704923D01*
X89112845Y-125712231D01*
G37*
X89438017Y-115185530D02*
X88430709Y-115318145D01*
X88298094Y-114310837D01*
X89305402Y-114178222D01*
X89438017Y-115185530D01*
G36*
X89438017Y-115185530D02*
G01*
X88430709Y-115318145D01*
X88298094Y-114310837D01*
X89305402Y-114178222D01*
X89438017Y-115185530D01*
G37*
X90794732Y-125490806D02*
X89787424Y-125623421D01*
X89654810Y-124616113D01*
X90662118Y-124483498D01*
X90794732Y-125490806D01*
G36*
X90794732Y-125490806D02*
G01*
X89787424Y-125623421D01*
X89654810Y-124616113D01*
X90662118Y-124483498D01*
X90794732Y-125490806D01*
G37*
X91119904Y-114964106D02*
X90112596Y-115096720D01*
X89979981Y-114089412D01*
X90987289Y-113956798D01*
X91119904Y-114964106D01*
G36*
X91119904Y-114964106D02*
G01*
X90112596Y-115096720D01*
X89979981Y-114089412D01*
X90987289Y-113956798D01*
X91119904Y-114964106D01*
G37*
X92476619Y-125269382D02*
X91469311Y-125401996D01*
X91336697Y-124394688D01*
X92344005Y-124262074D01*
X92476619Y-125269382D01*
G36*
X92476619Y-125269382D02*
G01*
X91469311Y-125401996D01*
X91336697Y-124394688D01*
X92344005Y-124262074D01*
X92476619Y-125269382D01*
G37*
X96983111Y-114192200D02*
X95975803Y-114324814D01*
X95843188Y-113317506D01*
X96850496Y-113184892D01*
X96983111Y-114192200D01*
G36*
X96983111Y-114192200D02*
G01*
X95975803Y-114324814D01*
X95843188Y-113317506D01*
X96850496Y-113184892D01*
X96983111Y-114192200D01*
G37*
X98339826Y-124497476D02*
X97332518Y-124630091D01*
X97199903Y-123622783D01*
X98207211Y-123490168D01*
X98339826Y-124497476D01*
G36*
X98339826Y-124497476D02*
G01*
X97332518Y-124630091D01*
X97199903Y-123622783D01*
X98207211Y-123490168D01*
X98339826Y-124497476D01*
G37*
X98665295Y-113970736D02*
X97657987Y-114103351D01*
X97525373Y-113096043D01*
X98532681Y-112963428D01*
X98665295Y-113970736D01*
G36*
X98665295Y-113970736D02*
G01*
X97657987Y-114103351D01*
X97525373Y-113096043D01*
X98532681Y-112963428D01*
X98665295Y-113970736D01*
G37*
X100022010Y-124276012D02*
X99014703Y-124408627D01*
X98882088Y-123401319D01*
X99889396Y-123268704D01*
X100022010Y-124276012D01*
G36*
X100022010Y-124276012D02*
G01*
X99014703Y-124408627D01*
X98882088Y-123401319D01*
X99889396Y-123268704D01*
X100022010Y-124276012D01*
G37*
X100347480Y-113749272D02*
X99340172Y-113881887D01*
X99207557Y-112874579D01*
X100214865Y-112741964D01*
X100347480Y-113749272D01*
G36*
X100347480Y-113749272D02*
G01*
X99340172Y-113881887D01*
X99207557Y-112874579D01*
X100214865Y-112741964D01*
X100347480Y-113749272D01*
G37*
X101704195Y-124054548D02*
X100696887Y-124187163D01*
X100564272Y-123179855D01*
X101571580Y-123047240D01*
X101704195Y-124054548D01*
G36*
X101704195Y-124054548D02*
G01*
X100696887Y-124187163D01*
X100564272Y-123179855D01*
X101571580Y-123047240D01*
X101704195Y-124054548D01*
G37*
X102370027Y-113482999D02*
X101362719Y-113615613D01*
X101230105Y-112608305D01*
X102237413Y-112475691D01*
X102370027Y-113482999D01*
G36*
X102370027Y-113482999D02*
G01*
X101362719Y-113615613D01*
X101230105Y-112608305D01*
X102237413Y-112475691D01*
X102370027Y-113482999D01*
G37*
X103726743Y-123788275D02*
X102719435Y-123920892D01*
X102586820Y-122913582D01*
X103594128Y-122780967D01*
X103726743Y-123788275D01*
G36*
X103726743Y-123788275D02*
G01*
X102719435Y-123920892D01*
X102586820Y-122913582D01*
X103594128Y-122780967D01*
X103726743Y-123788275D01*
G37*
D11*
X176253908Y-113513671D03*
X178841352Y-112550533D03*
X179358990Y-110618681D03*
X174322057Y-112996033D03*
X172562834Y-110868209D03*
X173080472Y-108936357D03*
X172636778Y-113915762D03*
X174568630Y-114433400D03*
X176500482Y-114951038D03*
X173801464Y-109569096D03*
X175733316Y-110086734D03*
X177665168Y-110604372D03*
D12*
X159038990Y-122025081D03*
X159038990Y-125425081D03*
D13*
X156016390Y-124967881D03*
X156016390Y-121567881D03*
X171019105Y-106248849D03*
X171019105Y-102848849D03*
X152578705Y-100982449D03*
X152578705Y-97582449D03*
X134197790Y-95945081D03*
X134197790Y-92545081D03*
X116262190Y-98637481D03*
X116262190Y-95237481D03*
X97761390Y-101904681D03*
X97761390Y-98504681D03*
X171129390Y-89712681D03*
X171129390Y-86312681D03*
X152778431Y-84192916D03*
X152778431Y-80792916D03*
X134197790Y-78977881D03*
X134197790Y-75577881D03*
X116262190Y-81721081D03*
X116262190Y-78321081D03*
X97450660Y-84688298D03*
X97450660Y-81288298D03*
X156332694Y-64659350D03*
X156332694Y-61259350D03*
X153078020Y-67209817D03*
X153078020Y-63809817D03*
X134197790Y-62213881D03*
X134197790Y-58813881D03*
X116262190Y-64076081D03*
X116262190Y-60676081D03*
X97761390Y-64058681D03*
X97761390Y-60658681D03*
D14*
X102246390Y-95208681D03*
D15*
X102746390Y-91408681D03*
D16*
X102746390Y-100358681D03*
D15*
X107746390Y-89308681D03*
D17*
X107746390Y-95208681D03*
D15*
X112746390Y-91408681D03*
D16*
X112746390Y-100358681D03*
D14*
X113246390Y-95208681D03*
D18*
X99846390Y-91408681D03*
D19*
X110546390Y-89308681D03*
D20*
X100720590Y-106203881D03*
D14*
X120546190Y-75408681D03*
D15*
X121046190Y-71608681D03*
D16*
X121046190Y-80558681D03*
D15*
X126046190Y-69508681D03*
D17*
X126046190Y-75408681D03*
D15*
X131046190Y-71608681D03*
D16*
X131046190Y-80558681D03*
D14*
X131546190Y-75408681D03*
D18*
X118146190Y-71608681D03*
D19*
X128846190Y-69508681D03*
D14*
X102246390Y-78208681D03*
D15*
X102746390Y-74408681D03*
D16*
X102746390Y-83358681D03*
D15*
X107746390Y-72308681D03*
D17*
X107746390Y-78208681D03*
D15*
X112746390Y-74408681D03*
D16*
X112746390Y-83358681D03*
D14*
X113246390Y-78208681D03*
D18*
X99846390Y-74408681D03*
D19*
X110546390Y-72308681D03*
D21*
X142917122Y-129404164D03*
X143205586Y-127213071D03*
D22*
X145192308Y-128594207D03*
X148166642Y-128985785D03*
D21*
X150443133Y-128165912D03*
X150154670Y-130357005D03*
D23*
X144678450Y-126751369D03*
X147652785Y-127142947D03*
X149139952Y-127338737D03*
D14*
X120546190Y-92408681D03*
D15*
X121046190Y-88608681D03*
D16*
X121046190Y-97558681D03*
D15*
X126046190Y-86508681D03*
D17*
X126046190Y-92408681D03*
D15*
X131046190Y-88608681D03*
D16*
X131046190Y-97558681D03*
D14*
X131546190Y-92408681D03*
D18*
X118146190Y-88608681D03*
D19*
X128846190Y-86508681D03*
D14*
X102246390Y-60563681D03*
D15*
X102746390Y-56763681D03*
D16*
X102746390Y-65713681D03*
D15*
X107746390Y-54663681D03*
D17*
X107746390Y-60563681D03*
D15*
X112746390Y-56763681D03*
D16*
X112746390Y-65713681D03*
D14*
X113246390Y-60563681D03*
D18*
X99846390Y-56763681D03*
D19*
X110546390Y-54663681D03*
D14*
X83149940Y-99200428D03*
D15*
X83517018Y-95385293D03*
D16*
X83829368Y-104329841D03*
D15*
X88440683Y-93112075D03*
D17*
X88646590Y-99008481D03*
D15*
X93510926Y-95036298D03*
D16*
X93823277Y-103980846D03*
D14*
X94143240Y-98816534D03*
D24*
X80618784Y-95486502D03*
D25*
X91238977Y-93014357D03*
D14*
X140474850Y-59957705D03*
D15*
X141173041Y-56189081D03*
D16*
X140704634Y-65126815D03*
D15*
X146276094Y-54353639D03*
D17*
X145967312Y-60245553D03*
D15*
X151159336Y-56712441D03*
D16*
X150690929Y-65650175D03*
D14*
X151459774Y-60533401D03*
D26*
X138277015Y-56037307D03*
D27*
X149072257Y-54500179D03*
D20*
X159054800Y-114147600D03*
D14*
X161884409Y-122481671D03*
D15*
X163350884Y-118940563D03*
D16*
X161034454Y-127585599D03*
D15*
X168724033Y-118206214D03*
D17*
X167197001Y-123905176D03*
D15*
X173010143Y-121528753D03*
D16*
X170693712Y-130173789D03*
D14*
X172509593Y-125328681D03*
D28*
X160549699Y-118189987D03*
D29*
X171428626Y-118930907D03*
D14*
X120546190Y-58408681D03*
D15*
X121046190Y-54608681D03*
D16*
X121046190Y-63558681D03*
D15*
X126046190Y-52508681D03*
D17*
X126046190Y-58408681D03*
D15*
X131046190Y-54608681D03*
D16*
X131046190Y-63558681D03*
D14*
X131546190Y-58408681D03*
D18*
X118146190Y-54608681D03*
D19*
X128846190Y-52508681D03*
D14*
X139594184Y-93958412D03*
D15*
X140292375Y-90189788D03*
D16*
X139823968Y-99127522D03*
D15*
X145395428Y-88354346D03*
D17*
X145086646Y-94246260D03*
D15*
X150278670Y-90713148D03*
D16*
X149810263Y-99650882D03*
D14*
X150579108Y-94534108D03*
D26*
X137396349Y-90038014D03*
D27*
X148191591Y-88500886D03*
D14*
X140034512Y-76958158D03*
D15*
X140732703Y-73189534D03*
D16*
X140264296Y-82127268D03*
D15*
X145835756Y-71354092D03*
D17*
X145526974Y-77246006D03*
D15*
X150718998Y-73712894D03*
D16*
X150250591Y-82650628D03*
D14*
X151019436Y-77533854D03*
D26*
X137836677Y-73037760D03*
D27*
X148631919Y-71500632D03*
D30*
X88850169Y-127608944D03*
X91368439Y-127277407D03*
X93886709Y-126945871D03*
X96404979Y-126614334D03*
X101441518Y-125951261D03*
X103959790Y-125619724D03*
X98923248Y-126282797D03*
D31*
X88576038Y-125526711D03*
X90257925Y-125305287D03*
X91939812Y-125083862D03*
X97803018Y-124311956D03*
X99485203Y-124090492D03*
X103189935Y-123602755D03*
X101167387Y-123869028D03*
D32*
X99744365Y-113060099D03*
X87153015Y-114717781D03*
X88834902Y-114496357D03*
X90516789Y-114274932D03*
X96379996Y-113503026D03*
X98062180Y-113281562D03*
X101766912Y-112793825D03*
D30*
X96951964Y-111309404D03*
X86878884Y-112635549D03*
X89397154Y-112304012D03*
X91915424Y-111972476D03*
X94433694Y-111640939D03*
X99470234Y-110977866D03*
X101988507Y-110646329D03*
D33*
X87285630Y-115725089D03*
X88967517Y-115503664D03*
X90649404Y-115282240D03*
X96512610Y-114510334D03*
X98194795Y-114288870D03*
X99876979Y-114067405D03*
X101899527Y-113801133D03*
D34*
X103057320Y-122595447D03*
X101034773Y-122861723D03*
X99352588Y-123083183D03*
X97670404Y-123304648D03*
X91807197Y-124076554D03*
X90125310Y-124297979D03*
X88443423Y-124519403D03*
D20*
X96961390Y-53468681D03*
D14*
X82828740Y-81854628D03*
D15*
X83195818Y-78039493D03*
D16*
X83508168Y-86984041D03*
D15*
X88119483Y-75766275D03*
D17*
X88325390Y-81662681D03*
D15*
X93189726Y-77690498D03*
D16*
X93502077Y-86635046D03*
D14*
X93822040Y-81470734D03*
D24*
X80297584Y-78140702D03*
D25*
X90917777Y-75668557D03*
D35*
X150671000Y-106330000D03*
X150671000Y-107580000D03*
D36*
X145796000Y-103480000D03*
X145796000Y-110430000D03*
D14*
X94946590Y-63908681D03*
D15*
X94446590Y-67708681D03*
D16*
X94446590Y-58758681D03*
D15*
X89446590Y-69808681D03*
D17*
X89446590Y-63908681D03*
D15*
X84446590Y-67708681D03*
D16*
X84446590Y-58758681D03*
D14*
X83946590Y-63908681D03*
D37*
X97346590Y-67708681D03*
D38*
X86646590Y-69808681D03*
D14*
X95657918Y-123376142D03*
X157508928Y-99948843D03*
D15*
X158207119Y-96180219D03*
D16*
X157738712Y-105117953D03*
D15*
X163310172Y-94344777D03*
D17*
X163001390Y-100236691D03*
D15*
X168193414Y-96703579D03*
D16*
X167725007Y-105641313D03*
D14*
X168493852Y-100524539D03*
D26*
X155311093Y-96028445D03*
D27*
X166106335Y-94491317D03*
D20*
X157210190Y-55348281D03*
D39*
X133604000Y-119888000D03*
D14*
X94550195Y-114962146D03*
X142340786Y-119347403D03*
D15*
X143332508Y-115645176D03*
D16*
X142164299Y-124518607D03*
D15*
X148563838Y-114215772D03*
D17*
X147793733Y-120065297D03*
D15*
X153246957Y-116950436D03*
D16*
X152078747Y-125823869D03*
D14*
X153246680Y-120783191D03*
D40*
X140457318Y-115266650D03*
D41*
X151339883Y-114581246D03*
D39*
X111363786Y-122815980D03*
D14*
X169870184Y-66544967D03*
D15*
X169171993Y-70313591D03*
D16*
X169640400Y-61375857D03*
D15*
X164068940Y-72149033D03*
D17*
X164377722Y-66257119D03*
D15*
X159185698Y-69790231D03*
D16*
X159654105Y-60852497D03*
D14*
X158885260Y-65969271D03*
D42*
X172068019Y-70465365D03*
D43*
X161272777Y-72002493D03*
D14*
X158295138Y-82961674D03*
D15*
X158993329Y-79193050D03*
D16*
X158524922Y-88130784D03*
D15*
X164096382Y-77357608D03*
D17*
X163787600Y-83249522D03*
D15*
X168979624Y-79716410D03*
D16*
X168511217Y-88654144D03*
D14*
X169280062Y-83537370D03*
D26*
X156097303Y-79041276D03*
D27*
X166892545Y-77504148D03*
D22*
X148166642Y-128985785D03*
X145192308Y-128594207D03*
M02*
