G04 #@! TF.GenerationSoftware,KiCad,Pcbnew,(6.0.6-0)*
G04 #@! TF.CreationDate,2022-07-10T15:08:16+08:00*
G04 #@! TF.ProjectId,Kretstr_d,4b726574-7374-472e-9464-2e6b69636164,rev?*
G04 #@! TF.SameCoordinates,Original*
G04 #@! TF.FileFunction,Soldermask,Top*
G04 #@! TF.FilePolarity,Negative*
%FSLAX46Y46*%
G04 Gerber Fmt 4.6, Leading zero omitted, Abs format (unit mm)*
G04 Created by KiCad (PCBNEW (6.0.6-0)) date 2022-07-10 15:08:16*
%MOMM*%
%LPD*%
G01*
G04 APERTURE LIST*
G04 Aperture macros list*
%AMRoundRect*
0 Rectangle with rounded corners*
0 $1 Rounding radius*
0 $2 $3 $4 $5 $6 $7 $8 $9 X,Y pos of 4 corners*
0 Add a 4 corners polygon primitive as box body*
4,1,4,$2,$3,$4,$5,$6,$7,$8,$9,$2,$3,0*
0 Add four circle primitives for the rounded corners*
1,1,$1+$1,$2,$3*
1,1,$1+$1,$4,$5*
1,1,$1+$1,$6,$7*
1,1,$1+$1,$8,$9*
0 Add four rect primitives between the rounded corners*
20,1,$1+$1,$2,$3,$4,$5,0*
20,1,$1+$1,$4,$5,$6,$7,0*
20,1,$1+$1,$6,$7,$8,$9,0*
20,1,$1+$1,$8,$9,$2,$3,0*%
%AMFreePoly0*
4,1,33,1.386777,1.480194,1.456367,1.424698,1.494986,1.344504,1.500000,1.300000,1.500000,-1.300000,1.480194,-1.386777,1.424698,-1.456367,1.344504,-1.494986,1.300000,-1.500000,-1.300000,-1.500000,-1.386777,-1.480194,-1.456367,-1.424698,-1.494986,-1.344504,-1.500000,-1.300000,-1.500000,-0.850000,-1.947000,-0.850000,-2.033777,-0.830194,-2.103366,-0.774698,-2.141985,-0.694504,-2.147000,-0.650000,
-2.147000,0.650000,-2.127194,0.736777,-2.071698,0.806366,-1.991504,0.844986,-1.947000,0.850000,-1.500001,0.850000,-1.500000,1.300000,-1.480194,1.386777,-1.424698,1.456367,-1.344504,1.494986,-1.300000,1.500000,1.300000,1.500000,1.386777,1.480194,1.386777,1.480194,$1*%
%AMFreePoly1*
4,1,33,1.386777,1.480194,1.456367,1.424698,1.494986,1.344504,1.500000,1.300000,1.500000,0.850000,1.976200,0.850000,2.062977,0.830194,2.132566,0.774698,2.171186,0.694504,2.176200,0.650000,2.176200,-0.650000,2.156394,-0.736777,2.100898,-0.806366,2.020704,-0.844985,1.976200,-0.850000,1.500001,-0.850000,1.500000,-1.300000,1.480194,-1.386777,1.424698,-1.456367,1.344504,-1.494986,
1.300000,-1.500000,-1.300000,-1.500000,-1.386777,-1.480194,-1.456367,-1.424698,-1.494986,-1.344504,-1.500000,-1.300000,-1.500000,1.300000,-1.480194,1.386777,-1.424698,1.456367,-1.344504,1.494986,-1.300000,1.500000,1.300000,1.500000,1.386777,1.480194,1.386777,1.480194,$1*%
%AMFreePoly2*
4,1,22,0.686777,0.580194,0.756366,0.524698,0.794986,0.444504,0.800000,0.400000,0.800000,0.200000,0.780194,0.113223,0.741421,0.058579,0.141421,-0.541421,0.066056,-0.588777,-0.022393,-0.598742,-0.106406,-0.569345,-0.141421,-0.541421,-0.741421,0.058579,-0.788777,0.133944,-0.800000,0.200000,-0.800000,0.400000,-0.780194,0.486777,-0.724698,0.556366,-0.644504,0.594986,-0.600000,0.600000,
0.600000,0.600000,0.686777,0.580194,0.686777,0.580194,$1*%
%AMFreePoly3*
4,1,26,0.706406,1.169345,0.769345,1.106406,0.798742,1.022393,0.800000,1.000000,0.800000,-0.250000,0.780194,-0.336777,0.724698,-0.406366,0.644504,-0.444986,0.600000,-0.450000,-0.600000,-0.450000,-0.686777,-0.430194,-0.756366,-0.374698,-0.794986,-0.294504,-0.800000,-0.250000,-0.800000,1.000000,-0.780194,1.086777,-0.724698,1.156366,-0.644504,1.194986,-0.555496,1.194986,-0.475302,1.156366,
-0.458579,1.141421,0.000000,0.682842,0.458579,1.141421,0.533944,1.188777,0.622393,1.198742,0.706406,1.169345,0.706406,1.169345,$1*%
%AMFreePoly4*
4,1,41,0.586777,0.930194,0.656366,0.874698,0.694986,0.794504,0.700000,0.750000,0.700000,-0.750000,0.680194,-0.836777,0.624698,-0.906366,0.544504,-0.944986,0.500000,-0.950000,0.000000,-0.950000,-0.023504,-0.944635,-0.083606,-0.943534,-0.139582,-0.934468,-0.274897,-0.892193,-0.326080,-0.867780,-0.444090,-0.789225,-0.486362,-0.751429,-0.577582,-0.642910,-0.607548,-0.594768,-0.664643,-0.465009,
-0.679893,-0.410393,-0.697476,-0.275933,-0.697084,-0.275882,-0.700000,-0.250000,-0.700000,0.250000,-0.697921,0.259109,-0.697582,0.286880,-0.675771,0.426957,-0.659192,0.481183,-0.598944,0.609508,-0.567811,0.656904,-0.473967,0.763162,-0.430783,0.799915,-0.310888,0.875563,-0.259125,0.898717,-0.122818,0.937674,-0.066635,0.945370,-0.042411,0.945222,0.000000,0.950000,0.500000,0.950000,
0.586777,0.930194,0.586777,0.930194,$1*%
%AMFreePoly5*
4,1,41,0.022678,0.944824,0.075125,0.944504,0.131210,0.936123,0.267031,0.895504,0.318507,0.871718,0.437469,0.794611,0.480202,0.757333,0.572740,0.649936,0.603290,0.602165,0.661967,0.473113,0.677883,0.418686,0.697980,0.278353,0.700000,0.250000,0.700000,-0.250000,0.699985,-0.252439,0.699836,-0.264655,0.697079,-0.295398,0.673559,-0.435199,0.656318,-0.489221,0.594506,-0.616800,
0.562797,-0.663810,0.467662,-0.768914,0.424032,-0.805137,0.303222,-0.879314,0.251181,-0.901834,0.114408,-0.939123,0.058135,-0.946132,0.037663,-0.945757,0.000000,-0.950000,-0.500000,-0.950000,-0.586777,-0.930194,-0.656366,-0.874698,-0.694986,-0.794504,-0.700000,-0.750000,-0.700000,0.750000,-0.680194,0.836777,-0.624698,0.906366,-0.544504,0.944986,-0.500000,0.950000,0.000000,0.950000,
0.022678,0.944824,0.022678,0.944824,$1*%
G04 Aperture macros list end*
%ADD10C,0.100000*%
%ADD11C,3.600000*%
%ADD12C,2.101800*%
%ADD13C,3.829000*%
%ADD14C,3.400000*%
%ADD15FreePoly0,165.000000*%
%ADD16FreePoly1,165.000000*%
%ADD17FreePoly0,180.000000*%
%ADD18FreePoly1,180.000000*%
%ADD19C,4.800000*%
%ADD20RoundRect,0.200000X0.700000X-0.600000X0.700000X0.600000X-0.700000X0.600000X-0.700000X-0.600000X0*%
%ADD21C,2.000000*%
%ADD22FreePoly2,270.000000*%
%ADD23FreePoly2,90.000000*%
%ADD24FreePoly3,90.000000*%
%ADD25FreePoly3,270.000000*%
%ADD26RoundRect,0.200000X-0.850000X0.850000X-0.850000X-0.850000X0.850000X-0.850000X0.850000X0.850000X0*%
%ADD27O,2.100000X2.100000*%
%ADD28RoundRect,0.200000X0.600000X0.700000X-0.600000X0.700000X-0.600000X-0.700000X0.600000X-0.700000X0*%
%ADD29FreePoly4,90.000000*%
%ADD30FreePoly5,90.000000*%
%ADD31RoundRect,0.400000X0.749519X0.201795X0.549519X0.548205X-0.749519X-0.201795X-0.549519X-0.548205X0*%
%ADD32RoundRect,0.450000X1.434086X0.366090X1.034086X1.058910X-1.434086X-0.366090X-1.034086X-1.058910X0*%
%ADD33RoundRect,0.200000X2.540000X-0.768600X2.540000X0.768600X-2.540000X0.768600X-2.540000X-0.768600X0*%
%ADD34C,16.400000*%
%ADD35RoundRect,0.400000X0.200000X0.450000X-0.200000X0.450000X-0.200000X-0.450000X0.200000X-0.450000X0*%
%ADD36O,1.200000X1.700000*%
%ADD37FreePoly0,150.000000*%
%ADD38FreePoly1,150.000000*%
%ADD39RoundRect,0.200000X0.096410X-0.633013X0.596410X0.233013X-0.096410X0.633013X-0.596410X-0.233013X0*%
%ADD40C,1.300000*%
%ADD41RoundRect,0.200000X0.474519X-0.678109X0.824519X-0.071891X-0.474519X0.678109X-0.824519X0.071891X0*%
G04 APERTURE END LIST*
G36*
X188350575Y-81964800D02*
G01*
X187334575Y-81964800D01*
X187334575Y-80948800D01*
X188350575Y-80948800D01*
X188350575Y-81964800D01*
G37*
D10*
X188350575Y-81964800D02*
X187334575Y-81964800D01*
X187334575Y-80948800D01*
X188350575Y-80948800D01*
X188350575Y-81964800D01*
G36*
X188350575Y-84504800D02*
G01*
X187334575Y-84504800D01*
X187334575Y-83488800D01*
X188350575Y-83488800D01*
X188350575Y-84504800D01*
G37*
X188350575Y-84504800D02*
X187334575Y-84504800D01*
X187334575Y-83488800D01*
X188350575Y-83488800D01*
X188350575Y-84504800D01*
G36*
X176971375Y-89584800D02*
G01*
X175955375Y-89584800D01*
X175955375Y-88568800D01*
X176971375Y-88568800D01*
X176971375Y-89584800D01*
G37*
X176971375Y-89584800D02*
X175955375Y-89584800D01*
X175955375Y-88568800D01*
X176971375Y-88568800D01*
X176971375Y-89584800D01*
G36*
X188350575Y-87044800D02*
G01*
X187334575Y-87044800D01*
X187334575Y-86028800D01*
X188350575Y-86028800D01*
X188350575Y-87044800D01*
G37*
X188350575Y-87044800D02*
X187334575Y-87044800D01*
X187334575Y-86028800D01*
X188350575Y-86028800D01*
X188350575Y-87044800D01*
G36*
X188350575Y-89584800D02*
G01*
X187334575Y-89584800D01*
X187334575Y-88568800D01*
X188350575Y-88568800D01*
X188350575Y-89584800D01*
G37*
X188350575Y-89584800D02*
X187334575Y-89584800D01*
X187334575Y-88568800D01*
X188350575Y-88568800D01*
X188350575Y-89584800D01*
G36*
X188350575Y-79424800D02*
G01*
X187334575Y-79424800D01*
X187334575Y-78408800D01*
X188350575Y-78408800D01*
X188350575Y-79424800D01*
G37*
X188350575Y-79424800D02*
X187334575Y-79424800D01*
X187334575Y-78408800D01*
X188350575Y-78408800D01*
X188350575Y-79424800D01*
G36*
X176971375Y-84504800D02*
G01*
X175955375Y-84504800D01*
X175955375Y-83488800D01*
X176971375Y-83488800D01*
X176971375Y-84504800D01*
G37*
X176971375Y-84504800D02*
X175955375Y-84504800D01*
X175955375Y-83488800D01*
X176971375Y-83488800D01*
X176971375Y-84504800D01*
G36*
X176971375Y-81964800D02*
G01*
X175955375Y-81964800D01*
X175955375Y-80948800D01*
X176971375Y-80948800D01*
X176971375Y-81964800D01*
G37*
X176971375Y-81964800D02*
X175955375Y-81964800D01*
X175955375Y-80948800D01*
X176971375Y-80948800D01*
X176971375Y-81964800D01*
G36*
X188350575Y-76884800D02*
G01*
X187334575Y-76884800D01*
X187334575Y-75868800D01*
X188350575Y-75868800D01*
X188350575Y-76884800D01*
G37*
X188350575Y-76884800D02*
X187334575Y-76884800D01*
X187334575Y-75868800D01*
X188350575Y-75868800D01*
X188350575Y-76884800D01*
G36*
X176971375Y-79424800D02*
G01*
X175955375Y-79424800D01*
X175955375Y-78408800D01*
X176971375Y-78408800D01*
X176971375Y-79424800D01*
G37*
X176971375Y-79424800D02*
X175955375Y-79424800D01*
X175955375Y-78408800D01*
X176971375Y-78408800D01*
X176971375Y-79424800D01*
G36*
X176971375Y-87044800D02*
G01*
X175955375Y-87044800D01*
X175955375Y-86028800D01*
X176971375Y-86028800D01*
X176971375Y-87044800D01*
G37*
X176971375Y-87044800D02*
X175955375Y-87044800D01*
X175955375Y-86028800D01*
X176971375Y-86028800D01*
X176971375Y-87044800D01*
G36*
X176971375Y-74344800D02*
G01*
X175955375Y-74344800D01*
X175955375Y-73328800D01*
X176971375Y-73328800D01*
X176971375Y-74344800D01*
G37*
X176971375Y-74344800D02*
X175955375Y-74344800D01*
X175955375Y-73328800D01*
X176971375Y-73328800D01*
X176971375Y-74344800D01*
G36*
X176971375Y-76884800D02*
G01*
X175955375Y-76884800D01*
X175955375Y-75868800D01*
X176971375Y-75868800D01*
X176971375Y-76884800D01*
G37*
X176971375Y-76884800D02*
X175955375Y-76884800D01*
X175955375Y-75868800D01*
X176971375Y-75868800D01*
X176971375Y-76884800D01*
G36*
X188350575Y-74344800D02*
G01*
X187334575Y-74344800D01*
X187334575Y-73328800D01*
X188350575Y-73328800D01*
X188350575Y-74344800D01*
G37*
X188350575Y-74344800D02*
X187334575Y-74344800D01*
X187334575Y-73328800D01*
X188350575Y-73328800D01*
X188350575Y-74344800D01*
D11*
X100404375Y-108229400D03*
D12*
X159078800Y-123044816D03*
D13*
X153766208Y-121621311D03*
D14*
X149907150Y-116704994D03*
D12*
X148453616Y-120197806D03*
D14*
X159566409Y-119293184D03*
X155306181Y-115874052D03*
D15*
X158469588Y-116721685D03*
D16*
X146743743Y-115857362D03*
D12*
X120109575Y-59988800D03*
D14*
X130609575Y-56238800D03*
D13*
X125609575Y-59988800D03*
D12*
X131109575Y-59988800D03*
D14*
X120609575Y-56238800D03*
X125609575Y-54038800D03*
D17*
X128884575Y-54038800D03*
D18*
X117334575Y-56238800D03*
D19*
X175086950Y-95203800D03*
D20*
X116428333Y-100481591D03*
X116428333Y-97081591D03*
D14*
X89439975Y-94430800D03*
X84439975Y-96630800D03*
D13*
X89439975Y-100380800D03*
D14*
X94439975Y-96630800D03*
D12*
X94939975Y-100380800D03*
X83939975Y-100380800D03*
D17*
X92714975Y-94430800D03*
D18*
X81164975Y-96630800D03*
D20*
X170123933Y-85139991D03*
X170123933Y-81739991D03*
D21*
X174594175Y-76376800D03*
D22*
X188096575Y-73836800D03*
D21*
X189696775Y-83996800D03*
X174594175Y-78916800D03*
X189696775Y-78916800D03*
X174594175Y-83996800D03*
D22*
X188096575Y-83996800D03*
D23*
X176209375Y-83996800D03*
D21*
X174594175Y-73836800D03*
X189696775Y-76376800D03*
X174594175Y-89076800D03*
D22*
X188096575Y-86536800D03*
X188096575Y-78916800D03*
X188096575Y-76376800D03*
D21*
X189696775Y-81456800D03*
X174594175Y-81456800D03*
X189696775Y-86536800D03*
X174594175Y-86536800D03*
D23*
X176209375Y-81456800D03*
X176209375Y-86536800D03*
X176209375Y-76376800D03*
D21*
X189696775Y-89076800D03*
D22*
X188096575Y-89076800D03*
D23*
X176209375Y-78916800D03*
X176209375Y-73836800D03*
D21*
X189696775Y-73836800D03*
D23*
X176209375Y-89076800D03*
D22*
X188096575Y-81456800D03*
D24*
X177225375Y-73836800D03*
X177225375Y-76376800D03*
X177225375Y-78916800D03*
X177225375Y-81456800D03*
X177225375Y-83996800D03*
X177225375Y-86536800D03*
X177225375Y-89076800D03*
D25*
X187080575Y-89076800D03*
X187080575Y-86536800D03*
X187080575Y-83996800D03*
X187080575Y-81456800D03*
X187080575Y-78916800D03*
X187080575Y-76376800D03*
X187080575Y-73836800D03*
D11*
X163943208Y-125050311D03*
D26*
X183402975Y-94329795D03*
D27*
X180862975Y-94329795D03*
D13*
X143694375Y-79806800D03*
D12*
X149194375Y-79806800D03*
X138194375Y-79806800D03*
D14*
X148694375Y-76056800D03*
X138694375Y-76056800D03*
X143694375Y-73856800D03*
D17*
X146969375Y-73856800D03*
D18*
X135419375Y-76056800D03*
D28*
X162670585Y-112408168D03*
X159270585Y-112408168D03*
D20*
X152496333Y-85035391D03*
X152496333Y-81635391D03*
D14*
X161779175Y-75990400D03*
D13*
X161779175Y-81940400D03*
D14*
X156779175Y-78190400D03*
D12*
X156279175Y-81940400D03*
X167279175Y-81940400D03*
D14*
X166779175Y-78190400D03*
D17*
X165054175Y-75990400D03*
D18*
X153504175Y-78190400D03*
D29*
X182152975Y-91525395D03*
D30*
X182152975Y-90225395D03*
D11*
X96679175Y-55270400D03*
D20*
X152496333Y-67867791D03*
X152496333Y-64467791D03*
D31*
X165807900Y-117215723D03*
X165182900Y-116133191D03*
D32*
X167979774Y-111227519D03*
X171454774Y-117246395D03*
D33*
X180744575Y-120290395D03*
X180744575Y-98053195D03*
D34*
X180744575Y-109171795D03*
D11*
X154514775Y-54152800D03*
D35*
X182777975Y-94024995D03*
D36*
X181527975Y-94024995D03*
D20*
X152496333Y-102005591D03*
X152496333Y-98605591D03*
X98394333Y-69442791D03*
X98394333Y-66042791D03*
D14*
X102524775Y-59546800D03*
X112524775Y-59546800D03*
D13*
X107524775Y-63296800D03*
D14*
X107524775Y-57346800D03*
D12*
X102024775Y-63296800D03*
X113024775Y-63296800D03*
D17*
X110799775Y-57346800D03*
D18*
X99249775Y-59546800D03*
D20*
X116428333Y-83511391D03*
X116428333Y-80111391D03*
D12*
X156279175Y-98958400D03*
D13*
X161779175Y-98958400D03*
D14*
X156779175Y-95208400D03*
X161779175Y-93008400D03*
X166779175Y-95208400D03*
D12*
X167279175Y-98958400D03*
D17*
X165054175Y-93008400D03*
D18*
X153504175Y-95208400D03*
D12*
X131109575Y-77006800D03*
D14*
X130609575Y-73256800D03*
X125609575Y-71056800D03*
D12*
X120109575Y-77006800D03*
D14*
X120609575Y-73256800D03*
D13*
X125609575Y-77006800D03*
D17*
X128884575Y-71056800D03*
D18*
X117334575Y-73256800D03*
D20*
X134462333Y-99205591D03*
X134462333Y-95805591D03*
X134462333Y-65118791D03*
X134462333Y-61718791D03*
D14*
X179783335Y-129001716D03*
D12*
X178341348Y-132499311D03*
D13*
X173578208Y-129749311D03*
D12*
X168815068Y-126999311D03*
D14*
X171123081Y-124001716D03*
X176553208Y-124596460D03*
D37*
X179389441Y-126233960D03*
D38*
X168286848Y-122364216D03*
D12*
X94939975Y-83413600D03*
X83939975Y-83413600D03*
D14*
X84439975Y-79663600D03*
X89439975Y-77463600D03*
X94439975Y-79663600D03*
D13*
X89439975Y-83413600D03*
D17*
X92714975Y-77463600D03*
D18*
X81164975Y-79663600D03*
D20*
X134462333Y-82235391D03*
X134462333Y-78835391D03*
D19*
X188675950Y-95254600D03*
D20*
X98394333Y-86559391D03*
X98394333Y-83159391D03*
X116428333Y-66394791D03*
X116428333Y-62994791D03*
D12*
X113024775Y-80314800D03*
X102024775Y-80314800D03*
D14*
X107524775Y-74364800D03*
X102524775Y-76564800D03*
D13*
X107524775Y-80314800D03*
D14*
X112524775Y-76564800D03*
D17*
X110799775Y-74364800D03*
D18*
X99249775Y-76564800D03*
D13*
X125609575Y-94024800D03*
D12*
X120109575Y-94024800D03*
D14*
X125609575Y-88074800D03*
X130609575Y-90274800D03*
X120609575Y-90274800D03*
D12*
X131109575Y-94024800D03*
D17*
X128884575Y-88074800D03*
D18*
X117334575Y-90274800D03*
D14*
X143694375Y-90874800D03*
X138694375Y-93074800D03*
D12*
X138194375Y-96824800D03*
X149194375Y-96824800D03*
D14*
X148694375Y-93074800D03*
D13*
X143694375Y-96824800D03*
D17*
X146969375Y-90874800D03*
D18*
X135419375Y-93074800D03*
D14*
X89439975Y-60394800D03*
X84439975Y-62594800D03*
X94439975Y-62594800D03*
D12*
X94939975Y-66344800D03*
D13*
X89439975Y-66344800D03*
D12*
X83939975Y-66344800D03*
D17*
X92714975Y-60394800D03*
D18*
X81164975Y-62594800D03*
D39*
X185741884Y-128962209D03*
D40*
X187364256Y-123952178D03*
D39*
X189391884Y-122640223D03*
X183827968Y-127857209D03*
D40*
X185864256Y-126550254D03*
D39*
X187477968Y-121535223D03*
D41*
X183965052Y-126319773D03*
X185465052Y-123721697D03*
X186215052Y-122422659D03*
D12*
X138194375Y-62788600D03*
D14*
X148694375Y-59038600D03*
D12*
X149194375Y-62788600D03*
D14*
X138694375Y-59038600D03*
D13*
X143694375Y-62788600D03*
D14*
X143694375Y-56838600D03*
D17*
X146969375Y-56838600D03*
D18*
X135419375Y-59038600D03*
D12*
X102024775Y-97332800D03*
X113024775Y-97332800D03*
D14*
X102524775Y-93582800D03*
D13*
X107524775Y-97332800D03*
D14*
X112524775Y-93582800D03*
X107524775Y-91382800D03*
D17*
X110799775Y-91382800D03*
D18*
X99249775Y-93582800D03*
D28*
X162670585Y-109715768D03*
X159270585Y-109715768D03*
D20*
X98394333Y-103529591D03*
X98394333Y-100129591D03*
X170123933Y-102110191D03*
X170123933Y-98710191D03*
D19*
X188675950Y-118406010D03*
D14*
X161779175Y-58972400D03*
X166779175Y-61172400D03*
X156779175Y-61172400D03*
D13*
X161779175Y-64922400D03*
D12*
X156279175Y-64922400D03*
X167279175Y-64922400D03*
D17*
X165054175Y-58972400D03*
D18*
X153504175Y-61172400D03*
D11*
X151718974Y-108813595D03*
D20*
X170123933Y-68023391D03*
X170123933Y-64623391D03*
D40*
X187364256Y-123952178D03*
X185864256Y-126550254D03*
M02*
