M48
; DRILL file {KiCad (6.0.6-0)} date Saturday, 17 September 2022 at 12:29:43
; FORMAT={-:-/ absolute / inch / decimal}
; #@! TF.CreationDate,2022-09-17T12:29:43+08:00
; #@! TF.GenerationSoftware,Kicad,Pcbnew,(6.0.6-0)
; #@! TF.FileFunction,Plated,1,2,PTH
FMAT,2
INCH
; #@! TA.AperFunction,Plated,PTH,ViaDrill
T1C0.0118
; #@! TA.AperFunction,Plated,PTH,ComponentDrill
T2C0.0138
; #@! TA.AperFunction,Plated,PTH,ViaDrill
T3C0.0157
; #@! TA.AperFunction,Plated,PTH,ComponentDrill
T4C0.0157
; #@! TA.AperFunction,Plated,PTH,ComponentDrill
T5C0.0197
; #@! TA.AperFunction,Plated,PTH,ComponentDrill
T6C0.0433
; #@! TA.AperFunction,Plated,PTH,ComponentDrill
T7C0.0866
%
G90
G05
T1
X3.5953Y-2.4539
X3.5953Y-3.1229
X3.5953Y-3.7899
X3.6721Y-2.8004
X3.8313Y-2.9519
X3.8799Y-3.1195
X3.8819Y-3.7895
X3.8869Y-2.4545
X3.9421Y-2.3114
X3.9421Y-2.9814
X3.9421Y-3.6514
X4.3073Y-2.3121
X4.3153Y-3.6481
X4.5387Y-2.893
X4.5919Y-2.3117
X4.5919Y-2.9837
X4.5919Y-3.6537
X4.6536Y-2.1512
X4.6536Y-3.4912
X4.6569Y-2.8187
X5.0173Y-2.1581
X5.0213Y-3.4928
X5.0233Y-2.8221
X5.3069Y-2.1537
X5.3069Y-2.8237
X5.3069Y-3.4937
X5.3656Y-3.6014
X5.3909Y-2.7567
X5.7253Y-2.2711
X5.7323Y-3.6031
X5.7383Y-2.9281
X5.7809Y-3.8271
X6.0169Y-2.2637
X6.0169Y-2.9337
X6.0169Y-3.6037
X6.0929Y-2.8627
X6.1509Y-4.8807
X6.2319Y-4.8447
X6.2461Y-3.9406
X6.4373Y-2.3711
X6.4389Y-3.7091
X6.4413Y-3.0355
X6.4821Y-3.9406
X6.5109Y-5.0247
X6.6991Y-3.6154
X6.7121Y-2.9586
X6.7269Y-2.3647
X6.7269Y-3.0297
X6.7269Y-3.6997
X6.7391Y-5.1764
X6.7801Y-3.4834
X6.8066Y-3.5172
X6.8066Y-3.897
X6.8241Y-3.0228
X6.8861Y-3.549
X7.0391Y-2.8207
X7.0411Y-3.1238
X7.0411Y-3.2228
X7.0441Y-3.4238
X7.0451Y-3.3258
X7.0561Y-3.0068
X7.0581Y-2.9048
X7.3081Y-3.2548
X7.3081Y-3.3568
X7.3081Y-3.4568
X7.3101Y-3.0563
X7.3101Y-3.1563
X7.3146Y-2.8563
T2
X7.15Y-3.826
X7.15Y-4.2637
X7.15Y-4.7015
X7.1827Y-3.4958
X7.1827Y-3.547
T3
X3.2296Y-2.4492
X3.2296Y-3.1212
X3.2296Y-3.7892
X4.1414Y-3.1786
X4.1474Y-3.7566
X4.3133Y-2.9821
X4.5169Y-2.1387
X4.8514Y-3.0644
X4.8569Y-3.5947
X5.3656Y-2.2614
X5.3656Y-2.9314
X5.5734Y-3.1106
X5.5754Y-3.7066
X6.0289Y-2.1487
X6.0776Y-2.3614
X6.0776Y-3.0314
X6.0776Y-3.7014
X6.2774Y-3.2166
X6.2854Y-3.8226
X6.5701Y-4.4914
X6.6629Y-2.7387
X6.6669Y-3.2447
X7.1241Y-2.9553
X7.1925Y-2.7593
X7.2189Y-4.8967
X7.2579Y-5.0577
X7.3092Y-2.9553
X7.3361Y-3.5314
X7.4949Y-4.5967
T4
X3.8802Y-2.5811
X3.8802Y-2.715
X3.8802Y-3.2531
X3.8802Y-3.387
X3.8802Y-3.9211
X3.8802Y-4.055
X4.5922Y-2.4433
X4.5922Y-2.5772
X4.5922Y-3.1133
X4.5922Y-3.2472
X4.5922Y-3.7833
X4.5922Y-3.9172
X5.3042Y-2.3799
X5.3042Y-2.5138
X5.3042Y-3.0499
X5.3042Y-3.1838
X5.3042Y-3.7199
X5.3042Y-3.8538
X6.0162Y-2.4669
X6.0162Y-2.6007
X6.0162Y-3.1369
X6.0162Y-3.2707
X6.0162Y-3.8069
X6.0162Y-3.9407
X6.3039Y-4.2618
X6.3039Y-4.3956
X6.4099Y-4.2618
X6.4099Y-4.3956
X6.7282Y-3.1633
X6.7282Y-3.2972
X6.7282Y-3.8333
X6.7282Y-3.9672
X6.7282Y-2.4933
X6.7282Y-2.6272
T5
X7.1581Y-3.6573
X7.2073Y-3.6573
T6
X6.8851Y-2.8561
X6.8851Y-2.9561
X6.8851Y-3.0561
X6.8851Y-3.1561
X6.8851Y-3.2561
X6.8851Y-3.3561
X6.8851Y-3.4561
X7.4797Y-2.8561
X7.4797Y-2.9561
X7.4797Y-3.0561
X7.4797Y-3.1561
X7.4797Y-3.2561
X7.4797Y-3.3561
X7.4797Y-3.4561
T7
X6.9273Y-3.6599
X7.3869Y-4.7947
X7.4241Y-3.6599
T0
M30
