M48
; DRILL file {KiCad (6.0.6-0)} date Saturday, 17 September 2022 at 12:29:44
; FORMAT={-:-/ absolute / inch / decimal}
; #@! TF.CreationDate,2022-09-17T12:29:44+08:00
; #@! TF.GenerationSoftware,Kicad,Pcbnew,(6.0.6-0)
; #@! TF.FileFunction,NonPlated,1,2,NPTH
FMAT,2
INCH
; #@! TA.AperFunction,NonPlated,NPTH,ComponentDrill
T1C0.0354
; #@! TA.AperFunction,NonPlated,NPTH,ComponentDrill
T2C0.0679
; #@! TA.AperFunction,NonPlated,NPTH,ComponentDrill
T3C0.1181
; #@! TA.AperFunction,NonPlated,NPTH,ComponentDrill
T4C0.1260
; #@! TA.AperFunction,NonPlated,NPTH,ComponentDrill
T5C0.1350
%
G90
G05
T1
X7.2426Y-5.1204
X7.2426Y-5.1204
X7.3017Y-5.0181
X7.3017Y-5.0181
T2
X3.3388Y-2.5969
X3.3388Y-3.2669
X3.3388Y-3.9369
X3.7719Y-2.5969
X3.7719Y-3.2669
X3.7719Y-3.9369
X4.0508Y-2.4591
X4.0508Y-3.1291
X4.0508Y-3.7991
X4.4839Y-2.4591
X4.4839Y-3.1291
X4.4839Y-3.7991
X4.7628Y-2.2988
X4.7628Y-2.9688
X4.7628Y-3.6388
X5.1959Y-2.2988
X5.1959Y-2.9688
X5.1959Y-3.6388
X5.4748Y-2.4091
X5.4748Y-3.0791
X5.4748Y-3.7491
X5.8777Y-4.6837
X5.9079Y-2.4091
X5.9079Y-3.0791
X5.9079Y-3.7491
X6.1868Y-2.5091
X6.1868Y-3.1791
X6.1868Y-3.8491
X6.296Y-4.7958
X6.6199Y-2.5091
X6.6199Y-3.1791
X6.6199Y-3.8491
X6.6794Y-4.9515
X7.0544Y-5.168
T3
X3.3585Y-2.4492
X3.3585Y-3.1192
X3.3585Y-3.7892
X3.5554Y-2.3626
X3.5554Y-3.0326
X3.5554Y-3.7026
X3.7522Y-2.4492
X3.7522Y-3.1192
X3.7522Y-3.7892
X4.0705Y-2.3114
X4.0705Y-2.9814
X4.0705Y-3.6514
X4.2674Y-2.2248
X4.2674Y-2.8948
X4.2674Y-3.5648
X4.4642Y-2.3114
X4.4642Y-2.9814
X4.4642Y-3.6514
X4.7825Y-2.1512
X4.7825Y-2.8212
X4.7825Y-3.4912
X4.9794Y-2.0646
X4.9794Y-2.7346
X4.9794Y-3.4046
X5.1762Y-2.1512
X5.1762Y-2.8212
X5.1762Y-3.4912
X5.4945Y-2.2614
X5.4945Y-2.9314
X5.4945Y-3.6014
X5.6914Y-2.1748
X5.6914Y-2.8448
X5.6914Y-3.5148
X5.8585Y-4.8314
X5.8882Y-2.2614
X5.8882Y-2.9314
X5.8882Y-3.6014
X6.0263Y-4.966
X6.2065Y-2.3614
X6.2065Y-3.0314
X6.2065Y-3.7014
X6.2388Y-4.9333
X6.4034Y-2.2748
X6.4034Y-2.9448
X6.4034Y-3.6148
X6.6002Y-2.3614
X6.6002Y-3.0314
X6.6002Y-3.7014
X6.6226Y-5.0892
X6.7498Y-5.2626
X6.9635Y-5.286
T4
X3.8391Y-2.1364
X3.9861Y-4.231
X5.9949Y-4.2247
X6.1169Y-2.0774
X6.5019Y-4.8367
T5
X3.5554Y-2.5969
X3.5554Y-3.2669
X3.5554Y-3.9369
X4.2674Y-2.4591
X4.2674Y-3.1291
X4.2674Y-3.7991
X4.9794Y-2.2988
X4.9794Y-2.9688
X4.9794Y-3.6388
X5.6914Y-2.4091
X5.6914Y-3.0791
X5.6914Y-3.7491
X6.0869Y-4.7397
X6.4034Y-2.5091
X6.4034Y-3.1791
X6.4034Y-3.8491
X6.8669Y-5.0597
T0
M30
