G04 #@! TF.GenerationSoftware,KiCad,Pcbnew,(6.0.6-0)*
G04 #@! TF.CreationDate,2022-09-17T12:29:46+08:00*
G04 #@! TF.ProjectId,Kretstr_d,4b726574-7374-472e-9464-2e6b69636164,rev?*
G04 #@! TF.SameCoordinates,Original*
G04 #@! TF.FileFunction,Soldermask,Top*
G04 #@! TF.FilePolarity,Negative*
%FSLAX46Y46*%
G04 Gerber Fmt 4.6, Leading zero omitted, Abs format (unit mm)*
G04 Created by KiCad (PCBNEW (6.0.6-0)) date 2022-09-17 12:29:46*
%MOMM*%
%LPD*%
G01*
G04 APERTURE LIST*
G04 Aperture macros list*
%AMRoundRect*
0 Rectangle with rounded corners*
0 $1 Rounding radius*
0 $2 $3 $4 $5 $6 $7 $8 $9 X,Y pos of 4 corners*
0 Add a 4 corners polygon primitive as box body*
4,1,4,$2,$3,$4,$5,$6,$7,$8,$9,$2,$3,0*
0 Add four circle primitives for the rounded corners*
1,1,$1+$1,$2,$3*
1,1,$1+$1,$4,$5*
1,1,$1+$1,$6,$7*
1,1,$1+$1,$8,$9*
0 Add four rect primitives between the rounded corners*
20,1,$1+$1,$2,$3,$4,$5,0*
20,1,$1+$1,$4,$5,$6,$7,0*
20,1,$1+$1,$6,$7,$8,$9,0*
20,1,$1+$1,$8,$9,$2,$3,0*%
%AMFreePoly0*
4,1,22,0.686777,0.580194,0.756366,0.524698,0.794986,0.444504,0.800000,0.400000,0.800000,0.200000,0.780194,0.113223,0.741421,0.058579,0.141421,-0.541421,0.066056,-0.588777,-0.022393,-0.598742,-0.106406,-0.569345,-0.141421,-0.541421,-0.741421,0.058579,-0.788777,0.133944,-0.800000,0.200000,-0.800000,0.400000,-0.780194,0.486777,-0.724698,0.556366,-0.644504,0.594986,-0.600000,0.600000,
0.600000,0.600000,0.686777,0.580194,0.686777,0.580194,$1*%
%AMFreePoly1*
4,1,26,0.706406,1.169345,0.769345,1.106406,0.798742,1.022393,0.800000,1.000000,0.800000,-0.250000,0.780194,-0.336777,0.724698,-0.406366,0.644504,-0.444986,0.600000,-0.450000,-0.600000,-0.450000,-0.686777,-0.430194,-0.756366,-0.374698,-0.794986,-0.294504,-0.800000,-0.250000,-0.800000,1.000000,-0.780194,1.086777,-0.724698,1.156366,-0.644504,1.194986,-0.555496,1.194986,-0.475302,1.156366,
-0.458579,1.141421,0.000000,0.682842,0.458579,1.141421,0.533944,1.188777,0.622393,1.198742,0.706406,1.169345,0.706406,1.169345,$1*%
%AMFreePoly2*
4,1,41,0.586777,0.930194,0.656366,0.874698,0.694986,0.794504,0.700000,0.750000,0.700000,-0.750000,0.680194,-0.836777,0.624698,-0.906366,0.544504,-0.944986,0.500000,-0.950000,0.000000,-0.950000,-0.023504,-0.944635,-0.083606,-0.943534,-0.139582,-0.934468,-0.274897,-0.892193,-0.326080,-0.867780,-0.444090,-0.789225,-0.486362,-0.751429,-0.577582,-0.642910,-0.607548,-0.594768,-0.664643,-0.465009,
-0.679893,-0.410393,-0.697476,-0.275933,-0.697084,-0.275882,-0.700000,-0.250000,-0.700000,0.250000,-0.697921,0.259109,-0.697582,0.286880,-0.675771,0.426957,-0.659192,0.481183,-0.598944,0.609508,-0.567811,0.656904,-0.473967,0.763162,-0.430783,0.799915,-0.310888,0.875563,-0.259125,0.898717,-0.122818,0.937674,-0.066635,0.945370,-0.042411,0.945222,0.000000,0.950000,0.500000,0.950000,
0.586777,0.930194,0.586777,0.930194,$1*%
%AMFreePoly3*
4,1,41,0.022678,0.944824,0.075125,0.944504,0.131210,0.936123,0.267031,0.895504,0.318507,0.871718,0.437469,0.794611,0.480202,0.757333,0.572740,0.649936,0.603290,0.602165,0.661967,0.473113,0.677883,0.418686,0.697980,0.278353,0.700000,0.250000,0.700000,-0.250000,0.699985,-0.252439,0.699836,-0.264655,0.697079,-0.295398,0.673559,-0.435199,0.656318,-0.489221,0.594506,-0.616800,
0.562797,-0.663810,0.467662,-0.768914,0.424032,-0.805137,0.303222,-0.879314,0.251181,-0.901834,0.114408,-0.939123,0.058135,-0.946132,0.037663,-0.945757,0.000000,-0.950000,-0.500000,-0.950000,-0.586777,-0.930194,-0.656366,-0.874698,-0.694986,-0.794504,-0.700000,-0.750000,-0.700000,0.750000,-0.680194,0.836777,-0.624698,0.906366,-0.544504,0.944986,-0.500000,0.950000,0.000000,0.950000,
0.022678,0.944824,0.022678,0.944824,$1*%
G04 Aperture macros list end*
%ADD10C,0.100000*%
%ADD11RoundRect,0.200000X0.700000X-0.600000X0.700000X0.600000X-0.700000X0.600000X-0.700000X-0.600000X0*%
%ADD12C,2.125000*%
%ADD13C,3.400000*%
%ADD14C,3.829000*%
%ADD15RoundRect,0.200000X1.300000X1.300000X-1.300000X1.300000X-1.300000X-1.300000X1.300000X-1.300000X0*%
%ADD16C,3.600000*%
%ADD17C,4.800000*%
%ADD18RoundRect,0.200000X0.096410X-0.633013X0.596410X0.233013X-0.096410X0.633013X-0.596410X-0.233013X0*%
%ADD19C,1.300000*%
%ADD20RoundRect,0.200000X0.474519X-0.678109X0.824519X-0.071891X-0.474519X0.678109X-0.824519X0.071891X0*%
%ADD21RoundRect,0.400000X0.200000X0.450000X-0.200000X0.450000X-0.200000X-0.450000X0.200000X-0.450000X0*%
%ADD22O,1.200000X1.700000*%
%ADD23RoundRect,0.200000X-1.775833X-0.475833X0.475833X-1.775833X1.775833X0.475833X-0.475833X1.775833X0*%
%ADD24RoundRect,0.200000X-0.700000X0.600000X-0.700000X-0.600000X0.700000X-0.600000X0.700000X0.600000X0*%
%ADD25RoundRect,0.400000X0.773173X0.068577X0.636365X0.444454X-0.773173X-0.068577X-0.636365X-0.444454X0*%
%ADD26RoundRect,0.450000X1.475870X0.111502X1.202254X0.863256X-1.475870X-0.111502X-1.202254X-0.863256X0*%
%ADD27C,2.000000*%
%ADD28FreePoly0,270.000000*%
%ADD29FreePoly0,90.000000*%
%ADD30FreePoly1,90.000000*%
%ADD31FreePoly1,270.000000*%
%ADD32RoundRect,0.200000X-1.592168X-0.919239X0.919239X-1.592168X1.592168X0.919239X-0.919239X1.592168X0*%
%ADD33FreePoly2,90.000000*%
%ADD34FreePoly3,90.000000*%
%ADD35RoundRect,0.200000X2.540000X-0.768600X2.540000X0.768600X-2.540000X0.768600X-2.540000X-0.768600X0*%
%ADD36C,16.400000*%
G04 APERTURE END LIST*
G36*
X188637651Y-80672681D02*
G01*
X187621651Y-80672681D01*
X187621651Y-79656681D01*
X188637651Y-79656681D01*
X188637651Y-80672681D01*
G37*
D10*
X188637651Y-80672681D02*
X187621651Y-80672681D01*
X187621651Y-79656681D01*
X188637651Y-79656681D01*
X188637651Y-80672681D01*
G36*
X188637651Y-83212681D02*
G01*
X187621651Y-83212681D01*
X187621651Y-82196681D01*
X188637651Y-82196681D01*
X188637651Y-83212681D01*
G37*
X188637651Y-83212681D02*
X187621651Y-83212681D01*
X187621651Y-82196681D01*
X188637651Y-82196681D01*
X188637651Y-83212681D01*
G36*
X177258451Y-88292681D02*
G01*
X176242451Y-88292681D01*
X176242451Y-87276681D01*
X177258451Y-87276681D01*
X177258451Y-88292681D01*
G37*
X177258451Y-88292681D02*
X176242451Y-88292681D01*
X176242451Y-87276681D01*
X177258451Y-87276681D01*
X177258451Y-88292681D01*
G36*
X188637651Y-85752681D02*
G01*
X187621651Y-85752681D01*
X187621651Y-84736681D01*
X188637651Y-84736681D01*
X188637651Y-85752681D01*
G37*
X188637651Y-85752681D02*
X187621651Y-85752681D01*
X187621651Y-84736681D01*
X188637651Y-84736681D01*
X188637651Y-85752681D01*
G36*
X188637651Y-88292681D02*
G01*
X187621651Y-88292681D01*
X187621651Y-87276681D01*
X188637651Y-87276681D01*
X188637651Y-88292681D01*
G37*
X188637651Y-88292681D02*
X187621651Y-88292681D01*
X187621651Y-87276681D01*
X188637651Y-87276681D01*
X188637651Y-88292681D01*
G36*
X188637651Y-78132681D02*
G01*
X187621651Y-78132681D01*
X187621651Y-77116681D01*
X188637651Y-77116681D01*
X188637651Y-78132681D01*
G37*
X188637651Y-78132681D02*
X187621651Y-78132681D01*
X187621651Y-77116681D01*
X188637651Y-77116681D01*
X188637651Y-78132681D01*
G36*
X177258451Y-83212681D02*
G01*
X176242451Y-83212681D01*
X176242451Y-82196681D01*
X177258451Y-82196681D01*
X177258451Y-83212681D01*
G37*
X177258451Y-83212681D02*
X176242451Y-83212681D01*
X176242451Y-82196681D01*
X177258451Y-82196681D01*
X177258451Y-83212681D01*
G36*
X177258451Y-80672681D02*
G01*
X176242451Y-80672681D01*
X176242451Y-79656681D01*
X177258451Y-79656681D01*
X177258451Y-80672681D01*
G37*
X177258451Y-80672681D02*
X176242451Y-80672681D01*
X176242451Y-79656681D01*
X177258451Y-79656681D01*
X177258451Y-80672681D01*
G36*
X188637651Y-75592681D02*
G01*
X187621651Y-75592681D01*
X187621651Y-74576681D01*
X188637651Y-74576681D01*
X188637651Y-75592681D01*
G37*
X188637651Y-75592681D02*
X187621651Y-75592681D01*
X187621651Y-74576681D01*
X188637651Y-74576681D01*
X188637651Y-75592681D01*
G36*
X177258451Y-78132681D02*
G01*
X176242451Y-78132681D01*
X176242451Y-77116681D01*
X177258451Y-77116681D01*
X177258451Y-78132681D01*
G37*
X177258451Y-78132681D02*
X176242451Y-78132681D01*
X176242451Y-77116681D01*
X177258451Y-77116681D01*
X177258451Y-78132681D01*
G36*
X177258451Y-85752681D02*
G01*
X176242451Y-85752681D01*
X176242451Y-84736681D01*
X177258451Y-84736681D01*
X177258451Y-85752681D01*
G37*
X177258451Y-85752681D02*
X176242451Y-85752681D01*
X176242451Y-84736681D01*
X177258451Y-84736681D01*
X177258451Y-85752681D01*
G36*
X177258451Y-73052681D02*
G01*
X176242451Y-73052681D01*
X176242451Y-72036681D01*
X177258451Y-72036681D01*
X177258451Y-73052681D01*
G37*
X177258451Y-73052681D02*
X176242451Y-73052681D01*
X176242451Y-72036681D01*
X177258451Y-72036681D01*
X177258451Y-73052681D01*
G36*
X177258451Y-75592681D02*
G01*
X176242451Y-75592681D01*
X176242451Y-74576681D01*
X177258451Y-74576681D01*
X177258451Y-75592681D01*
G37*
X177258451Y-75592681D02*
X176242451Y-75592681D01*
X176242451Y-74576681D01*
X177258451Y-74576681D01*
X177258451Y-75592681D01*
G36*
X188637651Y-73052681D02*
G01*
X187621651Y-73052681D01*
X187621651Y-72036681D01*
X188637651Y-72036681D01*
X188637651Y-73052681D01*
G37*
X188637651Y-73052681D02*
X187621651Y-73052681D01*
X187621651Y-72036681D01*
X188637651Y-72036681D01*
X188637651Y-73052681D01*
D11*
X170895790Y-83748281D03*
X170895790Y-80348281D03*
D12*
X102891390Y-96496681D03*
D13*
X103391390Y-92746681D03*
X113391390Y-92746681D03*
D12*
X113891390Y-96496681D03*
D14*
X108391390Y-96496681D03*
D13*
X108391390Y-90546681D03*
D15*
X111666390Y-90546681D03*
X100116390Y-92746681D03*
D11*
X134726190Y-80868080D03*
X134726190Y-77468080D03*
D16*
X101245857Y-107468340D03*
D11*
X98556590Y-86029481D03*
X98556590Y-82629481D03*
D14*
X126476190Y-75408681D03*
D13*
X131476190Y-71658681D03*
X126476190Y-69458681D03*
D12*
X131976190Y-75408681D03*
X120976190Y-75408681D03*
D13*
X121476190Y-71658681D03*
D15*
X129751190Y-69458681D03*
X118201190Y-71658681D03*
D12*
X102891390Y-79478681D03*
D13*
X113391390Y-75728681D03*
X108391390Y-73528681D03*
D14*
X108391390Y-79478681D03*
D12*
X113891390Y-79478681D03*
D13*
X103391390Y-75728681D03*
D15*
X111666390Y-73528681D03*
X100116390Y-75728681D03*
D17*
X188571312Y-92962481D03*
D13*
X131476190Y-88676681D03*
X121476190Y-88676681D03*
X126476190Y-86476681D03*
D12*
X131976190Y-92426681D03*
X120976190Y-92426681D03*
D14*
X126476190Y-92426681D03*
D15*
X129751190Y-86476681D03*
X118201190Y-88676681D03*
D11*
X116641390Y-99496681D03*
X116641390Y-96096681D03*
X116641390Y-82478681D03*
X116641390Y-79078681D03*
D18*
X183839867Y-132469073D03*
D19*
X185462239Y-127459042D03*
D18*
X187489867Y-126147087D03*
X181925951Y-131364073D03*
D19*
X183962239Y-130057118D03*
D18*
X185575951Y-125042087D03*
D20*
X182063035Y-129826637D03*
X183563035Y-127228561D03*
X184313035Y-125929523D03*
D13*
X103391390Y-58710681D03*
X108391390Y-56510681D03*
D14*
X108391390Y-62460681D03*
D12*
X113891390Y-62460681D03*
D13*
X113391390Y-58710681D03*
D12*
X102891390Y-62460681D03*
D15*
X111666390Y-56510681D03*
X100116390Y-58710681D03*
D21*
X183065051Y-92895940D03*
D22*
X181815051Y-92895940D03*
D11*
X152810990Y-83076680D03*
X152810990Y-79676680D03*
D14*
X90306590Y-99996681D03*
D12*
X95806590Y-99996681D03*
D13*
X90306590Y-94046681D03*
X85306590Y-96246681D03*
D12*
X84806590Y-99996681D03*
D13*
X95306590Y-96246681D03*
D15*
X93581590Y-94046681D03*
X82031590Y-96246681D03*
D13*
X139560990Y-57440481D03*
X144560990Y-55240481D03*
D14*
X144560990Y-61190481D03*
D13*
X149560990Y-57440481D03*
D12*
X150060990Y-61190481D03*
X139060990Y-61190481D03*
D15*
X147835990Y-55240481D03*
X136285990Y-57440481D03*
D11*
X170895851Y-66730280D03*
X170895851Y-63330280D03*
D16*
X152270051Y-107307880D03*
D12*
X179181991Y-131266880D03*
D13*
X176873978Y-134264475D03*
D12*
X169655711Y-125766880D03*
D13*
X168213724Y-129264475D03*
X171443851Y-133669731D03*
D14*
X174418851Y-128516880D03*
D23*
X168607618Y-132032231D03*
X179710211Y-135901975D03*
D24*
X160118651Y-108249480D03*
X160118651Y-111649480D03*
D12*
X120976190Y-58390681D03*
D13*
X121476190Y-54640681D03*
D12*
X131976190Y-58390681D03*
D13*
X131476190Y-54640681D03*
X126476190Y-52440681D03*
D14*
X126476190Y-58390681D03*
D15*
X129751190Y-52440681D03*
X118201190Y-54640681D03*
D17*
X187626851Y-121785880D03*
D24*
X162811051Y-108249480D03*
X162811051Y-111649480D03*
D11*
X98556590Y-102996681D03*
X98556590Y-99596681D03*
D25*
X165351662Y-115286210D03*
X164924137Y-114111595D03*
D26*
X168530381Y-109766122D03*
X170907421Y-116296986D03*
D13*
X149560990Y-91476681D03*
D12*
X139060990Y-95226681D03*
D14*
X144560990Y-95226681D03*
D13*
X139560990Y-91476681D03*
X144560990Y-89276681D03*
D12*
X150060990Y-95226681D03*
D15*
X147835990Y-89276681D03*
X136285990Y-91476681D03*
D14*
X144560990Y-78208681D03*
D12*
X139060990Y-78208681D03*
D13*
X139560990Y-74458681D03*
X149560990Y-74458681D03*
D12*
X150060990Y-78208681D03*
D13*
X144560990Y-72258681D03*
D15*
X147835990Y-72258681D03*
X136285990Y-74458681D03*
D16*
X97512067Y-54264934D03*
D11*
X116641390Y-65460681D03*
X116641390Y-62060681D03*
D14*
X90306590Y-82978681D03*
D12*
X84806590Y-82978681D03*
D13*
X85306590Y-79228681D03*
X90306590Y-77028681D03*
X95306590Y-79228681D03*
D12*
X95806590Y-82978681D03*
D15*
X93581590Y-77028681D03*
X82031590Y-79228681D03*
D11*
X134726190Y-97886080D03*
X134726190Y-94486080D03*
D12*
X84806590Y-65960681D03*
D13*
X95306590Y-62210681D03*
D14*
X90306590Y-65960681D03*
D13*
X85306590Y-62210681D03*
X90306590Y-60010681D03*
D12*
X95806590Y-65960681D03*
D15*
X93581590Y-60010681D03*
X82031590Y-62210681D03*
D17*
X175953565Y-92962481D03*
D11*
X134726190Y-63850080D03*
X134726190Y-60450080D03*
D13*
X157645790Y-94016281D03*
D12*
X157145790Y-97766281D03*
D13*
X167645790Y-94016281D03*
D14*
X162645790Y-97766281D03*
D12*
X168145790Y-97766281D03*
D13*
X162645790Y-91816281D03*
D15*
X165920790Y-91816281D03*
X154370790Y-94016281D03*
D16*
X165147851Y-122852680D03*
X155368851Y-52766334D03*
D27*
X174881251Y-75084681D03*
D28*
X188383651Y-72544681D03*
D27*
X189983851Y-82704681D03*
X174881251Y-77624681D03*
X189983851Y-77624681D03*
X174881251Y-82704681D03*
D28*
X188383651Y-82704681D03*
D29*
X176496451Y-82704681D03*
D27*
X174881251Y-72544681D03*
X189983851Y-75084681D03*
X174881251Y-87784681D03*
D28*
X188383651Y-85244681D03*
X188383651Y-77624681D03*
X188383651Y-75084681D03*
D27*
X189983851Y-80164681D03*
X174881251Y-80164681D03*
X189983851Y-85244681D03*
X174881251Y-85244681D03*
D29*
X176496451Y-80164681D03*
X176496451Y-85244681D03*
X176496451Y-75084681D03*
D27*
X189983851Y-87784681D03*
D28*
X188383651Y-87784681D03*
D29*
X176496451Y-77624681D03*
X176496451Y-72544681D03*
D27*
X189983851Y-72544681D03*
D29*
X176496451Y-87784681D03*
D28*
X188383651Y-80164681D03*
D30*
X177512451Y-72544681D03*
X177512451Y-75084681D03*
X177512451Y-77624681D03*
X177512451Y-80164681D03*
X177512451Y-82704681D03*
X177512451Y-85244681D03*
X177512451Y-87784681D03*
D31*
X187367651Y-87784681D03*
X187367651Y-85244681D03*
X187367651Y-82704681D03*
X187367651Y-80164681D03*
X187367651Y-77624681D03*
X187367651Y-75084681D03*
X187367651Y-72544681D03*
D14*
X154606851Y-120388880D03*
D12*
X159919443Y-121812385D03*
D13*
X148806650Y-122717007D03*
X153066878Y-126136139D03*
X158465909Y-125305197D03*
D12*
X149294259Y-118965375D03*
D32*
X149903471Y-125288506D03*
X161629316Y-126152829D03*
D11*
X152810990Y-66058480D03*
X152810990Y-62658480D03*
X152810990Y-100094680D03*
X152810990Y-96694680D03*
D33*
X182440051Y-90093940D03*
D34*
X182440051Y-88793940D03*
D11*
X170895790Y-100766281D03*
X170895790Y-97366281D03*
X98556590Y-68960681D03*
X98556590Y-65560681D03*
D35*
X181611190Y-119417480D03*
X181611190Y-97180280D03*
D36*
X181611190Y-108298880D03*
D13*
X167645790Y-59980281D03*
X162645790Y-57780281D03*
D12*
X157145790Y-63730281D03*
D13*
X157645790Y-59980281D03*
D14*
X162645790Y-63730281D03*
D12*
X168145790Y-63730281D03*
D15*
X165920790Y-57780281D03*
X154370790Y-59980281D03*
D13*
X167645790Y-76998281D03*
D12*
X168145790Y-80748281D03*
D13*
X162645790Y-74798281D03*
D12*
X157145790Y-80748281D03*
D14*
X162645790Y-80748281D03*
D13*
X157645790Y-76998281D03*
D15*
X165920790Y-74798281D03*
X154370790Y-76998281D03*
D19*
X185462239Y-127459042D03*
X183962239Y-130057118D03*
M02*
