G04 #@! TF.GenerationSoftware,KiCad,Pcbnew,(6.0.6-0)*
G04 #@! TF.CreationDate,2022-09-17T12:29:46+08:00*
G04 #@! TF.ProjectId,Kretstr_d,4b726574-7374-472e-9464-2e6b69636164,rev?*
G04 #@! TF.SameCoordinates,Original*
G04 #@! TF.FileFunction,Legend,Top*
G04 #@! TF.FilePolarity,Positive*
%FSLAX46Y46*%
G04 Gerber Fmt 4.6, Leading zero omitted, Abs format (unit mm)*
G04 Created by KiCad (PCBNEW (6.0.6-0)) date 2022-09-17 12:29:46*
%MOMM*%
%LPD*%
G01*
G04 APERTURE LIST*
G04 Aperture macros list*
%AMRoundRect*
0 Rectangle with rounded corners*
0 $1 Rounding radius*
0 $2 $3 $4 $5 $6 $7 $8 $9 X,Y pos of 4 corners*
0 Add a 4 corners polygon primitive as box body*
4,1,4,$2,$3,$4,$5,$6,$7,$8,$9,$2,$3,0*
0 Add four circle primitives for the rounded corners*
1,1,$1+$1,$2,$3*
1,1,$1+$1,$4,$5*
1,1,$1+$1,$6,$7*
1,1,$1+$1,$8,$9*
0 Add four rect primitives between the rounded corners*
20,1,$1+$1,$2,$3,$4,$5,0*
20,1,$1+$1,$4,$5,$6,$7,0*
20,1,$1+$1,$6,$7,$8,$9,0*
20,1,$1+$1,$8,$9,$2,$3,0*%
%AMFreePoly0*
4,1,22,0.686777,0.580194,0.756366,0.524698,0.794986,0.444504,0.800000,0.400000,0.800000,0.200000,0.780194,0.113223,0.741421,0.058579,0.141421,-0.541421,0.066056,-0.588777,-0.022393,-0.598742,-0.106406,-0.569345,-0.141421,-0.541421,-0.741421,0.058579,-0.788777,0.133944,-0.800000,0.200000,-0.800000,0.400000,-0.780194,0.486777,-0.724698,0.556366,-0.644504,0.594986,-0.600000,0.600000,
0.600000,0.600000,0.686777,0.580194,0.686777,0.580194,$1*%
%AMFreePoly1*
4,1,26,0.706406,1.169345,0.769345,1.106406,0.798742,1.022393,0.800000,1.000000,0.800000,-0.250000,0.780194,-0.336777,0.724698,-0.406366,0.644504,-0.444986,0.600000,-0.450000,-0.600000,-0.450000,-0.686777,-0.430194,-0.756366,-0.374698,-0.794986,-0.294504,-0.800000,-0.250000,-0.800000,1.000000,-0.780194,1.086777,-0.724698,1.156366,-0.644504,1.194986,-0.555496,1.194986,-0.475302,1.156366,
-0.458579,1.141421,0.000000,0.682842,0.458579,1.141421,0.533944,1.188777,0.622393,1.198742,0.706406,1.169345,0.706406,1.169345,$1*%
%AMFreePoly2*
4,1,41,0.586777,0.930194,0.656366,0.874698,0.694986,0.794504,0.700000,0.750000,0.700000,-0.750000,0.680194,-0.836777,0.624698,-0.906366,0.544504,-0.944986,0.500000,-0.950000,0.000000,-0.950000,-0.023504,-0.944635,-0.083606,-0.943534,-0.139582,-0.934468,-0.274897,-0.892193,-0.326080,-0.867780,-0.444090,-0.789225,-0.486362,-0.751429,-0.577582,-0.642910,-0.607548,-0.594768,-0.664643,-0.465009,
-0.679893,-0.410393,-0.697476,-0.275933,-0.697084,-0.275882,-0.700000,-0.250000,-0.700000,0.250000,-0.697921,0.259109,-0.697582,0.286880,-0.675771,0.426957,-0.659192,0.481183,-0.598944,0.609508,-0.567811,0.656904,-0.473967,0.763162,-0.430783,0.799915,-0.310888,0.875563,-0.259125,0.898717,-0.122818,0.937674,-0.066635,0.945370,-0.042411,0.945222,0.000000,0.950000,0.500000,0.950000,
0.586777,0.930194,0.586777,0.930194,$1*%
%AMFreePoly3*
4,1,41,0.022678,0.944824,0.075125,0.944504,0.131210,0.936123,0.267031,0.895504,0.318507,0.871718,0.437469,0.794611,0.480202,0.757333,0.572740,0.649936,0.603290,0.602165,0.661967,0.473113,0.677883,0.418686,0.697980,0.278353,0.700000,0.250000,0.700000,-0.250000,0.699985,-0.252439,0.699836,-0.264655,0.697079,-0.295398,0.673559,-0.435199,0.656318,-0.489221,0.594506,-0.616800,
0.562797,-0.663810,0.467662,-0.768914,0.424032,-0.805137,0.303222,-0.879314,0.251181,-0.901834,0.114408,-0.939123,0.058135,-0.946132,0.037663,-0.945757,0.000000,-0.950000,-0.500000,-0.950000,-0.586777,-0.930194,-0.656366,-0.874698,-0.694986,-0.794504,-0.700000,-0.750000,-0.700000,0.750000,-0.680194,0.836777,-0.624698,0.906366,-0.544504,0.944986,-0.500000,0.950000,0.000000,0.950000,
0.022678,0.944824,0.022678,0.944824,$1*%
G04 Aperture macros list end*
%ADD10C,0.150000*%
%ADD11C,0.200000*%
%ADD12C,0.120000*%
%ADD13C,0.100000*%
%ADD14RoundRect,0.200000X0.700000X-0.600000X0.700000X0.600000X-0.700000X0.600000X-0.700000X-0.600000X0*%
%ADD15C,2.125000*%
%ADD16C,3.400000*%
%ADD17C,3.829000*%
%ADD18RoundRect,0.200000X1.300000X1.300000X-1.300000X1.300000X-1.300000X-1.300000X1.300000X-1.300000X0*%
%ADD19C,3.600000*%
%ADD20C,4.800000*%
%ADD21RoundRect,0.200000X0.096410X-0.633013X0.596410X0.233013X-0.096410X0.633013X-0.596410X-0.233013X0*%
%ADD22C,1.300000*%
%ADD23RoundRect,0.200000X0.474519X-0.678109X0.824519X-0.071891X-0.474519X0.678109X-0.824519X0.071891X0*%
%ADD24RoundRect,0.400000X0.200000X0.450000X-0.200000X0.450000X-0.200000X-0.450000X0.200000X-0.450000X0*%
%ADD25O,1.200000X1.700000*%
%ADD26RoundRect,0.200000X-1.775833X-0.475833X0.475833X-1.775833X1.775833X0.475833X-0.475833X1.775833X0*%
%ADD27RoundRect,0.200000X-0.700000X0.600000X-0.700000X-0.600000X0.700000X-0.600000X0.700000X0.600000X0*%
%ADD28RoundRect,0.400000X0.773173X0.068577X0.636365X0.444454X-0.773173X-0.068577X-0.636365X-0.444454X0*%
%ADD29RoundRect,0.450000X1.475870X0.111502X1.202254X0.863256X-1.475870X-0.111502X-1.202254X-0.863256X0*%
%ADD30C,2.000000*%
%ADD31FreePoly0,270.000000*%
%ADD32FreePoly0,90.000000*%
%ADD33FreePoly1,90.000000*%
%ADD34FreePoly1,270.000000*%
%ADD35RoundRect,0.200000X-1.592168X-0.919239X0.919239X-1.592168X1.592168X0.919239X-0.919239X1.592168X0*%
%ADD36FreePoly2,90.000000*%
%ADD37FreePoly3,90.000000*%
%ADD38RoundRect,0.200000X2.540000X-0.768600X2.540000X0.768600X-2.540000X0.768600X-2.540000X-0.768600X0*%
%ADD39C,16.400000*%
G04 APERTURE END LIST*
D10*
X163692709Y-112261076D02*
X163235567Y-112261076D01*
X186497552Y-92661616D02*
X185735647Y-92661616D01*
X186116600Y-93042568D02*
X186116600Y-92280664D01*
X110980023Y-108749444D02*
X111187079Y-107976704D01*
X111421589Y-108867762D02*
X111208732Y-108337458D01*
X111628645Y-108095021D02*
X111068761Y-108418270D01*
X111752764Y-108956500D02*
X111890801Y-108441339D01*
X111851362Y-108588528D02*
X111907878Y-108524793D01*
X111954535Y-108497856D01*
X112037989Y-108480778D01*
X112111584Y-108500498D01*
X112535364Y-109126758D02*
X112451910Y-109143835D01*
X112304722Y-109104396D01*
X112240987Y-109047879D01*
X112223909Y-108964425D01*
X112302788Y-108670048D01*
X112359304Y-108606313D01*
X112442758Y-108589236D01*
X112589947Y-108628675D01*
X112653682Y-108685192D01*
X112670759Y-108768646D01*
X112651040Y-108842240D01*
X112263348Y-108817237D01*
X112921122Y-108717413D02*
X113215499Y-108796291D01*
X113100532Y-108489412D02*
X112923056Y-109151761D01*
X112940133Y-109235215D01*
X113003868Y-109291732D01*
X113077462Y-109311451D01*
X113308105Y-109333813D02*
X113371840Y-109390330D01*
X113519028Y-109429769D01*
X113602482Y-109412691D01*
X113658999Y-109348957D01*
X113668859Y-109312159D01*
X113651781Y-109228705D01*
X113588047Y-109172189D01*
X113477655Y-109142609D01*
X113413921Y-109086092D01*
X113396843Y-109002638D01*
X113406703Y-108965841D01*
X113463220Y-108902107D01*
X113546674Y-108885029D01*
X113657065Y-108914608D01*
X113720800Y-108971125D01*
X113988240Y-109003346D02*
X114282617Y-109082224D01*
X114167650Y-108775345D02*
X113990174Y-109437694D01*
X114007251Y-109521149D01*
X114070986Y-109577665D01*
X114144580Y-109597385D01*
X114402161Y-109666403D02*
X114540197Y-109151243D01*
X114500758Y-109298432D02*
X114557275Y-109234697D01*
X114603932Y-109207760D01*
X114687386Y-109190682D01*
X114760980Y-109210401D01*
X115211698Y-109883318D02*
X115320156Y-109478549D01*
X115303078Y-109395095D01*
X115239344Y-109338579D01*
X115092155Y-109299139D01*
X115008701Y-109316217D01*
X115221558Y-109846521D02*
X115138104Y-109863599D01*
X114954118Y-109814300D01*
X114890384Y-109757783D01*
X114873306Y-109674329D01*
X114893025Y-109600735D01*
X114949542Y-109537000D01*
X115032996Y-109519922D01*
X115216982Y-109569221D01*
X115300436Y-109552144D01*
X115087579Y-109021840D02*
X115114516Y-109068497D01*
X115067859Y-109095434D01*
X115040922Y-109048777D01*
X115087579Y-109021840D01*
X115067859Y-109095434D01*
X115381956Y-109100718D02*
X115408894Y-109147375D01*
X115362237Y-109174312D01*
X115335299Y-109127655D01*
X115381956Y-109100718D01*
X115362237Y-109174312D01*
X115910845Y-110070654D02*
X116117900Y-109297913D01*
X115920704Y-110033857D02*
X115837250Y-110050934D01*
X115690062Y-110011495D01*
X115626327Y-109954979D01*
X115599390Y-109908322D01*
X115582312Y-109824868D01*
X115641471Y-109604085D01*
X115697987Y-109540350D01*
X115744644Y-109513413D01*
X115828098Y-109496335D01*
X115975287Y-109535774D01*
X116039022Y-109592291D01*
X116325473Y-110142314D02*
X116315614Y-110179111D01*
X116259097Y-110242846D01*
X116212440Y-110269783D01*
X117696829Y-110470329D02*
X117650172Y-110497266D01*
X117529920Y-110504484D01*
X117456326Y-110484764D01*
X117355794Y-110418388D01*
X117301919Y-110325074D01*
X117284842Y-110241620D01*
X117287484Y-110084571D01*
X117317063Y-109974180D01*
X117393299Y-109836851D01*
X117449816Y-109773116D01*
X117543130Y-109719242D01*
X117663381Y-109712024D01*
X117736976Y-109731743D01*
X117837507Y-109798120D01*
X117864445Y-109844777D01*
X118008284Y-110632661D02*
X118146320Y-110117501D01*
X118215339Y-109859920D02*
X118168682Y-109886858D01*
X118195619Y-109933515D01*
X118242276Y-109906577D01*
X118215339Y-109859920D01*
X118195619Y-109933515D01*
X118376255Y-110731259D02*
X118514292Y-110216098D01*
X118474853Y-110363287D02*
X118531370Y-110299552D01*
X118578027Y-110272615D01*
X118661481Y-110255537D01*
X118735075Y-110275257D01*
X119195653Y-110911377D02*
X119112199Y-110928454D01*
X118965010Y-110889015D01*
X118901276Y-110832498D01*
X118874338Y-110785841D01*
X118857261Y-110702387D01*
X118916419Y-110481604D01*
X118972936Y-110417870D01*
X119019593Y-110390932D01*
X119103047Y-110373855D01*
X119250236Y-110413294D01*
X119313970Y-110469811D01*
X119986179Y-110610489D02*
X119848142Y-111125650D01*
X119655005Y-110521751D02*
X119546547Y-110926520D01*
X119563625Y-111009974D01*
X119627359Y-111066491D01*
X119737751Y-111096070D01*
X119821205Y-111078993D01*
X119867862Y-111052055D01*
X120216114Y-111224247D02*
X120354151Y-110709087D01*
X120423169Y-110451507D02*
X120376512Y-110478444D01*
X120403450Y-110525101D01*
X120450107Y-110498164D01*
X120423169Y-110451507D01*
X120403450Y-110525101D01*
X120611731Y-110778105D02*
X120906108Y-110856984D01*
X120791141Y-110550105D02*
X120613665Y-111212454D01*
X120630743Y-111295908D01*
X120694477Y-111352424D01*
X120768072Y-111372144D01*
X121711070Y-110796599D02*
X122152636Y-110914916D01*
X121724798Y-111628498D02*
X121931853Y-110855757D01*
X122203161Y-111756675D02*
X122341198Y-111241515D01*
X122301759Y-111388703D02*
X122358276Y-111324969D01*
X122404933Y-111298031D01*
X122488387Y-111280954D01*
X122561981Y-111300673D01*
X122985762Y-111926933D02*
X122902308Y-111944011D01*
X122755119Y-111904572D01*
X122691385Y-111848055D01*
X122674307Y-111764601D01*
X122753185Y-111470224D01*
X122809702Y-111406489D01*
X122893156Y-111389411D01*
X123040345Y-111428850D01*
X123104079Y-111485367D01*
X123121157Y-111568821D01*
X123101437Y-111642416D01*
X122713746Y-111617412D01*
X123648111Y-112104409D02*
X123564657Y-112121487D01*
X123417468Y-112082048D01*
X123353734Y-112025531D01*
X123336656Y-111942077D01*
X123415534Y-111647699D01*
X123472051Y-111583965D01*
X123555505Y-111566887D01*
X123702694Y-111606326D01*
X123766428Y-111662843D01*
X123783506Y-111746297D01*
X123763786Y-111819892D01*
X123376095Y-111794888D01*
X124052880Y-112212867D02*
X124043020Y-112249664D01*
X123986503Y-112313398D01*
X123939847Y-112340336D01*
X125424235Y-112540881D02*
X125377578Y-112567819D01*
X125257327Y-112575036D01*
X125183733Y-112555317D01*
X125083201Y-112488940D01*
X125029326Y-112395626D01*
X125012248Y-112312172D01*
X125014890Y-112155124D01*
X125044470Y-112044732D01*
X125120706Y-111907403D01*
X125177223Y-111843669D01*
X125270537Y-111789794D01*
X125390788Y-111782576D01*
X125464382Y-111802296D01*
X125564914Y-111868672D01*
X125591851Y-111915329D01*
X125735690Y-112703213D02*
X125873727Y-112188053D01*
X125942745Y-111930473D02*
X125896088Y-111957410D01*
X125923026Y-112004067D01*
X125969683Y-111977130D01*
X125942745Y-111930473D01*
X125923026Y-112004067D01*
X126103662Y-112801811D02*
X126241699Y-112286651D01*
X126202260Y-112433839D02*
X126258776Y-112370105D01*
X126305433Y-112343167D01*
X126388887Y-112326090D01*
X126462482Y-112345809D01*
X126923060Y-112981929D02*
X126839605Y-112999007D01*
X126692417Y-112959568D01*
X126628682Y-112903051D01*
X126601745Y-112856394D01*
X126584667Y-112772940D01*
X126643826Y-112552157D01*
X126700342Y-112488422D01*
X126746999Y-112461485D01*
X126830454Y-112444407D01*
X126977642Y-112483846D01*
X127041377Y-112540363D01*
X127713586Y-112681042D02*
X127575549Y-113196202D01*
X127382411Y-112592304D02*
X127273954Y-112997073D01*
X127291031Y-113080527D01*
X127354766Y-113137043D01*
X127465157Y-113166623D01*
X127548612Y-113149545D01*
X127595268Y-113122608D01*
X127943521Y-113294800D02*
X128081557Y-112779639D01*
X128150576Y-112522059D02*
X128103919Y-112548997D01*
X128130856Y-112595653D01*
X128177513Y-112568716D01*
X128150576Y-112522059D01*
X128130856Y-112595653D01*
X128339138Y-112848658D02*
X128633515Y-112927536D01*
X128518548Y-112620657D02*
X128341072Y-113283006D01*
X128358149Y-113366460D01*
X128421884Y-113422977D01*
X128495478Y-113442696D01*
X128753058Y-113511715D02*
X128891095Y-112996554D01*
X128851656Y-113143743D02*
X128908173Y-113080008D01*
X128954830Y-113053071D01*
X129038284Y-113035993D01*
X129111878Y-113055713D01*
X129295864Y-113105012D02*
X129341813Y-113669471D01*
X129663836Y-113203610D02*
X129341813Y-113669471D01*
X129218920Y-113833738D01*
X129172263Y-113860675D01*
X129088809Y-113877753D01*
X110313305Y-111237668D02*
X110520361Y-110464928D01*
X110754871Y-111355986D01*
X110961927Y-110583245D01*
X111477087Y-110721282D02*
X111624276Y-110760721D01*
X111688010Y-110817238D01*
X111741885Y-110910552D01*
X111739243Y-111067600D01*
X111670225Y-111325180D01*
X111593989Y-111462509D01*
X111500675Y-111516384D01*
X111417221Y-111533462D01*
X111270032Y-111494022D01*
X111206297Y-111437506D01*
X111152422Y-111344192D01*
X111155064Y-111187143D01*
X111224083Y-110929563D01*
X111300319Y-110792234D01*
X111393633Y-110738359D01*
X111477087Y-110721282D01*
X112139436Y-110898758D02*
X111971820Y-111524310D01*
X111988898Y-111607764D01*
X112015835Y-111654421D01*
X112079570Y-111710937D01*
X112226758Y-111750377D01*
X112310212Y-111733299D01*
X112356869Y-111706362D01*
X112413386Y-111642627D01*
X112581002Y-111017075D01*
X112741919Y-111888413D02*
X112948974Y-111115673D01*
X113183485Y-112006731D01*
X113390540Y-111233990D01*
X110384715Y-112590238D02*
X109943149Y-112471921D01*
X110163932Y-112531079D02*
X110370987Y-111758339D01*
X110267814Y-111849011D01*
X110174500Y-111902885D01*
X110091046Y-111919963D01*
X110735609Y-112605381D02*
X110762547Y-112652038D01*
X110715890Y-112678976D01*
X110688952Y-112632319D01*
X110735609Y-112605381D01*
X110715890Y-112678976D01*
X111700262Y-112390590D02*
X111994639Y-112469468D01*
X111879672Y-112162589D02*
X111702196Y-112824938D01*
X111719273Y-112908393D01*
X111783008Y-112964909D01*
X111856602Y-112984629D01*
X112114182Y-113053647D02*
X112321238Y-112280907D01*
X112445357Y-113142385D02*
X112553814Y-112737616D01*
X112536737Y-112654162D01*
X112473002Y-112597645D01*
X112362611Y-112568066D01*
X112279157Y-112585144D01*
X112232500Y-112612081D01*
X113117566Y-113283064D02*
X113034112Y-113300142D01*
X112886923Y-113260702D01*
X112823188Y-113204186D01*
X112806111Y-113120732D01*
X112884989Y-112826354D01*
X112941506Y-112762620D01*
X113024960Y-112745542D01*
X113172149Y-112784981D01*
X113235883Y-112841498D01*
X113252961Y-112924952D01*
X113233241Y-112998546D01*
X112845550Y-112973543D01*
X114037495Y-113529558D02*
X114101230Y-113586075D01*
X114248419Y-113625514D01*
X114331873Y-113608436D01*
X114388389Y-113544702D01*
X114398249Y-113507905D01*
X114381172Y-113424451D01*
X114317437Y-113367934D01*
X114207045Y-113338355D01*
X114143311Y-113281838D01*
X114126233Y-113198384D01*
X114136093Y-113161587D01*
X114192610Y-113097852D01*
X114276064Y-113080774D01*
X114386455Y-113110354D01*
X114450190Y-113166870D01*
X115031019Y-113795772D02*
X114947565Y-113812850D01*
X114800376Y-113773411D01*
X114736642Y-113716894D01*
X114709704Y-113670237D01*
X114692627Y-113586783D01*
X114751785Y-113366000D01*
X114808302Y-113302265D01*
X114854959Y-113275328D01*
X114938413Y-113258250D01*
X115085602Y-113297689D01*
X115149336Y-113354206D01*
X115352334Y-113921307D02*
X115490371Y-113406147D01*
X115559389Y-113148567D02*
X115512732Y-113175504D01*
X115539669Y-113222161D01*
X115586326Y-113195224D01*
X115559389Y-113148567D01*
X115539669Y-113222161D01*
X116024543Y-114061986D02*
X115941089Y-114079064D01*
X115793900Y-114039625D01*
X115730165Y-113983108D01*
X115713088Y-113899654D01*
X115791966Y-113605276D01*
X115848483Y-113541542D01*
X115931937Y-113524464D01*
X116079125Y-113563903D01*
X116142860Y-113620420D01*
X116159938Y-113703874D01*
X116140218Y-113777468D01*
X115752527Y-113752465D01*
X116520691Y-113682220D02*
X116382655Y-114197381D01*
X116500972Y-113755815D02*
X116547629Y-113728877D01*
X116631083Y-113711800D01*
X116741474Y-113741379D01*
X116805209Y-113797896D01*
X116822287Y-113881350D01*
X116713829Y-114286119D01*
X117422835Y-114436657D02*
X117339381Y-114453735D01*
X117192192Y-114414296D01*
X117128458Y-114357779D01*
X117101520Y-114311122D01*
X117084443Y-114227668D01*
X117143601Y-114006885D01*
X117200118Y-113943151D01*
X117246775Y-113916213D01*
X117330229Y-113899135D01*
X117477418Y-113938575D01*
X117541153Y-113995091D01*
X118048387Y-114604274D02*
X117964933Y-114621351D01*
X117817744Y-114581912D01*
X117754010Y-114525395D01*
X117736932Y-114441941D01*
X117815810Y-114147564D01*
X117872327Y-114083829D01*
X117955781Y-114066752D01*
X118102970Y-114106191D01*
X118166705Y-114162707D01*
X118183782Y-114246162D01*
X118164063Y-114319756D01*
X117776371Y-114294753D01*
X119105646Y-114927004D02*
X119041911Y-114870487D01*
X119014974Y-114823830D01*
X118997896Y-114740376D01*
X119057055Y-114519593D01*
X119113571Y-114455859D01*
X119160228Y-114428921D01*
X119243682Y-114411844D01*
X119354074Y-114441423D01*
X119417808Y-114497940D01*
X119444746Y-114544597D01*
X119461823Y-114628051D01*
X119402665Y-114848834D01*
X119346148Y-114912568D01*
X119299491Y-114939506D01*
X119216037Y-114956583D01*
X119105646Y-114927004D01*
X119722046Y-114540021D02*
X120016423Y-114618899D01*
X119694400Y-115084760D02*
X119871876Y-114422411D01*
X119928393Y-114358677D01*
X120011847Y-114341599D01*
X120085441Y-114361319D01*
X121055896Y-115449572D02*
X121262951Y-114676831D01*
X121065756Y-115412775D02*
X120982301Y-115429853D01*
X120835113Y-115390413D01*
X120771378Y-115333897D01*
X120744441Y-115287240D01*
X120727363Y-115203786D01*
X120786522Y-114983003D01*
X120843038Y-114919268D01*
X120889695Y-114892331D01*
X120973150Y-114875253D01*
X121120338Y-114914692D01*
X121184073Y-114971209D01*
X121728105Y-115590251D02*
X121644651Y-115607328D01*
X121497462Y-115567889D01*
X121433727Y-115511373D01*
X121416650Y-115427919D01*
X121495528Y-115133541D01*
X121552045Y-115069807D01*
X121635499Y-115052729D01*
X121782687Y-115092168D01*
X121846422Y-115148685D01*
X121863500Y-115232139D01*
X121843780Y-115305733D01*
X121456089Y-115280730D01*
X122059279Y-115678989D02*
X122123014Y-115735506D01*
X122270203Y-115774945D01*
X122353657Y-115757867D01*
X122410173Y-115694132D01*
X122420033Y-115657335D01*
X122402956Y-115573881D01*
X122339221Y-115517364D01*
X122228829Y-115487785D01*
X122165095Y-115431268D01*
X122148017Y-115347814D01*
X122157877Y-115311017D01*
X122214394Y-115247282D01*
X122297848Y-115230205D01*
X122408239Y-115259784D01*
X122471974Y-115316301D01*
X122711769Y-115893262D02*
X122849805Y-115378101D01*
X122918824Y-115120521D02*
X122872167Y-115147459D01*
X122899104Y-115194116D01*
X122945761Y-115167178D01*
X122918824Y-115120521D01*
X122899104Y-115194116D01*
X123548952Y-115565437D02*
X123381336Y-116190989D01*
X123324819Y-116254724D01*
X123278162Y-116281661D01*
X123194708Y-116298739D01*
X123084316Y-116269159D01*
X123020582Y-116212643D01*
X123420775Y-116043800D02*
X123337321Y-116060878D01*
X123190132Y-116021439D01*
X123126397Y-115964922D01*
X123099460Y-115918265D01*
X123082382Y-115834811D01*
X123141541Y-115614028D01*
X123198058Y-115550294D01*
X123244715Y-115523356D01*
X123328169Y-115506278D01*
X123475357Y-115545718D01*
X123539092Y-115602234D01*
X123916923Y-115664035D02*
X123778887Y-116179195D01*
X123897204Y-115737629D02*
X123943861Y-115710692D01*
X124027315Y-115693614D01*
X124137707Y-115723194D01*
X124201441Y-115779710D01*
X124218519Y-115863164D01*
X124110061Y-116267933D01*
X124478033Y-116366531D02*
X124616070Y-115851371D01*
X124685088Y-115593790D02*
X124638431Y-115620728D01*
X124665369Y-115667385D01*
X124712026Y-115640447D01*
X124685088Y-115593790D01*
X124665369Y-115667385D01*
X124984042Y-115949968D02*
X124846005Y-116465129D01*
X124964322Y-116023563D02*
X125010979Y-115996625D01*
X125094433Y-115979548D01*
X125204825Y-116009127D01*
X125268559Y-116065644D01*
X125285637Y-116149098D01*
X125177179Y-116553867D01*
X126014362Y-116226042D02*
X125846746Y-116851594D01*
X125790230Y-116915328D01*
X125743573Y-116942266D01*
X125660118Y-116959344D01*
X125549727Y-116929764D01*
X125485992Y-116873247D01*
X125886185Y-116704405D02*
X125802731Y-116721483D01*
X125655543Y-116682044D01*
X125591808Y-116625527D01*
X125564871Y-116578870D01*
X125547793Y-116495416D01*
X125606952Y-116274633D01*
X125663468Y-116210898D01*
X125710125Y-116183961D01*
X125793579Y-116166883D01*
X125940768Y-116206322D01*
X126004503Y-116262839D01*
X127137289Y-117039637D02*
X127053835Y-117056715D01*
X126906646Y-117017276D01*
X126842912Y-116960759D01*
X126825834Y-116877305D01*
X126904712Y-116582928D01*
X126961229Y-116519193D01*
X127044683Y-116502116D01*
X127191872Y-116541555D01*
X127255607Y-116598071D01*
X127272684Y-116681526D01*
X127252965Y-116755120D01*
X126865273Y-116730116D01*
X127605793Y-117204612D02*
X127542058Y-117148095D01*
X127524981Y-117064641D01*
X127702457Y-116402292D01*
X128204407Y-117325571D02*
X128120953Y-117342649D01*
X127973765Y-117303209D01*
X127910030Y-117246693D01*
X127892952Y-117163239D01*
X127971831Y-116868861D01*
X128028347Y-116805127D01*
X128111801Y-116788049D01*
X128258990Y-116827488D01*
X128322725Y-116884005D01*
X128339802Y-116967459D01*
X128320083Y-117041053D01*
X127932391Y-117016050D01*
X128903554Y-117512907D02*
X128820100Y-117529984D01*
X128672911Y-117490545D01*
X128609176Y-117434028D01*
X128582239Y-117387371D01*
X128565161Y-117303917D01*
X128624320Y-117083134D01*
X128680837Y-117019400D01*
X128727494Y-116992462D01*
X128810948Y-116975385D01*
X128958136Y-117014824D01*
X129021871Y-117071341D01*
X129252514Y-117093702D02*
X129546891Y-117172580D01*
X129431924Y-116865701D02*
X129254448Y-117528050D01*
X129271525Y-117611504D01*
X129335260Y-117668021D01*
X129408854Y-117687741D01*
X129666435Y-117756759D02*
X129804471Y-117241599D01*
X129765032Y-117388787D02*
X129821549Y-117325053D01*
X129868206Y-117298115D01*
X129951660Y-117281038D01*
X130025254Y-117300757D01*
X130144798Y-117884936D02*
X130282835Y-117369776D01*
X130351853Y-117112195D02*
X130305196Y-117139133D01*
X130332134Y-117185790D01*
X130378790Y-117158852D01*
X130351853Y-117112195D01*
X130332134Y-117185790D01*
X130853804Y-118035475D02*
X130770350Y-118052552D01*
X130623161Y-118013113D01*
X130559427Y-117956596D01*
X130532489Y-117909939D01*
X130515411Y-117826485D01*
X130574570Y-117605702D01*
X130631087Y-117541968D01*
X130677744Y-117515030D01*
X130761198Y-117497953D01*
X130908387Y-117537392D01*
X130972121Y-117593908D01*
X111523243Y-114228741D02*
X111459509Y-114172224D01*
X111432571Y-114125567D01*
X111415494Y-114042113D01*
X111474652Y-113821330D01*
X111531169Y-113757595D01*
X111577826Y-113730658D01*
X111661280Y-113713580D01*
X111771672Y-113743160D01*
X111835406Y-113799676D01*
X111862344Y-113846333D01*
X111879421Y-113929787D01*
X111820262Y-114150571D01*
X111763746Y-114214305D01*
X111717089Y-114241243D01*
X111633635Y-114258320D01*
X111523243Y-114228741D01*
X112111998Y-114386497D02*
X112250035Y-113871337D01*
X112210596Y-114018525D02*
X112267112Y-113954791D01*
X112313769Y-113927853D01*
X112397223Y-113910776D01*
X112470818Y-113930495D01*
X113483353Y-114714512D02*
X113399899Y-114731589D01*
X113252710Y-114692150D01*
X113188976Y-114635633D01*
X113171898Y-114552179D01*
X113250776Y-114257802D01*
X113307293Y-114194067D01*
X113390747Y-114176990D01*
X113537936Y-114216429D01*
X113601670Y-114272946D01*
X113618748Y-114356400D01*
X113599029Y-114429994D01*
X113211337Y-114404991D01*
X113951857Y-114879486D02*
X113888122Y-114822969D01*
X113871044Y-114739515D01*
X114048520Y-114077166D01*
X114550471Y-115000445D02*
X114467017Y-115017523D01*
X114319828Y-114978084D01*
X114256094Y-114921567D01*
X114239016Y-114838113D01*
X114317894Y-114543735D01*
X114374411Y-114480001D01*
X114457865Y-114462923D01*
X114605054Y-114502362D01*
X114668789Y-114558879D01*
X114685866Y-114642333D01*
X114666147Y-114715927D01*
X114278455Y-114690924D01*
X115249618Y-115187781D02*
X115166163Y-115204858D01*
X115018975Y-115165419D01*
X114955240Y-115108903D01*
X114928303Y-115062246D01*
X114911225Y-114978791D01*
X114970384Y-114758008D01*
X115026901Y-114694274D01*
X115073557Y-114667336D01*
X115157012Y-114650259D01*
X115304200Y-114689698D01*
X115367935Y-114746215D01*
X115598578Y-114768576D02*
X115892955Y-114847454D01*
X115777988Y-114540575D02*
X115600512Y-115202924D01*
X115617589Y-115286378D01*
X115681324Y-115342895D01*
X115754918Y-115362615D01*
X116012498Y-115431633D02*
X116150535Y-114916473D01*
X116111096Y-115063661D02*
X116167613Y-114999927D01*
X116214270Y-114972989D01*
X116297724Y-114955912D01*
X116371318Y-114975631D01*
X116601253Y-115589390D02*
X116537519Y-115532873D01*
X116510581Y-115486216D01*
X116493504Y-115402762D01*
X116552662Y-115181979D01*
X116609179Y-115118244D01*
X116655836Y-115091307D01*
X116739290Y-115074229D01*
X116849682Y-115103808D01*
X116913416Y-115160325D01*
X116940354Y-115206982D01*
X116957431Y-115290436D01*
X116898273Y-115511219D01*
X116841756Y-115574954D01*
X116795099Y-115601891D01*
X116711645Y-115618969D01*
X116601253Y-115589390D01*
X117328045Y-115231985D02*
X117190008Y-115747146D01*
X117308325Y-115305580D02*
X117354982Y-115278642D01*
X117438436Y-115261565D01*
X117548828Y-115291144D01*
X117612562Y-115347661D01*
X117629640Y-115431115D01*
X117521183Y-115835884D01*
X117889154Y-115934482D02*
X118027191Y-115419321D01*
X118096210Y-115161741D02*
X118049553Y-115188678D01*
X118076490Y-115235335D01*
X118123147Y-115208398D01*
X118096210Y-115161741D01*
X118076490Y-115235335D01*
X118598160Y-116085020D02*
X118514706Y-116102098D01*
X118367518Y-116062659D01*
X118303783Y-116006142D01*
X118276846Y-115959485D01*
X118259768Y-115876031D01*
X118318927Y-115655248D01*
X118375443Y-115591513D01*
X118422100Y-115564576D01*
X118505554Y-115547498D01*
X118652743Y-115586937D01*
X118716478Y-115643454D01*
X119849264Y-116420252D02*
X119765810Y-116437330D01*
X119618622Y-116397891D01*
X119554887Y-116341374D01*
X119527950Y-116294717D01*
X119510872Y-116211263D01*
X119570031Y-115990480D01*
X119626547Y-115926745D01*
X119673204Y-115899808D01*
X119756658Y-115882730D01*
X119903847Y-115922170D01*
X119967582Y-115978686D01*
X120170579Y-116545787D02*
X120308616Y-116030627D01*
X120377634Y-115773047D02*
X120330977Y-115799984D01*
X120357915Y-115846641D01*
X120404572Y-115819704D01*
X120377634Y-115773047D01*
X120357915Y-115846641D01*
X120538551Y-116644385D02*
X120676588Y-116129225D01*
X120637149Y-116276413D02*
X120693665Y-116212679D01*
X120740322Y-116185742D01*
X120823776Y-116168664D01*
X120897371Y-116188383D01*
X121357949Y-116824503D02*
X121274494Y-116841581D01*
X121127306Y-116802142D01*
X121063571Y-116745625D01*
X121036634Y-116698968D01*
X121019556Y-116615514D01*
X121078715Y-116394731D01*
X121135231Y-116330996D01*
X121181888Y-116304059D01*
X121265343Y-116286981D01*
X121412531Y-116326420D01*
X121476266Y-116382937D01*
X122148475Y-116523616D02*
X122010438Y-117038776D01*
X121817300Y-116434878D02*
X121708843Y-116839647D01*
X121725920Y-116923101D01*
X121789655Y-116979618D01*
X121900046Y-117009197D01*
X121983500Y-116992119D01*
X122030157Y-116965182D01*
X122378410Y-117137374D02*
X122516446Y-116622213D01*
X122585465Y-116364633D02*
X122538808Y-116391571D01*
X122565745Y-116438228D01*
X122612402Y-116411290D01*
X122585465Y-116364633D01*
X122565745Y-116438228D01*
X122774027Y-116691232D02*
X123068404Y-116770110D01*
X122953437Y-116463231D02*
X122775961Y-117125580D01*
X122793038Y-117209034D01*
X122856773Y-117265551D01*
X122930367Y-117285270D01*
X123161010Y-117307632D02*
X123224745Y-117364149D01*
X123371933Y-117403588D01*
X123455387Y-117386510D01*
X123511904Y-117322776D01*
X123521764Y-117285978D01*
X123504686Y-117202524D01*
X123440952Y-117146008D01*
X123330560Y-117116428D01*
X123266826Y-117059912D01*
X123249748Y-116976457D01*
X123259608Y-116939660D01*
X123316125Y-116875926D01*
X123399579Y-116858848D01*
X123509970Y-116888427D01*
X123573705Y-116944944D01*
X123833219Y-117448311D02*
X123860156Y-117494968D01*
X123813499Y-117521905D01*
X123786562Y-117475248D01*
X123833219Y-117448311D01*
X123813499Y-117521905D01*
X109463767Y-114260998D02*
X109510424Y-114234061D01*
X109593878Y-114216983D01*
X109777864Y-114266282D01*
X109841598Y-114322799D01*
X109868536Y-114369456D01*
X109885613Y-114452910D01*
X109865894Y-114526504D01*
X109799517Y-114627036D01*
X109239634Y-114950285D01*
X109717997Y-115078462D01*
X110068891Y-115093605D02*
X110095829Y-115140262D01*
X110049172Y-115167200D01*
X110022234Y-115120543D01*
X110068891Y-115093605D01*
X110049172Y-115167200D01*
X111033544Y-114878814D02*
X111327921Y-114957692D01*
X111212954Y-114650813D02*
X111035478Y-115313162D01*
X111052555Y-115396617D01*
X111116290Y-115453133D01*
X111189884Y-115472853D01*
X111447464Y-115541871D02*
X111654520Y-114769131D01*
X111778639Y-115630609D02*
X111887096Y-115225840D01*
X111870019Y-115142386D01*
X111806284Y-115085869D01*
X111695893Y-115056290D01*
X111612439Y-115073368D01*
X111565782Y-115100305D01*
X112450848Y-115771288D02*
X112367394Y-115788366D01*
X112220205Y-115748926D01*
X112156470Y-115692410D01*
X112139393Y-115608956D01*
X112218271Y-115314578D01*
X112274788Y-115250844D01*
X112358242Y-115233766D01*
X112505431Y-115273205D01*
X112569165Y-115329722D01*
X112586243Y-115413176D01*
X112566523Y-115486770D01*
X112178832Y-115461767D01*
X113738749Y-116116380D02*
X113655295Y-116133458D01*
X113508106Y-116094019D01*
X113444372Y-116037502D01*
X113417434Y-115990845D01*
X113400357Y-115907391D01*
X113459515Y-115686608D01*
X113516032Y-115622873D01*
X113562689Y-115595936D01*
X113646143Y-115578858D01*
X113793332Y-115618297D01*
X113857066Y-115674814D01*
X114060064Y-116241915D02*
X114198101Y-115726755D01*
X114267119Y-115469174D02*
X114220462Y-115496112D01*
X114247399Y-115542769D01*
X114294056Y-115515831D01*
X114267119Y-115469174D01*
X114247399Y-115542769D01*
X114428036Y-116340513D02*
X114566072Y-115825352D01*
X114526633Y-115972541D02*
X114583150Y-115908807D01*
X114629807Y-115881869D01*
X114713261Y-115864791D01*
X114786855Y-115884511D01*
X115247433Y-116520631D02*
X115163979Y-116537708D01*
X115016790Y-116498269D01*
X114953056Y-116441752D01*
X114926118Y-116395096D01*
X114909041Y-116311641D01*
X114968199Y-116090858D01*
X115024716Y-116027124D01*
X115071373Y-116000186D01*
X115154827Y-115983109D01*
X115302016Y-116022548D01*
X115365750Y-116079065D01*
X116037959Y-116219743D02*
X115899923Y-116734904D01*
X115706785Y-116131005D02*
X115598327Y-116535774D01*
X115615405Y-116619228D01*
X115679139Y-116675745D01*
X115789531Y-116705324D01*
X115872985Y-116688247D01*
X115919642Y-116661309D01*
X116267894Y-116833502D02*
X116405931Y-116318341D01*
X116474949Y-116060761D02*
X116428293Y-116087698D01*
X116455230Y-116134355D01*
X116501887Y-116107418D01*
X116474949Y-116060761D01*
X116455230Y-116134355D01*
X116663511Y-116387359D02*
X116957889Y-116466238D01*
X116842921Y-116159359D02*
X116665445Y-116821708D01*
X116682523Y-116905162D01*
X116746258Y-116961679D01*
X116819852Y-116981398D01*
X117050495Y-117003760D02*
X117114229Y-117060276D01*
X117261418Y-117099715D01*
X117344872Y-117082638D01*
X117401389Y-117018903D01*
X117411249Y-116982106D01*
X117394171Y-116898652D01*
X117330436Y-116842135D01*
X117220045Y-116812556D01*
X117156310Y-116756039D01*
X117139233Y-116672585D01*
X117149092Y-116635788D01*
X117205609Y-116572053D01*
X117289063Y-116554976D01*
X117399455Y-116584555D01*
X117463189Y-116641072D01*
X118319384Y-116831049D02*
X118613762Y-116909927D01*
X118498794Y-116603048D02*
X118321318Y-117265398D01*
X118338396Y-117348852D01*
X118402130Y-117405368D01*
X118475725Y-117425088D01*
X118733305Y-117494106D02*
X118940360Y-116721366D01*
X119064479Y-117582844D02*
X119172937Y-117178075D01*
X119155859Y-117094621D01*
X119092125Y-117038105D01*
X118981733Y-117008525D01*
X118898279Y-117025603D01*
X118851622Y-117052540D01*
X119736688Y-117723523D02*
X119653234Y-117740601D01*
X119506046Y-117701162D01*
X119442311Y-117644645D01*
X119425233Y-117561191D01*
X119504112Y-117266813D01*
X119560628Y-117203079D01*
X119644082Y-117186001D01*
X119791271Y-117225440D01*
X119855006Y-117281957D01*
X119872083Y-117365411D01*
X119852364Y-117439005D01*
X119464672Y-117414002D01*
X120094800Y-117858918D02*
X120232837Y-117343757D01*
X120213118Y-117417352D02*
X120259775Y-117390414D01*
X120343229Y-117373337D01*
X120453620Y-117402916D01*
X120517355Y-117459433D01*
X120534432Y-117542887D01*
X120425975Y-117947656D01*
X120534432Y-117542887D02*
X120590949Y-117479152D01*
X120674403Y-117462075D01*
X120784795Y-117491654D01*
X120848529Y-117548171D01*
X120865607Y-117631625D01*
X120757150Y-118036394D01*
X121098184Y-118088335D02*
X121161918Y-118144851D01*
X121309107Y-118184290D01*
X121392561Y-118167213D01*
X121449078Y-118103478D01*
X121458938Y-118066681D01*
X121441860Y-117983227D01*
X121378126Y-117926710D01*
X121267734Y-117897131D01*
X121203999Y-117840614D01*
X121186922Y-117757160D01*
X121196782Y-117720363D01*
X121253298Y-117656628D01*
X121336752Y-117639551D01*
X121447144Y-117669130D01*
X121510879Y-117725647D01*
X122054910Y-118344689D02*
X121971456Y-118361766D01*
X121824268Y-118322327D01*
X121760533Y-118265811D01*
X121743455Y-118182356D01*
X121822334Y-117887979D01*
X121878850Y-117824244D01*
X121962304Y-117807167D01*
X122109493Y-117846606D01*
X122173228Y-117903123D01*
X122190305Y-117986577D01*
X122170586Y-118060171D01*
X121782894Y-118035168D01*
X122523414Y-118509663D02*
X122459679Y-118453146D01*
X122442602Y-118369692D01*
X122620078Y-117707343D01*
X122882234Y-118053661D02*
X122928183Y-118618120D01*
X123250205Y-118152259D01*
X123710783Y-118788379D02*
X123627329Y-118805456D01*
X123480140Y-118766017D01*
X123416406Y-118709500D01*
X123399328Y-118626046D01*
X123478206Y-118331669D01*
X123534723Y-118267934D01*
X123618177Y-118250857D01*
X123765366Y-118290296D01*
X123829101Y-118346812D01*
X123846178Y-118430267D01*
X123826459Y-118503861D01*
X123438767Y-118478858D01*
X124041958Y-118877116D02*
X124105692Y-118933633D01*
X124252881Y-118973072D01*
X124336335Y-118955995D01*
X124392852Y-118892260D01*
X124402712Y-118855463D01*
X124385634Y-118772009D01*
X124321899Y-118715492D01*
X124211508Y-118685913D01*
X124147773Y-118629396D01*
X124130696Y-118545942D01*
X124140556Y-118509145D01*
X124197072Y-118445410D01*
X124280526Y-118428333D01*
X124390918Y-118457912D01*
X124454652Y-118514429D01*
X124714167Y-119017795D02*
X124741104Y-119064452D01*
X124694447Y-119091390D01*
X124667510Y-119044733D01*
X124714167Y-119017795D01*
X124694447Y-119091390D01*
X109113330Y-115421656D02*
X109591693Y-115549833D01*
X109255235Y-115775192D01*
X109365627Y-115804772D01*
X109429361Y-115861288D01*
X109456299Y-115907945D01*
X109473376Y-115991399D01*
X109424077Y-116175385D01*
X109367561Y-116239120D01*
X109320904Y-116266057D01*
X109237450Y-116283135D01*
X109016666Y-116223976D01*
X108952932Y-116167459D01*
X108925994Y-116120802D01*
X109735532Y-116337717D02*
X109762470Y-116384374D01*
X109715813Y-116411312D01*
X109688875Y-116364655D01*
X109735532Y-116337717D01*
X109715813Y-116411312D01*
X110700185Y-116122926D02*
X110994562Y-116201804D01*
X110879595Y-115894925D02*
X110702119Y-116557274D01*
X110719196Y-116640729D01*
X110782931Y-116697245D01*
X110856525Y-116716965D01*
X111114105Y-116785983D02*
X111321161Y-116013243D01*
X111445280Y-116874721D02*
X111553737Y-116469952D01*
X111536660Y-116386498D01*
X111472925Y-116329981D01*
X111362534Y-116300402D01*
X111279080Y-116317480D01*
X111232423Y-116344417D01*
X112117489Y-117015400D02*
X112034035Y-117032478D01*
X111886846Y-116993038D01*
X111823111Y-116936522D01*
X111806034Y-116853068D01*
X111884912Y-116558690D01*
X111941429Y-116494956D01*
X112024883Y-116477878D01*
X112172072Y-116517317D01*
X112235806Y-116573834D01*
X112252884Y-116657288D01*
X112233164Y-116730882D01*
X111845473Y-116705879D01*
X113405390Y-117360492D02*
X113321936Y-117377570D01*
X113174747Y-117338131D01*
X113111013Y-117281614D01*
X113084075Y-117234957D01*
X113066998Y-117151503D01*
X113126156Y-116930720D01*
X113182673Y-116866985D01*
X113229330Y-116840048D01*
X113312784Y-116822970D01*
X113459973Y-116862409D01*
X113523707Y-116918926D01*
X113837096Y-117515606D02*
X113773362Y-117459090D01*
X113746424Y-117412433D01*
X113729347Y-117328979D01*
X113788505Y-117108196D01*
X113845022Y-117044461D01*
X113891679Y-117017524D01*
X113975133Y-117000446D01*
X114085525Y-117030025D01*
X114149259Y-117086542D01*
X114176197Y-117133199D01*
X114193274Y-117216653D01*
X114134116Y-117437436D01*
X114077599Y-117501171D01*
X114030942Y-117528108D01*
X113947488Y-117545186D01*
X113837096Y-117515606D01*
X114425851Y-117673363D02*
X114563888Y-117158202D01*
X114544168Y-117231797D02*
X114590825Y-117204859D01*
X114674279Y-117187782D01*
X114784671Y-117217361D01*
X114848406Y-117273878D01*
X114865483Y-117357332D01*
X114757026Y-117762101D01*
X114865483Y-117357332D02*
X114922000Y-117293597D01*
X115005454Y-117276520D01*
X115115846Y-117306099D01*
X115179580Y-117362616D01*
X115196658Y-117446070D01*
X115088200Y-117850839D01*
X115594209Y-117434276D02*
X115387154Y-118207017D01*
X115584349Y-117471073D02*
X115667803Y-117453996D01*
X115814992Y-117493435D01*
X115878726Y-117549951D01*
X115905664Y-117596608D01*
X115922741Y-117680062D01*
X115863583Y-117900845D01*
X115807066Y-117964580D01*
X115760409Y-117991517D01*
X115676955Y-118008595D01*
X115529766Y-117969156D01*
X115466032Y-117912639D01*
X116265710Y-118166351D02*
X116201975Y-118109835D01*
X116175038Y-118063178D01*
X116157960Y-117979724D01*
X116217119Y-117758941D01*
X116273636Y-117695206D01*
X116320293Y-117668269D01*
X116403747Y-117651191D01*
X116514138Y-117680770D01*
X116577873Y-117737287D01*
X116604810Y-117783944D01*
X116621888Y-117867398D01*
X116562729Y-118088181D01*
X116506212Y-118151916D01*
X116459555Y-118178853D01*
X116376101Y-118195931D01*
X116265710Y-118166351D01*
X116992501Y-117808947D02*
X116854465Y-118324108D01*
X116972782Y-117882542D02*
X117019439Y-117855604D01*
X117102893Y-117838527D01*
X117213284Y-117868106D01*
X117277019Y-117924623D01*
X117294097Y-118008077D01*
X117185639Y-118412846D01*
X117857848Y-118553525D02*
X117774394Y-118570602D01*
X117627205Y-118531163D01*
X117563471Y-118474646D01*
X117546393Y-118391192D01*
X117625271Y-118096815D01*
X117681788Y-118033080D01*
X117765242Y-118016003D01*
X117912431Y-118055442D01*
X117976165Y-118111958D01*
X117993243Y-118195413D01*
X117973523Y-118269007D01*
X117585832Y-118244004D01*
X118353997Y-118173759D02*
X118215960Y-118688919D01*
X118334277Y-118247353D02*
X118380934Y-118220416D01*
X118464388Y-118203338D01*
X118574780Y-118232918D01*
X118638514Y-118289434D01*
X118655592Y-118372888D01*
X118547135Y-118777657D01*
X118942752Y-118331515D02*
X119237129Y-118410394D01*
X119122162Y-118103514D02*
X118944686Y-118765864D01*
X118961763Y-118849318D01*
X119025498Y-118905834D01*
X119099092Y-118925554D01*
X119329735Y-118947915D02*
X119393470Y-119004432D01*
X119540658Y-119043871D01*
X119624112Y-119026794D01*
X119680629Y-118963059D01*
X119690489Y-118926262D01*
X119673411Y-118842808D01*
X119609677Y-118786291D01*
X119499285Y-118756712D01*
X119435551Y-118700195D01*
X119418473Y-118616741D01*
X119428333Y-118579944D01*
X119484850Y-118516209D01*
X119568304Y-118499132D01*
X119678695Y-118528711D01*
X119742430Y-118585228D01*
X120681371Y-119349524D02*
X120617636Y-119293008D01*
X120590699Y-119246351D01*
X120573621Y-119162896D01*
X120632780Y-118942113D01*
X120689296Y-118878379D01*
X120735953Y-118851441D01*
X120819408Y-118834364D01*
X120929799Y-118863943D01*
X120993534Y-118920460D01*
X121020471Y-118967117D01*
X121037549Y-119050571D01*
X120978390Y-119271354D01*
X120921873Y-119335089D01*
X120875216Y-119362026D01*
X120791762Y-119379104D01*
X120681371Y-119349524D01*
X121297771Y-118962541D02*
X121592148Y-119041419D01*
X121270126Y-119507281D02*
X121447601Y-118844931D01*
X121504118Y-118781197D01*
X121587572Y-118764119D01*
X121661167Y-118783839D01*
X122273509Y-119736697D02*
X122337244Y-119793214D01*
X122484432Y-119832653D01*
X122567886Y-119815575D01*
X122624403Y-119751841D01*
X122634263Y-119715044D01*
X122617185Y-119631590D01*
X122553451Y-119575073D01*
X122443059Y-119545494D01*
X122379325Y-119488977D01*
X122362247Y-119405523D01*
X122372107Y-119368726D01*
X122428623Y-119304991D01*
X122512078Y-119287913D01*
X122622469Y-119317493D01*
X122686204Y-119374009D01*
X123395210Y-119524548D02*
X123257173Y-120039708D01*
X123064035Y-119435810D02*
X122955578Y-119840579D01*
X122972655Y-119924033D01*
X123036390Y-119980550D01*
X123146781Y-120010129D01*
X123230236Y-119993051D01*
X123276892Y-119966114D01*
X123966179Y-120190247D02*
X123882725Y-120207325D01*
X123735536Y-120167885D01*
X123671802Y-120111369D01*
X123644864Y-120064712D01*
X123627787Y-119981258D01*
X123686945Y-119760475D01*
X123743462Y-119696740D01*
X123790119Y-119669803D01*
X123873573Y-119652725D01*
X124020762Y-119692164D01*
X124084496Y-119748681D01*
X124287494Y-120315782D02*
X124494549Y-119543041D01*
X124618668Y-120404520D02*
X124727126Y-119999751D01*
X124710048Y-119916297D01*
X124646314Y-119859780D01*
X124535922Y-119830201D01*
X124452468Y-119847279D01*
X124405811Y-119874216D01*
X125916429Y-120712815D02*
X125832975Y-120729892D01*
X125685786Y-120690453D01*
X125622052Y-120633937D01*
X125595114Y-120587280D01*
X125578037Y-120503826D01*
X125637195Y-120283043D01*
X125693712Y-120219308D01*
X125740369Y-120192371D01*
X125823823Y-120175293D01*
X125971012Y-120214732D01*
X126034747Y-120271249D01*
X126237744Y-120838350D02*
X126375781Y-120323190D01*
X126444799Y-120065609D02*
X126398142Y-120092547D01*
X126425080Y-120139204D01*
X126471737Y-120112266D01*
X126444799Y-120065609D01*
X126425080Y-120139204D01*
X126605716Y-120936948D02*
X126743753Y-120421787D01*
X126704314Y-120568976D02*
X126760830Y-120505241D01*
X126807487Y-120478304D01*
X126890941Y-120461226D01*
X126964536Y-120480946D01*
X127425113Y-121117066D02*
X127341659Y-121134143D01*
X127194471Y-121094704D01*
X127130736Y-121038187D01*
X127103799Y-120991530D01*
X127086721Y-120908076D01*
X127145880Y-120687293D01*
X127202396Y-120623559D01*
X127249053Y-120596621D01*
X127332507Y-120579544D01*
X127479696Y-120618983D01*
X127543431Y-120675499D01*
X128215640Y-120816178D02*
X128077603Y-121331339D01*
X127884465Y-120727440D02*
X127776008Y-121132209D01*
X127793085Y-121215663D01*
X127856820Y-121272180D01*
X127967211Y-121301759D01*
X128050665Y-121284682D01*
X128097322Y-121257744D01*
X128445575Y-121429936D02*
X128583611Y-120914776D01*
X128652630Y-120657196D02*
X128605973Y-120684133D01*
X128632910Y-120730790D01*
X128679567Y-120703853D01*
X128652630Y-120657196D01*
X128632910Y-120730790D01*
X128841192Y-120983794D02*
X129135569Y-121062673D01*
X129020601Y-120755793D02*
X128843126Y-121418143D01*
X128860203Y-121501597D01*
X128923938Y-121558113D01*
X128997532Y-121577833D01*
X129228175Y-121600194D02*
X129291910Y-121656711D01*
X129439098Y-121696150D01*
X129522552Y-121679073D01*
X129579069Y-121615338D01*
X129588929Y-121578541D01*
X129571851Y-121495087D01*
X129508117Y-121438570D01*
X129397725Y-121408991D01*
X129333991Y-121352474D01*
X129316913Y-121269020D01*
X129326773Y-121232223D01*
X129383289Y-121168488D01*
X129466744Y-121151410D01*
X129577135Y-121180990D01*
X129640870Y-121237507D01*
X129900384Y-121740873D02*
X129927321Y-121787530D01*
X129880664Y-121814468D01*
X129853727Y-121767811D01*
X129900384Y-121740873D01*
X129880664Y-121814468D01*
X166613709Y-114420076D02*
X166156567Y-114420076D01*
X166385138Y-114191505D02*
X166385138Y-114648648D01*
X180350752Y-92661616D02*
X179588847Y-92661616D01*
X169873561Y-86597587D02*
X169873561Y-85797587D01*
X170064037Y-85797587D01*
X170178323Y-85835683D01*
X170254513Y-85911873D01*
X170292609Y-85988063D01*
X170330704Y-86140444D01*
X170330704Y-86254730D01*
X170292609Y-86407111D01*
X170254513Y-86483302D01*
X170178323Y-86559492D01*
X170064037Y-86597587D01*
X169873561Y-86597587D01*
X171092609Y-86597587D02*
X170635466Y-86597587D01*
X170864037Y-86597587D02*
X170864037Y-85797587D01*
X170787847Y-85911873D01*
X170711656Y-85988063D01*
X170635466Y-86026159D01*
X171587847Y-85797587D02*
X171664037Y-85797587D01*
X171740228Y-85835683D01*
X171778323Y-85873778D01*
X171816418Y-85949968D01*
X171854513Y-86102349D01*
X171854513Y-86292825D01*
X171816418Y-86445206D01*
X171778323Y-86521397D01*
X171740228Y-86559492D01*
X171664037Y-86597587D01*
X171587847Y-86597587D01*
X171511656Y-86559492D01*
X171473561Y-86521397D01*
X171435466Y-86445206D01*
X171397370Y-86292825D01*
X171397370Y-86102349D01*
X171435466Y-85949968D01*
X171473561Y-85873778D01*
X171511656Y-85835683D01*
X171587847Y-85797587D01*
X134119313Y-83567815D02*
X134119313Y-82767815D01*
X134309790Y-82767815D01*
X134424075Y-82805911D01*
X134500266Y-82882101D01*
X134538361Y-82958291D01*
X134576456Y-83110672D01*
X134576456Y-83224958D01*
X134538361Y-83377339D01*
X134500266Y-83453530D01*
X134424075Y-83529720D01*
X134309790Y-83567815D01*
X134119313Y-83567815D01*
X135033599Y-83110672D02*
X134957409Y-83072577D01*
X134919313Y-83034482D01*
X134881218Y-82958291D01*
X134881218Y-82920196D01*
X134919313Y-82844006D01*
X134957409Y-82805911D01*
X135033599Y-82767815D01*
X135185980Y-82767815D01*
X135262170Y-82805911D01*
X135300266Y-82844006D01*
X135338361Y-82920196D01*
X135338361Y-82958291D01*
X135300266Y-83034482D01*
X135262170Y-83072577D01*
X135185980Y-83110672D01*
X135033599Y-83110672D01*
X134957409Y-83148768D01*
X134919313Y-83186863D01*
X134881218Y-83263053D01*
X134881218Y-83415434D01*
X134919313Y-83491625D01*
X134957409Y-83529720D01*
X135033599Y-83567815D01*
X135185980Y-83567815D01*
X135262170Y-83529720D01*
X135300266Y-83491625D01*
X135338361Y-83415434D01*
X135338361Y-83263053D01*
X135300266Y-83186863D01*
X135262170Y-83148768D01*
X135185980Y-83110672D01*
X97949713Y-88729216D02*
X97949713Y-87929216D01*
X98140190Y-87929216D01*
X98254475Y-87967312D01*
X98330666Y-88043502D01*
X98368761Y-88119692D01*
X98406856Y-88272073D01*
X98406856Y-88386359D01*
X98368761Y-88538740D01*
X98330666Y-88614931D01*
X98254475Y-88691121D01*
X98140190Y-88729216D01*
X97949713Y-88729216D01*
X99092570Y-87929216D02*
X98940190Y-87929216D01*
X98863999Y-87967312D01*
X98825904Y-88005407D01*
X98749713Y-88119692D01*
X98711618Y-88272073D01*
X98711618Y-88576835D01*
X98749713Y-88653026D01*
X98787809Y-88691121D01*
X98863999Y-88729216D01*
X99016380Y-88729216D01*
X99092570Y-88691121D01*
X99130666Y-88653026D01*
X99168761Y-88576835D01*
X99168761Y-88386359D01*
X99130666Y-88310169D01*
X99092570Y-88272073D01*
X99016380Y-88233978D01*
X98863999Y-88233978D01*
X98787809Y-88272073D01*
X98749713Y-88310169D01*
X98711618Y-88386359D01*
X115653561Y-102244216D02*
X115653561Y-101444216D01*
X115844037Y-101444216D01*
X115958323Y-101482312D01*
X116034513Y-101558502D01*
X116072609Y-101634692D01*
X116110704Y-101787073D01*
X116110704Y-101901359D01*
X116072609Y-102053740D01*
X116034513Y-102129931D01*
X115958323Y-102206121D01*
X115844037Y-102244216D01*
X115653561Y-102244216D01*
X116872609Y-102244216D02*
X116415466Y-102244216D01*
X116644037Y-102244216D02*
X116644037Y-101444216D01*
X116567847Y-101558502D01*
X116491656Y-101634692D01*
X116415466Y-101672788D01*
X117177370Y-101520407D02*
X117215466Y-101482312D01*
X117291656Y-101444216D01*
X117482132Y-101444216D01*
X117558323Y-101482312D01*
X117596418Y-101520407D01*
X117634513Y-101596597D01*
X117634513Y-101672788D01*
X117596418Y-101787073D01*
X117139275Y-102244216D01*
X117634513Y-102244216D01*
X116034513Y-85178416D02*
X116034513Y-84378416D01*
X116224990Y-84378416D01*
X116339275Y-84416512D01*
X116415466Y-84492702D01*
X116453561Y-84568892D01*
X116491656Y-84721273D01*
X116491656Y-84835559D01*
X116453561Y-84987940D01*
X116415466Y-85064131D01*
X116339275Y-85140321D01*
X116224990Y-85178416D01*
X116034513Y-85178416D01*
X116758323Y-84378416D02*
X117291656Y-84378416D01*
X116948799Y-85178416D01*
X180237419Y-130353457D02*
X179371394Y-129853457D01*
X179561870Y-129523543D01*
X179650728Y-129464874D01*
X179715777Y-129447444D01*
X179822065Y-129453824D01*
X179945783Y-129525252D01*
X180004452Y-129614111D01*
X180021882Y-129679159D01*
X180015502Y-129785447D01*
X179825026Y-130115362D01*
X179823775Y-129069910D02*
X180808848Y-129363714D01*
X180285496Y-128841614D01*
X180999324Y-129033799D01*
X180252346Y-128327603D01*
X181594562Y-128002817D02*
X181015502Y-128053397D01*
X181308848Y-128497688D02*
X180442822Y-127997688D01*
X180633298Y-127667774D01*
X180722157Y-127609105D01*
X180787206Y-127591675D01*
X180893494Y-127598055D01*
X181017212Y-127669483D01*
X181075881Y-127758342D01*
X181093311Y-127823391D01*
X181086931Y-127929679D01*
X180896455Y-128259593D01*
X181772279Y-127885479D02*
X182153231Y-127225650D01*
X182124751Y-126989264D02*
X182237419Y-126889356D01*
X182356467Y-126683159D01*
X182362846Y-126576871D01*
X182345417Y-126511822D01*
X182286748Y-126422964D01*
X182204269Y-126375345D01*
X182097981Y-126368965D01*
X182032932Y-126386395D01*
X181944074Y-126445064D01*
X181807596Y-126586211D01*
X181718738Y-126644881D01*
X181653689Y-126662310D01*
X181547401Y-126655931D01*
X181464922Y-126608312D01*
X181406253Y-126519453D01*
X181388823Y-126454404D01*
X181395203Y-126348116D01*
X181514251Y-126141920D01*
X181626919Y-126042011D01*
X181752346Y-125729527D02*
X182737419Y-126023330D01*
X182214068Y-125501230D01*
X182927895Y-125693416D01*
X182180917Y-124987219D01*
X183200850Y-125411120D02*
X183581802Y-124751291D01*
X183880276Y-124043843D02*
X183594562Y-124538715D01*
X183737419Y-124291279D02*
X182871394Y-123791279D01*
X182947493Y-123945187D01*
X182982352Y-124075284D01*
X182975972Y-124181572D01*
X182111717Y-95598320D02*
X182111717Y-96312606D01*
X182064098Y-96455463D01*
X181968860Y-96550701D01*
X181826003Y-96598320D01*
X181730765Y-96598320D01*
X182492670Y-95598320D02*
X183111717Y-95598320D01*
X182778384Y-95979273D01*
X182921241Y-95979273D01*
X183016479Y-96026892D01*
X183064098Y-96074511D01*
X183111717Y-96169749D01*
X183111717Y-96407844D01*
X183064098Y-96503082D01*
X183016479Y-96550701D01*
X182921241Y-96598320D01*
X182635527Y-96598320D01*
X182540289Y-96550701D01*
X182492670Y-96503082D01*
X152204113Y-85776415D02*
X152204113Y-84976415D01*
X152394590Y-84976415D01*
X152508875Y-85014511D01*
X152585066Y-85090701D01*
X152623161Y-85166891D01*
X152661256Y-85319272D01*
X152661256Y-85433558D01*
X152623161Y-85585939D01*
X152585066Y-85662130D01*
X152508875Y-85738320D01*
X152394590Y-85776415D01*
X152204113Y-85776415D01*
X153042209Y-85776415D02*
X153194590Y-85776415D01*
X153270780Y-85738320D01*
X153308875Y-85700225D01*
X153385066Y-85585939D01*
X153423161Y-85433558D01*
X153423161Y-85128796D01*
X153385066Y-85052606D01*
X153346970Y-85014511D01*
X153270780Y-84976415D01*
X153118399Y-84976415D01*
X153042209Y-85014511D01*
X153004113Y-85052606D01*
X152966018Y-85128796D01*
X152966018Y-85319272D01*
X153004113Y-85395463D01*
X153042209Y-85433558D01*
X153118399Y-85471653D01*
X153270780Y-85471653D01*
X153346970Y-85433558D01*
X153385066Y-85395463D01*
X153423161Y-85319272D01*
X170242226Y-69577862D02*
X170242226Y-68777862D01*
X170432703Y-68777862D01*
X170546988Y-68815958D01*
X170623179Y-68892148D01*
X170661274Y-68968338D01*
X170699369Y-69120719D01*
X170699369Y-69235005D01*
X170661274Y-69387386D01*
X170623179Y-69463577D01*
X170546988Y-69539767D01*
X170432703Y-69577862D01*
X170242226Y-69577862D01*
X171423179Y-68777862D02*
X171042226Y-68777862D01*
X171004131Y-69158815D01*
X171042226Y-69120719D01*
X171118417Y-69082624D01*
X171308893Y-69082624D01*
X171385083Y-69120719D01*
X171423179Y-69158815D01*
X171461274Y-69235005D01*
X171461274Y-69425481D01*
X171423179Y-69501672D01*
X171385083Y-69539767D01*
X171308893Y-69577862D01*
X171118417Y-69577862D01*
X171042226Y-69539767D01*
X171004131Y-69501672D01*
X158535904Y-110961438D02*
X157735904Y-110961438D01*
X157735904Y-110770962D01*
X157774000Y-110656676D01*
X157850190Y-110580486D01*
X157926380Y-110542390D01*
X158078761Y-110504295D01*
X158193047Y-110504295D01*
X158345428Y-110542390D01*
X158421619Y-110580486D01*
X158497809Y-110656676D01*
X158535904Y-110770962D01*
X158535904Y-110961438D01*
X158535904Y-109742390D02*
X158535904Y-110199533D01*
X158535904Y-109970962D02*
X157735904Y-109970962D01*
X157850190Y-110047152D01*
X157926380Y-110123343D01*
X157964476Y-110199533D01*
X157735904Y-109056676D02*
X157735904Y-109209057D01*
X157774000Y-109285248D01*
X157812095Y-109323343D01*
X157926380Y-109399533D01*
X158078761Y-109437629D01*
X158383523Y-109437629D01*
X158459714Y-109399533D01*
X158497809Y-109361438D01*
X158535904Y-109285248D01*
X158535904Y-109132867D01*
X158497809Y-109056676D01*
X158459714Y-109018581D01*
X158383523Y-108980486D01*
X158193047Y-108980486D01*
X158116857Y-109018581D01*
X158078761Y-109056676D01*
X158040666Y-109132867D01*
X158040666Y-109285248D01*
X158078761Y-109361438D01*
X158116857Y-109399533D01*
X158193047Y-109437629D01*
X165213304Y-110961438D02*
X164413304Y-110961438D01*
X164413304Y-110770962D01*
X164451400Y-110656676D01*
X164527590Y-110580486D01*
X164603780Y-110542390D01*
X164756161Y-110504295D01*
X164870447Y-110504295D01*
X165022828Y-110542390D01*
X165099019Y-110580486D01*
X165175209Y-110656676D01*
X165213304Y-110770962D01*
X165213304Y-110961438D01*
X165213304Y-109742390D02*
X165213304Y-110199533D01*
X165213304Y-109970962D02*
X164413304Y-109970962D01*
X164527590Y-110047152D01*
X164603780Y-110123343D01*
X164641876Y-110199533D01*
X164413304Y-109475724D02*
X164413304Y-108942390D01*
X165213304Y-109285248D01*
X97568761Y-105744216D02*
X97568761Y-104944216D01*
X97759237Y-104944216D01*
X97873523Y-104982312D01*
X97949713Y-105058502D01*
X97987809Y-105134692D01*
X98025904Y-105287073D01*
X98025904Y-105401359D01*
X97987809Y-105553740D01*
X97949713Y-105629931D01*
X97873523Y-105706121D01*
X97759237Y-105744216D01*
X97568761Y-105744216D01*
X98787809Y-105744216D02*
X98330666Y-105744216D01*
X98559237Y-105744216D02*
X98559237Y-104944216D01*
X98483047Y-105058502D01*
X98406856Y-105134692D01*
X98330666Y-105172788D01*
X99549713Y-105744216D02*
X99092570Y-105744216D01*
X99321142Y-105744216D02*
X99321142Y-104944216D01*
X99244951Y-105058502D01*
X99168761Y-105134692D01*
X99092570Y-105172788D01*
X116034513Y-68146515D02*
X116034513Y-67346515D01*
X116224990Y-67346515D01*
X116339275Y-67384611D01*
X116415466Y-67460801D01*
X116453561Y-67536991D01*
X116491656Y-67689372D01*
X116491656Y-67803658D01*
X116453561Y-67956039D01*
X116415466Y-68032230D01*
X116339275Y-68108420D01*
X116224990Y-68146515D01*
X116034513Y-68146515D01*
X116796418Y-67422706D02*
X116834513Y-67384611D01*
X116910704Y-67346515D01*
X117101180Y-67346515D01*
X117177370Y-67384611D01*
X117215466Y-67422706D01*
X117253561Y-67498896D01*
X117253561Y-67575087D01*
X117215466Y-67689372D01*
X116758323Y-68146515D01*
X117253561Y-68146515D01*
X133738361Y-100633615D02*
X133738361Y-99833615D01*
X133928837Y-99833615D01*
X134043123Y-99871711D01*
X134119313Y-99947901D01*
X134157409Y-100024091D01*
X134195504Y-100176472D01*
X134195504Y-100290758D01*
X134157409Y-100443139D01*
X134119313Y-100519330D01*
X134043123Y-100595520D01*
X133928837Y-100633615D01*
X133738361Y-100633615D01*
X134957409Y-100633615D02*
X134500266Y-100633615D01*
X134728837Y-100633615D02*
X134728837Y-99833615D01*
X134652647Y-99947901D01*
X134576456Y-100024091D01*
X134500266Y-100062187D01*
X135224075Y-99833615D02*
X135719313Y-99833615D01*
X135452647Y-100138377D01*
X135566932Y-100138377D01*
X135643123Y-100176472D01*
X135681218Y-100214568D01*
X135719313Y-100290758D01*
X135719313Y-100481234D01*
X135681218Y-100557425D01*
X135643123Y-100595520D01*
X135566932Y-100633615D01*
X135338361Y-100633615D01*
X135262170Y-100595520D01*
X135224075Y-100557425D01*
X134119313Y-66535914D02*
X134119313Y-65735914D01*
X134309790Y-65735914D01*
X134424075Y-65774010D01*
X134500266Y-65850200D01*
X134538361Y-65926390D01*
X134576456Y-66078771D01*
X134576456Y-66193057D01*
X134538361Y-66345438D01*
X134500266Y-66421629D01*
X134424075Y-66497819D01*
X134309790Y-66535914D01*
X134119313Y-66535914D01*
X134843123Y-65735914D02*
X135338361Y-65735914D01*
X135071694Y-66040676D01*
X135185980Y-66040676D01*
X135262170Y-66078771D01*
X135300266Y-66116867D01*
X135338361Y-66193057D01*
X135338361Y-66383533D01*
X135300266Y-66459724D01*
X135262170Y-66497819D01*
X135185980Y-66535914D01*
X134957409Y-66535914D01*
X134881218Y-66497819D01*
X134843123Y-66459724D01*
X152153313Y-68806015D02*
X152153313Y-68006015D01*
X152343790Y-68006015D01*
X152458075Y-68044111D01*
X152534266Y-68120301D01*
X152572361Y-68196491D01*
X152610456Y-68348872D01*
X152610456Y-68463158D01*
X152572361Y-68615539D01*
X152534266Y-68691730D01*
X152458075Y-68767920D01*
X152343790Y-68806015D01*
X152153313Y-68806015D01*
X153296170Y-68272682D02*
X153296170Y-68806015D01*
X153105694Y-67967920D02*
X152915218Y-68539349D01*
X153410456Y-68539349D01*
X151823161Y-102842215D02*
X151823161Y-102042215D01*
X152013637Y-102042215D01*
X152127923Y-102080311D01*
X152204113Y-102156501D01*
X152242209Y-102232691D01*
X152280304Y-102385072D01*
X152280304Y-102499358D01*
X152242209Y-102651739D01*
X152204113Y-102727930D01*
X152127923Y-102804120D01*
X152013637Y-102842215D01*
X151823161Y-102842215D01*
X153042209Y-102842215D02*
X152585066Y-102842215D01*
X152813637Y-102842215D02*
X152813637Y-102042215D01*
X152737447Y-102156501D01*
X152661256Y-102232691D01*
X152585066Y-102270787D01*
X153727923Y-102308882D02*
X153727923Y-102842215D01*
X153537447Y-102004120D02*
X153346970Y-102575549D01*
X153842209Y-102575549D01*
X179906430Y-90787673D02*
X180620716Y-90787673D01*
X180763573Y-90835292D01*
X180858811Y-90930530D01*
X180906430Y-91073387D01*
X180906430Y-91168625D01*
X180906430Y-90311482D02*
X179906430Y-90311482D01*
X179906430Y-89930530D01*
X179954050Y-89835292D01*
X180001669Y-89787673D01*
X180096907Y-89740054D01*
X180239764Y-89740054D01*
X180335002Y-89787673D01*
X180382621Y-89835292D01*
X180430240Y-89930530D01*
X180430240Y-90311482D01*
X180906430Y-88787673D02*
X180906430Y-89359101D01*
X180906430Y-89073387D02*
X179906430Y-89073387D01*
X180049288Y-89168625D01*
X180144526Y-89263863D01*
X180192145Y-89359101D01*
X169806361Y-103449115D02*
X169806361Y-102649115D01*
X169996837Y-102649115D01*
X170111123Y-102687211D01*
X170187313Y-102763401D01*
X170225409Y-102839591D01*
X170263504Y-102991972D01*
X170263504Y-103106258D01*
X170225409Y-103258639D01*
X170187313Y-103334830D01*
X170111123Y-103411020D01*
X169996837Y-103449115D01*
X169806361Y-103449115D01*
X171025409Y-103449115D02*
X170568266Y-103449115D01*
X170796837Y-103449115D02*
X170796837Y-102649115D01*
X170720647Y-102763401D01*
X170644456Y-102839591D01*
X170568266Y-102877687D01*
X171749218Y-102649115D02*
X171368266Y-102649115D01*
X171330170Y-103030068D01*
X171368266Y-102991972D01*
X171444456Y-102953877D01*
X171634932Y-102953877D01*
X171711123Y-102991972D01*
X171749218Y-103030068D01*
X171787313Y-103106258D01*
X171787313Y-103296734D01*
X171749218Y-103372925D01*
X171711123Y-103411020D01*
X171634932Y-103449115D01*
X171444456Y-103449115D01*
X171368266Y-103411020D01*
X171330170Y-103372925D01*
X97949713Y-71646515D02*
X97949713Y-70846515D01*
X98140190Y-70846515D01*
X98254475Y-70884611D01*
X98330666Y-70960801D01*
X98368761Y-71036991D01*
X98406856Y-71189372D01*
X98406856Y-71303658D01*
X98368761Y-71456039D01*
X98330666Y-71532230D01*
X98254475Y-71608420D01*
X98140190Y-71646515D01*
X97949713Y-71646515D01*
X99168761Y-71646515D02*
X98711618Y-71646515D01*
X98940190Y-71646515D02*
X98940190Y-70846515D01*
X98863999Y-70960801D01*
X98787809Y-71036991D01*
X98711618Y-71075087D01*
X169023761Y-109084594D02*
X169071380Y-108941737D01*
X169118999Y-108894118D01*
X169214237Y-108846499D01*
X169357094Y-108846499D01*
X169452332Y-108894118D01*
X169499951Y-108941737D01*
X169547570Y-109036975D01*
X169547570Y-109417927D01*
X168547570Y-109417927D01*
X168547570Y-109084594D01*
X168595190Y-108989356D01*
X168642809Y-108941737D01*
X168738047Y-108894118D01*
X168833285Y-108894118D01*
X168928523Y-108941737D01*
X168976142Y-108989356D01*
X169023761Y-109084594D01*
X169023761Y-109417927D01*
X168547570Y-108560784D02*
X168547570Y-107989356D01*
X169547570Y-108275070D02*
X168547570Y-108275070D01*
X169547570Y-107132213D02*
X169547570Y-107703641D01*
X169547570Y-107417927D02*
X168547570Y-107417927D01*
X168690428Y-107513165D01*
X168785666Y-107608403D01*
X168833285Y-107703641D01*
D11*
X169695790Y-79248281D02*
X172095790Y-79248281D01*
X172095790Y-79248281D02*
X172095790Y-85248281D01*
X172095790Y-85248281D02*
X169695790Y-85248281D01*
X169695790Y-85248281D02*
X169695790Y-79248281D01*
G36*
X172095790Y-85248281D02*
G01*
X169695790Y-85248281D01*
X169695790Y-84689881D01*
X172095790Y-84689881D01*
X172095790Y-85248281D01*
G37*
X172095790Y-85248281D02*
X169695790Y-85248281D01*
X169695790Y-84689881D01*
X172095790Y-84689881D01*
X172095790Y-85248281D01*
D10*
X101391390Y-103496681D02*
X101391390Y-102496681D01*
X101391390Y-89496681D02*
X102391390Y-89496681D01*
X105891390Y-94296681D02*
X105891390Y-94996681D01*
X110391390Y-88796681D02*
X109891390Y-88296681D01*
X101391390Y-94996681D02*
X101391390Y-94496681D01*
X101391390Y-90296681D02*
X105891390Y-90296681D01*
X102391390Y-103496681D02*
X101391390Y-103496681D01*
X115391390Y-89496681D02*
X115391390Y-90496681D01*
X109891390Y-88296681D02*
X106891390Y-88296681D01*
X109891390Y-92796681D02*
X107391390Y-92796681D01*
X101391390Y-90896681D02*
X101391390Y-90296681D01*
X106891390Y-88296681D02*
X106391390Y-88796681D01*
X115391390Y-103496681D02*
X114391390Y-103496681D01*
X101391390Y-90496681D02*
X101391390Y-89496681D01*
X106391390Y-89796681D02*
X106391390Y-88796681D01*
X105891390Y-94996681D02*
X101391390Y-94996681D01*
X114391390Y-89496681D02*
X115391390Y-89496681D01*
X115391390Y-102496681D02*
X115391390Y-103496681D01*
X110391390Y-92296681D02*
X109891390Y-92796681D01*
X105891390Y-90296681D02*
G75*
G03*
X106391390Y-89796681I0J500000D01*
G01*
X107391390Y-92796681D02*
G75*
G03*
X105891390Y-94296681I0J-1500000D01*
G01*
D11*
X133526190Y-76368080D02*
X135926190Y-76368080D01*
X135926190Y-76368080D02*
X135926190Y-82368080D01*
X135926190Y-82368080D02*
X133526190Y-82368080D01*
X133526190Y-82368080D02*
X133526190Y-76368080D01*
G36*
X135926190Y-82368080D02*
G01*
X133526190Y-82368080D01*
X133526190Y-81809680D01*
X135926190Y-81809680D01*
X135926190Y-82368080D01*
G37*
X135926190Y-82368080D02*
X133526190Y-82368080D01*
X133526190Y-81809680D01*
X135926190Y-81809680D01*
X135926190Y-82368080D01*
X97356590Y-81529481D02*
X99756590Y-81529481D01*
X99756590Y-81529481D02*
X99756590Y-87529481D01*
X99756590Y-87529481D02*
X97356590Y-87529481D01*
X97356590Y-87529481D02*
X97356590Y-81529481D01*
G36*
X99756590Y-87529481D02*
G01*
X97356590Y-87529481D01*
X97356590Y-86971081D01*
X99756590Y-86971081D01*
X99756590Y-87529481D01*
G37*
X99756590Y-87529481D02*
X97356590Y-87529481D01*
X97356590Y-86971081D01*
X99756590Y-86971081D01*
X99756590Y-87529481D01*
D10*
X119476190Y-82408681D02*
X119476190Y-81408681D01*
X120476190Y-82408681D02*
X119476190Y-82408681D01*
X123976190Y-73908681D02*
X119476190Y-73908681D01*
X133476190Y-81408681D02*
X133476190Y-82408681D01*
X119476190Y-68408681D02*
X120476190Y-68408681D01*
X127976190Y-67208681D02*
X124976190Y-67208681D01*
X124476190Y-68708681D02*
X124476190Y-67708681D01*
X133476190Y-82408681D02*
X132476190Y-82408681D01*
X128476190Y-67708681D02*
X127976190Y-67208681D01*
X123976190Y-73208681D02*
X123976190Y-73908681D01*
X119476190Y-73908681D02*
X119476190Y-73408681D01*
X132476190Y-68408681D02*
X133476190Y-68408681D01*
X127976190Y-71708681D02*
X125476190Y-71708681D01*
X124976190Y-67208681D02*
X124476190Y-67708681D01*
X133476190Y-68408681D02*
X133476190Y-69408681D01*
X128476190Y-71208681D02*
X127976190Y-71708681D01*
X119476190Y-69408681D02*
X119476190Y-68408681D01*
X119476190Y-69808681D02*
X119476190Y-69208681D01*
X119476190Y-69208681D02*
X123976190Y-69208681D01*
X123976190Y-69208681D02*
G75*
G03*
X124476190Y-68708681I0J500000D01*
G01*
X125476190Y-71708681D02*
G75*
G03*
X123976190Y-73208681I0J-1500000D01*
G01*
X115391390Y-86478681D02*
X114391390Y-86478681D01*
X101391390Y-72478681D02*
X102391390Y-72478681D01*
X101391390Y-86478681D02*
X101391390Y-85478681D01*
X101391390Y-73278681D02*
X105891390Y-73278681D01*
X114391390Y-72478681D02*
X115391390Y-72478681D01*
X109891390Y-71278681D02*
X106891390Y-71278681D01*
X110391390Y-75278681D02*
X109891390Y-75778681D01*
X106391390Y-72778681D02*
X106391390Y-71778681D01*
X105891390Y-77978681D02*
X101391390Y-77978681D01*
X115391390Y-72478681D02*
X115391390Y-73478681D01*
X102391390Y-86478681D02*
X101391390Y-86478681D01*
X109891390Y-75778681D02*
X107391390Y-75778681D01*
X101391390Y-73478681D02*
X101391390Y-72478681D01*
X105891390Y-77278681D02*
X105891390Y-77978681D01*
X101391390Y-77978681D02*
X101391390Y-77478681D01*
X101391390Y-73878681D02*
X101391390Y-73278681D01*
X106891390Y-71278681D02*
X106391390Y-71778681D01*
X115391390Y-85478681D02*
X115391390Y-86478681D01*
X110391390Y-71778681D02*
X109891390Y-71278681D01*
X105891390Y-73278681D02*
G75*
G03*
X106391390Y-72778681I0J500000D01*
G01*
X107391390Y-75778681D02*
G75*
G03*
X105891390Y-77278681I0J-1500000D01*
G01*
X123976190Y-90226681D02*
X123976190Y-90926681D01*
X133476190Y-98426681D02*
X133476190Y-99426681D01*
X133476190Y-85426681D02*
X133476190Y-86426681D01*
X127976190Y-84226681D02*
X124976190Y-84226681D01*
X119476190Y-99426681D02*
X119476190Y-98426681D01*
X128476190Y-88226681D02*
X127976190Y-88726681D01*
X123976190Y-90926681D02*
X119476190Y-90926681D01*
X119476190Y-90926681D02*
X119476190Y-90426681D01*
X124976190Y-84226681D02*
X124476190Y-84726681D01*
X119476190Y-86826681D02*
X119476190Y-86226681D01*
X128476190Y-84726681D02*
X127976190Y-84226681D01*
X119476190Y-86226681D02*
X123976190Y-86226681D01*
X132476190Y-85426681D02*
X133476190Y-85426681D01*
X127976190Y-88726681D02*
X125476190Y-88726681D01*
X120476190Y-99426681D02*
X119476190Y-99426681D01*
X124476190Y-85726681D02*
X124476190Y-84726681D01*
X133476190Y-99426681D02*
X132476190Y-99426681D01*
X119476190Y-86426681D02*
X119476190Y-85426681D01*
X119476190Y-85426681D02*
X120476190Y-85426681D01*
X125476190Y-88726681D02*
G75*
G03*
X123976190Y-90226681I0J-1500000D01*
G01*
X123976190Y-86226681D02*
G75*
G03*
X124476190Y-85726681I0J500000D01*
G01*
D11*
X115441390Y-94996681D02*
X117841390Y-94996681D01*
X117841390Y-94996681D02*
X117841390Y-100996681D01*
X117841390Y-100996681D02*
X115441390Y-100996681D01*
X115441390Y-100996681D02*
X115441390Y-94996681D01*
G36*
X117841390Y-100996681D02*
G01*
X115441390Y-100996681D01*
X115441390Y-100438281D01*
X117841390Y-100438281D01*
X117841390Y-100996681D01*
G37*
X117841390Y-100996681D02*
X115441390Y-100996681D01*
X115441390Y-100438281D01*
X117841390Y-100438281D01*
X117841390Y-100996681D01*
X115441390Y-77978681D02*
X117841390Y-77978681D01*
X117841390Y-77978681D02*
X117841390Y-83978681D01*
X117841390Y-83978681D02*
X115441390Y-83978681D01*
X115441390Y-83978681D02*
X115441390Y-77978681D01*
G36*
X117841390Y-83978681D02*
G01*
X115441390Y-83978681D01*
X115441390Y-83420281D01*
X117841390Y-83420281D01*
X117841390Y-83978681D01*
G37*
X117841390Y-83978681D02*
X115441390Y-83978681D01*
X115441390Y-83420281D01*
X117841390Y-83420281D01*
X117841390Y-83978681D01*
D12*
X185224675Y-130670516D02*
X186341848Y-131315516D01*
X186991848Y-130189683D02*
X185874675Y-129544683D01*
X184156503Y-126820644D02*
X184256503Y-126647439D01*
X186991848Y-130189683D02*
X187073713Y-130467888D01*
X186341848Y-131315516D02*
X186623713Y-131247310D01*
X184499675Y-131926252D02*
X187349675Y-126989908D01*
X186774989Y-125965292D02*
X186090829Y-125570292D01*
X182640829Y-131545868D02*
X183324989Y-131940868D01*
X182656503Y-129418721D02*
X183506503Y-127946477D01*
X186623713Y-131247310D02*
X187073713Y-130467888D01*
D10*
X110391390Y-54760681D02*
X109891390Y-54260681D01*
X110391390Y-58260681D02*
X109891390Y-58760681D01*
X101391390Y-56260681D02*
X105891390Y-56260681D01*
X101391390Y-56460681D02*
X101391390Y-55460681D01*
X114391390Y-55460681D02*
X115391390Y-55460681D01*
X115391390Y-55460681D02*
X115391390Y-56460681D01*
X115391390Y-69460681D02*
X114391390Y-69460681D01*
X101391390Y-55460681D02*
X102391390Y-55460681D01*
X101391390Y-60960681D02*
X101391390Y-60460681D01*
X105891390Y-60260681D02*
X105891390Y-60960681D01*
X115391390Y-68460681D02*
X115391390Y-69460681D01*
X101391390Y-56860681D02*
X101391390Y-56260681D01*
X106891390Y-54260681D02*
X106391390Y-54760681D01*
X102391390Y-69460681D02*
X101391390Y-69460681D01*
X106391390Y-55760681D02*
X106391390Y-54760681D01*
X101391390Y-69460681D02*
X101391390Y-68460681D01*
X105891390Y-60960681D02*
X101391390Y-60960681D01*
X109891390Y-58760681D02*
X107391390Y-58760681D01*
X109891390Y-54260681D02*
X106891390Y-54260681D01*
X105891390Y-56260681D02*
G75*
G03*
X106391390Y-55760681I0J500000D01*
G01*
X107391390Y-58760681D02*
G75*
G03*
X105891390Y-60260681I0J-1500000D01*
G01*
D12*
X180205051Y-91635940D02*
X180205051Y-95055940D01*
X184165051Y-93695940D02*
X184165051Y-94545940D01*
X180515051Y-92895940D02*
X180515051Y-93695940D01*
X182440051Y-92145940D02*
X180715051Y-92145940D01*
X184165051Y-94545940D02*
X182440051Y-94545940D01*
X180205051Y-95055940D02*
X184675051Y-95055940D01*
X184675051Y-95055940D02*
X184675051Y-91635940D01*
X184365051Y-93695940D02*
X184165051Y-93695940D01*
X182440051Y-92145940D02*
X184165051Y-92145940D01*
X180515051Y-93695940D02*
X180715051Y-93695940D01*
X180715051Y-92145940D02*
X180715051Y-92895940D01*
X184675051Y-91635940D02*
X180205051Y-91635940D01*
X184165051Y-92895940D02*
X184365051Y-92895940D01*
X184165051Y-92145940D02*
X184165051Y-92895940D01*
X184965051Y-91345940D02*
X183965051Y-91345940D01*
X180715051Y-92895940D02*
X180515051Y-92895940D01*
X184365051Y-92895940D02*
X184365051Y-93695940D01*
X184965051Y-91345940D02*
X184965051Y-92345940D01*
X180715051Y-94545940D02*
X182440051Y-94545940D01*
X180715051Y-93695940D02*
X180715051Y-94545940D01*
D11*
X151610990Y-78576680D02*
X154010990Y-78576680D01*
X154010990Y-78576680D02*
X154010990Y-84576680D01*
X154010990Y-84576680D02*
X151610990Y-84576680D01*
X151610990Y-84576680D02*
X151610990Y-78576680D01*
G36*
X154010990Y-84576680D02*
G01*
X151610990Y-84576680D01*
X151610990Y-84018280D01*
X154010990Y-84018280D01*
X154010990Y-84576680D01*
G37*
X154010990Y-84576680D02*
X151610990Y-84576680D01*
X151610990Y-84018280D01*
X154010990Y-84018280D01*
X154010990Y-84576680D01*
D10*
X97306590Y-105996681D02*
X97306590Y-106996681D01*
X87806590Y-97796681D02*
X87806590Y-98496681D01*
X88806590Y-91796681D02*
X88306590Y-92296681D01*
X83306590Y-98496681D02*
X83306590Y-97996681D01*
X83306590Y-93996681D02*
X83306590Y-92996681D01*
X92306590Y-95796681D02*
X91806590Y-96296681D01*
X83306590Y-106996681D02*
X83306590Y-105996681D01*
X91806590Y-91796681D02*
X88806590Y-91796681D01*
X84306590Y-106996681D02*
X83306590Y-106996681D01*
X92306590Y-92296681D02*
X91806590Y-91796681D01*
X97306590Y-106996681D02*
X96306590Y-106996681D01*
X87806590Y-98496681D02*
X83306590Y-98496681D01*
X83306590Y-93796681D02*
X87806590Y-93796681D01*
X83306590Y-94396681D02*
X83306590Y-93796681D01*
X83306590Y-92996681D02*
X84306590Y-92996681D01*
X91806590Y-96296681D02*
X89306590Y-96296681D01*
X88306590Y-93296681D02*
X88306590Y-92296681D01*
X96306590Y-92996681D02*
X97306590Y-92996681D01*
X97306590Y-92996681D02*
X97306590Y-93996681D01*
X87806590Y-93796681D02*
G75*
G03*
X88306590Y-93296681I0J500000D01*
G01*
X89306590Y-96296681D02*
G75*
G03*
X87806590Y-97796681I0J-1500000D01*
G01*
X143060990Y-52990481D02*
X142560990Y-53490481D01*
X138560990Y-68190481D02*
X137560990Y-68190481D01*
X137560990Y-55190481D02*
X137560990Y-54190481D01*
X137560990Y-59690481D02*
X137560990Y-59190481D01*
X146060990Y-57490481D02*
X143560990Y-57490481D01*
X150560990Y-54190481D02*
X151560990Y-54190481D01*
X142560990Y-54490481D02*
X142560990Y-53490481D01*
X142060990Y-59690481D02*
X137560990Y-59690481D01*
X146560990Y-56990481D02*
X146060990Y-57490481D01*
X146560990Y-53490481D02*
X146060990Y-52990481D01*
X151560990Y-67190481D02*
X151560990Y-68190481D01*
X137560990Y-54190481D02*
X138560990Y-54190481D01*
X137560990Y-54990481D02*
X142060990Y-54990481D01*
X146060990Y-52990481D02*
X143060990Y-52990481D01*
X151560990Y-54190481D02*
X151560990Y-55190481D01*
X142060990Y-58990481D02*
X142060990Y-59690481D01*
X137560990Y-55590481D02*
X137560990Y-54990481D01*
X137560990Y-68190481D02*
X137560990Y-67190481D01*
X151560990Y-68190481D02*
X150560990Y-68190481D01*
X142060990Y-54990481D02*
G75*
G03*
X142560990Y-54490481I0J500000D01*
G01*
X143560990Y-57490481D02*
G75*
G03*
X142060990Y-58990481I0J-1500000D01*
G01*
D11*
X169695851Y-62230280D02*
X172095851Y-62230280D01*
X172095851Y-62230280D02*
X172095851Y-68230280D01*
X172095851Y-68230280D02*
X169695851Y-68230280D01*
X169695851Y-68230280D02*
X169695851Y-62230280D01*
G36*
X172095851Y-68230280D02*
G01*
X169695851Y-68230280D01*
X169695851Y-67671880D01*
X172095851Y-67671880D01*
X172095851Y-68230280D01*
G37*
X172095851Y-68230280D02*
X169695851Y-68230280D01*
X169695851Y-67671880D01*
X172095851Y-67671880D01*
X172095851Y-68230280D01*
D10*
X171856673Y-118954702D02*
X172722699Y-119454702D01*
X177481029Y-137213032D02*
X176981029Y-138079058D01*
X171269813Y-130971174D02*
X173434876Y-132221174D01*
X171617889Y-136368288D02*
X172300902Y-136185276D01*
X175483915Y-131672136D02*
X175833915Y-131065918D01*
X183981029Y-125954702D02*
X183481029Y-126820728D01*
X168836800Y-134185276D02*
X169019813Y-134868288D01*
X177381029Y-137386238D02*
X173483915Y-135136238D01*
X164856673Y-131079058D02*
X165356673Y-130213032D01*
X177681029Y-136866622D02*
X177381029Y-137386238D01*
X169019813Y-134868288D02*
X171617889Y-136368288D01*
X165722699Y-131579058D02*
X164856673Y-131079058D01*
X179731029Y-133315918D02*
X179481029Y-133748931D01*
X176981029Y-138079058D02*
X176115003Y-137579058D01*
X183115003Y-125454702D02*
X183981029Y-125954702D01*
X175833915Y-131065918D02*
X179731029Y-133315918D01*
X171356673Y-119820728D02*
X171856673Y-118954702D01*
X170586800Y-131154187D02*
X171269813Y-130971174D01*
X172800902Y-135319250D02*
X172300902Y-136185276D01*
X173434875Y-132221175D02*
G75*
G03*
X175483915Y-131672136I750001J1299039D01*
G01*
X173483915Y-135136237D02*
G75*
G03*
X172800902Y-135319250I-250000J-433013D01*
G01*
D11*
X161318651Y-112749480D02*
X158918651Y-112749480D01*
X158918651Y-112749480D02*
X158918651Y-106749480D01*
X158918651Y-106749480D02*
X161318651Y-106749480D01*
X161318651Y-106749480D02*
X161318651Y-112749480D01*
G36*
X161318651Y-107307880D02*
G01*
X158918651Y-107307880D01*
X158918651Y-106749480D01*
X161318651Y-106749480D01*
X161318651Y-107307880D01*
G37*
X161318651Y-107307880D02*
X158918651Y-107307880D01*
X158918651Y-106749480D01*
X161318651Y-106749480D01*
X161318651Y-107307880D01*
D10*
X119476190Y-52190681D02*
X123976190Y-52190681D01*
X119476190Y-65390681D02*
X119476190Y-64390681D01*
X124476190Y-51690681D02*
X124476190Y-50690681D01*
X133476190Y-65390681D02*
X132476190Y-65390681D01*
X127976190Y-54690681D02*
X125476190Y-54690681D01*
X119476190Y-52390681D02*
X119476190Y-51390681D01*
X123976190Y-56190681D02*
X123976190Y-56890681D01*
X124976190Y-50190681D02*
X124476190Y-50690681D01*
X133476190Y-64390681D02*
X133476190Y-65390681D01*
X128476190Y-50690681D02*
X127976190Y-50190681D01*
X132476190Y-51390681D02*
X133476190Y-51390681D01*
X119476190Y-52790681D02*
X119476190Y-52190681D01*
X119476190Y-56890681D02*
X119476190Y-56390681D01*
X127976190Y-50190681D02*
X124976190Y-50190681D01*
X123976190Y-56890681D02*
X119476190Y-56890681D01*
X120476190Y-65390681D02*
X119476190Y-65390681D01*
X119476190Y-51390681D02*
X120476190Y-51390681D01*
X133476190Y-51390681D02*
X133476190Y-52390681D01*
X128476190Y-54190681D02*
X127976190Y-54690681D01*
X125476190Y-54690681D02*
G75*
G03*
X123976190Y-56190681I0J-1500000D01*
G01*
X123976190Y-52190681D02*
G75*
G03*
X124476190Y-51690681I0J500000D01*
G01*
D11*
X164011051Y-112749480D02*
X161611051Y-112749480D01*
X161611051Y-112749480D02*
X161611051Y-106749480D01*
X161611051Y-106749480D02*
X164011051Y-106749480D01*
X164011051Y-106749480D02*
X164011051Y-112749480D01*
G36*
X164011051Y-107307880D02*
G01*
X161611051Y-107307880D01*
X161611051Y-106749480D01*
X164011051Y-106749480D01*
X164011051Y-107307880D01*
G37*
X164011051Y-107307880D02*
X161611051Y-107307880D01*
X161611051Y-106749480D01*
X164011051Y-106749480D01*
X164011051Y-107307880D01*
X97356590Y-98496681D02*
X99756590Y-98496681D01*
X99756590Y-98496681D02*
X99756590Y-104496681D01*
X99756590Y-104496681D02*
X97356590Y-104496681D01*
X97356590Y-104496681D02*
X97356590Y-98496681D01*
G36*
X99756590Y-104496681D02*
G01*
X97356590Y-104496681D01*
X97356590Y-103938281D01*
X99756590Y-103938281D01*
X99756590Y-104496681D01*
G37*
X99756590Y-104496681D02*
X97356590Y-104496681D01*
X97356590Y-103938281D01*
X99756590Y-103938281D01*
X99756590Y-104496681D01*
D12*
X169878632Y-111467605D02*
X170681517Y-110749708D01*
X169246445Y-117391054D02*
X166897214Y-118246104D01*
X170846549Y-114126935D02*
X169878632Y-111467605D01*
X166897214Y-118246104D02*
X165990860Y-115755919D01*
X165990860Y-115755919D02*
X164684688Y-116231327D01*
X164205515Y-110850723D02*
X165111869Y-113340909D01*
X166554747Y-109995673D02*
X164205515Y-110850723D01*
X172179565Y-114865562D02*
X171923050Y-114160792D01*
X170681517Y-110749708D02*
X170425002Y-110044939D01*
X171923050Y-114160792D02*
X170846549Y-114126935D01*
D10*
X142060990Y-93026681D02*
X142060990Y-93726681D01*
X150560990Y-88226681D02*
X151560990Y-88226681D01*
X151560990Y-102226681D02*
X150560990Y-102226681D01*
X151560990Y-88226681D02*
X151560990Y-89226681D01*
X138560990Y-102226681D02*
X137560990Y-102226681D01*
X146560990Y-87526681D02*
X146060990Y-87026681D01*
X143060990Y-87026681D02*
X142560990Y-87526681D01*
X137560990Y-88226681D02*
X138560990Y-88226681D01*
X146060990Y-91526681D02*
X143560990Y-91526681D01*
X137560990Y-89226681D02*
X137560990Y-88226681D01*
X146560990Y-91026681D02*
X146060990Y-91526681D01*
X142060990Y-93726681D02*
X137560990Y-93726681D01*
X142560990Y-88526681D02*
X142560990Y-87526681D01*
X137560990Y-93726681D02*
X137560990Y-93226681D01*
X137560990Y-89026681D02*
X142060990Y-89026681D01*
X151560990Y-101226681D02*
X151560990Y-102226681D01*
X146060990Y-87026681D02*
X143060990Y-87026681D01*
X137560990Y-89626681D02*
X137560990Y-89026681D01*
X137560990Y-102226681D02*
X137560990Y-101226681D01*
X143560990Y-91526681D02*
G75*
G03*
X142060990Y-93026681I0J-1500000D01*
G01*
X142060990Y-89026681D02*
G75*
G03*
X142560990Y-88526681I0J500000D01*
G01*
X146560990Y-70508681D02*
X146060990Y-70008681D01*
X137560990Y-72608681D02*
X137560990Y-72008681D01*
X151560990Y-85208681D02*
X150560990Y-85208681D01*
X138560990Y-85208681D02*
X137560990Y-85208681D01*
X142560990Y-71508681D02*
X142560990Y-70508681D01*
X142060990Y-76008681D02*
X142060990Y-76708681D01*
X151560990Y-84208681D02*
X151560990Y-85208681D01*
X137560990Y-71208681D02*
X138560990Y-71208681D01*
X137560990Y-85208681D02*
X137560990Y-84208681D01*
X142060990Y-76708681D02*
X137560990Y-76708681D01*
X137560990Y-72208681D02*
X137560990Y-71208681D01*
X137560990Y-76708681D02*
X137560990Y-76208681D01*
X146060990Y-74508681D02*
X143560990Y-74508681D01*
X150560990Y-71208681D02*
X151560990Y-71208681D01*
X137560990Y-72008681D02*
X142060990Y-72008681D01*
X151560990Y-71208681D02*
X151560990Y-72208681D01*
X146560990Y-74008681D02*
X146060990Y-74508681D01*
X143060990Y-70008681D02*
X142560990Y-70508681D01*
X146060990Y-70008681D02*
X143060990Y-70008681D01*
X143560990Y-74508681D02*
G75*
G03*
X142060990Y-76008681I0J-1500000D01*
G01*
X142060990Y-72008681D02*
G75*
G03*
X142560990Y-71508681I0J500000D01*
G01*
D11*
X115441390Y-60960681D02*
X117841390Y-60960681D01*
X117841390Y-60960681D02*
X117841390Y-66960681D01*
X117841390Y-66960681D02*
X115441390Y-66960681D01*
X115441390Y-66960681D02*
X115441390Y-60960681D01*
G36*
X117841390Y-66960681D02*
G01*
X115441390Y-66960681D01*
X115441390Y-66402281D01*
X117841390Y-66402281D01*
X117841390Y-66960681D01*
G37*
X117841390Y-66960681D02*
X115441390Y-66960681D01*
X115441390Y-66402281D01*
X117841390Y-66402281D01*
X117841390Y-66960681D01*
D10*
X83306590Y-76778681D02*
X87806590Y-76778681D01*
X88806590Y-74778681D02*
X88306590Y-75278681D01*
X87806590Y-81478681D02*
X83306590Y-81478681D01*
X83306590Y-76978681D02*
X83306590Y-75978681D01*
X91806590Y-79278681D02*
X89306590Y-79278681D01*
X83306590Y-81478681D02*
X83306590Y-80978681D01*
X97306590Y-88978681D02*
X97306590Y-89978681D01*
X83306590Y-77378681D02*
X83306590Y-76778681D01*
X92306590Y-75278681D02*
X91806590Y-74778681D01*
X92306590Y-78778681D02*
X91806590Y-79278681D01*
X97306590Y-89978681D02*
X96306590Y-89978681D01*
X83306590Y-89978681D02*
X83306590Y-88978681D01*
X97306590Y-75978681D02*
X97306590Y-76978681D01*
X96306590Y-75978681D02*
X97306590Y-75978681D01*
X87806590Y-80778681D02*
X87806590Y-81478681D01*
X88306590Y-76278681D02*
X88306590Y-75278681D01*
X84306590Y-89978681D02*
X83306590Y-89978681D01*
X83306590Y-75978681D02*
X84306590Y-75978681D01*
X91806590Y-74778681D02*
X88806590Y-74778681D01*
X89306590Y-79278681D02*
G75*
G03*
X87806590Y-80778681I0J-1500000D01*
G01*
X87806590Y-76778681D02*
G75*
G03*
X88306590Y-76278681I0J500000D01*
G01*
D11*
X133526190Y-93386080D02*
X135926190Y-93386080D01*
X135926190Y-93386080D02*
X135926190Y-99386080D01*
X135926190Y-99386080D02*
X133526190Y-99386080D01*
X133526190Y-99386080D02*
X133526190Y-93386080D01*
G36*
X135926190Y-99386080D02*
G01*
X133526190Y-99386080D01*
X133526190Y-98827680D01*
X135926190Y-98827680D01*
X135926190Y-99386080D01*
G37*
X135926190Y-99386080D02*
X133526190Y-99386080D01*
X133526190Y-98827680D01*
X135926190Y-98827680D01*
X135926190Y-99386080D01*
D10*
X83306590Y-58960681D02*
X84306590Y-58960681D01*
X92306590Y-61760681D02*
X91806590Y-62260681D01*
X84306590Y-72960681D02*
X83306590Y-72960681D01*
X83306590Y-59760681D02*
X87806590Y-59760681D01*
X97306590Y-71960681D02*
X97306590Y-72960681D01*
X83306590Y-60360681D02*
X83306590Y-59760681D01*
X83306590Y-59960681D02*
X83306590Y-58960681D01*
X97306590Y-72960681D02*
X96306590Y-72960681D01*
X91806590Y-62260681D02*
X89306590Y-62260681D01*
X87806590Y-64460681D02*
X83306590Y-64460681D01*
X96306590Y-58960681D02*
X97306590Y-58960681D01*
X83306590Y-64460681D02*
X83306590Y-63960681D01*
X91806590Y-57760681D02*
X88806590Y-57760681D01*
X88306590Y-59260681D02*
X88306590Y-58260681D01*
X92306590Y-58260681D02*
X91806590Y-57760681D01*
X97306590Y-58960681D02*
X97306590Y-59960681D01*
X83306590Y-72960681D02*
X83306590Y-71960681D01*
X88806590Y-57760681D02*
X88306590Y-58260681D01*
X87806590Y-63760681D02*
X87806590Y-64460681D01*
X87806590Y-59760681D02*
G75*
G03*
X88306590Y-59260681I0J500000D01*
G01*
X89306590Y-62260681D02*
G75*
G03*
X87806590Y-63760681I0J-1500000D01*
G01*
D11*
X133526190Y-59350080D02*
X135926190Y-59350080D01*
X135926190Y-59350080D02*
X135926190Y-65350080D01*
X135926190Y-65350080D02*
X133526190Y-65350080D01*
X133526190Y-65350080D02*
X133526190Y-59350080D01*
G36*
X135926190Y-65350080D02*
G01*
X133526190Y-65350080D01*
X133526190Y-64791680D01*
X135926190Y-64791680D01*
X135926190Y-65350080D01*
G37*
X135926190Y-65350080D02*
X133526190Y-65350080D01*
X133526190Y-64791680D01*
X135926190Y-64791680D01*
X135926190Y-65350080D01*
D10*
X169645790Y-103766281D02*
X169645790Y-104766281D01*
X156645790Y-104766281D02*
X155645790Y-104766281D01*
X160645790Y-91066281D02*
X160645790Y-90066281D01*
X155645790Y-91766281D02*
X155645790Y-90766281D01*
X169645790Y-104766281D02*
X168645790Y-104766281D01*
X164145790Y-89566281D02*
X161145790Y-89566281D01*
X160145790Y-96266281D02*
X155645790Y-96266281D01*
X164145790Y-94066281D02*
X161645790Y-94066281D01*
X160145790Y-95566281D02*
X160145790Y-96266281D01*
X169645790Y-90766281D02*
X169645790Y-91766281D01*
X155645790Y-96266281D02*
X155645790Y-95766281D01*
X161145790Y-89566281D02*
X160645790Y-90066281D01*
X155645790Y-91566281D02*
X160145790Y-91566281D01*
X164645790Y-90066281D02*
X164145790Y-89566281D01*
X155645790Y-104766281D02*
X155645790Y-103766281D01*
X164645790Y-93566281D02*
X164145790Y-94066281D01*
X168645790Y-90766281D02*
X169645790Y-90766281D01*
X155645790Y-90766281D02*
X156645790Y-90766281D01*
X155645790Y-92166281D02*
X155645790Y-91566281D01*
X160145790Y-91566281D02*
G75*
G03*
X160645790Y-91066281I0J500000D01*
G01*
X161645790Y-94066281D02*
G75*
G03*
X160145790Y-95566281I0J-1500000D01*
G01*
X191340051Y-90672681D02*
X190330051Y-90672681D01*
X173540051Y-90672681D02*
X174540051Y-90672681D01*
X191340051Y-69784481D02*
X191340051Y-70784481D01*
X173540051Y-69784481D02*
X174540051Y-69784481D01*
X191340051Y-89672681D02*
X191340051Y-90672681D01*
X191340051Y-69784481D02*
X190390051Y-69784481D01*
X173540051Y-69784481D02*
X173540051Y-70784481D01*
X173540051Y-89622681D02*
X173540051Y-90672681D01*
X146033637Y-125338627D02*
X146292456Y-124372702D01*
X154804615Y-127378221D02*
X154545796Y-128344147D01*
X159815418Y-127996168D02*
X159556598Y-128962094D01*
X153933424Y-128697700D02*
X154545796Y-128344147D01*
X151587959Y-123928130D02*
X152200332Y-123574577D01*
X146999563Y-125597447D02*
X146033637Y-125338627D01*
X159918945Y-127609798D02*
X159763654Y-128189353D01*
X150682093Y-127308871D02*
X151035646Y-127921243D01*
X162214139Y-115180313D02*
X163180065Y-115439133D01*
X159763654Y-128189353D02*
X155416987Y-127024668D01*
X152200332Y-123574577D02*
X154615146Y-124221625D01*
X149398284Y-112781592D02*
X149657104Y-111815666D01*
X156452264Y-123160964D02*
X156633437Y-122484816D01*
X163180065Y-115439133D02*
X162921246Y-116405058D01*
X151035646Y-127921243D02*
X153933424Y-128697700D01*
X156633437Y-122484816D02*
X160980103Y-123649502D01*
X160980103Y-123649502D02*
X160850694Y-124132465D01*
X159556598Y-128962094D02*
X158590673Y-128703275D01*
X149657104Y-111815666D02*
X150623029Y-112074485D01*
X155416987Y-127024668D02*
G75*
G03*
X154804615Y-127378221I-129409J-482963D01*
G01*
X154615146Y-124221625D02*
G75*
G03*
X156452264Y-123160964I388229J1448889D01*
G01*
D11*
X151610990Y-61558480D02*
X154010990Y-61558480D01*
X154010990Y-61558480D02*
X154010990Y-67558480D01*
X154010990Y-67558480D02*
X151610990Y-67558480D01*
X151610990Y-67558480D02*
X151610990Y-61558480D01*
G36*
X154010990Y-67558480D02*
G01*
X151610990Y-67558480D01*
X151610990Y-67000080D01*
X154010990Y-67000080D01*
X154010990Y-67558480D01*
G37*
X154010990Y-67558480D02*
X151610990Y-67558480D01*
X151610990Y-67000080D01*
X154010990Y-67000080D01*
X154010990Y-67558480D01*
X151610990Y-95594680D02*
X154010990Y-95594680D01*
X154010990Y-95594680D02*
X154010990Y-101594680D01*
X154010990Y-101594680D02*
X151610990Y-101594680D01*
X151610990Y-101594680D02*
X151610990Y-95594680D01*
G36*
X154010990Y-101594680D02*
G01*
X151610990Y-101594680D01*
X151610990Y-101036280D01*
X154010990Y-101036280D01*
X154010990Y-101594680D01*
G37*
X154010990Y-101594680D02*
X151610990Y-101594680D01*
X151610990Y-101036280D01*
X154010990Y-101036280D01*
X154010990Y-101594680D01*
D12*
X182740051Y-90843940D02*
X182140051Y-90843940D01*
X182140051Y-88043940D02*
X182740051Y-88043940D01*
X183440051Y-88743940D02*
X183440051Y-90143940D01*
X181440051Y-90143940D02*
X181440051Y-88743940D01*
X181440051Y-90143940D02*
G75*
G03*
X182140051Y-90843940I699999J-1D01*
G01*
X182140051Y-88043940D02*
G75*
G03*
X181440051Y-88743940I0J-700000D01*
G01*
X183440051Y-88743940D02*
G75*
G03*
X182740051Y-88043940I-700000J0D01*
G01*
X182740051Y-90843940D02*
G75*
G03*
X183440051Y-90143940I1J699999D01*
G01*
D11*
X169695790Y-96266281D02*
X172095790Y-96266281D01*
X172095790Y-96266281D02*
X172095790Y-102266281D01*
X172095790Y-102266281D02*
X169695790Y-102266281D01*
X169695790Y-102266281D02*
X169695790Y-96266281D01*
G36*
X172095790Y-102266281D02*
G01*
X169695790Y-102266281D01*
X169695790Y-101707881D01*
X172095790Y-101707881D01*
X172095790Y-102266281D01*
G37*
X172095790Y-102266281D02*
X169695790Y-102266281D01*
X169695790Y-101707881D01*
X172095790Y-101707881D01*
X172095790Y-102266281D01*
X97356590Y-64460681D02*
X99756590Y-64460681D01*
X99756590Y-64460681D02*
X99756590Y-70460681D01*
X99756590Y-70460681D02*
X97356590Y-70460681D01*
X97356590Y-70460681D02*
X97356590Y-64460681D01*
G36*
X99756590Y-70460681D02*
G01*
X97356590Y-70460681D01*
X97356590Y-69902281D01*
X99756590Y-69902281D01*
X99756590Y-70460681D01*
G37*
X99756590Y-70460681D02*
X97356590Y-70460681D01*
X97356590Y-69902281D01*
X99756590Y-69902281D01*
X99756590Y-70460681D01*
D12*
X184611190Y-119078880D02*
X185241190Y-119078880D01*
X185241190Y-97518880D02*
X189191190Y-98958880D01*
X174071190Y-99598880D02*
X176151190Y-97518880D01*
X174071190Y-99598880D02*
X174071190Y-103098880D01*
X176151190Y-119078880D02*
X178611190Y-119078880D01*
X176151190Y-97518880D02*
X178611190Y-97518880D01*
X174071190Y-113498880D02*
X174071190Y-116998880D01*
X185241190Y-119078880D02*
X189191190Y-117638880D01*
X174071190Y-116998880D02*
X176151190Y-119078880D01*
X184611190Y-97518880D02*
X185241190Y-97518880D01*
X189191190Y-117638880D02*
G75*
G03*
X190177720Y-114302234I-730001J2030000D01*
G01*
X190161189Y-102298880D02*
G75*
G03*
X189199359Y-98973637I-1699999J1310000D01*
G01*
D10*
X155645790Y-62230281D02*
X155645790Y-61730281D01*
X161145790Y-55530281D02*
X160645790Y-56030281D01*
X164145790Y-55530281D02*
X161145790Y-55530281D01*
X169645790Y-69730281D02*
X169645790Y-70730281D01*
X169645790Y-56730281D02*
X169645790Y-57730281D01*
X168645790Y-56730281D02*
X169645790Y-56730281D01*
X155645790Y-57530281D02*
X160145790Y-57530281D01*
X164145790Y-60030281D02*
X161645790Y-60030281D01*
X164645790Y-56030281D02*
X164145790Y-55530281D01*
X160145790Y-61530281D02*
X160145790Y-62230281D01*
X169645790Y-70730281D02*
X168645790Y-70730281D01*
X155645790Y-57730281D02*
X155645790Y-56730281D01*
X155645790Y-58130281D02*
X155645790Y-57530281D01*
X155645790Y-70730281D02*
X155645790Y-69730281D01*
X156645790Y-70730281D02*
X155645790Y-70730281D01*
X155645790Y-56730281D02*
X156645790Y-56730281D01*
X160145790Y-62230281D02*
X155645790Y-62230281D01*
X160645790Y-57030281D02*
X160645790Y-56030281D01*
X164645790Y-59530281D02*
X164145790Y-60030281D01*
X160145790Y-57530281D02*
G75*
G03*
X160645790Y-57030281I0J500000D01*
G01*
X161645790Y-60030281D02*
G75*
G03*
X160145790Y-61530281I0J-1500000D01*
G01*
X161145790Y-72548281D02*
X160645790Y-73048281D01*
X155645790Y-79248281D02*
X155645790Y-78748281D01*
X169645790Y-86748281D02*
X169645790Y-87748281D01*
X155645790Y-74748281D02*
X155645790Y-73748281D01*
X164145790Y-72548281D02*
X161145790Y-72548281D01*
X155645790Y-74548281D02*
X160145790Y-74548281D01*
X160645790Y-74048281D02*
X160645790Y-73048281D01*
X164645790Y-76548281D02*
X164145790Y-77048281D01*
X160145790Y-79248281D02*
X155645790Y-79248281D01*
X155645790Y-73748281D02*
X156645790Y-73748281D01*
X155645790Y-87748281D02*
X155645790Y-86748281D01*
X155645790Y-75148281D02*
X155645790Y-74548281D01*
X160145790Y-78548281D02*
X160145790Y-79248281D01*
X169645790Y-73748281D02*
X169645790Y-74748281D01*
X164145790Y-77048281D02*
X161645790Y-77048281D01*
X164645790Y-73048281D02*
X164145790Y-72548281D01*
X168645790Y-73748281D02*
X169645790Y-73748281D01*
X156645790Y-87748281D02*
X155645790Y-87748281D01*
X169645790Y-87748281D02*
X168645790Y-87748281D01*
X160145790Y-74548281D02*
G75*
G03*
X160645790Y-74048281I0J500000D01*
G01*
X161645790Y-77048281D02*
G75*
G03*
X160145790Y-78548281I0J-1500000D01*
G01*
%LPC*%
G36*
X188637651Y-80672681D02*
G01*
X187621651Y-80672681D01*
X187621651Y-79656681D01*
X188637651Y-79656681D01*
X188637651Y-80672681D01*
G37*
D13*
X188637651Y-80672681D02*
X187621651Y-80672681D01*
X187621651Y-79656681D01*
X188637651Y-79656681D01*
X188637651Y-80672681D01*
G36*
X188637651Y-83212681D02*
G01*
X187621651Y-83212681D01*
X187621651Y-82196681D01*
X188637651Y-82196681D01*
X188637651Y-83212681D01*
G37*
X188637651Y-83212681D02*
X187621651Y-83212681D01*
X187621651Y-82196681D01*
X188637651Y-82196681D01*
X188637651Y-83212681D01*
G36*
X177258451Y-88292681D02*
G01*
X176242451Y-88292681D01*
X176242451Y-87276681D01*
X177258451Y-87276681D01*
X177258451Y-88292681D01*
G37*
X177258451Y-88292681D02*
X176242451Y-88292681D01*
X176242451Y-87276681D01*
X177258451Y-87276681D01*
X177258451Y-88292681D01*
G36*
X188637651Y-85752681D02*
G01*
X187621651Y-85752681D01*
X187621651Y-84736681D01*
X188637651Y-84736681D01*
X188637651Y-85752681D01*
G37*
X188637651Y-85752681D02*
X187621651Y-85752681D01*
X187621651Y-84736681D01*
X188637651Y-84736681D01*
X188637651Y-85752681D01*
G36*
X188637651Y-88292681D02*
G01*
X187621651Y-88292681D01*
X187621651Y-87276681D01*
X188637651Y-87276681D01*
X188637651Y-88292681D01*
G37*
X188637651Y-88292681D02*
X187621651Y-88292681D01*
X187621651Y-87276681D01*
X188637651Y-87276681D01*
X188637651Y-88292681D01*
G36*
X188637651Y-78132681D02*
G01*
X187621651Y-78132681D01*
X187621651Y-77116681D01*
X188637651Y-77116681D01*
X188637651Y-78132681D01*
G37*
X188637651Y-78132681D02*
X187621651Y-78132681D01*
X187621651Y-77116681D01*
X188637651Y-77116681D01*
X188637651Y-78132681D01*
G36*
X177258451Y-83212681D02*
G01*
X176242451Y-83212681D01*
X176242451Y-82196681D01*
X177258451Y-82196681D01*
X177258451Y-83212681D01*
G37*
X177258451Y-83212681D02*
X176242451Y-83212681D01*
X176242451Y-82196681D01*
X177258451Y-82196681D01*
X177258451Y-83212681D01*
G36*
X177258451Y-80672681D02*
G01*
X176242451Y-80672681D01*
X176242451Y-79656681D01*
X177258451Y-79656681D01*
X177258451Y-80672681D01*
G37*
X177258451Y-80672681D02*
X176242451Y-80672681D01*
X176242451Y-79656681D01*
X177258451Y-79656681D01*
X177258451Y-80672681D01*
G36*
X188637651Y-75592681D02*
G01*
X187621651Y-75592681D01*
X187621651Y-74576681D01*
X188637651Y-74576681D01*
X188637651Y-75592681D01*
G37*
X188637651Y-75592681D02*
X187621651Y-75592681D01*
X187621651Y-74576681D01*
X188637651Y-74576681D01*
X188637651Y-75592681D01*
G36*
X177258451Y-78132681D02*
G01*
X176242451Y-78132681D01*
X176242451Y-77116681D01*
X177258451Y-77116681D01*
X177258451Y-78132681D01*
G37*
X177258451Y-78132681D02*
X176242451Y-78132681D01*
X176242451Y-77116681D01*
X177258451Y-77116681D01*
X177258451Y-78132681D01*
G36*
X177258451Y-85752681D02*
G01*
X176242451Y-85752681D01*
X176242451Y-84736681D01*
X177258451Y-84736681D01*
X177258451Y-85752681D01*
G37*
X177258451Y-85752681D02*
X176242451Y-85752681D01*
X176242451Y-84736681D01*
X177258451Y-84736681D01*
X177258451Y-85752681D01*
G36*
X177258451Y-73052681D02*
G01*
X176242451Y-73052681D01*
X176242451Y-72036681D01*
X177258451Y-72036681D01*
X177258451Y-73052681D01*
G37*
X177258451Y-73052681D02*
X176242451Y-73052681D01*
X176242451Y-72036681D01*
X177258451Y-72036681D01*
X177258451Y-73052681D01*
G36*
X177258451Y-75592681D02*
G01*
X176242451Y-75592681D01*
X176242451Y-74576681D01*
X177258451Y-74576681D01*
X177258451Y-75592681D01*
G37*
X177258451Y-75592681D02*
X176242451Y-75592681D01*
X176242451Y-74576681D01*
X177258451Y-74576681D01*
X177258451Y-75592681D01*
G36*
X188637651Y-73052681D02*
G01*
X187621651Y-73052681D01*
X187621651Y-72036681D01*
X188637651Y-72036681D01*
X188637651Y-73052681D01*
G37*
X188637651Y-73052681D02*
X187621651Y-73052681D01*
X187621651Y-72036681D01*
X188637651Y-72036681D01*
X188637651Y-73052681D01*
D14*
X170895790Y-83748281D03*
X170895790Y-80348281D03*
D15*
X102891390Y-96496681D03*
D16*
X103391390Y-92746681D03*
X113391390Y-92746681D03*
D15*
X113891390Y-96496681D03*
D17*
X108391390Y-96496681D03*
D16*
X108391390Y-90546681D03*
D18*
X111666390Y-90546681D03*
X100116390Y-92746681D03*
D14*
X134726190Y-80868080D03*
X134726190Y-77468080D03*
D19*
X101245857Y-107468340D03*
D14*
X98556590Y-86029481D03*
X98556590Y-82629481D03*
D17*
X126476190Y-75408681D03*
D16*
X131476190Y-71658681D03*
X126476190Y-69458681D03*
D15*
X131976190Y-75408681D03*
X120976190Y-75408681D03*
D16*
X121476190Y-71658681D03*
D18*
X129751190Y-69458681D03*
X118201190Y-71658681D03*
D15*
X102891390Y-79478681D03*
D16*
X113391390Y-75728681D03*
X108391390Y-73528681D03*
D17*
X108391390Y-79478681D03*
D15*
X113891390Y-79478681D03*
D16*
X103391390Y-75728681D03*
D18*
X111666390Y-73528681D03*
X100116390Y-75728681D03*
D20*
X188571312Y-92962481D03*
D16*
X131476190Y-88676681D03*
X121476190Y-88676681D03*
X126476190Y-86476681D03*
D15*
X131976190Y-92426681D03*
X120976190Y-92426681D03*
D17*
X126476190Y-92426681D03*
D18*
X129751190Y-86476681D03*
X118201190Y-88676681D03*
D14*
X116641390Y-99496681D03*
X116641390Y-96096681D03*
X116641390Y-82478681D03*
X116641390Y-79078681D03*
D21*
X183839867Y-132469073D03*
D22*
X185462239Y-127459042D03*
D21*
X187489867Y-126147087D03*
X181925951Y-131364073D03*
D22*
X183962239Y-130057118D03*
D21*
X185575951Y-125042087D03*
D23*
X182063035Y-129826637D03*
X183563035Y-127228561D03*
X184313035Y-125929523D03*
D16*
X103391390Y-58710681D03*
X108391390Y-56510681D03*
D17*
X108391390Y-62460681D03*
D15*
X113891390Y-62460681D03*
D16*
X113391390Y-58710681D03*
D15*
X102891390Y-62460681D03*
D18*
X111666390Y-56510681D03*
X100116390Y-58710681D03*
D24*
X183065051Y-92895940D03*
D25*
X181815051Y-92895940D03*
D14*
X152810990Y-83076680D03*
X152810990Y-79676680D03*
D17*
X90306590Y-99996681D03*
D15*
X95806590Y-99996681D03*
D16*
X90306590Y-94046681D03*
X85306590Y-96246681D03*
D15*
X84806590Y-99996681D03*
D16*
X95306590Y-96246681D03*
D18*
X93581590Y-94046681D03*
X82031590Y-96246681D03*
D16*
X139560990Y-57440481D03*
X144560990Y-55240481D03*
D17*
X144560990Y-61190481D03*
D16*
X149560990Y-57440481D03*
D15*
X150060990Y-61190481D03*
X139060990Y-61190481D03*
D18*
X147835990Y-55240481D03*
X136285990Y-57440481D03*
D14*
X170895851Y-66730280D03*
X170895851Y-63330280D03*
D19*
X152270051Y-107307880D03*
D15*
X179181991Y-131266880D03*
D16*
X176873978Y-134264475D03*
D15*
X169655711Y-125766880D03*
D16*
X168213724Y-129264475D03*
X171443851Y-133669731D03*
D17*
X174418851Y-128516880D03*
D26*
X168607618Y-132032231D03*
X179710211Y-135901975D03*
D27*
X160118651Y-108249480D03*
X160118651Y-111649480D03*
D15*
X120976190Y-58390681D03*
D16*
X121476190Y-54640681D03*
D15*
X131976190Y-58390681D03*
D16*
X131476190Y-54640681D03*
X126476190Y-52440681D03*
D17*
X126476190Y-58390681D03*
D18*
X129751190Y-52440681D03*
X118201190Y-54640681D03*
D20*
X187626851Y-121785880D03*
D27*
X162811051Y-108249480D03*
X162811051Y-111649480D03*
D14*
X98556590Y-102996681D03*
X98556590Y-99596681D03*
D28*
X165351662Y-115286210D03*
X164924137Y-114111595D03*
D29*
X168530381Y-109766122D03*
X170907421Y-116296986D03*
D16*
X149560990Y-91476681D03*
D15*
X139060990Y-95226681D03*
D17*
X144560990Y-95226681D03*
D16*
X139560990Y-91476681D03*
X144560990Y-89276681D03*
D15*
X150060990Y-95226681D03*
D18*
X147835990Y-89276681D03*
X136285990Y-91476681D03*
D17*
X144560990Y-78208681D03*
D15*
X139060990Y-78208681D03*
D16*
X139560990Y-74458681D03*
X149560990Y-74458681D03*
D15*
X150060990Y-78208681D03*
D16*
X144560990Y-72258681D03*
D18*
X147835990Y-72258681D03*
X136285990Y-74458681D03*
D19*
X97512067Y-54264934D03*
D14*
X116641390Y-65460681D03*
X116641390Y-62060681D03*
D17*
X90306590Y-82978681D03*
D15*
X84806590Y-82978681D03*
D16*
X85306590Y-79228681D03*
X90306590Y-77028681D03*
X95306590Y-79228681D03*
D15*
X95806590Y-82978681D03*
D18*
X93581590Y-77028681D03*
X82031590Y-79228681D03*
D14*
X134726190Y-97886080D03*
X134726190Y-94486080D03*
D15*
X84806590Y-65960681D03*
D16*
X95306590Y-62210681D03*
D17*
X90306590Y-65960681D03*
D16*
X85306590Y-62210681D03*
X90306590Y-60010681D03*
D15*
X95806590Y-65960681D03*
D18*
X93581590Y-60010681D03*
X82031590Y-62210681D03*
D20*
X175953565Y-92962481D03*
D14*
X134726190Y-63850080D03*
X134726190Y-60450080D03*
D16*
X157645790Y-94016281D03*
D15*
X157145790Y-97766281D03*
D16*
X167645790Y-94016281D03*
D17*
X162645790Y-97766281D03*
D15*
X168145790Y-97766281D03*
D16*
X162645790Y-91816281D03*
D18*
X165920790Y-91816281D03*
X154370790Y-94016281D03*
D19*
X165147851Y-122852680D03*
X155368851Y-52766334D03*
D30*
X174881251Y-75084681D03*
D31*
X188383651Y-72544681D03*
D30*
X189983851Y-82704681D03*
X174881251Y-77624681D03*
X189983851Y-77624681D03*
X174881251Y-82704681D03*
D31*
X188383651Y-82704681D03*
D32*
X176496451Y-82704681D03*
D30*
X174881251Y-72544681D03*
X189983851Y-75084681D03*
X174881251Y-87784681D03*
D31*
X188383651Y-85244681D03*
X188383651Y-77624681D03*
X188383651Y-75084681D03*
D30*
X189983851Y-80164681D03*
X174881251Y-80164681D03*
X189983851Y-85244681D03*
X174881251Y-85244681D03*
D32*
X176496451Y-80164681D03*
X176496451Y-85244681D03*
X176496451Y-75084681D03*
D30*
X189983851Y-87784681D03*
D31*
X188383651Y-87784681D03*
D32*
X176496451Y-77624681D03*
X176496451Y-72544681D03*
D30*
X189983851Y-72544681D03*
D32*
X176496451Y-87784681D03*
D31*
X188383651Y-80164681D03*
D33*
X177512451Y-72544681D03*
X177512451Y-75084681D03*
X177512451Y-77624681D03*
X177512451Y-80164681D03*
X177512451Y-82704681D03*
X177512451Y-85244681D03*
X177512451Y-87784681D03*
D34*
X187367651Y-87784681D03*
X187367651Y-85244681D03*
X187367651Y-82704681D03*
X187367651Y-80164681D03*
X187367651Y-77624681D03*
X187367651Y-75084681D03*
X187367651Y-72544681D03*
D17*
X154606851Y-120388880D03*
D15*
X159919443Y-121812385D03*
D16*
X148806650Y-122717007D03*
X153066878Y-126136139D03*
X158465909Y-125305197D03*
D15*
X149294259Y-118965375D03*
D35*
X149903471Y-125288506D03*
X161629316Y-126152829D03*
D14*
X152810990Y-66058480D03*
X152810990Y-62658480D03*
X152810990Y-100094680D03*
X152810990Y-96694680D03*
D36*
X182440051Y-90093940D03*
D37*
X182440051Y-88793940D03*
D14*
X170895790Y-100766281D03*
X170895790Y-97366281D03*
X98556590Y-68960681D03*
X98556590Y-65560681D03*
D38*
X181611190Y-119417480D03*
X181611190Y-97180280D03*
D39*
X181611190Y-108298880D03*
D16*
X167645790Y-59980281D03*
X162645790Y-57780281D03*
D15*
X157145790Y-63730281D03*
D16*
X157645790Y-59980281D03*
D17*
X162645790Y-63730281D03*
D15*
X168145790Y-63730281D03*
D18*
X165920790Y-57780281D03*
X154370790Y-59980281D03*
D16*
X167645790Y-76998281D03*
D15*
X168145790Y-80748281D03*
D16*
X162645790Y-74798281D03*
D15*
X157145790Y-80748281D03*
D17*
X162645790Y-80748281D03*
D16*
X157645790Y-76998281D03*
D18*
X165920790Y-74798281D03*
X154370790Y-76998281D03*
D22*
X185462239Y-127459042D03*
X183962239Y-130057118D03*
M02*
