  0
SECTION
  2
HEADER
  9
$ANGBASE
  50
0.0
  9
$ANGDIR
  70
1
  9
$MEASUREMENT
  70
1
  0
ENDSEC
  0
SECTION
  2
TABLES
  0
TABLE
  2
LTYPE
  70
4
  0
LTYPE
  5
40F
  2
CONTINUOUS
  70
0
  3
Solid line
  72
65
  73
0
  40
0.0
  0
LTYPE
  5
410
  2
DASHDOT
 70
0
  3
Dash Dot ____ _ ____ _
 72
65
 73
4
 40
2.0
 49
1.25
 49
-0.25
 49
0.25
 49
-0.25
  0
LTYPE
  5
411
  2
DASHED
 70
0
  3
Dashed __ __ __ __ __
 72
65
 73
2
 40
0.75
 49
0.5
 49
-0.25
  0
LTYPE
  5
43B
  2
DOTTED
 70
0
  3
Dotted .  .  .  .
 72
65
 73
2
 40
0.2
 49
0.0
 49
-0.2
  0
ENDTAB
  0
TABLE
  2
STYLE
  70
4
  0
STYLE
  2
KICAD
  70
0
  40
0
  41
1
  42
1
  50
0
  71
0
  3
isocp.shx
  0
STYLE
  2
KICADB
  70
0
  40
0
  41
1
  42
1
  50
0
  71
0
  3
isocp.shx
  0
STYLE
  2
KICADI
  70
0
  40
0
  41
1
  42
1
  50
15
  71
0
  3
isocp.shx
  0
STYLE
  2
KICADBI
  70
0
  40
0
  41
1
  42
1
  50
15
  71
0
  3
isocp.shx
  0
ENDTAB
  0
TABLE
  2
LAYER
  70
1
  0
LAYER
  2
BLACK
  70
0
  62
7
  6
CONTINUOUS
  0
ENDTAB
  0
ENDSEC
  0
SECTION
  2
ENTITIES
0
CIRCLE
8
BLACK
10
251.7225639999999771
20
-189.8897979999999848
40
4.0999999999999996
0
ARC
8
BLACK
10
122.887599999999992
20
-42.9660999999999973
40
3.3075479725054633
50
-2.22837768
51
68.21719942
0
LINE
8
BLACK
6
CONTINUOUS
10
58.63279
20
-208.1311599999999942
11
85.5024329999999964
21
-204.5937040000000025
0
LINE
8
BLACK
6
CONTINUOUS
10
86.150273999999996
20
-209.316851999999983
11
86.6244030000000009
21
-205.7156819999999868
0
CIRCLE
8
BLACK
10
240.1637589999999989
20
-198.9428629999999885
40
1.
0
ARC
8
BLACK
10
56.5593000000000004
20
-207.3747999999999934
40
1.9972918601090828
50
-82.49790389
51
-29.48725959
0
ARC
8
BLACK
10
31.3208500000000001
20
-141.2067600000000027
40
3.9887035071065382
50
-248.08531565
51
-178.42573870
0
LINE
8
BLACK
6
CONTINUOUS
10
247.9885749999999973
20
-213.7977369999999837
11
228.087457999999998
21
-211.1777050000000031
0
ARC
8
BLACK
10
105.2620000000000005
20
-116.2706000000000017
40
2.1996769249571626
50
75.00059417
51
82.50171959
0
ARC
8
BLACK
10
253.2658999999999878
20
-194.3409999999999798
40
0.500061706757276
50
82.50717990
51
172.52232107
0
LINE
8
BLACK
6
CONTINUOUS
10
257.5738759999999843
20
-43.1390600000000006
11
255.87504899999999
21
-91.7870879999999971
0
ARC
8
BLACK
10
124.9454999999999956
20
-87.9112999999999971
40
1.1000078503178965
50
-183.00006347
51
-105.00221190
0
ARC
8
BLACK
10
210.7943599999999833
20
-253.4368399999999895
40
122.3985581602084238
50
68.79062161
51
114.11167583
0
LINE
8
BLACK
6
CONTINUOUS
10
198.1640669999999886
20
-87.8691669999999903
11
226.8584109999999896
21
-87.8668109999999984
0
ARC
8
BLACK
10
122.887599999999992
20
-142.9660999999999831
40
3.3075479725054633
50
-2.22837768
51
68.21719942
0
ARC
8
BLACK
10
31.2318999999999996
20
-89.9100999999999999
40
2.1999870001309096
50
-178.00031392
51
-89.99937495
0
LINE
8
BLACK
6
CONTINUOUS
10
88.0442939999999936
20
-111.7851889999999884
11
105.549049999999994
21
-114.0897329999999954
0
LINE
8
BLACK
6
CONTINUOUS
10
126.1926859999999948
20
-43.0947079999999971
11
123.8469649999999973
21
-87.8537269999999921
0
ARC
8
BLACK
10
196.5760999999999967
20
-211.4266999999999825
40
2.199971649840061
50
-82.50071297
51
7.49931905
0
ARC
8
BLACK
10
248.2757999999999754
20
-211.6165999999999769
40
2.1999276716821847
50
-97.50188149
51
-7.47501399
0
LINE
8
BLACK
6
CONTINUOUS
10
130.4398429999999962
20
-190.5223159999999893
11
124.6607559999999921
21
-188.9738150000000019
0
ARC
8
BLACK
10
241.2092999999999847
20
-90.9115999999999929
40
2.998709000416846
50
-97.50247391
51
-89.99904466
0
LINE
8
BLACK
6
CONTINUOUS
10
253.3311029999999846
20
-193.8452539999999829
11
253.3909009999999853
21
-193.8531270000000006
0
ARC
8
BLACK
10
123.454899999999995
20
-116.5904999999999916
40
2.1999943371354393
50
-105.00015405
51
-14.99993439
0
ARC
8
BLACK
10
58.0489999999999995
20
-88.0441000000000003
40
2.0000456479335664
50
-270.00335179
51
-172.50044332
0
LINE
8
BLACK
6
CONTINUOUS
10
100.2315739999999948
20
-93.4309969999999907
11
90.1710339999999917
21
-93.4309969999999907
0
LINE
8
BLACK
6
CONTINUOUS
10
179.076233000000002
20
-215.968593999999996
11
162.0220349999999883
21
-220.5382529999999974
0
LINE
8
BLACK
6
CONTINUOUS
10
27.3336519999999972
20
-41.3163399999999967
11
29.0332639999999991
21
-89.986865999999992
0
LINE
8
BLACK
6
CONTINUOUS
10
226.2747369999999876
20
-209.9538790000000006
11
199.4051340000000039
21
-206.4164289999999937
0
LINE
8
BLACK
6
CONTINUOUS
10
105.8312949999999972
20
-114.1458739999999921
11
122.8854929999999968
21
-118.7155329999999935
0
ARC
8
BLACK
10
161.452699999999993
20
-218.4131999999999891
40
2.1999983170525379
50
-165.00004781
51
-75.00179200
0
ARC
8
BLACK
10
198.1639999999999873
20
-85.6683000000000021
40
2.2008670010198252
50
-99.86733022
51
-89.99825577
0
LINE
8
BLACK
6
CONTINUOUS
10
100.7315739999999948
20
-91.1369969999999938
11
100.7315739999999948
21
-92.9309969999999907
0
LINE
8
BLACK
6
CONTINUOUS
10
159.3275959999999998
20
-118.982617999999988
11
152.9120499999999936
21
-95.0394749999999959
0
LINE
8
BLACK
6
CONTINUOUS
10
159.3275959999999998
20
-218.9826180000000022
11
152.9120499999999936
21
-195.0394749999999817
0
CIRCLE
8
BLACK
10
122.0341639999999899
20
-143.5366779999999949
40
4.0999999999999996
0
LINE
8
BLACK
6
CONTINUOUS
10
196.8632339999999772
20
-113.6079089999999923
11
179.358477999999991
21
-115.9124529999999993
0
LINE
8
BLACK
6
CONTINUOUS
10
158.7148420000000044
20
-144.917428000000001
11
161.0605630000000019
21
-189.676446999999996
0
LINE
8
BLACK
6
CONTINUOUS
10
184.6759539999999902
20
-95.2537179999999921
11
194.7364939999999933
21
-95.2537179999999921
0
ARC
8
BLACK
10
74.1131699999999967
20
-251.6140699999999981
40
122.398511786243958
50
65.88831547
51
111.20938773
0
ARC
8
BLACK
10
54.1071999999999989
20
-88.7483999999999895
40
1.9999615833755406
50
-82.50111520
51
7.49970035
0
ARC
8
BLACK
10
179.6457999999999799
20
-218.094300000000004
40
2.2006891116023177
50
97.50197191
51
104.99964274
0
CIRCLE
8
BLACK
10
31.5085639999999998
20
-141.3522779999999841
40
4.0999999999999996
0
CIRCLE
8
BLACK
10
33.1849640000000008
20
-188.0670779999999809
40
4.0999999999999996
0
LINE
8
BLACK
6
CONTINUOUS
10
31.2319239999999994
20
-92.1100869999999929
11
43.6989629999999991
21
-92.1100869999999929
0
LINE
8
BLACK
6
CONTINUOUS
10
198.757253999999989
20
-211.1395770000000027
11
198.2831249999999841
21
-207.5384069999999781
0
ARC
8
BLACK
10
105.2620000000000005
20
-216.2706000000000017
40
2.1996769249571626
50
75.00059417
51
82.50171959
0
ARC
8
BLACK
10
58.6740999999999957
20
-208.5493999999999915
40
0.422148051016465
50
95.61580028
51
153.02013654
0
LINE
8
BLACK
6
CONTINUOUS
10
130.4398429999999962
20
-90.5223159999999893
11
124.6607559999999921
21
-88.9738150000000019
0
LINE
8
BLACK
6
CONTINUOUS
10
184.1759539999999902
20
-92.9597179999999952
11
184.1759539999999902
21
-94.7537179999999921
0
ARC
8
BLACK
10
88.3314999999999912
20
-109.6039999999999992
40
2.2000165317917499
50
-187.49959073
51
-97.50121409
0
ARC
8
BLACK
10
184.6759999999999877
20
-87.1176999999999992
40
0.5000460003239702
50
-269.99472860
51
-179.99793754
0
ARC
8
BLACK
10
31.6417000000000002
20
-192.5182999999999822
40
0.5000447503784036
50
7.48102505
51
97.50070068
0
LINE
8
BLACK
6
CONTINUOUS
10
105.8312949999999972
20
-214.1458739999999921
11
122.8854929999999968
21
-218.7155329999999935
0
LINE
8
BLACK
6
CONTINUOUS
10
125.5799319999999994
20
-217.1598979999999983
11
131.9954779999999914
21
-193.2167549999999778
0
ARC
8
BLACK
10
155.0370000000000061
20
-194.4699999999999989
40
2.1999350622518383
50
-255.00169529
51
-164.99757580
0
ARC
8
BLACK
10
123.454899999999995
20
-216.5904999999999916
40
2.1999943371354393
50
-105.00015405
51
-14.99993439
0
ARC
8
BLACK
10
183.6759999999999877
20
-88.9116999999999962
40
0.4999540003240298
50
-90.00527102
51
-0.00206284
0
ARC
8
BLACK
10
94.3174999999999955
20
-86.9953999999999894
40
2.2003972490116412
50
89.99997396
51
99.86645052
0
ARC
8
BLACK
10
190.5900000000000034
20
-88.8175999999999988
40
2.1998820001656907
50
80.13050587
51
89.99929679
0
LINE
8
BLACK
6
CONTINUOUS
10
154.4676849999999888
20
-192.3450359999999932
11
160.2467719999999929
21
-190.7965349999999773
0
ARC
8
BLACK
10
74.1131699999999967
20
-151.6140699999999981
40
122.398511786243958
50
65.88831547
51
111.20938773
0
ARC
8
BLACK
10
162.0202999999999918
20
-44.7890999999999977
40
3.3079481049962074
50
-248.21301591
51
-177.77671896
0
ARC
8
BLACK
10
85.6329999999999956
20
-205.5850999999999829
40
0.9999568842230149
50
-7.50348338
51
97.50268364
0
ARC
8
BLACK
10
124.9454999999999956
20
-187.9112999999999829
40
1.1000078503178965
50
-183.00006347
51
-105.00221190
0
LINE
8
BLACK
6
CONTINUOUS
10
228.8174750000000017
20
-90.310182999999995
11
228.8414649999999995
21
-90.1279629999999941
0
ARC
8
BLACK
10
179.6457999999999799
20
-118.0942999999999898
40
2.2006891116023177
50
97.50197191
51
104.99964274
0
ARC
8
BLACK
10
86.7436999999999898
20
-83.8473999999999933
40
2.199050559266885
50
-90.00622711
51
-80.12895425
0
LINE
8
BLACK
6
CONTINUOUS
10
126.1926859999999948
20
-143.0947079999999971
11
123.8469649999999973
21
-187.8537269999999921
0
LINE
8
BLACK
6
CONTINUOUS
10
93.940456999999995
20
-84.8275469999999956
11
87.1206859999999921
21
-86.0138960000000026
0
ARC
8
BLACK
10
161.452699999999993
20
-118.4131999999999891
40
2.1999983170525379
50
-165.00004781
51
-75.00179200
0
CIRCLE
8
BLACK
10
45.8514920000000004
20
-205.5341389999999819
40
1.
0
CIRCLE
8
BLACK
10
162.8427539999999851
20
-216.0607169999999826
40
4.0999999999999996
0
LINE
8
BLACK
6
CONTINUOUS
10
86.7434609999999964
20
-86.0464460000000031
11
58.0491169999999954
21
-86.0440899999999971
0
LINE
8
BLACK
6
CONTINUOUS
10
31.5764249999999969
20
-192.022533999999979
11
31.5166269999999997
21
-192.0304069999999967
0
LINE
8
BLACK
6
CONTINUOUS
10
196.8632339999999772
20
-213.6079089999999781
11
179.358477999999991
21
-215.9124529999999993
0
LINE
8
BLACK
6
CONTINUOUS
10
198.757253999999989
20
-111.1395729999999986
11
196.9176719999999818
21
-97.1665599999999898
0
LINE
8
BLACK
6
CONTINUOUS
10
183.2789539999999988
20
-92.4597179999999952
11
183.6759539999999902
21
-92.4597179999999952
0
LINE
8
BLACK
6
CONTINUOUS
10
32.1374369999999985
20
-192.4532020000000045
11
34.4504960000000011
21
-210.0800769999999886
0
LINE
8
BLACK
6
CONTINUOUS
10
56.0900529999999975
20
-88.487363000000002
11
56.0660629999999998
21
-88.3051430000000011
0
CIRCLE
8
BLACK
10
253.3989639999999781
20
-143.174997999999988
40
4.0999999999999996
0
ARC
8
BLACK
10
253.676400000000001
20
-91.7102999999999895
40
2.1999895050079217
50
-90.00028648
51
-2.00024688
0
ARC
8
BLACK
10
230.8002999999999929
20
-90.5712999999999937
40
1.9999263059285459
50
-187.50207734
51
-97.49838860
0
ARC
8
BLACK
10
129.870599999999996
20
-92.6473000000000013
40
2.1999078601852848
50
-15.00240648
51
75.00364142
0
ARC
8
BLACK
10
159.9620999999999924
20
-89.7339999999999947
40
1.0999696860268466
50
-75.00168017
51
2.99921941
0
LINE
8
BLACK
6
CONTINUOUS
10
100.7315739999999948
20
-85.2949969999999951
11
100.7315739999999948
21
-87.088996999999992
0
ARC
8
BLACK
10
129.870599999999996
20
-192.6473000000000013
40
2.1999078601852848
50
-15.00240648
51
75.00364142
0
ARC
8
BLACK
10
226.2370999999999981
20
-210.3701999999999828
40
0.4180188019814419
50
26.97367674
51
84.83428619
0
ARC
8
BLACK
10
101.2316000000000003
20
-91.1370000000000005
40
0.5000260000089995
50
90.00297936
51
179.99965624
0
ARC
8
BLACK
10
90.1709999999999923
20
-95.6310000000000002
40
2.199966042614522
50
89.99911452
51
172.49979486
0
ARC
8
BLACK
10
162.0202999999999918
20
-144.7890999999999906
40
3.3079481049962074
50
-248.21301591
51
-177.77671896
0
ARC
8
BLACK
10
253.5865000000000009
20
-143.0295999999999879
40
3.9888809424323508
50
-1.57246804
51
68.08358695
0
LINE
8
BLACK
6
CONTINUOUS
10
190.5900269999999921
20
-86.6177179999999964
11
184.6759539999999902
21
-86.6177179999999964
0
LINE
8
BLACK
6
CONTINUOUS
10
253.6763890000000004
20
-93.910308999999998
11
241.2093500000000006
21
-93.910308999999998
0
CIRCLE
8
BLACK
10
122.0647739999999999
20
-214.2379969999999787
40
4.0999999999999996
0
ARC
8
BLACK
10
183.2789999999999964
20
-89.9116999999999962
40
0.5000460003239702
50
-269.99472860
51
-179.99793754
0
LINE
8
BLACK
6
CONTINUOUS
10
183.6759539999999902
20
-89.4117179999999934
11
183.2789539999999988
21
-89.4117179999999934
0
LINE
8
BLACK
6
CONTINUOUS
10
230.5393159999999853
20
-92.5541240000000016
11
240.8177609999999902
21
-93.8846419999999995
0
LINE
8
BLACK
6
CONTINUOUS
10
252.7700909999999794
20
-194.27592199999998
11
250.4570319999999981
21
-211.9027969999999925
0
ARC
8
BLACK
10
31.229499999999998
20
-189.8491999999999962
40
2.2000240659997337
50
-176.99929758
51
-82.50088691
0
ARC
8
BLACK
10
210.7943599999999833
20
-153.4368399999999895
40
122.3985581602084238
50
68.79062161
51
114.11167583
0
ARC
8
BLACK
10
100.2316000000000003
20
-92.9309999999999974
40
0.4999740000090004
50
-90.00297940
51
0.00034379
0
ARC
8
BLACK
10
228.3481999999999914
20
-209.1974999999999909
40
1.9972977325849544
50
-150.51184561
51
-97.50122485
0
LINE
8
BLACK
6
CONTINUOUS
10
158.7148420000000044
20
-44.917428000000001
11
161.0605630000000019
21
-89.676446999999996
0
LINE
8
BLACK
6
CONTINUOUS
10
101.6285740000000004
20
-90.6369969999999938
11
101.2315739999999948
21
-90.6369969999999938
0
ARC
8
BLACK
10
43.6989999999999981
20
-89.1098999999999961
40
3.0001803610956457
50
-90.00070660
51
-82.50096539
0
ARC
8
BLACK
10
183.6758999999999844
20
-92.9598000000000013
40
0.5000820029155219
50
0.00939549
51
89.99381307
0
ARC
8
BLACK
10
194.7365999999999815
20
-97.4535999999999945
40
2.1998820025537729
50
7.49732544
51
90.00276076
0
LINE
8
BLACK
6
CONTINUOUS
10
190.9670710000000042
20
-86.650267999999997
11
197.7868419999999787
21
-87.8366169999999897
0
LINE
8
BLACK
6
CONTINUOUS
10
125.5799319999999994
20
-117.1598979999999983
11
131.9954779999999914
21
-93.216754999999992
0
LINE
8
BLACK
6
CONTINUOUS
10
88.0442939999999936
20
-211.7851890000000026
11
105.549049999999994
21
-214.0897329999999954
0
LINE
8
BLACK
6
CONTINUOUS
10
86.150273999999996
20
-109.3168519999999972
11
87.989855999999989
21
-95.3438390000000027
0
LINE
8
BLACK
6
CONTINUOUS
10
27.3336519999999972
20
-141.3163399999999967
11
29.0324789999999986
21
-189.964367999999979
0
LINE
8
BLACK
6
CONTINUOUS
10
54.3682149999999993
20
-90.7313039999999944
11
44.0905519999999953
21
-92.0844199999999944
0
LINE
8
BLACK
6
CONTINUOUS
10
101.2315739999999948
20
-87.588996999999992
11
101.6285740000000004
21
-87.588996999999992
0
LINE
8
BLACK
6
CONTINUOUS
10
184.1759539999999902
20
-87.1177179999999964
11
184.1759539999999902
21
-88.9117179999999934
0
LINE
8
BLACK
6
CONTINUOUS
10
154.4676849999999888
20
-92.3450359999999932
11
160.2467719999999929
21
-90.7965349999999916
0
ARC
8
BLACK
10
226.8584999999999923
20
-89.8667999999999978
40
1.9999900019802599
50
-7.50002003
51
90.00254967
0
ARC
8
BLACK
10
101.2316000000000003
20
-87.0889999999999986
40
0.499997000676004
50
-180.00034376
51
-90.00297940
0
ARC
8
BLACK
10
159.9620999999999924
20
-189.7339999999999804
40
1.0999696860268466
50
-75.00168017
51
2.99921941
0
LINE
8
BLACK
6
CONTINUOUS
10
94.3175009999999929
20
-84.7949969999999951
11
100.2315739999999948
21
-84.7949969999999951
0
ARC
8
BLACK
10
253.5865000000000009
20
-43.029599999999995
40
3.9888809424323508
50
-1.57246804
51
68.08358695
0
ARC
8
BLACK
10
88.3314999999999912
20
-209.603999999999985
40
2.2000165317917499
50
-187.49959073
51
-97.50121409
0
LINE
8
BLACK
6
CONTINUOUS
10
102.1285740000000004
20
-88.088996999999992
11
102.1285740000000004
21
-90.1369969999999938
0
ARC
8
BLACK
10
101.6285999999999916
20
-88.0889999999999986
40
0.5000030006759959
50
0.00034379
51
90.00297936
0
ARC
8
BLACK
10
155.0370000000000061
20
-94.4699999999999989
40
2.1999350622518383
50
-255.00169529
51
-164.99757580
0
LINE
8
BLACK
6
CONTINUOUS
10
179.076233000000002
20
-115.968593999999996
11
162.0220349999999883
21
-120.5382529999999974
0
LINE
8
BLACK
6
CONTINUOUS
10
182.7789539999999988
20
-89.9117179999999934
11
182.7789539999999988
21
-91.9597179999999952
0
LINE
8
BLACK
6
CONTINUOUS
10
36.9189529999999948
20
-211.9750169999999798
11
56.8200699999999941
21
-209.3549849999999992
0
ARC
8
BLACK
10
100.2316000000000003
20
-85.2950000000000017
40
0.5000030006759959
50
0.00034379
51
90.00297936
0
ARC
8
BLACK
10
196.5760999999999967
20
-111.4266999999999967
40
2.199971649840061
50
-82.50071297
51
7.49931905
0
ARC
8
BLACK
10
199.2745999999999924
20
-207.4078999999999837
40
1.0000273759622782
50
-277.49803267
51
-172.50131558
0
ARC
8
BLACK
10
253.6779999999999973
20
-191.6718999999999937
40
2.2000664953007667
50
-97.49832214
51
-3.00118439
0
LINE
8
BLACK
6
CONTINUOUS
10
257.5738759999999843
20
-143.1390600000000006
11
255.87504899999999
21
-191.7870879999999829
0
ARC
8
BLACK
10
184.6758999999999844
20
-94.7537999999999982
40
0.4999180029164783
50
-180.00939752
51
-89.99381104
0
ARC
8
BLACK
10
36.6317999999999984
20
-209.7938999999999794
40
2.1999382293823615
50
-172.52574640
51
-82.49990964
0
ARC
8
BLACK
10
31.3208500000000001
20
-41.2067599999999956
40
3.9887035071065382
50
-248.08531565
51
-178.42573870
0
ARC
8
BLACK
10
101.6285999999999916
20
-90.1370000000000005
40
0.4999740000090004
50
-90.00297940
51
0.00034379
0
ARC
8
BLACK
10
183.278899999999993
20
-91.9598000000000013
40
0.4999180029164783
50
-180.00939752
51
-89.99381104
0
CIRCLE
8
BLACK
10
162.8733639999999809
20
-145.3593979999999988
40
4.0999999999999996
0
CIRCLE
8
BLACK
10
50.9141639999999995
20
-88.3618779999999902
40
1.0999999999999999
0
CIRCLE
8
BLACK
10
109.2483739999999983
20
-96.3055969999999917
40
1.0999999999999999
0
CIRCLE
8
BLACK
10
109.2483739999999983
20
-196.3055969999999775
40
1.0999999999999999
0
CIRCLE
8
BLACK
10
107.4037639999999953
20
-137.5062779999999805
40
1.0999999999999999
0
CIRCLE
8
BLACK
10
47.1549639999999997
20
-35.6266779999999983
40
1.0999999999999999
0
CIRCLE
8
BLACK
10
50.9141639999999995
20
-188.3618779999999902
40
1.0999999999999999
0
CIRCLE
8
BLACK
10
47.1549639999999997
20
-135.6266779999999983
40
1.0999999999999999
0
CIRCLE
8
BLACK
10
107.4037639999999953
20
-37.5062780000000018
40
1.0999999999999999
0
CIRCLE
8
BLACK
10
175.6591540000000009
20
-98.1283169999999956
40
1.0999999999999999
0
CIRCLE
8
BLACK
10
237.7525639999999783
20
-37.4493979999999951
40
1.0999999999999999
0
CIRCLE
8
BLACK
10
177.5037639999999897
20
-39.3289979999999986
40
1.0999999999999999
0
CIRCLE
8
BLACK
10
177.5037639999999897
20
-139.3289979999999844
40
1.0999999999999999
0
CIRCLE
8
BLACK
10
175.6591540000000009
20
-198.1283169999999814
40
1.0999999999999999
0
CIRCLE
8
BLACK
10
233.9933639999999855
20
-90.184597999999994
40
1.0999999999999999
0
CIRCLE
8
BLACK
10
237.7525639999999783
20
-137.4493980000000022
40
1.0999999999999999
0
CIRCLE
8
BLACK
10
233.9933639999999855
20
-190.184597999999994
40
1.0999999999999999
0
LINE
8
BLACK
6
CONTINUOUS
10
235.5339639999999974
20
-150.2007979999999918
11
235.5339639999999974
21
-153.0963979999999935
0
LINE
8
BLACK
6
CONTINUOUS
10
237.9827640000000031
20
-149.1607979999999998
11
237.9827640000000031
21
-150.2007979999999918
0
LINE
8
BLACK
6
CONTINUOUS
10
237.9827640000000031
20
-150.2007979999999918
11
235.5339639999999974
21
-150.2007979999999918
0
LINE
8
BLACK
6
CONTINUOUS
10
237.9827640000000031
20
-153.0963979999999935
11
235.5339639999999974
21
-153.0963979999999935
0
LINE
8
BLACK
6
CONTINUOUS
10
237.9827640000000031
20
-153.0963979999999935
11
237.9827640000000031
21
-154.3687979999999982
0
LINE
8
BLACK
6
CONTINUOUS
10
237.9827640000000031
20
-154.3687979999999982
11
242.4827640000000031
21
-154.3687979999999982
0
LINE
8
BLACK
6
CONTINUOUS
10
242.9507639999999924
20
-149.1607979999999998
11
237.9827640000000031
21
-149.1607979999999998
0
LINE
8
BLACK
6
CONTINUOUS
10
242.9507639999999924
20
-149.8607979999999884
11
242.9507639999999924
21
-149.1607979999999998
0
LINE
8
BLACK
6
CONTINUOUS
10
242.9827640000000031
20
-154.8687979999999982
11
242.9827640000000031
21
-155.8687979999999982
0
LINE
8
BLACK
6
CONTINUOUS
10
243.4827640000000031
20
-156.3687979999999982
11
242.9827640000000031
21
-155.8687979999999982
0
LINE
8
BLACK
6
CONTINUOUS
10
246.9907639999999844
20
-151.3607979999999884
11
244.4747639999999933
21
-151.3607979999999884
0
LINE
8
BLACK
6
CONTINUOUS
10
246.9907639999999844
20
-156.3687979999999982
11
243.4827640000000031
21
-156.3687979999999982
0
LINE
8
BLACK
6
CONTINUOUS
10
247.4907639999999844
20
-151.8607979999999884
11
246.9907639999999844
21
-151.3607979999999884
0
LINE
8
BLACK
6
CONTINUOUS
10
247.4907639999999844
20
-151.8607979999999884
11
247.4907639999999844
21
-152.4359979999999837
0
LINE
8
BLACK
6
CONTINUOUS
10
247.4907639999999844
20
-152.4359979999999837
11
249.9395639999999901
21
-152.4359979999999837
0
LINE
8
BLACK
6
CONTINUOUS
10
247.4907639999999844
20
-155.3315979999999854
11
247.4907639999999844
21
-155.8687979999999982
0
LINE
8
BLACK
6
CONTINUOUS
10
247.4907639999999844
20
-155.3315979999999854
11
249.9395639999999901
21
-155.3315979999999854
0
LINE
8
BLACK
6
CONTINUOUS
10
247.4907639999999844
20
-155.8687979999999982
11
246.9907639999999844
21
-156.3687979999999982
0
LINE
8
BLACK
6
CONTINUOUS
10
249.9395639999999901
20
-155.3315979999999854
11
249.9395639999999901
21
-152.4359979999999837
0
ARC
8
BLACK
10
242.4827640000000031
20
-154.8687979999999982
40
0.5
50
0.00000000
51
90.00000000
0
ARC
8
BLACK
10
244.3934939999999756
20
-149.9191779999999881
40
1.4439089435625778
50
-182.31720677
51
-86.77341836
0
CIRCLE
8
BLACK
10
239.7673639999999864
20
-147.8893979999999999
40
0.5
0
CIRCLE
8
BLACK
10
245.2673639999999864
20
-147.8893979999999999
40
1.
0
CIRCLE
8
BLACK
10
250.7673639999999864
20
-147.8893979999999999
40
0.5
0
LINE
8
BLACK
6
CONTINUOUS
10
83.3753639999999905
20
-140.5810779999999909
11
83.3753639999999905
21
-144.762677999999994
0
LINE
8
BLACK
6
CONTINUOUS
10
83.8753639999999905
20
-145.262677999999994
11
84.9073640000000012
21
-145.262677999999994
0
LINE
8
BLACK
6
CONTINUOUS
10
84.9073640000000012
20
-140.0810779999999909
11
83.8753639999999905
21
-140.0810779999999909
0
LINE
8
BLACK
6
CONTINUOUS
10
85.4073640000000012
20
-144.762677999999994
11
85.4073640000000012
21
-140.5810779999999909
0
ARC
8
BLACK
10
83.8753639999999905
20
-140.5810779999999909
40
0.5
50
90.00000000
51
180.00000000
0
ARC
8
BLACK
10
83.8753650000000022
20
-144.7626769999999965
40
0.500001000001
50
-179.99988541
51
-90.00011459
0
ARC
8
BLACK
10
84.9073640000000012
20
-140.5810779999999909
40
0.5
50
0.00000000
51
90.00000000
0
ARC
8
BLACK
10
84.9073629999999895
20
-144.7626769999999965
40
0.500001000001
50
-89.99988541
51
-0.00011459
0
LINE
8
BLACK
6
CONTINUOUS
10
50.9399639999999962
20
-70.3666779999999932
11
64.9399640000000034
21
-70.3666779999999932
0
LINE
8
BLACK
6
CONTINUOUS
10
64.9399640000000034
20
-70.3666779999999932
11
64.9399640000000034
21
-84.3666779999999932
0
LINE
8
BLACK
6
CONTINUOUS
10
64.9399640000000034
20
-84.3666779999999932
11
50.9399639999999962
21
-84.3666779999999932
0
LINE
8
BLACK
6
CONTINUOUS
10
50.9399639999999962
20
-84.3666779999999932
11
50.9399639999999962
21
-70.3666779999999932
0
LINE
8
BLACK
6
CONTINUOUS
10
105.193963999999994
20
-203.3350779999999816
11
105.193963999999994
21
-207.5166779999999846
0
LINE
8
BLACK
6
CONTINUOUS
10
105.693963999999994
20
-208.0166779999999846
11
106.7259639999999905
21
-208.0166779999999846
0
LINE
8
BLACK
6
CONTINUOUS
10
106.7259639999999905
20
-202.8350779999999816
11
105.693963999999994
21
-202.8350779999999816
0
LINE
8
BLACK
6
CONTINUOUS
10
107.2259639999999905
20
-207.5166779999999846
11
107.2259639999999905
21
-203.3350779999999816
0
ARC
8
BLACK
10
105.693963999999994
20
-203.3350779999999816
40
0.5
50
90.00000000
51
180.00000000
0
ARC
8
BLACK
10
105.6939649999999915
20
-207.5166769999999872
40
0.500001000001
50
-179.99988541
51
-90.00011459
0
ARC
8
BLACK
10
106.7259639999999905
20
-203.3350779999999816
40
0.5
50
0.00000000
51
90.00000000
0
ARC
8
BLACK
10
106.725962999999993
20
-207.5166769999999872
40
0.500001000001
50
-89.99988541
51
-0.00011459
0
LINE
8
BLACK
6
CONTINUOUS
10
53.2677639999999997
20
-135.2794779999999832
11
53.2677639999999997
21
-138.175077999999985
0
LINE
8
BLACK
6
CONTINUOUS
10
55.7165639999999982
20
-134.7422779999999989
11
56.2165639999999982
21
-134.2422779999999989
0
LINE
8
BLACK
6
CONTINUOUS
10
55.7165639999999982
20
-135.2794779999999832
11
53.2677639999999997
21
-135.2794779999999832
0
LINE
8
BLACK
6
CONTINUOUS
10
55.7165639999999982
20
-135.2794779999999832
11
55.7165639999999982
21
-134.7422779999999989
0
LINE
8
BLACK
6
CONTINUOUS
10
55.7165639999999982
20
-138.175077999999985
11
53.2677639999999997
21
-138.175077999999985
0
LINE
8
BLACK
6
CONTINUOUS
10
55.7165639999999982
20
-138.7502779999999802
11
55.7165639999999982
21
-138.175077999999985
0
LINE
8
BLACK
6
CONTINUOUS
10
55.7165639999999982
20
-138.7502779999999802
11
56.2165639999999982
21
-139.2502779999999802
0
LINE
8
BLACK
6
CONTINUOUS
10
56.2165639999999982
20
-134.2422779999999989
11
59.7245639999999938
21
-134.2422779999999989
0
LINE
8
BLACK
6
CONTINUOUS
10
56.2165639999999982
20
-139.2502779999999802
11
58.7325639999999964
21
-139.2502779999999802
0
LINE
8
BLACK
6
CONTINUOUS
10
59.7245639999999938
20
-134.2422779999999989
11
60.2245639999999938
21
-134.7422779999999989
0
LINE
8
BLACK
6
CONTINUOUS
10
60.2245639999999938
20
-135.7422779999999989
11
60.2245639999999938
21
-134.7422779999999989
0
LINE
8
BLACK
6
CONTINUOUS
10
60.2565639999999973
20
-140.7502779999999802
11
60.2565639999999973
21
-141.4502779999999973
0
LINE
8
BLACK
6
CONTINUOUS
10
60.2565639999999973
20
-141.4502779999999973
11
65.2245640000000009
21
-141.4502779999999973
0
LINE
8
BLACK
6
CONTINUOUS
10
65.2245640000000009
20
-136.2422779999999989
11
60.7245639999999938
21
-136.2422779999999989
0
LINE
8
BLACK
6
CONTINUOUS
10
65.2245640000000009
20
-137.5146780000000035
11
65.2245640000000009
21
-136.2422779999999989
0
LINE
8
BLACK
6
CONTINUOUS
10
65.2245640000000009
20
-137.5146780000000035
11
67.6733639999999923
21
-137.5146780000000035
0
LINE
8
BLACK
6
CONTINUOUS
10
65.2245640000000009
20
-140.4102780000000052
11
67.6733639999999923
21
-140.4102780000000052
0
LINE
8
BLACK
6
CONTINUOUS
10
65.2245640000000009
20
-141.4502779999999973
11
65.2245640000000009
21
-140.4102780000000052
0
LINE
8
BLACK
6
CONTINUOUS
10
67.6733639999999923
20
-140.4102780000000052
11
67.6733639999999923
21
-137.5146780000000035
0
ARC
8
BLACK
10
58.8138339999999999
20
-140.6918979999999806
40
1.4439089435625778
50
-2.31720677
51
93.22658164
0
ARC
8
BLACK
10
60.7245639999999938
20
-135.7422779999999989
40
0.5
50
-180.00000000
51
-90.00000000
0
CIRCLE
8
BLACK
10
52.4399639999999962
20
-142.7216779999999972
40
0.5
0
CIRCLE
8
BLACK
10
57.9399639999999962
20
-142.7216779999999972
40
1.
0
CIRCLE
8
BLACK
10
63.4399639999999962
20
-142.7216779999999972
40
0.5
0
LINE
8
BLACK
6
CONTINUOUS
10
183.6913509999999974
20
-137.0387929999999983
11
183.8428949999999986
21
-139.9304249999999854
0
LINE
8
BLACK
6
CONTINUOUS
10
186.1086799999999926
20
-136.3741689999999949
11
186.5818259999999782
21
-135.848686999999984
0
LINE
8
BLACK
6
CONTINUOUS
10
186.136794999999978
20
-136.9106339999999875
11
183.6913509999999974
21
-137.0387929999999983
0
LINE
8
BLACK
6
CONTINUOUS
10
186.136794999999978
20
-136.9106339999999875
11
186.1086799999999926
21
-136.3741689999999949
0
LINE
8
BLACK
6
CONTINUOUS
10
186.2883389999999793
20
-139.8022650000000056
11
183.8428949999999986
21
-139.9304249999999854
0
LINE
8
BLACK
6
CONTINUOUS
10
186.3184420000000046
20
-140.3766770000000008
11
186.2883389999999793
21
-139.8022650000000056
0
LINE
8
BLACK
6
CONTINUOUS
10
186.3184420000000046
20
-140.3766770000000008
11
186.8439249999999845
21
-140.8498239999999839
0
LINE
8
BLACK
6
CONTINUOUS
10
186.5818259999999782
20
-135.848686999999984
11
190.0850189999999884
21
-135.6650909999999897
0
LINE
8
BLACK
6
CONTINUOUS
10
186.8439249999999845
20
-140.8498239999999839
11
189.3564769999999839
21
-140.7181459999999902
0
LINE
8
BLACK
6
CONTINUOUS
10
190.0850189999999884
20
-135.6650909999999897
11
190.6105019999999968
21
-136.1382389999999987
0
LINE
8
BLACK
6
CONTINUOUS
10
190.6628389999999911
20
-137.1368689999999901
11
190.6105019999999968
21
-136.1382389999999987
0
LINE
8
BLACK
6
CONTINUOUS
10
190.9568919999999821
20
-142.1363299999999867
11
190.9935270000000003
21
-142.8353709999999808
0
LINE
8
BLACK
6
CONTINUOUS
10
190.9935270000000003
20
-142.8353709999999808
11
195.954718999999983
21
-142.5753660000000025
0
LINE
8
BLACK
6
CONTINUOUS
10
195.6821529999999996
20
-137.3745030000000042
11
191.1883200000000045
21
-137.6100150000000042
0
LINE
8
BLACK
6
CONTINUOUS
10
195.7487449999999853
20
-138.6451600000000042
11
195.6821529999999996
21
-137.3745030000000042
0
LINE
8
BLACK
6
CONTINUOUS
10
195.7487449999999853
20
-138.6451600000000042
11
198.1941889999999944
21
-138.5169989999999984
0
LINE
8
BLACK
6
CONTINUOUS
10
195.9002889999999866
20
-141.5367909999999938
11
198.3457329999999956
21
-141.4086299999999881
0
LINE
8
BLACK
6
CONTINUOUS
10
195.954718999999983
20
-142.5753660000000025
11
195.9002889999999866
21
-141.5367909999999938
0
LINE
8
BLACK
6
CONTINUOUS
10
198.3457329999999956
20
-141.4086299999999881
11
198.1941889999999944
21
-138.5169989999999984
0
ARC
8
BLACK
10
189.5130839999999921
20
-142.153537
40
1.4439089567316907
50
0.68280672
51
96.22657425
0
ARC
8
BLACK
10
191.1621519999999919
20
-137.11069999999998
40
0.5000002334489455
50
-176.99987246
51
-86.99999889
0
CIRCLE
8
BLACK
10
183.254179999999991
20
-144.5141169999999988
40
0.499999
0
CIRCLE
8
BLACK
10
188.74664199999998
20
-144.2262699999999995
40
1.
0
CIRCLE
8
BLACK
10
194.2391039999999975
20
-143.9384230000000002
40
0.5
0
CIRCLE
8
BLACK
10
223.3621169999999836
20
-206.796701999999982
40
1.0999999999999999
0
LINE
8
BLACK
6
CONTINUOUS
10
69.2397639999999939
20
-50.566677999999996
11
83.2397639999999939
21
-50.566677999999996
0
LINE
8
BLACK
6
CONTINUOUS
10
83.2397639999999939
20
-50.566677999999996
11
83.2397639999999939
21
-64.566677999999996
0
LINE
8
BLACK
6
CONTINUOUS
10
83.2397639999999939
20
-64.566677999999996
11
69.2397639999999939
21
-64.566677999999996
0
LINE
8
BLACK
6
CONTINUOUS
10
69.2397639999999939
20
-64.566677999999996
11
69.2397639999999939
21
-50.566677999999996
0
LINE
8
BLACK
6
CONTINUOUS
10
50.9399639999999962
20
-53.3666780000000003
11
64.9399640000000034
21
-53.3666780000000003
0
LINE
8
BLACK
6
CONTINUOUS
10
64.9399640000000034
20
-53.3666780000000003
11
64.9399640000000034
21
-67.3666779999999932
0
LINE
8
BLACK
6
CONTINUOUS
10
64.9399640000000034
20
-67.3666779999999932
11
50.9399639999999962
21
-67.3666779999999932
0
LINE
8
BLACK
6
CONTINUOUS
10
50.9399639999999962
20
-67.3666779999999932
11
50.9399639999999962
21
-53.3666780000000003
0
LINE
8
BLACK
6
CONTINUOUS
10
222.295363999999978
20
-171.7471979999999974
11
222.295363999999978
21
-174.6427979999999991
0
LINE
8
BLACK
6
CONTINUOUS
10
224.7441639999999836
20
-171.2099979999999846
11
225.2441639999999836
21
-170.7099979999999846
0
LINE
8
BLACK
6
CONTINUOUS
10
224.7441639999999836
20
-171.7471979999999974
11
222.295363999999978
21
-171.7471979999999974
0
LINE
8
BLACK
6
CONTINUOUS
10
224.7441639999999836
20
-171.7471979999999974
11
224.7441639999999836
21
-171.2099979999999846
0
LINE
8
BLACK
6
CONTINUOUS
10
224.7441639999999836
20
-174.6427979999999991
11
222.295363999999978
21
-174.6427979999999991
0
LINE
8
BLACK
6
CONTINUOUS
10
224.7441639999999836
20
-175.2179979999999944
11
224.7441639999999836
21
-174.6427979999999991
0
LINE
8
BLACK
6
CONTINUOUS
10
224.7441639999999836
20
-175.2179979999999944
11
225.2441639999999836
21
-175.7179979999999944
0
LINE
8
BLACK
6
CONTINUOUS
10
225.2441639999999836
20
-170.7099979999999846
11
228.7521639999999934
21
-170.7099979999999846
0
LINE
8
BLACK
6
CONTINUOUS
10
225.2441639999999836
20
-175.7179979999999944
11
227.7601640000000032
21
-175.7179979999999944
0
LINE
8
BLACK
6
CONTINUOUS
10
228.7521639999999934
20
-170.7099979999999846
11
229.2521639999999934
21
-171.2099979999999846
0
LINE
8
BLACK
6
CONTINUOUS
10
229.2521639999999934
20
-172.2099979999999846
11
229.2521639999999934
21
-171.2099979999999846
0
LINE
8
BLACK
6
CONTINUOUS
10
229.2841639999999757
20
-177.2179979999999944
11
229.2841639999999757
21
-177.917997999999983
0
LINE
8
BLACK
6
CONTINUOUS
10
229.2841639999999757
20
-177.917997999999983
11
234.2521639999999934
21
-177.917997999999983
0
LINE
8
BLACK
6
CONTINUOUS
10
234.2521639999999934
20
-172.7099979999999846
11
229.7521639999999934
21
-172.7099979999999846
0
LINE
8
BLACK
6
CONTINUOUS
10
234.2521639999999934
20
-173.9823979999999892
11
234.2521639999999934
21
-172.7099979999999846
0
LINE
8
BLACK
6
CONTINUOUS
10
234.2521639999999934
20
-173.9823979999999892
11
236.700963999999999
21
-173.9823979999999892
0
LINE
8
BLACK
6
CONTINUOUS
10
234.2521639999999934
20
-176.877997999999991
11
236.700963999999999
21
-176.877997999999991
0
LINE
8
BLACK
6
CONTINUOUS
10
234.2521639999999934
20
-177.917997999999983
11
234.2521639999999934
21
-176.877997999999991
0
LINE
8
BLACK
6
CONTINUOUS
10
236.700963999999999
20
-176.877997999999991
11
236.700963999999999
21
-173.9823979999999892
0
ARC
8
BLACK
10
227.8414339999999925
20
-177.1596179999999947
40
1.4439089435625778
50
-2.31720677
51
93.22658164
0
ARC
8
BLACK
10
229.7521639999999934
20
-172.2099979999999846
40
0.5
50
-180.00000000
51
-90.00000000
0
CIRCLE
8
BLACK
10
221.4675639999999817
20
-179.1893979999999829
40
0.5
0
CIRCLE
8
BLACK
10
226.9675639999999817
20
-179.1893979999999829
40
1.
0
CIRCLE
8
BLACK
10
232.4675639999999817
20
-179.1893979999999829
40
0.5
0
CIRCLE
8
BLACK
10
201.1219030000000032
20
-203.8687219999999911
40
1.0999999999999999
0
LINE
8
BLACK
6
CONTINUOUS
10
69.2397639999999939
20
-67.566677999999996
11
83.2397639999999939
21
-67.566677999999996
0
LINE
8
BLACK
6
CONTINUOUS
10
83.2397639999999939
20
-67.566677999999996
11
83.2397639999999939
21
-81.566677999999996
0
LINE
8
BLACK
6
CONTINUOUS
10
83.2397639999999939
20
-81.566677999999996
11
69.2397639999999939
21
-81.566677999999996
0
LINE
8
BLACK
6
CONTINUOUS
10
69.2397639999999939
20
-81.566677999999996
11
69.2397639999999939
21
-67.566677999999996
0
LINE
8
BLACK
6
CONTINUOUS
10
108.2165639999999911
20
-203.7922779999999818
11
108.2165639999999911
21
-207.9738779999999849
0
LINE
8
BLACK
6
CONTINUOUS
10
108.7165639999999911
20
-208.4738779999999849
11
109.7485640000000018
21
-208.4738779999999849
0
LINE
8
BLACK
6
CONTINUOUS
10
109.7485640000000018
20
-203.2922779999999818
11
108.7165639999999911
21
-203.2922779999999818
0
LINE
8
BLACK
6
CONTINUOUS
10
110.2485640000000018
20
-207.9738779999999849
11
110.2485640000000018
21
-203.7922779999999818
0
ARC
8
BLACK
10
108.7165649999999886
20
-203.7922789999999793
40
0.500001000001
50
90.00011459
51
179.99988541
0
ARC
8
BLACK
10
108.7165639999999911
20
-207.9738779999999849
40
0.5
50
-180.00000000
51
-90.00000000
0
ARC
8
BLACK
10
109.7485629999999901
20
-203.7922789999999793
40
0.500001000001
50
0.00011459
51
89.99988541
0
ARC
8
BLACK
10
109.7485640000000018
20
-207.9738779999999849
40
0.5
50
-90.00000000
51
-0.00000000
0
LINE
8
BLACK
6
CONTINUOUS
10
71.5675639999999902
20
-150.1244779999999821
11
71.5675639999999902
21
-153.0200779999999838
0
LINE
8
BLACK
6
CONTINUOUS
10
74.0163639999999958
20
-149.5872779999999977
11
74.5163639999999958
21
-149.0872779999999977
0
LINE
8
BLACK
6
CONTINUOUS
10
74.0163639999999958
20
-150.1244779999999821
11
71.5675639999999902
21
-150.1244779999999821
0
LINE
8
BLACK
6
CONTINUOUS
10
74.0163639999999958
20
-150.1244779999999821
11
74.0163639999999958
21
-149.5872779999999977
0
LINE
8
BLACK
6
CONTINUOUS
10
74.0163639999999958
20
-153.0200779999999838
11
71.5675639999999902
21
-153.0200779999999838
0
LINE
8
BLACK
6
CONTINUOUS
10
74.0163639999999958
20
-153.5952779999999791
11
74.0163639999999958
21
-153.0200779999999838
0
LINE
8
BLACK
6
CONTINUOUS
10
74.0163639999999958
20
-153.5952779999999791
11
74.5163639999999958
21
-154.0952779999999791
0
LINE
8
BLACK
6
CONTINUOUS
10
74.5163639999999958
20
-149.0872779999999977
11
78.0243639999999914
21
-149.0872779999999977
0
LINE
8
BLACK
6
CONTINUOUS
10
74.5163639999999958
20
-154.0952779999999791
11
77.0323640000000012
21
-154.0952779999999791
0
LINE
8
BLACK
6
CONTINUOUS
10
78.0243639999999914
20
-149.0872779999999977
11
78.5243639999999914
21
-149.5872779999999977
0
LINE
8
BLACK
6
CONTINUOUS
10
78.5243639999999914
20
-150.5872779999999977
11
78.5243639999999914
21
-149.5872779999999977
0
LINE
8
BLACK
6
CONTINUOUS
10
78.5563640000000021
20
-155.5952779999999791
11
78.5563640000000021
21
-156.2952779999999962
0
LINE
8
BLACK
6
CONTINUOUS
10
78.5563640000000021
20
-156.2952779999999962
11
83.5243639999999914
21
-156.2952779999999962
0
LINE
8
BLACK
6
CONTINUOUS
10
83.5243639999999914
20
-151.0872779999999977
11
79.0243639999999914
21
-151.0872779999999977
0
LINE
8
BLACK
6
CONTINUOUS
10
83.5243639999999914
20
-152.3596780000000024
11
83.5243639999999914
21
-151.0872779999999977
0
LINE
8
BLACK
6
CONTINUOUS
10
83.5243639999999914
20
-152.3596780000000024
11
85.973163999999997
21
-152.3596780000000024
0
LINE
8
BLACK
6
CONTINUOUS
10
83.5243639999999914
20
-155.2552780000000041
11
85.973163999999997
21
-155.2552780000000041
0
LINE
8
BLACK
6
CONTINUOUS
10
83.5243639999999914
20
-156.2952779999999962
11
83.5243639999999914
21
-155.2552780000000041
0
LINE
8
BLACK
6
CONTINUOUS
10
85.973163999999997
20
-155.2552780000000041
11
85.973163999999997
21
-152.3596780000000024
0
ARC
8
BLACK
10
77.1136339999999905
20
-155.5368979999999794
40
1.4439089435625778
50
-2.31720677
51
93.22658164
0
ARC
8
BLACK
10
79.0243639999999914
20
-150.5872779999999977
40
0.5
50
-180.00000000
51
-90.00000000
0
CIRCLE
8
BLACK
10
70.7397639999999939
20
-157.566677999999996
40
0.5
0
CIRCLE
8
BLACK
10
76.2397639999999939
20
-157.566677999999996
40
1.
0
CIRCLE
8
BLACK
10
81.7397639999999939
20
-157.566677999999996
40
0.5
0
LINE
8
BLACK
6
CONTINUOUS
10
203.9955640000000017
20
-168.947197999999986
11
203.9955640000000017
21
-171.8427979999999877
0
LINE
8
BLACK
6
CONTINUOUS
10
206.4443639999999789
20
-168.4099980000000016
11
206.9443639999999789
21
-167.9099980000000016
0
LINE
8
BLACK
6
CONTINUOUS
10
206.4443639999999789
20
-168.947197999999986
11
203.9955640000000017
21
-168.947197999999986
0
LINE
8
BLACK
6
CONTINUOUS
10
206.4443639999999789
20
-168.947197999999986
11
206.4443639999999789
21
-168.4099980000000016
0
LINE
8
BLACK
6
CONTINUOUS
10
206.4443639999999789
20
-171.8427979999999877
11
203.9955640000000017
21
-171.8427979999999877
0
LINE
8
BLACK
6
CONTINUOUS
10
206.4443639999999789
20
-172.417997999999983
11
206.4443639999999789
21
-171.8427979999999877
0
LINE
8
BLACK
6
CONTINUOUS
10
206.4443639999999789
20
-172.417997999999983
11
206.9443639999999789
21
-172.917997999999983
0
LINE
8
BLACK
6
CONTINUOUS
10
206.9443639999999789
20
-167.9099980000000016
11
210.4523639999999887
21
-167.9099980000000016
0
LINE
8
BLACK
6
CONTINUOUS
10
206.9443639999999789
20
-172.917997999999983
11
209.4603639999999984
21
-172.917997999999983
0
LINE
8
BLACK
6
CONTINUOUS
10
210.4523639999999887
20
-167.9099980000000016
11
210.9523639999999887
21
-168.4099980000000016
0
LINE
8
BLACK
6
CONTINUOUS
10
210.9523639999999887
20
-169.4099980000000016
11
210.9523639999999887
21
-168.4099980000000016
0
LINE
8
BLACK
6
CONTINUOUS
10
210.9843639999999994
20
-174.417997999999983
11
210.9843639999999994
21
-175.117998
0
LINE
8
BLACK
6
CONTINUOUS
10
210.9843639999999994
20
-175.117998
11
215.9523639999999887
21
-175.117998
0
LINE
8
BLACK
6
CONTINUOUS
10
215.9523639999999887
20
-169.9099980000000016
11
211.4523639999999887
21
-169.9099980000000016
0
LINE
8
BLACK
6
CONTINUOUS
10
215.9523639999999887
20
-171.1823980000000063
11
215.9523639999999887
21
-169.9099980000000016
0
LINE
8
BLACK
6
CONTINUOUS
10
215.9523639999999887
20
-171.1823980000000063
11
218.4011639999999943
21
-171.1823980000000063
0
LINE
8
BLACK
6
CONTINUOUS
10
215.9523639999999887
20
-174.0779979999999796
11
218.4011639999999943
21
-174.0779979999999796
0
LINE
8
BLACK
6
CONTINUOUS
10
215.9523639999999887
20
-175.117998
11
215.9523639999999887
21
-174.0779979999999796
0
LINE
8
BLACK
6
CONTINUOUS
10
218.4011639999999943
20
-174.0779979999999796
11
218.4011639999999943
21
-171.1823980000000063
0
ARC
8
BLACK
10
209.5416339999999877
20
-174.3596179999999833
40
1.4439089435625778
50
-2.31720677
51
93.22658164
0
ARC
8
BLACK
10
211.4523639999999887
20
-169.4099980000000016
40
0.5
50
-180.00000000
51
-90.00000000
0
CIRCLE
8
BLACK
10
203.1677639999999769
20
-176.3893979999999999
40
0.5
0
CIRCLE
8
BLACK
10
208.6677639999999769
20
-176.3893979999999999
40
1.
0
CIRCLE
8
BLACK
10
214.1677639999999769
20
-176.3893979999999999
40
0.5
0
LINE
8
BLACK
6
CONTINUOUS
10
120.1966789999999889
20
-184.616045999999983
11
120.1966789999999889
21
-188.7976459999999861
0
LINE
8
BLACK
6
CONTINUOUS
10
120.6966789999999889
20
-189.2976459999999861
11
121.7286789999999996
21
-189.2976459999999861
0
LINE
8
BLACK
6
CONTINUOUS
10
121.7286789999999996
20
-184.116045999999983
11
120.6966789999999889
21
-184.116045999999983
0
LINE
8
BLACK
6
CONTINUOUS
10
122.2286789999999996
20
-188.7976459999999861
11
122.2286789999999996
21
-184.616045999999983
0
ARC
8
BLACK
10
120.6966789999999889
20
-184.616045999999983
40
0.5
50
90.00000000
51
180.00000000
0
ARC
8
BLACK
10
120.6966800000000006
20
-188.7976449999999886
40
0.500001000001
50
-179.99988541
51
-90.00011459
0
ARC
8
BLACK
10
121.7286789999999996
20
-184.616045999999983
40
0.5
50
0.00000000
51
90.00000000
0
ARC
8
BLACK
10
121.7286779999999879
20
-188.7976449999999886
40
0.500001000001
50
-89.99988541
51
-0.00011459
0
LINE
8
BLACK
6
CONTINUOUS
10
46.9389639999999986
20
-142.4258779999999831
11
46.9389639999999986
21
-146.6074779999999862
0
LINE
8
BLACK
6
CONTINUOUS
10
47.4389639999999986
20
-147.1074779999999862
11
48.4709639999999951
21
-147.1074779999999862
0
LINE
8
BLACK
6
CONTINUOUS
10
48.4709639999999951
20
-141.9258779999999831
11
47.4389639999999986
21
-141.9258779999999831
0
LINE
8
BLACK
6
CONTINUOUS
10
48.9709639999999951
20
-146.6074779999999862
11
48.9709639999999951
21
-142.4258779999999831
0
ARC
8
BLACK
10
47.4389639999999986
20
-142.4258779999999831
40
0.5
50
90.00000000
51
180.00000000
0
ARC
8
BLACK
10
47.4389649999999961
20
-146.6074769999999887
40
0.500001000001
50
-179.99988541
51
-90.00011459
0
ARC
8
BLACK
10
48.4709639999999951
20
-142.4258779999999831
40
0.5
50
0.00000000
51
90.00000000
0
ARC
8
BLACK
10
48.4709629999999976
20
-146.6074769999999887
40
0.500001000001
50
-89.99988541
51
-0.00011459
0
LINE
8
BLACK
6
CONTINUOUS
10
33.9110809999999958
20
-173.8918689999999856
11
34.0121359999999981
21
-176.7857049999999788
0
LINE
8
BLACK
6
CONTINUOUS
10
36.3396410000000003
20
-173.2695339999999931
11
36.8218869999999967
21
-172.7523889999999938
0
LINE
8
BLACK
6
CONTINUOUS
10
36.3583889999999954
20
-173.8064069999999788
11
33.9110809999999958
21
-173.8918689999999856
0
LINE
8
BLACK
6
CONTINUOUS
10
36.3583889999999954
20
-173.8064069999999788
11
36.3396410000000003
21
-173.2695339999999931
0
LINE
8
BLACK
6
CONTINUOUS
10
36.4594439999999977
20
-176.7002430000000004
11
34.0121359999999981
21
-176.7857049999999788
0
LINE
8
BLACK
6
CONTINUOUS
10
36.4795189999999963
20
-177.2750929999999983
11
36.4594439999999977
21
-176.7002430000000004
0
LINE
8
BLACK
6
CONTINUOUS
10
36.4795189999999963
20
-177.2750929999999983
11
36.9966639999999956
21
-177.7573380000000043
0
LINE
8
BLACK
6
CONTINUOUS
10
36.8218869999999967
20
-172.7523889999999938
11
40.3277499999999947
21
-172.6299620000000061
0
LINE
8
BLACK
6
CONTINUOUS
10
36.9966639999999956
20
-177.7573380000000043
11
39.5111309999999989
21
-177.6695309999999779
0
LINE
8
BLACK
6
CONTINUOUS
10
40.3277499999999947
20
-172.6299620000000061
11
40.8448950000000011
21
-173.1122069999999837
0
LINE
8
BLACK
6
CONTINUOUS
10
40.8797950000000014
20
-174.1115979999999865
11
40.8448950000000011
21
-173.1122069999999837
0
LINE
8
BLACK
6
CONTINUOUS
10
41.0865519999999975
20
-179.1154310000000009
11
41.1109819999999999
21
-179.8150039999999876
0
LINE
8
BLACK
6
CONTINUOUS
10
41.1109819999999999
20
-179.8150039999999876
11
46.0759550000000004
21
-179.6416239999999789
0
LINE
8
BLACK
6
CONTINUOUS
10
45.8941990000000004
20
-174.4367959999999869
11
41.3969400000000007
21
-174.59384399999999
0
LINE
8
BLACK
6
CONTINUOUS
10
45.9386049999999955
20
-175.7084209999999871
11
45.8941990000000004
21
-174.4367959999999869
0
LINE
8
BLACK
6
CONTINUOUS
10
45.9386049999999955
20
-175.7084209999999871
11
48.3859129999999951
21
-175.6229589999999803
0
LINE
8
BLACK
6
CONTINUOUS
10
46.0396599999999978
20
-178.6022569999999803
11
48.4869679999999974
21
-178.5167950000000019
0
LINE
8
BLACK
6
CONTINUOUS
10
46.0759550000000004
20
-179.6416239999999789
11
46.0396599999999978
21
-178.6022569999999803
0
LINE
8
BLACK
6
CONTINUOUS
10
48.4869679999999974
20
-178.5167950000000019
11
48.3859129999999951
21
-175.6229589999999803
0
ARC
8
BLACK
10
39.6426629999999989
20
-179.1074370000000044
40
1.4439093918456241
50
-0.31721121
51
95.22656786
0
ARC
8
BLACK
10
41.379489999999997
20
-174.0941489999999874
40
0.4999995955248364
50
-178.00008405
51
-87.99996953
0
CIRCLE
8
BLACK
10
33.343513999999999
20
-181.3584249999999827
40
0.500001
0
CIRCLE
8
BLACK
10
38.8401640000000015
20
-181.1664779999999837
40
1.
0
CIRCLE
8
BLACK
10
44.3368139999999968
20
-180.9745309999999847
40
0.5
0
LINE
8
BLACK
6
CONTINUOUS
10
203.9955640000000017
20
-151.947197999999986
11
203.9955640000000017
21
-154.8427979999999877
0
LINE
8
BLACK
6
CONTINUOUS
10
206.4443639999999789
20
-151.4099980000000016
11
206.9443639999999789
21
-150.9099980000000016
0
LINE
8
BLACK
6
CONTINUOUS
10
206.4443639999999789
20
-151.947197999999986
11
203.9955640000000017
21
-151.947197999999986
0
LINE
8
BLACK
6
CONTINUOUS
10
206.4443639999999789
20
-151.947197999999986
11
206.4443639999999789
21
-151.4099980000000016
0
LINE
8
BLACK
6
CONTINUOUS
10
206.4443639999999789
20
-154.8427979999999877
11
203.9955640000000017
21
-154.8427979999999877
0
LINE
8
BLACK
6
CONTINUOUS
10
206.4443639999999789
20
-155.417997999999983
11
206.4443639999999789
21
-154.8427979999999877
0
LINE
8
BLACK
6
CONTINUOUS
10
206.4443639999999789
20
-155.417997999999983
11
206.9443639999999789
21
-155.917997999999983
0
LINE
8
BLACK
6
CONTINUOUS
10
206.9443639999999789
20
-150.9099980000000016
11
210.4523639999999887
21
-150.9099980000000016
0
LINE
8
BLACK
6
CONTINUOUS
10
206.9443639999999789
20
-155.917997999999983
11
209.4603639999999984
21
-155.917997999999983
0
LINE
8
BLACK
6
CONTINUOUS
10
210.4523639999999887
20
-150.9099980000000016
11
210.9523639999999887
21
-151.4099980000000016
0
LINE
8
BLACK
6
CONTINUOUS
10
210.9523639999999887
20
-152.4099980000000016
11
210.9523639999999887
21
-151.4099980000000016
0
LINE
8
BLACK
6
CONTINUOUS
10
210.9843639999999994
20
-157.417997999999983
11
210.9843639999999994
21
-158.117998
0
LINE
8
BLACK
6
CONTINUOUS
10
210.9843639999999994
20
-158.117998
11
215.9523639999999887
21
-158.117998
0
LINE
8
BLACK
6
CONTINUOUS
10
215.9523639999999887
20
-152.9099980000000016
11
211.4523639999999887
21
-152.9099980000000016
0
LINE
8
BLACK
6
CONTINUOUS
10
215.9523639999999887
20
-154.1823980000000063
11
215.9523639999999887
21
-152.9099980000000016
0
LINE
8
BLACK
6
CONTINUOUS
10
215.9523639999999887
20
-154.1823980000000063
11
218.4011639999999943
21
-154.1823980000000063
0
LINE
8
BLACK
6
CONTINUOUS
10
215.9523639999999887
20
-157.0779979999999796
11
218.4011639999999943
21
-157.0779979999999796
0
LINE
8
BLACK
6
CONTINUOUS
10
215.9523639999999887
20
-158.117998
11
215.9523639999999887
21
-157.0779979999999796
0
LINE
8
BLACK
6
CONTINUOUS
10
218.4011639999999943
20
-157.0779979999999796
11
218.4011639999999943
21
-154.1823980000000063
0
ARC
8
BLACK
10
209.5416339999999877
20
-157.3596179999999833
40
1.4439089435625778
50
-2.31720677
51
93.22658164
0
ARC
8
BLACK
10
211.4523639999999887
20
-152.4099980000000016
40
0.5
50
-180.00000000
51
-90.00000000
0
CIRCLE
8
BLACK
10
203.1677639999999769
20
-159.3893979999999999
40
0.5
0
CIRCLE
8
BLACK
10
208.6677639999999769
20
-159.3893979999999999
40
1.
0
CIRCLE
8
BLACK
10
214.1677639999999769
20
-159.3893979999999999
40
0.5
0
LINE
8
BLACK
6
CONTINUOUS
10
65.4397639999999967
20
-177.0046779999999842
11
65.4397639999999967
21
-181.1862779999999873
0
LINE
8
BLACK
6
CONTINUOUS
10
65.9397639999999967
20
-181.6862779999999873
11
66.9717639999999932
21
-181.6862779999999873
0
LINE
8
BLACK
6
CONTINUOUS
10
66.9717639999999932
20
-176.5046779999999842
11
65.9397639999999967
21
-176.5046779999999842
0
LINE
8
BLACK
6
CONTINUOUS
10
67.4717639999999932
20
-181.1862779999999873
11
67.4717639999999932
21
-177.0046779999999842
0
ARC
8
BLACK
10
65.9397639999999967
20
-177.0046779999999842
40
0.5
50
90.00000000
51
180.00000000
0
ARC
8
BLACK
10
65.9397649999999942
20
-181.1862769999999898
40
0.500001000001
50
-179.99988541
51
-90.00011459
0
ARC
8
BLACK
10
66.9717639999999932
20
-177.0046779999999842
40
0.5
50
0.00000000
51
90.00000000
0
ARC
8
BLACK
10
66.9717629999999957
20
-181.1862769999999898
40
0.500001000001
50
-89.99988541
51
-0.00011459
0
LINE
8
BLACK
6
CONTINUOUS
10
91.4442459999999926
20
-151.7274779999999907
11
91.2927019999999914
21
-154.6191100000000063
0
LINE
8
BLACK
6
CONTINUOUS
10
93.7080419999999918
20
-155.3216819999999814
11
93.7381460000000004
21
-154.7472699999999861
0
LINE
8
BLACK
6
CONTINUOUS
10
93.7080419999999918
20
-155.3216819999999814
11
94.1811889999999892
21
-155.8471649999999897
0
LINE
8
BLACK
6
CONTINUOUS
10
93.7381460000000004
20
-154.7472699999999861
11
91.2927019999999914
21
-154.6191100000000063
0
LINE
8
BLACK
6
CONTINUOUS
10
93.8896900000000016
20
-151.8556389999999965
11
91.4442459999999926
21
-151.7274779999999907
0
LINE
8
BLACK
6
CONTINUOUS
10
93.8896900000000016
20
-151.8556389999999965
11
93.9178050000000013
21
-151.3191750000000013
0
LINE
8
BLACK
6
CONTINUOUS
10
93.9178050000000013
20
-151.3191750000000013
11
94.443286999999998
21
-150.8460279999999898
0
LINE
8
BLACK
6
CONTINUOUS
10
94.1811889999999892
20
-155.8471649999999897
11
96.6937409999999886
21
-155.978841999999986
0
LINE
8
BLACK
6
CONTINUOUS
10
94.443286999999998
20
-150.8460279999999898
11
97.946479999999994
21
-151.0296219999999892
0
LINE
8
BLACK
6
CONTINUOUS
10
97.946479999999994
20
-151.0296219999999892
11
98.4196269999999913
21
-151.5551049999999975
0
LINE
8
BLACK
6
CONTINUOUS
10
98.1005129999999923
20
-158.2555869999999913
11
103.0617049999999892
21
-158.5155919999999981
0
LINE
8
BLACK
6
CONTINUOUS
10
98.1371479999999963
20
-157.5565459999999973
11
98.1005129999999923
21
-158.2555869999999913
0
LINE
8
BLACK
6
CONTINUOUS
10
98.3672909999999945
20
-152.553734999999989
11
98.4196269999999913
21
-151.5551049999999975
0
LINE
8
BLACK
6
CONTINUOUS
10
103.0617049999999892
20
-158.5155919999999981
11
103.1161340000000024
21
-157.4770169999999894
0
LINE
8
BLACK
6
CONTINUOUS
10
103.1161340000000024
20
-157.4770169999999894
11
105.5615779999999972
21
-157.6051769999999976
0
LINE
8
BLACK
6
CONTINUOUS
10
103.2676779999999894
20
-154.5853859999999997
11
103.3342699999999894
21
-153.3147289999999998
0
LINE
8
BLACK
6
CONTINUOUS
10
103.2676779999999894
20
-154.5853859999999997
11
105.7131219999999985
21
-154.7135459999999796
0
LINE
8
BLACK
6
CONTINUOUS
10
103.3342699999999894
20
-153.3147289999999998
11
98.8404369999999943
21
-153.0792169999999999
0
LINE
8
BLACK
6
CONTINUOUS
10
105.5615779999999972
20
-157.6051769999999976
11
105.7131219999999985
21
-154.7135459999999796
0
ARC
8
BLACK
10
96.6994509999999963
20
-157.4227400000000046
40
1.4439092902616839
50
-5.31718276
51
90.22657916
0
ARC
8
BLACK
10
98.8666049999999927
20
-152.5799030000000016
40
0.4999992348194145
50
-183.00000711
51
-93.00000711
0
CIRCLE
8
BLACK
10
90.2280859999999905
20
-159.116154999999992
40
0.499999
0
CIRCLE
8
BLACK
10
95.7205479999999937
20
-159.4040029999999888
40
1.
0
CIRCLE
8
BLACK
10
101.213009999999997
20
-159.6918509999999856
40
0.5
0
LINE
8
BLACK
6
CONTINUOUS
10
50.9399639999999962
20
-35.7216779999999972
11
64.9399640000000034
21
-35.7216779999999972
0
LINE
8
BLACK
6
CONTINUOUS
10
64.9399640000000034
20
-35.7216779999999972
11
64.9399640000000034
21
-49.7216779999999972
0
LINE
8
BLACK
6
CONTINUOUS
10
64.9399640000000034
20
-49.7216779999999972
11
50.9399639999999962
21
-49.7216779999999972
0
LINE
8
BLACK
6
CONTINUOUS
10
50.9399639999999962
20
-49.7216779999999972
11
50.9399639999999962
21
-35.7216779999999972
0
LINE
8
BLACK
6
CONTINUOUS
10
203.9955640000000017
20
-134.947197999999986
11
203.9955640000000017
21
-137.8427979999999877
0
LINE
8
BLACK
6
CONTINUOUS
10
206.4443639999999789
20
-134.4099980000000016
11
206.9443639999999789
21
-133.9099980000000016
0
LINE
8
BLACK
6
CONTINUOUS
10
206.4443639999999789
20
-134.947197999999986
11
203.9955640000000017
21
-134.947197999999986
0
LINE
8
BLACK
6
CONTINUOUS
10
206.4443639999999789
20
-134.947197999999986
11
206.4443639999999789
21
-134.4099980000000016
0
LINE
8
BLACK
6
CONTINUOUS
10
206.4443639999999789
20
-137.8427979999999877
11
203.9955640000000017
21
-137.8427979999999877
0
LINE
8
BLACK
6
CONTINUOUS
10
206.4443639999999789
20
-138.417997999999983
11
206.4443639999999789
21
-137.8427979999999877
0
LINE
8
BLACK
6
CONTINUOUS
10
206.4443639999999789
20
-138.417997999999983
11
206.9443639999999789
21
-138.917997999999983
0
LINE
8
BLACK
6
CONTINUOUS
10
206.9443639999999789
20
-133.9099980000000016
11
210.4523639999999887
21
-133.9099980000000016
0
LINE
8
BLACK
6
CONTINUOUS
10
206.9443639999999789
20
-138.917997999999983
11
209.4603639999999984
21
-138.917997999999983
0
LINE
8
BLACK
6
CONTINUOUS
10
210.4523639999999887
20
-133.9099980000000016
11
210.9523639999999887
21
-134.4099980000000016
0
LINE
8
BLACK
6
CONTINUOUS
10
210.9523639999999887
20
-135.4099980000000016
11
210.9523639999999887
21
-134.4099980000000016
0
LINE
8
BLACK
6
CONTINUOUS
10
210.9843639999999994
20
-140.417997999999983
11
210.9843639999999994
21
-141.117998
0
LINE
8
BLACK
6
CONTINUOUS
10
210.9843639999999994
20
-141.117998
11
215.9523639999999887
21
-141.117998
0
LINE
8
BLACK
6
CONTINUOUS
10
215.9523639999999887
20
-135.9099980000000016
11
211.4523639999999887
21
-135.9099980000000016
0
LINE
8
BLACK
6
CONTINUOUS
10
215.9523639999999887
20
-137.1823980000000063
11
215.9523639999999887
21
-135.9099980000000016
0
LINE
8
BLACK
6
CONTINUOUS
10
215.9523639999999887
20
-137.1823980000000063
11
218.4011639999999943
21
-137.1823980000000063
0
LINE
8
BLACK
6
CONTINUOUS
10
215.9523639999999887
20
-140.0779979999999796
11
218.4011639999999943
21
-140.0779979999999796
0
LINE
8
BLACK
6
CONTINUOUS
10
215.9523639999999887
20
-141.117998
11
215.9523639999999887
21
-140.0779979999999796
0
LINE
8
BLACK
6
CONTINUOUS
10
218.4011639999999943
20
-140.0779979999999796
11
218.4011639999999943
21
-137.1823980000000063
0
ARC
8
BLACK
10
209.5416339999999877
20
-140.3596179999999833
40
1.4439089435625778
50
-2.31720677
51
93.22658164
0
ARC
8
BLACK
10
211.4523639999999887
20
-135.4099980000000016
40
0.5
50
-180.00000000
51
-90.00000000
0
CIRCLE
8
BLACK
10
203.1677639999999769
20
-142.3893979999999999
40
0.5
0
CIRCLE
8
BLACK
10
208.6677639999999769
20
-142.3893979999999999
40
1.
0
CIRCLE
8
BLACK
10
214.1677639999999769
20
-142.3893979999999999
40
0.5
0
LINE
8
BLACK
6
CONTINUOUS
10
161.0777709999999843
20
-201.9065339999999935
11
161.8272079999999846
21
-204.7034689999999841
0
LINE
8
BLACK
6
CONTINUOUS
10
163.3040929999999946
20
-200.7538429999999892
11
163.6576469999999972
21
-200.1414699999999982
0
LINE
8
BLACK
6
CONTINUOUS
10
163.4431309999999939
20
-201.2727380000000039
11
161.0777709999999843
21
-201.9065339999999935
0
LINE
8
BLACK
6
CONTINUOUS
10
163.4431309999999939
20
-201.2727380000000039
11
163.3040929999999946
21
-200.7538429999999892
0
LINE
8
BLACK
6
CONTINUOUS
10
163.6576469999999972
20
-200.1414699999999982
11
167.0461139999999887
21
-199.2335329999999942
0
LINE
8
BLACK
6
CONTINUOUS
10
164.1925659999999993
20
-204.0696729999999945
11
161.8272079999999846
21
-204.7034689999999841
0
LINE
8
BLACK
6
CONTINUOUS
10
164.3414389999999798
20
-204.6252739999999903
11
164.1925659999999993
21
-204.0696729999999945
0
LINE
8
BLACK
6
CONTINUOUS
10
164.3414389999999798
20
-204.6252739999999903
11
164.9538119999999992
21
-204.978825999999998
0
LINE
8
BLACK
6
CONTINUOUS
10
164.9538119999999992
20
-204.978825999999998
11
167.3840809999999806
21
-204.327637999999979
0
LINE
8
BLACK
6
CONTINUOUS
10
167.0461139999999887
20
-199.2335329999999942
11
167.6584859999999821
21
-199.5870859999999993
0
LINE
8
BLACK
6
CONTINUOUS
10
167.9173059999999964
20
-200.5530119999999954
11
167.6584859999999821
21
-199.5870859999999993
0
LINE
8
BLACK
6
CONTINUOUS
10
169.2443810000000042
20
-205.3820859999999868
11
169.4255540000000053
21
-206.0582349999999963
0
LINE
8
BLACK
6
CONTINUOUS
10
169.4255540000000053
20
-206.0582349999999963
11
174.2242729999999824
21
-204.77242099999998
0
LINE
8
BLACK
6
CONTINUOUS
10
172.8763439999999889
20
-199.7418799999999806
11
168.5296779999999899
21
-200.906565999999998
0
LINE
8
BLACK
6
CONTINUOUS
10
173.2056659999999795
20
-200.9709239999999966
11
172.8763439999999889
21
-199.7418799999999806
0
LINE
8
BLACK
6
CONTINUOUS
10
173.2056659999999795
20
-200.9709239999999966
11
175.5710249999999917
21
-200.3371279999999786
0
LINE
8
BLACK
6
CONTINUOUS
10
173.9551019999999824
20
-203.7678579999999897
11
176.3204609999999946
21
-203.1340620000000001
0
LINE
8
BLACK
6
CONTINUOUS
10
174.2242729999999824
20
-204.77242099999998
11
173.9551019999999824
21
-203.7678579999999897
0
LINE
8
BLACK
6
CONTINUOUS
10
176.3204609999999946
20
-203.1340620000000001
11
175.5710249999999917
21
-200.3371279999999786
0
ARC
8
BLACK
10
167.8357010000000002
20
-205.6991019999999821
40
1.4439093211472802
50
12.68282242
51
108.22659744
0
ARC
8
BLACK
10
168.4002679999999827
20
-200.4236029999999857
40
0.5000002074689569
50
-165.00003076
51
-74.99994973
0
CIRCLE
8
BLACK
10
162.2043610000000058
20
-209.3093979999999874
40
0.5
0
CIRCLE
8
BLACK
10
167.5169530000000009
20
-207.8858929999999816
40
1.
0
CIRCLE
8
BLACK
10
172.829544999999996
20
-206.4623880000000042
40
0.5
0
LINE
8
BLACK
6
CONTINUOUS
10
94.3264799999999894
20
-194.2349189999999908
11
93.9485289999999935
21
-197.1057459999999821
0
LINE
8
BLACK
6
CONTINUOUS
10
96.3012999999999977
20
-197.9956579999999917
11
96.376379
21
-197.4253789999999924
0
LINE
8
BLACK
6
CONTINUOUS
10
96.3012999999999977
20
-197.9956579999999917
11
96.7317599999999942
21
-198.5566399999999874
0
LINE
8
BLACK
6
CONTINUOUS
10
96.376379
20
-197.4253789999999924
11
93.9485289999999935
21
-197.1057459999999821
0
LINE
8
BLACK
6
CONTINUOUS
10
96.7317599999999942
20
-198.5566399999999874
11
99.2262349999999884
21
-198.8850469999999859
0
LINE
8
BLACK
6
CONTINUOUS
10
96.7543309999999934
20
-194.5545510000000036
11
94.3264799999999894
21
-194.2349189999999908
0
LINE
8
BLACK
6
CONTINUOUS
10
96.7543309999999934
20
-194.5545510000000036
11
96.8244490000000013
21
-194.0219469999999831
0
LINE
8
BLACK
6
CONTINUOUS
10
96.8244490000000013
20
-194.0219469999999831
11
97.3854350000000011
21
-193.5914879999999982
0
LINE
8
BLACK
6
CONTINUOUS
10
97.3854350000000011
20
-193.5914879999999982
11
100.8634229999999974
21
-194.0493730000000028
0
LINE
8
BLACK
6
CONTINUOUS
10
100.4500389999999896
20
-201.2651479999999822
11
105.3755369999999942
21
-201.9136019999999974
0
LINE
8
BLACK
6
CONTINUOUS
10
100.5414079999999899
20
-200.5711369999999931
11
100.4500389999999896
21
-201.2651479999999822
0
LINE
8
BLACK
6
CONTINUOUS
10
100.8634229999999974
20
-194.0493730000000028
11
101.2938829999999939
21
-194.6103589999999883
0
LINE
8
BLACK
6
CONTINUOUS
10
101.1633559999999932
20
-195.6018039999999871
11
101.2938829999999939
21
-194.6103589999999883
0
LINE
8
BLACK
6
CONTINUOUS
10
105.3755369999999942
20
-201.9136019999999974
11
105.5112819999999942
21
-200.8824989999999957
0
LINE
8
BLACK
6
CONTINUOUS
10
105.5112819999999942
20
-200.8824989999999957
11
107.9391349999999932
21
-201.2021319999999776
0
LINE
8
BLACK
6
CONTINUOUS
10
105.8892359999999968
20
-198.0116720000000043
11
106.0553179999999998
21
-196.7501570000000015
0
LINE
8
BLACK
6
CONTINUOUS
10
105.8892359999999968
20
-198.0116720000000043
11
108.3170859999999891
21
-198.3313039999999887
0
LINE
8
BLACK
6
CONTINUOUS
10
106.0553179999999998
20
-196.7501570000000015
11
101.5938159999999897
21
-196.1627890000000036
0
LINE
8
BLACK
6
CONTINUOUS
10
107.9391349999999932
20
-201.2021319999999776
11
108.3170859999999891
21
-198.3313039999999887
0
ARC
8
BLACK
10
99.1186399999999992
20
-200.324941999999993
40
1.4439093790989792
50
-9.81721633
51
85.72656086
0
ARC
8
BLACK
10
101.6590789999999913
20
-195.667067000000003
40
0.4999995604528068
50
-187.49998057
51
-97.49999552
0
CIRCLE
8
BLACK
10
92.5343599999999924
20
-201.5053999999999803
40
0.500001
0
CIRCLE
8
BLACK
10
97.9873070000000013
20
-202.2232939999999815
40
1.
0
CIRCLE
8
BLACK
10
103.4402539999999959
20
-202.9411879999999826
40
0.5
0
LINE
8
BLACK
6
CONTINUOUS
10
241.6577389999999923
20
-175.3884740000000022
11
241.55668399999999
21
-178.2823099999999954
0
LINE
8
BLACK
6
CONTINUOUS
10
243.983918999999986
20
-178.9426220000000001
11
244.0039919999999825
21
-178.3677720000000022
0
LINE
8
BLACK
6
CONTINUOUS
10
243.983918999999986
20
-178.9426220000000001
11
244.466163999999992
21
-179.4597660000000019
0
LINE
8
BLACK
6
CONTINUOUS
10
244.0039919999999825
20
-178.3677720000000022
11
241.55668399999999
21
-178.2823099999999954
0
LINE
8
BLACK
6
CONTINUOUS
10
244.1050469999999848
20
-175.4739359999999806
11
241.6577389999999923
21
-175.3884740000000022
0
LINE
8
BLACK
6
CONTINUOUS
10
244.1050469999999848
20
-175.4739359999999806
11
244.1237950000000012
21
-174.9370629999999949
0
LINE
8
BLACK
6
CONTINUOUS
10
244.1237950000000012
20
-174.9370629999999949
11
244.640940999999998
21
-174.4548169999999914
0
LINE
8
BLACK
6
CONTINUOUS
10
244.466163999999992
20
-179.4597660000000019
11
246.9806309999999883
21
-179.5475739999999973
0
LINE
8
BLACK
6
CONTINUOUS
10
244.640940999999998
20
-174.4548169999999914
11
248.1468039999999746
21
-174.5772450000000049
0
LINE
8
BLACK
6
CONTINUOUS
10
248.1468039999999746
20
-174.5772450000000049
11
248.6290489999999807
21
-175.0943900000000042
0
LINE
8
BLACK
6
CONTINUOUS
10
248.4269239999999854
20
-181.7994199999999978
11
253.3918970000000002
21
-181.9728020000000015
0
LINE
8
BLACK
6
CONTINUOUS
10
248.4513539999999807
20
-181.0998469999999827
11
248.4269239999999854
21
-181.7994199999999978
0
LINE
8
BLACK
6
CONTINUOUS
10
248.5941499999999849
20
-176.0937809999999786
11
248.6290489999999807
21
-175.0943900000000042
0
LINE
8
BLACK
6
CONTINUOUS
10
253.3918970000000002
20
-181.9728020000000015
11
253.4281929999999932
21
-180.9334350000000029
0
LINE
8
BLACK
6
CONTINUOUS
10
253.4281929999999932
20
-180.9334350000000029
11
255.8755009999999857
21
-181.0188969999999813
0
LINE
8
BLACK
6
CONTINUOUS
10
253.5292479999999955
20
-178.0395989999999813
11
253.5736550000000022
21
-176.7679739999999811
0
LINE
8
BLACK
6
CONTINUOUS
10
253.5292479999999955
20
-178.0395989999999813
11
255.976555999999988
21
-178.1250609999999881
0
LINE
8
BLACK
6
CONTINUOUS
10
253.5736550000000022
20
-176.7679739999999811
11
249.0763899999999751
21
-176.6109259999999779
0
LINE
8
BLACK
6
CONTINUOUS
10
255.8755009999999857
20
-181.0188969999999813
11
255.976555999999988
21
-178.1250609999999881
0
ARC
8
BLACK
10
247.0115399999999966
20
-180.9911519999999996
40
1.4439088642864548
50
-4.31720636
51
91.22659440
0
ARC
8
BLACK
10
249.0938449999999875
20
-176.1112310000000036
40
0.4999997700499471
50
-182.00003047
51
-92.00060308
0
CIRCLE
8
BLACK
10
240.5707139999999811
20
-182.7972509999999886
40
0.500001
0
CIRCLE
8
BLACK
10
246.0673639999999978
20
-182.9891979999999876
40
1.
0
CIRCLE
8
BLACK
10
251.564013999999986
20
-183.1811449999999866
40
0.5
0
LINE
8
BLACK
6
CONTINUOUS
10
101.9560049999999904
20
-162.5601130000000012
11
101.9560049999999904
21
-166.7417130000000043
0
LINE
8
BLACK
6
CONTINUOUS
10
102.4560049999999904
20
-167.2417130000000043
11
103.4880050000000011
21
-167.2417130000000043
0
LINE
8
BLACK
6
CONTINUOUS
10
103.4880050000000011
20
-162.0601130000000012
11
102.4560049999999904
21
-162.0601130000000012
0
LINE
8
BLACK
6
CONTINUOUS
10
103.9880050000000011
20
-166.7417130000000043
11
103.9880050000000011
21
-162.5601130000000012
0
ARC
8
BLACK
10
102.4560049999999904
20
-162.5601130000000012
40
0.5
50
90.00000000
51
180.00000000
0
ARC
8
BLACK
10
102.4560060000000021
20
-166.7417119999999784
40
0.500001000001
50
-179.99988541
51
-90.00011459
0
ARC
8
BLACK
10
103.4880050000000011
20
-162.5601130000000012
40
0.5
50
0.00000000
51
90.00000000
0
ARC
8
BLACK
10
103.4880039999999894
20
-166.7417119999999784
40
0.500001000001
50
-89.99988541
51
-0.00011459
0
LINE
8
BLACK
6
CONTINUOUS
10
109.7048719999999946
20
-157.7309939999999813
11
109.5533279999999934
21
-160.6226259999999968
0
LINE
8
BLACK
6
CONTINUOUS
10
111.9686679999999939
20
-161.3251980000000003
11
111.9987719999999882
21
-160.7507860000000051
0
LINE
8
BLACK
6
CONTINUOUS
10
111.9686679999999939
20
-161.3251980000000003
11
112.4418149999999912
21
-161.8506809999999803
0
LINE
8
BLACK
6
CONTINUOUS
10
111.9987719999999882
20
-160.7507860000000051
11
109.5533279999999934
21
-160.6226259999999968
0
LINE
8
BLACK
6
CONTINUOUS
10
112.1503159999999895
20
-157.859154999999987
11
109.7048719999999946
21
-157.7309939999999813
0
LINE
8
BLACK
6
CONTINUOUS
10
112.1503159999999895
20
-157.859154999999987
11
112.1784309999999891
21
-157.3226909999999918
0
LINE
8
BLACK
6
CONTINUOUS
10
112.1784309999999891
20
-157.3226909999999918
11
112.703913
21
-156.8495439999999803
0
LINE
8
BLACK
6
CONTINUOUS
10
112.4418149999999912
20
-161.8506809999999803
11
114.9543669999999906
21
-161.9823580000000049
0
LINE
8
BLACK
6
CONTINUOUS
10
112.703913
20
-156.8495439999999803
11
116.207105999999996
21
-157.0331379999999797
0
LINE
8
BLACK
6
CONTINUOUS
10
116.207105999999996
20
-157.0331379999999797
11
116.6802529999999933
21
-157.558620999999988
0
LINE
8
BLACK
6
CONTINUOUS
10
116.3611389999999943
20
-164.2591029999999819
11
121.3223309999999913
21
-164.5191079999999886
0
LINE
8
BLACK
6
CONTINUOUS
10
116.3977739999999983
20
-163.5600619999999878
11
116.3611389999999943
21
-164.2591029999999819
0
LINE
8
BLACK
6
CONTINUOUS
10
116.6279169999999965
20
-158.5572509999999795
11
116.6802529999999933
21
-157.558620999999988
0
LINE
8
BLACK
6
CONTINUOUS
10
121.3223309999999913
20
-164.5191079999999886
11
121.3767599999999902
21
-163.4805329999999799
0
LINE
8
BLACK
6
CONTINUOUS
10
121.3767599999999902
20
-163.4805329999999799
11
123.8222039999999993
21
-163.6086929999999882
0
LINE
8
BLACK
6
CONTINUOUS
10
121.5283039999999914
20
-160.5889019999999903
11
121.5948959999999914
21
-159.3182449999999903
0
LINE
8
BLACK
6
CONTINUOUS
10
121.5283039999999914
20
-160.5889019999999903
11
123.9737480000000005
21
-160.7170619999999985
0
LINE
8
BLACK
6
CONTINUOUS
10
121.5948959999999914
20
-159.3182449999999903
11
117.1010629999999964
21
-159.0827329999999904
0
LINE
8
BLACK
6
CONTINUOUS
10
123.8222039999999993
20
-163.6086929999999882
11
123.9737480000000005
21
-160.7170619999999985
0
ARC
8
BLACK
10
114.9600769999999983
20
-163.4262559999999951
40
1.4439092902616839
50
-5.31718276
51
90.22657916
0
ARC
8
BLACK
10
117.1272309999999948
20
-158.5834189999999921
40
0.4999992348194145
50
-183.00000711
51
-93.00000711
0
CIRCLE
8
BLACK
10
108.4887119999999925
20
-165.1196709999999825
40
0.499999
0
CIRCLE
8
BLACK
10
113.9811739999999958
20
-165.4075189999999793
40
1.
0
CIRCLE
8
BLACK
10
119.4736359999999991
20
-165.6953670000000045
40
0.5
0
LINE
8
BLACK
6
CONTINUOUS
10
104.7302660000000003
20
-150.213942000000003
11
104.5787219999999991
21
-153.1055729999999926
0
LINE
8
BLACK
6
CONTINUOUS
10
106.9575739999999939
20
-154.5043900000000008
11
111.451406999999989
21
-154.7399020000000007
0
LINE
8
BLACK
6
CONTINUOUS
10
107.0241659999999939
20
-153.2337330000000009
11
104.5787219999999991
21
-153.1055729999999926
0
LINE
8
BLACK
6
CONTINUOUS
10
107.0241659999999939
20
-153.2337330000000009
11
106.9575739999999939
21
-154.5043900000000008
0
LINE
8
BLACK
6
CONTINUOUS
10
107.1757099999999951
20
-150.3421019999999828
11
104.7302660000000003
21
-150.213942000000003
0
LINE
8
BLACK
6
CONTINUOUS
10
107.2301389999999941
20
-149.3035270000000025
11
107.1757099999999951
21
-150.3421019999999828
0
LINE
8
BLACK
6
CONTINUOUS
10
111.9245529999999889
20
-155.2653839999999832
11
111.872216999999992
21
-156.2640140000000031
0
LINE
8
BLACK
6
CONTINUOUS
10
112.1546960000000013
20
-150.2625730000000033
11
112.191330999999991
21
-149.5635319999999808
0
LINE
8
BLACK
6
CONTINUOUS
10
112.191330999999991
20
-149.5635319999999808
11
107.2301389999999941
21
-149.3035270000000025
0
LINE
8
BLACK
6
CONTINUOUS
10
112.3453639999999893
20
-156.789496999999983
11
111.872216999999992
21
-156.2640140000000031
0
LINE
8
BLACK
6
CONTINUOUS
10
115.8485569999999996
20
-156.9730909999999824
11
112.3453639999999893
21
-156.789496999999983
0
LINE
8
BLACK
6
CONTINUOUS
10
116.1106549999999942
20
-151.9719539999999824
11
113.5981029999999947
21
-151.8402769999999862
0
LINE
8
BLACK
6
CONTINUOUS
10
116.3740389999999962
20
-156.4999439999999993
11
115.8485569999999996
21
-156.9730909999999824
0
LINE
8
BLACK
6
CONTINUOUS
10
116.4021539999999959
20
-155.9634800000000041
11
116.3740389999999962
21
-156.4999439999999993
0
LINE
8
BLACK
6
CONTINUOUS
10
116.4021539999999959
20
-155.9634800000000041
11
118.8475979999999907
21
-156.0916409999999814
0
LINE
8
BLACK
6
CONTINUOUS
10
116.5536979999999971
20
-153.0718489999999861
11
118.999141999999992
21
-153.2000089999999943
0
LINE
8
BLACK
6
CONTINUOUS
10
116.5838019999999915
20
-152.4974369999999908
11
116.1106549999999942
21
-151.9719539999999824
0
LINE
8
BLACK
6
CONTINUOUS
10
116.5838019999999915
20
-152.4974369999999908
11
116.5536979999999971
21
-153.0718489999999861
0
LINE
8
BLACK
6
CONTINUOUS
10
118.8475979999999907
20
-156.0916409999999814
11
118.999141999999992
21
-153.2000089999999943
0
ARC
8
BLACK
10
111.4252389999999906
20
-155.239215999999999
40
0.4999992348194145
50
-3.00000711
51
86.99999289
0
ARC
8
BLACK
10
113.5923930000000013
20
-150.396378999999996
40
1.4439092902616839
50
-185.31718276
51
-89.77342084
0
CIRCLE
8
BLACK
10
109.0788340000000005
20
-148.1272679999999866
40
0.5
0
CIRCLE
8
BLACK
10
114.5712959999999896
20
-148.4151159999999834
40
1.
0
CIRCLE
8
BLACK
10
120.0637579999999929
20
-148.7029639999999802
40
0.499999
0
LINE
8
BLACK
6
CONTINUOUS
10
83.3753639999999905
20
-174.3122779999999921
11
83.3753639999999905
21
-178.4938779999999952
0
LINE
8
BLACK
6
CONTINUOUS
10
83.8753639999999905
20
-178.9938779999999952
11
84.9073640000000012
21
-178.9938779999999952
0
LINE
8
BLACK
6
CONTINUOUS
10
84.9073640000000012
20
-173.8122779999999921
11
83.8753639999999905
21
-173.8122779999999921
0
LINE
8
BLACK
6
CONTINUOUS
10
85.4073640000000012
20
-178.4938779999999952
11
85.4073640000000012
21
-174.3122779999999921
0
ARC
8
BLACK
10
83.8753639999999905
20
-174.3122779999999921
40
0.5
50
90.00000000
51
180.00000000
0
ARC
8
BLACK
10
83.8753650000000022
20
-178.4938769999999977
40
0.500001000001
50
-179.99988541
51
-90.00011459
0
ARC
8
BLACK
10
84.9073640000000012
20
-174.3122779999999921
40
0.5
50
0.00000000
51
90.00000000
0
ARC
8
BLACK
10
84.9073629999999895
20
-178.4938769999999977
40
0.500001000001
50
-89.99988541
51
-0.00011459
0
LINE
8
BLACK
6
CONTINUOUS
10
160.7371409999999798
20
-153.0554759999999987
11
160.8886849999999811
21
-155.9471069999999884
0
LINE
8
BLACK
6
CONTINUOUS
10
163.1281549999999925
20
-151.8887399999999843
11
163.1825849999999889
21
-152.927314999999993
0
LINE
8
BLACK
6
CONTINUOUS
10
163.1825849999999889
20
-152.927314999999993
11
160.7371409999999798
21
-153.0554759999999987
0
LINE
8
BLACK
6
CONTINUOUS
10
163.3341289999999901
20
-155.8189459999999826
11
160.8886849999999811
21
-155.9471069999999884
0
LINE
8
BLACK
6
CONTINUOUS
10
163.3341289999999901
20
-155.8189459999999826
11
163.4007210000000043
21
-157.0896029999999826
0
LINE
8
BLACK
6
CONTINUOUS
10
163.4007210000000043
20
-157.0896029999999826
11
167.8945539999999994
21
-156.8540909999999826
0
LINE
8
BLACK
6
CONTINUOUS
10
168.0893470000000036
20
-151.628735000000006
11
163.1281549999999925
21
-151.8887399999999843
0
LINE
8
BLACK
6
CONTINUOUS
10
168.1259819999999934
20
-152.3277760000000001
11
168.0893470000000036
21
-151.628735000000006
0
LINE
8
BLACK
6
CONTINUOUS
10
168.4200349999999844
20
-157.3272369999999967
11
168.4723719999999787
21
-158.3258669999999881
0
LINE
8
BLACK
6
CONTINUOUS
10
168.9978549999999871
20
-158.7990149999999971
11
168.4723719999999787
21
-158.3258669999999881
0
LINE
8
BLACK
6
CONTINUOUS
10
172.238948999999991
20
-153.6142820000000029
11
169.7263969999999915
21
-153.7459599999999966
0
LINE
8
BLACK
6
CONTINUOUS
10
172.5010479999999973
20
-158.6154190000000028
11
168.9978549999999871
21
-158.7990149999999971
0
LINE
8
BLACK
6
CONTINUOUS
10
172.7644319999999993
20
-154.087428999999986
11
172.238948999999991
21
-153.6142820000000029
0
LINE
8
BLACK
6
CONTINUOUS
10
172.7644319999999993
20
-154.087428999999986
11
172.7945349999999962
21
-154.6618409999999812
0
LINE
8
BLACK
6
CONTINUOUS
10
172.7945349999999962
20
-154.6618409999999812
11
175.2399790000000053
21
-154.5336810000000014
0
LINE
8
BLACK
6
CONTINUOUS
10
172.9460789999999974
20
-157.5534719999999993
11
172.9741939999999829
21
-158.0899369999999919
0
LINE
8
BLACK
6
CONTINUOUS
10
172.9460789999999974
20
-157.5534719999999993
11
175.3915229999999781
21
-157.4253129999999885
0
LINE
8
BLACK
6
CONTINUOUS
10
172.9741939999999829
20
-158.0899369999999919
11
172.5010479999999973
21
-158.6154190000000028
0
LINE
8
BLACK
6
CONTINUOUS
10
175.3915229999999781
20
-157.4253129999999885
11
175.2399790000000053
21
-154.5336810000000014
0
ARC
8
BLACK
10
167.9207219999999836
20
-157.3534060000000068
40
0.5000002334489455
50
3.00012754
51
93.00000111
0
ARC
8
BLACK
10
169.5697899999999834
20
-152.3105689999999868
40
1.4439089567316907
50
-179.31719328
51
-83.77342575
0
CIRCLE
8
BLACK
10
164.8437700000000063
20
-150.5256829999999866
40
0.5
0
CIRCLE
8
BLACK
10
170.3362319999999954
20
-150.2378359999999873
40
1.
0
CIRCLE
8
BLACK
10
175.8286939999999845
20
-149.949988999999988
40
0.499999
0
LINE
8
BLACK
6
CONTINUOUS
10
46.0801960000000008
20
-87.9179170000000028
11
32.0887249999999966
21
-88.4065099999999973
0
LINE
8
BLACK
6
CONTINUOUS
10
32.0887249999999966
20
-88.4065099999999973
11
31.6001319999999986
21
-74.4150389999999931
0
LINE
8
BLACK
6
CONTINUOUS
10
31.6001319999999986
20
-74.4150389999999931
11
45.5916029999999992
21
-73.9264459999999985
0
LINE
8
BLACK
6
CONTINUOUS
10
45.5916029999999992
20
-73.9264459999999985
11
46.0801960000000008
21
-87.9179170000000028
0
LINE
8
BLACK
6
CONTINUOUS
10
103.51764399999999
20
-35.7794949999999972
11
102.7849409999999892
21
-49.7603079999999949
0
LINE
8
BLACK
6
CONTINUOUS
10
102.7849409999999892
20
-49.7603079999999949
11
88.8041279999999915
21
-49.0276050000000012
0
LINE
8
BLACK
6
CONTINUOUS
10
88.8041279999999915
20
-49.0276050000000012
11
89.5368309999999923
21
-35.0467919999999964
0
LINE
8
BLACK
6
CONTINUOUS
10
89.5368309999999923
20
-35.0467919999999964
11
103.51764399999999
21
-35.7794949999999972
0
LINE
8
BLACK
6
CONTINUOUS
10
65.4397639999999967
20
-142.4432779999999923
11
65.4397639999999967
21
-146.6248779999999954
0
LINE
8
BLACK
6
CONTINUOUS
10
65.9397639999999967
20
-147.1248779999999954
11
66.9717639999999932
21
-147.1248779999999954
0
LINE
8
BLACK
6
CONTINUOUS
10
66.9717639999999932
20
-141.9432779999999923
11
65.9397639999999967
21
-141.9432779999999923
0
LINE
8
BLACK
6
CONTINUOUS
10
67.4717639999999932
20
-146.6248779999999954
11
67.4717639999999932
21
-142.4432779999999923
0
ARC
8
BLACK
10
65.9397639999999967
20
-142.4432779999999923
40
0.5
50
90.00000000
51
180.00000000
0
ARC
8
BLACK
10
65.9397649999999942
20
-146.6248769999999979
40
0.500001000001
50
-179.99988541
51
-90.00011459
0
ARC
8
BLACK
10
66.9717639999999932
20
-142.4432779999999923
40
0.5
50
0.00000000
51
90.00000000
0
ARC
8
BLACK
10
66.9717629999999957
20
-146.6248769999999979
40
0.500001000001
50
-89.99988541
51
-0.00011459
0
LINE
8
BLACK
6
CONTINUOUS
10
125.9637889999999913
20
-101.1134259999999898
11
122.3403220000000005
21
-114.6363869999999991
0
LINE
8
BLACK
6
CONTINUOUS
10
122.3403220000000005
20
-114.6363869999999991
11
108.8173609999999911
21
-111.012919999999994
0
LINE
8
BLACK
6
CONTINUOUS
10
108.8173609999999911
20
-111.012919999999994
11
112.4408279999999962
21
-97.4899589999999989
0
LINE
8
BLACK
6
CONTINUOUS
10
112.4408279999999962
20
-97.4899589999999989
11
125.9637889999999913
21
-101.1134259999999898
0
CIRCLE
8
BLACK
10
37.0724579999999975
20
-194.7935459999999921
40
0.7749999999999999
0
CIRCLE
8
BLACK
10
37.3494090000000014
20
-197.3446209999999894
40
0.5
0
CIRCLE
8
BLACK
10
38.651016999999996
20
-207.2313089999999818
40
0.5
0
CIRCLE
8
BLACK
10
39.0437429999999992
20
-209.7669410000000028
40
0.7749999999999999
0
CIRCLE
8
BLACK
10
39.1021769999999975
20
-197.1138650000000041
40
0.500001
0
CIRCLE
8
BLACK
10
39.5907279999999986
20
-194.4620089999999948
40
0.7749999999999999
0
CIRCLE
8
BLACK
10
40.4037840000000017
20
-207.0005529999999965
40
0.5
0
CIRCLE
8
BLACK
10
40.7742560000000012
20
-196.8937310000000025
40
0.5
0
CIRCLE
8
BLACK
10
41.5620130000000003
20
-209.435403999999977
40
0.774999
0
CIRCLE
8
BLACK
10
42.0758639999999957
20
-206.7804199999999923
40
0.500001
0
CIRCLE
8
BLACK
10
42.1089979999999997
20
-194.130472999999995
40
0.7749999999999999
0
CIRCLE
8
BLACK
10
44.0802830000000014
20
-209.1038679999999772
40
0.7749999999999999
0
CIRCLE
8
BLACK
10
44.6272680000000008
20
-193.7989359999999976
40
0.7749999999999999
0
CIRCLE
8
BLACK
10
46.5662769999999995
20
-196.131196999999986
40
0.5
0
CIRCLE
8
BLACK
10
46.5985529999999954
20
-208.7723309999999799
40
0.7749999999999999
0
CIRCLE
8
BLACK
10
47.1455379999999948
20
-193.4674009999999953
40
0.7750009999999999
0
CIRCLE
8
BLACK
10
47.8678859999999986
20
-206.0178849999999784
40
0.5
0
CIRCLE
8
BLACK
10
48.3190449999999956
20
-195.9004410000000007
40
0.5
0
CIRCLE
8
BLACK
10
49.1168229999999966
20
-208.4407949999999801
40
0.7749999999999999
0
CIRCLE
8
BLACK
10
49.6206519999999998
20
-205.7871289999999931
40
0.5
0
CIRCLE
8
BLACK
10
49.663807999999996
20
-193.1358630000000005
40
0.7749999999999999
0
CIRCLE
8
BLACK
10
49.9911239999999992
20
-195.6803079999999966
40
0.500001
0
CIRCLE
8
BLACK
10
51.2927320000000009
20
-205.566995999999989
40
0.500001
0
CIRCLE
8
BLACK
10
51.6350920000000002
20
-208.1092579999999828
40
0.7749999999999999
0
CIRCLE
8
BLACK
10
52.0057399999999959
20
-195.4150779999999941
40
0.5
0
CIRCLE
8
BLACK
10
52.1820809999999966
20
-192.8043260000000032
40
0.7749999999999999
0
CIRCLE
8
BLACK
10
53.3073479999999975
20
-205.3017669999999839
40
0.500001
0
CIRCLE
8
BLACK
10
54.1533619999999942
20
-207.7777219999999829
40
0.7749999999999999
0
LINE
8
BLACK
6
CONTINUOUS
10
53.2677639999999997
20
-169.9244779999999935
11
53.2677639999999997
21
-172.8200779999999952
0
LINE
8
BLACK
6
CONTINUOUS
10
55.7165639999999982
20
-169.3872779999999807
11
56.2165639999999982
21
-168.8872779999999807
0
LINE
8
BLACK
6
CONTINUOUS
10
55.7165639999999982
20
-169.9244779999999935
11
53.2677639999999997
21
-169.9244779999999935
0
LINE
8
BLACK
6
CONTINUOUS
10
55.7165639999999982
20
-169.9244779999999935
11
55.7165639999999982
21
-169.3872779999999807
0
LINE
8
BLACK
6
CONTINUOUS
10
55.7165639999999982
20
-172.8200779999999952
11
53.2677639999999997
21
-172.8200779999999952
0
LINE
8
BLACK
6
CONTINUOUS
10
55.7165639999999982
20
-173.3952779999999905
11
55.7165639999999982
21
-172.8200779999999952
0
LINE
8
BLACK
6
CONTINUOUS
10
55.7165639999999982
20
-173.3952779999999905
11
56.2165639999999982
21
-173.8952779999999905
0
LINE
8
BLACK
6
CONTINUOUS
10
56.2165639999999982
20
-168.8872779999999807
11
59.7245639999999938
21
-168.8872779999999807
0
LINE
8
BLACK
6
CONTINUOUS
10
56.2165639999999982
20
-173.8952779999999905
11
58.7325639999999964
21
-173.8952779999999905
0
LINE
8
BLACK
6
CONTINUOUS
10
59.7245639999999938
20
-168.8872779999999807
11
60.2245639999999938
21
-169.3872779999999807
0
LINE
8
BLACK
6
CONTINUOUS
10
60.2245639999999938
20
-170.3872779999999807
11
60.2245639999999938
21
-169.3872779999999807
0
LINE
8
BLACK
6
CONTINUOUS
10
60.2565639999999973
20
-175.3952779999999905
11
60.2565639999999973
21
-176.0952779999999791
0
LINE
8
BLACK
6
CONTINUOUS
10
60.2565639999999973
20
-176.0952779999999791
11
65.2245640000000009
21
-176.0952779999999791
0
LINE
8
BLACK
6
CONTINUOUS
10
65.2245640000000009
20
-170.8872779999999807
11
60.7245639999999938
21
-170.8872779999999807
0
LINE
8
BLACK
6
CONTINUOUS
10
65.2245640000000009
20
-172.1596779999999853
11
65.2245640000000009
21
-170.8872779999999807
0
LINE
8
BLACK
6
CONTINUOUS
10
65.2245640000000009
20
-172.1596779999999853
11
67.6733639999999923
21
-172.1596779999999853
0
LINE
8
BLACK
6
CONTINUOUS
10
65.2245640000000009
20
-175.0552779999999871
11
67.6733639999999923
21
-175.0552779999999871
0
LINE
8
BLACK
6
CONTINUOUS
10
65.2245640000000009
20
-176.0952779999999791
11
65.2245640000000009
21
-175.0552779999999871
0
LINE
8
BLACK
6
CONTINUOUS
10
67.6733639999999923
20
-175.0552779999999871
11
67.6733639999999923
21
-172.1596779999999853
0
ARC
8
BLACK
10
58.8138339999999999
20
-175.3368979999999908
40
1.4439089435625778
50
-2.31720677
51
93.22658164
0
ARC
8
BLACK
10
60.7245639999999938
20
-170.3872779999999807
40
0.5
50
-180.00000000
51
-90.00000000
0
CIRCLE
8
BLACK
10
52.4399639999999962
20
-177.366677999999979
40
0.5
0
CIRCLE
8
BLACK
10
57.9399639999999962
20
-177.366677999999979
40
1.
0
CIRCLE
8
BLACK
10
63.4399639999999962
20
-177.366677999999979
40
0.5
0
LINE
8
BLACK
6
CONTINUOUS
10
108.9186619999999976
20
-174.7181630000000041
11
108.7671179999999964
21
-177.6097949999999912
0
LINE
8
BLACK
6
CONTINUOUS
10
111.1824579999999969
20
-178.3123669999999947
11
111.2125619999999913
21
-177.7379549999999995
0
LINE
8
BLACK
6
CONTINUOUS
10
111.1824579999999969
20
-178.3123669999999947
11
111.6556049999999942
21
-178.8378500000000031
0
LINE
8
BLACK
6
CONTINUOUS
10
111.2125619999999913
20
-177.7379549999999995
11
108.7671179999999964
21
-177.6097949999999912
0
LINE
8
BLACK
6
CONTINUOUS
10
111.3641059999999925
20
-174.8463239999999814
11
108.9186619999999976
21
-174.7181630000000041
0
LINE
8
BLACK
6
CONTINUOUS
10
111.3641059999999925
20
-174.8463239999999814
11
111.3922209999999922
21
-174.3098599999999863
0
LINE
8
BLACK
6
CONTINUOUS
10
111.3922209999999922
20
-174.3098599999999863
11
111.9177029999999888
21
-173.8367130000000031
0
LINE
8
BLACK
6
CONTINUOUS
10
111.6556049999999942
20
-178.8378500000000031
11
114.1681569999999937
21
-178.9695269999999994
0
LINE
8
BLACK
6
CONTINUOUS
10
111.9177029999999888
20
-173.8367130000000031
11
115.420895999999999
21
-174.0203070000000025
0
LINE
8
BLACK
6
CONTINUOUS
10
115.420895999999999
20
-174.0203070000000025
11
115.8940429999999964
21
-174.5457899999999825
0
LINE
8
BLACK
6
CONTINUOUS
10
115.5749289999999974
20
-181.2462720000000047
11
120.5361209999999943
21
-181.506276999999983
0
LINE
8
BLACK
6
CONTINUOUS
10
115.6115640000000013
20
-180.5472309999999823
11
115.5749289999999974
21
-181.2462720000000047
0
LINE
8
BLACK
6
CONTINUOUS
10
115.8417069999999995
20
-175.5444200000000023
11
115.8940429999999964
21
-174.5457899999999825
0
LINE
8
BLACK
6
CONTINUOUS
10
120.5361209999999943
20
-181.506276999999983
11
120.5905499999999932
21
-180.4677020000000027
0
LINE
8
BLACK
6
CONTINUOUS
10
120.5905499999999932
20
-180.4677020000000027
11
123.0359939999999881
21
-180.5958619999999826
0
LINE
8
BLACK
6
CONTINUOUS
10
120.7420939999999945
20
-177.5760709999999847
11
120.8086859999999945
21
-176.3054139999999848
0
LINE
8
BLACK
6
CONTINUOUS
10
120.7420939999999945
20
-177.5760709999999847
11
123.1875379999999893
21
-177.7042309999999929
0
LINE
8
BLACK
6
CONTINUOUS
10
120.8086859999999945
20
-176.3054139999999848
11
116.3148529999999994
21
-176.0699019999999848
0
LINE
8
BLACK
6
CONTINUOUS
10
123.0359939999999881
20
-180.5958619999999826
11
123.1875379999999893
21
-177.7042309999999929
0
ARC
8
BLACK
10
114.1738670000000013
20
-180.4134249999999895
40
1.4439092902616839
50
-5.31718276
51
90.22657916
0
ARC
8
BLACK
10
116.3410209999999978
20
-175.5705879999999866
40
0.4999992348194145
50
-183.00000711
51
-93.00000711
0
CIRCLE
8
BLACK
10
107.7025019999999955
20
-182.1068400000000054
40
0.499999
0
CIRCLE
8
BLACK
10
113.1949639999999988
20
-182.3946880000000021
40
1.
0
CIRCLE
8
BLACK
10
118.6874259999999879
20
-182.6825359999999989
40
0.5
0
LINE
8
BLACK
6
CONTINUOUS
10
222.295363999999978
20
-154.7471979999999974
11
222.295363999999978
21
-157.6427979999999991
0
LINE
8
BLACK
6
CONTINUOUS
10
224.7441639999999836
20
-154.2099979999999846
11
225.2441639999999836
21
-153.7099979999999846
0
LINE
8
BLACK
6
CONTINUOUS
10
224.7441639999999836
20
-154.7471979999999974
11
222.295363999999978
21
-154.7471979999999974
0
LINE
8
BLACK
6
CONTINUOUS
10
224.7441639999999836
20
-154.7471979999999974
11
224.7441639999999836
21
-154.2099979999999846
0
LINE
8
BLACK
6
CONTINUOUS
10
224.7441639999999836
20
-157.6427979999999991
11
222.295363999999978
21
-157.6427979999999991
0
LINE
8
BLACK
6
CONTINUOUS
10
224.7441639999999836
20
-158.2179979999999944
11
224.7441639999999836
21
-157.6427979999999991
0
LINE
8
BLACK
6
CONTINUOUS
10
224.7441639999999836
20
-158.2179979999999944
11
225.2441639999999836
21
-158.7179979999999944
0
LINE
8
BLACK
6
CONTINUOUS
10
225.2441639999999836
20
-153.7099979999999846
11
228.7521639999999934
21
-153.7099979999999846
0
LINE
8
BLACK
6
CONTINUOUS
10
225.2441639999999836
20
-158.7179979999999944
11
227.7601640000000032
21
-158.7179979999999944
0
LINE
8
BLACK
6
CONTINUOUS
10
228.7521639999999934
20
-153.7099979999999846
11
229.2521639999999934
21
-154.2099979999999846
0
LINE
8
BLACK
6
CONTINUOUS
10
229.2521639999999934
20
-155.2099979999999846
11
229.2521639999999934
21
-154.2099979999999846
0
LINE
8
BLACK
6
CONTINUOUS
10
229.2841639999999757
20
-160.2179979999999944
11
229.2841639999999757
21
-160.917997999999983
0
LINE
8
BLACK
6
CONTINUOUS
10
229.2841639999999757
20
-160.917997999999983
11
234.2521639999999934
21
-160.917997999999983
0
LINE
8
BLACK
6
CONTINUOUS
10
234.2521639999999934
20
-155.7099979999999846
11
229.7521639999999934
21
-155.7099979999999846
0
LINE
8
BLACK
6
CONTINUOUS
10
234.2521639999999934
20
-156.9823979999999892
11
234.2521639999999934
21
-155.7099979999999846
0
LINE
8
BLACK
6
CONTINUOUS
10
234.2521639999999934
20
-156.9823979999999892
11
236.700963999999999
21
-156.9823979999999892
0
LINE
8
BLACK
6
CONTINUOUS
10
234.2521639999999934
20
-159.877997999999991
11
236.700963999999999
21
-159.877997999999991
0
LINE
8
BLACK
6
CONTINUOUS
10
234.2521639999999934
20
-160.917997999999983
11
234.2521639999999934
21
-159.877997999999991
0
LINE
8
BLACK
6
CONTINUOUS
10
236.700963999999999
20
-159.877997999999991
11
236.700963999999999
21
-156.9823979999999892
0
ARC
8
BLACK
10
227.8414339999999925
20
-160.1596179999999947
40
1.4439089435625778
50
-2.31720677
51
93.22658164
0
ARC
8
BLACK
10
229.7521639999999934
20
-155.2099979999999846
40
0.5
50
-180.00000000
51
-90.00000000
0
CIRCLE
8
BLACK
10
221.4675639999999817
20
-162.1893979999999829
40
0.5
0
CIRCLE
8
BLACK
10
226.9675639999999817
20
-162.1893979999999829
40
1.
0
CIRCLE
8
BLACK
10
232.4675639999999817
20
-162.1893979999999829
40
0.5
0
LINE
8
BLACK
6
CONTINUOUS
10
69.2397639999999939
20
-33.566677999999996
11
83.2397639999999939
21
-33.566677999999996
0
LINE
8
BLACK
6
CONTINUOUS
10
83.2397639999999939
20
-33.566677999999996
11
83.2397639999999939
21
-47.566677999999996
0
LINE
8
BLACK
6
CONTINUOUS
10
83.2397639999999939
20
-47.566677999999996
11
69.2397639999999939
21
-47.566677999999996
0
LINE
8
BLACK
6
CONTINUOUS
10
69.2397639999999939
20
-47.566677999999996
11
69.2397639999999939
21
-33.566677999999996
0
LINE
8
BLACK
6
CONTINUOUS
10
91.0039179999999988
20
-168.7277320000000032
11
90.8523739999999975
21
-171.6193639999999903
0
LINE
8
BLACK
6
CONTINUOUS
10
93.267713999999998
20
-172.3219359999999938
11
93.2978179999999924
21
-171.7475239999999985
0
LINE
8
BLACK
6
CONTINUOUS
10
93.267713999999998
20
-172.3219359999999938
11
93.7408609999999953
21
-172.8474190000000021
0
LINE
8
BLACK
6
CONTINUOUS
10
93.2978179999999924
20
-171.7475239999999985
11
90.8523739999999975
21
-171.6193639999999903
0
LINE
8
BLACK
6
CONTINUOUS
10
93.4493619999999936
20
-168.8558929999999805
11
91.0039179999999988
21
-168.7277320000000032
0
LINE
8
BLACK
6
CONTINUOUS
10
93.4493619999999936
20
-168.8558929999999805
11
93.4774769999999933
21
-168.3194289999999853
0
LINE
8
BLACK
6
CONTINUOUS
10
93.4774769999999933
20
-168.3194289999999853
11
94.0029589999999899
21
-167.8462820000000022
0
LINE
8
BLACK
6
CONTINUOUS
10
93.7408609999999953
20
-172.8474190000000021
11
96.2534129999999948
21
-172.9790959999999984
0
LINE
8
BLACK
6
CONTINUOUS
10
94.0029589999999899
20
-167.8462820000000022
11
97.5061520000000002
21
-168.0298760000000016
0
LINE
8
BLACK
6
CONTINUOUS
10
97.5061520000000002
20
-168.0298760000000016
11
97.9792989999999975
21
-168.5553589999999815
0
LINE
8
BLACK
6
CONTINUOUS
10
97.6601849999999985
20
-175.2558410000000038
11
102.6213769999999954
21
-175.515845999999982
0
LINE
8
BLACK
6
CONTINUOUS
10
97.6968200000000024
20
-174.5567999999999813
11
97.6601849999999985
21
-175.2558410000000038
0
LINE
8
BLACK
6
CONTINUOUS
10
97.9269630000000006
20
-169.5539890000000014
11
97.9792989999999975
21
-168.5553589999999815
0
LINE
8
BLACK
6
CONTINUOUS
10
102.6213769999999954
20
-175.515845999999982
11
102.6758059999999944
21
-174.4772710000000018
0
LINE
8
BLACK
6
CONTINUOUS
10
102.6758059999999944
20
-174.4772710000000018
11
105.1212499999999892
21
-174.6054309999999816
0
LINE
8
BLACK
6
CONTINUOUS
10
102.8273499999999956
20
-171.5856399999999837
11
102.8939419999999956
21
-170.3149829999999838
0
LINE
8
BLACK
6
CONTINUOUS
10
102.8273499999999956
20
-171.5856399999999837
11
105.2727939999999904
21
-171.713799999999992
0
LINE
8
BLACK
6
CONTINUOUS
10
102.8939419999999956
20
-170.3149829999999838
11
98.4001090000000005
21
-170.0794709999999839
0
LINE
8
BLACK
6
CONTINUOUS
10
105.1212499999999892
20
-174.6054309999999816
11
105.2727939999999904
21
-171.713799999999992
0
ARC
8
BLACK
10
96.2591230000000024
20
-174.4229939999999885
40
1.4439092902616839
50
-5.31718276
51
90.22657916
0
ARC
8
BLACK
10
98.4262769999999989
20
-169.5801569999999856
40
0.4999992348194145
50
-183.00000711
51
-93.00000711
0
CIRCLE
8
BLACK
10
89.7877579999999966
20
-176.1164090000000044
40
0.499999
0
CIRCLE
8
BLACK
10
95.2802199999999999
20
-176.4042570000000012
40
1.
0
CIRCLE
8
BLACK
10
100.772681999999989
20
-176.692104999999998
40
0.5
0
LINE
8
BLACK
6
CONTINUOUS
10
46.6282339999999991
20
-163.0554949999999792
11
46.6282339999999991
21
-167.2370949999999823
0
LINE
8
BLACK
6
CONTINUOUS
10
47.1282339999999991
20
-167.7370949999999823
11
48.1602339999999955
21
-167.7370949999999823
0
LINE
8
BLACK
6
CONTINUOUS
10
48.1602339999999955
20
-162.5554949999999792
11
47.1282339999999991
21
-162.5554949999999792
0
LINE
8
BLACK
6
CONTINUOUS
10
48.6602339999999955
20
-167.2370949999999823
11
48.6602339999999955
21
-163.0554949999999792
0
ARC
8
BLACK
10
47.1282339999999991
20
-163.0554949999999792
40
0.5
50
90.00000000
51
180.00000000
0
ARC
8
BLACK
10
47.1282349999999965
20
-167.2370939999999848
40
0.500001000001
50
-179.99988541
51
-90.00011459
0
ARC
8
BLACK
10
48.1602339999999955
20
-163.0554949999999792
40
0.5
50
0.00000000
51
90.00000000
0
ARC
8
BLACK
10
48.1602329999999981
20
-167.2370939999999848
40
0.500001000001
50
-89.99988541
51
-0.00011459
0
LINE
8
BLACK
6
CONTINUOUS
10
46.9389639999999986
20
-180.2718779999999867
11
46.9389639999999986
21
-184.4534779999999898
0
LINE
8
BLACK
6
CONTINUOUS
10
47.4389639999999986
20
-184.9534779999999898
11
48.4709639999999951
21
-184.9534779999999898
0
LINE
8
BLACK
6
CONTINUOUS
10
48.4709639999999951
20
-179.7718779999999867
11
47.4389639999999986
21
-179.7718779999999867
0
LINE
8
BLACK
6
CONTINUOUS
10
48.9709639999999951
20
-184.4534779999999898
11
48.9709639999999951
21
-180.2718779999999867
0
ARC
8
BLACK
10
47.4389639999999986
20
-180.2718779999999867
40
0.5
50
90.00000000
51
180.00000000
0
ARC
8
BLACK
10
47.4389649999999961
20
-184.4534769999999924
40
0.500001000001
50
-179.99988541
51
-90.00011459
0
ARC
8
BLACK
10
48.4709639999999951
20
-180.2718779999999867
40
0.5
50
0.00000000
51
90.00000000
0
ARC
8
BLACK
10
48.4709629999999976
20
-184.4534769999999924
40
0.500001000001
50
-89.99988541
51
-0.00011459
0
LINE
8
BLACK
6
CONTINUOUS
10
102.6369779999999992
20
-69.7802020000000027
11
101.9042749999999984
21
-83.7610150000000004
0
LINE
8
BLACK
6
CONTINUOUS
10
101.9042749999999984
20
-83.7610150000000004
11
87.9234620000000007
21
-83.0283119999999997
0
LINE
8
BLACK
6
CONTINUOUS
10
87.9234620000000007
20
-83.0283119999999997
11
88.6561650000000014
21
-69.047499000000002
0
LINE
8
BLACK
6
CONTINUOUS
10
88.6561650000000014
20
-69.047499000000002
11
102.6369779999999992
21
-69.7802020000000027
0
LINE
8
BLACK
6
CONTINUOUS
10
103.077305999999993
20
-52.7799479999999974
11
102.3446029999999922
21
-66.7607610000000022
0
LINE
8
BLACK
6
CONTINUOUS
10
102.3446029999999922
20
-66.7607610000000022
11
88.3637899999999945
21
-66.0280580000000015
0
LINE
8
BLACK
6
CONTINUOUS
10
88.3637899999999945
20
-66.0280580000000015
11
89.0964929999999953
21
-52.0472449999999967
0
LINE
8
BLACK
6
CONTINUOUS
10
89.0964929999999953
20
-52.0472449999999967
11
103.077305999999993
21
-52.7799479999999974
0
LINE
8
BLACK
6
CONTINUOUS
10
184.1316889999999944
20
-154.0392459999999915
11
184.2832329999999956
21
-156.930878000000007
0
LINE
8
BLACK
6
CONTINUOUS
10
186.5490179999999896
20
-153.374621999999988
11
187.0221640000000036
21
-152.8491400000000056
0
LINE
8
BLACK
6
CONTINUOUS
10
186.5771330000000034
20
-153.9110869999999807
11
184.1316889999999944
21
-154.0392459999999915
0
LINE
8
BLACK
6
CONTINUOUS
10
186.5771330000000034
20
-153.9110869999999807
11
186.5490179999999896
21
-153.374621999999988
0
LINE
8
BLACK
6
CONTINUOUS
10
186.7286770000000047
20
-156.8027179999999987
11
184.2832329999999956
21
-156.930878000000007
0
LINE
8
BLACK
6
CONTINUOUS
10
186.7587800000000016
20
-157.377129999999994
11
186.7286770000000047
21
-156.8027179999999987
0
LINE
8
BLACK
6
CONTINUOUS
10
186.7587800000000016
20
-157.377129999999994
11
187.2842629999999815
21
-157.8502770000000055
0
LINE
8
BLACK
6
CONTINUOUS
10
187.0221640000000036
20
-152.8491400000000056
11
190.5253569999999854
21
-152.6655439999999828
0
LINE
8
BLACK
6
CONTINUOUS
10
187.2842629999999815
20
-157.8502770000000055
11
189.796814999999981
21
-157.7185989999999833
0
LINE
8
BLACK
6
CONTINUOUS
10
190.5253569999999854
20
-152.6655439999999828
11
191.0508399999999938
21
-153.1386919999999918
0
LINE
8
BLACK
6
CONTINUOUS
10
191.1031769999999881
20
-154.1373219999999833
11
191.0508399999999938
21
-153.1386919999999918
0
LINE
8
BLACK
6
CONTINUOUS
10
191.3972299999999791
20
-159.1367829999999799
11
191.4338649999999973
21
-159.8358240000000023
0
LINE
8
BLACK
6
CONTINUOUS
10
191.4338649999999973
20
-159.8358240000000023
11
196.39505699999998
21
-159.5758189999999956
0
LINE
8
BLACK
6
CONTINUOUS
10
196.1224909999999966
20
-154.3749559999999974
11
191.6286580000000015
21
-154.6104679999999973
0
LINE
8
BLACK
6
CONTINUOUS
10
196.1890829999999823
20
-155.6456129999999973
11
196.1224909999999966
21
-154.3749559999999974
0
LINE
8
BLACK
6
CONTINUOUS
10
196.1890829999999823
20
-155.6456129999999973
11
198.6345269999999914
21
-155.5174519999999916
0
LINE
8
BLACK
6
CONTINUOUS
10
196.3406269999999836
20
-158.537243999999987
11
198.7860709999999926
21
-158.4090829999999812
0
LINE
8
BLACK
6
CONTINUOUS
10
196.39505699999998
20
-159.5758189999999956
11
196.3406269999999836
21
-158.537243999999987
0
LINE
8
BLACK
6
CONTINUOUS
10
198.7860709999999926
20
-158.4090829999999812
11
198.6345269999999914
21
-155.5174519999999916
0
ARC
8
BLACK
10
189.9534219999999891
20
-159.1539899999999932
40
1.4439089567316907
50
0.68280672
51
96.22657425
0
ARC
8
BLACK
10
191.6024899999999889
20
-154.1111530000000016
40
0.5000002334489455
50
-176.99987246
51
-86.99999889
0
CIRCLE
8
BLACK
10
183.694517999999988
20
-161.514569999999992
40
0.499999
0
CIRCLE
8
BLACK
10
189.1869800000000055
20
-161.2267229999999927
40
1.
0
CIRCLE
8
BLACK
10
194.6794419999999946
20
-160.9388759999999934
40
0.5
0
LINE
8
BLACK
6
CONTINUOUS
10
45.7589959999999962
20
-70.5721169999999915
11
31.7675249999999991
21
-71.0607100000000003
0
LINE
8
BLACK
6
CONTINUOUS
10
31.7675249999999991
20
-71.0607100000000003
11
31.2789319999999975
21
-57.0692389999999961
0
LINE
8
BLACK
6
CONTINUOUS
10
31.2789319999999975
20
-57.0692389999999961
11
45.2704029999999946
21
-56.5806459999999944
0
LINE
8
BLACK
6
CONTINUOUS
10
45.2704029999999946
20
-56.5806459999999944
11
45.7589959999999962
21
-70.5721169999999915
0
LINE
8
BLACK
6
CONTINUOUS
10
105.5102679999999964
20
-143.0265469999999937
11
105.5102679999999964
21
-147.2081469999999968
0
LINE
8
BLACK
6
CONTINUOUS
10
106.0102679999999964
20
-147.7081469999999968
11
107.0422679999999929
21
-147.7081469999999968
0
LINE
8
BLACK
6
CONTINUOUS
10
107.0422679999999929
20
-142.5265469999999937
11
106.0102679999999964
21
-142.5265469999999937
0
LINE
8
BLACK
6
CONTINUOUS
10
107.5422679999999929
20
-147.2081469999999968
11
107.5422679999999929
21
-143.0265469999999937
0
ARC
8
BLACK
10
106.0102679999999964
20
-143.0265469999999937
40
0.5
50
90.00000000
51
180.00000000
0
ARC
8
BLACK
10
106.0102689999999939
20
-147.2081459999999993
40
0.500001000001
50
-179.99988541
51
-90.00011459
0
ARC
8
BLACK
10
107.0422679999999929
20
-143.0265469999999937
40
0.5
50
0.00000000
51
90.00000000
0
ARC
8
BLACK
10
107.0422669999999954
20
-147.2081459999999993
40
0.500001000001
50
-89.99988541
51
-0.00011459
0
LINE
8
BLACK
6
CONTINUOUS
10
29.906763999999999
20
-148.3780779999999879
11
29.906763999999999
21
-151.2736779999999897
0
LINE
8
BLACK
6
CONTINUOUS
10
32.3555640000000011
20
-147.3380779999999959
11
32.3555640000000011
21
-148.3780779999999879
0
LINE
8
BLACK
6
CONTINUOUS
10
32.3555640000000011
20
-148.3780779999999879
11
29.906763999999999
21
-148.3780779999999879
0
LINE
8
BLACK
6
CONTINUOUS
10
32.3555640000000011
20
-151.2736779999999897
11
29.906763999999999
21
-151.2736779999999897
0
LINE
8
BLACK
6
CONTINUOUS
10
32.3555640000000011
20
-151.2736779999999897
11
32.3555640000000011
21
-152.5460779999999943
0
LINE
8
BLACK
6
CONTINUOUS
10
32.3555640000000011
20
-152.5460779999999943
11
36.8555640000000011
21
-152.5460779999999943
0
LINE
8
BLACK
6
CONTINUOUS
10
37.3235639999999975
20
-147.3380779999999959
11
32.3555640000000011
21
-147.3380779999999959
0
LINE
8
BLACK
6
CONTINUOUS
10
37.3235639999999975
20
-148.0380779999999845
11
37.3235639999999975
21
-147.3380779999999959
0
LINE
8
BLACK
6
CONTINUOUS
10
37.3555640000000011
20
-153.0460779999999943
11
37.3555640000000011
21
-154.0460779999999943
0
LINE
8
BLACK
6
CONTINUOUS
10
37.8555640000000011
20
-154.5460779999999943
11
37.3555640000000011
21
-154.0460779999999943
0
LINE
8
BLACK
6
CONTINUOUS
10
41.3635639999999967
20
-149.5380779999999845
11
38.8475639999999984
21
-149.5380779999999845
0
LINE
8
BLACK
6
CONTINUOUS
10
41.3635639999999967
20
-154.5460779999999943
11
37.8555640000000011
21
-154.5460779999999943
0
LINE
8
BLACK
6
CONTINUOUS
10
41.8635639999999967
20
-150.0380779999999845
11
41.3635639999999967
21
-149.5380779999999845
0
LINE
8
BLACK
6
CONTINUOUS
10
41.8635639999999967
20
-150.0380779999999845
11
41.8635639999999967
21
-150.6132779999999798
0
LINE
8
BLACK
6
CONTINUOUS
10
41.8635639999999967
20
-150.6132779999999798
11
44.3123639999999952
21
-150.6132779999999798
0
LINE
8
BLACK
6
CONTINUOUS
10
41.8635639999999967
20
-153.5088779999999815
11
41.8635639999999967
21
-154.0460779999999943
0
LINE
8
BLACK
6
CONTINUOUS
10
41.8635639999999967
20
-153.5088779999999815
11
44.3123639999999952
21
-153.5088779999999815
0
LINE
8
BLACK
6
CONTINUOUS
10
41.8635639999999967
20
-154.0460779999999943
11
41.3635639999999967
21
-154.5460779999999943
0
LINE
8
BLACK
6
CONTINUOUS
10
44.3123639999999952
20
-153.5088779999999815
11
44.3123639999999952
21
-150.6132779999999798
0
ARC
8
BLACK
10
36.8555640000000011
20
-153.0460779999999943
40
0.5
50
0.00000000
51
90.00000000
0
ARC
8
BLACK
10
38.7662939999999949
20
-148.0964579999999842
40
1.4439089435625778
50
-182.31720677
51
-86.77341836
0
CIRCLE
8
BLACK
10
34.1401639999999986
20
-146.066677999999996
40
0.5
0
CIRCLE
8
BLACK
10
39.6401639999999986
20
-146.066677999999996
40
1.
0
CIRCLE
8
BLACK
10
45.1401639999999986
20
-146.066677999999996
40
0.5
0
LINE
8
BLACK
6
CONTINUOUS
10
71.5675639999999902
20
-133.1244779999999821
11
71.5675639999999902
21
-136.0200779999999838
0
LINE
8
BLACK
6
CONTINUOUS
10
74.0163639999999958
20
-132.5872779999999977
11
74.5163639999999958
21
-132.0872779999999977
0
LINE
8
BLACK
6
CONTINUOUS
10
74.0163639999999958
20
-133.1244779999999821
11
71.5675639999999902
21
-133.1244779999999821
0
LINE
8
BLACK
6
CONTINUOUS
10
74.0163639999999958
20
-133.1244779999999821
11
74.0163639999999958
21
-132.5872779999999977
0
LINE
8
BLACK
6
CONTINUOUS
10
74.0163639999999958
20
-136.0200779999999838
11
71.5675639999999902
21
-136.0200779999999838
0
LINE
8
BLACK
6
CONTINUOUS
10
74.0163639999999958
20
-136.5952780000000075
11
74.0163639999999958
21
-136.0200779999999838
0
LINE
8
BLACK
6
CONTINUOUS
10
74.0163639999999958
20
-136.5952780000000075
11
74.5163639999999958
21
-137.0952780000000075
0
LINE
8
BLACK
6
CONTINUOUS
10
74.5163639999999958
20
-132.0872779999999977
11
78.0243639999999914
21
-132.0872779999999977
0
LINE
8
BLACK
6
CONTINUOUS
10
74.5163639999999958
20
-137.0952780000000075
11
77.0323640000000012
21
-137.0952780000000075
0
LINE
8
BLACK
6
CONTINUOUS
10
78.0243639999999914
20
-132.0872779999999977
11
78.5243639999999914
21
-132.5872779999999977
0
LINE
8
BLACK
6
CONTINUOUS
10
78.5243639999999914
20
-133.5872779999999977
11
78.5243639999999914
21
-132.5872779999999977
0
LINE
8
BLACK
6
CONTINUOUS
10
78.5563640000000021
20
-138.5952780000000075
11
78.5563640000000021
21
-139.2952779999999962
0
LINE
8
BLACK
6
CONTINUOUS
10
78.5563640000000021
20
-139.2952779999999962
11
83.5243639999999914
21
-139.2952779999999962
0
LINE
8
BLACK
6
CONTINUOUS
10
83.5243639999999914
20
-134.0872779999999977
11
79.0243639999999914
21
-134.0872779999999977
0
LINE
8
BLACK
6
CONTINUOUS
10
83.5243639999999914
20
-135.3596780000000024
11
83.5243639999999914
21
-134.0872779999999977
0
LINE
8
BLACK
6
CONTINUOUS
10
83.5243639999999914
20
-135.3596780000000024
11
85.973163999999997
21
-135.3596780000000024
0
LINE
8
BLACK
6
CONTINUOUS
10
83.5243639999999914
20
-138.2552780000000041
11
85.973163999999997
21
-138.2552780000000041
0
LINE
8
BLACK
6
CONTINUOUS
10
83.5243639999999914
20
-139.2952779999999962
11
83.5243639999999914
21
-138.2552780000000041
0
LINE
8
BLACK
6
CONTINUOUS
10
85.973163999999997
20
-138.2552780000000041
11
85.973163999999997
21
-135.3596780000000024
0
ARC
8
BLACK
10
77.1136339999999905
20
-138.5368980000000079
40
1.4439089435625778
50
-2.31720677
51
93.22658164
0
ARC
8
BLACK
10
79.0243639999999914
20
-133.5872779999999977
40
0.5
50
-180.00000000
51
-90.00000000
0
CIRCLE
8
BLACK
10
70.7397639999999939
20
-140.566677999999996
40
0.5
0
CIRCLE
8
BLACK
10
76.2397639999999939
20
-140.566677999999996
40
1.
0
CIRCLE
8
BLACK
10
81.7397639999999939
20
-140.566677999999996
40
0.5
0
LINE
8
BLACK
6
CONTINUOUS
10
46.6401639999999986
20
-53.066677999999996
11
32.6401639999999986
21
-53.066677999999996
0
LINE
8
BLACK
6
CONTINUOUS
10
32.6401639999999986
20
-53.066677999999996
11
32.6401639999999986
21
-39.066677999999996
0
LINE
8
BLACK
6
CONTINUOUS
10
32.6401639999999986
20
-39.066677999999996
11
46.6401639999999986
21
-39.066677999999996
0
LINE
8
BLACK
6
CONTINUOUS
10
46.6401639999999986
20
-39.066677999999996
11
46.6401639999999986
21
-53.066677999999996
0
CIRCLE
8
BLACK
10
61.5454109999999943
20
-204.9739769999999908
40
1.0999999999999999
0
LINE
8
BLACK
6
CONTINUOUS
10
184.5720169999999882
20
-171.0395000000000039
11
184.7235609999999895
21
-173.931131999999991
0
LINE
8
BLACK
6
CONTINUOUS
10
186.9893459999999834
20
-170.3748760000000004
11
187.4624919999999975
21
-169.8493939999999895
0
LINE
8
BLACK
6
CONTINUOUS
10
187.0174609999999973
20
-170.9113409999999931
11
184.5720169999999882
21
-171.0395000000000039
0
LINE
8
BLACK
6
CONTINUOUS
10
187.0174609999999973
20
-170.9113409999999931
11
186.9893459999999834
21
-170.3748760000000004
0
LINE
8
BLACK
6
CONTINUOUS
10
187.1690049999999985
20
-173.8029719999999827
11
184.7235609999999895
21
-173.931131999999991
0
LINE
8
BLACK
6
CONTINUOUS
10
187.1991079999999954
20
-174.377383999999978
11
187.1690049999999985
21
-173.8029719999999827
0
LINE
8
BLACK
6
CONTINUOUS
10
187.1991079999999954
20
-174.377383999999978
11
187.7245910000000038
21
-174.8505309999999895
0
LINE
8
BLACK
6
CONTINUOUS
10
187.4624919999999975
20
-169.8493939999999895
11
190.9656849999999793
21
-169.6657979999999952
0
LINE
8
BLACK
6
CONTINUOUS
10
187.7245910000000038
20
-174.8505309999999895
11
190.2371430000000032
21
-174.7188529999999957
0
LINE
8
BLACK
6
CONTINUOUS
10
190.9656849999999793
20
-169.6657979999999952
11
191.4911679999999876
21
-170.1389460000000042
0
LINE
8
BLACK
6
CONTINUOUS
10
191.5435049999999819
20
-171.1375759999999957
11
191.4911679999999876
21
-170.1389460000000042
0
LINE
8
BLACK
6
CONTINUOUS
10
191.8375580000000014
20
-176.1370369999999923
11
191.8741929999999911
21
-176.8360779999999863
0
LINE
8
BLACK
6
CONTINUOUS
10
191.8741929999999911
20
-176.8360779999999863
11
196.8353850000000023
21
-176.5760729999999796
0
LINE
8
BLACK
6
CONTINUOUS
10
196.5628189999999904
20
-171.3752099999999814
11
192.0689859999999953
21
-171.6107219999999813
0
LINE
8
BLACK
6
CONTINUOUS
10
196.6294110000000046
20
-172.6458669999999813
11
196.5628189999999904
21
-171.3752099999999814
0
LINE
8
BLACK
6
CONTINUOUS
10
196.6294110000000046
20
-172.6458669999999813
11
199.0748549999999852
21
-172.517706000000004
0
LINE
8
BLACK
6
CONTINUOUS
10
196.7809549999999774
20
-175.5374979999999994
11
199.2263989999999865
21
-175.4093369999999936
0
LINE
8
BLACK
6
CONTINUOUS
10
196.8353850000000023
20
-176.5760729999999796
11
196.7809549999999774
21
-175.5374979999999994
0
LINE
8
BLACK
6
CONTINUOUS
10
199.2263989999999865
20
-175.4093369999999936
11
199.0748549999999852
21
-172.517706000000004
0
ARC
8
BLACK
10
190.3937499999999829
20
-176.1542440000000056
40
1.4439089567316907
50
0.68280672
51
96.22657425
0
ARC
8
BLACK
10
192.0428179999999827
20
-171.1114069999999856
40
0.5000002334489455
50
-176.99987246
51
-86.99999889
0
CIRCLE
8
BLACK
10
184.1348459999999818
20
-178.5148240000000044
40
0.499999
0
CIRCLE
8
BLACK
10
189.6273079999999993
20
-178.2269770000000051
40
1.
0
CIRCLE
8
BLACK
10
195.1197699999999884
20
-177.9391300000000058
40
0.5
0
LINE
8
BLACK
6
CONTINUOUS
10
53.2677639999999997
20
-152.9244779999999935
11
53.2677639999999997
21
-155.8200779999999952
0
LINE
8
BLACK
6
CONTINUOUS
10
55.7165639999999982
20
-152.3872779999999807
11
56.2165639999999982
21
-151.8872779999999807
0
LINE
8
BLACK
6
CONTINUOUS
10
55.7165639999999982
20
-152.9244779999999935
11
53.2677639999999997
21
-152.9244779999999935
0
LINE
8
BLACK
6
CONTINUOUS
10
55.7165639999999982
20
-152.9244779999999935
11
55.7165639999999982
21
-152.3872779999999807
0
LINE
8
BLACK
6
CONTINUOUS
10
55.7165639999999982
20
-155.8200779999999952
11
53.2677639999999997
21
-155.8200779999999952
0
LINE
8
BLACK
6
CONTINUOUS
10
55.7165639999999982
20
-156.3952779999999905
11
55.7165639999999982
21
-155.8200779999999952
0
LINE
8
BLACK
6
CONTINUOUS
10
55.7165639999999982
20
-156.3952779999999905
11
56.2165639999999982
21
-156.8952779999999905
0
LINE
8
BLACK
6
CONTINUOUS
10
56.2165639999999982
20
-151.8872779999999807
11
59.7245639999999938
21
-151.8872779999999807
0
LINE
8
BLACK
6
CONTINUOUS
10
56.2165639999999982
20
-156.8952779999999905
11
58.7325639999999964
21
-156.8952779999999905
0
LINE
8
BLACK
6
CONTINUOUS
10
59.7245639999999938
20
-151.8872779999999807
11
60.2245639999999938
21
-152.3872779999999807
0
LINE
8
BLACK
6
CONTINUOUS
10
60.2245639999999938
20
-153.3872779999999807
11
60.2245639999999938
21
-152.3872779999999807
0
LINE
8
BLACK
6
CONTINUOUS
10
60.2565639999999973
20
-158.3952779999999905
11
60.2565639999999973
21
-159.0952779999999791
0
LINE
8
BLACK
6
CONTINUOUS
10
60.2565639999999973
20
-159.0952779999999791
11
65.2245640000000009
21
-159.0952779999999791
0
LINE
8
BLACK
6
CONTINUOUS
10
65.2245640000000009
20
-153.8872779999999807
11
60.7245639999999938
21
-153.8872779999999807
0
LINE
8
BLACK
6
CONTINUOUS
10
65.2245640000000009
20
-155.1596779999999853
11
65.2245640000000009
21
-153.8872779999999807
0
LINE
8
BLACK
6
CONTINUOUS
10
65.2245640000000009
20
-155.1596779999999853
11
67.6733639999999923
21
-155.1596779999999853
0
LINE
8
BLACK
6
CONTINUOUS
10
65.2245640000000009
20
-158.0552779999999871
11
67.6733639999999923
21
-158.0552779999999871
0
LINE
8
BLACK
6
CONTINUOUS
10
65.2245640000000009
20
-159.0952779999999791
11
65.2245640000000009
21
-158.0552779999999871
0
LINE
8
BLACK
6
CONTINUOUS
10
67.6733639999999923
20
-158.0552779999999871
11
67.6733639999999923
21
-155.1596779999999853
0
ARC
8
BLACK
10
58.8138339999999999
20
-158.3368979999999908
40
1.4439089435625778
50
-2.31720677
51
93.22658164
0
ARC
8
BLACK
10
60.7245639999999938
20
-153.3872779999999807
40
0.5
50
-180.00000000
51
-90.00000000
0
CIRCLE
8
BLACK
10
52.4399639999999962
20
-160.366677999999979
40
0.5
0
CIRCLE
8
BLACK
10
57.9399639999999962
20
-160.366677999999979
40
1.
0
CIRCLE
8
BLACK
10
63.4399639999999962
20
-160.366677999999979
40
0.5
0
LINE
8
BLACK
6
CONTINUOUS
10
120.551721999999998
20
-75.7706330000000037
11
119.8190189999999973
21
-89.7514460000000014
0
LINE
8
BLACK
6
CONTINUOUS
10
119.8190189999999973
20
-89.7514460000000014
11
105.8382059999999996
21
-89.0187430000000006
0
LINE
8
BLACK
6
CONTINUOUS
10
105.8382059999999996
20
-89.0187430000000006
11
106.5709090000000003
21
-75.0379300000000029
0
LINE
8
BLACK
6
CONTINUOUS
10
106.5709090000000003
20
-75.0379300000000029
11
120.551721999999998
21
-75.7706330000000037
0
LINE
8
BLACK
6
CONTINUOUS
10
222.295363999999978
20
-137.1021979999999871
11
222.295363999999978
21
-139.9977979999999889
0
LINE
8
BLACK
6
CONTINUOUS
10
224.7441639999999836
20
-136.5649980000000028
11
225.2441639999999836
21
-136.0649980000000028
0
LINE
8
BLACK
6
CONTINUOUS
10
224.7441639999999836
20
-137.1021979999999871
11
222.295363999999978
21
-137.1021979999999871
0
LINE
8
BLACK
6
CONTINUOUS
10
224.7441639999999836
20
-137.1021979999999871
11
224.7441639999999836
21
-136.5649980000000028
0
LINE
8
BLACK
6
CONTINUOUS
10
224.7441639999999836
20
-139.9977979999999889
11
222.295363999999978
21
-139.9977979999999889
0
LINE
8
BLACK
6
CONTINUOUS
10
224.7441639999999836
20
-140.5729979999999841
11
224.7441639999999836
21
-139.9977979999999889
0
LINE
8
BLACK
6
CONTINUOUS
10
224.7441639999999836
20
-140.5729979999999841
11
225.2441639999999836
21
-141.0729979999999841
0
LINE
8
BLACK
6
CONTINUOUS
10
225.2441639999999836
20
-136.0649980000000028
11
228.7521639999999934
21
-136.0649980000000028
0
LINE
8
BLACK
6
CONTINUOUS
10
225.2441639999999836
20
-141.0729979999999841
11
227.7601640000000032
21
-141.0729979999999841
0
LINE
8
BLACK
6
CONTINUOUS
10
228.7521639999999934
20
-136.0649980000000028
11
229.2521639999999934
21
-136.5649980000000028
0
LINE
8
BLACK
6
CONTINUOUS
10
229.2521639999999934
20
-137.5649980000000028
11
229.2521639999999934
21
-136.5649980000000028
0
LINE
8
BLACK
6
CONTINUOUS
10
229.2841639999999757
20
-142.5729979999999841
11
229.2841639999999757
21
-143.2729980000000012
0
LINE
8
BLACK
6
CONTINUOUS
10
229.2841639999999757
20
-143.2729980000000012
11
234.2521639999999934
21
-143.2729980000000012
0
LINE
8
BLACK
6
CONTINUOUS
10
234.2521639999999934
20
-138.0649980000000028
11
229.7521639999999934
21
-138.0649980000000028
0
LINE
8
BLACK
6
CONTINUOUS
10
234.2521639999999934
20
-139.3373980000000074
11
234.2521639999999934
21
-138.0649980000000028
0
LINE
8
BLACK
6
CONTINUOUS
10
234.2521639999999934
20
-139.3373980000000074
11
236.700963999999999
21
-139.3373980000000074
0
LINE
8
BLACK
6
CONTINUOUS
10
234.2521639999999934
20
-142.2329979999999807
11
236.700963999999999
21
-142.2329979999999807
0
LINE
8
BLACK
6
CONTINUOUS
10
234.2521639999999934
20
-143.2729980000000012
11
234.2521639999999934
21
-142.2329979999999807
0
LINE
8
BLACK
6
CONTINUOUS
10
236.700963999999999
20
-142.2329979999999807
11
236.700963999999999
21
-139.3373980000000074
0
ARC
8
BLACK
10
227.8414339999999925
20
-142.5146179999999845
40
1.4439089435625778
50
-2.31720677
51
93.22658164
0
ARC
8
BLACK
10
229.7521639999999934
20
-137.5649980000000028
40
0.5
50
-180.00000000
51
-90.00000000
0
CIRCLE
8
BLACK
10
221.4675639999999817
20
-144.544398000000001
40
0.5
0
CIRCLE
8
BLACK
10
226.9675639999999817
20
-144.544398000000001
40
1.
0
CIRCLE
8
BLACK
10
232.4675639999999817
20
-144.544398000000001
40
0.5
0
LINE
8
BLACK
6
CONTINUOUS
10
71.5675639999999902
20
-167.1244779999999821
11
71.5675639999999902
21
-170.0200779999999838
0
LINE
8
BLACK
6
CONTINUOUS
10
74.0163639999999958
20
-166.5872779999999977
11
74.5163639999999958
21
-166.0872779999999977
0
LINE
8
BLACK
6
CONTINUOUS
10
74.0163639999999958
20
-167.1244779999999821
11
71.5675639999999902
21
-167.1244779999999821
0
LINE
8
BLACK
6
CONTINUOUS
10
74.0163639999999958
20
-167.1244779999999821
11
74.0163639999999958
21
-166.5872779999999977
0
LINE
8
BLACK
6
CONTINUOUS
10
74.0163639999999958
20
-170.0200779999999838
11
71.5675639999999902
21
-170.0200779999999838
0
LINE
8
BLACK
6
CONTINUOUS
10
74.0163639999999958
20
-170.5952779999999791
11
74.0163639999999958
21
-170.0200779999999838
0
LINE
8
BLACK
6
CONTINUOUS
10
74.0163639999999958
20
-170.5952779999999791
11
74.5163639999999958
21
-171.0952779999999791
0
LINE
8
BLACK
6
CONTINUOUS
10
74.5163639999999958
20
-166.0872779999999977
11
78.0243639999999914
21
-166.0872779999999977
0
LINE
8
BLACK
6
CONTINUOUS
10
74.5163639999999958
20
-171.0952779999999791
11
77.0323640000000012
21
-171.0952779999999791
0
LINE
8
BLACK
6
CONTINUOUS
10
78.0243639999999914
20
-166.0872779999999977
11
78.5243639999999914
21
-166.5872779999999977
0
LINE
8
BLACK
6
CONTINUOUS
10
78.5243639999999914
20
-167.5872779999999977
11
78.5243639999999914
21
-166.5872779999999977
0
LINE
8
BLACK
6
CONTINUOUS
10
78.5563640000000021
20
-172.5952779999999791
11
78.5563640000000021
21
-173.2952779999999962
0
LINE
8
BLACK
6
CONTINUOUS
10
78.5563640000000021
20
-173.2952779999999962
11
83.5243639999999914
21
-173.2952779999999962
0
LINE
8
BLACK
6
CONTINUOUS
10
83.5243639999999914
20
-168.0872779999999977
11
79.0243639999999914
21
-168.0872779999999977
0
LINE
8
BLACK
6
CONTINUOUS
10
83.5243639999999914
20
-169.3596780000000024
11
83.5243639999999914
21
-168.0872779999999977
0
LINE
8
BLACK
6
CONTINUOUS
10
83.5243639999999914
20
-169.3596780000000024
11
85.973163999999997
21
-169.3596780000000024
0
LINE
8
BLACK
6
CONTINUOUS
10
83.5243639999999914
20
-172.2552780000000041
11
85.973163999999997
21
-172.2552780000000041
0
LINE
8
BLACK
6
CONTINUOUS
10
83.5243639999999914
20
-173.2952779999999962
11
83.5243639999999914
21
-172.2552780000000041
0
LINE
8
BLACK
6
CONTINUOUS
10
85.973163999999997
20
-172.2552780000000041
11
85.973163999999997
21
-169.3596780000000024
0
ARC
8
BLACK
10
77.1136339999999905
20
-172.5368979999999794
40
1.4439089435625778
50
-2.31720677
51
93.22658164
0
ARC
8
BLACK
10
79.0243639999999914
20
-167.5872779999999977
40
0.5
50
-180.00000000
51
-90.00000000
0
CIRCLE
8
BLACK
10
70.7397639999999939
20
-174.566677999999996
40
0.5
0
CIRCLE
8
BLACK
10
76.2397639999999939
20
-174.566677999999996
40
1.
0
CIRCLE
8
BLACK
10
81.7397639999999939
20
-174.566677999999996
40
0.5
0
CIRCLE
8
BLACK
10
83.785624999999996
20
-202.0459969999999998
40
1.0999999999999999
0
LINE
8
BLACK
6
CONTINUOUS
10
102.2555940000000021
20
-145.5770139999999913
11
102.2555940000000021
21
-149.7586139999999943
0
LINE
8
BLACK
6
CONTINUOUS
10
102.7555940000000021
20
-150.2586139999999943
11
103.7875939999999986
21
-150.2586139999999943
0
LINE
8
BLACK
6
CONTINUOUS
10
103.7875939999999986
20
-145.0770139999999913
11
102.7555940000000021
21
-145.0770139999999913
0
LINE
8
BLACK
6
CONTINUOUS
10
104.2875939999999986
20
-149.7586139999999943
11
104.2875939999999986
21
-145.5770139999999913
0
ARC
8
BLACK
10
102.7555940000000021
20
-145.5770139999999913
40
0.5
50
90.00000000
51
180.00000000
0
ARC
8
BLACK
10
102.7555949999999996
20
-149.7586129999999969
40
0.500001000001
50
-179.99988541
51
-90.00011459
0
ARC
8
BLACK
10
103.7875939999999986
20
-145.5770139999999913
40
0.5
50
0.00000000
51
90.00000000
0
ARC
8
BLACK
10
103.7875930000000011
20
-149.7586129999999969
40
0.500001000001
50
-89.99988541
51
-0.00011459
0
LINE
8
BLACK
6
CONTINUOUS
10
105.8411040000000014
20
-96.1968629999999933
11
104.0137379999999894
21
-110.0770909999999958
0
LINE
8
BLACK
6
CONTINUOUS
10
104.0137379999999894
20
-110.0770909999999958
11
90.1335100000000011
21
-108.249724999999998
0
LINE
8
BLACK
6
CONTINUOUS
10
90.1335100000000011
20
-108.249724999999998
11
91.960875999999999
21
-94.3694969999999955
0
LINE
8
BLACK
6
CONTINUOUS
10
91.960875999999999
20
-94.3694969999999955
11
105.8411040000000014
21
-96.1968629999999933
0
LINE
8
BLACK
6
CONTINUOUS
10
120.3069639999999936
20
-168.0798779999999795
11
120.3069639999999936
21
-172.2614779999999826
0
LINE
8
BLACK
6
CONTINUOUS
10
120.8069639999999936
20
-172.7614779999999826
11
121.8389639999999901
21
-172.7614779999999826
0
LINE
8
BLACK
6
CONTINUOUS
10
121.8389639999999901
20
-167.5798779999999795
11
120.8069639999999936
21
-167.5798779999999795
0
LINE
8
BLACK
6
CONTINUOUS
10
122.3389639999999901
20
-172.2614779999999826
11
122.3389639999999901
21
-168.0798779999999795
0
ARC
8
BLACK
10
120.8069639999999936
20
-168.0798779999999795
40
0.5
50
90.00000000
51
180.00000000
0
ARC
8
BLACK
10
120.8069649999999911
20
-172.2614769999999851
40
0.500001000001
50
-179.99988541
51
-90.00011459
0
ARC
8
BLACK
10
121.8389639999999901
20
-168.0798779999999795
40
0.5
50
0.00000000
51
90.00000000
0
ARC
8
BLACK
10
121.8389629999999926
20
-172.2614769999999851
40
0.500001000001
50
-89.99988541
51
-0.00011459
0
LINE
8
BLACK
6
CONTINUOUS
10
181.3165899999999908
20
-197.2773279999999829
11
181.6945419999999842
21
-200.1481550000000027
0
LINE
8
BLACK
6
CONTINUOUS
10
183.6743219999999894
20
-196.4250909999999806
11
184.1047820000000002
21
-195.8641059999999925
0
LINE
8
BLACK
6
CONTINUOUS
10
183.7444409999999948
20
-196.9576950000000011
11
181.3165899999999908
21
-197.2773279999999829
0
LINE
8
BLACK
6
CONTINUOUS
10
183.7444409999999948
20
-196.9576950000000011
11
183.6743219999999894
21
-196.4250909999999806
0
LINE
8
BLACK
6
CONTINUOUS
10
184.1047820000000002
20
-195.8641059999999925
11
187.5827689999999848
21
-195.406220999999988
0
LINE
8
BLACK
6
CONTINUOUS
10
184.1223919999999907
20
-199.8285229999999899
11
181.6945419999999842
21
-200.1481550000000027
0
LINE
8
BLACK
6
CONTINUOUS
10
184.1974709999999789
20
-200.3988019999999892
11
184.1223919999999907
21
-199.8285229999999899
0
LINE
8
BLACK
6
CONTINUOUS
10
184.1974709999999789
20
-200.3988019999999892
11
184.7584569999999928
21
-200.8292610000000025
0
LINE
8
BLACK
6
CONTINUOUS
10
184.7584569999999928
20
-200.8292610000000025
11
187.2529319999999871
21
-200.5008569999999963
0
LINE
8
BLACK
6
CONTINUOUS
10
187.5827689999999848
20
-195.406220999999988
11
188.1437559999999962
21
-195.8366790000000037
0
LINE
8
BLACK
6
CONTINUOUS
10
188.274281000000002
20
-196.8281240000000025
11
188.1437559999999962
21
-195.8366790000000037
0
LINE
8
BLACK
6
CONTINUOUS
10
188.9596829999999841
20
-201.789102999999983
11
189.0510510000000011
21
-202.4831140000000005
0
LINE
8
BLACK
6
CONTINUOUS
10
189.0510510000000011
20
-202.4831140000000005
11
193.9765489999999772
21
-201.8346599999999853
0
LINE
8
BLACK
6
CONTINUOUS
10
193.2967689999999834
20
-196.6712149999999895
11
188.8352669999999875
21
-197.2585819999999899
0
LINE
8
BLACK
6
CONTINUOUS
10
193.4628500000000031
20
-197.9327299999999923
11
193.2967689999999834
21
-196.6712149999999895
0
LINE
8
BLACK
6
CONTINUOUS
10
193.4628500000000031
20
-197.9327299999999923
11
195.8906999999999812
21
-197.613096999999982
0
LINE
8
BLACK
6
CONTINUOUS
10
193.840800999999999
20
-200.8035569999999836
11
196.2686530000000005
21
-200.4839249999999993
0
LINE
8
BLACK
6
CONTINUOUS
10
193.9765489999999772
20
-201.8346599999999853
11
193.840800999999999
21
-200.8035569999999836
0
LINE
8
BLACK
6
CONTINUOUS
10
196.2686530000000005
20
-200.4839249999999993
11
195.8906999999999812
21
-197.613096999999982
0
ARC
8
BLACK
10
187.5216749999999877
20
-201.9195359999999937
40
1.4439088977806043
50
5.18277110
51
100.72654591
0
ARC
8
BLACK
10
188.7700040000000001
20
-196.7628599999999892
40
0.4999995604528068
50
-172.49990582
51
-82.50000448
0
CIRCLE
8
BLACK
10
181.4672740000000033
20
-204.7639079999999865
40
0.500001
0
CIRCLE
8
BLACK
10
186.920220999999998
20
-204.0460139999999853
40
1.
0
CIRCLE
8
BLACK
10
192.3731679999999926
20
-203.3281199999999842
40
0.5
0
LINE
8
BLACK
6
CONTINUOUS
10
165.8710629999999924
20
-160.042761999999982
11
166.0226069999999936
21
-162.9343939999999975
0
LINE
8
BLACK
6
CONTINUOUS
10
168.2883919999999875
20
-159.378138000000007
11
168.7615380000000016
21
-158.8526559999999961
0
LINE
8
BLACK
6
CONTINUOUS
10
168.3165070000000014
20
-159.9146029999999996
11
165.8710629999999924
21
-160.042761999999982
0
LINE
8
BLACK
6
CONTINUOUS
10
168.3165070000000014
20
-159.9146029999999996
11
168.2883919999999875
21
-159.378138000000007
0
LINE
8
BLACK
6
CONTINUOUS
10
168.4680510000000027
20
-162.8062339999999892
11
166.0226069999999936
21
-162.9343939999999975
0
LINE
8
BLACK
6
CONTINUOUS
10
168.4981539999999995
20
-163.3806459999999845
11
168.4680510000000027
21
-162.8062339999999892
0
LINE
8
BLACK
6
CONTINUOUS
10
168.4981539999999995
20
-163.3806459999999845
11
169.0236369999999795
21
-163.853792999999996
0
LINE
8
BLACK
6
CONTINUOUS
10
168.7615380000000016
20
-158.8526559999999961
11
172.2647309999999834
21
-158.6690600000000018
0
LINE
8
BLACK
6
CONTINUOUS
10
169.0236369999999795
20
-163.853792999999996
11
171.5361889999999789
21
-163.7221150000000023
0
LINE
8
BLACK
6
CONTINUOUS
10
172.2647309999999834
20
-158.6690600000000018
11
172.7902139999999918
21
-159.1422079999999823
0
LINE
8
BLACK
6
CONTINUOUS
10
172.8425509999999861
20
-160.1408380000000022
11
172.7902139999999918
21
-159.1422079999999823
0
LINE
8
BLACK
6
CONTINUOUS
10
173.1366040000000055
20
-165.1402989999999988
11
173.1732389999999953
21
-165.8393399999999929
0
LINE
8
BLACK
6
CONTINUOUS
10
173.1732389999999953
20
-165.8393399999999929
11
178.134430999999978
21
-165.5793349999999862
0
LINE
8
BLACK
6
CONTINUOUS
10
177.8618649999999946
20
-160.3784719999999879
11
173.3680319999999995
21
-160.6139839999999879
0
LINE
8
BLACK
6
CONTINUOUS
10
177.9284569999999803
20
-161.6491289999999879
11
177.8618649999999946
21
-160.3784719999999879
0
LINE
8
BLACK
6
CONTINUOUS
10
177.9284569999999803
20
-161.6491289999999879
11
180.3739009999999894
21
-161.5209679999999821
0
LINE
8
BLACK
6
CONTINUOUS
10
178.0800009999999816
20
-164.5407600000000059
11
180.5254449999999906
21
-164.4125990000000002
0
LINE
8
BLACK
6
CONTINUOUS
10
178.134430999999978
20
-165.5793349999999862
11
178.0800009999999816
21
-164.5407600000000059
0
LINE
8
BLACK
6
CONTINUOUS
10
180.5254449999999906
20
-164.4125990000000002
11
180.3739009999999894
21
-161.5209679999999821
0
ARC
8
BLACK
10
171.6927959999999871
20
-165.1575059999999837
40
1.4439089567316907
50
0.68280672
51
96.22657425
0
ARC
8
BLACK
10
173.3418639999999868
20
-160.1146689999999921
40
0.5000002334489455
50
-176.99987246
51
-86.99999889
0
CIRCLE
8
BLACK
10
165.433891999999986
20
-167.5180859999999825
40
0.499999
0
CIRCLE
8
BLACK
10
170.9263540000000035
20
-167.2302389999999832
40
1.
0
CIRCLE
8
BLACK
10
176.4188159999999925
20
-166.9423919999999839
40
0.5
0
LINE
8
BLACK
6
CONTINUOUS
10
65.4397639999999967
20
-160.0882780000000025
11
65.4397639999999967
21
-164.2698780000000056
0
LINE
8
BLACK
6
CONTINUOUS
10
65.9397639999999967
20
-164.7698780000000056
11
66.9717639999999932
21
-164.7698780000000056
0
LINE
8
BLACK
6
CONTINUOUS
10
66.9717639999999932
20
-159.5882780000000025
11
65.9397639999999967
21
-159.5882780000000025
0
LINE
8
BLACK
6
CONTINUOUS
10
67.4717639999999932
20
-164.2698780000000056
11
67.4717639999999932
21
-160.0882780000000025
0
ARC
8
BLACK
10
65.9397639999999967
20
-160.0882780000000025
40
0.5
50
90.00000000
51
180.00000000
0
ARC
8
BLACK
10
65.9397649999999942
20
-164.2698769999999797
40
0.500001000001
50
-179.99988541
51
-90.00011459
0
ARC
8
BLACK
10
66.9717639999999932
20
-160.0882780000000025
40
0.5
50
0.00000000
51
90.00000000
0
ARC
8
BLACK
10
66.9717629999999957
20
-164.2698769999999797
40
0.500001000001
50
-89.99988541
51
-0.00011459
0
LINE
8
BLACK
6
CONTINUOUS
10
166.6572730000000035
20
-177.0299310000000048
11
166.8088170000000048
21
-179.9215629999999919
0
LINE
8
BLACK
6
CONTINUOUS
10
169.0746019999999987
20
-176.3653070000000014
11
169.5477479999999844
21
-175.8398249999999905
0
LINE
8
BLACK
6
CONTINUOUS
10
169.1027169999999842
20
-176.901771999999994
11
166.6572730000000035
21
-177.0299310000000048
0
LINE
8
BLACK
6
CONTINUOUS
10
169.1027169999999842
20
-176.901771999999994
11
169.0746019999999987
21
-176.3653070000000014
0
LINE
8
BLACK
6
CONTINUOUS
10
169.2542609999999854
20
-179.7934029999999836
11
166.8088170000000048
21
-179.9215629999999919
0
LINE
8
BLACK
6
CONTINUOUS
10
169.2843639999999823
20
-180.3678149999999789
11
169.2542609999999854
21
-179.7934029999999836
0
LINE
8
BLACK
6
CONTINUOUS
10
169.2843639999999823
20
-180.3678149999999789
11
169.8098469999999907
21
-180.8409619999999904
0
LINE
8
BLACK
6
CONTINUOUS
10
169.5477479999999844
20
-175.8398249999999905
11
173.0509409999999946
21
-175.6562289999999962
0
LINE
8
BLACK
6
CONTINUOUS
10
169.8098469999999907
20
-180.8409619999999904
11
172.3223989999999901
21
-180.7092839999999967
0
LINE
8
BLACK
6
CONTINUOUS
10
173.0509409999999946
20
-175.6562289999999962
11
173.5764240000000029
21
-176.1293770000000052
0
LINE
8
BLACK
6
CONTINUOUS
10
173.6287609999999972
20
-177.1280069999999967
11
173.5764240000000029
21
-176.1293770000000052
0
LINE
8
BLACK
6
CONTINUOUS
10
173.9228139999999883
20
-182.1274679999999933
11
173.959448999999978
21
-182.8265089999999873
0
LINE
8
BLACK
6
CONTINUOUS
10
173.959448999999978
20
-182.8265089999999873
11
178.9206409999999892
21
-182.5665039999999806
0
LINE
8
BLACK
6
CONTINUOUS
10
178.6480750000000057
20
-177.3656409999999823
11
174.1542419999999822
21
-177.6011529999999823
0
LINE
8
BLACK
6
CONTINUOUS
10
178.7146669999999915
20
-178.6362979999999823
11
178.6480750000000057
21
-177.3656409999999823
0
LINE
8
BLACK
6
CONTINUOUS
10
178.7146669999999915
20
-178.6362979999999823
11
181.1601110000000006
21
-178.5081370000000049
0
LINE
8
BLACK
6
CONTINUOUS
10
178.8662109999999927
20
-181.5279290000000003
11
181.3116550000000018
21
-181.3997679999999946
0
LINE
8
BLACK
6
CONTINUOUS
10
178.9206409999999892
20
-182.5665039999999806
11
178.8662109999999927
21
-181.5279290000000003
0
LINE
8
BLACK
6
CONTINUOUS
10
181.3116550000000018
20
-181.3997679999999946
11
181.1601110000000006
21
-178.5081370000000049
0
ARC
8
BLACK
10
172.4790059999999983
20
-182.1446749999999781
40
1.4439089567316907
50
0.68280672
51
96.22657425
0
ARC
8
BLACK
10
174.128073999999998
20
-177.1018379999999866
40
0.5000002334489455
50
-176.99987246
51
-86.99999889
0
CIRCLE
8
BLACK
10
166.2201019999999971
20
-184.5052550000000053
40
0.499999
0
CIRCLE
8
BLACK
10
171.7125639999999862
20
-184.2174079999999776
40
1.
0
CIRCLE
8
BLACK
10
177.2050260000000037
20
-183.9295609999999783
40
0.5
0
LINE
8
BLACK
6
CONTINUOUS
10
91.8845839999999896
20
-134.7270249999999976
11
91.7330400000000026
21
-137.6186569999999847
0
LINE
8
BLACK
6
CONTINUOUS
10
94.1483799999999889
20
-138.3212289999999882
11
94.1784839999999974
21
-137.746816999999993
0
LINE
8
BLACK
6
CONTINUOUS
10
94.1483799999999889
20
-138.3212289999999882
11
94.6215270000000004
21
-138.8467119999999966
0
LINE
8
BLACK
6
CONTINUOUS
10
94.1784839999999974
20
-137.746816999999993
11
91.7330400000000026
21
-137.6186569999999847
0
LINE
8
BLACK
6
CONTINUOUS
10
94.3300279999999987
20
-134.8551860000000033
11
91.8845839999999896
21
-134.7270249999999976
0
LINE
8
BLACK
6
CONTINUOUS
10
94.3300279999999987
20
-134.8551860000000033
11
94.3581429999999983
21
-134.3187219999999797
0
LINE
8
BLACK
6
CONTINUOUS
10
94.3581429999999983
20
-134.3187219999999797
11
94.883624999999995
21
-133.8455749999999966
0
LINE
8
BLACK
6
CONTINUOUS
10
94.6215270000000004
20
-138.8467119999999966
11
97.1340789999999998
21
-138.9783889999999928
0
LINE
8
BLACK
6
CONTINUOUS
10
94.883624999999995
20
-133.8455749999999966
11
98.386817999999991
21
-134.029168999999996
0
LINE
8
BLACK
6
CONTINUOUS
10
98.386817999999991
20
-134.029168999999996
11
98.8599650000000025
21
-134.5546520000000044
0
LINE
8
BLACK
6
CONTINUOUS
10
98.5408509999999893
20
-141.2551339999999982
11
103.5020430000000005
21
-141.5151390000000049
0
LINE
8
BLACK
6
CONTINUOUS
10
98.5774859999999933
20
-140.5560930000000042
11
98.5408509999999893
21
-141.2551339999999982
0
LINE
8
BLACK
6
CONTINUOUS
10
98.8076289999999915
20
-135.5532819999999958
11
98.8599650000000025
21
-134.5546520000000044
0
LINE
8
BLACK
6
CONTINUOUS
10
103.5020430000000005
20
-141.5151390000000049
11
103.5564719999999994
21
-140.4765639999999962
0
LINE
8
BLACK
6
CONTINUOUS
10
103.5564719999999994
20
-140.4765639999999962
11
106.0019159999999943
21
-140.6047240000000045
0
LINE
8
BLACK
6
CONTINUOUS
10
103.7080160000000006
20
-137.5849330000000066
11
103.7746080000000006
21
-136.3142760000000067
0
LINE
8
BLACK
6
CONTINUOUS
10
103.7080160000000006
20
-137.5849330000000066
11
106.1534599999999955
21
-137.7130929999999864
0
LINE
8
BLACK
6
CONTINUOUS
10
103.7746080000000006
20
-136.3142760000000067
11
99.2807749999999913
21
-136.0787640000000067
0
LINE
8
BLACK
6
CONTINUOUS
10
106.0019159999999943
20
-140.6047240000000045
11
106.1534599999999955
21
-137.7130929999999864
0
ARC
8
BLACK
10
97.1397889999999933
20
-140.422286999999983
40
1.4439092902616839
50
-5.31718276
51
90.22657916
0
ARC
8
BLACK
10
99.3069429999999898
20
-135.57944999999998
40
0.4999992348194145
50
-183.00000711
51
-93.00000711
0
CIRCLE
8
BLACK
10
90.6684240000000017
20
-142.1157019999999989
40
0.499999
0
CIRCLE
8
BLACK
10
96.1608859999999908
20
-142.4035499999999956
40
1.
0
CIRCLE
8
BLACK
10
101.653347999999994
20
-142.6913979999999924
40
0.5
0
LINE
8
BLACK
6
CONTINUOUS
10
114.8037579999999878
20
-197.6653049999999894
11
114.0543229999999966
21
-200.46223999999998
0
LINE
8
BLACK
6
CONTINUOUS
10
116.2708089999999999
20
-201.6516369999999938
11
116.4196819999999946
21
-201.096035999999998
0
LINE
8
BLACK
6
CONTINUOUS
10
116.2708089999999999
20
-201.6516369999999938
11
116.6243629999999882
21
-202.2640089999999873
0
LINE
8
BLACK
6
CONTINUOUS
10
116.4196819999999946
20
-201.096035999999998
11
114.0543229999999966
21
-200.46223999999998
0
LINE
8
BLACK
6
CONTINUOUS
10
116.6243629999999882
20
-202.2640089999999873
11
119.054631999999998
21
-202.9151980000000037
0
LINE
8
BLACK
6
CONTINUOUS
10
117.1691189999999949
20
-198.2991020000000049
11
114.8037579999999878
21
-197.6653049999999894
0
LINE
8
BLACK
6
CONTINUOUS
10
117.1691189999999949
20
-198.2991020000000049
11
117.3081559999999968
21
-197.7802059999999926
0
LINE
8
BLACK
6
CONTINUOUS
10
117.3081559999999968
20
-197.7802059999999926
11
117.9205289999999877
21
-197.4266529999999875
0
LINE
8
BLACK
6
CONTINUOUS
10
117.9205289999999877
20
-197.4266529999999875
11
121.3089959999999934
21
-198.3345899999999915
0
LINE
8
BLACK
6
CONTINUOUS
10
119.9573010000000011
20
-205.4346749999999986
11
124.7560209999999898
21
-206.7204879999999889
0
LINE
8
BLACK
6
CONTINUOUS
10
120.1384749999999997
20
-204.7585269999999866
11
119.9573010000000011
21
-205.4346749999999986
0
LINE
8
BLACK
6
CONTINUOUS
10
121.3089959999999934
20
-198.3345899999999915
11
121.662549999999996
21
-198.946961999999985
0
LINE
8
BLACK
6
CONTINUOUS
10
121.4037309999999934
20
-199.912887999999981
11
121.662549999999996
21
-198.946961999999985
0
LINE
8
BLACK
6
CONTINUOUS
10
124.7560209999999898
20
-206.7204879999999889
11
125.0251929999999874
21
-205.7159249999999986
0
LINE
8
BLACK
6
CONTINUOUS
10
125.0251929999999874
20
-205.7159249999999986
11
127.3905519999999996
21
-206.3497209999999882
0
LINE
8
BLACK
6
CONTINUOUS
10
125.7746289999999902
20
-202.9189899999999795
11
126.1039499999999975
21
-201.689945999999992
0
LINE
8
BLACK
6
CONTINUOUS
10
125.7746289999999902
20
-202.9189899999999795
11
128.1399879999999882
21
-203.552786999999995
0
LINE
8
BLACK
6
CONTINUOUS
10
126.1039499999999975
20
-201.689945999999992
11
121.7572839999999985
21
-200.5252610000000004
0
LINE
8
BLACK
6
CONTINUOUS
10
127.3905519999999996
20
-206.3497209999999882
11
128.1399879999999882
21
-203.552786999999995
0
ARC
8
BLACK
10
118.7600139999999982
20
-204.3287299999999789
40
1.4439087509077573
50
-17.31720808
51
78.22657680
0
ARC
8
BLACK
10
121.8866939999999914
20
-200.0422979999999882
40
0.5000002074689569
50
-195.00005027
51
-105.00005027
0
CIRCLE
8
BLACK
10
112.077982999999989
20
-204.6396680000000003
40
0.5
0
CIRCLE
8
BLACK
10
117.3905749999999983
20
-206.0631729999999777
40
1.
0
CIRCLE
8
BLACK
10
122.7031669999999934
20
-207.4866779999999835
40
0.5
0
LINE
8
BLACK
6
CONTINUOUS
10
101.7562789999999922
20
-179.3496459999999786
11
101.7562789999999922
21
-183.5312459999999817
0
LINE
8
BLACK
6
CONTINUOUS
10
102.2562789999999922
20
-184.0312459999999817
11
103.2882789999999886
21
-184.0312459999999817
0
LINE
8
BLACK
6
CONTINUOUS
10
103.2882789999999886
20
-178.8496459999999786
11
102.2562789999999922
21
-178.8496459999999786
0
LINE
8
BLACK
6
CONTINUOUS
10
103.7882789999999886
20
-183.5312459999999817
11
103.7882789999999886
21
-179.3496459999999786
0
ARC
8
BLACK
10
102.2562789999999922
20
-179.3496459999999786
40
0.5
50
90.00000000
51
180.00000000
0
ARC
8
BLACK
10
102.2562799999999896
20
-183.5312449999999842
40
0.500001000001
50
-179.99988541
51
-90.00011459
0
ARC
8
BLACK
10
103.2882789999999886
20
-179.3496459999999786
40
0.5
50
0.00000000
51
90.00000000
0
ARC
8
BLACK
10
103.2882779999999912
20
-183.5312449999999842
40
0.500001000001
50
-89.99988541
51
-0.00011459
0
LINE
8
BLACK
6
CONTINUOUS
10
83.3753639999999905
20
-157.3450780000000009
11
83.3753639999999905
21
-161.526678000000004
0
LINE
8
BLACK
6
CONTINUOUS
10
83.8753639999999905
20
-162.026678000000004
11
84.9073640000000012
21
-162.026678000000004
0
LINE
8
BLACK
6
CONTINUOUS
10
84.9073640000000012
20
-156.8450780000000009
11
83.8753639999999905
21
-156.8450780000000009
0
LINE
8
BLACK
6
CONTINUOUS
10
85.4073640000000012
20
-161.526678000000004
11
85.4073640000000012
21
-157.3450780000000009
0
ARC
8
BLACK
10
83.8753639999999905
20
-157.3450780000000009
40
0.5
50
90.00000000
51
180.00000000
0
ARC
8
BLACK
10
83.8753650000000022
20
-161.5266770000000065
40
0.500001000001
50
-179.99988541
51
-90.00011459
0
ARC
8
BLACK
10
84.9073640000000012
20
-157.3450780000000009
40
0.5
50
0.00000000
51
90.00000000
0
ARC
8
BLACK
10
84.9073629999999895
20
-161.5266770000000065
40
0.500001000001
50
-89.99988541
51
-0.00011459
0
LINE
8
BLACK
6
CONTINUOUS
10
121.9280539999999888
20
-41.7910609999999991
11
121.1953509999999881
21
-55.7718739999999968
0
LINE
8
BLACK
6
CONTINUOUS
10
121.1953509999999881
20
-55.7718739999999968
11
107.2145379999999903
21
-55.0391709999999961
0
LINE
8
BLACK
6
CONTINUOUS
10
107.2145379999999903
20
-55.0391709999999961
11
107.9472409999999911
21
-41.0583579999999984
0
LINE
8
BLACK
6
CONTINUOUS
10
107.9472409999999911
20
-41.0583579999999984
11
121.9280539999999888
21
-41.7910609999999991
0
LINE
8
BLACK
6
CONTINUOUS
10
33.5898809999999983
20
-156.5460689999999886
11
33.6909360000000007
21
-159.4399049999999818
0
LINE
8
BLACK
6
CONTINUOUS
10
36.0184409999999957
20
-155.9237339999999961
11
36.5006869999999992
21
-155.4065889999999968
0
LINE
8
BLACK
6
CONTINUOUS
10
36.0371889999999979
20
-156.4606069999999818
11
33.5898809999999983
21
-156.5460689999999886
0
LINE
8
BLACK
6
CONTINUOUS
10
36.0371889999999979
20
-156.4606069999999818
11
36.0184409999999957
21
-155.9237339999999961
0
LINE
8
BLACK
6
CONTINUOUS
10
36.1382440000000003
20
-159.3544430000000034
11
33.6909360000000007
21
-159.4399049999999818
0
LINE
8
BLACK
6
CONTINUOUS
10
36.1583189999999988
20
-159.9292930000000013
11
36.1382440000000003
21
-159.3544430000000034
0
LINE
8
BLACK
6
CONTINUOUS
10
36.1583189999999988
20
-159.9292930000000013
11
36.6754639999999981
21
-160.4115379999999789
0
LINE
8
BLACK
6
CONTINUOUS
10
36.5006869999999992
20
-155.4065889999999968
11
40.0065499999999972
21
-155.2841619999999807
0
LINE
8
BLACK
6
CONTINUOUS
10
36.6754639999999981
20
-160.4115379999999789
11
39.1899310000000014
21
-160.3237309999999809
0
LINE
8
BLACK
6
CONTINUOUS
10
40.0065499999999972
20
-155.2841619999999807
11
40.5236949999999965
21
-155.7664069999999867
0
LINE
8
BLACK
6
CONTINUOUS
10
40.5585949999999968
20
-156.7657979999999895
11
40.5236949999999965
21
-155.7664069999999867
0
LINE
8
BLACK
6
CONTINUOUS
10
40.765352
20
-161.769631000000004
11
40.7897819999999953
21
-162.4692039999999906
0
LINE
8
BLACK
6
CONTINUOUS
10
40.7897819999999953
20
-162.4692039999999906
11
45.7547549999999958
21
-162.2958239999999819
0
LINE
8
BLACK
6
CONTINUOUS
10
45.5729989999999958
20
-157.0909959999999899
11
41.0757399999999961
21
-157.248043999999993
0
LINE
8
BLACK
6
CONTINUOUS
10
45.617404999999998
20
-158.3626209999999901
11
45.5729989999999958
21
-157.0909959999999899
0
LINE
8
BLACK
6
CONTINUOUS
10
45.617404999999998
20
-158.3626209999999901
11
48.0647129999999976
21
-158.2771589999999833
0
LINE
8
BLACK
6
CONTINUOUS
10
45.7184600000000003
20
-161.2564569999999833
11
48.1657679999999999
21
-161.1709950000000049
0
LINE
8
BLACK
6
CONTINUOUS
10
45.7547549999999958
20
-162.2958239999999819
11
45.7184600000000003
21
-161.2564569999999833
0
LINE
8
BLACK
6
CONTINUOUS
10
48.1657679999999999
20
-161.1709950000000049
11
48.0647129999999976
21
-158.2771589999999833
0
ARC
8
BLACK
10
39.3214630000000014
20
-161.761636999999979
40
1.4439093918456241
50
-0.31721121
51
95.22656786
0
ARC
8
BLACK
10
41.0582899999999995
20
-156.7483489999999904
40
0.4999995955248364
50
-178.00008405
51
-87.99996953
0
CIRCLE
8
BLACK
10
33.0223140000000015
20
-164.0126249999999857
40
0.500001
0
CIRCLE
8
BLACK
10
38.5189639999999969
20
-163.8206779999999867
40
1.
0
CIRCLE
8
BLACK
10
44.0156139999999994
20
-163.6287309999999877
40
0.5
0
LINE
8
BLACK
6
CONTINUOUS
10
241.9789389999999969
20
-158.0426740000000052
11
241.8778839999999946
21
-160.9365099999999984
0
LINE
8
BLACK
6
CONTINUOUS
10
244.3051189999999906
20
-161.5968220000000031
11
244.325191999999987
21
-161.0219720000000052
0
LINE
8
BLACK
6
CONTINUOUS
10
244.3051189999999906
20
-161.5968220000000031
11
244.7873639999999966
21
-162.1139660000000049
0
LINE
8
BLACK
6
CONTINUOUS
10
244.325191999999987
20
-161.0219720000000052
11
241.8778839999999946
21
-160.9365099999999984
0
LINE
8
BLACK
6
CONTINUOUS
10
244.4262469999999894
20
-158.1281359999999836
11
241.9789389999999969
21
-158.0426740000000052
0
LINE
8
BLACK
6
CONTINUOUS
10
244.4262469999999894
20
-158.1281359999999836
11
244.4449949999999774
21
-157.5912629999999979
0
LINE
8
BLACK
6
CONTINUOUS
10
244.4449949999999774
20
-157.5912629999999979
11
244.9621410000000026
21
-157.1090169999999944
0
LINE
8
BLACK
6
CONTINUOUS
10
244.7873639999999966
20
-162.1139660000000049
11
247.3018309999999929
21
-162.2017740000000003
0
LINE
8
BLACK
6
CONTINUOUS
10
244.9621410000000026
20
-157.1090169999999944
11
248.4680039999999792
21
-157.2314449999999795
0
LINE
8
BLACK
6
CONTINUOUS
10
248.4680039999999792
20
-157.2314449999999795
11
248.9502489999999852
21
-157.7485899999999788
0
LINE
8
BLACK
6
CONTINUOUS
10
248.74812399999999
20
-164.4536200000000008
11
253.7130969999999763
21
-164.6270020000000045
0
LINE
8
BLACK
6
CONTINUOUS
10
248.7725539999999853
20
-163.7540469999999857
11
248.74812399999999
21
-164.4536200000000008
0
LINE
8
BLACK
6
CONTINUOUS
10
248.9153499999999894
20
-158.7479809999999816
11
248.9502489999999852
21
-157.7485899999999788
0
LINE
8
BLACK
6
CONTINUOUS
10
253.7130969999999763
20
-164.6270020000000045
11
253.7493929999999978
21
-163.5876350000000059
0
LINE
8
BLACK
6
CONTINUOUS
10
253.7493929999999978
20
-163.5876350000000059
11
256.1967009999999618
21
-163.6730969999999843
0
LINE
8
BLACK
6
CONTINUOUS
10
253.8504480000000001
20
-160.6937989999999843
11
253.8948549999999784
21
-159.4221739999999841
0
LINE
8
BLACK
6
CONTINUOUS
10
253.8504480000000001
20
-160.6937989999999843
11
256.2977559999999926
21
-160.7792609999999911
0
LINE
8
BLACK
6
CONTINUOUS
10
253.8948549999999784
20
-159.4221739999999841
11
249.3975899999999797
21
-159.2651259999999809
0
LINE
8
BLACK
6
CONTINUOUS
10
256.1967009999999618
20
-163.6730969999999843
11
256.2977559999999926
21
-160.7792609999999911
0
ARC
8
BLACK
10
247.3327400000000011
20
-163.6453520000000026
40
1.4439088642864548
50
-4.31720636
51
91.22659440
0
ARC
8
BLACK
10
249.4150449999999921
20
-158.7654310000000066
40
0.4999997700499471
50
-182.00003047
51
-92.00060308
0
CIRCLE
8
BLACK
10
240.8919139999999857
20
-165.4514509999999916
40
0.500001
0
CIRCLE
8
BLACK
10
246.3885640000000024
20
-165.6433979999999906
40
1.
0
CIRCLE
8
BLACK
10
251.8852139999999906
20
-165.8353449999999896
40
0.5
0
LINE
8
BLACK
6
CONTINUOUS
10
121.1873489999999975
20
-96.4099749999999887
11
122.7402639999999963
21
-90.6144199999999955
0
LINE
8
BLACK
6
CONTINUOUS
10
121.5409030000000001
20
-97.0223469999999963
11
127.3364579999999933
21
-98.5752619999999951
0
LINE
8
BLACK
6
CONTINUOUS
10
123.3526359999999897
20
-90.2608659999999929
11
129.1481909999999971
21
-91.8137809999999916
0
LINE
8
BLACK
6
CONTINUOUS
10
129.5017449999999997
20
-92.4261529999999993
11
127.948830000000001
21
-98.2217079999999925
0
ARC
8
BLACK
10
121.6703139999999905
20
-96.5393839999999983
40
0.5000004662897826
50
-194.99988027
51
-105.00016096
0
ARC
8
BLACK
10
123.2232269999999943
20
-90.743828999999991
40
0.4999999486499974
50
75.00006042
51
165.00006042
0
ARC
8
BLACK
10
127.4658669999999887
20
-98.0922970000000021
40
0.5000004662897826
50
-104.99988027
51
-15.00016096
0
ARC
8
BLACK
10
129.0187819999999874
20
-92.2967439999999897
40
0.4999999486499974
50
-14.99993958
51
75.00006042
0
LINE
8
BLACK
6
CONTINUOUS
10
121.337931999999995
20
-58.7834639999999951
11
120.6052289999999942
21
-72.7642769999999928
0
LINE
8
BLACK
6
CONTINUOUS
10
120.6052289999999942
20
-72.7642769999999928
11
106.6244159999999965
21
-72.031573999999992
0
LINE
8
BLACK
6
CONTINUOUS
10
106.6244159999999965
20
-72.031573999999992
11
107.3571189999999973
21
-58.0507609999999943
0
LINE
8
BLACK
6
CONTINUOUS
10
107.3571189999999973
20
-58.0507609999999943
11
121.337931999999995
21
-58.7834639999999951
0
LINE
8
BLACK
6
CONTINUOUS
10
215.6677639999999769
20
-69.3893979999999999
11
201.6677639999999769
21
-69.3893979999999999
0
LINE
8
BLACK
6
CONTINUOUS
10
201.6677639999999769
20
-69.3893979999999999
11
201.6677639999999769
21
-83.3893979999999999
0
LINE
8
BLACK
6
CONTINUOUS
10
201.6677639999999769
20
-83.3893979999999999
11
215.6677639999999769
21
-83.3893979999999999
0
LINE
8
BLACK
6
CONTINUOUS
10
215.6677639999999769
20
-83.3893979999999999
11
215.6677639999999769
21
-69.3893979999999999
0
LINE
8
BLACK
6
CONTINUOUS
10
235.9365639999999757
20
-186.2761979999999937
11
235.9365639999999757
21
-182.0945979999999906
0
LINE
8
BLACK
6
CONTINUOUS
10
236.4365639999999757
20
-181.5945979999999906
11
237.4685639999999864
21
-181.5945979999999906
0
LINE
8
BLACK
6
CONTINUOUS
10
237.4685639999999864
20
-186.7761979999999937
11
236.4365639999999757
21
-186.7761979999999937
0
LINE
8
BLACK
6
CONTINUOUS
10
237.9685639999999864
20
-182.0945979999999906
11
237.9685639999999864
21
-186.2761979999999937
0
ARC
8
BLACK
10
236.4365639999999757
20
-182.0945979999999906
40
0.5
50
90.00000000
51
180.00000000
0
ARC
8
BLACK
10
236.4365650000000016
20
-186.2761969999999963
40
0.500001000001
50
-179.99988541
51
-90.00011459
0
ARC
8
BLACK
10
237.4685639999999864
20
-182.0945979999999906
40
0.5
50
0.00000000
51
90.00000000
0
ARC
8
BLACK
10
237.468562999999989
20
-186.2761969999999963
40
0.500001000001
50
-89.99988541
51
-0.00011459
0
LINE
8
BLACK
6
CONTINUOUS
10
233.9675639999999817
20
-55.1893979999999971
11
219.9675639999999817
21
-55.1893979999999971
0
LINE
8
BLACK
6
CONTINUOUS
10
219.9675639999999817
20
-55.1893979999999971
11
219.9675639999999817
21
-69.1893979999999971
0
LINE
8
BLACK
6
CONTINUOUS
10
219.9675639999999817
20
-69.1893979999999971
11
233.9675639999999817
21
-69.1893979999999971
0
LINE
8
BLACK
6
CONTINUOUS
10
233.9675639999999817
20
-69.1893979999999971
11
233.9675639999999817
21
-55.1893979999999971
0
LINE
8
BLACK
6
CONTINUOUS
10
253.3073959999999829
20
-76.2377589999999969
11
252.8188030000000026
21
-90.2292300000000012
0
LINE
8
BLACK
6
CONTINUOUS
10
252.8188030000000026
20
-90.2292300000000012
11
238.8273319999999842
21
-89.7406369999999924
0
LINE
8
BLACK
6
CONTINUOUS
10
238.8273319999999842
20
-89.7406369999999924
11
239.3159249999999929
21
-75.7491660000000024
0
LINE
8
BLACK
6
CONTINUOUS
10
239.3159249999999929
20
-75.7491660000000024
11
253.3073959999999829
21
-76.2377589999999969
0
LINE
8
BLACK
6
CONTINUOUS
10
196.1033999999999935
20
-50.850324999999998
11
182.1225869999999816
21
-51.5830279999999988
0
LINE
8
BLACK
6
CONTINUOUS
10
182.1225869999999816
20
-51.5830279999999988
11
181.389883999999995
21
-37.6022150000000011
0
LINE
8
BLACK
6
CONTINUOUS
10
181.389883999999995
20
-37.6022150000000011
11
195.3706969999999785
21
-36.8695120000000003
0
LINE
8
BLACK
6
CONTINUOUS
10
195.3706969999999785
20
-36.8695120000000003
11
196.1033999999999935
21
-50.850324999999998
0
LINE
8
BLACK
6
CONTINUOUS
10
162.5685639999999808
20
-174.0841979999999865
11
162.5685639999999808
21
-169.9025979999999834
0
LINE
8
BLACK
6
CONTINUOUS
10
163.0685639999999808
20
-169.4025979999999834
11
164.1005639999999914
21
-169.4025979999999834
0
LINE
8
BLACK
6
CONTINUOUS
10
164.1005639999999914
20
-174.5841979999999865
11
163.0685639999999808
21
-174.5841979999999865
0
LINE
8
BLACK
6
CONTINUOUS
10
164.6005639999999914
20
-169.9025979999999834
11
164.6005639999999914
21
-174.0841979999999865
0
ARC
8
BLACK
10
163.0685639999999808
20
-169.9025979999999834
40
0.5
50
90.00000000
51
180.00000000
0
ARC
8
BLACK
10
163.0685650000000066
20
-174.084196999999989
40
0.500001000001
50
-179.99988541
51
-90.00011459
0
ARC
8
BLACK
10
164.1005639999999914
20
-169.9025979999999834
40
0.5
50
0.00000000
51
90.00000000
0
ARC
8
BLACK
10
164.100562999999994
20
-174.084196999999989
40
0.500001000001
50
-89.99988541
51
-0.00011459
0
LINE
8
BLACK
6
CONTINUOUS
10
199.5001639999999838
20
-180.316597999999999
11
199.5001639999999838
21
-176.134997999999996
0
LINE
8
BLACK
6
CONTINUOUS
10
200.0001639999999838
20
-175.634997999999996
11
201.0321639999999945
21
-175.634997999999996
0
LINE
8
BLACK
6
CONTINUOUS
10
201.0321639999999945
20
-180.816597999999999
11
200.0001639999999838
21
-180.816597999999999
0
LINE
8
BLACK
6
CONTINUOUS
10
201.5321639999999945
20
-176.134997999999996
11
201.5321639999999945
21
-180.316597999999999
0
ARC
8
BLACK
10
200.0001639999999838
20
-176.134997999999996
40
0.5
50
90.00000000
51
180.00000000
0
ARC
8
BLACK
10
200.0001649999999813
20
-180.3165970000000016
40
0.500001000001
50
-179.99988541
51
-90.00011459
0
ARC
8
BLACK
10
201.0321639999999945
20
-176.134997999999996
40
0.5
50
0.00000000
51
90.00000000
0
ARC
8
BLACK
10
201.0321629999999971
20
-180.3165970000000016
40
0.500001000001
50
-89.99988541
51
-0.00011459
0
LINE
8
BLACK
6
CONTINUOUS
10
217.4357639999999776
20
-166.0925979999999811
11
217.4357639999999776
21
-161.9109980000000064
0
LINE
8
BLACK
6
CONTINUOUS
10
217.9357639999999776
20
-161.4109980000000064
11
218.9677639999999883
21
-161.4109980000000064
0
LINE
8
BLACK
6
CONTINUOUS
10
218.9677639999999883
20
-166.5925979999999811
11
217.9357639999999776
21
-166.5925979999999811
0
LINE
8
BLACK
6
CONTINUOUS
10
219.4677639999999883
20
-161.9109980000000064
11
219.4677639999999883
21
-166.0925979999999811
0
ARC
8
BLACK
10
217.9357639999999776
20
-161.9109980000000064
40
0.5
50
90.00000000
51
180.00000000
0
ARC
8
BLACK
10
217.9357650000000035
20
-166.0925969999999836
40
0.500001000001
50
-179.99988541
51
-90.00011459
0
ARC
8
BLACK
10
218.9677639999999883
20
-161.9109980000000064
40
0.5
50
0.00000000
51
90.00000000
0
ARC
8
BLACK
10
218.9677629999999908
20
-166.0925969999999836
40
0.500001000001
50
-89.99988541
51
-0.00011459
0
LINE
8
BLACK
6
CONTINUOUS
10
199.5001639999999838
20
-146.5853979999999979
11
199.5001639999999838
21
-142.4037979999999948
0
LINE
8
BLACK
6
CONTINUOUS
10
200.0001639999999838
20
-141.9037979999999948
11
201.0321639999999945
21
-141.9037979999999948
0
LINE
8
BLACK
6
CONTINUOUS
10
201.0321639999999945
20
-147.0853979999999979
11
200.0001639999999838
21
-147.0853979999999979
0
LINE
8
BLACK
6
CONTINUOUS
10
201.5321639999999945
20
-142.4037979999999948
11
201.5321639999999945
21
-146.5853979999999979
0
ARC
8
BLACK
10
200.0001639999999838
20
-142.4037979999999948
40
0.5
50
90.00000000
51
180.00000000
0
ARC
8
BLACK
10
200.0001649999999813
20
-146.5853970000000004
40
0.500001000001
50
-179.99988541
51
-90.00011459
0
ARC
8
BLACK
10
201.0321639999999945
20
-142.4037979999999948
40
0.5
50
0.00000000
51
90.00000000
0
ARC
8
BLACK
10
201.0321629999999971
20
-146.5853970000000004
40
0.500001000001
50
-89.99988541
51
-0.00011459
0
LINE
8
BLACK
6
CONTINUOUS
10
174.6589639999999974
20
-209.7965979999999888
11
174.6589639999999974
21
-205.6149979999999857
0
LINE
8
BLACK
6
CONTINUOUS
10
175.1589639999999974
20
-205.1149979999999857
11
176.1909639999999797
21
-205.1149979999999857
0
LINE
8
BLACK
6
CONTINUOUS
10
176.1909639999999797
20
-210.2965979999999888
11
175.1589639999999974
21
-210.2965979999999888
0
LINE
8
BLACK
6
CONTINUOUS
10
176.6909639999999797
20
-205.6149979999999857
11
176.6909639999999797
21
-209.7965979999999888
0
ARC
8
BLACK
10
175.1589649999999949
20
-205.6149989999999832
40
0.500001000001
50
90.00011459
51
179.99988541
0
ARC
8
BLACK
10
175.1589639999999974
20
-209.7965979999999888
40
0.5
50
-180.00000000
51
-90.00000000
0
ARC
8
BLACK
10
176.1909629999999822
20
-205.6149989999999832
40
0.500001000001
50
0.00011459
51
89.99988541
0
ARC
8
BLACK
10
176.1909639999999797
20
-209.7965979999999888
40
0.5
50
-90.00000000
51
-0.00000000
0
LINE
8
BLACK
6
CONTINUOUS
10
178.2831119999999885
20
-73.8542939999999959
11
164.302299000000005
21
-74.5869969999999967
0
LINE
8
BLACK
6
CONTINUOUS
10
164.302299000000005
20
-74.5869969999999967
11
163.56959599999999
21
-60.6061839999999989
0
LINE
8
BLACK
6
CONTINUOUS
10
163.56959599999999
20
-60.6061839999999989
11
177.5504090000000019
21
-59.8734809999999982
0
LINE
8
BLACK
6
CONTINUOUS
10
177.5504090000000019
20
-59.8734809999999982
11
178.2831119999999885
21
-73.8542939999999959
0
LINE
8
BLACK
6
CONTINUOUS
10
177.6815639999999803
20
-209.3393979999999885
11
177.6815639999999803
21
-205.1577979999999854
0
LINE
8
BLACK
6
CONTINUOUS
10
178.1815639999999803
20
-204.6577979999999854
11
179.213563999999991
21
-204.6577979999999854
0
LINE
8
BLACK
6
CONTINUOUS
10
179.213563999999991
20
-209.8393979999999885
11
178.1815639999999803
21
-209.8393979999999885
0
LINE
8
BLACK
6
CONTINUOUS
10
179.713563999999991
20
-205.1577979999999854
11
179.713563999999991
21
-209.3393979999999885
0
ARC
8
BLACK
10
178.1815639999999803
20
-205.1577979999999854
40
0.5
50
90.00000000
51
180.00000000
0
ARC
8
BLACK
10
178.1815649999999778
20
-209.3393969999999911
40
0.500001000001
50
-179.99988541
51
-90.00011459
0
ARC
8
BLACK
10
179.213563999999991
20
-205.1577979999999854
40
0.5
50
0.00000000
51
90.00000000
0
ARC
8
BLACK
10
179.2135629999999935
20
-209.3393969999999911
40
0.500001000001
50
-89.99988541
51
-0.00011459
0
LINE
8
BLACK
6
CONTINUOUS
10
199.5001639999999838
20
-163.3493979999999794
11
199.5001639999999838
21
-159.1677980000000048
0
LINE
8
BLACK
6
CONTINUOUS
10
200.0001639999999838
20
-158.6677980000000048
11
201.0321639999999945
21
-158.6677980000000048
0
LINE
8
BLACK
6
CONTINUOUS
10
201.0321639999999945
20
-163.8493979999999794
11
200.0001639999999838
21
-163.8493979999999794
0
LINE
8
BLACK
6
CONTINUOUS
10
201.5321639999999945
20
-159.1677980000000048
11
201.5321639999999945
21
-163.3493979999999794
0
ARC
8
BLACK
10
200.0001639999999838
20
-159.1677980000000048
40
0.5
50
90.00000000
51
180.00000000
0
ARC
8
BLACK
10
200.0001649999999813
20
-163.349396999999982
40
0.500001000001
50
-179.99988541
51
-90.00011459
0
ARC
8
BLACK
10
201.0321639999999945
20
-159.1677980000000048
40
0.5
50
0.00000000
51
90.00000000
0
ARC
8
BLACK
10
201.0321629999999971
20
-163.349396999999982
40
0.500001000001
50
-89.99988541
51
-0.00011459
0
LINE
8
BLACK
6
CONTINUOUS
10
179.0693219999999997
20
-90.8414629999999903
11
165.0885089999999877
21
-91.5741659999999911
0
LINE
8
BLACK
6
CONTINUOUS
10
165.0885089999999877
20
-91.5741659999999911
11
164.3558060000000012
21
-77.5933529999999934
0
LINE
8
BLACK
6
CONTINUOUS
10
164.3558060000000012
20
-77.5933529999999934
11
178.3366189999999847
21
-76.8606499999999926
0
LINE
8
BLACK
6
CONTINUOUS
10
178.3366189999999847
20
-76.8606499999999926
11
179.0693219999999997
21
-90.8414629999999903
0
LINE
8
BLACK
6
CONTINUOUS
10
253.6285959999999875
20
-58.8919589999999999
11
253.1400029999999788
21
-72.8834299999999899
0
LINE
8
BLACK
6
CONTINUOUS
10
253.1400029999999788
20
-72.8834299999999899
11
239.1485319999999888
21
-72.3948369999999954
0
LINE
8
BLACK
6
CONTINUOUS
10
239.1485319999999888
20
-72.3948369999999954
11
239.6371249999999975
21
-58.4033659999999983
0
LINE
8
BLACK
6
CONTINUOUS
10
239.6371249999999975
20
-58.4033659999999983
11
253.6285959999999875
21
-58.8919589999999999
0
LINE
8
BLACK
6
CONTINUOUS
10
176.0901669999999797
20
-112.8356399999999979
11
162.5672059999999988
21
-116.4591069999999888
0
LINE
8
BLACK
6
CONTINUOUS
10
162.5672059999999988
20
-116.4591069999999888
11
158.9437389999999937
21
-102.9361459999999937
0
LINE
8
BLACK
6
CONTINUOUS
10
158.9437389999999937
20
-102.9361459999999937
11
172.466700000000003
21
-99.3126789999999886
0
LINE
8
BLACK
6
CONTINUOUS
10
172.466700000000003
20
-99.3126789999999886
11
176.0901669999999797
21
-112.8356399999999979
0
LINE
8
BLACK
6
CONTINUOUS
10
233.9675639999999817
20
-37.544398000000001
11
219.9675639999999817
21
-37.544398000000001
0
LINE
8
BLACK
6
CONTINUOUS
10
219.9675639999999817
20
-37.544398000000001
11
219.9675639999999817
21
-51.544398000000001
0
LINE
8
BLACK
6
CONTINUOUS
10
219.9675639999999817
20
-51.544398000000001
11
233.9675639999999817
21
-51.544398000000001
0
LINE
8
BLACK
6
CONTINUOUS
10
233.9675639999999817
20
-51.544398000000001
11
233.9675639999999817
21
-37.544398000000001
0
LINE
8
BLACK
6
CONTINUOUS
10
233.9675639999999817
20
-72.1893979999999971
11
219.9675639999999817
21
-72.1893979999999971
0
LINE
8
BLACK
6
CONTINUOUS
10
219.9675639999999817
20
-72.1893979999999971
11
219.9675639999999817
21
-86.1893979999999971
0
LINE
8
BLACK
6
CONTINUOUS
10
219.9675639999999817
20
-86.1893979999999971
11
233.9675639999999817
21
-86.1893979999999971
0
LINE
8
BLACK
6
CONTINUOUS
10
233.9675639999999817
20
-86.1893979999999971
11
233.9675639999999817
21
-72.1893979999999971
0
LINE
8
BLACK
6
CONTINUOUS
10
181.1192489999999964
20
-185.3539659999999856
11
181.1192489999999964
21
-181.1723659999999825
0
LINE
8
BLACK
6
CONTINUOUS
10
181.6192489999999964
20
-180.6723659999999825
11
182.6512489999999787
21
-180.6723659999999825
0
LINE
8
BLACK
6
CONTINUOUS
10
182.6512489999999787
20
-185.8539659999999856
11
181.6192489999999964
21
-185.8539659999999856
0
LINE
8
BLACK
6
CONTINUOUS
10
183.1512489999999787
20
-181.1723659999999825
11
183.1512489999999787
21
-185.3539659999999856
0
ARC
8
BLACK
10
181.6192489999999964
20
-181.1723659999999825
40
0.5
50
90.00000000
51
180.00000000
0
ARC
8
BLACK
10
181.6192499999999939
20
-185.3539649999999881
40
0.500001000001
50
-179.99988541
51
-90.00011459
0
ARC
8
BLACK
10
182.6512489999999787
20
-181.1723659999999825
40
0.5
50
0.00000000
51
90.00000000
0
ARC
8
BLACK
10
182.6512479999999812
20
-185.3539649999999881
40
0.500001000001
50
-89.99988541
51
-0.00011459
0
LINE
8
BLACK
6
CONTINUOUS
10
180.6199340000000007
20
-151.5813339999999982
11
180.6199340000000007
21
-147.3997339999999951
0
LINE
8
BLACK
6
CONTINUOUS
10
181.1199340000000007
20
-146.8997339999999951
11
182.1519339999999829
21
-146.8997339999999951
0
LINE
8
BLACK
6
CONTINUOUS
10
182.1519339999999829
20
-152.0813339999999982
11
181.1199340000000007
21
-152.0813339999999982
0
LINE
8
BLACK
6
CONTINUOUS
10
182.6519339999999829
20
-147.3997339999999951
11
182.6519339999999829
21
-151.5813339999999982
0
ARC
8
BLACK
10
181.1199340000000007
20
-147.3997339999999951
40
0.5
50
90.00000000
51
180.00000000
0
ARC
8
BLACK
10
181.1199349999999981
20
-151.5813330000000008
40
0.500001000001
50
-179.99988541
51
-90.00011459
0
ARC
8
BLACK
10
182.1519339999999829
20
-147.3997339999999951
40
0.5
50
0.00000000
51
90.00000000
0
ARC
8
BLACK
10
182.1519329999999854
20
-151.5813330000000008
40
0.500001000001
50
-89.99988541
51
-0.00011459
0
LINE
8
BLACK
6
CONTINUOUS
10
155.4057829999999853
20
-94.248872999999989
11
156.9586979999999983
21
-100.0444279999999964
0
LINE
8
BLACK
6
CONTINUOUS
10
161.5548919999999953
20
-92.0835859999999968
11
155.7593369999999879
21
-93.6365009999999955
0
LINE
8
BLACK
6
CONTINUOUS
10
163.3666249999999991
20
-98.8450670000000002
11
157.5710699999999918
21
-100.3979819999999989
0
LINE
8
BLACK
6
CONTINUOUS
10
163.7201790000000017
20
-98.2326949999999925
11
162.1672639999999888
21
-92.4371399999999994
0
ARC
8
BLACK
10
155.8887459999999976
20
-94.1194639999999936
40
0.4999999486499974
50
-255.00006042
51
-165.00006042
0
ARC
8
BLACK
10
157.4416609999999821
20
-99.9150190000000009
40
0.4999999486499974
50
-165.00006042
51
-75.00006042
0
ARC
8
BLACK
10
161.6843010000000049
20
-92.5665489999999949
40
0.4999999486499974
50
14.99993958
51
104.99993958
0
ARC
8
BLACK
10
163.2372159999999894
20
-98.3621040000000022
40
0.4999999486499974
50
-75.00006042
51
14.99993958
0
LINE
8
BLACK
6
CONTINUOUS
10
215.6677639999999769
20
-52.3893979999999999
11
201.6677639999999769
21
-52.3893979999999999
0
LINE
8
BLACK
6
CONTINUOUS
10
201.6677639999999769
20
-52.3893979999999999
11
201.6677639999999769
21
-66.3893979999999999
0
LINE
8
BLACK
6
CONTINUOUS
10
201.6677639999999769
20
-66.3893979999999999
11
215.6677639999999769
21
-66.3893979999999999
0
LINE
8
BLACK
6
CONTINUOUS
10
215.6677639999999769
20
-66.3893979999999999
11
215.6677639999999769
21
-52.3893979999999999
0
CIRCLE
8
BLACK
10
230.7541659999999979
20
-209.6004419999999868
40
0.7749999999999999
0
CIRCLE
8
BLACK
10
231.6001799999999946
20
-207.1244869999999878
40
0.500001
0
CIRCLE
8
BLACK
10
232.7254470000000026
20
-194.6270459999999787
40
0.7749999999999999
0
CIRCLE
8
BLACK
10
232.901787999999982
20
-197.237797999999998
40
0.5
0
CIRCLE
8
BLACK
10
233.272435999999999
20
-209.9319779999999867
40
0.7749999999999999
0
CIRCLE
8
BLACK
10
233.6147959999999841
20
-207.3897159999999928
40
0.500001
0
CIRCLE
8
BLACK
10
234.916404
20
-197.5030280000000005
40
0.500001
0
CIRCLE
8
BLACK
10
235.2437199999999962
20
-194.9585830000000044
40
0.7749999999999999
0
CIRCLE
8
BLACK
10
235.2868759999999781
20
-207.609848999999997
40
0.5
0
CIRCLE
8
BLACK
10
235.7907050000000027
20
-210.263514999999984
40
0.7749999999999999
0
CIRCLE
8
BLACK
10
236.5884829999999965
20
-197.7231610000000046
40
0.5
0
CIRCLE
8
BLACK
10
237.0396419999999864
20
-207.8406049999999823
40
0.5
0
CIRCLE
8
BLACK
10
237.7619899999999973
20
-195.2901209999999992
40
0.7750009999999999
0
CIRCLE
8
BLACK
10
238.3089749999999754
20
-210.5950509999999838
40
0.7749999999999999
0
CIRCLE
8
BLACK
10
238.3412509999999997
20
-197.9539169999999899
40
0.5
0
CIRCLE
8
BLACK
10
240.2802599999999984
20
-195.6216560000000015
40
0.7749999999999999
0
CIRCLE
8
BLACK
10
240.8272449999999765
20
-210.9265879999999811
40
0.7749999999999999
0
CIRCLE
8
BLACK
10
242.7985299999999995
20
-195.9531929999999988
40
0.7749999999999999
0
CIRCLE
8
BLACK
10
242.8316639999999893
20
-208.6031399999999962
40
0.500001
0
CIRCLE
8
BLACK
10
243.3455149999999776
20
-211.2581239999999809
40
0.774999
0
CIRCLE
8
BLACK
10
244.1332719999999767
20
-198.716450999999978
40
0.5
0
CIRCLE
8
BLACK
10
244.5037439999999833
20
-208.8232730000000004
40
0.5
0
CIRCLE
8
BLACK
10
245.3168000000000006
20
-196.2847289999999987
40
0.7749999999999999
0
CIRCLE
8
BLACK
10
245.8053510000000017
20
-198.9365849999999796
40
0.500001
0
CIRCLE
8
BLACK
10
245.8637849999999787
20
-211.5896609999999782
40
0.7749999999999999
0
CIRCLE
8
BLACK
10
246.2565109999999891
20
-209.0540289999999857
40
0.5
0
CIRCLE
8
BLACK
10
247.5581189999999765
20
-199.1673409999999933
40
0.5
0
CIRCLE
8
BLACK
10
247.8350700000000018
20
-196.616265999999996
40
0.7749999999999999
0
LINE
8
BLACK
6
CONTINUOUS
10
235.9365639999999757
20
-148.4301979999999901
11
235.9365639999999757
21
-144.248597999999987
0
LINE
8
BLACK
6
CONTINUOUS
10
236.4365639999999757
20
-143.748597999999987
11
237.4685639999999864
21
-143.748597999999987
0
LINE
8
BLACK
6
CONTINUOUS
10
237.4685639999999864
20
-148.9301979999999901
11
236.4365639999999757
21
-148.9301979999999901
0
LINE
8
BLACK
6
CONTINUOUS
10
237.9685639999999864
20
-144.248597999999987
11
237.9685639999999864
21
-148.4301979999999901
0
ARC
8
BLACK
10
236.4365639999999757
20
-144.248597999999987
40
0.5
50
90.00000000
51
180.00000000
0
ARC
8
BLACK
10
236.4365650000000016
20
-148.4301969999999926
40
0.500001000001
50
-179.99988541
51
-90.00011459
0
ARC
8
BLACK
10
237.4685639999999864
20
-144.248597999999987
40
0.5
50
0.00000000
51
90.00000000
0
ARC
8
BLACK
10
237.468562999999989
20
-148.4301969999999926
40
0.500001000001
50
-89.99988541
51
-0.00011459
0
LINE
8
BLACK
6
CONTINUOUS
10
177.6929899999999805
20
-56.861891
11
163.712176999999997
21
-57.5945940000000007
0
LINE
8
BLACK
6
CONTINUOUS
10
163.712176999999997
20
-57.5945940000000007
11
162.979473999999982
21
-43.6137809999999959
0
LINE
8
BLACK
6
CONTINUOUS
10
162.979473999999982
20
-43.6137809999999959
11
176.9602869999999939
21
-42.8810779999999951
0
LINE
8
BLACK
6
CONTINUOUS
10
176.9602869999999939
20
-42.8810779999999951
11
177.6929899999999805
21
-56.861891
0
LINE
8
BLACK
6
CONTINUOUS
10
162.6788489999999854
20
-190.62036599999999
11
162.6788489999999854
21
-186.4387659999999869
0
LINE
8
BLACK
6
CONTINUOUS
10
163.1788489999999854
20
-185.9387659999999869
11
164.2108489999999961
21
-185.9387659999999869
0
LINE
8
BLACK
6
CONTINUOUS
10
164.2108489999999961
20
-191.12036599999999
11
163.1788489999999854
21
-191.12036599999999
0
LINE
8
BLACK
6
CONTINUOUS
10
164.7108489999999961
20
-186.4387659999999869
11
164.7108489999999961
21
-190.62036599999999
0
ARC
8
BLACK
10
163.1788489999999854
20
-186.4387659999999869
40
0.5
50
90.00000000
51
180.00000000
0
ARC
8
BLACK
10
163.1788499999999829
20
-190.6203649999999925
40
0.500001000001
50
-179.99988541
51
-90.00011459
0
ARC
8
BLACK
10
164.2108489999999961
20
-186.4387659999999869
40
0.5
50
0.00000000
51
90.00000000
0
ARC
8
BLACK
10
164.2108479999999986
20
-190.6203649999999925
40
0.500001000001
50
-89.99988541
51
-0.00011459
0
LINE
8
BLACK
6
CONTINUOUS
10
236.2472939999999824
20
-169.0598149999999862
11
236.2472939999999824
21
-164.8782149999999831
0
LINE
8
BLACK
6
CONTINUOUS
10
236.7472939999999824
20
-164.3782149999999831
11
237.779293999999993
21
-164.3782149999999831
0
LINE
8
BLACK
6
CONTINUOUS
10
237.779293999999993
20
-169.5598149999999862
11
236.7472939999999824
21
-169.5598149999999862
0
LINE
8
BLACK
6
CONTINUOUS
10
238.279293999999993
20
-164.8782149999999831
11
238.279293999999993
21
-169.0598149999999862
0
ARC
8
BLACK
10
236.7472939999999824
20
-164.8782149999999831
40
0.5
50
90.00000000
51
180.00000000
0
ARC
8
BLACK
10
236.7472949999999798
20
-169.0598139999999887
40
0.500001000001
50
-179.99988541
51
-90.00011459
0
ARC
8
BLACK
10
237.779293999999993
20
-164.8782149999999831
40
0.5
50
0.00000000
51
90.00000000
0
ARC
8
BLACK
10
237.7792929999999956
20
-169.0598139999999887
40
0.500001000001
50
-89.99988541
51
-0.00011459
0
LINE
8
BLACK
6
CONTINUOUS
10
194.7740179999999839
20
-110.0724450000000019
11
180.8937899999999956
21
-111.8998109999999997
0
LINE
8
BLACK
6
CONTINUOUS
10
180.8937899999999956
20
-111.8998109999999997
11
179.0664239999999836
21
-98.0195829999999972
0
LINE
8
BLACK
6
CONTINUOUS
10
179.0664239999999836
20
-98.0195829999999972
11
192.9466520000000003
21
-96.1922169999999994
0
LINE
8
BLACK
6
CONTINUOUS
10
192.9466520000000003
20
-96.1922169999999994
11
194.7740179999999839
21
-110.0724450000000019
0
LINE
8
BLACK
6
CONTINUOUS
10
238.2673639999999864
20
-54.8893979999999999
11
252.2673639999999864
21
-54.8893979999999999
0
LINE
8
BLACK
6
CONTINUOUS
10
252.2673639999999864
20
-54.8893979999999999
11
252.2673639999999864
21
-40.8893979999999999
0
LINE
8
BLACK
6
CONTINUOUS
10
252.2673639999999864
20
-40.8893979999999999
11
238.2673639999999864
21
-40.8893979999999999
0
LINE
8
BLACK
6
CONTINUOUS
10
238.2673639999999864
20
-40.8893979999999999
11
238.2673639999999864
21
-54.8893979999999999
0
LINE
8
BLACK
6
CONTINUOUS
10
196.5437379999999905
20
-67.8507779999999912
11
182.5629249999999786
21
-68.5834809999999919
0
LINE
8
BLACK
6
CONTINUOUS
10
182.5629249999999786
20
-68.5834809999999919
11
181.830221999999992
21
-54.6026679999999942
0
LINE
8
BLACK
6
CONTINUOUS
10
181.830221999999992
20
-54.6026679999999942
11
195.8110350000000039
21
-53.8699650000000005
0
LINE
8
BLACK
6
CONTINUOUS
10
195.8110350000000039
20
-53.8699650000000005
11
196.5437379999999905
21
-67.8507779999999912
0
LINE
8
BLACK
6
CONTINUOUS
10
180.9195229999999981
20
-168.5644329999999798
11
180.9195229999999981
21
-164.3828330000000051
0
LINE
8
BLACK
6
CONTINUOUS
10
181.4195229999999981
20
-163.8828330000000051
11
182.4515229999999804
21
-163.8828330000000051
0
LINE
8
BLACK
6
CONTINUOUS
10
182.4515229999999804
20
-169.0644329999999798
11
181.4195229999999981
21
-169.0644329999999798
0
LINE
8
BLACK
6
CONTINUOUS
10
182.9515229999999804
20
-164.3828330000000051
11
182.9515229999999804
21
-168.5644329999999798
0
ARC
8
BLACK
10
181.4195229999999981
20
-164.3828330000000051
40
0.5
50
90.00000000
51
180.00000000
0
ARC
8
BLACK
10
181.4195239999999956
20
-168.5644319999999823
40
0.500001000001
50
-179.99988541
51
-90.00011459
0
ARC
8
BLACK
10
182.4515229999999804
20
-164.3828330000000051
40
0.5
50
0.00000000
51
90.00000000
0
ARC
8
BLACK
10
182.4515219999999829
20
-168.5644319999999823
40
0.500001000001
50
-89.99988541
51
-0.00011459
0
LINE
8
BLACK
6
CONTINUOUS
10
217.4357639999999776
20
-183.0089979999999912
11
217.4357639999999776
21
-178.8273979999999881
0
LINE
8
BLACK
6
CONTINUOUS
10
217.9357639999999776
20
-178.3273979999999881
11
218.9677639999999883
21
-178.3273979999999881
0
LINE
8
BLACK
6
CONTINUOUS
10
218.9677639999999883
20
-183.5089979999999912
11
217.9357639999999776
21
-183.5089979999999912
0
LINE
8
BLACK
6
CONTINUOUS
10
219.4677639999999883
20
-178.8273979999999881
11
219.4677639999999883
21
-183.0089979999999912
0
ARC
8
BLACK
10
217.9357639999999776
20
-178.8273979999999881
40
0.5
50
90.00000000
51
180.00000000
0
ARC
8
BLACK
10
217.9357650000000035
20
-183.0089969999999937
40
0.500001000001
50
-179.99988541
51
-90.00011459
0
ARC
8
BLACK
10
218.9677639999999883
20
-178.8273979999999881
40
0.5
50
0.00000000
51
90.00000000
0
ARC
8
BLACK
10
218.9677629999999908
20
-183.0089969999999937
40
0.500001000001
50
-89.99988541
51
-0.00011459
0
LINE
8
BLACK
6
CONTINUOUS
10
217.4357639999999776
20
-148.4475979999999993
11
217.4357639999999776
21
-144.2659979999999962
0
LINE
8
BLACK
6
CONTINUOUS
10
217.9357639999999776
20
-143.7659979999999962
11
218.9677639999999883
21
-143.7659979999999962
0
LINE
8
BLACK
6
CONTINUOUS
10
218.9677639999999883
20
-148.9475979999999993
11
217.9357639999999776
21
-148.9475979999999993
0
LINE
8
BLACK
6
CONTINUOUS
10
219.4677639999999883
20
-144.2659979999999962
11
219.4677639999999883
21
-148.4475979999999993
0
ARC
8
BLACK
10
217.9357639999999776
20
-144.2659979999999962
40
0.5
50
90.00000000
51
180.00000000
0
ARC
8
BLACK
10
217.9357650000000035
20
-148.4475970000000018
40
0.500001000001
50
-179.99988541
51
-90.00011459
0
ARC
8
BLACK
10
218.9677639999999883
20
-144.2659979999999962
40
0.5
50
0.00000000
51
90.00000000
0
ARC
8
BLACK
10
218.9677629999999908
20
-148.4475970000000018
40
0.500001000001
50
-89.99988541
51
-0.00011459
0
LINE
8
BLACK
6
CONTINUOUS
10
196.9840659999999843
20
-84.8510319999999894
11
183.0032530000000008
21
-85.5837349999999901
0
LINE
8
BLACK
6
CONTINUOUS
10
183.0032530000000008
20
-85.5837349999999901
11
182.2705499999999859
21
-71.6029219999999924
0
LINE
8
BLACK
6
CONTINUOUS
10
182.2705499999999859
20
-71.6029219999999924
11
196.2513629999999978
21
-70.8702189999999916
0
LINE
8
BLACK
6
CONTINUOUS
10
196.2513629999999978
20
-70.8702189999999916
11
196.9840659999999843
21
-84.8510319999999894
0
LINE
8
BLACK
6
CONTINUOUS
10
215.6677639999999769
20
-35.3893979999999999
11
201.6677639999999769
21
-35.3893979999999999
0
LINE
8
BLACK
6
CONTINUOUS
10
201.6677639999999769
20
-35.3893979999999999
11
201.6677639999999769
21
-49.3893979999999999
0
LINE
8
BLACK
6
CONTINUOUS
10
201.6677639999999769
20
-49.3893979999999999
11
215.6677639999999769
21
-49.3893979999999999
0
LINE
8
BLACK
6
CONTINUOUS
10
215.6677639999999769
20
-49.3893979999999999
11
215.6677639999999769
21
-35.3893979999999999
0
LINE
8
BLACK
6
CONTINUOUS
10
177.3652599999999779
20
-149.0308670000000006
11
177.3652599999999779
21
-144.8492669999999976
0
LINE
8
BLACK
6
CONTINUOUS
10
177.8652599999999779
20
-144.3492669999999976
11
178.8972599999999886
21
-144.3492669999999976
0
LINE
8
BLACK
6
CONTINUOUS
10
178.8972599999999886
20
-149.5308670000000006
11
177.8652599999999779
21
-149.5308670000000006
0
LINE
8
BLACK
6
CONTINUOUS
10
179.3972599999999886
20
-144.8492669999999976
11
179.3972599999999886
21
-149.0308670000000006
0
ARC
8
BLACK
10
177.8652599999999779
20
-144.8492669999999976
40
0.5
50
90.00000000
51
180.00000000
0
ARC
8
BLACK
10
177.8652610000000038
20
-149.0308660000000032
40
0.500001000001
50
-179.99988541
51
-90.00011459
0
ARC
8
BLACK
10
178.8972599999999886
20
-144.8492669999999976
40
0.5
50
0.00000000
51
90.00000000
0
ARC
8
BLACK
10
178.8972589999999911
20
-149.0308660000000032
40
0.500001000001
50
-89.99988541
51
-0.00011459
  0
ENDSEC
  0
EOF
