  0
SECTION
  2
HEADER
  9
$ANGBASE
  50
0.0
  9
$ANGDIR
  70
1
  9
$MEASUREMENT
  70
1
  0
ENDSEC
  0
SECTION
  2
TABLES
  0
TABLE
  2
LTYPE
  70
4
  0
LTYPE
  5
40F
  2
CONTINUOUS
  70
0
  3
Solid line
  72
65
  73
0
  40
0.0
  0
LTYPE
  5
410
  2
DASHDOT
 70
0
  3
Dash Dot ____ _ ____ _
 72
65
 73
4
 40
2.0
 49
1.25
 49
-0.25
 49
0.25
 49
-0.25
  0
LTYPE
  5
411
  2
DASHED
 70
0
  3
Dashed __ __ __ __ __
 72
65
 73
2
 40
0.75
 49
0.5
 49
-0.25
  0
LTYPE
  5
43B
  2
DOTTED
 70
0
  3
Dotted .  .  .  .
 72
65
 73
2
 40
0.2
 49
0.0
 49
-0.2
  0
ENDTAB
  0
TABLE
  2
STYLE
  70
4
  0
STYLE
  2
KICAD
  70
0
  40
0
  41
1
  42
1
  50
0
  71
0
  3
isocp.shx
  0
STYLE
  2
KICADB
  70
0
  40
0
  41
1
  42
1
  50
0
  71
0
  3
isocp.shx
  0
STYLE
  2
KICADI
  70
0
  40
0
  41
1
  42
1
  50
15
  71
0
  3
isocp.shx
  0
STYLE
  2
KICADBI
  70
0
  40
0
  41
1
  42
1
  50
15
  71
0
  3
isocp.shx
  0
ENDTAB
  0
TABLE
  2
LAYER
  70
1
  0
LAYER
  2
BLACK
  70
0
  62
7
  6
CONTINUOUS
  0
ENDTAB
  0
ENDSEC
  0
SECTION
  2
ENTITIES
0
ARC
8
BLACK
10
105.070999999999998
20
-107.7047999999999917
40
0.999957556011754
50
-82.50245020
51
7.49770840
0
ARC
8
BLACK
10
79.9043999999999954
20
-108.0438999999999936
40
0.9999810011520219
50
-180.00108867
51
-89.99724975
0
ARC
8
BLACK
10
102.4956999999999994
20
-108.0438999999999936
40
0.9999854523141823
50
-89.99816650
51
-82.49805205
0
ARC
8
BLACK
10
151.4253999999999962
20
-103.398699999999991
40
0.4000190001249941
50
0.00272162
51
90.00143233
0
ARC
8
BLACK
10
151.4253999999999962
20
-111.2346999999999895
40
0.3999900004512613
50
-90.00143246
51
0.00272162
0
ARC
8
BLACK
10
137.8071999999999946
20
-102.8884999999999934
40
1.0000561261934251
50
-90.00275005
51
-81.65948615
0
ARC
8
BLACK
10
138.8774999999999977
20
-112.6346999999999952
40
1.0000293614734519
50
90.00160425
51
172.49913460
0
LINE
8
BLACK
6
CONTINUOUS
10
138.8774719999999832
20
-111.6346810000000005
11
151.4253899999999931
21
-111.6346810000000005
0
LINE
8
BLACK
6
CONTINUOUS
10
151.8253899999999987
20
-111.2346809999999948
11
151.8253899999999987
21
-103.3986809999999963
0
LINE
8
BLACK
6
CONTINUOUS
10
143.9513900000000035
20
-102.9986809999999906
11
151.4253899999999931
21
-102.9986809999999906
0
LINE
8
BLACK
6
CONTINUOUS
10
137.9522639999999853
20
-103.8779789999999963
11
143.9513829999999928
21
-102.9986320000000006
0
LINE
8
BLACK
6
CONTINUOUS
10
79.9044480000000021
20
-109.0438809999999989
11
102.4957319999999896
21
-109.0438809999999989
0
LINE
8
BLACK
6
CONTINUOUS
10
102.6262579999999929
20
-109.0353259999999977
11
105.2014889999999951
21
-108.6962899999999905
0
LINE
8
BLACK
6
CONTINUOUS
10
182.2419569999999851
20
-109.4164579999999916
11
175.075774999999993
21
-136.1610119999999995
0
LINE
8
BLACK
6
CONTINUOUS
10
137.8860279999999818
20
-112.5041549999999972
11
135.8000679999999818
21
-128.3485880000000066
0
ARC
8
BLACK
10
80.5900000000000034
20
-56.8506999999999962
40
1.6855704709637622
50
-255.39104388
51
-179.73176877
0
LINE
8
BLACK
6
CONTINUOUS
10
155.5617489999999918
20
-131.967521000000005
11
173.8510299999999802
21
-136.8681190000000072
0
LINE
8
BLACK
6
CONTINUOUS
10
136.6609870000000058
20
-129.4705589999999802
11
155.4334560000000067
21
-131.9420020000000022
0
LINE
8
BLACK
6
CONTINUOUS
10
173.1281119999999873
20
-56.858590999999997
11
173.1281119999999873
21
-105.1720499999999987
0
ARC
8
BLACK
10
171.3536000000000001
20
-56.8451999999999984
40
1.7745227752835409
50
-0.43236294
51
73.54012594
0
LINE
8
BLACK
6
CONTINUOUS
10
181.5347899999999868
20
-108.1919389999999908
11
173.869292999999999
21
-106.1379759999999948
0
ARC
8
BLACK
10
106.7171000000000021
20
-104.8859999999999957
40
0.9999872235683813
50
-270.00068755
51
-172.49991473
0
ARC
8
BLACK
10
126.1210699999999889
20
-188.0764199999999846
40
140.5806104763432245
50
71.01432751
51
109.08090272
0
ARC
8
BLACK
10
174.1279999999999859
20
-105.1721000000000004
40
0.9999228766384934
50
-180.00286511
51
-104.99453750
0
LINE
8
BLACK
6
CONTINUOUS
10
106.7171120000000002
20
-103.8859999999999957
11
137.8071520000000021
21
-103.88855199999999
0
LINE
8
BLACK
6
CONTINUOUS
10
106.0624079999999907
20
-107.5743189999999885
11
105.7256679999999989
21
-105.0165259999999989
0
ARC
8
BLACK
10
174.1098999999999819
20
-135.9022999999999968
40
0.9999232043357129
50
-105.00440457
51
-14.99482907
0
ARC
8
BLACK
10
155.302899999999994
20
-132.9336999999999875
40
1.000254863692249
50
75.00209604
51
82.50019982
0
LINE
8
BLACK
6
CONTINUOUS
10
78.9044480000000021
20
-56.858590999999997
11
78.9044480000000021
21
-108.0438809999999989
0
ARC
8
BLACK
10
136.791499999999985
20
-128.4790999999999883
40
1.000012295849406
50
-187.49928998
51
-97.49914488
0
ARC
8
BLACK
10
181.275999999999982
20
-109.1578999999999979
40
1.000026458460475
50
-14.98509002
51
75.00212900
0
LINE
8
BLACK
6
CONTINUOUS
10
137.3459900000000005
20
-88.2086809999999986
11
151.3459900000000005
21
-88.2086809999999986
0
LINE
8
BLACK
6
CONTINUOUS
10
151.3459900000000005
20
-88.2086809999999986
11
151.3459900000000005
21
-102.2086809999999986
0
LINE
8
BLACK
6
CONTINUOUS
10
151.3459900000000005
20
-102.2086809999999986
11
137.3459900000000005
21
-102.2086809999999986
0
LINE
8
BLACK
6
CONTINUOUS
10
137.3459900000000005
20
-102.2086809999999986
11
137.3459900000000005
21
-88.2086809999999986
0
LINE
8
BLACK
6
CONTINUOUS
10
119.0461899999999957
20
-51.4086809999999943
11
133.0461899999999957
21
-51.4086809999999943
0
LINE
8
BLACK
6
CONTINUOUS
10
133.0461899999999957
20
-51.4086809999999943
11
133.0461899999999957
21
-65.4086810000000014
0
LINE
8
BLACK
6
CONTINUOUS
10
133.0461899999999957
20
-65.4086810000000014
11
119.0461899999999957
21
-65.4086810000000014
0
LINE
8
BLACK
6
CONTINUOUS
10
119.0461899999999957
20
-65.4086810000000014
11
119.0461899999999957
21
-51.4086809999999943
0
CIRCLE
8
BLACK
10
100.2283999999999935
20
-106.019599999999997
40
1.0999999999999999
0
CIRCLE
8
BLACK
10
159.0548000000000002
20
-114.1475999999999971
40
1.0999999999999999
0
CIRCLE
8
BLACK
10
97.3327999999999918
20
-53.5431999999999988
40
1.0999999999999999
0
CIRCLE
8
BLACK
10
155.1939999999999884
20
-53.847999999999999
40
1.0999999999999999
0
LINE
8
BLACK
6
CONTINUOUS
10
100.746389999999991
20
-88.2086809999999986
11
114.746389999999991
21
-88.2086809999999986
0
LINE
8
BLACK
6
CONTINUOUS
10
114.746389999999991
20
-88.2086809999999986
11
114.746389999999991
21
-102.2086809999999986
0
LINE
8
BLACK
6
CONTINUOUS
10
114.746389999999991
20
-102.2086809999999986
11
100.746389999999991
21
-102.2086809999999986
0
LINE
8
BLACK
6
CONTINUOUS
10
100.746389999999991
20
-102.2086809999999986
11
100.746389999999991
21
-88.2086809999999986
0
LINE
8
BLACK
6
CONTINUOUS
10
119.0461899999999957
20
-68.4086810000000014
11
133.0461899999999957
21
-68.4086810000000014
0
LINE
8
BLACK
6
CONTINUOUS
10
133.0461899999999957
20
-68.4086810000000014
11
133.0461899999999957
21
-82.4086810000000014
0
LINE
8
BLACK
6
CONTINUOUS
10
133.0461899999999957
20
-82.4086810000000014
11
119.0461899999999957
21
-82.4086810000000014
0
LINE
8
BLACK
6
CONTINUOUS
10
119.0461899999999957
20
-82.4086810000000014
11
119.0461899999999957
21
-68.4086810000000014
0
LINE
8
BLACK
6
CONTINUOUS
10
100.746389999999991
20
-71.2086809999999986
11
114.746389999999991
21
-71.2086809999999986
0
LINE
8
BLACK
6
CONTINUOUS
10
114.746389999999991
20
-71.2086809999999986
11
114.746389999999991
21
-85.2086809999999986
0
LINE
8
BLACK
6
CONTINUOUS
10
114.746389999999991
20
-85.2086809999999986
11
100.746389999999991
21
-85.2086809999999986
0
LINE
8
BLACK
6
CONTINUOUS
10
100.746389999999991
20
-85.2086809999999986
11
100.746389999999991
21
-71.2086809999999986
0
LINE
8
BLACK
6
CONTINUOUS
10
119.0461899999999957
20
-85.4086810000000014
11
133.0461899999999957
21
-85.4086810000000014
0
LINE
8
BLACK
6
CONTINUOUS
10
133.0461899999999957
20
-85.4086810000000014
11
133.0461899999999957
21
-99.4086810000000014
0
LINE
8
BLACK
6
CONTINUOUS
10
133.0461899999999957
20
-99.4086810000000014
11
119.0461899999999957
21
-99.4086810000000014
0
LINE
8
BLACK
6
CONTINUOUS
10
119.0461899999999957
20
-99.4086810000000014
11
119.0461899999999957
21
-85.4086810000000014
0
LINE
8
BLACK
6
CONTINUOUS
10
100.746389999999991
20
-54.2086809999999986
11
114.746389999999991
21
-54.2086809999999986
0
LINE
8
BLACK
6
CONTINUOUS
10
114.746389999999991
20
-54.2086809999999986
11
114.746389999999991
21
-68.2086809999999986
0
LINE
8
BLACK
6
CONTINUOUS
10
114.746389999999991
20
-68.2086809999999986
11
100.746389999999991
21
-68.2086809999999986
0
LINE
8
BLACK
6
CONTINUOUS
10
100.746389999999991
20
-68.2086809999999986
11
100.746389999999991
21
-54.2086809999999986
0
LINE
8
BLACK
6
CONTINUOUS
10
82.4465900000000005
20
-91.2084809999999919
11
96.4465900000000005
21
-91.2084809999999919
0
LINE
8
BLACK
6
CONTINUOUS
10
96.4465900000000005
20
-91.2084809999999919
11
96.4465900000000005
21
-105.2084809999999919
0
LINE
8
BLACK
6
CONTINUOUS
10
96.4465900000000005
20
-105.2084809999999919
11
82.4465900000000005
21
-105.2084809999999919
0
LINE
8
BLACK
6
CONTINUOUS
10
82.4465900000000005
20
-105.2084809999999919
11
82.4465900000000005
21
-91.2084809999999919
0
LINE
8
BLACK
6
CONTINUOUS
10
137.3459900000000005
20
-54.208480999999999
11
151.3459900000000005
21
-54.208480999999999
0
LINE
8
BLACK
6
CONTINUOUS
10
151.3459900000000005
20
-54.208480999999999
11
151.3459900000000005
21
-68.2084809999999919
0
LINE
8
BLACK
6
CONTINUOUS
10
151.3459900000000005
20
-68.2084809999999919
11
137.3459900000000005
21
-68.2084809999999919
0
LINE
8
BLACK
6
CONTINUOUS
10
137.3459900000000005
20
-68.2084809999999919
11
137.3459900000000005
21
-54.208480999999999
0
LINE
8
BLACK
6
CONTINUOUS
10
175.770214999999979
20
-118.9554289999999952
11
172.1467480000000023
21
-132.4783899999999903
0
LINE
8
BLACK
6
CONTINUOUS
10
172.1467480000000023
20
-132.4783899999999903
11
158.623786999999993
21
-128.8549229999999852
0
LINE
8
BLACK
6
CONTINUOUS
10
158.623786999999993
20
-128.8549229999999852
11
162.2472539999999981
21
-115.3319619999999901
0
LINE
8
BLACK
6
CONTINUOUS
10
162.2472539999999981
20
-115.3319619999999901
11
175.770214999999979
21
-118.9554289999999952
0
LINE
8
BLACK
6
CONTINUOUS
10
137.3459900000000005
20
-71.2086809999999986
11
151.3459900000000005
21
-71.2086809999999986
0
LINE
8
BLACK
6
CONTINUOUS
10
151.3459900000000005
20
-71.2086809999999986
11
151.3459900000000005
21
-85.2086809999999986
0
LINE
8
BLACK
6
CONTINUOUS
10
151.3459900000000005
20
-85.2086809999999986
11
137.3459900000000005
21
-85.2086809999999986
0
LINE
8
BLACK
6
CONTINUOUS
10
137.3459900000000005
20
-85.2086809999999986
11
137.3459900000000005
21
-71.2086809999999986
0
LINE
8
BLACK
6
CONTINUOUS
10
82.4465900000000005
20
-74.2084809999999919
11
96.4465900000000005
21
-74.2084809999999919
0
LINE
8
BLACK
6
CONTINUOUS
10
96.4465900000000005
20
-74.2084809999999919
11
96.4465900000000005
21
-88.2084809999999919
0
LINE
8
BLACK
6
CONTINUOUS
10
96.4465900000000005
20
-88.2084809999999919
11
82.4465900000000005
21
-88.2084809999999919
0
LINE
8
BLACK
6
CONTINUOUS
10
82.4465900000000005
20
-88.2084809999999919
11
82.4465900000000005
21
-74.2084809999999919
0
LINE
8
BLACK
6
CONTINUOUS
10
96.4465900000000005
20
-71.2086809999999986
11
82.4465900000000005
21
-71.2086809999999986
0
LINE
8
BLACK
6
CONTINUOUS
10
82.4465900000000005
20
-71.2086809999999986
11
82.4465900000000005
21
-57.2086809999999986
0
LINE
8
BLACK
6
CONTINUOUS
10
82.4465900000000005
20
-57.2086809999999986
11
96.4465900000000005
21
-57.2086809999999986
0
LINE
8
BLACK
6
CONTINUOUS
10
96.4465900000000005
20
-57.2086809999999986
11
96.4465900000000005
21
-71.2086809999999986
0
LINE
8
BLACK
6
CONTINUOUS
10
155.6457900000000052
20
-91.7482809999999915
11
169.6457900000000052
21
-91.7482809999999915
0
LINE
8
BLACK
6
CONTINUOUS
10
169.6457900000000052
20
-91.7482809999999915
11
169.6457900000000052
21
-105.7482809999999915
0
LINE
8
BLACK
6
CONTINUOUS
10
169.6457900000000052
20
-105.7482809999999915
11
155.6457900000000052
21
-105.7482809999999915
0
LINE
8
BLACK
6
CONTINUOUS
10
155.6457900000000052
20
-105.7482809999999915
11
155.6457900000000052
21
-91.7482809999999915
0
LINE
8
BLACK
6
CONTINUOUS
10
155.6475299999999891
20
-114.0388659999999987
11
153.8201640000000054
21
-127.9190940000000012
0
LINE
8
BLACK
6
CONTINUOUS
10
153.8201640000000054
20
-127.9190940000000012
11
139.9399359999999888
21
-126.0917279999999892
0
LINE
8
BLACK
6
CONTINUOUS
10
139.9399359999999888
20
-126.0917279999999892
11
141.7673020000000008
21
-112.2115000000000009
0
LINE
8
BLACK
6
CONTINUOUS
10
141.7673020000000008
20
-112.2115000000000009
11
155.6475299999999891
21
-114.0388659999999987
0
LINE
8
BLACK
6
CONTINUOUS
10
169.6457900000000052
20
-71.7482809999999915
11
155.6457900000000052
21
-71.7482809999999915
0
LINE
8
BLACK
6
CONTINUOUS
10
155.6457900000000052
20
-71.7482809999999915
11
155.6457900000000052
21
-57.7482809999999986
0
LINE
8
BLACK
6
CONTINUOUS
10
155.6457900000000052
20
-57.7482809999999986
11
169.6457900000000052
21
-57.7482809999999986
0
LINE
8
BLACK
6
CONTINUOUS
10
169.6457900000000052
20
-57.7482809999999986
11
169.6457900000000052
21
-71.7482809999999915
0
LINE
8
BLACK
6
CONTINUOUS
10
155.6457900000000052
20
-74.7482809999999915
11
169.6457900000000052
21
-74.7482809999999915
0
LINE
8
BLACK
6
CONTINUOUS
10
169.6457900000000052
20
-74.7482809999999915
11
169.6457900000000052
21
-88.7482809999999915
0
LINE
8
BLACK
6
CONTINUOUS
10
169.6457900000000052
20
-88.7482809999999915
11
155.6457900000000052
21
-88.7482809999999915
0
LINE
8
BLACK
6
CONTINUOUS
10
155.6457900000000052
20
-88.7482809999999915
11
155.6457900000000052
21
-74.7482809999999915
  0
ENDSEC
  0
EOF
