  0
SECTION
  2
HEADER
  9
$ANGBASE
  50
0.0
  9
$ANGDIR
  70
1
  9
$MEASUREMENT
  70
1
  0
ENDSEC
  0
SECTION
  2
TABLES
  0
TABLE
  2
LTYPE
  70
4
  0
LTYPE
  5
40F
  2
CONTINUOUS
  70
0
  3
Solid line
  72
65
  73
0
  40
0.0
  0
LTYPE
  5
410
  2
DASHDOT
 70
0
  3
Dash Dot ____ _ ____ _
 72
65
 73
4
 40
2.0
 49
1.25
 49
-0.25
 49
0.25
 49
-0.25
  0
LTYPE
  5
411
  2
DASHED
 70
0
  3
Dashed __ __ __ __ __
 72
65
 73
2
 40
0.75
 49
0.5
 49
-0.25
  0
LTYPE
  5
43B
  2
DOTTED
 70
0
  3
Dotted .  .  .  .
 72
65
 73
2
 40
0.2
 49
0.0
 49
-0.2
  0
ENDTAB
  0
TABLE
  2
STYLE
  70
4
  0
STYLE
  2
KICAD
  70
0
  40
0
  41
1
  42
1
  50
0
  71
0
  3
isocp.shx
  0
STYLE
  2
KICADB
  70
0
  40
0
  41
1
  42
1
  50
0
  71
0
  3
isocp.shx
  0
STYLE
  2
KICADI
  70
0
  40
0
  41
1
  42
1
  50
15
  71
0
  3
isocp.shx
  0
STYLE
  2
KICADBI
  70
0
  40
0
  41
1
  42
1
  50
15
  71
0
  3
isocp.shx
  0
ENDTAB
  0
TABLE
  2
LAYER
  70
1
  0
LAYER
  2
BLACK
  70
0
  62
7
  6
CONTINUOUS
  0
ENDTAB
  0
ENDSEC
  0
SECTION
  2
ENTITIES
0
CIRCLE
8
BLACK
10
95.6579179999999951
20
-123.3761419999999873
40
0.5
0
CIRCLE
8
BLACK
10
94.5501950000000022
20
-114.96214599999999
40
0.5
0
ARC
8
BLACK
10
172.2329000000000008
20
-59.755199999999995
40
3.3234221378363897
50
-1.97297398
51
68.21712014
0
ARC
8
BLACK
10
155.0682999999999936
20
-134.1131000000000029
40
2.2001861183708979
50
75.00077441
51
82.50015540
0
ARC
8
BLACK
10
86.4381999999999948
20
-127.6358999999999924
40
2.199944597584448
50
-172.52558085
51
-82.49924848
0
ARC
8
BLACK
10
81.035899999999998
20
-107.6911999999999949
40
2.2000304337688146
50
-176.99918411
51
-82.50022578
0
LINE
8
BLACK
6
CONTINUOUS
10
137.8507199999999955
20
-129.627192000000008
11
155.3554759999999817
21
-131.9317360000000008
0
LINE
8
BLACK
6
CONTINUOUS
10
173.1821529999999996
20
-105.1338279999999941
11
175.5543499999999995
21
-59.8696190000000001
0
ARC
8
BLACK
10
173.2613000000000056
20
-134.4325000000000045
40
2.2000202276717817
50
-104.99947977
51
-14.99983460
0
LINE
8
BLACK
6
CONTINUOUS
10
81.3828510000000023
20
-109.8645369999999986
11
81.3230530000000016
21
-109.8724100000000021
0
ARC
8
BLACK
10
179.8062999999999931
20
-110.0063999999999993
40
2.2000010108127221
50
-14.99998025
51
75.00062447
0
LINE
8
BLACK
6
CONTINUOUS
10
155.6377209999999991
20
-131.9878769999999975
11
172.6919189999999844
21
-136.5575359999999989
0
LINE
8
BLACK
6
CONTINUOUS
10
81.9438629999999932
20
-110.2952049999999957
11
84.256922000000003
21
-127.922079999999994
0
LINE
8
BLACK
6
CONTINUOUS
10
173.9219630000000052
20
-106.1520889999999895
11
180.375678999999991
21
-107.8813559999999967
0
ARC
8
BLACK
10
138.1379000000000019
20
-127.445999999999998
40
2.200016112046455
50
-187.49960165
51
-97.50053256
0
ARC
8
BLACK
10
136.7396999999999991
20
-105.8884999999999934
40
2.0000350106088143
50
-7.49884066
51
89.99409864
0
ARC
8
BLACK
10
124.9191499999999877
20
-172.0317599999999914
40
125.1613494073032058
50
67.17761886
51
111.20939854
0
LINE
8
BLACK
6
CONTINUOUS
10
107.8574539999999899
20
-103.8860929999999883
11
136.7399059999999906
21
-103.8884649999999965
0
LINE
8
BLACK
6
CONTINUOUS
10
108.3222569999999934
20
-124.7549779999999942
11
105.8743739999999889
21
-106.1469449999999881
0
ARC
8
BLACK
10
106.1409999999999911
20
-125.0418999999999983
40
2.2000468936213609
50
-82.49877709
51
7.49364999
0
LINE
8
BLACK
6
CONTINUOUS
10
77.1418589999999966
20
-59.1582809999999952
11
78.8389049999999969
21
-107.8063709999999986
0
LINE
8
BLACK
6
CONTINUOUS
10
175.3863580000000013
20
-135.0019010000000037
11
181.9313139999999862
21
-110.5757949999999994
0
LINE
8
BLACK
6
CONTINUOUS
10
135.9566999999999837
20
-127.1588549999999884
11
138.7226310000000069
21
-106.1495169999999888
0
LINE
8
BLACK
6
CONTINUOUS
10
106.4282070000000004
20
-127.223093999999989
11
86.7253789999999896
21
-129.8170199999999852
0
ARC
8
BLACK
10
81.4480999999999966
20
-110.3602999999999952
40
0.5000383826967686
50
7.48029632
51
97.49779189
0
ARC
8
BLACK
10
107.8572999999999951
20
-105.886099999999999
40
2.0000089088554081
50
-270.00441176
51
-172.50602592
0
ARC
8
BLACK
10
174.1808999999999799
20
-105.1860999999999962
40
1.0000915548538543
50
-182.99598882
51
-105.00559070
0
ARC
8
BLACK
10
81.1263999999999896
20
-59.0462999999999951
40
3.9861142388348578
50
-248.08378405
51
-178.39019092
0
CIRCLE
8
BLACK
10
101.0253900000000016
20
-106.6562809999999928
40
1.5999999999999999
0
CIRCLE
8
BLACK
10
159.0548000000000002
20
-114.1475999999999971
40
1.5999999999999999
0
CIRCLE
8
BLACK
10
97.1645899999999898
20
-53.4686809999999966
40
1.5999999999999999
0
CIRCLE
8
BLACK
10
156.3973900000000015
20
-54.5862809999999996
40
1.5999999999999999
0
CIRCLE
8
BLACK
10
101.9885039999999918
20
-110.6463289999999944
40
1.05
0
CIRCLE
8
BLACK
10
99.4702339999999907
20
-110.9778659999999917
40
1.05
0
CIRCLE
8
BLACK
10
96.9519639999999896
20
-111.309402999999989
40
1.050001
0
CIRCLE
8
BLACK
10
94.4336940000000027
20
-111.6409389999999888
40
1.05
0
CIRCLE
8
BLACK
10
91.9154240000000016
20
-111.9724760000000003
40
1.050001
0
CIRCLE
8
BLACK
10
89.3971540000000005
20
-112.3040120000000002
40
1.05
0
CIRCLE
8
BLACK
10
86.8788839999999993
20
-112.6355489999999975
40
1.05
0
CIRCLE
8
BLACK
10
103.959787999999989
20
-125.6197249999999883
40
1.05
0
CIRCLE
8
BLACK
10
101.4415180000000021
20
-125.9512609999999881
40
1.05
0
CIRCLE
8
BLACK
10
98.9232489999999984
20
-126.2827979999999997
40
1.05
0
CIRCLE
8
BLACK
10
96.4049789999999973
20
-126.6143339999999995
40
1.05
0
CIRCLE
8
BLACK
10
93.8867089999999962
20
-126.9458709999999968
40
1.05
0
CIRCLE
8
BLACK
10
91.3684389999999951
20
-127.2774069999999966
40
1.05
0
CIRCLE
8
BLACK
10
88.850168999999994
20
-127.6089439999999939
40
1.05
0
LINE
8
BLACK
6
CONTINUOUS
10
150.5379999999999825
20
-108.8489999999999895
11
150.5379999999999825
21
-111.6430000000000007
0
LINE
8
BLACK
6
CONTINUOUS
10
150.5379999999999825
20
-111.6430000000000007
11
143.9339999999999975
21
-111.6430000000000007
0
LINE
8
BLACK
6
CONTINUOUS
10
151.9350000000000023
20
-107.3249999999999886
11
151.9350000000000023
21
-108.8489999999999895
0
LINE
8
BLACK
6
CONTINUOUS
10
151.9350000000000023
20
-108.8489999999999895
11
150.5379999999999825
21
-108.8489999999999895
0
LINE
8
BLACK
6
CONTINUOUS
10
151.9350000000000023
20
-107.3249999999999886
11
151.9350000000000023
21
-105.8010000000000019
0
LINE
8
BLACK
6
CONTINUOUS
10
151.9350000000000023
20
-105.8010000000000019
11
150.5379999999999825
21
-105.8010000000000019
0
LINE
8
BLACK
6
CONTINUOUS
10
150.5379999999999825
20
-105.8010000000000019
11
150.5379999999999825
21
-103.0069999999999908
0
LINE
8
BLACK
6
CONTINUOUS
10
143.9339999999999975
20
-111.6430000000000007
11
143.9339999999999975
21
-103.0069999999999908
0
LINE
8
BLACK
6
CONTINUOUS
10
150.5379999999999825
20
-103.0069999999999908
11
143.9339999999999975
21
-103.0069999999999908
0
LINE
8
BLACK
6
CONTINUOUS
10
169.5037899999999809
20
-84.9646809999999988
11
171.5357899999999916
21
-84.9646809999999988
0
LINE
8
BLACK
6
CONTINUOUS
10
171.5357899999999916
20
-84.9646809999999988
11
171.5357899999999916
21
-90.1462810000000019
0
LINE
8
BLACK
6
CONTINUOUS
10
171.5357899999999916
20
-90.1462810000000019
11
169.5037899999999809
21
-90.1462810000000019
0
LINE
8
BLACK
6
CONTINUOUS
10
169.5037899999999809
20
-90.1462810000000019
11
169.5037899999999809
21
-84.9646809999999988
0
LINE
8
BLACK
6
CONTINUOUS
10
133.1817900000000066
20
-74.6870809999999921
11
135.2137899999999888
21
-74.6870809999999921
0
LINE
8
BLACK
6
CONTINUOUS
10
135.2137899999999888
20
-74.6870809999999921
11
135.2137899999999888
21
-79.8686809999999952
0
LINE
8
BLACK
6
CONTINUOUS
10
135.2137899999999888
20
-79.8686809999999952
11
133.1817900000000066
21
-79.8686809999999952
0
LINE
8
BLACK
6
CONTINUOUS
10
133.1817900000000066
20
-79.8686809999999952
11
133.1817900000000066
21
-74.6870809999999921
0
LINE
8
BLACK
6
CONTINUOUS
10
96.7453900000000004
20
-80.4434809999999914
11
98.7773899999999969
21
-80.4434809999999914
0
LINE
8
BLACK
6
CONTINUOUS
10
98.7773899999999969
20
-80.4434809999999914
11
98.7773899999999969
21
-85.6250809999999944
0
LINE
8
BLACK
6
CONTINUOUS
10
98.7773899999999969
20
-85.6250809999999944
11
96.7453900000000004
21
-85.6250809999999944
0
LINE
8
BLACK
6
CONTINUOUS
10
96.7453900000000004
20
-85.6250809999999944
11
96.7453900000000004
21
-80.4434809999999914
0
LINE
8
BLACK
6
CONTINUOUS
10
115.2461899999999986
20
-94.3466809999999896
11
117.2781899999999951
21
-94.3466809999999896
0
LINE
8
BLACK
6
CONTINUOUS
10
117.2781899999999951
20
-94.3466809999999896
11
117.2781899999999951
21
-99.5282809999999927
0
LINE
8
BLACK
6
CONTINUOUS
10
117.2781899999999951
20
-99.5282809999999927
11
115.2461899999999986
21
-99.5282809999999927
0
LINE
8
BLACK
6
CONTINUOUS
10
115.2461899999999986
20
-99.5282809999999927
11
115.2461899999999986
21
-94.3466809999999896
0
LINE
8
BLACK
6
CONTINUOUS
10
115.2461899999999986
20
-77.4302809999999937
11
117.2781899999999951
21
-77.4302809999999937
0
LINE
8
BLACK
6
CONTINUOUS
10
117.2781899999999951
20
-77.4302809999999937
11
117.2781899999999951
21
-82.6118809999999968
0
LINE
8
BLACK
6
CONTINUOUS
10
117.2781899999999951
20
-82.6118809999999968
11
115.2461899999999986
21
-82.6118809999999968
0
LINE
8
BLACK
6
CONTINUOUS
10
115.2461899999999986
20
-82.6118809999999968
11
115.2461899999999986
21
-77.4302809999999937
0
LINE
8
BLACK
6
CONTINUOUS
10
151.0633899999999983
20
-79.8654810000000026
11
153.0953899999999805
21
-79.8654810000000026
0
LINE
8
BLACK
6
CONTINUOUS
10
153.0953899999999805
20
-79.8654810000000026
11
153.0953899999999805
21
-85.0470809999999915
0
LINE
8
BLACK
6
CONTINUOUS
10
153.0953899999999805
20
-85.0470809999999915
11
151.0633899999999983
21
-85.0470809999999915
0
LINE
8
BLACK
6
CONTINUOUS
10
151.0633899999999983
20
-85.0470809999999915
11
151.0633899999999983
21
-79.8654810000000026
0
LINE
8
BLACK
6
CONTINUOUS
10
154.5177899999999909
20
-60.3266810000000007
11
156.5497900000000016
21
-60.3266810000000007
0
LINE
8
BLACK
6
CONTINUOUS
10
156.5497900000000016
20
-60.3266810000000007
11
156.5497900000000016
21
-65.5082809999999967
0
LINE
8
BLACK
6
CONTINUOUS
10
156.5497900000000016
20
-65.5082809999999967
11
154.5177899999999909
21
-65.5082809999999967
0
LINE
8
BLACK
6
CONTINUOUS
10
154.5177899999999909
20
-65.5082809999999967
11
154.5177899999999909
21
-60.3266810000000007
0
LINE
8
BLACK
6
CONTINUOUS
10
155.9401900000000012
20
-114.1746809999999925
11
153.9081899999999905
21
-114.1746809999999925
0
LINE
8
BLACK
6
CONTINUOUS
10
153.9081899999999905
20
-114.1746809999999925
11
153.9081899999999905
21
-108.9930809999999894
0
LINE
8
BLACK
6
CONTINUOUS
10
153.9081899999999905
20
-108.9930809999999894
11
155.9401900000000012
21
-108.9930809999999894
0
LINE
8
BLACK
6
CONTINUOUS
10
155.9401900000000012
20
-108.9930809999999894
11
155.9401900000000012
21
-114.1746809999999925
0
LINE
8
BLACK
6
CONTINUOUS
10
158.8357900000000029
20
-124.9442809999999895
11
156.8037899999999922
21
-124.9442809999999895
0
LINE
8
BLACK
6
CONTINUOUS
10
156.8037899999999922
20
-124.9442809999999895
11
156.8037899999999922
21
-119.7626810000000006
0
LINE
8
BLACK
6
CONTINUOUS
10
156.8037899999999922
20
-119.7626810000000006
11
158.8357900000000029
21
-119.7626810000000006
0
LINE
8
BLACK
6
CONTINUOUS
10
158.8357900000000029
20
-119.7626810000000006
11
158.8357900000000029
21
-124.9442809999999895
0
LINE
8
BLACK
6
CONTINUOUS
10
96.7453900000000004
20
-97.6138809999999921
11
98.7773899999999969
21
-97.6138809999999921
0
LINE
8
BLACK
6
CONTINUOUS
10
98.7773899999999969
20
-97.6138809999999921
11
98.7773899999999969
21
-102.7954809999999952
0
LINE
8
BLACK
6
CONTINUOUS
10
98.7773899999999969
20
-102.7954809999999952
11
96.7453900000000004
21
-102.7954809999999952
0
LINE
8
BLACK
6
CONTINUOUS
10
96.7453900000000004
20
-102.7954809999999952
11
96.7453900000000004
21
-97.6138809999999921
0
LINE
8
BLACK
6
CONTINUOUS
10
115.2461899999999986
20
-59.230280999999998
11
117.2781899999999951
21
-59.230280999999998
0
LINE
8
BLACK
6
CONTINUOUS
10
117.2781899999999951
20
-59.230280999999998
11
117.2781899999999951
21
-64.4118809999999939
0
LINE
8
BLACK
6
CONTINUOUS
10
117.2781899999999951
20
-64.4118809999999939
11
115.2461899999999986
21
-64.4118809999999939
0
LINE
8
BLACK
6
CONTINUOUS
10
115.2461899999999986
20
-64.4118809999999939
11
115.2461899999999986
21
-59.230280999999998
0
LINE
8
BLACK
6
CONTINUOUS
10
133.1817900000000066
20
-91.6542809999999974
11
135.2137899999999888
21
-91.6542809999999974
0
LINE
8
BLACK
6
CONTINUOUS
10
135.2137899999999888
20
-91.6542809999999974
11
135.2137899999999888
21
-96.8358810000000005
0
LINE
8
BLACK
6
CONTINUOUS
10
135.2137899999999888
20
-96.8358810000000005
11
133.1817900000000066
21
-96.8358810000000005
0
LINE
8
BLACK
6
CONTINUOUS
10
133.1817900000000066
20
-96.8358810000000005
11
133.1817900000000066
21
-91.6542809999999974
0
LINE
8
BLACK
6
CONTINUOUS
10
133.1817900000000066
20
-57.9230809999999963
11
135.2137899999999888
21
-57.9230809999999963
0
LINE
8
BLACK
6
CONTINUOUS
10
135.2137899999999888
20
-57.9230809999999963
11
135.2137899999999888
21
-63.1046809999999994
0
LINE
8
BLACK
6
CONTINUOUS
10
135.2137899999999888
20
-63.1046809999999994
11
133.1817900000000066
21
-63.1046809999999994
0
LINE
8
BLACK
6
CONTINUOUS
10
133.1817900000000066
20
-63.1046809999999994
11
133.1817900000000066
21
-57.9230809999999963
0
LINE
8
BLACK
6
CONTINUOUS
10
151.0633899999999983
20
-62.8666809999999998
11
153.0953899999999805
21
-62.8666809999999998
0
LINE
8
BLACK
6
CONTINUOUS
10
153.0953899999999805
20
-62.8666809999999998
11
153.0953899999999805
21
-68.0482810000000029
0
LINE
8
BLACK
6
CONTINUOUS
10
153.0953899999999805
20
-68.0482810000000029
11
151.0633899999999983
21
-68.0482810000000029
0
LINE
8
BLACK
6
CONTINUOUS
10
151.0633899999999983
20
-68.0482810000000029
11
151.0633899999999983
21
-62.8666809999999998
0
LINE
8
BLACK
6
CONTINUOUS
10
151.0633899999999983
20
-96.6654809999999998
11
153.0953899999999805
21
-96.6654809999999998
0
LINE
8
BLACK
6
CONTINUOUS
10
153.0953899999999805
20
-96.6654809999999998
11
153.0953899999999805
21
-101.8470809999999886
0
LINE
8
BLACK
6
CONTINUOUS
10
153.0953899999999805
20
-101.8470809999999886
11
151.0633899999999983
21
-101.8470809999999886
0
LINE
8
BLACK
6
CONTINUOUS
10
151.0633899999999983
20
-101.8470809999999886
11
151.0633899999999983
21
-96.6654809999999998
0
LINE
8
BLACK
6
CONTINUOUS
10
169.5037899999999809
20
-101.93188099999999
11
171.5357899999999916
21
-101.93188099999999
0
LINE
8
BLACK
6
CONTINUOUS
10
171.5357899999999916
20
-101.93188099999999
11
171.5357899999999916
21
-107.1134809999999931
0
LINE
8
BLACK
6
CONTINUOUS
10
171.5357899999999916
20
-107.1134809999999931
11
169.5037899999999809
21
-107.1134809999999931
0
LINE
8
BLACK
6
CONTINUOUS
10
169.5037899999999809
20
-107.1134809999999931
11
169.5037899999999809
21
-101.93188099999999
0
LINE
8
BLACK
6
CONTINUOUS
10
96.7453900000000004
20
-59.2678809999999956
11
98.7773899999999969
21
-59.2678809999999956
0
LINE
8
BLACK
6
CONTINUOUS
10
98.7773899999999969
20
-59.2678809999999956
11
98.7773899999999969
21
-64.4494809999999916
0
LINE
8
BLACK
6
CONTINUOUS
10
98.7773899999999969
20
-64.4494809999999916
11
96.7453900000000004
21
-64.4494809999999916
0
LINE
8
BLACK
6
CONTINUOUS
10
96.7453900000000004
20
-64.4494809999999916
11
96.7453900000000004
21
-59.2678809999999956
0
LINE
8
BLACK
6
CONTINUOUS
10
100.746389999999991
20
-88.2086809999999986
11
114.746389999999991
21
-88.2086809999999986
0
LINE
8
BLACK
6
CONTINUOUS
10
114.746389999999991
20
-88.2086809999999986
11
114.746389999999991
21
-102.2086809999999986
0
LINE
8
BLACK
6
CONTINUOUS
10
114.746389999999991
20
-102.2086809999999986
11
100.746389999999991
21
-102.2086809999999986
0
LINE
8
BLACK
6
CONTINUOUS
10
100.746389999999991
20
-102.2086809999999986
11
100.746389999999991
21
-88.2086809999999986
0
LINE
8
BLACK
6
CONTINUOUS
10
119.0461899999999957
20
-68.4086810000000014
11
133.0461899999999957
21
-68.4086810000000014
0
LINE
8
BLACK
6
CONTINUOUS
10
133.0461899999999957
20
-68.4086810000000014
11
133.0461899999999957
21
-82.4086810000000014
0
LINE
8
BLACK
6
CONTINUOUS
10
133.0461899999999957
20
-82.4086810000000014
11
119.0461899999999957
21
-82.4086810000000014
0
LINE
8
BLACK
6
CONTINUOUS
10
119.0461899999999957
20
-82.4086810000000014
11
119.0461899999999957
21
-68.4086810000000014
0
LINE
8
BLACK
6
CONTINUOUS
10
100.746389999999991
20
-71.2086809999999986
11
114.746389999999991
21
-71.2086809999999986
0
LINE
8
BLACK
6
CONTINUOUS
10
114.746389999999991
20
-71.2086809999999986
11
114.746389999999991
21
-85.2086809999999986
0
LINE
8
BLACK
6
CONTINUOUS
10
114.746389999999991
20
-85.2086809999999986
11
100.746389999999991
21
-85.2086809999999986
0
LINE
8
BLACK
6
CONTINUOUS
10
100.746389999999991
20
-85.2086809999999986
11
100.746389999999991
21
-71.2086809999999986
0
LINE
8
BLACK
6
CONTINUOUS
10
119.0461899999999957
20
-85.4086810000000014
11
133.0461899999999957
21
-85.4086810000000014
0
LINE
8
BLACK
6
CONTINUOUS
10
133.0461899999999957
20
-85.4086810000000014
11
133.0461899999999957
21
-99.4086810000000014
0
LINE
8
BLACK
6
CONTINUOUS
10
133.0461899999999957
20
-99.4086810000000014
11
119.0461899999999957
21
-99.4086810000000014
0
LINE
8
BLACK
6
CONTINUOUS
10
119.0461899999999957
20
-99.4086810000000014
11
119.0461899999999957
21
-85.4086810000000014
0
LINE
8
BLACK
6
CONTINUOUS
10
100.746389999999991
20
-53.0086809999999957
11
114.746389999999991
21
-53.0086809999999957
0
LINE
8
BLACK
6
CONTINUOUS
10
114.746389999999991
20
-53.0086809999999957
11
114.746389999999991
21
-67.0086809999999957
0
LINE
8
BLACK
6
CONTINUOUS
10
114.746389999999991
20
-67.0086809999999957
11
100.746389999999991
21
-67.0086809999999957
0
LINE
8
BLACK
6
CONTINUOUS
10
100.746389999999991
20
-67.0086809999999957
11
100.746389999999991
21
-53.0086809999999957
0
LINE
8
BLACK
6
CONTINUOUS
10
95.8866220000000027
20
-105.7599199999999939
11
81.8951509999999985
21
-106.2485129999999884
0
LINE
8
BLACK
6
CONTINUOUS
10
81.8951509999999985
20
-106.2485129999999884
11
81.4065579999999898
21
-92.2570419999999984
0
LINE
8
BLACK
6
CONTINUOUS
10
81.4065579999999898
20
-92.2570419999999984
11
95.398028999999994
21
-91.7684489999999897
0
LINE
8
BLACK
6
CONTINUOUS
10
95.398028999999994
20
-91.7684489999999897
11
95.8866220000000027
21
-105.7599199999999939
0
LINE
8
BLACK
6
CONTINUOUS
10
152.299272000000002
20
-54.0684769999999943
11
151.566568999999987
21
-68.0492899999999992
0
LINE
8
BLACK
6
CONTINUOUS
10
151.566568999999987
20
-68.0492899999999992
11
137.5857560000000035
21
-67.3165869999999984
0
LINE
8
BLACK
6
CONTINUOUS
10
137.5857560000000035
20
-67.3165869999999984
11
138.3184589999999901
21
-53.3357740000000007
0
LINE
8
BLACK
6
CONTINUOUS
10
138.3184589999999901
20
-53.3357740000000007
11
152.299272000000002
21
-54.0684769999999943
0
LINE
8
BLACK
6
CONTINUOUS
10
175.770214999999979
20
-118.9554289999999952
11
172.1467480000000023
21
-132.4783899999999903
0
LINE
8
BLACK
6
CONTINUOUS
10
172.1467480000000023
20
-132.4783899999999903
11
158.623786999999993
21
-128.8549229999999852
0
LINE
8
BLACK
6
CONTINUOUS
10
158.623786999999993
20
-128.8549229999999852
11
162.2472539999999981
21
-115.3319619999999901
0
LINE
8
BLACK
6
CONTINUOUS
10
162.2472539999999981
20
-115.3319619999999901
11
175.770214999999979
21
-118.9554289999999952
0
LINE
8
BLACK
6
CONTINUOUS
10
119.0461899999999957
20
-51.4086809999999943
11
133.0461899999999957
21
-51.4086809999999943
0
LINE
8
BLACK
6
CONTINUOUS
10
133.0461899999999957
20
-51.4086809999999943
11
133.0461899999999957
21
-65.4086810000000014
0
LINE
8
BLACK
6
CONTINUOUS
10
133.0461899999999957
20
-65.4086810000000014
11
119.0461899999999957
21
-65.4086810000000014
0
LINE
8
BLACK
6
CONTINUOUS
10
119.0461899999999957
20
-65.4086810000000014
11
119.0461899999999957
21
-51.4086809999999943
0
LINE
8
BLACK
6
CONTINUOUS
10
151.9179210000000069
20
-88.0953519999999912
11
151.1852179999999919
21
-102.0761649999999889
0
LINE
8
BLACK
6
CONTINUOUS
10
151.1852179999999919
20
-102.0761649999999889
11
137.20440499999998
21
-101.3434620000000024
0
LINE
8
BLACK
6
CONTINUOUS
10
137.20440499999998
20
-101.3434620000000024
11
137.9371079999999949
21
-87.3626489999999905
0
LINE
8
BLACK
6
CONTINUOUS
10
137.9371079999999949
20
-87.3626489999999905
11
151.9179210000000069
21
-88.0953519999999912
0
LINE
8
BLACK
6
CONTINUOUS
10
152.1585230000000024
20
-71.0846310000000017
11
151.4258199999999874
21
-85.0654439999999994
0
LINE
8
BLACK
6
CONTINUOUS
10
151.4258199999999874
20
-85.0654439999999994
11
137.4450070000000039
21
-84.3327409999999986
0
LINE
8
BLACK
6
CONTINUOUS
10
137.4450070000000039
20
-84.3327409999999986
11
138.1777099999999905
21
-70.3519280000000009
0
LINE
8
BLACK
6
CONTINUOUS
10
138.1777099999999905
20
-70.3519280000000009
11
152.1585230000000024
21
-71.0846310000000017
0
LINE
8
BLACK
6
CONTINUOUS
10
95.8761519999999905
20
-88.4601029999999895
11
81.8846810000000005
21
-88.9486959999999982
0
LINE
8
BLACK
6
CONTINUOUS
10
81.8846810000000005
20
-88.9486959999999982
11
81.3960879999999918
21
-74.957224999999994
0
LINE
8
BLACK
6
CONTINUOUS
10
81.3960879999999918
20
-74.957224999999994
11
95.387558999999996
21
-74.4686319999999995
0
LINE
8
BLACK
6
CONTINUOUS
10
95.387558999999996
20
-74.4686319999999995
11
95.8761519999999905
21
-88.4601029999999895
0
LINE
8
BLACK
6
CONTINUOUS
10
96.4465900000000005
20
-70.9086810000000014
11
82.4465900000000005
21
-70.9086810000000014
0
LINE
8
BLACK
6
CONTINUOUS
10
82.4465900000000005
20
-70.9086810000000014
11
82.4465900000000005
21
-56.9086809999999943
0
LINE
8
BLACK
6
CONTINUOUS
10
82.4465900000000005
20
-56.9086809999999943
11
96.4465900000000005
21
-56.9086809999999943
0
LINE
8
BLACK
6
CONTINUOUS
10
96.4465900000000005
20
-56.9086809999999943
11
96.4465900000000005
21
-70.9086810000000014
0
LINE
8
BLACK
6
CONTINUOUS
10
169.9550579999999798
20
-93.5864679999999964
11
169.2223549999999932
21
-107.5672809999999942
0
LINE
8
BLACK
6
CONTINUOUS
10
169.2223549999999932
20
-107.5672809999999942
11
155.2415419999999813
21
-106.8345779999999934
0
LINE
8
BLACK
6
CONTINUOUS
10
155.2415419999999813
20
-106.8345779999999934
11
155.9742449999999963
21
-92.8537649999999957
0
LINE
8
BLACK
6
CONTINUOUS
10
155.9742449999999963
20
-92.8537649999999957
11
169.9550579999999798
21
-93.5864679999999964
0
LINE
8
BLACK
6
CONTINUOUS
10
155.6475299999999891
20
-114.0388659999999987
11
153.8201640000000054
21
-127.9190940000000012
0
LINE
8
BLACK
6
CONTINUOUS
10
153.8201640000000054
20
-127.9190940000000012
11
139.9399359999999888
21
-126.0917279999999892
0
LINE
8
BLACK
6
CONTINUOUS
10
139.9399359999999888
20
-126.0917279999999892
11
141.7673020000000008
21
-112.2115000000000009
0
LINE
8
BLACK
6
CONTINUOUS
10
141.7673020000000008
20
-112.2115000000000009
11
155.6475299999999891
21
-114.0388659999999987
0
LINE
8
BLACK
6
CONTINUOUS
10
170.9355759999999975
20
-59.591194999999999
11
170.2028729999999825
21
-73.5720079999999967
0
LINE
8
BLACK
6
CONTINUOUS
10
170.2028729999999825
20
-73.5720079999999967
11
156.222059999999999
21
-72.839304999999996
0
LINE
8
BLACK
6
CONTINUOUS
10
156.222059999999999
20
-72.839304999999996
11
156.9547629999999856
21
-58.8584919999999983
0
LINE
8
BLACK
6
CONTINUOUS
10
156.9547629999999856
20
-58.8584919999999983
11
170.9355759999999975
21
-59.591194999999999
0
LINE
8
BLACK
6
CONTINUOUS
10
170.6450429999999869
20
-76.599299000000002
11
169.9123400000000004
21
-90.5801119999999997
0
LINE
8
BLACK
6
CONTINUOUS
10
169.9123400000000004
20
-90.5801119999999997
11
155.9315269999999884
21
-89.847408999999999
0
LINE
8
BLACK
6
CONTINUOUS
10
155.9315269999999884
20
-89.847408999999999
11
156.6642300000000034
21
-75.8665960000000013
0
LINE
8
BLACK
6
CONTINUOUS
10
156.6642300000000034
20
-75.8665960000000013
11
170.6450429999999869
21
-76.599299000000002
  0
ENDSEC
  0
EOF
